<svg clip-rule="evenodd" fill-rule="evenodd" stroke-linejoin="round" stroke-miterlimit="2" viewBox="0 0 795 821" xmlns="http://www.w3.org/2000/svg"><g fill="#fff"><g transform="matrix(1.48784 0 0 1.48784 -484.8008224 -433.619861664)"><g fill-rule="nonzero"><path d="m.26 0h-.211v-.021h.026c.032 0 .048-.016.048-.048v-.345c0-.023-.009-.035-.026-.035-.01 0-.022.004-.037.012l-.008-.019.122-.053h.017v.44c0 .032.015.048.046.048h.023z" transform="matrix(50.2054 0 0 40.2567 541.054 391.975)"/><path d="m.378-.174c0 .049-.014.089-.042.122-.029.035-.067.052-.114.052-.054 0-.097-.022-.129-.067-.03-.04-.044-.088-.044-.143 0-.08.024-.15.074-.209.054-.066.127-.099.216-.099h.027v.021c-.054 0-.101.015-.141.046-.047.036-.077.091-.092.163.041-.025.078-.038.112-.038.041 0 .074.016.098.047.023.028.035.063.035.105zm-.069.022c0-.03-.006-.058-.018-.083-.017-.036-.041-.054-.073-.054-.039 0-.07.011-.091.032-.002.018-.002.036-.002.053 0 .119.033.179.1.179.056 0 .084-.043.084-.127z" transform="matrix(50.2054 0 0 40.2567 567.115 391.975)"/><path d="m.378-.174c0 .049-.014.089-.042.122-.029.035-.067.052-.114.052-.054 0-.097-.022-.129-.067-.03-.04-.044-.088-.044-.143 0-.08.024-.15.074-.209.054-.066.127-.099.216-.099h.027v.021c-.054 0-.101.015-.141.046-.047.036-.077.091-.092.163.041-.025.078-.038.112-.038.041 0 .074.016.098.047.023.028.035.063.035.105zm-.069.022c0-.03-.006-.058-.018-.083-.017-.036-.041-.054-.073-.054-.039 0-.07.011-.091.032-.002.018-.002.036-.002.053 0 .119.033.179.1.179.056 0 .084-.043.084-.127z" transform="matrix(50.2054 0 0 40.2567 599.084 391.975)"/><path d="m.26 0h-.211v-.021h.026c.032 0 .048-.016.048-.048v-.345c0-.023-.009-.035-.026-.035-.01 0-.022.004-.037.012l-.008-.019.122-.053h.017v.44c0 .032.015.048.046.048h.023z" transform="matrix(50.2054 0 0 40.2567 631.052 391.975)"/></g><path d="m591.719 842.64c-49.781-.585-96.264-12.155-142.473-38.879l9.217-18.765c-67.896-41.95-123.848-113.609-132.613-190.464l27.955 19.127 15.492-32.617c36.354 107.481 92.121 153.301 153.829 180.247l-6.732 20.623c53.569 13.602 61.185 10.884 76.501 11.548 15.317-.664 22.933 2.054 76.502-11.548l-6.732-20.623c61.708-26.946 117.474-72.766 153.829-180.247l15.492 32.617 27.955-19.127c-8.765 76.855-64.717 148.514-132.613 190.464l9.217 18.765c-46.572 26.934-93.423 38.475-143.65 38.891zm-.429-43.64c-33.712-1.194-67.864-4.042-118.348-28.814l-14.479 30.349c40.387 25.437 85.966 35.173 134.432 36.182l1.136-.026c48.041-1.136 93.225-10.918 133.297-36.156l-14.479-30.349c-51.284 25.165-85.714 27.705-119.954 28.87zm-83.705-38.105c-67.814-31.841-113.616-86.85-139.153-160.061l-12.738 21.051-21.079-13.555c16.245 69.066 64.894 132.837 127.062 171.369l8.742-17.26zm3.522 18.804 4.134-12.365h-33.657c9.676 5.204 19.61 8.718 29.523 12.365zm167.099-18.804c67.814-31.841 113.616-86.85 139.153-160.061l12.738 21.051 21.079-13.555c-16.245 69.066-64.894 132.837-127.062 171.369l-8.742-17.26zm-3.522 18.804-4.134-12.365h33.657c-9.676 5.204-19.61 8.718-29.523 12.365zm-80.059-13.302c8.174-5.29 14.029-13.321 18.177-23.369 4.632 2.496 9.031 5.836 13.139 10.229 4.103-5.699 6.069-11.856 6.811-18.277 4.783 1.953 9.502 4.053 13.398 8.048 3.704-7.334 7.222-14.68 14.268-21.791 9.855-9.947 18.308-13.438 26.381-30.715 4.516-9.664 21.081-15.799 23.285-26.472 1.39 5.33.37 9.749-3.927 12.931 3.724-.025 6.663-1.287 8.584-4.152-.547 5.667-3.805 9.892-8.584 13.307 14.392-5.185 23.856-12.886 8.584-33.217h7.217c-1.859-6.03-1.691-11.769 0-17.29-.087 2.68.392 5.079 2.346 6.748 1.558-3.592 3.702-5.746 6.315-6.748 0 9.7-3.698 10.72-2.661 17.29 1.48 9.369 12.685 4.842 9.045-7.59-2.114-7.217-2.975-14.047 0-19.69 2.81-5.331 2.195-12.675 0-17.823 4.03 2.057 6.275 5.435 6.035 10.651 4.549-1.094 6.221-4.041 6.825-7.677 1.315 6.022-.184 10.866-3.742 14.849 2.887-1.239 5.334-3.228 6.64-7.172v9.906c0 12.872 15.754 5.904 9.136-2.734-5.179-5.738-9.265-12.485-9.136-23.12 4.209 1.417 7.4 4.005 9.136 8.271 1.439-11.696 6.874-20.259 15.35-26.436-7.962 21.829 10.325 54.605-27.384 87.129 1.721-13.369.474-25.321-3.742-35.854 1.229 12.359 1.026 26.379 0 41.352-5.537 6.108-11.287 11.562-18.163 13.541 3.893-13.394 2.603-21.497 0-28.26.999 17.108-3.654 33.341-20.078 39.926-35.097 14.072-51.588 32.172-57.139 52.642l-12.448-7.486c-1.204 6.152-4.098 11.606-8.849 16.292-4.981-2.125-9.451-4.454-12.71-7.265-5.324 9.033-12.921 14.162-21.878 19.799l-.256.16c-9.068-5.7-16.759-10.84-22.133-19.959-3.26 2.811-7.729 5.14-12.711 7.265-4.751-4.686-7.645-10.14-8.849-16.292l-12.448 7.486c-5.55-20.47-22.041-38.57-57.138-52.642-16.425-6.585-21.077-22.818-20.079-39.926-2.603 6.763-3.892 14.866 0 28.26-6.876-1.979-12.626-7.433-18.163-13.541-1.025-14.973-1.229-28.993 0-41.352-4.215 10.533-5.463 22.485-3.741 35.854-37.71-32.524-19.423-65.3-27.385-87.129 8.476 6.177 13.911 14.74 15.35 26.436 1.736-4.266 4.927-6.854 9.136-8.271.129 10.635-3.957 17.382-9.136 23.12-6.618 8.638 9.136 15.606 9.136 2.734v-9.906c1.306 3.944 3.754 5.933 6.64 7.172-3.557-3.983-5.057-8.827-3.741-14.849.603 3.636 2.275 6.583 6.824 7.677-.24-5.216 2.005-8.594 6.035-10.651-2.194 5.148-2.81 12.492 0 17.823 2.975 5.643 2.114 12.473 0 19.69-3.64 12.432 7.566 16.959 9.045 7.59 1.038-6.57-2.661-7.59-2.661-17.29 2.614 1.002 4.758 3.156 6.315 6.748 1.954-1.669 2.434-4.068 2.347-6.748 1.69 5.521 1.858 11.26 0 17.29h7.216c-15.272 20.331-5.808 28.032 8.584 33.217-4.779-3.415-8.037-7.64-8.584-13.307 1.922 2.865 4.86 4.127 8.584 4.152-4.296-3.182-5.317-7.601-3.926-12.931 2.204 10.673 18.768 16.808 23.284 26.472 8.074 17.277 16.526 20.768 26.382 30.715 7.046 7.111 10.563 14.457 14.267 21.791 3.896-3.995 8.615-6.095 13.398-8.048.742 6.421 2.709 12.578 6.811 18.277 4.108-4.393 8.507-7.733 13.139-10.229 4.152 10.058 10.015 18.095 18.202 23.385zm-.025-5.7s5.663-9.36 5.663-13.371c0-3.125-2.537-5.663-5.663-5.663-3.125 0-5.663 2.538-5.663 5.663 0 4.011 5.663 13.371 5.663 13.371zm145.213-365.206v136.903c0 98.682-48.581 172.887-145.213 202.998l-.006-.002c-96.626-30.109-145.207-104.314-145.207-202.996v-136.903zm-145.213 331.508c-91.37-29.428-137.213-100.479-137.213-194.605v-128.903h274.426v128.903c0 94.117-45.833 165.163-137.213 194.605zm3.3-119.409c5.018 0 7.412 4.675 8.339 8.697-1.809-.556-3.632-1.151-5.981-3.046-3.121 9.872-1.867 15.361 0 20.399-2.293 1.044-2.888 3.449-3.621 5.744-2.731.211-4.644-1.379-6.272-3.6.714 3.298 2.411 5.975 6.272 7.285-2.579 1.697-5.301 1.686-8.198-.387-.097 2.519 1.231 4.383 4.722 5.254-1.008 2.265-2.558 3.873-4.722 4.736-1.858 1.32-2.197 3.064.651 5.697 2.026 3.031 4.634 7.817 2.284 10.681-1.866 2.274-1.693 4.7-1.009 7.288l-4.425-1.944c-1.376 2.897-1.17 5.946-.636 9.028-2.213-.676-3.92-1.884-5.199-3.543-.615 1.955-.472 3.904 0 5.85-1.838-.273-3.452-.789-4.147-2.307l-.693 10.537c0 1.353-.986 3.344-2.681 3.344h-9.011c-3.737-.423-4.523 1.173-5.619 2.556-.37 1.752-1.459 1.952-2.561 2.123-1.653-.283-3.097-1.931-2.386-4.073.504-1.518 2.143-1.891 3.556-2.632-1.132-.332-2.496-.299-4.029 0-.963.363-1.47 1.13-1.832 2.026-1.925 1.021-3.154.487-3.792-1.366-.617-2.07-.772-4.826 5.624-5.609l-3.904-1.017c-1.756-.225-2.88.317-3.212 1.819-.817 2.567-2.771 1.429-3.626-.802-.576-1.501-.375-3.348 1.095-4.599 3.877-3.303 6.769-4.187 8.311-2.92 2.634 2.164 5.619 3.398 8.941 4.171 2.676.623 5.385-1.7 5.82-4.821l.944-9.377c.83-2.108 3.329-3.2 5.681-3.732 3.093-1.881 3.374-5.214 1.052-5.585l-3.089.371c1.02-1.178 1.969-2.923 2.037-4.62-1.721.221-3.941 1.872-6.022 3.258-1.607-2.361-.369-5.341 3.091-7.086l-.664-2.198c-2.395 2.094-4.943 2.654-7.593 2.198 2.304-1.708 4.035-3.572 4.563-5.765-2.427.922-4.886 1.559-7.504.861 3.863-3.527 2.448-6.433 7.504-8.474-4.304.661-8.475.094-12.597-.914 5.078-.466 8.261-3.005 8.956-8.266 0-3.166 2.04-5.804 4.585-8.192 3.391-3.183 11.822-4.544 17.438-7.241 5.167-2.48 9.721-5.707 13.559-9.807zm-90.127-61.045c9.194-.357 16.374 17.842 34.334 15.958 5.505-.577 14.202-3.903 19.479-5.555 16.13-5.05 24.623-4.359 26.853 8.493 3.485-1.101 5.687-3.313 7.074-6.231 1.872 1.201 2.381 3.315 1.693 6.231 5.314-2.907 6.717-7.802 7.817-12.85 2.003 1.692 3.195 4.062 3.442 7.225 5.112-2.038 6.717-6.484 7.063-11.795.806 1.904 1.947 3.294 3.632 3.851-3.858 19.235.7 34.243 12.294 45.227 5.997 5.682 8.479 13.527 10.357 21.234 1.315 5.392 10.736 9.721 17.594 2.784 3.108-3.145 1.621-11.302 1.302-18.54-.59-13.401-10.141-26.092-7.421-37.136 1.955-7.938 10.943-19.636 11.778-25.021 1.354-8.722-6.192-15.269-11.778-13.777-8.107 2.165-4.542 10.775 2.368 14.517-4.918 2.471-8.942 1.751-11.775-3.219-1.006 6.018 14.856 10.579 6.595 21.269-.516-4.25-1.179-7.783-5.295-9.383-1.806 3.414-.595 6.711 1.081 9.989-6.974-5.786-9.449-14.772-9.627-25.393-5.179 9.705 9.627 26.676 1.333 35.054.672-12.033-9.254-20.137-9.254-29.477 0-10.832 10.606-16.292 20.711-18.745 8.342-2.024 17.857 2.797 19.82 14.606 1.581 9.515-9.529 20.045-9.838 29.58 2.118-3.691 4.784-5.942 8.426-5.625-2.752 3.021-4.313 6.284-5.318 9.661 1.852-.484 3.281-.233 4.383.586-3.79 2.772-6.325 5.475-6.189 9.418 1.892-1.221 3.795-1.868 5.711-1.771-3.223 3.139-4.967 7.346-5.028 12.77 1.349-.973 2.935-2.913 5.028-1.838-2.844 7.474-1.354 16.322-1.354 24.08 0 8.395-2.867 17.886-13.114 17.886-10.139 0-16.341-10.178-16.244-19.242-5.48 7.04-6.103 15.444-1.209 23.148-3.212.789-5.473-.971-8.321-1.888 2.162 6.282 9.216 10.49 17.703 14.089 3.904 1.656 4.732 5.04 4.865 9.733l2.558 3.313-6.123 1.969c1.769 2.554 3.602 5.061 8.107 5.654-2.376 1.672-4.709 1.529-7.026.65.023 2.507 1.46 4.409 5.042 5.394-1.458 1.124-3.063 1.784-5.042 1.263.314 2.094 2.246 3.74 5.042 5.148-1.929 1.329-2.892 1.56-5.042.708.518 1.845 1.297 5.703.943 9.188-.584 5.753-4.255 8.919-10.57 9.871h-7.921c-1.839-2.731.293-4.056 3.37-5.047-2.995-1.083-6.646-.443-7.17 3.974-2.415.142-4.344-.64-4.51-2.301.747-4.638 3.224-6.013 6.811-5.295-3.458-1.471-7.283-1.603-9.71 3.977-2.262-.903-2.404-3.531-1.614-5.179 1.882-3.925 4.605-5.377 9.547-4.799 3.276.383 5.595 2.761 9.061 6.001 1.974 1.846 4.284-.417 2.805-3.24-3.332-6.361-5.01-13.701-3.571-22.903.577-3.686-.57-5.414-2.821-7.569-2.547-2.439-4.436-2.924-6.496-.777-1.285 1.338-1.963 3.232-2.471 5.282-2.301-2.208-4.184-4.568-2.783-8.123-3.679.356-5.257 2.857-6.055 6.154-2.507-3.111-3.322-6.371-1.186-9.889-2.723.102-4.582 2.236-5.68 6.156-2.859-4.467-5.108-8.815-5.984-14.255-.966-5.996 5.911-8.877 7.699-16.943 2.281-10.284-1.715-16.55-8.973-20.843-11.043-6.531-14.154-14.385-13.031-22.945-3.794-.064-5.131 3.418-6.385 7.019-2.353-2.4-3.335-5.042-2.049-8.083-2.604.593-4.46 4.025-6.15 8.083-1.608-2.385-2.236-5.039-1.432-8.083-3.959 1.745-4.935 4.734-5.05 8.083l-2.756-3.103-2.533 3.103c-3.502-3.059-3.981-6.616-3.375-10.351-10.997.339-19.093-.294-26.267-4.169-2.586 1.631-4.021 2.131-6.101 2.131-3.484 0-7.695-1.499-7.005-4.218.285-1.124 4.539-2.448 8.167-2.685-.927-.999-3.206-1.93-5.182-1.12-3.981 1.631-7.031 2.353-9.849 2.85-2.724.51-5.346-1.634-6.841-3.451-1.323-1.607-3.28-4.545-1.385-5.949 2.042-1.513 7.14-.085 10.398 1.985-1.935-3.609-4.001-3.869-9.013-4.652-2.53-.694-2.705-5.322.638-5.841 4.003-.621 7.151 1.257 9.611 3.727-1.061-2.894-4.014-5.757-8.422-5.757-2.425 0-.879-3.872 2.804-4.016zm92.959 69.742c1.831 1.135 3.666 1.749 5.507 1.617-.024 5.193-.764 9.862-3.244 13.26-2.589-2.994-3.343-7.953-2.263-14.877zm-170.638-84.458c-1.086 6.533-1.973 9.361-5.761 11.758 8.86 17.354 7.069 34.054 0 46.979 3.656 4.224 3.908 7.165 4.686 12.026 12.13-19.451 14.933-44.883 1.075-70.763zm329.012 0c1.087 6.533 1.974 9.361 5.761 11.758-8.86 17.354-7.069 34.054 0 46.979-3.655 4.224-3.907 7.165-4.686 12.026-12.13-19.451-14.933-44.883-1.075-70.763zm-129.635 20.043 4.26 6.07c-1.508 2.663-3.608 4.395-5.967 5.72 1.615-3.413 2.18-7.345 1.707-11.79zm-39.25-5.246c-1.021 3.503-2.608 5.703-5.038 7.25 2.539 1.615 4.919 4.642 5.038 8.045 3.597-2.849 4.439-6.142 4.967-9.592 2.662.86 3.501 4.147 4.371 8.028 2.301-3.842 3.672-7.87 3.688-12.171 3.252 1.17 5.695 3.579 7.088 7.593 2.363-2.944 3.274-7.505 4.171-11.845 1.04 3.071 4.107 5.196 7.133 6.195-2.319-3.352-4.058-6.872-4.142-10.872 1.38 2.825 4.247 3.446 7.648 3.275-3.216-3.335-5.728-7.108-5.798-12.4l-1.85-.443c.417 2.484.022 4.793-1.088 6.946-2.93-.48-5.418-1.814-7.614-3.711-.468 2.723-.302 6.729 0 11.01-3.103-.843-6.761-1.61-9.236-3.393.446 3.27.332 6.484-.87 9.588-2.614-1.749-5.317-3.251-8.468-3.503zm-71.969-46.006c4.303-.649 6.528 1.093 8.145 3.095 2.669 3.302 6.195 8.397 9.202 10.652 2.381 1.787 6.662 3.124 8.385 5.407 3.227 3.422 2.723 8.022 5.61 11.84l14.215 10.421c.693 2.245.323 4.118-.477 5.839 2.544 1.388 6.425.905 9.252 0v4.321c-7.993 1.023-15.479 3.254-22.389 6.858h-4.107c1.262-1.441 2.444-4.216 2.53-6.858-2.238 2.089-5.006 2.759-8.332 1.943 2.135-1.671 3.437-4.024 3.698-7.227-2.305 2.094-4.805 2.83-7.548 1.868 1.721-1.878 2.923-4.143 2.898-7.323-2.322 2.592-3.624 4.071-6.742 2.671 1.011-2.328.969-5.065 0-8.16h-2.068v-4.353h6.554v-7.146l-8.856-.563-2.448-3.32c.459-4.445.365-9.454-.753-13.568l-2.245-.794c1.013 4.757 1.779 8.929.469 13.551h-4.993v-13.551c1.26-1.452 1.416-4.121 0-5.603zm63.534 36.015c-2.567 2.36-5.495 4.121-8.874 5.134.565-4.628.63-8.546 0-11.473-4.565 4.541-9.116 4.425-13.654 0 .737 5.101 1.358 8.813 7.1 8.902 3.125.049 2.747 5.447-.469 6.607 2.228 1.298 4.385 1.489 6.287-2.266l3.089 1.704c-1.753 6.793 2.649 7.476 7.408 7.806-3.529-2.726-5.037-5.474-3.798-8.254.325 2.838 2.7 3.925 6.308 3.959-2.535-3.419-4.463-7.106-3.397-12.119zm181.682-15.497c-2.558 15.129 5.283 22.197 16.517 26.635-6.26-15.312-7.976-30.886-1.8-46.916 5.771-32.731 29.541-73.455 25.852-98.119-6.534-43.696-28.948-68.909-58.957-67.932-23.941 0-31.317 12.478-30.104 27.97 1.366 17.456 16.06 19.51 28.784 17.456 8.771-3.406 13.596-7.728 13.596-17.456 0-7.634-6.71-15.492-15.857-15.492-10.512 0-13.81 7.108-14.204 13.156-.262 4.033 2.579 8.329 8.823 8.329 7.648 0 10.283-7.344 6.139-12.555 10.056 3.197 7.587 18.184-6.139 18.184-8.823 0-11.78-7.704-12.203-13.958-.649-9.587 5.378-17.979 17.584-17.979 12.176 0 20.309 7.556 23.368 18.964 2.104 15.126-3.989 25.152-21.107 28.321 2.909 4.438 7.979 6.733 14.958 7.137-3.785 3.145-8.434 3.945-13.638 3.24 3.818 4.939 9.471 5.735 16.256 3.971-7.2 3.53-11.632 8.202-11.492 14.763 3.617-2.668 7.115-4.207 10.29-2.627-9.145 4.499-13.945 11.008-13.733 19.834 5.765-1.477 11.359-3.365 14.935-10.095 1.743 3.46.517 6.788-1.202 10.095 5.438-1.406 9.325-4.128 9.382-10.095.04-4.287 7.138-3.008 6.417 2.336-1.798 13.306-19.826 11.086-26.089 20.021 2.114 1.59 4.618 2.318 7.512 2.183-9.427 6.775-14.14 15.295-13.596 25.764 3.958.063 7.89-.984 11.78-3.961-.412 3.18-2.462 5.598-5.696 7.463 3.912.872 7.161-1.06 10.29-3.502-.976 6.721-13.252 13.128-12.439 22.287 4.139-1.244 6.288-3.605 7.845-6.297-1.211 8.594-9.518 17.49-9.139 26.228 8.98-5.262 14.375-13.702 17.067-24.54 3.477 13.45-13.624 23.404-4.75 34.695zm-337.736 0c2.559 15.129-5.282 22.197-16.517 26.635 6.26-15.312 7.976-30.886 1.801-46.916-5.772-32.731-29.541-73.455-25.853-98.119 6.534-43.696 28.948-68.909 58.957-67.932 23.941 0 31.317 12.478 30.105 27.97-1.367 17.456-16.061 19.51-28.785 17.456-8.77-3.406-13.595-7.728-13.595-17.456 0-7.634 6.709-15.492 15.856-15.492 10.512 0 13.811 7.108 14.204 13.156.262 4.033-2.579 8.329-8.822 8.329-7.649 0-10.283-7.344-6.139-12.555-10.057 3.197-7.588 18.184 6.139 18.184 8.822 0 11.779-7.704 12.202-13.958.649-9.587-5.378-17.979-17.584-17.979-12.175 0-20.309 7.556-23.368 18.964-2.104 15.126 3.99 25.152 21.107 28.321-2.909 4.438-7.979 6.733-14.958 7.137 3.785 3.145 8.435 3.945 13.638 3.24-3.818 4.939-9.47 5.735-16.256 3.971 7.2 3.53 11.632 8.202 11.492 14.763-3.616-2.668-7.115-4.207-10.29-2.627 9.145 4.499 13.945 11.008 13.734 19.834-5.766-1.477-11.36-3.365-14.936-10.095-1.743 3.46-.517 6.788 1.202 10.095-5.438-1.406-9.325-4.128-9.381-10.095-.041-4.287-7.139-3.008-6.417 2.336 1.797 13.306 19.825 11.086 26.088 20.021-2.114 1.59-4.618 2.318-7.511 2.183 9.427 6.775 14.14 15.295 13.595 25.764-3.957.063-7.89-.984-11.78-3.961.412 3.18 2.462 5.598 5.696 7.463-3.911.872-7.161-1.06-10.29-3.502.976 6.721 13.252 13.128 12.44 22.287-4.14-1.244-6.289-3.605-7.846-6.297 1.211 8.594 9.518 17.49 9.14 26.228-8.981-5.262-14.376-13.702-17.068-24.54-3.477 13.45 13.624 23.404 4.75 34.695zm164.417 23.244v-3.613h2.823c-.589-3.045-.681-5.956 0-8.661 2.728.294 5.415.295 7.991-.518-.407-2.939-.841-5.893 0-8.185 2.156 1.651 4.821 2.619 8.031 2.86-.781-3.166-.966-6.176.597-8.73 1.165 1.338 2.757 2.35 4.755 3.05 1.619-.686 3.043-1.755 4.351-3.05 1.833 3.385 2.022 6.736 0 10.041l-3.44-.757c-.72 2.396-.477 4.836 0 7.287l-8.14-5.396c-1.256 3.998-1.103 8.025-.635 12.059-2.996-1.134-5.866-2.45-8.35-4.324l-.817 10.808c-2.339-1.514-4.725-2.492-7.166-2.871zm-9.486-19.913c-1.29 1.722-3.254 2.808-5.398 3.725.632 3.181.625 6.315 0 9.405 4.361-1.96 6.852-4.747 8.671-7.831-.679 5.203-.538 13.139 2.42 17.485 2.644-5.423.894-12.657 3.793-17.485 3.322.783 6.264 1.007 8.767 0-1.033-3.695-.506-7.12.749-10.419 1.462 2.159 3.522 3.514 6.126 4.137-.019-3.954.882-7.505 3.054-10.496l5.295 5.806 4.884-3.667c1.471 2.327 2.713 6.277 3.825 11.13 2.854 1.538 5.828 1.91 8.885 1.468-5.558-6.823-6.89-17.94-16.052-22.45.319 2.317-.25 4.551-1.123 6.755-2.185-1.327-4.244-3.081-6.176-5.259-.719 3.327-2.962 6.593-5.133 9.863-1.226-1.224-2.152-2.778-2.828-4.604-.835 3.645-2.527 6.751-4.35 9.775-.383-2.954-1.201-5.376-2.724-6.938-.162 3.476-1.124 7.954-2.291 11.39l-5.657-1.374-4.737 3.309zm-80.777 2.135v3.296h34.745v-3.296h-9.522l-2.689-3.79h-10.68l-3.494 3.79zm74.162-22.889c7.214-.144 12.189 2.357 12.189 7.342 0 7.298-6.957 6.53-12.189 5.527-2.785-1.552-4.514-1.462-4.514 2.111 0 4.901 3.05 6.19 4.514 6.19 3.824 0 6.349-1.356 7.779-4.3 3.175.559 4.41 1.823 5.585 3.132 3.589-2.148 3.357-9.232 5.525-12.66 1.943.841 3.048 2.451 3.39 4.76 2.996-3.298 3.496-7.959 2.867-11.173 2.488 1.752 3.568 4.322 3.48 7.572 2.982-2.288 4.222-5.428 4.181-9.194 2.666 1.003 4.67 2.951 5.948 5.935 1.323-2.247 1.667-4.591.649-7.07 2.667 2.877 5.845 3.267 9.208 2.757-3.639-1.388-5.627-2.626-7.587-6.11h-2.27l-2.573 3.353v-5.895c-2.207 2.822-5.699 5.062-10.07 5.895 9.431-6.472 11.632-11.262 10.07-15.179-1.684-4.225-9.503-3.743-16.741-3.236-10.793-.318-15.067 1.667-19.441 4.009-1.62-.079-2.885-.525-5.568.399-3.397 1.171-4.133 4.75-2.891 8.112l2.067 3.979c.617 2.537 3.277 3.805 6.392 3.744zm-57.823 13.82c0-1.683-1.367-3.05-3.05-3.05h-2.244c-1.684 0-3.051 1.367-3.051 3.05 0 1.684 1.367 3.05 3.051 3.05h2.244c1.683 0 3.05-1.366 3.05-3.05zm60.76-5.796c4.371 3.866 7.439-1.725 1.904-3.618-2.401-.821-6.305-2.023-8.939 0-5.088 3.908-10.974 6.364-15.139 2.665l-2.229-2.665c-3.039 2.848-2.358 6.364 1.788 9.414 3.062 2.252 8.521.222 12.357-3.05 3.22-2.746 7.937-4.8 10.258-2.746zm-60.76-1.389c0-1.683-1.367-3.05-3.05-3.05h-2.244c-1.684 0-3.051 1.367-3.051 3.05 0 1.684 1.367 3.05 3.051 3.05h2.244c1.683 0 3.05-1.366 3.05-3.05zm0-7.328c0-1.684-1.367-3.051-3.05-3.051h-2.244c-1.684 0-3.051 1.367-3.051 3.051 0 1.683 1.367 3.05 3.051 3.05h2.244c1.683 0 3.05-1.367 3.05-3.05zm62.664-4c6.561-.477 11.955-.366 16.576.135-4.51-4.454-9.497-8.252-14.802-11.613l1.785 2.997c-.829 2.01-.983 4.143-.665 6.362zm31.914-4.196c3.615-5.074 6.457-4.343 8.854-.272.939 1.596 4.515 1.282 6.519.272-.878 3.539-4.291 4.453-7.943 3.45-2.546-.7-2.72-4.201-7.43-3.45zm-90.519-1.476h24.185c5.211 0 5.199-2.805 5.211-5.507h6.151c.495 6.678-3.37 10.678-7.189 10.678h-55.744c-7.011-.183-10.529-3.795-10.714-10.678h6.199c.07 2.845 1.104 5.013 4.515 5.507h23.323v-5.507h4.063zm63.99 3.17c-.586-1.371-.485-2.54.185-3.543 2.353.986 4.071 2.323 5.221 3.975-1.491-.485-3.188-.745-5.406-.432zm15.886-1.082c-1.001-3.938-.795-6.8-3.344-8.73 3.344-1.477 9.231-1.572 9.584 1.29.406 3.291-2.826 5.066-6.24 7.44zm1.07-2.875c-.053-1.383-1.073-3.281-1.847-4.565 1.491-.599 3.621-.875 4.479 0 1.347 1.373-.198 3.386-2.632 4.565zm-73.909-10.149h-17.337v3.695h17.337zm33.263 0h-17.337v3.695h17.337zm-66.599 0h-17.337v3.695h17.337zm20.621-34.61-1.901 32.736h11.894l-2.549-32.736zm34.365-7.245-3.003 39.981h11.894l-3.014-39.981zm-66.598 0-3.004 39.981h11.895l-3.015-39.981zm-84.169-50.813c-3.093 21.262.296 36.041 7.197 47.31 6.9 11.268 17.31 19.026 28.259 26.246-25.648-12.424-47.992-27.739-35.456-73.556zm392.792 0c3.093 21.262-.296 36.041-7.196 47.31-6.9 11.268-17.311 19.026-28.26 26.246 25.649-12.424 47.992-27.739 35.456-73.556zm-268.946 37.672h-7.444v18.505h7.444zm-38.226 10.796c-5.57-3.598-4.143-12.042 1.819-17.455 5.298 5.252 6.486 14.258 1.47 17.455.924-3.375.761-6.235-1.47-8.117-2.483 1.913-2.655 4.802-1.819 8.117zm66.382 0c-5.57-3.598-4.142-12.042 1.819-17.455 5.298 5.252 6.486 14.258 1.471 17.455.924-3.375.76-6.235-1.471-8.117-2.483 1.913-2.655 4.802-1.819 8.117zm-33.447-12.84c-5.569-3.598-4.142-12.042 1.819-17.455 5.298 5.252 6.486 14.258 1.471 17.455.924-3.375.76-6.235-1.471-8.117-2.483 1.913-2.655 4.802-1.819 8.117zm-94.072-78.09c-21.305 26.263-14.828 48.254.094 68.946h-3.533c-16.24-16.107-21.044-49.711 3.439-68.946zm343.826 0c21.305 26.263 14.828 48.254-.094 68.946h3.533c16.24-16.107 21.044-49.711-3.439-68.946zm-56.326 10.582c-.02 5.185.973 9.809 2.478 14.148-12.267 2.799-20.065 6.404-28.61 6.404-14.503 0-25.737-6.404-26.066-17.473-.248-8.3 2.155-18.484 13.788-18.484 10.466 0 15.124 3.623 15.238 13.45.054 4.699-1.595 8.61-9.316 9.713-5.602.295-8.895-2.574-10.499-7.758.984-3.43 2.637-5.725 5.887-5.308 3.019.393 4.382 2.324 4.612 5.308 1.954-4.086 1.719-7.457-4.612-8.836-6.018.658-7.945 4.274-8.565 8.836-.142 6.037 3.8 9.845 13.177 10.684 9.316.833 23.591-3.708 32.488-10.684zm-231.173 0c.019 5.185-.974 9.809-2.479 14.148 12.267 2.799 20.065 6.404 28.61 6.404 14.504 0 25.737-6.404 26.067-17.473.247-8.3-2.156-18.484-13.789-18.484-10.466 0-15.124 3.623-15.238 13.45-.054 4.699 1.595 8.61 9.316 9.713 5.603.295 8.895-2.574 10.499-7.758-.984-3.43-2.637-5.725-5.887-5.308-3.019.393-4.382 2.324-4.612 5.308-1.954-4.086-1.719-7.457 4.612-8.836 6.018.658 7.945 4.274 8.565 8.836.142 6.037-3.799 9.845-13.177 10.684-9.316.833-23.591-3.708-32.487-10.684zm138.794-52.465h-46.415v46.053c0 3.138.191 5.053 1.23 6.585.713 1.051 1.831 1.951 3.663 2.882l.076.035 18.238 7.813 18.277-7.829.037-.019c1.832-.931 2.951-1.831 3.664-2.882 1.038-1.532 1.23-3.447 1.23-6.585zm-2.554 2.553h-41.308v43.5c0 2.441-.018 3.96.79 5.151.514.758 1.36 1.353 2.673 2.022l17.191 7.365 17.192-7.365c1.312-.669 2.159-1.264 2.672-2.022.809-1.191.79-2.71.79-5.151zm-36.91 5.874c.741.502 1.444.925 2.089 1.423 4.424 3.422 6.439 8.044 6.869 13.528.248 3.172.736 6.326 1.115 9.488.007.053.001.108.001.093-.612.134-1.231.174-1.769.405-1.13.485-1.674 1.645-1.485 2.929.171 1.168 1.114 2.052 2.426 2.274 1.479.251 1.499.26 2.452-1.737 1.955-4.099 3.367-8.369 3.317-12.953-.041-3.639-.372-7.274-.547-10.913-.101-2.086-.427-4.205.445-6.211.367-.843.887-1.619 1.479-2.681.593 1.086 1.113 1.89 1.488 2.756.838 1.943.527 3.997.429 6.016-.148 3.028-.333 6.055-.529 9.081-.274 4.218.557 8.246 2.098 12.141.645 1.63 1.426 3.206 2.117 4.745 2.439.194 4.113-1.32 3.96-3.446-.078-1.094-1.2-2.189-2.336-2.267-.306-.02-.616-.003-.949-.003.121-.999.231-1.941.347-2.882.414-3.357.74-6.728 1.271-10.067.473-2.977 1.764-5.666 3.855-7.84 1.332-1.384 2.948-2.494 4.438-3.724.057-.047.132-.072.235-.125v39.696h-8.987c-.538 1.428-.943 2.783-1.546 4.045-1.094 2.291-2.785 4.11-4.824 5.614-.22.162-.388.399-.565.614-.176.214-.333.444-.484.646-.371-.426-.715-.868-1.109-1.262-1.136-1.138-2.388-2.177-3.417-3.403-1.439-1.715-2.257-3.772-2.728-5.961-.022-.102-.192-.244-.294-.246-2.87-.034-5.741-.053-8.611-.075-.08-.001-.159-.01-.251-.015zm17.778 39.752v5.76c1.551-1.682 2.581-3.569 3.104-5.76zm-5.86 0c.01 1.231 2.275 5.425 3.076 5.694v-5.694zm9.353-2.774c-.164-1.141-.322-2.244-.483-3.373-1.082.126-1.877.582-2.383 1.379-.364.575-.536 1.272-.827 1.994zm-9.77-.001h3.749c-.39-.824-.601-1.643-1.097-2.214-.498-.572-1.281-.895-2.129-1.452-.204 1.432-.361 2.535-.523 3.666zm-2.191-4.027-.003-.001c-.038-.013-.078-.026-.117-.033-2.414-.408-4.16-1.628-4.929-4.043-.016-.05-.092-.115-.141-.116-.476-.009-.951-.005-1.441-.005v8.221h6.073zm20.782-4.156c-.265-.012-.547-.083-.797-.022-.309.076-.768.189-.856.409-.591 1.47-1.556 2.57-3.003 3.198-.636.277-1.333.411-1.968.599.182 1.326.365 2.655.55 3.994h6.074zm-16.526 2.211c.925.626 1.911 1.294 2.815 1.906.918-.619 1.911-1.287 2.83-1.906-.944-2.133-1.934-4.367-2.827-6.383-.892 2.021-1.879 4.256-2.818 6.383zm-10.883-25.512v20.515c.328 0 .639-.026.945.006.442.047.579-.175.803-.541.532-.87 1.193-1.666 1.844-2.457.292-.356.956-.359.775-1.136-.218-.93-.226-1.907-.371-2.857-.528-3.472-.37-7.087-2.05-10.322-.532-1.026-1.198-1.984-1.946-3.208zm27.417.251c-.083.067-.11.082-.128.104-1.435 1.732-2.506 3.678-2.9 5.886-.452 2.541-.702 5.117-1.033 7.679-.132 1.027-.244 2.056-.365 3.082 1.474.767 2.398 1.939 2.879 3.496h1.547zm31.411-11.808c18.88 7.73 30.571 19.473 40.905 31.974-5.216-2.904-11.99-3.118-19.853-3.522 2.254-2.43 5.079-3.155 8.036-3.482-3.774-1.905-8.816-1.439-16.371-1.572 1.742-2.889 5.016-3.5 8.335-4.043-4.323-1.855-10.609-3.287-16.841-2.556 1.27-2.575 4.414-3.959 8.506-4.74-2.461-3.823-9.242-1.944-15.004-1.41.637-1.815 3.249-3.004 7.499-3.676l-9.85-2.217c2.508-.748 3.81-2.546 4.638-4.756zm-90.51 0c-18.88 7.73-30.57 19.473-40.904 31.974 5.216-2.904 11.99-3.118 19.852-3.522-2.254-2.43-5.078-3.155-8.036-3.482 3.774-1.905 8.816-1.439 16.371-1.572-1.742-2.889-5.016-3.5-8.335-4.043 4.323-1.855 10.609-3.287 16.841-2.556-1.269-2.575-4.414-3.959-8.506-4.74 2.462-3.823 9.243-1.944 15.005-1.41-.637-1.815-3.25-3.004-7.5-3.676l9.85-2.217c-2.508-.748-3.809-2.546-4.638-4.756zm80.099-8.505c3.186 0 5.773 2.587 5.773 5.773 0 3.187-2.587 5.774-5.773 5.774-3.187 0-5.774-2.587-5.774-5.774 0-3.186 2.587-5.773 5.774-5.773zm-69.688 0c-3.186 0-5.773 2.587-5.773 5.773 0 3.187 2.587 5.774 5.773 5.774 3.187 0 5.774-2.587 5.774-5.774 0-3.186-2.587-5.773-5.774-5.773zm34.388-2.339c-9.578-.101-18.769 1.746-24.239 5.48-.999-2.593-3.16-4.211-5.742-5.474 8.945-3.689 19.137-5.377 30.313-5.484l.249.002v-.002l.648.008c10.922.166 20.893 1.858 29.664 5.476-2.582 1.263-4.743 2.881-5.742 5.474-5.327-3.637-14.185-5.483-23.492-5.484l-1.203.01z"/></g><g fill-rule="nonzero"><path d="m.073 0v-.716h.232c.088 0 .145.004.172.011.041.011.075.034.103.07.027.036.041.082.041.139 0 .044-.008.081-.024.111s-.036.054-.061.071c-.024.017-.049.028-.075.034-.034.007-.084.01-.149.01h-.095v.27zm.144-.595v.203h.079c.057 0 .095-.003.115-.011.019-.007.034-.019.045-.035s.016-.034.016-.056c0-.026-.007-.047-.023-.064-.015-.017-.034-.028-.058-.032-.017-.003-.052-.005-.104-.005z" transform="matrix(16.61806294577 36.76805080234 -42.16743280221 19.05832899323 51.53604701125 535.58954207614)"/><path d="m.718 0h-.157l-.062-.163h-.287l-.059.163h-.153l.279-.716h.153zm-.266-.283-.098-.266-.097.266z" transform="matrix(21.9013392906 32.22068087939 -37.86780836239 25.7399006725 64.35648943852 566.76006353949)"/><path d="m.234 0v-.595h-.213v-.121h.569v.121h-.212v.595z" transform="matrix(25.1457435359 31.18448038067 -34.96680458779 28.19554070535 82.85012315452 593.93185067658)"/><path d="m.073 0v-.716h.304c.077 0 .133.007.167.019.035.013.063.036.083.069.021.033.032.071.032.113 0 .054-.016.098-.048.133-.031.035-.078.057-.141.066.031.018.057.038.077.06s.048.061.082.116l.088.14h-.173l-.105-.156c-.037-.055-.062-.091-.076-.105-.013-.014-.028-.024-.043-.03-.015-.005-.04-.008-.073-.008h-.029v.299zm.145-.413h.107c.069 0 .112-.003.13-.009.017-.006.03-.016.04-.03s.015-.032.015-.054c0-.024-.007-.043-.02-.058-.012-.015-.031-.024-.054-.028-.012-.002-.047-.003-.105-.003h-.113z" transform="matrix(24.1790873151 29.66186498915 -34.57689171825 28.18562070778 100.7805945548 616.65003496821)"/><path d="m.068-.716h.145v.716h-.145z" transform="matrix(28.57438898443 30.52777490438 -34.07028637661 31.8903307496 121.85101099738 643.85121712366)"/><path d="m.718 0h-.157l-.062-.163h-.287l-.059.163h-.153l.279-.716h.153zm-.266-.283-.098-.266-.097.266z" transform="matrix(27.63736990741 27.74457027991 -31.7745166602 31.65189101921 136.01960228941 657.19634685735)"/><path d="m.073 0v-.716h.531v.121h-.387v.159h.36v.121h-.36v.194h.4v.121z" transform="matrix(27.61202106898 23.97908859896 -27.99564017636 32.23728819389 161.91549904115 681.22628052898)"/><path d="m.072-.716h.264c.06 0 .105.005.137.014.042.012.078.034.108.066.03.031.052.07.068.116.016.045.023.102.023.169 0 .059-.007.11-.022.152-.018.052-.043.095-.076.127-.025.024-.059.043-.102.057-.032.01-.074.015-.128.015h-.272zm.145.121v.474h.108c.04 0 .069-.002.087-.006.024-.006.043-.016.058-.03.016-.014.029-.037.038-.069.01-.032.015-.076.015-.131 0-.056-.005-.098-.015-.128-.009-.029-.023-.053-.041-.069-.017-.017-.04-.028-.067-.034-.02-.004-.059-.007-.118-.007z" transform="matrix(34.44434156248 14.08852708553 -16.44850738287 40.21407696103 210.15770722955 753.49667991712)"/><path d="m.073 0v-.716h.531v.121h-.387v.159h.36v.121h-.36v.194h.4v.121z" transform="matrix(34.28408198998 14.47426708865 -16.89878635161 40.02693175079 238.44658342802 764.90138810249)"/><path d="m.531-.263.14.044c-.022.078-.057.136-.107.174-.05.038-.114.057-.19.057-.096 0-.174-.032-.235-.097s-.092-.154-.092-.267c0-.119.031-.211.093-.277.061-.066.142-.099.242-.099.088 0 .159.026.214.078.032.03.057.074.073.131l-.143.035c-.009-.037-.026-.067-.053-.088-.027-.022-.06-.032-.098-.032-.053 0-.096.019-.129.057s-.05.099-.05.185c0 .09.017.155.049.193.033.038.075.058.127.058.038 0 .072-.013.099-.037.028-.024.048-.063.06-.115z" transform="matrix(35.54611169068 11.01697634632 -12.86239355756 41.50041545568 265.95142613697 776.47052377131)"/><path d="m.043-.354c0-.072.011-.134.033-.183.016-.037.039-.069.067-.098s.059-.051.092-.065c.045-.019.096-.028.155-.028.105 0 .19.033.253.098.063.066.095.157.095.273s-.032.206-.094.271c-.063.066-.147.098-.252.098-.107 0-.191-.032-.254-.097s-.095-.155-.095-.269zm.149-.004c0 .081.019.142.057.184.037.042.084.063.142.063s.105-.021.142-.063c.037-.041.055-.103.055-.186 0-.082-.018-.144-.054-.184s-.083-.06-.143-.06c-.059 0-.107.02-.144.061-.036.041-.055.102-.055.185z" transform="matrix(36.76763174406 5.74815628422 -6.71101578018 42.92645259087 295.71730549072 787.40722689416)"/><path d="m.073 0v-.716h.304c.077 0 .133.007.167.019.035.013.063.036.083.069.021.033.032.071.032.113 0 .054-.016.098-.048.133-.031.035-.078.057-.141.066.031.018.057.038.077.06s.048.061.082.116l.088.14h-.173l-.105-.156c-.037-.055-.062-.091-.076-.105-.013-.014-.028-.024-.043-.03-.015-.005-.04-.008-.073-.008h-.029v.299zm.145-.413h.107c.069 0 .112-.003.13-.009.017-.006.03-.016.04-.03s.015-.032.015-.054c0-.024-.007-.043-.02-.058-.012-.015-.031-.024-.054-.028-.012-.002-.047-.003-.105-.003h-.113z" transform="matrix(36.9024164023 4.80736338096 -5.61262440235 43.08385696176 328.00467631031 793.51190275616)"/><path d="m.068-.716h.145v.716h-.145z" transform="matrix(37.15123399058 2.16564378944 -2.52840204429 43.37423742573 360.24524927427 797.60008289585)"/><path d="m.531-.263.14.044c-.022.078-.057.136-.107.174-.05.038-.114.057-.19.057-.096 0-.174-.032-.235-.097s-.092-.154-.092-.267c0-.119.031-.211.093-.277.061-.066.142-.099.242-.099.088 0 .159.026.214.078.032.03.057.074.073.131l-.143.035c-.009-.037-.026-.067-.053-.088-.027-.022-.06-.032-.098-.032-.053 0-.096.019-.129.057s-.05.099-.05.185c0 .09.017.155.049.193.033.038.075.058.127.058.038 0 .072-.013.099-.037.028-.024.048-.063.06-.115z" transform="matrix(37.21296071718 .31707402683 -.37018569789 43.44633955547 400.06341128287 798.40060188948)"/><path d="m.068-.716h.145v.716h-.145z" transform="matrix(37.15628769348 -2.07713344855 2.4250756321 43.38013904014 431.89299563211 796.59024237829)"/><path d="m.255 0-.255-.716h.156l.181.53.176-.53h.153l-.256.716z" transform="matrix(36.12270837259 -8.94703800877 10.4457192841 42.17350239453 450.36115259039 795.66887732713)"/><path d="m.068-.716h.145v.716h-.145z" transform="matrix(36.65971602507 -6.40063281578 7.47277175814 42.80046424257 478.71521711418 789.99311266391)"/><path d="m.073-.716h.286c.057 0 .099.003.127.007.028.005.053.015.075.03s.04.035.055.06c.014.025.022.052.022.083 0 .034-.009.065-.027.093s-.043.049-.074.063c.044.012.077.034.101.065.023.03.035.066.035.107 0 .033-.008.065-.023.095-.015.031-.036.056-.062.074-.026.019-.058.03-.097.034-.024.003-.082.004-.174.005h-.244zm.145.119v.166h.095c.056 0 .091-.001.104-.003.025-.003.045-.011.059-.025s.021-.033.021-.056c0-.022-.006-.04-.018-.054s-.031-.022-.055-.025c-.014-.002-.055-.003-.123-.003zm0 .285v.191h.134c.052 0 .085-.001.099-.004.021-.004.039-.013.052-.029.014-.015.02-.035.02-.06 0-.022-.005-.04-.015-.055-.011-.015-.026-.026-.045-.033-.02-.007-.063-.01-.129-.01z" transform="matrix(36.10717130703 -9.00949829127 10.5186466455 42.15537630399 495.21715769527 786.71007276013)"/><path d="m.072-.716h.144v.388c0 .061.002.101.006.12.006.029.021.052.044.07s.055.027.095.027c.041 0 .072-.009.093-.025.021-.017.033-.038.038-.062.004-.025.006-.065.006-.122v-.396h.145v.376c0 .086-.004.147-.012.182-.008.036-.022.066-.043.09-.021.025-.049.044-.085.058-.035.015-.081.022-.137.022-.069 0-.12-.008-.156-.023-.035-.016-.063-.037-.084-.062-.02-.025-.034-.052-.04-.079-.01-.041-.014-.102-.014-.182z" transform="matrix(34.61707975688 -13.65859279432 15.9464444559 40.41570429188 526.80005760331 777.52955805054)"/><path d="m.036-.233.141-.014c.008.048.025.082.051.104.026.023.061.034.105.034.047 0 .082-.01.105-.03.024-.02.036-.043.036-.069 0-.017-.005-.031-.015-.043s-.028-.022-.052-.031c-.017-.006-.056-.017-.116-.031-.077-.02-.132-.043-.163-.071-.044-.04-.066-.088-.066-.144 0-.037.01-.071.031-.103.021-.031.05-.056.089-.072.039-.017.086-.025.141-.025.09 0 .158.02.203.059.046.039.069.092.072.158l-.145.006c-.006-.037-.019-.063-.04-.079-.02-.016-.051-.024-.091-.024-.042 0-.075.008-.099.025-.015.012-.023.026-.023.045 0 .017.007.031.022.043.018.016.062.032.132.048.071.017.123.034.156.052.034.017.061.042.08.072.019.031.028.069.028.115 0 .041-.011.079-.034.115s-.055.062-.097.08c-.041.017-.093.026-.155.026-.091 0-.16-.021-.209-.063-.048-.042-.077-.103-.087-.183z" transform="matrix(34.67809798134 -13.50313843781 15.7650585119 40.4869168267 555.85720205662 765.82339621449)"/><path d="m.073 0v-.716h.531v.121h-.387v.159h.36v.121h-.36v.194h.4v.121z" transform="matrix(30.58041073713 -22.09163074855 25.79212312893 35.70277174251 592.31618314735 712.78261463955)"/><path d="m.072-.716h.264c.06 0 .105.005.137.014.042.012.078.034.108.066.03.031.052.07.068.116.016.045.023.102.023.169 0 .059-.007.11-.022.152-.018.052-.043.095-.076.127-.025.024-.059.043-.102.057-.032.01-.074.015-.128.015h-.272zm.145.121v.474h.108c.04 0 .069-.002.087-.006.024-.006.043-.016.058-.03.016-.014.029-.037.038-.069.01-.032.015-.076.015-.131 0-.056-.005-.098-.015-.128-.009-.029-.023-.053-.041-.069-.017-.017-.04-.028-.067-.034-.02-.004-.059-.007-.118-.007z" transform="matrix(29.34538976525 -23.70759188945 27.67870962655 34.26085868153 615.04254392602 695.81339272203)"/><path d="m.072-.716h.144v.388c0 .061.002.101.006.12.006.029.021.052.044.07s.055.027.095.027c.041 0 .072-.009.093-.025.021-.017.033-.038.038-.062.004-.025.006-.065.006-.122v-.396h.145v.376c0 .086-.004.147-.012.182-.008.036-.022.066-.043.09-.021.025-.049.044-.085.058-.035.015-.081.022-.137.022-.069 0-.12-.008-.156-.023-.035-.016-.063-.037-.084-.062-.02-.025-.034-.052-.04-.079-.01-.041-.014-.102-.014-.182z" transform="matrix(29.34538976525 -23.70759188945 27.67870962655 34.26085868153 638.53131285537 675.9790306348)"/><path d="m.531-.263.14.044c-.022.078-.057.136-.107.174-.05.038-.114.057-.19.057-.096 0-.174-.032-.235-.097s-.092-.154-.092-.267c0-.119.031-.211.093-.277.061-.066.142-.099.242-.099.088 0 .159.026.214.078.032.03.057.074.073.131l-.143.035c-.009-.037-.026-.067-.053-.088-.027-.022-.06-.032-.098-.032-.053 0-.096.019-.129.057s-.05.099-.05.185c0 .09.017.155.049.193.033.038.075.058.127.058.038 0 .072-.013.099-.037.028-.024.048-.063.06-.115z" transform="matrix(26.76550389189 -26.58588485192 31.03919152292 31.2488306591 663.94046373734 654.4559041735)"/><path d="m.718 0h-.157l-.062-.163h-.287l-.059.163h-.153l.279-.716h.153zm-.266-.283-.098-.266-.097.266z" transform="matrix(23.43891978635 -29.56040890144 34.51199852953 27.36496082134 684.85932418191 631.5152399172)"/><path d="m.074 0v-.716h.141l.293.478v-.478h.134v.716h-.145l-.289-.467v.467z" transform="matrix(21.05099086196 -31.30582013917 36.54976567967 24.57719626401 705.38505060141 605.12079872208)"/><path d="m.072-.716h.264c.06 0 .105.005.137.014.042.012.078.034.108.066.03.031.052.07.068.116.016.045.023.102.023.169 0 .059-.007.11-.022.152-.018.052-.043.095-.076.127-.025.024-.059.043-.102.057-.032.01-.074.015-.128.015h-.272zm.145.121v.474h.108c.04 0 .069-.002.087-.006.024-.006.043-.016.058-.03.016-.014.029-.037.038-.069.01-.032.015-.076.015-.131 0-.056-.005-.098-.015-.128-.009-.029-.023-.053-.041-.069-.017-.017-.04-.028-.067-.034-.02-.004-.059-.007-.118-.007z" transform="matrix(19.0604258398 -32.55609651138 38.00940287539 22.25319248673 722.19782906754 578.97742120016)"/><path d="m.068-.716h.145v.716h-.145z" transform="matrix(16.16774640893 -34.08530253178 39.79478774248 18.87585677049 738.61953866218 550.53489042893)"/><path d="m.036-.233.141-.014c.008.048.025.082.051.104.026.023.061.034.105.034.047 0 .082-.01.105-.03.024-.02.036-.043.036-.069 0-.017-.005-.031-.015-.043s-.028-.022-.052-.031c-.017-.006-.056-.017-.116-.031-.077-.02-.132-.043-.163-.071-.044-.04-.066-.088-.066-.144 0-.037.01-.071.031-.103.021-.031.05-.056.089-.072.039-.017.086-.025.141-.025.09 0 .158.02.203.059.046.039.069.092.072.158l-.145.006c-.006-.037-.019-.063-.04-.079-.02-.016-.051-.024-.091-.024-.042 0-.075.008-.099.025-.015.012-.023.026-.023.045 0 .017.007.031.022.043.018.016.062.032.132.048.071.017.123.034.156.052.034.017.061.042.08.072.019.031.028.069.028.115 0 .041-.011.079-.034.115s-.055.062-.097.08c-.041.017-.093.026-.155.026-.091 0-.16-.021-.209-.063-.048-.042-.077-.103-.087-.183z" transform="matrix(15.34059212043 -34.46551425011 40.2386717649 17.91012687247 744.99927523592 534.51106171692)"/></g></g></svg>