<svg clip-rule="evenodd" fill-rule="evenodd" stroke-linejoin="round" stroke-miterlimit="2" viewBox="0 0 537 495" xmlns="http://www.w3.org/2000/svg"><g fill="#fff"><path d="m1062.38 419.329 15.47-16.043s14.46 16.125 14.46 16.125l16.51-16.21s15.02 16.188 15.02 16.188l16.29-16.169s14.92 16.225 14.92 16.225l19.1-19.901-3.6-3.463-15.42 16.062s-14.84-16.131-14.84-16.131l-16.3 16.186s-15.01-16.168-15.01-16.168l-16.44 16.147s-14.55-16.232-14.55-16.232l-19.21 19.913z" transform="matrix(3.52879801 0 0 3.52879801 -3671.29797 -1326.748563)"/><path d="m1062.38 419.329 15.47-16.043s14.46 16.125 14.46 16.125l16.51-16.21s15.02 16.188 15.02 16.188l16.29-16.169s14.92 16.225 14.92 16.225l19.1-19.901-3.6-3.463-15.42 16.062s-14.84-16.131-14.84-16.131l-16.3 16.186s-15.01-16.168-15.01-16.168l-16.44 16.147s-14.55-16.232-14.55-16.232l-19.21 19.913z" transform="matrix(3.52879801 0 0 3.52879801 -3671.29797 -1194.965603)"/><path d="m1062.38 419.329 15.47-16.043s14.46 16.125 14.46 16.125l16.51-16.21s15.02 16.188 15.02 16.188l16.29-16.169s14.92 16.225 14.92 16.225l19.1-19.901-3.6-3.463-15.42 16.062s-14.84-16.131-14.84-16.131l-16.3 16.186s-15.01-16.168-15.01-16.168l-16.44 16.147s-14.55-16.232-14.55-16.232l-19.21 19.913z" transform="matrix(3.52879801 0 0 3.52879801 -3671.29797 -1061.490464)"/><path d="m1192.78 380.268h-150.74v150.739h150.74zm-4.96 5.378v139.983h-140.83v-139.983z" transform="matrix(3.56216773 0 0 3.28074477 -3711.90029 -1247.561569)"/></g></svg>