<svg clip-rule="evenodd" fill-rule="evenodd" stroke-linejoin="round" stroke-miterlimit="2" viewBox="0 0 679 679" xmlns="http://www.w3.org/2000/svg"><g fill="#fff"><path d="m679.433 365.026c-.491.496-.488 1.295.005 1.788l28.207 28.207c.495.495 1.298.495 1.794 0l28.389-28.389c.01-.01.02-.021.03-.031 5.53-5.928 9.612-8.824 13.552-8.718 3.918.105 7.507 3.19 12.075 8.665.024.029.05.057.077.084l29.08 29.08c.495.495 1.298.495 1.793 0l29.235-29.235c.491-.491.496-1.285.012-1.782l-58.316-59.785c-.003-.004-.007-.008-.01-.011-4.729-4.735-8.807-7.336-12.927-7.501-4.144-.166-8.452 2.097-13.604 7.519.004-.005-59.392 60.109-59.392 60.109zm2.69.886 58.519-59.226c.006-.006.012-.011.017-.017 4.466-4.701 8.077-6.88 11.668-6.737 3.613.145 7.083 2.604 11.23 6.754 0 0 57.434 58.883 57.434 58.883s-27.452 27.453-27.452 27.453-28.143-28.143-28.143-28.143c-5.185-6.205-9.466-9.412-13.918-9.531-4.439-.12-9.232 2.834-15.461 9.509.002-.003-27.475 27.474-27.475 27.474z" transform="matrix(2.0054369286 0 0 2.0054369286 -1167.7965872 -234.7657852)"/><path d="m919.012 462.607c8.043-8.042 8.043-21.101 0-29.143l-152.674-152.674c-8.042-8.043-21.101-8.043-29.143 0l-152.674 152.674c-8.043 8.042-8.043 21.101 0 29.143l152.674 152.674c8.042 8.043 21.101 8.043 29.143 0zm-5.303-5.303-152.674 152.674c-5.115 5.115-13.422 5.115-18.537 0 0 0-152.674-152.674-152.674-152.674-5.115-5.115-5.115-13.422 0-18.537 0 0 152.674-152.674 152.674-152.674 5.115-5.115 13.422-5.115 18.537 0 0 0 152.674 152.674 152.674 152.674 5.115 5.115 5.115 13.422 0 18.537zm-176.778 103.953c-9.385-9.88-26.445 1.089-15.745 13.431l20.638 21.005c6.102 5.812 11.618 6.72 18.452 0l20.584-21.005c9.499-10.482-6.534-22.548-14.602-14.715l-7.073 7.257c-5.903 5.864-9.928 5.588-15.512 0zm97.685-183.037-28.208 28.207 28.389 28.389c12.612 11.765 11.709 17.76 0 27.528l-29.079 29.08 29.235 29.235 59.785-58.315c8.887-8.877 10.126-15.099 0-24.719zm-166.265 0 28.207 28.207-28.389 28.389c-12.612 11.765-11.708 17.76 0 27.528l29.08 29.08-29.235 29.235-59.785-58.315c-8.888-8.877-10.126-15.099 0-24.719zm11.984-12.303 28.207 28.207 28.389-28.388c11.765-12.612 17.76-11.709 27.528 0l29.08 29.079 29.235-29.235-58.315-59.785c-8.878-8.887-15.099-10.126-24.719 0z" transform="matrix(1.9564307496 0 0 1.9564307496 -1131.771986 -537.54735409)"/></g></svg>