<svg clip-rule="evenodd" fill-rule="evenodd" stroke-linejoin="round" stroke-miterlimit="2" viewBox="0 0 834 613" xmlns="http://www.w3.org/2000/svg"><path d="m5020.81 1512.16c3.41 5.29 6.67 10.69 9.84 16.16 52.17-13.2 88.52-38.08 99.63-81.62-35.04-36.07-69.36-73.29-84.89-140.82-24.39 69.04-86.11 106.26-174.88 120.44 21.36 1.33 39.83 4.77 55.97 9.91 34.3-8.38 67.05-21.56 97.04-43.26-15.67 22.45-43.26 38.42-77.42 50.82 8.45 3.87 16.16 8.28 23.25 13.14 22.48-8.04 44.06-18.83 64.38-33.53-11.91 17.07-30.71 30.39-54.05 41.25 6.12 4.98 11.75 10.32 16.98 15.96 16.35-7.09 32.15-15.85 47.25-26.78-9.52 13.64-23.44 24.89-40.55 34.39 4.52 5.43 8.74 11.07 12.74 16.88 11.84-5.9 23.36-12.78 34.5-20.84-7.44 10.65-17.56 19.85-29.79 27.9zm-1830.58 0c-3.42 5.29-6.68 10.69-9.84 16.16-52.17-13.2-88.52-38.08-99.64-81.62 35.04-36.07 69.37-73.29 84.89-140.82 24.4 69.04 86.12 106.26 174.89 120.44-21.36 1.33-39.83 4.77-55.97 9.91-34.3-8.38-67.05-21.56-97.04-43.26 15.67 22.45 43.26 38.42 77.41 50.82-8.44 3.87-16.15 8.28-23.25 13.14-22.47-8.04-44.06-18.83-64.38-33.53 11.92 17.07 30.72 30.39 54.06 41.25-6.12 4.98-11.75 10.32-16.98 15.96-16.35-7.09-32.15-15.85-47.26-26.78 9.52 13.64 23.44 24.89 40.56 34.39-4.52 5.43-8.75 11.07-12.75 16.88-11.83-5.9-23.35-12.78-34.49-20.84 7.44 10.65 17.56 19.85 29.79 27.9zm915.29-275.25h13.29c423.11 19.89 578.79 101.46 751.7 113.94l-31.51 145.53c0 30.39-15.56 35.05-35.87 30.39-217-49.77-430.49-89.66-675.71-99.14l-21.9-.77c-254.46 7.89-474.18 48.66-697.62 99.91-20.31 4.66-35.86 0-35.86-30.39l-31.51-145.53c174.48-12.6 344.19-94.05 764.99-113.94zm1292.6 57.09c1.18-13.97 3.6-27.3 7.54-39.84-111.68 38.1-225.16 60.48-344.34 32.92 12.21 51.93 40.37 103.34 92.28 153.95 103.39 9.82 188.47-4.04 252.06-45.68-.62-3.38-1.22-6.75-1.79-10.1-30.38-13.77-61.84-24.13-94.25-31.52 31.9 2.82 62.89 8.34 92.23 18.77-.93-6.29-1.74-12.51-2.4-18.66-24.44-9.82-49.55-17.55-75.25-23.41 25.45 2.26 50.33 6.23 74.25 13.04-.47-5.73-.82-11.39-1.02-16.98-17.65-6.14-35.62-11.25-53.89-15.42 18.25 1.62 36.2 4.12 53.72 7.91-.08-6.39.06-12.67.42-18.84-14.65-4.76-29.53-8.85-44.61-12.29 15.25 1.35 30.29 3.32 45.05 6.15zm-2585.2 0c-1.18-13.97-3.61-27.3-7.55-39.84 111.69 38.1 225.16 60.48 344.35 32.92-12.21 51.93-40.38 103.34-92.28 153.95-103.39 9.82-188.48-4.04-252.07-45.68.63-3.38 1.23-6.75 1.8-10.1 30.38-13.77 61.84-24.13 94.24-31.52-31.89 2.82-62.88 8.34-92.22 18.77.93-6.29 1.73-12.51 2.4-18.66 24.44-9.82 49.55-17.55 75.25-23.41-25.46 2.26-50.33 6.23-74.26 13.04.48-5.73.82-11.39 1.02-16.98 17.65-6.14 35.62-11.25 53.9-15.42-18.25 1.62-36.2 4.12-53.72 7.91.07-6.39-.06-12.67-.42-18.84 14.65-4.76 29.52-8.85 44.6-12.29-15.24 1.35-30.28 3.32-45.04 6.15zm810.22 58.48c.24-1.36.28-2.44.13-3.22-.27-1.37-1.11-2.24-2.5-2.63-1.4-.38-3.7-.46-6.91-.23-1.19.14-1.96-.68-2.31-2.44-.04-.19-.06-.42-.06-.67.01-.25-.02-.53-.08-.82l-.09-1.2c.9-.08 2-.19 3.29-.35 1.29-.15 2.69-.35 4.22-.61 1.52-.25 3.05-.5 4.57-.75 1.53-.25 2.92-.5 4.19-.76 2.84-.56 5.54-1.15 8.11-1.76s4.76-1.24 6.56-1.91l.38 1.15c.15.27.26.56.32.85.05.29.1.54.14.73.37 1.86-.02 2.95-1.18 3.28-3.07.92-5.19 1.87-6.36 2.87-1.18.99-1.97 2.49-2.38 4.51l-19.07 93.67c-.47.19-.85.32-1.14.38s-.64.12-1.03.2c-.78.16-1.37.12-1.77-.1-.4-.23-.9-.84-1.51-1.84l-51.13-78.08c-.43-.63-.87-1.17-1.32-1.64-.44-.47-1.05-.84-1.81-1.09-.76-.26-1.73-.4-2.9-.42s-2.71.06-4.6.23c-1.29.15-2.13-.75-2.52-2.7-.06-.29-.14-.71-.25-1.25-.1-.53-.09-.97.05-1.3 1.48-.19 3.17-.43 5.04-.7 1.88-.27 3.77-.57 5.69-.89 1.92-.33 3.78-.65 5.6-.96s3.41-.6 4.78-.87c3.22-.64 6.73-1.41 10.51-2.32 3.78-.9 7.17-1.75 10.16-2.54.29.45.49.91.58 1.4.1.49.18.88.24 1.18.35 1.76-.06 2.8-1.21 3.13-3.07.91-5.17 1.84-6.31 2.77-1.13.94-1.58 2-1.35 3.17.14.68.44 1.43.91 2.26l32.88 53.66zm1041.11 21.57c-.94.06-1.89-.03-2.86-.29-1.35-.36-2.24-.88-2.67-1.56-.44-.68-.68-1.34-.72-1.97-.76-6.08-2.57-10.79-5.45-14.13s-7.25-5.79-13.13-7.35c-4.62-1.22-8.84-1.13-12.67.27-3.83 1.41-6.35 4.42-7.58 9.05-.95 3.56-.48 6.75 1.4 9.57s4.46 5.54 7.73 8.16 6.85 5.27 10.73 7.95c3.87 2.68 7.36 5.66 10.45 8.96s5.4 7.05 6.91 11.27c1.51 4.21 1.52 9.11.04 14.7-.98 3.66-2.55 7.05-4.72 10.19-2.17 3.13-4.96 5.67-8.36 7.6s-7.38 3.14-11.94 3.63-9.73-.03-15.51-1.57c-6.36-1.68-11.85-3.89-16.49-6.62-4.64-2.72-8.38-5.34-11.22-7.84.82-4.22 1.44-8.41 1.87-12.57.44-4.17.77-8.23 1-12.19 1.06-.13 2.22-.03 3.47.31 1.16.3 1.97.75 2.43 1.33.46.59.74 1.47.85 2.63.28 3.99.84 7.51 1.68 10.57.83 3.06 2.04 5.7 3.62 7.92 1.57 2.22 3.58 4.07 6.02 5.54 2.45 1.48 5.4 2.68 8.87 3.59 2.98.8 5.65 1.07 7.98.81 2.34-.26 4.36-.88 6.06-1.87 1.71-.99 3.14-2.31 4.3-3.96s2-3.44 2.51-5.37c1.1-4.14.78-7.7-.95-10.69-1.73-2.98-4.15-5.74-7.24-8.26s-6.5-5.02-10.22-7.51c-3.72-2.48-7.06-5.27-10-8.37s-5.13-6.67-6.58-10.72c-1.46-4.04-1.41-8.95.12-14.73 1.02-3.86 2.67-7.26 4.95-10.21s5.09-5.3 8.44-7.03c3.35-1.74 7.12-2.83 11.31-3.27 4.18-.43 8.73 0 13.64 1.31 4.05 1.07 8 2.58 11.87 4.54 3.86 1.95 8.12 4.63 12.78 8.03-.57 2.94-1.12 6.27-1.65 10-.52 3.73-.88 7.11-1.07 10.15zm-97.15 37.88c-.21.95-.31 1.75-.3 2.4 0 .65.25 1.28.75 1.89.49.61 1.28 1.2 2.36 1.78 1.08.59 2.56 1.23 4.44 1.94.88.39 1.17 1.3.86 2.73-.07.28-.18.71-.35 1.27s-.34 1.02-.52 1.39c-2.91-.83-6.03-1.69-9.37-2.56s-6.3-1.58-8.88-2.14c-2.68-.58-5.69-1.16-9.04-1.73-3.36-.58-6.53-1.09-9.52-1.54-.1-.42-.09-.92.03-1.49s.22-1 .28-1.29c.33-1.52.97-2.23 1.91-2.13 2 .13 3.61.16 4.84.07 1.22-.08 2.16-.3 2.82-.66.66-.35 1.14-.82 1.46-1.4s.58-1.35.79-2.3l15.5-71.68c.21-.95.29-1.76.24-2.42s-.3-1.28-.75-1.88c-.46-.6-1.22-1.19-2.3-1.77s-2.56-1.23-4.44-1.93c-.86-.49-1.14-1.4-.85-2.73.06-.29.15-.72.27-1.29.13-.57.33-1.08.62-1.52 2.91.83 6.01 1.68 9.3 2.54 3.3.86 6.28 1.58 8.95 2.16 2.59.56 5.58 1.13 8.98 1.72 3.39.58 6.59 1.1 9.59 1.55-.01.49-.06 1.03-.14 1.62-.07.58-.15 1.01-.21 1.3-.29 1.33-.92 2.05-1.91 2.13-2-.13-3.61-.16-4.83-.07-1.23.08-2.19.3-2.9.65-.7.34-1.19.81-1.46 1.4s-.51 1.36-.72 2.32zm-869.82-4.32c.19.98.42 1.77.69 2.38s.78 1.09 1.51 1.46c.73.36 1.74.6 3.03.7s2.99.1 5.1-.01c1.01 0 1.67.74 1.95 2.21.06.29.12.74.19 1.33.06.6.09 1.1.06 1.51-3.16.42-6.55.9-10.14 1.45-3.6.56-6.77 1.1-9.51 1.64-2.83.55-6 1.25-9.49 2.08-3.49.84-6.78 1.66-9.87 2.47-.27-.36-.47-.83-.58-1.41-.12-.59-.2-1.03-.26-1.32-.31-1.57.02-2.49.98-2.78 1.99-.7 3.57-1.34 4.73-1.92 1.15-.58 1.97-1.17 2.47-1.78.49-.6.77-1.24.84-1.91.07-.68.01-1.5-.18-2.48l-14.38-73.48c-.19-.98-.45-1.77-.77-2.37-.32-.59-.82-1.08-1.5-1.45-.68-.38-1.67-.62-2.96-.72s-2.99-.1-5.1.01c-1.03-.1-1.69-.84-1.95-2.21-.06-.29-.15-.73-.26-1.32-.12-.58-.12-1.14-.02-1.67 3.16-.41 6.52-.89 10.07-1.44 3.55-.54 6.74-1.09 9.58-1.64 2.73-.54 5.87-1.23 9.41-2.07 3.54-.85 6.86-1.68 9.95-2.48.19.47.37.99.54 1.57.16.57.27 1.01.33 1.3.27 1.37-.06 2.3-.98 2.78-2 .7-3.57 1.34-4.73 1.92-1.15.58-2 1.18-2.54 1.79s-.82 1.25-.85 1.92c-.02.66.07 1.48.26 2.46zm55.6-40.31-6.36.9 4.41 30.93c.33 2.26 1.52 3.73 3.57 4.39 2.06.67 5.45.96 10.17.89 1.41 0 2.24.89 2.49 2.67.12.78.15 1.69.09 2.7-2.89.21-6.49.55-10.8 1.01-4.31.47-8.99 1.06-14.02 1.78-3.55.51-6.96 1.07-10.25 1.69-3.28.62-6.34 1.23-9.17 1.84-.25-.37-.42-.8-.49-1.29-.07-.5-.12-.89-.17-1.19-.23-1.67.17-2.69 1.23-3.04 2.02-.69 3.64-1.3 4.87-1.83 1.24-.53 2.17-1.06 2.79-1.6.63-.55 1.02-1.16 1.18-1.83.15-.68.16-1.51.02-2.5l-10.58-74.12c-.29-1.97-1.21-3.3-2.76-3.99-1.56-.68-4.4-.98-8.51-.89-.52-.13-.96-.37-1.31-.72-.35-.36-.6-1.03-.74-2.01-.06-.4-.12-.84-.19-1.33-.07-.5-.03-.91.13-1.23 2.79-.2 5.99-.48 9.61-.84 3.63-.37 6.87-.76 9.73-1.17l22.34-3.18c5.23-.75 10-.78 14.33-.09 4.32.69 8.11 2.01 11.36 3.96 3.25 1.96 5.87 4.45 7.86 7.49s3.27 6.53 3.84 10.47c.74 5.23-.18 10.22-2.77 14.97-2.6 4.74-6.55 8.61-11.86 11.58l28.06 30.56c2.14 2.31 4.45 3.8 6.9 4.45 2.46.66 4.71 1.09 6.76 1.3.5.03.93.2 1.27.5.35.3.59.9.71 1.79.06.39.12.83.19 1.33.07.49.05 1-.08 1.52-1.1.06-2.64.2-4.62.43-1.98.24-4.04.45-6.17.66-2.14.2-4.27.43-6.39.68-2.13.26-3.89.48-5.27.68-2.07.29-4.26-.27-6.58-1.7s-4.67-3.44-7.05-6.02zm753.66-43.28-11.72 76.66c-.15.97-.2 1.79-.16 2.44.05.65.32 1.26.81 1.84.5.57 1.24 1.11 2.23 1.61s2.41 1.04 4.26 1.62c1.38.51 1.96 1.44 1.75 2.8-.04.29-.13.73-.27 1.3-.13.58-.28 1.05-.43 1.43-3.01-.66-6.23-1.33-9.66-2-3.44-.68-6.48-1.22-9.14-1.62-2.75-.42-5.81-.82-9.2-1.19-3.39-.36-6.61-.68-9.67-.95-.13-.42-.18-.92-.13-1.52.04-.58.08-1.03.13-1.32.1-.68.3-1.22.61-1.62.3-.4.99-.62 2.06-.65 3.58.05 5.89-.27 6.91-.96 1.03-.69 1.69-2 1.99-3.95l11.72-76.66-12.51-1.91c-2.65-.4-4.95-.48-6.88-.23-1.92.25-3.66.83-5.21 1.74-1.54.91-3 2.18-4.36 3.81-1.37 1.63-2.81 3.62-4.33 5.97-.52.82-1.29 1.15-2.34.99-.56-.09-1.21-.31-1.93-.67s-1.26-.67-1.61-.92c1.02-2.23 1.91-4.21 2.66-5.93.75-1.73 1.4-3.44 1.95-5.15.72-2.17 1.31-4.12 1.76-5.84.46-1.72.89-2.95 1.29-3.68.52-.82 1.34-1.14 2.48-.97 1.04.16 3.08.62 6.12 1.39 3.03.76 6.73 1.47 11.09 2.14l43.78 6.69c4.26.66 7.96 1.07 11.08 1.25 3.13.18 5.26.36 6.39.53 1.05.16 1.74.71 2.08 1.66.16.82.18 2.12.06 3.89-.13 1.77-.13 3.81.01 6.11.01 1.8.1 3.62.25 5.49.15 1.86.43 4.01.83 6.46-.5.12-1.13.25-1.88.39-.75.13-1.4.15-1.97.07-1.04-.16-1.74-.72-2.08-1.66-.75-2.7-1.53-5.03-2.34-7-.82-1.96-1.83-3.61-3.03-4.94-1.21-1.32-2.69-2.39-4.46-3.21-1.76-.82-3.92-1.42-6.48-1.82zm512.75-2.08c2.63-32.61-37.43-55.06-81.77-18.69-27.27 22.38.1 63.39 31.99 76.38-31.43 19.88-62.28 29.64-92.73 32.41 4.47-50.97 11.36-103.41 55.5-125.54 38-19.04 73.32-21.74 103.8 4.9-4.62 11.8-8.37 21.76-16.79 30.54zm-1827.54 0c-2.63-32.61 37.43-55.06 81.77-18.69 27.27 22.38-.11 63.39-31.99 76.38 31.43 19.88 62.28 29.64 92.73 32.41-4.47-50.97-11.36-103.41-55.5-125.54-38.01-19.04-73.32-21.74-103.81 4.9 4.63 11.8 8.38 21.76 16.8 30.54zm1230.36 68.98c-.11.99-.13 1.82-.06 2.48s.4 1.27.99 1.84 1.48 1.1 2.68 1.59c1.19.49 2.81 1 4.86 1.54.97.31 1.36 1.21 1.19 2.7-.03.29-.11.73-.23 1.32-.11.59-.25 1.08-.39 1.46-3.15-.56-6.52-1.13-10.11-1.69-3.6-.57-6.78-1.01-9.55-1.33-2.87-.33-6.1-.63-9.68-.89-3.58-.27-6.96-.48-10.15-.65-.16-.42-.2-.92-.13-1.52.07-.59.12-1.04.16-1.34.18-1.58.77-2.36 1.77-2.35 2.11-.05 3.81-.18 5.09-.39 1.27-.2 2.24-.52 2.89-.94.65-.43 1.11-.95 1.38-1.57.28-.62.47-1.43.58-2.42l8.59-74.38c.12-.99.11-1.82-.01-2.49-.12-.66-.45-1.28-.99-1.84s-1.4-1.09-2.6-1.58-2.82-1-4.86-1.54c-.96-.41-1.36-1.31-1.2-2.69.04-.3.09-.75.16-1.34s.23-1.13.48-1.6c3.15.57 6.49 1.13 10.04 1.69 3.54.56 6.75 1 9.62 1.33 2.77.32 5.97.62 9.6.89s7.04.48 10.23.65c.05.51.06 1.06.04 1.66s-.05 1.05-.08 1.35c-.16 1.38-.75 2.17-1.78 2.35-2.11.06-3.81.18-5.08.39-1.28.2-2.27.51-2.97.94-.7.41-1.16.94-1.38 1.57-.23.62-.4 1.43-.51 2.42zm-571.47-6.12c.11.99.27 1.8.5 2.42.21.63.67 1.16 1.37 1.58s1.69.74 2.96.95c1.28.21 2.97.35 5.09.42 1.01.09 1.6.88 1.76 2.36.03.3.06.75.07 1.35.02.6 0 1.1-.06 1.51-3.19.15-6.6.35-10.23.6s-6.83.53-9.61.83c-2.87.32-6.08.75-9.63 1.29s-6.89 1.08-10.04 1.63c-.24-.37-.4-.86-.46-1.45-.07-.6-.12-1.04-.15-1.34-.18-1.58.23-2.48 1.21-2.69 2.04-.52 3.67-1.03 4.87-1.51s2.07-1.01 2.61-1.57.87-1.17 1-1.84c.12-.66.13-1.49.02-2.48l-8.2-74.43c-.11-.99-.3-1.79-.57-2.41-.27-.63-.73-1.15-1.37-1.58-.65-.43-1.62-.75-2.89-.96-1.28-.21-2.97-.35-5.09-.42-1.02-.19-1.61-.97-1.76-2.36-.03-.3-.08-.74-.15-1.34-.06-.59-.02-1.15.12-1.67 3.19-.15 6.58-.34 10.16-.59 3.58-.24 6.81-.52 9.68-.84 2.77-.31 5.96-.73 9.56-1.28s6.97-1.09 10.12-1.64c.15.48.28 1.02.4 1.61.11.59.19 1.03.22 1.33.15 1.38-.25 2.28-1.21 2.69-2.04.52-3.67 1.03-4.87 1.51s-2.09 1.01-2.68 1.58c-.59.56-.92 1.17-1 1.83s-.06 1.49.05 2.48zm514.21-20.79 4.93-52.83c.21-2.18-.39-3.79-1.8-4.82-1.4-1.03-3.97-1.97-7.69-2.82-1.26-.42-1.82-1.42-1.67-3 .03-.3.06-.7.11-1.19.04-.5.19-.99.43-1.47 2.46.53 4.87.96 7.24 1.28s5.15.63 8.32.93c3.18.29 5.91.5 8.2.61 2.29.12 4.59.13 6.9.04.05.51.08 1.01.08 1.51.01.5 0 .9-.03 1.2-.16 1.69-.84 2.57-2.05 2.66-3.32.19-5.62.68-6.89 1.46-1.28.78-2.01 2.17-2.19 4.15l-8.12 87.05c-.41.07-1.09.08-2.03.04-.95-.04-1.57-.07-1.87-.1-.69-.07-1.42-.31-2.18-.73-.77-.42-1.54-1.22-2.33-2.39l-51.69-79.88-6 64.29c-.09.99-.09 1.81 0 2.47.08.66.43 1.24 1.03 1.75.61.51 1.51.99 2.72 1.45 1.21.47 2.83.99 4.88 1.59.49.14.89.4 1.2.78.32.38.42 1.12.32 2.21-.06.69-.24 1.53-.53 2.5-2.46-.43-4.78-.82-6.95-1.17s-4.69-.66-7.57-.93c-2.87-.27-5.63-.45-8.27-.55-2.65-.1-5.07-.15-7.27-.15-.16-.42-.22-.87-.17-1.37.04-.49.08-.89.11-1.19.09-.99.33-1.67.71-2.03.39-.37.83-.58 1.34-.63 3.62-.26 6.07-.78 7.35-1.57 1.27-.78 2-2.11 2.17-4l7.03-75.29c.15-1.59-.26-2.85-1.22-3.79-.97-.95-3.26-1.83-6.89-2.67-1.16-.41-1.67-1.41-1.52-3 .02-.2.04-.42.07-.67.02-.24.09-.51.22-.8l.26-1.18c1.38.23 2.71.43 4 .6 1.28.17 2.57.36 3.85.58 2.17.31 4.37.59 6.6.85 2.22.25 4.03.45 5.42.58 2.88.26 4.75.56 5.62.9.87.33 1.62.87 2.25 1.63zm-440.42-28.88c4.21.07 8.12.58 11.75 1.54 3.62.96 6.8 2.36 9.55 4.19 2.74 1.83 4.95 4.08 6.61 6.75 1.66 2.66 2.63 5.68 2.89 9.06.37 4.57-.18 8.66-1.64 12.28-1.46 3.61-3.67 6.71-6.61 9.29-2.94 2.59-6.6 4.65-10.98 6.2-4.37 1.55-9.29 2.54-14.75 2.97l-25.78 2.05c-1.78.15-3.79.33-6.02.56s-4.33.52-6.31.88c-1.18.19-2.37.36-3.55.5-1.19.15-2.33.26-3.43.35l-.23-1.03c-.12-.29-.19-.56-.21-.81s-.04-.47-.05-.67c-.09-1.09.03-1.82.34-2.2.33-.37.73-.63 1.22-.77 3.43-.77 5.84-1.66 7.21-2.67s1.97-2.51 1.81-4.49l-5.94-74.65c-.16-1.98-.92-3.35-2.27-4.09-1.36-.74-3.95-1.26-7.77-1.55-.82-.14-1.34-.47-1.58-1s-.4-1.2-.46-1.99c-.02-.2-.03-.42-.05-.67s.01-.48.09-.68c-.03-.4-.01-.75.07-1.06 2.99-.04 6.36-.13 10.09-.28 3.74-.14 6.8-.31 9.19-.5l20.56-1.64c6.35-.5 11.67-.3 15.94.61s7.73 2.35 10.39 4.34c2.65 1.99 4.62 4.36 5.88 7.1 1.27 2.75 2.03 5.66 2.27 8.74.46 5.76-1.06 10.51-4.56 14.24-3.5 3.72-8.07 6.61-13.7 8.66zm343.52 19.56c-.33 5.67-1.23 10.83-2.7 15.49-1.47 4.65-3.77 8.61-6.91 11.87-3.13 3.26-7.22 5.69-12.25 7.29-5.04 1.6-11.28 2.18-18.74 1.75-8.86-.52-15.93-1.94-21.24-4.24-5.3-2.31-9.32-5.26-12.05-8.87-2.74-3.6-4.47-7.74-5.19-12.43-.72-4.68-.93-9.66-.62-14.93l2.9-49.53c.12-2.09-.44-3.6-1.68-4.52s-3.84-1.75-7.79-2.48c-1.08-.26-1.58-1.24-1.48-2.93.02-.3.04-.7.07-1.19.03-.5.16-.99.39-1.48 2.87.37 5.92.72 9.14 1.06 3.23.34 7.08.64 11.55.9 3.49.21 7.12.35 10.91.42s7.18.09 10.18.07c.07.5.11 1 .13 1.51.02.5.02.9.01 1.19-.1 1.7-.7 2.61-1.81 2.74-4.11.26-6.91.79-8.4 1.61-1.5.81-2.3 2.21-2.42 4.2l-2.71 46.25c-.61 10.34.85 18.31 4.36 23.91 3.52 5.59 9.95 8.67 19.3 9.21 9.55.56 16.48-1.55 20.81-6.34 4.32-4.79 6.81-12.85 7.48-24.19l2.68-45.8c.12-1.99-.49-3.47-1.84-4.45-1.34-.98-3.93-1.83-7.78-2.55-1.18-.37-1.72-1.35-1.62-2.94.01-.3.06-.7.14-1.19.08-.5.18-.99.31-1.48 2.87.47 5.52.82 7.95 1.06 2.43.25 5.04.45 7.82.61 3.19.19 6.02.3 8.52.35 2.49.05 4.94-.01 7.34-.17.07.51.12 1.01.14 1.51s.02.9 0 1.19c-.09 1.6-.74 2.51-1.95 2.73-3.71.19-6.28.71-7.73 1.57-1.45.87-2.23 2.29-2.35 4.28zm-134.79-40.43c-.89.3-1.84.44-2.84.44-1.39 0-2.39-.27-2.99-.82-.59-.54-.99-1.12-1.19-1.72-2.29-5.67-5.26-9.76-8.89-12.25-3.64-2.49-8.5-3.74-14.58-3.74-4.78 0-8.84 1.17-12.18 3.51-3.33 2.35-5 5.91-5 10.69 0 3.69 1.27 6.65 3.81 8.89 2.54 2.25 5.73 4.21 9.56 5.91 3.84 1.69 7.97 3.33 12.41 4.93 4.43 1.59 8.57 3.58 12.4 5.98 3.84 2.39 7.03 5.43 9.57 9.11 2.54 3.69 3.81 8.42 3.81 14.2 0 3.79-.65 7.48-1.94 11.06-1.3 3.59-3.34 6.75-6.13 9.49s-6.33 4.93-10.61 6.58c-4.29 1.64-9.42 2.46-15.4 2.46-6.57 0-12.45-.72-17.63-2.16-5.18-1.45-9.47-3.02-12.86-4.71-.3-4.28-.77-8.49-1.42-12.63-.64-4.13-1.37-8.14-2.16-12.03.99-.4 2.14-.6 3.44-.6 1.19 0 2.09.23 2.69.67.59.45 1.09 1.22 1.49 2.32 1.3 3.79 2.74 7.05 4.33 9.79 1.6 2.74 3.44 4.98 5.53 6.73 2.1 1.74 4.51 3.01 7.25 3.81 2.74.79 5.91 1.19 9.49 1.19 3.09 0 5.73-.42 7.92-1.27 2.2-.84 3.99-1.97 5.38-3.36 1.4-1.4 2.44-3.04 3.14-4.93.7-1.9 1.05-3.84 1.05-5.83 0-4.29-1.22-7.65-3.66-10.09s-5.48-4.48-9.12-6.13c-3.64-1.64-7.57-3.19-11.81-4.63-4.23-1.45-8.17-3.29-11.8-5.53-3.64-2.24-6.68-5.13-9.12-8.67s-3.66-8.29-3.66-14.27c0-3.99.72-7.7 2.17-11.14 1.44-3.43 3.56-6.42 6.35-8.96s6.15-4.56 10.09-6.06c3.93-1.49 8.44-2.24 13.52-2.24 4.19 0 8.4.45 12.63 1.35 4.24.89 9.04 2.39 14.42 4.48.2 2.99.53 6.35.97 10.09.45 3.73.98 7.1 1.57 10.09zm-79.92 35.25c.11 5.68-.39 10.89-1.49 15.65-1.1 4.75-3.09 8.88-5.96 12.37-2.87 3.5-6.75 6.24-11.65 8.23-4.89 1.99-11.08 3.06-18.55 3.2-8.86.18-16.03-.68-21.5-2.57-5.47-1.88-9.7-4.52-12.71-7.89-3.01-3.38-5.05-7.38-6.14-11.99-1.09-4.62-1.68-9.56-1.78-14.84l-.97-49.61c-.05-2.09-.72-3.55-2.03-4.37-1.32-.82-3.97-1.44-7.96-1.86-1.1-.18-1.67-1.12-1.7-2.81-.01-.3-.01-.7-.02-1.2-.02-.49.08-.99.26-1.5 2.9.15 5.96.26 9.2.35 3.25.08 7.11.08 11.59-.01 3.49-.06 7.12-.21 10.9-.43 3.79-.23 7.17-.47 10.15-.72.11.49.2.99.26 1.49.06.49.09.89.1 1.19.03 1.69-.5 2.65-1.59 2.87-4.08.58-6.83 1.33-8.26 2.25-1.42.93-2.12 2.39-2.08 4.38l.91 46.32c.2 10.36 2.27 18.19 6.21 23.5 3.95 5.3 10.6 7.86 19.96 7.68 9.56-.19 16.31-2.83 20.25-7.94s5.79-13.35 5.57-24.7l-.9-45.88c-.03-1.99-.76-3.42-2.17-4.29-1.42-.87-4.07-1.51-7.96-1.94-1.21-.27-1.82-1.21-1.85-2.8-.01-.3.01-.7.05-1.2s.1-1 .19-1.5c2.9.25 5.57.39 8.01.44 2.44.06 5.06.05 7.85 0 3.19-.06 6.02-.17 8.51-.31 2.49-.15 4.93-.4 7.31-.75.11.5.2 1 .26 1.49.06.5.09.9.09 1.2.04 1.59-.54 2.55-1.73 2.87-3.68.47-6.21 1.19-7.58 2.17-1.38.97-2.05 2.46-2.01 4.45zm-148.33 26.61c.18 2.28 1.36 3.67 3.55 4.14 2.19.48 4.67.6 7.45.38 6.85-.54 11.85-2.42 15-5.61 3.14-3.2 4.45-8.08 3.93-14.64-.28-3.57-1.16-6.65-2.61-9.23-1.45-2.59-3.29-4.66-5.52-6.24-2.22-1.57-4.76-2.69-7.61-3.36-2.86-.68-5.82-.89-8.9-.65l-8.04.65zm-649.74-70.24c5.71 28.97-24.04 29.75-60.24 25.41 8.98 14.95 20.74 28.79 35.48 41.44 33.12-21.21 50.58-43.1 24.76-66.85zm1700.7 0c-5.72 28.97 24.04 29.75 60.23 25.41-8.97 14.95-20.74 28.79-35.48 41.44-33.12-21.21-50.57-43.1-24.75-66.85zm-1205.97 54.29c3.06-.43 5.78-1.12 8.16-2.07 2.38-.94 4.36-2.26 5.93-3.94s2.65-3.78 3.25-6.28.64-5.57.12-9.22c-.87-6.12-3.04-10.74-6.51-13.87-3.46-3.13-8.95-4.16-16.44-3.09l-4.44.64 5.49 38.47zm154.05-26.25c3.87-.31 7.06-1.06 9.56-2.26s4.46-2.73 5.86-4.59 2.33-3.91 2.81-6.15c.47-2.24.61-4.55.42-6.93-.18-2.28-.73-4.41-1.63-6.39-.91-1.98-2.22-3.65-3.93-5.01-1.7-1.36-3.88-2.37-6.53-3-2.65-.64-5.76-.82-9.34-.53l-2.38.18 2.77 34.87zm470.53-145.72 5.11 58.82c151.55 10.16 312.4 55.31 453.94 81.07 37.94 6.91 54.23-1.98 47.18-20.04-12.27-31.43-64.51-52.5-230.86-75.64-98.91-13.75-231.51-11.63-275.37-44.21zm-537.92 0v58.82c-151.56 10.16-317.51 55.31-459.05 81.07-37.95 6.91-54.23-1.98-47.18-20.04 12.26-31.43 64.5-52.5 230.86-75.64 98.9-13.75 231.5-11.63 275.37-44.21zm-595.03 117.68c-7.97-7.24-18.73-7.01-30.89-3.01l4.64 18.76c16.2 1.16 29.34-.31 26.25-15.75zm1727.98 0c7.97-7.24 18.72-7.01 30.89-3.01l-4.64 18.76c-16.21 1.16-29.35-.31-26.25-15.75zm-12.81-49.08c-20.76 6.76-37.88 16.59-50.45 30.28-116.27-55.38-272.81-83.19-454.47-93.8-86.93-5.08-91.4-31.43-58.11-41.77 73.45-22.81 382.44 41.77 563.03 105.29zm-1702.36 0c20.76 6.76 37.88 16.59 50.44 30.28 116.28-55.38 272.82-83.19 454.48-93.8 86.92-5.08 91.4-31.43 58.1-41.77-73.45-22.81-382.44 41.77-563.02 105.29zm1692.86-1185.486c-3.44 1.924-7.57 3.778-12.45 5.51-34.19 12.131-77.71 6.802-119.71 4.315-28.26-1.674-46.96-7.089-48.87-29.755-24.73 6.693-35.55 21.323-30.76 44.868 24.35 2.756 45.71 7.644 62.35 16.565 45.18 24.224 95.49 29.247 143.2 24.363-41.69 65.458-98.85 73.188-157.81 74.178 62.21-8.084 123.33-17.092 134.21-68.103-39.5 2.543-79.29-2.522-119.6-21.733-14.37-8.145-35.48-14.889-61.24-20.667.12.43.24.863.37 1.298-24.53.527-48.72-2.511-71.83-17.275-6.96 10.777-5.15 18.982 6.13 29.635 27.78 26.241 67.78 22.667 87.38 45.481-19.08.326-32.37 7.906-41.09 21.21-32.78-13.001-52.04-34.15-67.58-57.54-11.87-16.039-24.37-32.045-60.65-46.84-23.55-20.072-50.32-36.213-108.81-13.452-17.94-.375-38.92 0-48.35 13.452-4.44 6.33-7.55 15.98-8.55 30.851 20.68 1.995 41.66 5.196 59.86-2.381 3.47-18.233 15.2-28.107 36.34-28.47-4.08 12.407-13.79 21.943-29.4 28.47-8.89 14.873-16.25 31.089-15.29 54.7 5.9-8.35 13.33-13.703 22.75-15.207 18.35-6.413 33.72-20.313 48.91-34.647-10.26 16.873-22.37 31.8-42.84 37.906-7.51 10.747-5.97 25.165 0 41.386 16.38 1.297 32.99 3.554 47.14-5.204 1.5-15.973 8.75-25.598 17.08-34.027-4.33 15.371-4.97 31.421 0 48.501 2.32 15.544-3.65 31.696-14.23 48.188 18.29-4.994 32.04-15.116 35.39-36.992 13.7 25.448 18.77 47.854-9.41 58.526 14.48-.499 23.12 4.157 23.76 15.865-1.86 19.76 7.85 31.85 20.41 42.041 8.86 15.26-5.67 17.11-28.03 14.467 10.02 22.051 28.03 37.434 53.92 33.139 21.29-3.533 21.29 23.149 0 21.323-34.86-2.99-42.38 9.644-38.33 28.882 11.49-8.845 21.53-9.08 27.64 13.877v37.579c.56 29.382-22.57 27.354-53.77 14.616l3.81 23.949c12.15 4.141 19.03 11.479 14.35 25.838l-44.58 13.108c-6.7 0-21.09 15.287-12.31 30.82l21.38 20.191c20.33 6.282 38.75 3.506 55.92-5.244-11.49 12.572-28.28 19.015-48.38 21.615-11.6 10.04-16.01 24.613-7.54 47.316 13.07 3.431 25.19.658 35.51-13.907 16.27 22.537 8.82 38.203-14.35 49.316 39.15-13.019 67.66-10.543 79.54-49.316-50.23-69.971 16.32-57.248 28.32-74.272 5.03-7.149 9.64-13.525 13.91-19.143-13.4 3.959-29.88 6.133-51.11 1.121l16.31-19.322v11.909c13.52.189 24.26-7.127 33.35-18.872 29.13-25.308 43.23-20.634 52.01-5.366 3.25 1.178 6.64 2.93 10.26 5.245 48.56 47.577 103.87 78.495 162.91 100.213 6.86 9.786 9.86 20.013 8.63 28.709 4.97 3.544 3.82 11.047 3.15 18.242 54.58-56.597-147.45-142.363-163.3-204.766 23.36 72.274 225.64 131.854 196.6 220.271 19.05-35.62 15.77-68.091-89.58-156.156-8.39-6.448-16.41-12.885-23.69-19.361 8.41 6.739 16.3 13.185 23.69 19.361 51.2 39.384 115.72 79.209 104.78 131.173-13.01 61.803-40.14 121.343-46.95 183.759 8.82 45.886 31.93 88.281 63.46 128.622 24.77 36.324-39.26 55.944-32.21 20.074-22.48 4.43-39.18 19.03-17.95 48.89 21.98 14.84 42.73 18.2 66.41 11.31 55.34-16.1 28.5-91.219 59.04-97.7-26.87 13.571 0 84.4-59.04 102.25-21.43 8.64-43.6 6.68-66.41-4.55-10.93 6.73-17.92 17.64-20.52 33.23-3.31 19.85 25.92 44.84 54.17 25.64-54.17-11.36-5.68-52.1 13.62-31.3 15.91 17.14 35.4 32.27 51.31 34.23 46.18 5.67 59.52-8.66 54.39-34.23-3.79 20.07-43.14 25.49-27.52-13.11-1.62-8.94-1.42-16.81 2.96-22.22-18.33-32.95-18.42-55.34 8.47-65.749-22.77 13.539-24.28 32.559-3.1 57.409 2.51-12.48 9.14-19.67 19.19-22.48 10.2 53.2 52.74 73.19 80.68 68.82 21.54-3.37 37.45-.04 38.68 20.76-5.28 25.77 2.12 40.74 18.28 48.24 20.99-40.37 62.7 15.96 3.74 29.49.76 14.21-7.89 25.88-22.02 36.08-41.38-5.49-91.33-31.59-106.24 26.57l-16.91 14.95h21.62c12.69-23.54 34.01-31.56 58.18-34.44-21.18 6.39-40.51 16.75-53.5 40.66 16.79 5.95 33.48 5.59 50.07 0 3.38-33.97 28.58-34.24 55.16-32.39-26.36 4.22-46.66 13.53-47.06 39.55l38.68-3.92c12.75-9.46 19.62-26.41 31.61-31.48-6.08 6.18-8.49 13.35-5.36 22.02l118.07-31.33c-5.23-10.76-13.93-16.02-24.83-17.78-2.47-.01-4.96-.23-7.47-.67 2.59.07 5.08.29 7.47.67 14.06.04 27.54-6.9 40.47-20.37-27.5-16.39-27.28-32.62 0-48.7-24.81 5.99-34.95-.62-35.24-15.69 39.97-10.78 32.22-31.63 27.41-51.87-14.68 49.16-65.93 27.04-48.15 0-30.08 1.45-51.41-13.97-64.71-44.92 21.48 32.67 49.57 45.81 93.81 28.88-25.14-.95-40.35-20.21-44.26-60.32-18.77-19.038-37.86-27.819-57.21-28.359 49.37-21.453 8.41-77.445 67.74-82.025-20.1-11.216-39.35-17.18-55.68-4.954-17.42 50.882-55.79 73.408-75.02 35.057 13.79 15.484 29.88 18.047 49.63 0 2.96-15.538-2.55-28.963-13.73-40.967-9.09 21.962-23.04 22.91-39.99 10.864 15.39-2.519 25.03-9.642 19.2-29.167-27.11 18.303-49.21-11.194-30.54-36.984 166.71-21.941 177.72-108.226 105-229.116 9.64-24.05 30.22-35.074 53.8-42.514-28.99-7.746-55.71-10.904-75.44 0 18.84-44.16 90.53-81.601 40.52-117.527-18.26-13.12-37.83 5.767-25.46 22.553 5.68-4.789 11.24-4.157 16.62 4.396-9.34 27.169-26.32 39.832-52.68 34.674 10.64-10.376 14.97-21.452 0-34.674-20.96-18.51-47.68-24.302-43.73-49.34-18.63 28.63 13.35 53.929 4.26 80.857-37.33-37.085-53.32-84.156-47.1-141.632 11.97-36.006 30.2-40.016 65.61-23.838 17.62 8.05-1.96 40.268-1.96 40.268 26.28 5.052 52.76-16.489 49.17-46.506-1.06-3.474-1.9-7.108-2.56-10.885 1.3 3.726 2.13 7.364 2.56 10.885 5.7 18.82 17.55 32.932 39.15 39.567-11.42-12.696-15.84-27.626-8.36-46.342 8.36 67.906 106.48 49.875 84.74-30.425 7.95 51.488-64.49 51.488-45.34-5.329-21.3-5.978-42.52-6.815-63.58 0 16.66-15.649 46.58-16.037 80.04-12.347 28.36-18.048 32.33-34.963 0-50.189 8.34 14.452 0 31.307-16.46 31.307-25.55-.353-48.78-.722-68.35 8.058 6.65-13.136 22.15-20.336 55.68-15.45.13-26.873 41.84-34.978 41.84-57.977-3.26-11.312-16.47-7.481-29.17-24.623 1.7 53.79-50.78 31.616-85.77 34.917l-4.23 18.873c-.44-23.164-10.37-38.368-34.14-41.934 10.94 15.53 12.12 38.251-11.77 44.548-41.16 10.848-60 41.646-54.57 63.048 30.5-20.753 43.02-2.249 35.11 15.221-3.3-6.694-8.67-10.382-18.12-8.123-69.23 61.7-61.58 139.546 0 228.715 7.84 11.361 18.12 21.868 10.05 39.254-11.86 33.552 4.86 43.652 20.07 54.986-9.89-39.062 1.76-54.203 24.01-58.023-28.1 20.366-8.9 51.629-20.81 95.331 16.74-.138 22.77-10.113 22.77-28.805 0-15.975 16.22-32.794 31.63-20.975 28.63 21.946-4.23 33.118-4.23 33.118 25.75 25.913 34.89 51.513 29.62 87.221-3.23 21.83-14.91 38.823-47.09 44.064-18.57-10.68-22.56-24.371-20.79-39.252-14.87 5.278-18.96 14.571-7.65 29.609 5.16 6.865 0 11.892-14.79 11.892-32.31 0-56.75-34.536-77.96-58.946-42.48-62.226-63.27-127.897-83.79-185.647-16.83-47.394-56.92-77.461-53.95-113.493-25.18-4.131-41.43-16.179-38.47-45.293-9.03-1.552-16.62-.495-20.92 6.544 3.83 6.514 1.6 12.64-12.14 18.031-25.13 9.858-46.62-8.398-46.23-51.17 12.38-22.167 14.48-43.582 14.4-64.837 2.17 20.546 6.7 40.557-7.6 64.837-1.75 34.237 14.8 51.17 36.06 44.768 15.51-8.223 3.37-12.583 12.37-22.395 9.45-10.296 18.47-6.291 27.49-2.258-.27 26.145 12.56 42.101 30.97 42.949 26.22 1.207 59.85-8.602 41.19-38.586-7.8-12.52-25.12-8.167-16.42 8.661-1.46 9.329-7.75 8.493-16.07 3.406-7.34-18.995 3.36-28.428 24.69-32.218-32.03-15.787-54.14-35.006-45.21-64.965 4.9 30.502 26.29 44.818 49.94 56.915 33.87-34.566-59.93-60.016-61.35-112.736-.49-1.658-.52-2.865.04-3.462-.06 1.168-.07 2.323-.04 3.462 3.73 12.66 34.3 51.616 37.32 45.985 3.34-6.231-7.2-49.508 0-49.447.54 36.368 22.75 62.952 54.7 85.135 42.78-30.051-60.09-67.038-39.94-155.81 2.48 34.876 10.71 69.564 47.81 103.311 3.7-16.121 18.91-14.679-33.94-87.25-1.62-1.976-3.16-4.06-4.6-6.268 1.59 2.147 3.12 4.234 4.6 6.268 24.11 29.485 65.32 35.647 52.44 83.424 76.4-26.196-4.08-80.234 8.22-101.64 4.74 9.531 10.43 16.479 16.52 22.347 25.49-.318 31.89-8.337 19.19-24.056 16.87 7.002 21.27 16.156-3.79 30.401.7 19.037 7.86 28.686 26.3 21.964 1.77-12.691 6.99-21.136 18.39-21.964 26.59-20.899 25.51-40.529 0-59.04 27.81-6.466 53.73-14.45 47.11-48.673-23.52 31.83-56.62-9.459-20.07-38.863 23.34-28.833 31.11-57.312-7.28-84.739-38.51-5.929-39.3-22.743-49.59-36.816 25.94 31.933 53.5 40.401 84.4 0-34.81 3.488-52.79-15.642-11.55-28.229l-26.03-14.615c-22.03 12.122-42.33 7.811-61.68-5.66 33.5 9.008 60.23 5.991 69.52-28.06-16.26 5.402-32.34 6.42-47.9-5.647 8.85-15.478 10.38-31.088 4.68-46.826-6.23 13.962-15.07 25.029-29.77 29.596.42-18.493-8.13-31.581-28.45-37.572 3.14 12.076-2.47 19.687-22.92 19.732 2.21-13.501-3.11-22.557-19.41-25.114 4.57 9.717-.08 15.591-14.4 17.437-27.62.21-56.01-3.43-79.21 18.859 14.3-3.969 28.71-2.111 43.26 6.658 19.31-3.178 23.16 6.33 25.73 16.892-6.87-7.036-13.6-12.645-19.32-8.268-23.02-12.082-38.66-14.369-51.72-13.229-2.01 2.093-3.98 4.395-5.9 6.924-27.54 22.11-60.01 37.537-97.12 46.684-12.36 4.678-20.76 16.787-26.91 33.113 1.98 3.743 5.15 6.501 10.18 7.711 12.95-8.346 23.24-5.417 32.94 0-10.17-1.681-19.44-.504-25.91 9.614-2.54 24.083 18.35 39.121 27.92 31.688 14.25-11.06 29.73-10.487 51.95 2.048 10.2 1.501 15.67-.291 18.77-3.749 6.73 1.433 8.53 5.781 8.18 11.4l9.54-4.571c10.29-.969 14.61 15.686 17.09 37.773 11.79 21.352 13.83 39.601 10.9 56.267-2.53-13.19-3.64-27.433-15.43-33.74-15.12 3.399-31.19 8.282-33.47-8.546-7.7 1.023-11.98 6.509-15.58 12.878-21.68-9.071-43.72-15.146-66.78-12.878 6.15 13.279 10 26.21 5.26 37.841 15.29-3.411 22.09-17.493 22.09-17.493s7.6 17.493-14.53 29.967c25.68-4.562 48.41-12.542 62.96-29.967l3.14 21.938c32.68-3.506 50.76 11.92 35.06 26.357l6.76 6.39c9.41 21.419 29.66 17.344 29.66-7.787 19.27 17.406 21.83 5.563 16.43-20.219 23.54 12.915 35.17 4.753 37.73-19.456 22.37 3.928 26.3-19.393 2.95-32.101-.76-9.236-4.65-16.982-12.81-22.706-5.11 11.183-13.37 17.95-23.06 22.706 9.22-7.508 15.61-17.524 18.78-30.394-1.66-12.611-6.33-23.599-14.29-32.804-27.03 7.766-41.83-4.575-49.34-28.88l-12.45 19.813c25.15 14.699 30.79 27.867 12.45 39.153 16.93-22.106-14.07-27.835-21.95-44.081-23.38 6.653-43.84 6.316-55.61-14.885 17.15 9.354 34.2 17.817 48.56 2.808 7.05-7.37 2.57-26.962-18.87-34.048l5.59-22.342c6.61-2.685 9.72-7.571 8.45-15.21 36.67-3.099 56.03 3.9 63.12 18.051-4.87 9.308-17.41 10.886-30.82 14.551 9.71 16.563 24.31 10.842 38.1 8.776-9.41 6.569-25.85 10.403-49.02 0-8.02 8.957-5.84 19.334 0 30.222 5.06-8.009 12.88-11.142 23.17-9.912-7.41 34.919 38.62 46.785 44.11 15.793-.19 13.42 2.91 25.143 17.4 30.992 8.73-4.711 14.15-10.175 11.39-17.497-2.9-7.705-12.99-5.799-17.68-2.371 12.56-20.095 32.31 5.663 22.67 14.627-11.25 10.465-24.98 19.206-16.38 29.848 15.96 16.933 40.77-5.322 26.02-27.428 23.67 16.518 21.02 33.058 14.75 49.601 8.82 1.955 17.73.655 26.72-3.294-2.88 15.342-2.17 30.213 2.08 44.619 4.44-11.392 11.62-18.137 19.91-23-2.76 15.438-3.84 30.776 2.23 45.684l16.28-8.721c-13.31 18.87-12.43 39.479-6.69 60.685-7.15-16.934-16.13-33.87-1.87-51.964-3.79 4.4-5.89 6.123-9.95 6.57-6.93-10.786-9.02-23.909-5.06-39.954-8.77 4.453-11.98 14.388-14.85 24.663-5.46-15.6-10.49-31.341-7.49-49.671-8.58 3.439-17.26 2.675-25.99 0v-27.79c-4.64 9.374-13 13.721-24.7 13.574 24.31 28.96 40.45 58.146-11.39 89.205-5.8 17.129-15.55 31.293-32.19 40.291-19.87 14.445-32.78.624-43.96-20.198-4.85-9.095-10.48-14.224-16.69-16.415zm-1678.02 0c3.44 1.924 7.57 3.778 12.45 5.51 34.2 12.131 77.71 6.802 119.71 4.315 28.27-1.674 46.96-7.089 48.87-29.755 24.74 6.693 35.56 21.323 30.76 44.868-24.34 2.756-45.7 7.644-62.34 16.565-45.18 24.224-95.49 29.247-143.2 24.363 41.68 65.458 98.84 73.188 157.81 74.178-62.22-8.084-123.33-17.092-134.22-68.103 39.51 2.543 79.3-2.522 119.61-21.733 14.36-8.145 35.48-14.889 61.23-20.667-.12.43-.24.863-.37 1.298 24.53.527 48.72-2.511 71.84-17.275 6.95 10.777 5.14 18.982-6.14 29.635-27.78 26.241-67.77 22.667-87.38 45.481 19.08.326 32.37 7.906 41.1 21.21 32.77-13.001 52.03-34.15 67.57-57.54 11.87-16.039 24.37-32.045 60.65-46.84 23.56-20.072 50.32-36.213 108.82-13.452 17.93-.375 38.92 0 48.35 13.452 4.44 6.33 7.54 15.98 8.54 30.851-20.67 1.995-41.66 5.196-59.86-2.381-3.47-18.233-15.2-28.107-36.34-28.47 4.08 12.407 13.79 21.943 29.41 28.47 8.88 14.873 16.25 31.089 15.29 54.7-5.9-8.35-13.34-13.703-22.75-15.207-18.36-6.413-33.73-20.313-48.92-34.647 10.26 16.873 22.37 31.8 42.85 37.906 7.5 10.747 5.97 25.165 0 41.386-16.39 1.297-32.99 3.554-47.14-5.204-1.5-15.973-8.75-25.598-17.09-34.027 4.33 15.371 4.97 31.421 0 48.501-2.31 15.544 3.65 31.696 14.23 48.188-18.28-4.994-32.03-15.116-35.39-36.992-13.7 25.448-18.77 47.854 9.42 58.526-14.48-.499-23.12 4.157-23.76 15.865 1.85 19.76-7.85 31.85-20.42 42.041-8.86 15.26 5.67 17.11 28.04 14.467-10.02 22.051-28.04 37.434-53.93 33.139-21.29-3.533-21.29 23.149 0 21.323 34.87-2.99 42.38 9.644 38.33 28.882-11.49-8.845-21.53-9.08-27.64 13.877v37.579c-.55 29.382 22.57 27.354 53.77 14.616l-3.81 23.949c-12.14 4.141-19.02 11.479-14.34 25.838l44.57 13.108c6.7 0 21.1 15.287 12.31 30.82l-21.38 20.191c-20.32 6.282-38.75 3.506-55.92-5.244 11.5 12.572 28.28 19.015 48.38 21.615 11.6 10.04 16.01 24.613 7.54 47.316-13.07 3.431-25.19.658-35.5-13.907-16.28 22.537-8.83 38.203 14.34 49.316-39.14-13.019-67.66-10.543-79.53-49.316 50.23-69.971-16.33-57.248-28.32-74.272-5.04-7.149-9.64-13.525-13.91-19.143 13.39 3.959 29.87 6.133 51.1 1.121l-16.31-19.322v11.909c-13.52.189-24.25-7.127-33.35-18.872-29.13-25.308-43.23-20.634-52.01-5.366-3.25 1.178-6.64 2.93-10.26 5.245-48.55 47.577-103.87 78.495-162.91 100.213-6.86 9.786-9.85 20.013-8.63 28.709-4.96 3.544-3.82 11.047-3.14 18.242-54.59-56.597 147.45-142.363 163.29-204.766-23.36 72.274-225.64 131.854-196.59 220.271-19.05-35.62-15.78-68.091 89.58-156.156 8.38-6.448 16.41-12.885 23.69-19.361-8.42 6.739-16.31 13.185-23.69 19.361-51.21 39.384-115.73 79.209-104.79 131.173 13.01 61.803 40.14 121.343 46.96 183.759-8.82 45.886-31.94 88.281-63.47 128.622-24.77 36.324 39.26 55.944 32.21 20.074 22.48 4.43 39.18 19.03 17.96 48.89-21.99 14.84-42.73 18.2-66.42 11.31-55.34-16.1-28.49-91.219-59.04-97.7 26.87 13.571 0 84.4 59.04 102.25 21.44 8.64 43.61 6.68 66.42-4.55 10.92 6.73 17.92 17.64 20.52 33.23 3.31 19.85-25.92 44.84-54.18 25.64 54.18-11.36 5.68-52.1-13.62-31.3-15.9 17.14-35.4 32.27-51.31 34.23-46.17 5.67-59.52-8.66-54.39-34.23 3.79 20.07 43.15 25.49 27.52-13.11 1.62-8.94 1.42-16.81-2.96-22.22 18.34-32.95 18.43-55.34-8.47-65.749 22.77 13.539 24.28 32.559 3.1 57.409-2.5-12.48-9.13-19.67-19.19-22.48-10.19 53.2-52.73 73.19-80.67 68.82-21.55-3.37-37.46-.04-38.69 20.76 5.28 25.77-2.12 40.74-18.28 48.24-20.99-40.37-62.7 15.96-3.74 29.49-.75 14.21 7.9 25.88 22.02 36.08 41.38-5.49 91.33-31.59 106.25 26.57l16.9 14.95h-21.62c-12.69-23.54-34-31.56-58.18-34.44 21.18 6.39 40.51 16.75 53.51 40.66-16.8 5.95-33.48 5.59-50.08 0-3.38-33.97-28.58-34.24-55.15-32.39 26.35 4.22 46.66 13.53 47.06 39.55l-38.69-3.92c-12.74-9.46-19.62-26.41-31.6-31.48 6.07 6.18 8.49 13.35 5.35 22.02l-118.06-31.33c5.23-10.76 13.92-16.02 24.83-17.78 2.47-.01 4.95-.23 7.46-.67-2.59.07-5.08.29-7.46.67-14.07.04-27.55-6.9-40.47-20.37 27.49-16.39 27.28-32.62 0-48.7 24.8 5.99 34.95-.62 35.24-15.69-39.97-10.78-32.23-31.63-27.42-51.87 14.68 49.16 65.94 27.04 48.15 0 30.08 1.45 51.42-13.97 64.71-44.92-21.48 32.67-49.57 45.81-93.8 28.88 25.13-.95 40.34-20.21 44.25-60.32 18.77-19.038 37.86-27.819 57.22-28.359-49.38-21.453-8.42-77.445-67.74-82.025 20.09-11.216 39.35-17.18 55.68-4.954 17.41 50.882 55.78 73.408 75.01 35.057-13.79 15.484-29.88 18.047-49.63 0-2.95-15.538 2.55-28.963 13.74-40.967 9.08 21.962 23.03 22.91 39.99 10.864-15.39-2.519-25.04-9.642-19.21-29.167 27.11 18.303 49.22-11.194 30.54-36.984-166.71-21.941-177.72-108.226-104.99-229.116-9.64-24.05-30.22-35.074-53.81-42.514 28.99-7.746 55.71-10.904 75.44 0-18.84-44.16-90.52-81.601-40.51-117.527 18.26-13.12 37.82 5.767 25.46 22.553-5.68-4.789-11.24-4.157-16.63 4.396 9.35 27.169 26.32 39.832 52.68 34.674-10.63-10.376-14.97-21.452 0-34.674 20.96-18.51 47.69-24.302 43.73-49.34 18.63 28.63-13.35 53.929-4.25 80.857 37.32-37.085 53.32-84.156 47.1-141.632-11.97-36.006-30.21-40.016-65.62-23.838-17.62 8.05 1.96 40.268 1.96 40.268-26.27 5.052-52.75-16.489-49.16-46.506 1.05-3.474 1.89-7.108 2.55-10.885-1.3 3.726-2.13 7.364-2.55 10.885-5.71 18.82-17.56 32.932-39.16 39.567 11.43-12.696 15.84-27.626 8.37-46.342-8.37 67.906-106.49 49.875-84.74-30.425-7.95 51.488 64.48 51.488 45.33-5.329 21.31-5.978 42.52-6.815 63.59 0-16.66-15.649-46.58-16.037-80.05-12.347-28.35-18.048-32.32-34.963 0-50.189-8.33 14.452 0 31.307 16.46 31.307 25.56-.353 48.79-.722 68.36 8.058-6.65-13.136-22.15-20.336-55.68-15.45-.14-26.873-41.85-34.978-41.85-57.977 3.26-11.312 16.48-7.481 29.17-24.623-1.7 53.79 50.78 31.616 85.77 34.917l4.23 18.873c.45-23.164 10.37-38.368 34.14-41.934-10.93 15.53-12.12 38.251 11.78 44.548 41.15 10.848 59.99 41.646 54.56 63.048-30.49-20.753-43.01-2.249-35.11 15.221 3.3-6.694 8.67-10.382 18.13-8.123 69.23 61.7 61.57 139.546 0 228.715-7.85 11.361-18.13 21.868-10.06 39.254 11.86 33.552-4.86 43.652-20.07 54.986 9.9-39.062-1.76-54.203-24.01-58.023 28.11 20.366 8.9 51.629 20.81 95.331-16.74-.138-22.77-10.113-22.77-28.805 0-15.975-16.21-32.794-31.63-20.975-28.62 21.946 4.23 33.118 4.23 33.118-25.75 25.913-34.89 51.513-29.61 87.221 3.23 21.83 14.9 38.823 47.09 44.064 18.57-10.68 22.56-24.371 20.78-39.252 14.87 5.278 18.97 14.571 7.66 29.609-5.17 6.865 0 11.892 14.79 11.892 32.31 0 56.74-34.536 77.95-58.946 42.49-62.226 63.28-127.897 83.79-185.647 16.84-47.394 56.92-77.461 53.95-113.493 25.18-4.131 41.44-16.179 38.48-45.293 9.02-1.552 16.61-.495 20.91 6.544-3.83 6.514-1.6 12.64 12.15 18.031 25.12 9.858 46.61-8.398 46.23-51.17-12.38-22.167-14.49-43.582-14.41-64.837-2.17 20.546-6.7 40.557 7.6 64.837 1.76 34.237-14.79 51.17-36.06 44.768-15.51-8.223-3.36-12.583-12.37-22.395-9.44-10.296-18.46-6.291-27.49-2.258.28 26.145-12.56 42.101-30.97 42.949-26.21 1.207-59.84-8.602-41.18-38.586 7.79-12.52 25.11-8.167 16.42 8.661 1.45 9.329 7.75 8.493 16.06 3.406 7.34-18.995-3.35-28.428-24.69-32.218 32.03-15.787 54.15-35.006 45.21-64.965-4.9 30.502-26.29 44.818-49.94 56.915-33.87-34.566 59.93-60.016 61.36-112.736.48-1.658.51-2.865-.04-3.462.05 1.168.07 2.323.04 3.462-3.73 12.66-34.31 51.616-37.33 45.985-3.34-6.231 7.21-49.508 0-49.447-.54 36.368-22.75 62.952-54.7 85.135-42.78-30.051 60.09-67.038 39.95-155.81-2.49 34.876-10.72 69.564-47.82 103.311-3.69-16.121-18.91-14.679 33.94-87.25 1.62-1.976 3.16-4.06 4.6-6.268-1.58 2.147-3.11 4.234-4.6 6.268-24.1 29.485-65.32 35.647-52.44 83.424-76.39-26.196 4.08-80.234-8.22-101.64-4.74 9.531-10.43 16.479-16.52 22.347-25.49-.318-31.88-8.337-19.19-24.056-16.86 7.002-21.27 16.156 3.79 30.401-.7 19.037-7.86 28.686-26.29 21.964-1.77-12.691-6.99-21.136-18.4-21.964-26.58-20.899-25.5-40.529 0-59.04-27.8-6.466-53.72-14.45-47.11-48.673 23.52 31.83 56.62-9.459 20.07-38.863-23.34-28.833-31.1-57.312 7.29-84.739 38.5-5.929 39.3-22.743 49.59-36.816-25.95 31.933-53.5 40.401-84.4 0 34.81 3.488 52.79-15.642 11.55-28.229l26.03-14.615c22.02 12.122 42.32 7.811 61.67-5.66-33.49 9.008-60.23 5.991-69.52-28.06 16.26 5.402 32.35 6.42 47.9-5.647-8.84-15.478-10.37-31.088-4.67-46.826 6.22 13.962 15.06 25.029 29.76 29.596-.41-18.493 8.13-31.581 28.45-37.572-3.14 12.076 2.47 19.687 22.92 19.732-2.2-13.501 3.11-22.557 19.41-25.114-4.57 9.717.09 15.591 14.4 17.437 27.62.21 56.01-3.43 79.21 18.859-14.29-3.969-28.71-2.111-43.25 6.658-19.31-3.178-23.17 6.33-25.73 16.892 6.87-7.036 13.59-12.645 19.31-8.268 23.02-12.082 38.66-14.369 51.72-13.229 2.01 2.093 3.98 4.395 5.9 6.924 27.54 22.11 60.01 37.537 97.12 46.684 12.37 4.678 20.77 16.787 26.91 33.113-1.98 3.743-5.15 6.501-10.18 7.711-12.95-8.346-23.24-5.417-32.94 0 10.17-1.681 19.45-.504 25.92 9.614 2.53 24.083-18.35 39.121-27.93 31.688-14.25-11.06-29.72-10.487-51.94 2.048-10.2 1.501-15.68-.291-18.77-3.749-6.73 1.433-8.54 5.781-8.19 11.4l-9.54-4.571c-10.29-.969-14.61 15.686-17.08 37.773-11.8 21.352-13.84 39.601-10.91 56.267 2.53-13.19 3.64-27.433 15.43-33.74 15.13 3.399 31.19 8.282 33.47-8.546 7.7 1.023 11.98 6.509 15.59 12.878 21.67-9.071 43.71-15.146 66.77-12.878-6.15 13.279-10 26.21-5.25 37.841-15.29-3.411-22.1-17.493-22.1-17.493s-7.6 17.493 14.53 29.967c-25.68-4.562-48.4-12.542-62.96-29.967l-3.14 21.938c-32.68-3.506-50.75 11.92-35.06 26.357l-6.76 6.39c-9.4 21.419-29.65 17.344-29.65-7.787-19.27 17.406-21.84 5.563-16.44-20.219-23.54 12.915-35.16 4.753-37.73-19.456-22.37 3.928-26.3-19.393-2.95-32.101.76-9.236 4.66-16.982 12.81-22.706 5.11 11.183 13.37 17.95 23.07 22.706-9.23-7.508-15.62-17.524-18.79-30.394 1.67-12.611 6.33-23.599 14.29-32.804 27.03 7.766 41.83-4.575 49.35-28.88l12.45 19.813c-25.16 14.699-30.79 27.867-12.45 39.153-16.93-22.106 14.06-27.835 21.95-44.081 23.37 6.653 43.84 6.316 55.61-14.885-17.16 9.354-34.21 17.817-48.57 2.808-7.04-7.37-2.56-26.962 18.87-34.048l-5.59-22.342c-6.61-2.685-9.71-7.571-8.45-15.21-36.67-3.099-56.03 3.9-63.11 18.051 4.87 9.308 17.41 10.886 30.82 14.551-9.72 16.563-24.31 10.842-38.11 8.776 9.42 6.569 25.86 10.403 49.03 0 8.02 8.957 5.84 19.334 0 30.222-5.07-8.009-12.89-11.142-23.17-9.912 7.41 34.919-38.63 46.785-44.12 15.793.19 13.42-2.91 25.143-17.4 30.992-8.73-4.711-14.14-10.175-11.39-17.497 2.9-7.705 13-5.799 17.69-2.371-12.57-20.095-32.31 5.663-22.68 14.627 11.25 10.465 24.98 19.206 16.38 29.848-15.96 16.933-40.77-5.322-26.01-27.428-23.68 16.518-21.03 33.058-14.76 49.601-8.82 1.955-17.73.655-26.72-3.294 2.88 15.342 2.18 30.213-2.07 44.619-4.45-11.392-11.63-18.137-19.91-23 2.75 15.438 3.84 30.776-2.23 45.684l-16.29-8.721c13.31 18.87 12.44 39.479 6.69 60.685 7.15-16.934 16.14-33.87 1.88-51.964 3.78 4.4 5.88 6.123 9.95 6.57 6.93-10.786 9.02-23.909 5.06-39.954 8.76 4.453 11.98 14.388 14.85 24.663 5.46-15.6 10.49-31.341 7.48-49.671 8.59 3.439 17.27 2.675 26 0v-27.79c4.63 9.374 13 13.721 24.69 13.574-24.31 28.96-40.44 58.146 11.39 89.205 5.8 17.129 15.56 31.293 32.19 40.291 19.88 14.445 32.79.624 43.96-20.198 4.85-9.095 10.48-14.224 16.69-16.415zm2063.88 1074.686c10.45 24.01 6.25 47.04-10.53 69.23l-3.3-6.27c13.12-18.82 17.47-39.87 13.83-62.96zm-2449.73 0c-10.46 24.01-6.26 47.04 10.52 69.23l3.31-6.27c-13.13-18.82-17.48-39.87-13.83-62.96zm1222.19-13.56c4.07-73.99 349.67-20.24 407.06-315.004 10-139.619-21.41-277.436-35.14-422.568-3.74-39.57 7.32-81.183 20.6-130.205 7.81-28.856 15.38-43.141 14.54-64.842l34.94-6.004 2.33 29.078c-6.69 10.995-10.1 23.233-10.99 36.43h8.66v280.675c-12.1 20.325-25.35 36.983-41.67 43.928 10.49 6.729 21.33 11.607 33.01 12.242l13.17 15.897c-5.75 15.369-7.34 30.688-4.51 45.956-2.15 8.078-7.65 14.06-16.41 17.996 9.41 4.489 19.07 8.243 30.1 7.808 10.79 37.673 17.32 76.62 14.24 118.451l-14.24 29.522h14.24c-14.24 133.854-87.47 226.2-224.63 269.64-131.88 41.76-242.01 53.95-245.26 90.18v1.66c0-.4-.02-.79-.04-1.18-.03.39-.04.78-.04 1.18v-1.66c-3.25-36.23-113.38-48.42-245.26-90.18-137.16-43.44-210.4-135.786-224.63-269.64h14.23l-14.23-29.522c-3.08-41.831 3.45-80.778 14.23-118.451 11.04.435 20.69-3.319 30.1-7.808-8.76-3.936-14.25-9.918-16.41-17.996 2.84-15.268 1.25-30.587-4.5-45.956l13.16-15.897c11.68-.635 22.53-5.513 33.02-12.242-16.32-6.945-29.58-23.603-41.68-43.928v-280.675h8.66c-.88-13.197-4.3-25.435-10.99-36.43l2.33-29.078 34.94 6.004c-.83 21.701 6.74 35.986 14.55 64.842 13.28 49.022 24.33 90.635 20.59 130.205-13.72 145.132-45.14 282.949-35.14 422.568 57.39 294.764 402.99 241.014 407.07 315.004zm725.15-442.314c-56.79 2.982-118.94 12.503-133.56 54.624-25.55 1.487-47.75 9.274-60.39 35.061-10.3-7.102-12.5-17.034-5.48-30.186-.01-7.287-2.96-9.362-7.23-9.068-25.43 5.349-23.83 24.324-16.26 46.306l20.65-3.422c-18.25 8.035-32.82 18.941-39.15 36.293 14.79 4.586 30.93 3.183 47.47 0-3.67 24.938-20.97 41.108-47.47 68.788-10.12 19.827-7.13 47.104 14.35 60.556 17.37 10.88 33.12-6.677 27.64-19.589-27.64 12.912-27.64-30.103-2.84-30.103 8.46 4.962 15.78 4.076 21.5-4.954 4.14-18.808 10.56-36.8 26.32-51.443 25.02-23.255 33.86-5.51 14.63 7.736-11.72 8.081-21.41 20.488-28.78 37.797-16.22 38.075 16.4 72.727 48.01 100.386 23.84 20.862 34.92 37.662 11.77 65.322-40.31 41.55-97.32 49.09-162.83 31.9-39.72-2.99-50.59 17.77-55.15 43.73 5.8-3.65 12.72-4.42 21.67 0-8.64-9.29-7.02-17.17 0-24.31.49 24.85 16.06 30.21 36.15 29.74 1.7-33.54 31.48-32.3 62.32-29.74-27.31.64-49.7 7.05-55.92 32.45 16.07-2.26 30.17 3.77 43.48 13.08 8.36 3.19 14.81 2.99 19.67 0-3.5-17.8 2.72-28.01 18.66-30.64-14.94 11.11-14.83 23.16 0 36.14 9.61-12.83 37.29 1.85 62.78 13.19-11.47-38.63 9.87-40.28 47.33-23.77 3.99-34.81 20.59-21.28 41.22 7.69 5.04-12.23 9.7-24.47 4.13-37.15 14.08-4.9 25.5.5 35.66 10.8 5.6-7.9 4.91-15.26-5.34-21.79 13.35-4.77 23.63-1.6 32.69 4.71.49-11.74-25.29-21.47-22.09-36.53 44.84-28.26 46.37-49.26-18.35-77.219 15.18 2.255 30.47 4.889 48.04 15.809-1.81-17.544 5.57-21.641 16.68-20.289 7.42-17.048 19.04-19.512 33.92-10.62-2.92-15.688-12.89-26.238-43.9-21.453-36.45 45.332-71.48 40.432-105.02-17.557 33.56 40.112 66.68 60.049 98.32 13.595-1.89-12.61-6.17-23.816-14.4-32.684-40.67 25.766-46.53-10.45 0-42.066-5.64-5.064-14.22-7.119-25.89-6.02 13.26-2.387 22.78-7.811 28.66-16.201-14.18-8.649-19.68-16.46-18.92-23.668-15.45 19.52-35.23 61.715-69.37 61.715 47.27-18.035 56.63-117.283 167.64-117.283l13.79-45.449h-10.95c-115.27 0-166.18 159.919-225.62 154.182 65.05-6.822 58.16-112.859 210.99-170.599 8.54-6.104.65-15.12-7.9-16.7-52.93-18.86-147.95 103.919-212.7 90.783 64.75 5.914 114.23-78.681 175.52-94.138-69.32-2.523-124.04 19.796-163.09 68.786 20.67-33.302 48.05-63.491 121.39-72.315-4.74-1.745-9.56-3.132-14.45-4.213zm-1444.95 0c56.78 2.982 118.94 12.503 133.56 54.624 25.54 1.487 47.74 9.274 60.39 35.061 10.3-7.102 12.49-17.034 5.47-30.186.02-7.287 2.96-9.362 7.23-9.068 25.43 5.349 23.83 24.324 16.27 46.306l-20.65-3.422c18.25 8.035 32.82 18.941 39.14 36.293-14.78 4.586-30.92 3.183-47.46 0 3.66 24.938 20.97 41.108 47.46 68.788 10.13 19.827 7.13 47.104-14.34 60.556-17.37 10.88-33.12-6.677-27.65-19.589 27.65 12.912 27.65-30.103 2.85-30.103-8.46 4.962-15.78 4.076-21.51-4.954-4.14-18.808-10.56-36.8-26.32-51.443-25.02-23.255-33.85-5.51-14.63 7.736 11.72 8.081 21.41 20.488 28.79 37.797 16.22 38.075-16.41 72.727-48.01 100.386-23.84 20.862-34.93 37.662-11.77 65.322 40.31 41.55 97.31 49.09 162.82 31.9 39.72-2.99 50.6 17.77 55.16 43.73-5.8-3.65-12.73-4.42-21.68 0 8.64-9.29 7.02-17.17 0-24.31-.49 24.85-16.06 30.21-36.15 29.74-1.7-33.54-31.48-32.3-62.32-29.74 27.31.64 49.7 7.05 55.92 32.45-16.07-2.26-30.16 3.77-43.48 13.08-8.36 3.19-14.81 2.99-19.67 0 3.5-17.8-2.72-28.01-18.66-30.64 14.95 11.11 14.83 23.16 0 36.14-9.61-12.83-37.29 1.85-62.78 13.19 11.48-38.63-9.87-40.28-47.32-23.77-4-34.81-20.6-21.28-41.22 7.69-5.05-12.23-9.71-24.47-4.14-37.15-14.07-4.9-25.5.5-35.66 10.8-5.6-7.9-4.9-15.26 5.34-21.79-13.35-4.77-23.62-1.6-32.69 4.71-.49-11.74 25.3-21.47 22.1-36.53-44.84-28.26-46.37-49.26 18.35-77.219-15.18 2.255-30.47 4.889-48.05 15.809 1.81-17.544-5.57-21.641-16.67-20.289-7.43-17.048-19.05-19.512-33.92-10.62 2.91-15.688 12.88-26.238 43.89-21.453 36.45 45.332 71.49 40.432 105.03-17.557-33.57 40.112-66.68 60.049-98.33 13.595 1.9-12.61 6.17-23.816 14.41-32.684 40.66 25.766 46.52-10.45 0-42.066 5.63-5.064 14.21-7.119 25.88-6.02-13.26-2.387-22.78-7.811-28.65-16.201 14.17-8.649 19.67-16.46 18.92-23.668 15.44 19.52 35.22 61.715 69.37 61.715-47.27-18.035-56.63-117.283-167.64-117.283l-13.79-45.449h10.95c115.26 0 166.18 159.919 225.61 154.182-65.04-6.822-58.16-112.859-210.99-170.599-8.54-6.104-.65-15.12 7.9-16.7 52.94-18.86 147.96 103.919 212.71 90.783-64.75 5.914-114.23-78.681-175.53-94.138 69.33-2.523 124.05 19.796 163.1 68.786-20.68-33.302-48.05-63.491-121.4-72.315 4.74-1.745 9.56-3.132 14.46-4.213zm0 343.014c21.58 17.94 50.73 27.69 81.92 37.25-15.33-18.82-28.67-34.62-16.72-55.63 10.99-19.309 41.79-41.878 40.66-70.923-5.6 29.785-33.78 46.952-47.44 66.173-14.93 21-10.75 37.25 6.78 50.18-23.54-3.48-44.78-14.03-65.2-27.05zm1444.95 0c-21.58 17.94-50.74 27.69-81.93 37.25 15.33-18.82 28.68-34.62 16.73-55.63-10.99-19.309-41.8-41.878-40.67-70.923 5.61 29.785 33.79 46.952 47.45 66.173 14.92 21 10.75 37.25-6.78 50.18 23.53-3.48 44.77-14.03 65.2-27.05zm-686.53-467.983c15 160.515-150.05 210.604-202.95 302.992-22.87 39.935-27.63 75.534 52.9 90.714 25.57 4.819 33.03 13.379 17.7 21.203-18.79 9.593-16.51 18.465 7.87 26.584 16.81 4.29 33.05 5.79 47.81 0 19.31-7.575 25.99-11.772 11.06-26.584-12.41-12.304-11.89-22.377 8.25-29.065 25.19-11.14 43.6-9.832 57.36 0l-18.42 15.888c139.83 13.117 270.51 10.184 233.8-286.551 45.89 49.151 47.73 113.274 34.89 179.754 47.96-88.53 67.95-174.248-21.81-294.935-58.6-78.784-111.13-159.667-83.91-268.09-41.45 43.395-42.58 109.466-21.35 188.108 31.82 122.843 26.15 215.662-34.76 264.249 4.8-98.168-22.96-161.437-88.44-184.267zm-1092.44 409.164c-11.89 8.508-25.43 12.392-40.88 10.945l2.46 5.558c14.29.225 27.17-4.972 38.42-16.503zm2112.99 0c11.89 8.508 25.43 12.392 40.87 10.945l-2.46 5.558c-14.28.225-27.16-4.972-38.41-16.503zm10.32-42.308c-8.27.755-11.98 3.784-12.12 8.603s3.3 11.428 9.35 19.342c-16.67-17.359-25.11-30.96 2.77-27.945zm-2133.63 0c8.26.755 11.98 3.784 12.12 8.603.13 4.819-3.31 11.428-9.35 19.342 16.66-17.359 25.11-30.96-2.77-27.945zm157.02-247.322c-16.09 37.636-25.4 102.917-15.3 116.162 42.41 55.63 13.9 100.485-27.6 150.961 38.36-37.008 79.16-80.952 49.35-146.477-16.68-36.639-13.66-78.125-6.45-120.646zm1819.58 0c16.1 37.636 25.4 102.917 15.3 116.162-42.41 55.63-13.89 100.485 27.6 150.961-38.36-37.008-79.16-80.952-49.34-146.477 16.67-36.639 13.66-78.125 6.44-120.646zm-785.4 133.069c-16.91 70.953 5.5 93.074 32.13 79.578s57.48-62.609 57.48-134.126c-22.94 96.88-66.17 129.494-89.61 54.548zm-309.27-494.38c0 152.104-225.57 390.708-36.48 536.712 128.44-97.369 256.11-194.94 225.9-334.361 43.7 11.144 85 36.161 124.91 69.306 20.43-95.459-21.38-233.335-71.36-250.705-116.69-40.554-108.9-100.097-100.27-169.913-110.73 128.348 101.72 262.785-71.92 390.738 12.91-30.95 15.58-61.06 0-89.673-4.38 21.34-18.76 39.217-52.9 50.247 21.23-70.272 10.07-137.182-17.88-202.351zm-354.59 150.448c-8.27 8.198-18.11 11.699-28.56 13.343 18.57 13.741 25.65 30.314 24.27 48.972-36.13-3.828-54.44-18.544-65.52-37.671 8.91 23.547 26.7 42.172 75.14 43.811-2.68-25.393-9.95-45.006-26.17-53.388 9.58-2.443 15.94-8.038 20.84-15.067zm1078.94 0c8.28 8.198 18.11 11.699 28.56 13.343-18.56 13.741-25.64 30.314-24.27 48.972 36.14-3.828 54.44-18.544 65.53-37.671-8.91 23.547-26.7 42.172-75.14 43.811 2.67-25.393 9.95-45.006 26.17-53.388-9.58-2.443-15.95-8.038-20.85-15.067zm-1191.28-90.966c11.11 16.176 22.19 31.2 36.28 44.115 14.08 12.916 31.19 23.724 47.5 34.203-36.56-14.561-67.36-36.822-83.78-78.318zm1303.63 0c-11.12 16.176-22.19 31.2-36.28 44.115-14.09 12.916-31.2 23.724-47.51 34.203 36.56-14.561 67.37-36.822 83.79-78.318zm93.83-12.459 2.01 6.939c-3.79 27.35-17.52 40.027-37.71 43.157-1.18 32.266-25.4 31.701-45.89 35.233 21.88-5.471 41.06-14.1 41.1-38.869 23.04-4.669 34.78-22.146 40.49-46.46zm-1491.3 0-2.01 6.939c3.8 27.35 17.53 40.027 37.71 43.157 1.18 32.266 25.4 31.701 45.9 35.233-21.89-5.471-41.06-14.1-41.1-38.869-23.04-4.669-34.78-22.146-40.5-46.46zm1328.31 50.096c-14.03-.008-27.52-4.557-40.95-9.6-3.16 14.345 2.16 29.014 7.71 43.692-3.14-14.254-7.85-29.62 0-36.107 12.36 6.116 23.11 5.362 33.24 2.015zm-1165.32 0c14.04-.008 27.53-4.557 40.95-9.6 3.16 14.345-2.16 29.014-7.7 43.692 3.13-14.254 7.85-29.62 0-36.107-12.37 6.116-23.11 5.362-33.25 2.015zm1272.23-22.716 3.47 8.58c-11.51 19.608-28.41 23.691-46.5 24.347 17.39-3.308 32.88-11.387 43.03-32.927zm-1379.13 0-3.47 8.58c11.5 19.608 28.4 23.691 46.5 24.347-17.4-3.308-32.89-11.387-43.03-32.927zm1379.13-55.173c-18.74 8.407-36.38 10.304-53.03 6.378 35.01-16.807 36.56-29.218 44.8-39.374-23.04 22.495-53.58 37.387-86.59 59.79-6.98-18.019-8.89-35.143 2.61-49.891 20.97 10.302 38.04-1.175 53.02-24.34-18.74 6.307-46.18-6.528-66.35 2.745-20.16 9.271-17.15 23.905-5.73 40.48-19.01 2.449-31.76-3.383-32.33-25.303-8.15 31.594 10.57 36.617 38.06 32.97-1.28 10.155-.09 19.317 4.62 27.059-6.72 13.422-4.7 26.936 0 40.478 2.32-78.494 81.6-44.198 100.92-70.992zm-1379.13 0c18.74 8.407 36.37 10.304 53.02 6.378-35.01-16.807-36.56-29.218-44.8-39.374 23.04 22.495 53.59 37.387 86.59 59.79 6.98-18.019 8.9-35.143-2.61-49.891-20.97 10.302-38.04-1.175-53.02-24.34 18.75 6.307 46.19-6.528 66.36 2.745 20.16 9.271 17.14 23.905 5.73 40.48 19.01 2.449 31.75-3.383 32.32-25.303 8.16 31.594-10.56 36.617-38.05 32.97 1.27 10.155.08 19.317-4.62 27.059 6.71 13.422 4.7 26.936 0 40.478-2.33-78.494-81.6-44.198-100.92-70.992zm-68.8-92.924c12.68 12.108 22.49 27.187 25.53 49.267-7.76 57.315 6.88 88.607 35.9 103.199 8.67-18.665 6.84-37.514 0-56.45 2.87 14.875 2.27 32.429-3.6 45.548-25.24-12.436-35.36-41.412-26.5-92.297-6.26-21.01-16.66-39.158-31.33-49.267zm1516.73 0c-12.68 12.108-22.49 27.187-25.54 49.267 7.77 57.315-6.87 88.607-35.89 103.199-8.68-18.665-6.84-37.514 0-56.45-2.88 14.875-2.28 32.429 3.59 45.548 25.25-12.436 35.36-41.412 26.51-92.297 6.25-21.01 16.66-39.158 31.33-49.267zm-1362.86-57.832c43.89 19.423 67.25 53.784 60.73 109.905 16.44-63.913-10.63-96.027-55.32-115.258zm1208.98 0c-43.88 19.423-67.25 53.784-60.73 109.905-16.44-63.913 10.63-96.027 55.33-115.258zm253.45-41.653h9.13c-17.5 56.271-86.06 82.503-189.24 88.369 92.97-9.573 162.76-33.138 180.11-88.369zm-1715.88 0h-9.13c17.5 56.271 86.07 82.503 189.25 88.369-92.97-9.573-162.77-33.138-180.12-88.369zm1509.76 84.92c-16.29-11.442-35.17-18.092-57.07-19.162 19.22-3.35 38.26.272 57.07 13.174zm-1303.63 0c16.29-11.442 35.17-18.092 57.06-19.162-19.22-3.35-38.26.272-57.06 13.174zm1154.8-6.842c-4.92-11.241-9.87-22.465-8.82-36.425 8.19-2 14.13-6.741 15.48-17.064l-6.66-16.572c9.22-12.572 15.71-12.185 19.72 0-.8 17.199-7.05 31.772-19.72 43.251-3.88 8.148-1.61 17.547 0 26.81zm-1005.98 0c4.92-11.241 9.88-22.465 8.82-36.425-8.19-2-14.13-6.741-15.48-17.064l6.66-16.572c-9.21-12.572-15.71-12.185-19.71 0 .8 17.199 7.04 31.772 19.71 43.251 3.88 8.148 1.61 17.547 0 26.81zm-700.62-33.171c2.08-19.492-2.99-37.855-19.88-54.354 9.3-18.387 22.78-22.358 36.73-24.712-36.73-22.332-88.61-7.816-73.53 24.712 4.73 10.215 3.47 20.324 0 30.395 12.01-2.54 18.69-9.774 19.1-22.543 17.7 18.99 11.55 44.974 37.58 46.502zm2407.22 0c-2.08-19.492 3-37.855 19.88-54.354-9.3-18.387-22.78-22.358-36.73-24.712 36.73-22.332 88.61-7.816 73.54 24.712-4.73 10.215-3.48 20.324 0 30.395-12.01-2.54-18.7-9.774-19.11-22.543-17.7 18.99-11.55 44.974-37.58 46.502zm-1493.27-93.818c196.53-41.303 391.53-38.138 585.32.305-1.69 17.357 3.53 28.699 12.39 36.877 5.08-19.438 22.71-27.71 56.63-21.51-12.75 22-13.89 42.102 0 59.744 6.4-9.207 13.11-15.075 20.08-17.903-3.47 9.554-2.61 19.234 0 28.965-250.28-79.078-508.44-79.164-774.79 2.97 5.93-10.859 7.74-23 6.65-36.048l17.23 22.016c13.77-17.89 16.75-36.902 3.45-57.611 40.19-7.364 49.22 4.357 56.14 17.373 5.79-9.051 7.86-19.336 2.82-31.966zm-626.39 18.708 7.09 5.772c-22.11 1.97-29.93 23.569-42.83 55.434 3.78-15.47 5.66-30.374 0-43.044l8.9 2.41c8.96-7.998 17.91-15.32 26.84-20.572zm1832.1 0-7.09 5.772c22.11 1.97 29.94 23.569 42.83 55.434-3.78-15.47-5.65-30.374 0-43.044l-8.9 2.41c-8.95-7.998-17.91-15.32-26.84-20.572zm-1881.31-41.491c-.78-2.49-1.67-4.89-2.67-7.193.77 2.624 1.65 5.033 2.67 7.193 3.56 11.429 4.74 24.806 3.85 39.872-.5 3.148-.75 6.393-.82 9.705.37-3.308.64-6.545.82-9.705 1.84-11.298 7.03-21.349 19.17-28.825-11.37 3.244-18.5-1.444-23.02-11.047zm1930.53 0c.77-2.49 1.66-4.89 2.67-7.193-.77 2.624-1.66 5.033-2.67 7.193-3.56 11.429-4.74 24.806-3.86 39.872.51 3.148.76 6.393.82 9.705-.36-3.308-.64-6.545-.82-9.705-1.83-11.298-7.03-21.349-19.17-28.825 11.37 3.244 18.51-1.444 23.03-11.047zm-667.62-5.369v-55.016h-66.28v42.879zm-733.45-55.016h124.11v55.016c-18.06-19.335-87.22-27.733-124.11-34.322zm138.67 55.016v-55.016h66.28v42.879zm733.45-55.016h-124.11v55.016c18.05-19.335 87.22-27.733 124.11-34.322zm-562.67 0v31.156l-82.8 7.044v-38.2zm253.21 0v31.156l82.81 7.044v-38.2zm-234.71-50.02 105.8-.551v72.473l-105.8 8.011zm218.72 0h-98.52v72.473l98.52 7.46zm772.36 5.94c8.88 6.963 10.98 19.128 8.61 34.726l3.66 27.05c-7.22-10.765-13.88-21.383-12.27-29.83 5.94-10.465 5.18-21.138 0-31.946zm-1766.45 0c-8.88 6.963-10.98 19.128-8.61 34.726l-3.66 27.05c7.21-10.765 13.87-21.383 12.27-29.83-5.95-10.465-5.19-21.138 0-31.946zm1884.97-27.99c-3.78 6.365-9.22 9.66-14.78 12.741 6.41-7.831 11.91-16.777 14.45-29.344l4.03 7.062c-.79 3.398-1.87 6.236-3.19 8.652 32.17 10.169 41.58 34.944 49.68 60.56l-2.93 18.843c-6.13-35.389-15.86-63.901-47.26-78.514zm-2003.5 0c3.78 6.365 9.22 9.66 14.78 12.741-6.41-7.831-11.91-16.777-14.44-29.344l-4.04 7.062c.79 3.398 1.88 6.236 3.19 8.652-32.17 10.169-41.58 34.944-49.68 60.56l2.93 18.843c6.13-35.389 15.86-63.901 47.26-78.514zm171.84 9.574c-3.25-4.045-5.95-3.018-8.42 0-16.18 34.823 9.18 44.374 18.79 36.366 9.13-7.604 25.84-8.089 44.47-6.769 36.63 2.594 75.25 20.7 112.54 23.545 40.64 3.099 73.5-10.316 81.03-64.47 3.08-22.156-21.09-38.555-40.39-47.768-5.46-6.759-7.04-14.193-2.96-22.613-21.11-18.681-37.68 4.994-35.13 20.367 3.21 19.362 10.69 28.743 26.05 36.843 15.02 7.921-2.87 44.833-26.05 49.353-29.96 5.843-47.91-10.03-75.37-10.03-47.39 1.572-94.56 8.221-94.56-14.824zm1659.83 0c3.24-4.045 5.94-3.018 8.42 0 16.17 34.823-9.18 44.374-18.8 36.366-9.12-7.604-25.83-8.089-44.47-6.769-36.63 2.594-75.24 20.7-112.54 23.545-40.64 3.099-73.5-10.316-81.03-64.47-3.08-22.156 21.09-38.555 40.39-47.768 5.47-6.759 7.05-14.193 2.97-22.613 21.1-18.681 37.67 4.994 35.13 20.367-3.21 19.362-10.7 28.743-26.06 36.843-15.02 7.921 2.88 44.833 26.06 49.353 29.96 5.843 47.91-10.03 75.37-10.03 47.38 1.572 94.56 8.221 94.56-14.824zm-393.6-5.409h-102.74v55.015h102.74zm-115.85 0h-122.67v55.015h122.67zm-640.43 0h122.68v55.015h-122.68zm-115.84 0h102.74v55.015h-102.74zm255.27 0h54.18v55.015h-54.18zm361.58 0h-54.19v55.015h54.19zm724.14-.223c-7.42-.906-14.8-.884-21.96 5.632l-5.67 7.784-20.9 6.067 20.9-1.821c8.37-10.101 17.61-15.811 27.63-17.662zm-1810.38 0c7.42-.906 14.81-.884 21.97 5.632l5.66 7.784 20.9 6.067-20.9-1.821c-8.36-10.101-17.61-15.811-27.63-17.662zm1665.37 8.799c.84 3.758-1.88 4.093-5.66 3.41l-17.89-12.096c8.98.811 14.61-1.09 16.71-5.834zm-1520.36 0c-.83 3.758 1.89 4.093 5.66 3.41l17.89-12.096c-8.98.811-14.6-1.09-16.71-5.834zm-55.01-11.914c-7.03-.637-7.97 2.629-4.44 8.747 8.42 1.499 16.76 2.04 24.85 0 9.88-16.714 30.2-11.654 22.27 6.577 9.87-5.259 12.89-12.687 14.71-20.494-9.61-10.987-46.58 10.576-57.39 5.17zm1630.38 0c7.03-.637 7.97 2.629 4.45 8.747-8.43 1.499-16.76 2.04-24.86 0-9.87-16.714-30.2-11.654-22.26 6.577-9.87-5.259-12.9-12.687-14.72-20.494 9.61-10.987 46.58 10.576 57.39 5.17zm-753.58-65.373h-103.85v72.474h103.85zm-120.2 0h-48.18v72.474h48.18zm169.46 0h-36.46v72.474h36.46zm-271.29 0h33.52v55.016h-33.52zm321.35 0h-33.52v55.016h33.52zm-501.9-4.864h118.69v59.88h-118.69zm682.45 0h-118.68v59.869h118.68zm95.61 0h-82.88v59.869h82.88zm-873.67 0h82.88v59.869h-82.88zm1339.93-44.599c33.27-15.066 51-7.681 54.56 20.144 29.15 17.891 15.01 28.178-10.69 36.432-2.73-5.389-10.56-9.144-21.33-11.962h18.28c10.23-4.331 12.68-10.58 7.36-18.747-1.45-24.908-16.89-34.22-48.18-25.867zm-1806.69 0c-33.28-15.066-51-7.681-54.57 20.144-29.15 17.891-15.01 28.178 10.69 36.432 2.73-5.389 10.56-9.144 21.33-11.962h-18.28c-10.23-4.331-12.68-10.58-7.36-18.747 1.45-24.908 16.89-34.22 48.19-25.867zm1340.43 9.827h-41.44v27.418h41.44zm-758.41 0h67.25v27.418h-67.25zm643.15 0h-67.24v27.418h67.24zm58.34 0h-51.92v27.418h51.92zm-759.83 0h51.92v27.418h-51.92zm-56.92 0h41.44v27.418h-41.44zm1290.15 18.233c-.89 5.894-4.91 5.66-4.91 5.66l-9.19-8.264c6.92 7.725 2.72 10.538-3.68 10.643-7.12.116-11.77-2.849-16.15-6.136l4.19-7.891c1.24-7.468 5.34-8.942 10.03-9.172 3.3-1.166 20.73 8.483 19.71 15.16zm-1707.14 0c.89 5.894 4.91 5.66 4.91 5.66l9.2-8.264c-6.93 7.725-2.73 10.538 3.67 10.643 7.12.116 11.77-2.849 16.16-6.136l-4.19-7.891c-1.25-7.468-5.35-8.942-10.03-9.172-3.31-1.166-20.73 8.483-19.72 15.16zm964.44-65.036h-98.52v72.474h98.52zm-110.67 0h-106.97v72.474h106.97zm837.47 43.197c18.94 4.914 29.97 10.941 24.93 19.235 9.12.945 16.49-.57 19.01-8.94-11.71-10.941-26.32-14.476-43.94-10.295zm-1675.33 0c-18.94 4.914-29.98 10.941-24.93 19.235-9.12.945-16.5-.57-19.02-8.94 11.72-10.941 26.32-14.476 43.95-10.295zm1843.82-18.584c-12.05 13.326-26.39 21.515-40.9 29.308 17.62-6.441 34.8-13.607 46.77-29.308zm-2012.32 0c12.05 13.326 26.39 21.515 40.9 29.308-17.62-6.441-34.79-13.607-46.76-29.308zm784.13-14.321h-245.88l29.55 27.489h188.62zm444.57 0h245.88l-29.55 27.489h-188.61zm-690.45-58.76h64.21v47.474h-64.21zm181.67 0h64.21v47.474h-64.21zm-93.42 0h64.21v47.474h-64.21zm666.41 0h-64.21v47.474h64.21zm181.67 0h-64.21v47.474h64.21zm-88.25 0h-64.21v47.474h64.21zm-438.76 6.749h-48.18v28.245h48.18zm169.46 0h-149.56v28.245h149.56zm-250.57-51.642h279.8l-33.63 36.747h-214.63zm276.88-80.196h-52.62v63.928h52.62zm-75.08 0h-52.62v63.928h52.62zm-75.4 0h-52.61v63.928h52.61zm-73.78 0h-52.62v63.928h52.62z" fill="#fff" transform="matrix(.320467 0 0 .321102 -899.0306 121.53)"/></svg>