<svg clip-rule="evenodd" fill-rule="evenodd" stroke-linejoin="round" stroke-miterlimit="2" viewBox="0 0 663 856" xmlns="http://www.w3.org/2000/svg"><path d="m830.341 980.058c-16.239 8.849-34.851 13.878-54.629 13.878-55.758 0-102.253-39.972-112.368-92.792l-.193-.121c-127.535-68.271-216.706-170.164-233.03-331.645l-.53-4.039c182.769 40.396 278.814 84.508 346.121 131.312 67.307-46.804 163.352-90.916 346.118-131.312l-.53 4.039c-16.32 161.481-105.49 263.374-233.027 331.645l-.192.121c-2.779 14.509-8.303 28.05-16.011 40.059-30.049 18.72-64.784 14.419-81.35-4.912-46.451-54.202 145.08-117.474-10.079-229.605 12.597 52.353-15.17 94.034-52.598 124.535-49.543 40.373-33.493 142.859 102.298 148.837zm-66.073-52.177c1.539 9.86 5.184 19.46 11.444 27.914-96.996-83.343 8.611-121.527 26.572-160.247 3.809 19.816-4.968 47.244-24.89 75.457-8.896 12.6-14.503 30.203-13.959 47.841-3.638-9.135-5.834-18.33-6.042-27.602-.407-18.164 6.815-36.63 25.777-55.559-42.772 34.906-37.708 64.338-18.902 92.196zm-182.63-123.786c21.454 26.023 47.091 48.865 77.768 67.849-.034 6.277.263 12.618.912 19.008-42.788-23.532-81.035-51.038-113.335-83.568 11.464-1.613 23.02-2.69 34.655-3.289zm388.148 0c-21.454 26.023-47.091 48.865-77.767 67.849.034 6.277-.263 12.618-.912 19.008 42.787-23.532 81.034-51.038 113.333-83.568-11.463-1.613-23.019-2.69-34.654-3.289zm-378.678-.382c12.228-.36 24.542-.212 36.933.379 10.218 13.438 21.483 26.355 33.915 38.7-1.143 6.713-1.916 13.539-2.291 20.457-26.612-16.975-49.257-36.981-68.557-59.536zm369.209 0c-12.228-.36-24.542-.212-36.934.379-10.218 13.438-21.483 26.355-33.915 38.7 1.143 6.713 1.917 13.539 2.292 20.457 26.612-16.975 49.256-36.981 68.557-59.536zm-322.352.944c11.127.735 22.315 1.812 33.553 3.182-3.211 8.435-5.842 17.141-7.82 26.064-9.234-9.423-17.793-19.179-25.733-29.246zm275.494 0c-11.127.735-22.314 1.812-33.552 3.182 3.211 8.435 5.841 17.141 7.82 26.064 9.233-9.423 17.792-19.179 25.732-29.246zm-332.207-99.88c16.908 2.683 33.759 6.041 50.56 9.974 9.943 27.165 22.308 54.106 37.31 80.797-13.336-2.025-27.227-3.681-41.705-4.949-19.105-26.78-34.193-55.535-46.165-85.822zm388.921 0c-16.908 2.683-33.759 6.041-50.561 9.974-9.943 27.165-22.307 54.106-37.31 80.797 13.336-2.025 27.228-3.681 41.705-4.949 19.106-26.78 34.193-55.535 46.166-85.822zm-329.575 12.083c25.199 6.201 50.299 13.661 75.322 22.037-15.694 16.006-29.004 34.844-38.756 55.636-14.602-25.661-26.724-51.555-36.566-77.673zm270.229 0c-25.2 6.201-50.3 13.661-75.322 22.037 15.694 16.006 29.004 34.844 38.755 55.636 14.603-25.661 26.725-51.555 36.567-77.673zm-381.483-18.073c14.498 1.021 28.948 2.605 43.355 4.692 11.693 30.402 26.409 59.321 45.009 86.335-12.659-.939-25.753-1.589-39.3-1.937-20.143-26.805-36.196-56.734-49.064-89.09zm492.736 0c-14.5 1.021-28.948 2.605-43.355 4.692-11.693 30.402-26.409 59.321-45.009 86.335 12.659-.939 25.753-1.589 39.3-1.937 20.144-26.805 36.194-56.734 49.064-89.09zm-550.921-.935c16.712-.673 33.351-.504 49.939.415 12.6 32.366 28.27 62.385 47.855 89.418-12.94-.196-26.286-.121-40.054.233-23.186-26.723-42.648-56.579-57.74-90.066zm609.111 0c-16.72-.673-33.36-.504-49.94.415-12.6 32.366-28.27 62.385-47.859 89.418 12.941-.196 26.289-.121 40.049.233 23.19-26.723 42.65-56.579 57.75-90.066zm-465.257-74.092c67.694 24.593 114.549 50.26 153.241 76.85-15.613 7.75-30.42 17.928-43.8 30.074-29.571-12.741-59.678-23.466-90.36-32.095-8.301-24.763-14.606-49.711-19.081-74.829zm321.399 0c-67.695 24.593-114.55 50.26-153.242 76.85 15.613 7.75 30.42 17.928 43.8 30.074 29.571-12.741 59.678-23.466 90.36-32.095 8.302-24.763 14.606-49.711 19.082-74.829zm-383.925-20.548c19.508 5.814 37.579 11.693 54.407 17.639 4.3 25.297 10.418 50.424 18.515 75.356-17.033-4.554-34.245-8.464-51.644-11.716-8.995-26.158-15.906-53.34-21.278-81.279zm446.45 0c-19.507 5.814-37.579 11.693-54.406 17.639-4.301 25.297-10.418 50.424-18.516 75.356 17.034-4.554 34.246-8.464 51.644-11.716 8.995-26.158 15.906-53.34 21.278-81.279zm-569.346-63.212h692.239v12.186c-139.988 30.423-253.758 75.696-346.118 133.096-108.78-64.675-226.05-103.198-346.121-133.096zm68.41 48.138c16.308 4.195 31.752 8.426 46.401 12.692 5.274 28.213 12.073 55.675 20.931 82.139-14.585-2.54-29.297-4.618-44.147-6.229-9.654-28.069-17.202-57.738-23.185-88.602zm555.419 0c-16.3 4.195-31.75 8.426-46.4 12.692-5.27 28.213-12.07 55.675-20.928 82.139 14.588-2.54 29.298-4.618 44.148-6.229 9.65-28.069 17.2-57.738 23.18-88.602zm-592.553 84.449c-3.488-9.552-6.604-19.238-9.345-29.03-4.235-15.133-7.584-30.509-10.125-46.015-.977-5.965-1.836-11.949-2.58-17.947-.184-1.485-.362-2.971-.532-4.458-.034-.298-.068-.596-.102-.895-.017-.149-.197-.415-.05-.448.341-.077.683.153 1.025.229 1.021.229 2.042.459 3.063.689 3.363.758 6.724 1.525 10.083 2.3 12.534 2.891 25.04 5.901 37.513 9.042l.155.039c5.928 31.265 13.426 61.332 23.02 89.808-17.162-1.656-34.51-2.689-52.041-3.084zm629.693 0c3.49-9.552 6.6-19.238 9.34-29.03 4.24-15.133 7.59-30.509 10.13-46.015.98-5.965 1.83-11.949 2.58-17.947.18-1.485.36-2.971.53-4.458.03-.298.07-.596.1-.895.02-.149.2-.415.05-.448-.34-.077-.68.153-1.02.229-1.02.229-2.05.459-3.07.689-3.36.758-6.72 1.525-10.08 2.3-12.53 2.891-25.04 5.901-37.51 9.042l-.16.039c-5.92 31.265-13.42 61.332-23.02 89.808 17.16-1.656 34.51-2.689 52.04-3.084zm-433.096-126.748.52 66.802 43.442 19.338v-41.692l17.88 4.104v46.823l40.902 23.419 2.079-118.794h-42.981v30.652l-17.88-3.309v-27.343zm132.334 118.794-2.067-118.794h71.764l10.794 39.18-13.431 3.202-23.195-28.625v82.303zm-193.889-159.779c0-4.794.717-8.818 2.151-12.071 1.07-2.397 2.531-4.548 4.382-6.453 1.851-1.904 3.879-3.317 6.084-4.237 2.932-1.242 6.313-1.862 10.144-1.862 6.935 0 12.483 2.151 16.646 6.453 4.163 4.301 6.244 10.283 6.244 17.945 0 7.598-2.065 13.543-6.196 17.834-4.13 4.291-9.652 6.437-16.565 6.437-6.999 0-12.563-2.135-16.694-6.405s-6.196-10.15-6.196-17.641zm421.271 5.939 9.21 2.922c-1.41 5.136-3.76 8.951-7.04 11.445-3.29 2.493-7.46 3.74-12.51 3.74-6.25 0-11.382-2.135-15.406-6.405-4.023-4.27-6.035-10.107-6.035-17.512 0-7.834 2.022-13.917 6.067-18.251s9.364-6.501 15.954-6.501c5.76 0 10.44 1.701 14.03 5.104 2.14 2.012 3.75 4.901 4.82 8.668l-9.41 2.247c-.56-2.439-1.72-4.366-3.48-5.778-1.77-1.413-3.91-2.119-6.44-2.119-3.49 0-6.32 1.252-8.491 3.756-2.173 2.504-3.259 6.56-3.259 12.167 0 5.95 1.07 10.188 3.211 12.713 2.139 2.526 4.919 3.789 8.349 3.789 2.52 0 4.7-.803 6.51-2.408 1.82-1.605 3.13-4.131 3.92-7.577zm-191.454 17.304v-47.064h9.502v18.524h18.62v-18.524h9.503v47.064h-9.503v-20.578h-18.62v20.578zm-7.703 0h-10.337l-4.109-10.69h-18.813l-3.884 10.69h-10.081l18.331-47.064h10.049zm219.347-47.064h9.5v18.813h12.72c5.99 0 10.33 1.402 13.02 4.206 2.68 2.803 4.02 6.163 4.02 10.08 0 3.21-.81 5.939-2.44 8.187-1.62 2.247-3.48 3.772-5.57 4.574-2.08.803-5.09 1.204-9.03 1.204h-22.22zm-497.316 47.064h-10.337l-4.11-10.69h-18.812l-3.885 10.69h-10.08l18.331-47.064h10.048zm164.007-5.49v5.49h-9.31v-5.49c-7.512-.278-12.815-2.134-15.907-5.57-3.093-3.435-4.639-7.731-4.639-12.889 0-5.436 1.615-9.797 4.847-13.082 3.232-3.286 8.465-5.067 15.699-5.346v-4.655h9.31v4.655c7.469.279 12.761 2.119 15.875 5.522s4.671 7.716 4.671 12.938c0 5.179-1.552 9.476-4.655 12.89-3.103 3.413-8.4 5.259-15.891 5.537zm383.169-41.574h9.5v20.033c2.12-.214 3.55-.76 4.3-1.637.75-.878 1.9-3.318 3.47-7.32 1.97-5.094 3.95-8.261 5.94-9.503 1.97-1.241 5.14-1.862 9.53-1.862.22 0 .68-.01 1.38-.032v7.031l-1.35-.032c-1.94 0-3.37.241-4.27.722-.89.482-1.62 1.215-2.18 2.199-.55.985-1.38 3.007-2.47 6.068-.58 1.626-1.2 2.985-1.88 4.077-.67 1.092-1.87 2.119-3.58 3.082 2.12.599 3.87 1.808 5.25 3.628 1.38 1.819 2.9 4.387 4.54 7.705l6.42 12.905h-11.17l-5.62-12.167c-.08-.171-.26-.503-.54-.995-.11-.172-.5-.91-1.19-2.215-1.22-2.312-2.22-3.757-3-4.334-.78-.578-1.98-.878-3.58-.899v20.61h-9.5zm-168.955 47.064v-47.064h9.503v47.064zm-467.466-47.064h18.812c3.724 0 6.501.155 8.331.466 1.83.31 3.467.958 4.912 1.942 1.445.985 2.649 2.295 3.612 3.933.963 1.637 1.444 3.472 1.444 5.506 0 2.204-.594 4.227-1.781 6.067-1.188 1.841-2.799 3.221-4.832 4.141 2.868.835 5.072 2.258 6.613 4.27s2.312 4.377 2.312 7.095c0 2.14-.498 4.222-1.493 6.244-.995 2.023-2.354 3.639-4.077 4.848s-3.847 1.953-6.373 2.231c-1.584.171-5.404.278-11.461.321h-16.019zm425.156 0h9.503v20.033c2.119-.214 3.553-.76 4.302-1.637.749-.878 1.905-3.318 3.467-7.32 1.969-5.094 3.949-8.261 5.939-9.503 1.969-1.241 5.147-1.862 9.535-1.862.214 0 .674-.01 1.38-.032v7.031l-1.348-.032c-1.948 0-3.371.241-4.27.722-.899.482-1.626 1.215-2.183 2.199-.556.985-1.38 3.007-2.472 6.068-.578 1.626-1.204 2.985-1.878 4.077s-1.867 2.119-3.579 3.082c2.118.599 3.868 1.808 5.249 3.628 1.38 1.819 2.894 4.387 4.542 7.705l6.421 12.905h-11.172l-5.618-12.167c-.086-.171-.268-.503-.546-.995-.107-.172-.503-.91-1.188-2.215-1.22-2.312-2.22-3.757-3.002-4.334-.781-.578-1.974-.878-3.579-.899v20.61h-9.503zm63.528 0h18.813c3.724 0 6.501.155 8.331.466 1.83.31 3.467.958 4.912 1.942 1.444.985 2.648 2.295 3.611 3.933.963 1.637 1.445 3.472 1.445 5.506 0 2.204-.594 4.227-1.782 6.067-1.188 1.841-2.798 3.221-4.831 4.141 2.867.835 5.072 2.258 6.613 4.27s2.311 4.377 2.311 7.095c0 2.14-.497 4.222-1.492 6.244-.996 2.023-2.355 3.639-4.078 4.848s-3.847 1.953-6.372 2.231c-1.584.171-5.404.278-11.461.321h-16.02zm-204.615 47.064v-47.064h15.249c5.779 0 9.545.236 11.3.707 2.697.706 4.955 2.241 6.774 4.606s2.729 5.421 2.729 9.166c0 2.889-.524 5.319-1.573 7.288s-2.381 3.515-3.997 4.639c-1.616 1.123-3.258 1.867-4.928 2.231-2.268.449-5.554.674-9.856.674h-6.196v17.753zm-305.287 0v-47.064h9.502v47.064zm118.165 0v-47.064h9.503v18.524h18.62v-18.524h9.503v47.064h-9.503v-20.578h-18.62v20.578zm57.945-23.564c0 5.329 1.23 9.369 3.692 12.119 2.461 2.75 5.586 4.126 9.374 4.126s6.897-1.365 9.326-4.094c2.429-2.728 3.644-6.822 3.644-12.279 0-5.394-1.183-9.417-3.548-12.071s-5.506-3.981-9.422-3.981c-3.917 0-7.074 1.343-9.471 4.029s-3.595 6.736-3.595 12.151zm441.169 15.667h9.25c3 0 5.07-.145 6.23-.434 1.15-.289 2.19-.947 3.1-1.974s1.36-2.29 1.36-3.788c0-2.162-.77-3.746-2.33-4.752-1.55-1.006-4.2-1.509-7.94-1.509h-9.67zm-97.874-12.617v12.585h8.796c3.425 0 5.597-.097 6.517-.289 1.413-.257 2.563-.883 3.451-1.878.889-.996 1.333-2.328 1.333-3.997 0-1.413-.343-2.611-1.028-3.596-.685-.984-1.674-1.701-2.969-2.151-1.295-.449-4.104-.674-8.427-.674zm-488.685 0v12.585h8.797c3.424 0 5.596-.097 6.517-.289 1.412-.257 2.563-.883 3.451-1.878.888-.996 1.332-2.328 1.332-3.997 0-1.413-.342-2.611-1.027-3.596-.685-.984-1.675-1.701-2.97-2.151-1.295-.449-4.104-.674-8.427-.674zm190.204 7.962v-9.021h17.721v9.021zm44.236-.867v-21.028c-4.002 0-6.892.894-8.668 2.681-1.777 1.787-2.665 4.489-2.665 8.106 0 6.827 3.778 10.241 11.333 10.241zm9.31 0c2.483 0 4.617-.417 6.405-1.252 1.787-.835 3.055-1.958 3.804-3.371s1.123-3.478 1.123-6.196c0-6.806-3.777-10.209-11.332-10.209zm96.466-5.201-6.485-17.464-6.356 17.464zm-277.97 0-6.484-17.464-6.357 17.464zm221.823-20.482v13.355h5.201c3.746 0 6.25-.246 7.512-.738 1.263-.493 2.253-1.263 2.97-2.312.717-1.048 1.075-2.268 1.075-3.66 0-1.712-.502-3.124-1.508-4.237s-2.28-1.809-3.821-2.087c-1.134-.214-3.413-.321-6.838-.321zm204.616-.128v10.883h6.228c3.703 0 6.003-.054 6.902-.161 1.627-.192 2.906-.754 3.837-1.685s1.396-2.157 1.396-3.676c0-1.455-.401-2.638-1.204-3.548-.802-.909-1.996-1.46-3.579-1.653-.942-.107-3.649-.16-8.123-.16zm-488.685 0v10.883h6.228c3.703 0 6.004-.054 6.903-.161 1.626-.192 2.905-.754 3.836-1.685s1.396-2.157 1.396-3.676c0-1.455-.401-2.638-1.203-3.548-.803-.909-1.996-1.46-3.58-1.653-.942-.107-3.649-.16-8.122-.16zm296.777-283.842-.121-89.195h-63.069v-15.398h163.107v15.398h-60.58v89.195h66.921s37.122 253.443 37.122 253.443c12.648-8.741 21.548-21.908 27.494-40.306 6.903-21.362 9.822-49.604 9.822-86.091l.002-.063c.706-20.758 5.916-34.837 16.553-43.83 10.473-8.854 26.495-12.855 49.641-12.855h117.85v192.897l-692.239.69v-193.587h120.067c10.746 0 20.681.022 29.281 1.486 9.296 1.583 17.097 4.852 22.94 11.182 7.517 8.144 11.906 21.636 11.233 44.256-2.282 76.688 14.13 112.118 40.942 126.58l33.419-253.802zm-113.394 256.171-206.603.206v-178.579h112.567c10.284 0 19.793-.021 28.023 1.38 7.535 1.283 13.951 3.744 18.687 8.875 6.59 7.139 9.837 19.115 9.247 38.946-2.213 74.384 13.491 111.672 38.079 129.172zm26.218-.026 87.723-.087-.124-52.349zm95.976-183.745 1.02 183.648 19.334-.019-.436-183.629zm29.627 183.62 87.043-.087-87.334-52.278zm114.111-.114c11.378-9.461 19.734-22.705 25.473-40.463 7.085-21.924 10.181-50.894 10.185-88.267.621-18.042 4.645-30.473 13.897-38.295 9.426-7.969 23.968-11.083 44.799-11.083h110.35v177.904zm-114.527-74.697.076 13.676 97.702 58.484-17.599-120.155zm-133.276 71.037 95.667-57.266-.033-13.932-79.956-47.861zm320.914-152.903h30.153l31.15 69.314 26.59-69.314h28.15l-45.09 101.466c-4.92 10.99-9.93 19.355-15.03 25.093s-11.69 8.607-19.76 8.607c-7.96 0-14.18-.516-18.67-1.548v-20.038c3.82.243 7.28.364 10.38.364 6.25 0 10.73-1.138 13.43-3.416 2.71-2.277 5.3-7.18 7.79-14.709zm-522.224 134.347v-133.527h27.905v52.554h54.679v-52.554h27.906v133.527h-27.906v-58.384h-54.679v58.384zm334.307-102.825.231 41.631 69.549-41.631zm-106.595 0 69.211 41.43-.098-41.43zm106.556-7.071h71.534l-71.797-47.259zm-108.272 0h70.812l-.111-46.538zm-7.215-4.23 77.892-51.271-.024-16.347-63.463-41.774zm117.131-68.121v17.368l76.827 50.57-15.832-108.086zm-39.276-8.485-.05-35.458h-53.819zm39.276-.494 53.12-34.964h-53.12z" transform="matrix(.957339 0 0 .957339 -411.26 -96.15)"/></svg>