<?xml version="1.0" encoding="UTF-8" standalone="no"?>
<!DOCTYPE svg PUBLIC "-//W3C//DTD SVG 1.1//EN" "http://www.w3.org/Graphics/SVG/1.1/DTD/svg11.dtd">
<svg width="100%" height="100%" viewBox="0 0 815 813" version="1.1" xmlns="http://www.w3.org/2000/svg" xmlns:xlink="http://www.w3.org/1999/xlink" xml:space="preserve" xmlns:serif="http://www.serif.com/" style="fill-rule:evenodd;clip-rule:evenodd;stroke-linejoin:round;stroke-miterlimit:2;">
    <g transform="matrix(1,0,0,1,-108.977,-47.2555)">
        <g transform="matrix(1,0,0,1,-6591.71,-246.312)">
            <g transform="matrix(-47.7619,-25.3303,25.3303,-47.7619,7008.61,923.778)">
                <path d="M0.369,-0.7L0.369,-0.402L0.171,-0.402L0.171,-0.7L0.07,-0.7L0.07,-0L0.171,-0L0.171,-0.307L0.369,-0.307L0.369,-0L0.47,-0L0.47,-0.7L0.369,-0.7Z" style="fill-rule:nonzero;"/>
            </g>
            <g transform="matrix(-44.7475,-30.3395,30.3395,-44.7475,6982.84,909.922)">
                <path d="M0.225,-0.54C0.119,-0.54 0.051,-0.478 0.046,-0.377L0.143,-0.377C0.148,-0.424 0.18,-0.447 0.223,-0.447C0.276,-0.447 0.299,-0.412 0.299,-0.35L0.299,-0.313L0.222,-0.313C0.106,-0.313 0.031,-0.258 0.031,-0.15C0.031,-0.051 0.096,0.013 0.193,0.013C0.251,0.013 0.289,-0.014 0.31,-0.049L0.317,-0L0.396,-0L0.396,-0.35C0.396,-0.471 0.338,-0.54 0.225,-0.54ZM0.299,-0.157C0.299,-0.107 0.266,-0.073 0.213,-0.073C0.16,-0.073 0.129,-0.102 0.129,-0.15C0.129,-0.202 0.163,-0.229 0.222,-0.229L0.299,-0.229L0.299,-0.157Z" style="fill-rule:nonzero;"/>
            </g>
            <g transform="matrix(-41.1241,-35.0946,35.0946,-41.1241,6962.5,896.187)">
                <path d="M0.363,0.117L0.457,0.117L0.457,-0.089L0.397,-0.089L0.397,-0.527L0.3,-0.527L0.3,-0.089L0.155,-0.089L0.155,-0.527L0.058,-0.527L0.058,-0L0.363,-0L0.363,0.117Z" style="fill-rule:nonzero;"/>
            </g>
            <g transform="matrix(-38.5119,-37.9428,37.9428,-38.5119,6943.17,879.419)">
                <path d="M0.106,-0.615C0.142,-0.615 0.168,-0.642 0.168,-0.676C0.168,-0.712 0.142,-0.738 0.106,-0.738C0.07,-0.738 0.045,-0.712 0.045,-0.676C0.045,-0.641 0.07,-0.615 0.106,-0.615ZM0.058,-0L0.155,-0L0.155,-0.527L0.058,-0.527L0.058,-0Z" style="fill-rule:nonzero;"/>
            </g>
            <g transform="matrix(-35.5522,-40.7292,40.7292,-35.5522,6934.74,871.467)">
                <path d="M0.231,0.012C0.346,0.012 0.417,-0.059 0.417,-0.188L0.417,-0.34C0.417,-0.469 0.346,-0.54 0.231,-0.54C0.117,-0.54 0.046,-0.469 0.046,-0.34L0.046,-0.188C0.046,-0.059 0.117,0.012 0.231,0.012ZM0.231,-0.082C0.177,-0.082 0.144,-0.114 0.144,-0.188L0.144,-0.34C0.144,-0.414 0.177,-0.446 0.231,-0.446C0.286,-0.446 0.319,-0.414 0.319,-0.34L0.319,-0.188C0.319,-0.114 0.286,-0.082 0.231,-0.082Z" style="fill-rule:nonzero;"/>
            </g>
            <g transform="matrix(-31.272,-44.1009,44.1009,-31.272,6918.49,852.859)">
                <path d="M0.302,-0.527L0.302,-0.315L0.155,-0.315L0.155,-0.527L0.058,-0.527L0.058,-0L0.155,-0L0.155,-0.225L0.302,-0.225L0.302,-0L0.399,-0L0.399,-0.527L0.302,-0.527Z" style="fill-rule:nonzero;"/>
            </g>
            <g transform="matrix(-26.7821,-46.9632,46.9632,-26.7821,6904.23,832.687)">
                <path d="M0.225,-0.54C0.119,-0.54 0.051,-0.478 0.046,-0.377L0.143,-0.377C0.148,-0.424 0.18,-0.447 0.223,-0.447C0.276,-0.447 0.299,-0.412 0.299,-0.35L0.299,-0.313L0.222,-0.313C0.106,-0.313 0.031,-0.258 0.031,-0.15C0.031,-0.051 0.096,0.013 0.193,0.013C0.251,0.013 0.289,-0.014 0.31,-0.049L0.317,-0L0.396,-0L0.396,-0.35C0.396,-0.471 0.338,-0.54 0.225,-0.54ZM0.299,-0.157C0.299,-0.107 0.266,-0.073 0.213,-0.073C0.16,-0.073 0.129,-0.102 0.129,-0.15C0.129,-0.202 0.163,-0.229 0.222,-0.229L0.299,-0.229L0.299,-0.157Z" style="fill-rule:nonzero;"/>
            </g>
            <g transform="matrix(-22.059,-49.3582,49.3582,-22.059,6892.18,811.315)">
                <path d="M0,0.007C0.104,0.007 0.154,-0.064 0.167,-0.211C0.173,-0.272 0.179,-0.376 0.18,-0.438L0.298,-0.438L0.298,-0L0.394,-0L0.394,-0.527L0.087,-0.527C0.085,-0.425 0.078,-0.303 0.072,-0.227C0.064,-0.143 0.053,-0.086 0,-0.086L0,0.007Z" style="fill-rule:nonzero;"/>
            </g>
            <g transform="matrix(-16.4891,-51.4872,51.4872,-16.4891,6882.25,788.945)">
                <path d="M0.238,-0.349L0.155,-0.349L0.155,-0.527L0.058,-0.527L0.058,-0L0.238,-0C0.338,-0 0.412,-0.071 0.412,-0.176C0.412,-0.279 0.338,-0.349 0.238,-0.349ZM0.228,-0.088L0.155,-0.088L0.155,-0.261L0.228,-0.261C0.279,-0.261 0.314,-0.229 0.314,-0.176C0.314,-0.122 0.279,-0.088 0.228,-0.088Z" style="fill-rule:nonzero;"/>
            </g>
            <g transform="matrix(-11.5743,-52.8097,52.8097,-11.5743,6875.15,767.098)">
                <path d="M0.302,-0.527L0.302,-0.315L0.155,-0.315L0.155,-0.527L0.058,-0.527L0.058,-0L0.155,-0L0.155,-0.225L0.302,-0.225L0.302,-0L0.399,-0L0.399,-0.527L0.302,-0.527Z" style="fill-rule:nonzero;"/>
            </g>
            <g transform="matrix(-6.06352,-53.7221,53.7221,-6.06352,6869.85,743.01)">
                <path d="M0.058,-0L0.157,-0L0.258,-0.211C0.279,-0.256 0.312,-0.351 0.317,-0.373L0.32,-0.372C0.317,-0.319 0.315,-0.253 0.315,-0.202L0.315,-0L0.409,-0L0.409,-0.527L0.31,-0.527L0.208,-0.306C0.191,-0.263 0.161,-0.184 0.153,-0.157L0.15,-0.159C0.152,-0.216 0.152,-0.263 0.152,-0.305L0.152,-0.527L0.058,-0.527L0.058,-0Z" style="fill-rule:nonzero;"/>
            </g>
            <g transform="matrix(-0.471471,-54.0611,54.0611,-0.471471,6867.02,717.857)">
                <path d="M0.235,-0.609C0.304,-0.609 0.352,-0.652 0.355,-0.729L0.286,-0.729C0.284,-0.694 0.265,-0.676 0.234,-0.676C0.204,-0.676 0.185,-0.694 0.183,-0.729L0.114,-0.729C0.117,-0.653 0.165,-0.609 0.235,-0.609ZM0.058,-0L0.157,-0L0.258,-0.211C0.279,-0.256 0.312,-0.351 0.317,-0.373L0.32,-0.372C0.317,-0.319 0.315,-0.253 0.315,-0.202L0.315,-0L0.409,-0L0.409,-0.527L0.31,-0.527L0.208,-0.306C0.191,-0.263 0.161,-0.184 0.153,-0.157L0.15,-0.159C0.152,-0.216 0.152,-0.263 0.152,-0.305L0.152,-0.527L0.058,-0.527L0.058,-0Z" style="fill-rule:nonzero;"/>
            </g>
            <g transform="matrix(10.6837,-52.997,52.997,10.6837,6868.78,669.407)">
                <path d="M0.47,-0.7L0.07,-0.7L0.07,-0L0.171,-0L0.171,-0.604L0.369,-0.604L0.369,-0L0.47,-0L0.47,-0.7Z" style="fill-rule:nonzero;"/>
            </g>
            <g transform="matrix(16.5887,-51.4552,51.4552,16.5887,6874.67,640.794)">
                <path d="M0.32,-0.165C0.311,-0.108 0.286,-0.082 0.227,-0.082C0.174,-0.082 0.143,-0.115 0.143,-0.187L0.143,-0.227L0.41,-0.227L0.41,-0.344C0.41,-0.469 0.339,-0.54 0.226,-0.54C0.115,-0.54 0.046,-0.469 0.046,-0.344L0.046,-0.187C0.046,-0.061 0.115,0.011 0.225,0.011C0.339,0.011 0.408,-0.053 0.417,-0.165L0.32,-0.165ZM0.227,-0.449C0.282,-0.449 0.314,-0.417 0.314,-0.345L0.314,-0.3L0.143,-0.3L0.143,-0.345C0.143,-0.417 0.174,-0.449 0.227,-0.449Z" style="fill-rule:nonzero;"/>
            </g>
            <g transform="matrix(21.7568,-49.4921,49.4921,21.7568,6882.19,617.405)">
                <path d="M0,0.117L0.093,0.117L0.093,-0L0.371,-0L0.371,0.117L0.464,0.117L0.464,-0.089L0.404,-0.089L0.404,-0.527L0.098,-0.527C0.096,-0.443 0.092,-0.358 0.087,-0.274C0.082,-0.2 0.069,-0.131 0.04,-0.089L0,-0.089L0,0.117ZM0.15,-0.089C0.166,-0.131 0.176,-0.185 0.181,-0.252C0.186,-0.314 0.188,-0.376 0.189,-0.438L0.308,-0.438L0.308,-0.089L0.15,-0.089Z" style="fill-rule:nonzero;"/>
            </g>
            <g transform="matrix(26.7111,-47.0036,47.0036,26.7111,6892.63,593.863)">
                <path d="M0.225,-0.54C0.119,-0.54 0.051,-0.478 0.046,-0.377L0.143,-0.377C0.148,-0.424 0.18,-0.447 0.223,-0.447C0.276,-0.447 0.299,-0.412 0.299,-0.35L0.299,-0.313L0.222,-0.313C0.106,-0.313 0.031,-0.258 0.031,-0.15C0.031,-0.051 0.096,0.013 0.193,0.013C0.251,0.013 0.289,-0.014 0.31,-0.049L0.317,-0L0.396,-0L0.396,-0.35C0.396,-0.471 0.338,-0.54 0.225,-0.54ZM0.299,-0.157C0.299,-0.107 0.266,-0.073 0.213,-0.073C0.16,-0.073 0.129,-0.102 0.129,-0.15C0.129,-0.202 0.163,-0.229 0.222,-0.229L0.299,-0.229L0.299,-0.157Z" style="fill-rule:nonzero;"/>
            </g>
            <g transform="matrix(31.1397,-44.1944,44.1944,31.1397,6904.85,572.6)">
                <path d="M0.332,-0.528L0.058,-0.528L0.058,-0L0.156,-0L0.156,-0.435L0.332,-0.435L0.332,-0.528Z" style="fill-rule:nonzero;"/>
            </g>
            <g transform="matrix(34.6325,-41.5141,41.5141,34.6325,6914.96,557.884)">
                <path d="M0.231,0.012C0.346,0.012 0.417,-0.059 0.417,-0.188L0.417,-0.34C0.417,-0.469 0.346,-0.54 0.231,-0.54C0.117,-0.54 0.046,-0.469 0.046,-0.34L0.046,-0.188C0.046,-0.059 0.117,0.012 0.231,0.012ZM0.231,-0.082C0.177,-0.082 0.144,-0.114 0.144,-0.188L0.144,-0.34C0.144,-0.414 0.177,-0.446 0.231,-0.446C0.286,-0.446 0.319,-0.414 0.319,-0.34L0.319,-0.188C0.319,-0.114 0.286,-0.082 0.231,-0.082Z" style="fill-rule:nonzero;"/>
            </g>
            <g transform="matrix(38.3988,-38.0573,38.0573,38.3988,6931.07,538.723)">
                <path d="M0.332,-0.528L0.058,-0.528L0.058,-0L0.156,-0L0.156,-0.435L0.332,-0.435L0.332,-0.528Z" style="fill-rule:nonzero;"/>
            </g>
            <g transform="matrix(40.5166,-35.7943,35.7943,40.5166,6944.44,525.569)">
                <path d="M0.106,-0.615C0.142,-0.615 0.168,-0.642 0.168,-0.676C0.168,-0.712 0.142,-0.738 0.106,-0.738C0.07,-0.738 0.045,-0.712 0.045,-0.676C0.045,-0.641 0.07,-0.615 0.106,-0.615ZM0.058,-0L0.155,-0L0.155,-0.527L0.058,-0.527L0.058,-0Z" style="fill-rule:nonzero;"/>
            </g>
            <g transform="matrix(42.8636,-32.9475,32.9475,42.8636,6952.94,517.829)">
                <path d="M0.282,-0.527L0.282,-0.275C0.256,-0.258 0.225,-0.256 0.202,-0.256C0.155,-0.256 0.121,-0.286 0.121,-0.378L0.121,-0.527L0.029,-0.527L0.029,-0.378C0.029,-0.229 0.099,-0.165 0.193,-0.165C0.222,-0.165 0.253,-0.169 0.282,-0.184L0.282,-0L0.374,-0L0.374,-0.527L0.282,-0.527Z" style="fill-rule:nonzero;"/>
            </g>
            <g transform="matrix(46.0059,-28.3952,28.3952,46.0059,6971.49,503.572)">
                <path d="M0.302,-0.527L0.302,-0.315L0.155,-0.315L0.155,-0.527L0.058,-0.527L0.058,-0L0.155,-0L0.155,-0.225L0.302,-0.225L0.302,-0L0.399,-0L0.399,-0.527L0.302,-0.527Z" style="fill-rule:nonzero;"/>
            </g>
            <g transform="matrix(48.6893,-23.4984,23.4984,48.6893,6992.51,490.581)">
                <path d="M0.058,-0L0.157,-0L0.258,-0.211C0.279,-0.256 0.312,-0.351 0.317,-0.373L0.32,-0.372C0.317,-0.319 0.315,-0.253 0.315,-0.202L0.315,-0L0.409,-0L0.409,-0.527L0.31,-0.527L0.208,-0.306C0.191,-0.263 0.161,-0.184 0.153,-0.157L0.15,-0.159C0.152,-0.216 0.152,-0.263 0.152,-0.305L0.152,-0.527L0.058,-0.527L0.058,-0Z" style="fill-rule:nonzero;"/>
            </g>
            <g transform="matrix(50.883,-18.2687,18.2687,50.883,7015.26,479.603)">
                <path d="M0.235,-0.609C0.304,-0.609 0.352,-0.652 0.355,-0.729L0.286,-0.729C0.284,-0.694 0.265,-0.676 0.234,-0.676C0.204,-0.676 0.185,-0.694 0.183,-0.729L0.114,-0.729C0.117,-0.653 0.165,-0.609 0.235,-0.609ZM0.058,-0L0.157,-0L0.258,-0.211C0.279,-0.256 0.312,-0.351 0.317,-0.373L0.32,-0.372C0.317,-0.319 0.315,-0.253 0.315,-0.202L0.315,-0L0.409,-0L0.409,-0.527L0.31,-0.527L0.208,-0.306C0.191,-0.263 0.161,-0.184 0.153,-0.157L0.15,-0.159C0.152,-0.216 0.152,-0.263 0.152,-0.305L0.152,-0.527L0.058,-0.527L0.058,-0Z" style="fill-rule:nonzero;"/>
            </g>
            <g transform="matrix(53.4857,-7.88082,7.88082,53.4857,7061.58,465.503)">
                <path d="M0.327,-0.7L0.226,-0.359L0.112,-0.7L0.005,-0.7L0.181,-0.205L0.173,-0.179C0.152,-0.109 0.129,-0.081 0.075,-0.081L0.047,-0.081L0.047,0.01L0.072,0.01C0.178,0.01 0.227,-0.031 0.263,-0.147L0.433,-0.7L0.327,-0.7Z" style="fill-rule:nonzero;"/>
            </g>
            <g transform="matrix(53.9824,-2.9545,2.9545,53.9824,7083.06,462.226)">
                <path d="M0.302,-0.527L0.302,-0.315L0.155,-0.315L0.155,-0.527L0.058,-0.527L0.058,-0L0.155,-0L0.155,-0.225L0.302,-0.225L0.302,-0L0.399,-0L0.399,-0.527L0.302,-0.527Z" style="fill-rule:nonzero;"/>
            </g>
            <g transform="matrix(54.0534,1.02854,-1.02854,54.0534,7107.73,461.12)">
                <path d="M0.106,-0.615C0.142,-0.615 0.168,-0.642 0.168,-0.676C0.168,-0.712 0.142,-0.738 0.106,-0.738C0.07,-0.738 0.045,-0.712 0.045,-0.676C0.045,-0.641 0.07,-0.615 0.106,-0.615ZM0.058,-0L0.155,-0L0.155,-0.527L0.058,-0.527L0.058,-0Z" style="fill-rule:nonzero;"/>
            </g>
            <g transform="matrix(53.8233,5.08673,-5.08673,53.8233,7119.26,461.082)">
                <path d="M0.323,-0.28C0.36,-0.304 0.381,-0.343 0.381,-0.381C0.381,-0.472 0.323,-0.527 0.216,-0.527L0.058,-0.527L0.058,-0L0.224,-0C0.347,-0 0.408,-0.058 0.408,-0.153C0.408,-0.205 0.382,-0.257 0.323,-0.28ZM0.152,-0.446L0.21,-0.446C0.26,-0.446 0.286,-0.42 0.286,-0.379C0.286,-0.335 0.26,-0.311 0.211,-0.311L0.152,-0.311L0.152,-0.446ZM0.228,-0.082L0.152,-0.082L0.152,-0.229L0.228,-0.229C0.285,-0.229 0.312,-0.204 0.312,-0.156C0.312,-0.108 0.285,-0.082 0.228,-0.082Z" style="fill-rule:nonzero;"/>
            </g>
            <g transform="matrix(53.0872,10.2262,-10.2262,53.0872,7142.46,463.185)">
                <path d="M0.32,-0.165C0.311,-0.108 0.286,-0.082 0.227,-0.082C0.174,-0.082 0.143,-0.115 0.143,-0.187L0.143,-0.227L0.41,-0.227L0.41,-0.344C0.41,-0.469 0.339,-0.54 0.226,-0.54C0.115,-0.54 0.046,-0.469 0.046,-0.344L0.046,-0.187C0.046,-0.061 0.115,0.011 0.225,0.011C0.339,0.011 0.408,-0.053 0.417,-0.165L0.32,-0.165ZM0.227,-0.449C0.282,-0.449 0.314,-0.417 0.314,-0.345L0.314,-0.3L0.143,-0.3L0.143,-0.345C0.143,-0.417 0.174,-0.449 0.227,-0.449Z" style="fill-rule:nonzero;"/>
            </g>
            <g transform="matrix(51.7366,15.6893,-15.6893,51.7366,7166.6,467.784)">
                <path d="M0.254,-0.539C0.207,-0.539 0.161,-0.513 0.135,-0.479L0.128,-0.528L0.058,-0.528L0.058,0.18L0.153,0.18L0.153,-0.03C0.179,-0.003 0.216,0.012 0.254,0.012C0.356,0.012 0.422,-0.062 0.422,-0.19L0.422,-0.335C0.422,-0.464 0.354,-0.539 0.254,-0.539ZM0.323,-0.19C0.323,-0.113 0.294,-0.079 0.238,-0.079C0.185,-0.079 0.153,-0.121 0.153,-0.19L0.153,-0.336C0.153,-0.411 0.188,-0.448 0.238,-0.448C0.292,-0.448 0.323,-0.413 0.323,-0.335L0.323,-0.19Z" style="fill-rule:nonzero;"/>
            </g>
            <g transform="matrix(49.8673,20.8824,-20.8824,49.8673,7190.73,475.1)">
                <path d="M0.224,0.011C0.336,0.011 0.406,-0.059 0.409,-0.182L0.312,-0.182C0.309,-0.115 0.279,-0.082 0.225,-0.082C0.174,-0.082 0.144,-0.115 0.144,-0.182L0.144,-0.348C0.144,-0.415 0.174,-0.447 0.225,-0.447C0.278,-0.447 0.307,-0.415 0.309,-0.348L0.407,-0.348C0.403,-0.47 0.338,-0.54 0.224,-0.54C0.114,-0.54 0.046,-0.47 0.046,-0.348L0.046,-0.182C0.046,-0.059 0.114,0.011 0.224,0.011Z" style="fill-rule:nonzero;"/>
            </g>
            <g transform="matrix(47.5491,25.7275,-25.7275,47.5491,7212.56,484.174)">
                <path d="M0.058,-0L0.157,-0L0.258,-0.211C0.279,-0.256 0.312,-0.351 0.317,-0.373L0.32,-0.372C0.317,-0.319 0.315,-0.253 0.315,-0.202L0.315,-0L0.409,-0L0.409,-0.527L0.31,-0.527L0.208,-0.306C0.191,-0.263 0.161,-0.184 0.153,-0.157L0.15,-0.159C0.152,-0.216 0.152,-0.263 0.152,-0.305L0.152,-0.527L0.058,-0.527L0.058,-0Z" style="fill-rule:nonzero;"/>
            </g>
            <g transform="matrix(44.974,30.0028,-30.0028,44.974,7234.77,496.354)">
                <path d="M0.347,-0.527L0.01,-0.527L0.01,-0.436L0.13,-0.436L0.13,-0L0.226,-0L0.226,-0.436L0.347,-0.436L0.347,-0.527Z" style="fill-rule:nonzero;"/>
            </g>
            <g transform="matrix(42.1906,33.805,-33.805,42.1906,7250.12,506.392)">
                <path d="M0.32,-0.165C0.311,-0.108 0.286,-0.082 0.227,-0.082C0.174,-0.082 0.143,-0.115 0.143,-0.187L0.143,-0.227L0.41,-0.227L0.41,-0.344C0.41,-0.469 0.339,-0.54 0.226,-0.54C0.115,-0.54 0.046,-0.469 0.046,-0.344L0.046,-0.187C0.046,-0.061 0.115,0.011 0.225,0.011C0.339,0.011 0.408,-0.053 0.417,-0.165L0.32,-0.165ZM0.227,-0.449C0.282,-0.449 0.314,-0.417 0.314,-0.345L0.314,-0.3L0.143,-0.3L0.143,-0.345C0.143,-0.417 0.174,-0.449 0.227,-0.449Z" style="fill-rule:nonzero;"/>
            </g>
            <g transform="matrix(39.0169,37.4234,-37.4234,39.0169,7269.22,521.835)">
                <path d="M0.347,-0.527L0.01,-0.527L0.01,-0.436L0.13,-0.436L0.13,-0L0.226,-0L0.226,-0.436L0.347,-0.436L0.347,-0.527Z" style="fill-rule:nonzero;"/>
            </g>
            <g transform="matrix(32.6262,43.1087,-43.1087,32.6262,7298.32,552.711)">
                <path d="M0.106,-0.615C0.142,-0.615 0.168,-0.642 0.168,-0.676C0.168,-0.712 0.142,-0.738 0.106,-0.738C0.07,-0.738 0.045,-0.712 0.045,-0.676C0.045,-0.641 0.07,-0.615 0.106,-0.615ZM0.058,-0L0.155,-0L0.155,-0.527L0.058,-0.527L0.058,-0Z" style="fill-rule:nonzero;"/>
            </g>
            <g transform="matrix(28.8096,45.7475,-45.7475,28.8096,7305.65,561.74)">
                <path d="M0.4,-0.527L0.319,-0.337C0.305,-0.3 0.291,-0.265 0.279,-0.227L0.276,-0.227C0.265,-0.265 0.251,-0.3 0.236,-0.337L0.155,-0.527L0.058,-0.527L0.058,-0L0.148,-0L0.148,-0.209C0.148,-0.264 0.144,-0.318 0.142,-0.364L0.147,-0.365C0.162,-0.319 0.176,-0.272 0.19,-0.233L0.233,-0.131L0.322,-0.131L0.365,-0.233C0.379,-0.272 0.394,-0.319 0.408,-0.365L0.413,-0.364C0.411,-0.318 0.407,-0.264 0.407,-0.209L0.407,-0L0.497,-0L0.497,-0.527L0.4,-0.527Z" style="fill-rule:nonzero;"/>
            </g>
            <g transform="matrix(24.8764,47.9999,-47.9999,24.8764,7321.3,587.367)">
                <path d="M0.097,0.011C0.133,0.011 0.158,-0.013 0.158,-0.05C0.158,-0.086 0.133,-0.11 0.097,-0.11C0.061,-0.11 0.036,-0.086 0.036,-0.05C0.036,-0.013 0.061,0.011 0.097,0.011Z" style="fill-rule:nonzero;"/>
            </g>
            <g transform="matrix(17.5603,51.1318,-51.1318,17.5603,7331.61,606.981)">
                <path d="M0.515,-0.7L0.397,-0.416C0.381,-0.376 0.357,-0.309 0.346,-0.277L0.342,-0.277C0.331,-0.309 0.307,-0.376 0.291,-0.416L0.173,-0.7L0.07,-0.7L0.07,-0L0.169,-0L0.169,-0.273C0.167,-0.353 0.164,-0.426 0.161,-0.499L0.165,-0.501C0.185,-0.445 0.209,-0.381 0.233,-0.317L0.294,-0.158L0.394,-0.158L0.455,-0.317C0.479,-0.381 0.503,-0.445 0.523,-0.501L0.527,-0.499C0.523,-0.426 0.521,-0.353 0.519,-0.273L0.519,-0L0.618,-0L0.618,-0.7L0.515,-0.7Z" style="fill-rule:nonzero;"/>
            </g>
            <g transform="matrix(12.3985,52.6223,-52.6223,12.3985,7343.06,642.374)">
                <path d="M0.097,0.011C0.133,0.011 0.158,-0.013 0.158,-0.05C0.158,-0.086 0.133,-0.11 0.097,-0.11C0.061,-0.11 0.036,-0.086 0.036,-0.05C0.036,-0.013 0.061,0.011 0.097,0.011Z" style="fill-rule:nonzero;"/>
            </g>
            <g transform="matrix(8.02816,53.4638,-53.4638,8.02816,7345.84,652.488)">
                <path d="M0.47,-0.7L0.07,-0.7L0.07,-0L0.171,-0L0.171,-0.604L0.369,-0.604L0.369,-0L0.47,-0L0.47,-0.7Z" style="fill-rule:nonzero;"/>
            </g>
            <g transform="matrix(3.63792,53.9406,-53.9406,3.63792,7349.79,681.365)">
                <path d="M0.097,0.011C0.133,0.011 0.158,-0.013 0.158,-0.05C0.158,-0.086 0.133,-0.11 0.097,-0.11C0.061,-0.11 0.036,-0.086 0.036,-0.05C0.036,-0.013 0.061,0.011 0.097,0.011Z" style="fill-rule:nonzero;"/>
            </g>
            <g transform="matrix(-0.878575,54.056,-54.056,-0.878575,7350.91,692.41)">
                <path d="M0.475,-0.095L0.475,-0.7L0.138,-0.7L0.126,-0.362C0.122,-0.252 0.098,-0.147 0.047,-0.095L0.006,-0.095L0.006,0.117L0.105,0.117L0.105,-0L0.438,-0L0.438,0.117L0.537,0.117L0.537,-0.095L0.475,-0.095ZM0.375,-0.095L0.168,-0.095C0.201,-0.154 0.219,-0.235 0.223,-0.334L0.233,-0.605L0.375,-0.605L0.375,-0.095Z" style="fill-rule:nonzero;"/>
            </g>
            <g transform="matrix(-7.07938,53.5977,-53.5977,-7.07938,7350.31,722.147)">
                <path d="M0.254,-0.539C0.207,-0.539 0.161,-0.513 0.135,-0.479L0.128,-0.528L0.058,-0.528L0.058,0.18L0.153,0.18L0.153,-0.03C0.179,-0.003 0.216,0.012 0.254,0.012C0.356,0.012 0.422,-0.062 0.422,-0.19L0.422,-0.335C0.422,-0.464 0.354,-0.539 0.254,-0.539ZM0.323,-0.19C0.323,-0.113 0.294,-0.079 0.238,-0.079C0.185,-0.079 0.153,-0.121 0.153,-0.19L0.153,-0.336C0.153,-0.411 0.188,-0.448 0.238,-0.448C0.292,-0.448 0.323,-0.413 0.323,-0.335L0.323,-0.19Z" style="fill-rule:nonzero;"/>
            </g>
            <g transform="matrix(-12.3368,52.6368,-52.6368,-12.3368,7346.96,747.18)">
                <path d="M0.225,-0.54C0.119,-0.54 0.051,-0.478 0.046,-0.377L0.143,-0.377C0.148,-0.424 0.18,-0.447 0.223,-0.447C0.276,-0.447 0.299,-0.412 0.299,-0.35L0.299,-0.313L0.222,-0.313C0.106,-0.313 0.031,-0.258 0.031,-0.15C0.031,-0.051 0.096,0.013 0.193,0.013C0.251,0.013 0.289,-0.014 0.31,-0.049L0.317,-0L0.396,-0L0.396,-0.35C0.396,-0.471 0.338,-0.54 0.225,-0.54ZM0.299,-0.157C0.299,-0.107 0.266,-0.073 0.213,-0.073C0.16,-0.073 0.129,-0.102 0.129,-0.15C0.129,-0.202 0.163,-0.229 0.222,-0.229L0.299,-0.229L0.299,-0.157Z" style="fill-rule:nonzero;"/>
            </g>
            <g transform="matrix(-17.422,51.1791,-51.1791,-17.422,7341.26,771.006)">
                <path d="M0.332,-0.528L0.058,-0.528L0.058,-0L0.156,-0L0.156,-0.435L0.332,-0.435L0.332,-0.528Z" style="fill-rule:nonzero;"/>
            </g>
            <g transform="matrix(-21.5864,49.5667,-49.5667,-21.5864,7335.69,788.014)">
                <path d="M0.231,0.012C0.346,0.012 0.417,-0.059 0.417,-0.188L0.417,-0.34C0.417,-0.469 0.346,-0.54 0.231,-0.54C0.117,-0.54 0.046,-0.469 0.046,-0.34L0.046,-0.188C0.046,-0.059 0.117,0.012 0.231,0.012ZM0.231,-0.082C0.177,-0.082 0.144,-0.114 0.144,-0.188L0.144,-0.34C0.144,-0.414 0.177,-0.446 0.231,-0.446C0.286,-0.446 0.319,-0.414 0.319,-0.34L0.319,-0.188C0.319,-0.114 0.286,-0.082 0.231,-0.082Z" style="fill-rule:nonzero;"/>
            </g>
            <g transform="matrix(-27.0831,46.7903,-46.7903,-27.0831,7325.83,811.022)">
                <path d="M0.4,-0.527L0.319,-0.337C0.305,-0.3 0.291,-0.265 0.279,-0.227L0.276,-0.227C0.265,-0.265 0.251,-0.3 0.236,-0.337L0.155,-0.527L0.058,-0.527L0.058,-0L0.148,-0L0.148,-0.209C0.148,-0.264 0.144,-0.318 0.142,-0.364L0.147,-0.365C0.162,-0.319 0.176,-0.272 0.19,-0.233L0.233,-0.131L0.322,-0.131L0.365,-0.233C0.379,-0.272 0.394,-0.319 0.408,-0.365L0.413,-0.364C0.411,-0.318 0.407,-0.264 0.407,-0.209L0.407,-0L0.497,-0L0.497,-0.527L0.4,-0.527Z" style="fill-rule:nonzero;"/>
            </g>
            <g transform="matrix(-32.0429,43.544,-43.544,-32.0429,7310.6,836.949)">
                <path d="M0.225,-0.54C0.119,-0.54 0.051,-0.478 0.046,-0.377L0.143,-0.377C0.148,-0.424 0.18,-0.447 0.223,-0.447C0.276,-0.447 0.299,-0.412 0.299,-0.35L0.299,-0.313L0.222,-0.313C0.106,-0.313 0.031,-0.258 0.031,-0.15C0.031,-0.051 0.096,0.013 0.193,0.013C0.251,0.013 0.289,-0.014 0.31,-0.049L0.317,-0L0.396,-0L0.396,-0.35C0.396,-0.471 0.338,-0.54 0.225,-0.54ZM0.299,-0.157C0.299,-0.107 0.266,-0.073 0.213,-0.073C0.16,-0.073 0.129,-0.102 0.129,-0.15C0.129,-0.202 0.163,-0.229 0.222,-0.229L0.299,-0.229L0.299,-0.157Z" style="fill-rule:nonzero;"/>
            </g>
            <g transform="matrix(-36.3939,39.9788,-39.9788,-36.3939,7296.02,856.696)">
                <path d="M0.302,-0.527L0.302,-0.315L0.155,-0.315L0.155,-0.527L0.058,-0.527L0.058,-0L0.155,-0L0.155,-0.225L0.302,-0.225L0.302,-0L0.399,-0L0.399,-0.527L0.302,-0.527Z" style="fill-rule:nonzero;"/>
            </g>
            <g transform="matrix(-40.2891,36.0502,-36.0502,-40.2891,7279.32,875.043)">
                <path d="M0.231,0.012C0.346,0.012 0.417,-0.059 0.417,-0.188L0.417,-0.34C0.417,-0.469 0.346,-0.54 0.231,-0.54C0.117,-0.54 0.046,-0.469 0.046,-0.34L0.046,-0.188C0.046,-0.059 0.117,0.012 0.231,0.012ZM0.231,-0.082C0.177,-0.082 0.144,-0.114 0.144,-0.188L0.144,-0.34C0.144,-0.414 0.177,-0.446 0.231,-0.446C0.286,-0.446 0.319,-0.414 0.319,-0.34L0.319,-0.188C0.319,-0.114 0.286,-0.082 0.231,-0.082Z" style="fill-rule:nonzero;"/>
            </g>
            <g transform="matrix(-43.7825,31.7162,-31.7162,-43.7825,7260.69,891.721)">
                <path d="M0.323,-0.28C0.36,-0.304 0.381,-0.343 0.381,-0.381C0.381,-0.472 0.323,-0.527 0.216,-0.527L0.058,-0.527L0.058,-0L0.224,-0C0.347,-0 0.408,-0.058 0.408,-0.153C0.408,-0.205 0.382,-0.257 0.323,-0.28ZM0.152,-0.446L0.21,-0.446C0.26,-0.446 0.286,-0.42 0.286,-0.379C0.286,-0.335 0.26,-0.311 0.211,-0.311L0.152,-0.311L0.152,-0.446ZM0.228,-0.082L0.152,-0.082L0.152,-0.229L0.228,-0.229C0.285,-0.229 0.312,-0.204 0.312,-0.156C0.312,-0.108 0.285,-0.082 0.228,-0.082Z" style="fill-rule:nonzero;"/>
            </g>
            <g transform="matrix(-46.5015,27.5759,-27.5759,-46.5015,7241.85,905.417)">
                <path d="M0.225,-0.54C0.119,-0.54 0.051,-0.478 0.046,-0.377L0.143,-0.377C0.148,-0.424 0.18,-0.447 0.223,-0.447C0.276,-0.447 0.299,-0.412 0.299,-0.35L0.299,-0.313L0.222,-0.313C0.106,-0.313 0.031,-0.258 0.031,-0.15C0.031,-0.051 0.096,0.013 0.193,0.013C0.251,0.013 0.289,-0.014 0.31,-0.049L0.317,-0L0.396,-0L0.396,-0.35C0.396,-0.471 0.338,-0.54 0.225,-0.54ZM0.299,-0.157C0.299,-0.107 0.266,-0.073 0.213,-0.073C0.16,-0.073 0.129,-0.102 0.129,-0.15C0.129,-0.202 0.163,-0.229 0.222,-0.229L0.299,-0.229L0.299,-0.157Z" style="fill-rule:nonzero;"/>
            </g>
            <g transform="matrix(57.466,12.3873,-12.3873,57.466,7037.12,972.489)">
                <path d="M0.325,-0.681L0.39,-0.681L0.39,-0.07L0.401,-0.054L0.495,-0.05L0.495,-0L0.148,-0L0.148,-0.05L0.248,-0.056L0.26,-0.074L0.26,-0.566L0.251,-0.578L0.109,-0.557L0.109,-0.608L0.325,-0.681Z" style="fill-rule:nonzero;"/>
            </g>
            <g transform="matrix(58.7125,2.93762,-2.93762,58.7125,7071.02,979.039)">
                <path d="M0.222,-0.314C0.2,-0.294 0.185,-0.275 0.175,-0.255C0.165,-0.235 0.16,-0.214 0.16,-0.19C0.16,-0.148 0.173,-0.114 0.198,-0.087C0.223,-0.059 0.255,-0.046 0.293,-0.046C0.329,-0.046 0.358,-0.056 0.38,-0.075C0.402,-0.095 0.413,-0.121 0.413,-0.152C0.413,-0.184 0.4,-0.212 0.374,-0.235C0.347,-0.258 0.297,-0.285 0.222,-0.314ZM0.394,-0.356C0.444,-0.338 0.48,-0.315 0.504,-0.287C0.527,-0.259 0.539,-0.224 0.539,-0.182C0.539,-0.123 0.516,-0.075 0.47,-0.039C0.424,-0.003 0.362,0.015 0.284,0.015C0.212,0.015 0.154,-0.003 0.109,-0.039C0.064,-0.076 0.042,-0.122 0.042,-0.179C0.042,-0.218 0.053,-0.251 0.076,-0.278C0.099,-0.305 0.133,-0.325 0.177,-0.338C0.142,-0.354 0.116,-0.375 0.098,-0.401C0.08,-0.428 0.071,-0.459 0.071,-0.494C0.071,-0.552 0.092,-0.598 0.134,-0.633C0.177,-0.668 0.233,-0.685 0.303,-0.685C0.365,-0.685 0.416,-0.669 0.454,-0.636C0.493,-0.604 0.512,-0.562 0.512,-0.511C0.512,-0.477 0.502,-0.447 0.482,-0.421C0.462,-0.395 0.433,-0.373 0.394,-0.356ZM0.347,-0.379C0.364,-0.395 0.377,-0.414 0.386,-0.434C0.395,-0.455 0.399,-0.478 0.399,-0.502C0.399,-0.538 0.389,-0.568 0.37,-0.591C0.35,-0.614 0.325,-0.625 0.293,-0.625C0.265,-0.625 0.242,-0.615 0.224,-0.596C0.206,-0.577 0.197,-0.553 0.197,-0.524C0.197,-0.494 0.208,-0.468 0.232,-0.445C0.255,-0.422 0.294,-0.4 0.347,-0.379Z" style="fill-rule:nonzero;"/>
            </g>
            <g transform="matrix(58.7639,-1.60866,1.60866,58.7639,7109.16,980.522)">
                <path d="M0.334,-0.353C0.394,-0.348 0.44,-0.332 0.473,-0.304C0.506,-0.276 0.523,-0.239 0.523,-0.193C0.523,-0.134 0.497,-0.085 0.445,-0.046C0.394,-0.008 0.326,0.011 0.244,0.011C0.186,0.011 0.138,-0.001 0.099,-0.025C0.061,-0.049 0.042,-0.079 0.042,-0.114C0.042,-0.134 0.049,-0.149 0.062,-0.161C0.075,-0.173 0.092,-0.179 0.113,-0.179C0.118,-0.179 0.124,-0.179 0.13,-0.177C0.136,-0.176 0.143,-0.174 0.152,-0.171L0.184,-0.063C0.197,-0.058 0.209,-0.054 0.221,-0.052C0.232,-0.049 0.243,-0.048 0.253,-0.048C0.291,-0.048 0.323,-0.061 0.348,-0.088C0.374,-0.115 0.387,-0.148 0.387,-0.187C0.387,-0.224 0.375,-0.254 0.349,-0.276C0.324,-0.299 0.291,-0.31 0.249,-0.31C0.24,-0.31 0.23,-0.31 0.22,-0.309C0.209,-0.308 0.198,-0.307 0.187,-0.305L0.187,-0.377C0.191,-0.377 0.194,-0.376 0.198,-0.376C0.203,-0.376 0.208,-0.376 0.216,-0.376C0.262,-0.376 0.299,-0.387 0.324,-0.408C0.35,-0.43 0.363,-0.46 0.363,-0.499C0.363,-0.534 0.351,-0.562 0.328,-0.585C0.305,-0.607 0.276,-0.618 0.239,-0.618C0.23,-0.618 0.221,-0.617 0.212,-0.615C0.202,-0.613 0.193,-0.61 0.183,-0.606L0.183,-0.489C0.175,-0.484 0.167,-0.48 0.159,-0.478C0.15,-0.476 0.141,-0.475 0.13,-0.475C0.109,-0.475 0.091,-0.482 0.078,-0.494C0.065,-0.507 0.058,-0.524 0.058,-0.544C0.058,-0.582 0.079,-0.615 0.122,-0.642C0.164,-0.669 0.217,-0.682 0.281,-0.682C0.346,-0.682 0.398,-0.666 0.438,-0.635C0.478,-0.604 0.498,-0.563 0.498,-0.513C0.498,-0.473 0.484,-0.44 0.456,-0.412C0.428,-0.385 0.388,-0.365 0.334,-0.353Z" style="fill-rule:nonzero;"/>
            </g>
            <g transform="matrix(57.7812,-10.8218,10.8218,57.7812,7145.3,980.481)">
                <path d="M0.336,-0.539L0.116,-0.26L0.336,-0.26L0.336,-0.539ZM0.355,-0.677L0.453,-0.677L0.453,-0.26L0.566,-0.26L0.566,-0.181L0.453,-0.181L0.453,0.01L0.336,0.01L0.336,-0.181L0.025,-0.181L0.025,-0.262L0.355,-0.677Z" style="fill-rule:nonzero;"/>
            </g>
            <g transform="matrix(1,0,0,1,6082.38,-323.532)">
                <path d="M1215.8,704.6L1255.8,704.6C1244.6,712.4 1234.1,719.7 1223.2,727.3C1227.5,739.6 1231.7,751.9 1236.4,765.5C1225.1,756.9 1214.8,749.2 1204.2,741.1C1193.7,749.1 1183.2,757 1172,765.6C1176.6,752.4 1180.9,740 1185.2,727.4C1174.4,719.9 1164.1,712.7 1152.8,704.9L1192.5,704.9C1196.2,692.6 1200,680.1 1204.2,666.5C1208.3,679.6 1212,691.8 1215.8,704.6Z" style="fill-rule:nonzero;"/>
            </g>
            <g transform="matrix(1,0,0,1,6082.38,-323.532)">
                <path d="M657.6,1013C661.3,1000.7 665.1,988.2 669.2,974.7C670.4,978.5 671.4,981.5 672.4,984.6C675.1,993.6 677.7,1002.7 680.6,1011.6C680.9,1012.5 683.1,1013.4 684.4,1013.4C696,1013.3 707.5,1012.9 719.1,1012.7C719.5,1012.7 719.9,1012.8 720.9,1012.9C709.9,1020.6 699.3,1027.9 688.2,1035.6C692.5,1048 696.8,1060.4 701.4,1073.8C690.2,1065.3 679.8,1057.4 669.2,1049.4C658.6,1057.4 648.3,1065.3 637.1,1073.8C638.6,1069.4 639.8,1065.7 641.1,1062.1C643.9,1054.2 646.8,1046.2 649.4,1038.2C649.8,1037 648.9,1034.7 647.8,1034C639,1027.7 630,1021.6 621,1015.4C620.1,1014.8 619.4,1014.1 618.3,1013.3C631.3,1013 644,1013 657.6,1013Z" style="fill-rule:nonzero;"/>
            </g>
            <g transform="matrix(1,0,0,1,6082.38,-323.532)">
                <path d="M688.4,892.8C693,879.7 697.2,867.5 701.7,854.7C691,847.3 680.2,839.7 668.9,831.8C676,831.8 682.4,831.7 688.9,831.8C693.9,831.9 698.9,832 703.9,832.6C707.9,833 709.5,831.5 710.5,827.8C713.4,817.4 716.6,807 719.6,796.7C719.8,796.2 720.2,795.8 720.9,794.6C724.9,807.6 728.6,820 732.3,832L772,832C761,839.7 750.3,847.1 739.6,854.6C744,867.1 748.3,879.5 752.9,892.8C741.7,884.3 731.3,876.4 720.7,868.3C710.3,876.3 699.8,884.2 688.4,892.8Z" style="fill-rule:nonzero;"/>
            </g>
            <g transform="matrix(1,0,0,1,6082.38,-323.532)">
                <path d="M1185,1345.5C1174,1337.8 1163.6,1330.6 1152.3,1322.8C1154.3,1322.7 1155.3,1322.6 1156.2,1322.6C1166.7,1322.9 1177.2,1322.9 1187.7,1323.6C1194.2,1324.1 1193.4,1319 1194.6,1315.6C1197.6,1306.4 1200.2,1297 1203,1287.6C1203.1,1287.1 1203.5,1286.8 1204.3,1285.6C1208.2,1298.5 1212,1310.8 1215.7,1323L1255.3,1323C1244.5,1330.5 1234.1,1337.7 1223,1345.5C1227.2,1357.6 1231.4,1370 1236.1,1383.7C1224.7,1375.1 1214.4,1367.3 1204,1359.3C1193.6,1367.2 1183.3,1375 1173,1382.8C1172.8,1382.7 1172.5,1382.5 1172.3,1382.4C1176.4,1370.2 1180.7,1357.9 1185,1345.5Z" style="fill-rule:nonzero;"/>
            </g>
            <g transform="matrix(1,0,0,1,6082.38,-323.532)">
                <path d="M835.8,705.1C839.4,693.1 843.2,680.7 847.4,667.1C849,672 850.2,675.7 851.3,679.4C853.7,687.5 856,695.6 858.6,703.6C858.9,704.5 860.9,705.6 862,705.5C873.2,705.3 884.5,705 895.7,704.7L899.7,704.7C887.9,712.9 877.1,720.4 866.3,727.9C870.7,740.5 875,752.8 879.6,766.1C868.2,757.5 857.7,749.5 847.3,741.6C836.7,749.7 826.3,757.6 815.1,766.1C819.7,752.8 824,740.5 828.4,727.9C817.7,720.4 806.9,712.9 795.7,705.2C809.2,705.1 822,705.1 835.8,705.1Z" style="fill-rule:nonzero;"/>
            </g>
            <g transform="matrix(1,0,0,1,6082.38,-323.532)">
                <path d="M1301.7,896.1C1304.7,887.4 1307.4,879.7 1310.1,872.1C1311.5,868.1 1313.2,864.1 1314.3,859.9C1314.6,858.8 1313.4,856.8 1312.3,856C1303.3,849.6 1294.2,843.4 1285.1,837.1C1284.4,836.6 1283.8,835.9 1283,835.2L1322.4,835.2C1326.1,823.1 1329.9,810.7 1333.6,798.4L1334.4,798.4C1338.1,810.7 1341.9,822.9 1345.6,835.2L1385.6,835.2C1381.2,838.3 1377.3,841 1373.4,843.7C1367.3,847.9 1361.2,852 1355.3,856.5C1354.3,857.2 1353.6,859.5 1354,860.6C1357.7,871.6 1361.6,882.6 1365.5,893.6C1365.7,894.1 1365.8,894.7 1366.1,895.9C1355.2,887.6 1344.8,879.7 1334.1,871.7C1323.5,879.5 1313.1,887.5 1301.7,896.1Z" style="fill-rule:nonzero;"/>
            </g>
            <g transform="matrix(1,0,0,1,6082.38,-323.532)">
                <path d="M1077.6,1368.6C1065.9,1376.7 1055.1,1384.3 1044.3,1391.8C1048.7,1404.4 1053,1416.7 1057.6,1430C1046.3,1421.4 1035.8,1413.4 1025.3,1405.5C1014.7,1413.6 1004.4,1421.4 993.1,1430C997.8,1416.6 1002,1404.3 1006.4,1391.8C995.6,1384.3 984.9,1376.8 973.7,1369.1L1013.7,1369.1C1017.3,1357.2 1021.1,1344.8 1025.3,1331.2C1026.6,1334.9 1027.5,1337.5 1028.3,1340.2C1031,1349.3 1033.7,1358.4 1036.6,1367.4C1036.9,1368.4 1038.9,1369.5 1040.1,1369.5C1051.1,1369.4 1062.1,1369 1073.1,1368.6L1077.6,1368.6Z" style="fill-rule:nonzero;"/>
            </g>
            <g transform="matrix(1,0,0,1,6082.38,-323.532)">
                <path d="M901.4,1325.1C890.2,1332.9 879.5,1340.3 868.7,1347.9C873,1360.2 877.3,1372.5 882,1386.1C870.8,1377.6 860.6,1369.8 849.8,1361.7C839.4,1369.5 828.9,1377.5 817.5,1386.1C822.1,1372.8 826.4,1360.5 830.8,1348C819.9,1340.4 809.1,1332.9 798,1325.2L838.1,1325.2C841.8,1312.9 845.5,1300.6 849.3,1288.3C849.6,1288.3 849.9,1288.4 850.1,1288.4C853.8,1300.8 857.6,1313.1 861.2,1325.1L901.4,1325.1Z" style="fill-rule:nonzero;"/>
            </g>
            <g transform="matrix(1,0,0,1,6082.38,-323.532)">
                <path d="M1059,715.3C1048.7,707.5 1038.5,699.7 1028.1,691.8C1017.7,699.7 1007.4,707.5 997.2,715.2C996.9,715 996.7,714.9 996.4,714.7C1000.6,702.5 1004.8,690.3 1009.1,678C998.2,670.4 987.8,663.2 976.5,655.3L1016.5,655.3C1020.2,643 1024,630.7 1028.1,617.1C1032.2,630.6 1035.9,642.9 1039.7,655.3L1079.7,655.3C1068.4,663.2 1058,670.4 1047.1,678C1051.3,690.2 1055.6,702.5 1059.8,714.7C1059.5,715 1059.2,715.2 1059,715.3Z" style="fill-rule:nonzero;"/>
            </g>
            <g transform="matrix(1,0,0,1,6082.38,-323.532)">
                <path d="M1329,1012.2L1369.2,1012.2C1372.9,999.8 1376.6,987.6 1380.7,974.1C1384.9,987.8 1388.6,1000.1 1392.3,1012.2L1432.5,1012.2C1421.3,1020 1410.7,1027.4 1399.7,1035C1404,1047.3 1408.2,1059.6 1412.9,1073.1C1401.6,1064.5 1391.4,1056.8 1380.8,1048.7C1370.5,1056.5 1360.1,1064.4 1348.6,1073.1C1353.3,1059.7 1357.5,1047.4 1361.8,1035C1350.9,1027.4 1340.2,1019.9 1329,1012.2Z" style="fill-rule:nonzero;"/>
            </g>
            <g transform="matrix(1,0,0,1,6082.38,-323.532)">
                <path d="M1304.3,1248.8C1308.5,1236.6 1312.7,1224.5 1317,1212.1C1306.2,1204.6 1295.8,1197.3 1284.4,1189.3L1324.4,1189.3C1328.1,1177 1331.9,1164.7 1336,1151.1C1340.1,1164.7 1343.8,1177 1347.6,1189.3L1387.6,1189.3C1376.4,1197.2 1365.9,1204.4 1355,1212.1C1359.3,1224.4 1363.5,1236.6 1367.7,1248.9C1367.5,1249.1 1367.2,1249.2 1367,1249.4C1356.8,1241.7 1346.6,1233.9 1336,1225.9C1325.7,1233.7 1315.4,1241.5 1305.1,1249.3C1304.8,1249.1 1304.5,1249 1304.3,1248.8Z" style="fill-rule:nonzero;"/>
            </g>
            <g transform="matrix(1,0,0,1,6082.38,-323.532)">
                <path d="M767.7,1191.3C756.4,1199.2 745.9,1206.5 735.1,1214.1C739.4,1226.5 743.6,1238.8 748.3,1252.2C736.9,1243.6 726.7,1235.8 716.1,1227.8C705.7,1235.7 695.4,1243.5 684.1,1252.1C685.6,1247.4 686.7,1243.9 687.9,1240.4C690.7,1232.4 693.7,1224.4 696.3,1216.3C696.6,1215.2 695.6,1213 694.6,1212.3C685.7,1205.9 676.7,1199.7 667.7,1193.5C666.9,1193 666.2,1192.3 665,1191.3L704.6,1191.3C708.3,1179.2 712,1166.8 716.2,1153.2C720.3,1166.7 724,1179.1 727.8,1191.3L767.7,1191.3Z" style="fill-rule:nonzero;"/>
            </g>
            <g>
                <g transform="matrix(1.01889,0,0,1.01889,-940.776,-36.9442)">
                    <path d="M7877.01,843.209C7876.02,844.754 7875.58,845.306 7874.92,846.188C7873.81,845.195 7873.04,844.423 7872.27,843.65C7872.38,843.209 7872.49,842.878 7872.6,842.437C7873.81,842.657 7875.03,842.878 7877.01,843.209ZM7939.75,781.979L7939.75,781.979C7939.75,781.979 7939.75,781.98 7939.74,781.981C7939.72,781.995 7939.64,782.077 7939.58,782.187L7939.58,782.188C7939.73,782.039 7939.77,781.98 7939.75,781.979ZM7877.12,745.333C7872.93,748.643 7868.3,745.223 7867.86,738.712C7868.52,735.181 7869.18,731.76 7870.17,726.685C7871.72,729.333 7872.49,730.547 7873.26,731.871C7875.47,731.319 7877.9,730.767 7880.32,730.105C7880.54,730.547 7880.77,730.988 7880.99,731.429C7880.32,731.981 7879.77,732.753 7879,733.195C7877.79,733.967 7876.35,734.409 7875.03,735.181C7869.95,738.271 7869.95,740.257 7874.81,743.236C7875.58,743.788 7876.24,744.56 7877.12,745.333ZM7886.17,719.622C7887.16,718.409 7887.72,717.747 7889.04,716.091C7890.26,716.974 7892.46,717.526 7892.79,718.74C7894.45,724.367 7891.25,730.436 7886.61,731.098C7880.99,726.685 7878.23,719.402 7881.76,716.202C7883.08,717.305 7884.52,718.409 7886.17,719.622ZM7917.95,658.491C7922.48,660.477 7925.9,662.795 7929.65,663.236C7933.18,663.677 7937.7,665.222 7941.23,658.933C7942.56,662.905 7943.44,665.664 7944.32,668.422C7945.87,673.498 7947.19,678.795 7949.07,683.76C7949.62,685.305 7951.83,686.298 7953.04,688.395C7951.61,687.953 7949.95,687.843 7948.74,687.071C7943.22,683.65 7937.37,684.533 7932.74,689.277C7932.08,689.94 7928.99,689.719 7928.32,688.836C7924.02,682.988 7922.7,682.436 7915.41,683.871C7913.98,684.202 7912.55,684.091 7911.33,684.202C7908.35,679.236 7909.35,674.933 7913.65,672.174C7915.3,671.07 7916.52,669.305 7918.28,667.429C7916.63,666.767 7915.63,666.436 7914.64,666.105C7912.65,661.691 7915.86,659.815 7917.95,658.491ZM8006.45,650.767C8003.58,649.995 8001.15,648.119 8003.36,642.932C8001.15,642.601 7999.28,642.27 7997.51,641.939C7998.28,638.629 7998.95,635.539 7999.94,631.346C7997.29,632.229 7996.41,632.56 7995.52,632.891C7991.44,627.484 7993.1,622.96 7999.17,618.877C7995.97,618.105 7994.31,617.663 7992.65,617.332C7992.55,616.891 7992.55,616.45 7992.43,616.008C7994.2,615.567 7995.97,615.125 7998.72,614.574C7997.62,612.919 7996.63,611.374 7995.41,610.05C7991.66,605.856 7987.91,601.774 7984.71,598.132C7987.58,585.774 7982.17,577.939 7967.06,570.987C7966.72,569.443 7966.28,567.677 7965.73,565.47C7971.36,563.484 7975.99,565.58 7980.3,568.118C7985.7,571.318 7984.49,577.387 7986.36,583.787C7988.68,584.56 7991.99,585.663 7996.52,587.208C7999.28,593.056 8001.7,600.118 8002.03,608.063C8002.26,612.588 8003.58,617.332 8005.12,621.636C8007.22,627.484 8010.2,633.112 8012.41,638.96C8013.4,641.719 8013.18,644.257 8009.32,645.36C8008.1,645.581 8007.55,648.45 8006.45,650.767ZM7903.64,611.526C7905.01,612.396 7906.46,613.277 7907.91,614.243C7907.69,614.684 7907.47,615.015 7907.36,615.456C7906.5,615.263 7905.64,615.07 7904.78,614.877L7899.57,613.719C7898.7,613.525 7897.84,613.332 7896.99,613.139C7896.99,612.808 7896.99,612.477 7897.1,612.146C7898.97,611.815 7900.85,611.484 7903.06,611.153L7903.64,611.526ZM7911.88,595.374C7916.08,596.036 7920.16,596.698 7924.35,597.36C7927.11,597.801 7929.76,598.353 7932.52,598.463C7935.39,598.463 7938.36,597.912 7941.23,597.801C7942.01,597.801 7942.89,598.243 7943.99,598.574C7936.71,603.429 7916.74,602.325 7911.66,597.029C7911.77,596.367 7911.77,595.815 7911.88,595.374ZM7896.77,594.381C7894.89,594.932 7893.18,595.456 7891.48,595.981C7889.79,596.505 7888.1,597.029 7886.28,597.581C7888.27,592.615 7892.24,591.401 7896.77,594.381ZM7920.82,589.636L7931.86,589.636C7931.86,590.077 7931.86,590.518 7931.97,590.849C7930.6,590.932 7929.22,590.999 7927.83,591.063L7925.06,591.188C7923.68,591.251 7922.3,591.318 7920.93,591.401C7920.93,590.849 7920.93,590.298 7920.82,589.636ZM7907.47,586.767C7909.12,586.877 7910.78,587.098 7912.43,587.208C7912.43,587.649 7912.32,588.091 7912.32,588.532L7907.47,588.532C7907.36,587.981 7907.36,587.429 7907.47,586.767ZM7869.52,537.48C7875.31,537.545 7880.92,539.147 7882.42,541.746C7890.48,544.725 7897.43,547.373 7905.26,550.242C7903.39,551.346 7902.5,551.787 7901.29,552.56C7902.61,553.663 7903.94,554.546 7906.03,556.311C7903.28,556.642 7901.4,557.194 7899.63,557.084C7884.52,555.98 7869.84,557.415 7855.83,563.594C7852.52,565.029 7849.32,565.801 7846.12,561.608C7842.14,567.125 7838.39,572.311 7834.09,578.38C7832.32,577.167 7830.67,576.505 7829.79,575.291C7825.81,569.663 7818.2,566.905 7812.68,570.215C7815,570.767 7816.54,571.098 7817.98,571.539C7819.63,571.87 7820.96,572.532 7823.72,573.746C7817.98,576.725 7813.57,579.043 7809.15,581.36C7808.82,580.918 7808.38,580.587 7808.05,580.146C7808.93,578.049 7809.7,575.953 7810.7,573.525C7810.48,573.305 7809.92,572.643 7808.71,571.208C7810.36,569.332 7811.69,566.794 7813.79,565.58C7816.88,563.925 7820.19,561.056 7824.16,564.146C7825.92,565.47 7827.91,566.794 7829.79,568.008C7832.21,569.553 7836.52,568.449 7837.95,566.242C7839.61,563.594 7841.48,561.167 7843.36,558.739C7843.61,558.78 7843.87,558.806 7844.14,558.828L7844.68,558.87C7844.94,558.892 7845.21,558.918 7845.45,558.96C7844.68,557.636 7843.8,556.422 7843.14,554.987C7842.26,553.111 7840.93,551.125 7840.82,549.249C7840.82,548.367 7843.14,546.38 7844.35,546.491C7848.21,546.601 7852.19,547.373 7856.05,547.925C7857.92,548.256 7859.91,548.587 7862.12,547.815C7860.13,545.718 7858.14,543.622 7856.27,541.525C7858.8,538.68 7864.08,537.46 7869.26,537.478L7869.52,537.48ZM7915.95,556.075C7910.22,549.571 7904.93,543.617 7899.63,537.553C7900.63,536.67 7901.73,535.677 7903.83,533.691C7908.24,536.891 7913.43,539.87 7917.51,543.953C7921.81,548.256 7921.37,548.698 7925.57,545.277C7928.1,544.394 7930.64,543.511 7933.84,542.408C7934.17,543.07 7935.06,544.504 7935.94,546.16C7937.26,545.277 7938.48,544.504 7940.02,543.511C7942.23,545.056 7944.65,546.601 7946.86,548.477C7949.73,550.794 7952.49,553.222 7954.92,555.87C7955.69,556.753 7955.25,558.629 7955.47,561.167C7950.83,558.408 7947.3,556.422 7944.32,554.546C7941.23,554.987 7938.48,555.318 7935.5,555.76C7925.45,565.691 7921.92,566.353 7915.3,557.636C7915.55,556.981 7915.85,556.267 7915.95,556.075ZM7827.36,550.463C7831.44,543.18 7836.85,537.001 7845.12,533.691C7854.17,530.049 7863.33,526.298 7872.6,523.318C7878.67,521.332 7884.96,521.332 7891.14,524.311C7895.99,526.739 7901.29,528.284 7906.26,530.27C7904.49,530.932 7902.5,531.594 7900.52,532.367C7894.56,530.38 7888.82,527.622 7882.75,526.518C7875.36,525.194 7866.75,525.525 7861.57,530.822C7854.61,537.994 7845.9,540.311 7837.51,544.173C7833.87,545.718 7830.67,548.367 7827.36,550.463ZM7877.9,531.373L7871.39,531.373L7871.39,530.601L7878.01,530.601C7877.9,530.822 7877.9,531.153 7877.9,531.373ZM7977.59,658.933C7977.47,659.491 7977.35,660.05 7977.22,660.597L7977.1,661.139C7976.99,661.25 7976.77,661.47 7976.65,661.47C7966.95,662.243 7957.23,664.45 7948.3,658.05C7945.54,656.064 7941.9,655.291 7939.03,653.415C7937.15,652.091 7935.28,649.995 7934.61,647.898C7933.29,643.705 7932.74,639.181 7931.86,635.098C7927.33,633.884 7923.36,632.781 7918.95,631.567C7918.5,632.119 7917.84,633.001 7917.84,633.001C7917.4,640.615 7922.15,646.795 7918.72,655.291C7916.85,652.091 7915.63,650.105 7914.31,647.898C7914.09,647.898 7913.65,647.788 7913.43,648.008C7907.36,654.519 7898.75,653.084 7891.36,654.96C7888.49,655.733 7885.18,654.739 7882.09,654.298L7870.28,652.091C7864.32,651.208 7863.77,650.877 7856.49,641.388C7851.97,640.395 7847.77,639.07 7843.58,638.96C7841.59,638.85 7838.72,640.726 7837.73,642.601C7836.3,645.139 7836.63,648.119 7840.27,649.774C7842.36,650.767 7844.02,652.753 7846.01,654.408C7847.33,653.195 7848.43,652.312 7849.65,651.208L7857.7,651.208C7858.14,652.312 7859.25,653.746 7859.03,654.96C7858.48,659.374 7861.45,660.257 7864.54,661.47C7866.86,662.353 7868.85,664.229 7871.06,665.333C7872.93,666.215 7875.03,666.767 7876.68,667.319C7878.23,666.546 7879.33,665.995 7880.32,665.553C7881.43,667.539 7882.2,669.195 7883.19,671.07C7881.54,672.174 7879.88,673.277 7878.12,674.491C7878.89,676.698 7879.66,678.684 7880.77,681.774C7877.01,680.229 7874.26,678.022 7871.94,678.353C7869.84,678.684 7868.07,681.774 7866.53,683.319C7868.63,693.691 7868.63,693.691 7861.68,699.098C7863.66,701.305 7865.65,703.512 7867.63,705.829C7871.39,702.96 7874.03,700.864 7876.79,698.878C7879.22,697.222 7882.42,700.533 7882.64,704.836C7882.75,706.381 7882.64,707.926 7883.08,710.905C7880.32,711.457 7876.79,713.333 7874.81,712.229C7867.08,708.367 7859.58,703.953 7852.63,698.767C7849.87,696.671 7848.54,692.367 7847,688.836C7843.91,681.553 7840.93,674.16 7838.28,666.657C7836.74,662.243 7835.74,657.719 7834.42,652.532C7832.43,653.305 7830.67,653.857 7829.12,654.739C7826.7,655.953 7823.83,656.836 7822.28,658.822C7820.52,660.919 7820.07,664.119 7818.97,667.098C7821.29,667.87 7822.5,668.202 7823.72,668.643C7823.5,668.974 7823.16,669.305 7822.94,669.636C7825.15,671.733 7827.36,673.719 7829.57,675.815C7829.12,678.464 7828.46,681.553 7827.91,684.643C7828.35,684.643 7828.79,684.533 7829.34,684.533C7831.66,686.408 7833.98,688.284 7836.96,690.712L7840.27,690.712C7839.61,693.581 7839.06,696.119 7838.5,698.657C7837.62,702.519 7837.07,706.602 7835.74,710.353C7834.09,714.988 7831.99,719.512 7829.9,723.926C7827.91,728.119 7827.8,732.202 7830.34,736.285C7831.11,735.954 7831.77,735.512 7832.43,735.291C7836.96,736.285 7840.71,737.94 7841.15,743.347C7841.26,744.671 7842.59,745.995 7843.25,747.209C7845.45,745.995 7847.11,745.223 7849.76,743.788C7849.43,746.547 7849.32,747.871 7849.21,749.085C7852.3,751.071 7855.61,752.836 7858.48,755.043C7860.57,756.698 7862.01,759.347 7864.21,760.892C7866.53,762.547 7869.29,763.54 7871.94,764.864C7872.1,764.616 7872.27,764.352 7872.43,764.084L7872.77,763.547C7872.93,763.279 7873.1,763.016 7873.26,762.767C7876.46,765.526 7879.33,768.836 7882.86,771.043C7886.83,773.471 7891.36,774.795 7895.88,776.45C7896.43,776.671 7897.65,775.126 7898.53,774.464C7898.42,774.023 7898.2,773.581 7898.09,773.25C7896.21,773.14 7894.34,772.919 7892.02,772.698C7892.79,771.705 7893.45,770.933 7893.34,771.043C7894.45,768.174 7895.11,766.409 7895.77,764.533C7897.43,764.864 7898.42,765.085 7899.3,765.195C7900.85,769.498 7910.01,773.581 7912.88,770.381C7909.68,768.395 7906.7,766.519 7903.39,764.533C7908.02,758.905 7910.45,765.085 7913.87,766.078C7914.31,767.843 7914.75,769.719 7915.19,771.705C7917.84,766.298 7919.5,760.34 7923.14,756.257C7933.4,744.009 7933.73,744.229 7935.83,746.326C7932.19,755.595 7928.77,764.423 7925.23,773.361C7922.7,773.581 7919.83,773.802 7915.97,774.243C7916.63,777.002 7917.18,779.319 7917.73,781.636C7914.31,780.974 7910.56,779.319 7906.7,783.733C7909.01,784.064 7910.56,784.726 7911.77,784.285C7918.95,781.747 7922.15,787.485 7925.12,791.568C7927.44,794.768 7929.65,796.754 7933.4,796.754C7937.15,796.754 7939.36,797.968 7938.36,802.05C7941.68,804.147 7943.77,802.933 7943.99,798.74C7943.22,798.299 7942.23,797.747 7941.45,797.085C7939.36,795.319 7939.03,793.774 7941.79,791.899C7943.44,790.685 7944.77,788.478 7945.43,786.492C7947.63,779.981 7949.4,773.361 7951.39,766.85C7952.16,764.092 7952.82,761.223 7953.37,759.236L7965.51,759.236C7966.95,760.34 7969.04,761.885 7971.14,763.429C7971.03,764.754 7971.03,765.857 7970.92,766.74C7972.35,768.505 7973.68,770.161 7975.33,772.367C7973.23,773.14 7972.02,773.581 7969.7,774.464C7971.47,775.457 7972.68,776.23 7974.34,777.112C7974.67,777.554 7975.33,778.436 7976.65,780.312C7977.98,777.002 7978.97,774.574 7980.19,771.595C7980.63,771.595 7981.73,771.705 7982.61,771.264C7984.16,770.492 7985.48,769.278 7987.03,768.285C7988.57,767.292 7990.12,766.078 7991.77,765.526C7992.1,765.416 7993.54,767.623 7993.98,768.947C7994.75,771.154 7995.41,773.361 7995.41,775.678C7995.41,778.657 7995.63,782.299 7994.09,784.616C7989.79,791.236 7984.71,797.305 7979.19,804.478C7981.62,810.106 7985.37,816.506 7991.66,821.25C7995.86,824.34 7995.74,825.444 7991.33,827.871C7990.89,828.092 7990.34,828.202 7990.23,828.644C7985.26,838.795 7974.89,837.03 7966.61,838.354C7958.23,839.788 7953.81,844.975 7948.63,850.271C7944.43,854.685 7940.02,859.099 7935.16,862.63C7933.29,864.064 7929.43,864.064 7927,863.182C7922.26,861.526 7917.73,859.099 7913.54,856.34C7908.02,852.588 7901.84,852.037 7895.55,852.147C7893.57,852.147 7891.58,854.244 7889.59,855.126C7887.5,856.119 7885.4,856.782 7883.41,857.554C7880.54,853.361 7880.77,853.14 7892.13,845.526C7890.26,844.533 7888.93,843.65 7887.39,842.988C7884.63,841.664 7881.98,840.119 7879.11,839.016C7874.48,837.25 7869.73,834.823 7864.88,834.492C7856.71,833.83 7851.19,830.078 7846.56,823.899C7842.81,818.933 7838.83,814.188 7834.42,809.774C7831,806.354 7829.68,803.374 7832.21,798.74C7834.97,793.664 7836.63,788.036 7843.25,786.271C7845.79,785.609 7846.34,777.002 7844.35,774.574C7842.59,772.478 7840.82,770.381 7838.94,768.395C7834.31,763.65 7831.88,757.912 7831.22,751.512C7830.45,745.002 7826.03,741.36 7821.62,737.609C7804.74,723.374 7792.82,705.829 7786.64,684.533C7784.99,678.574 7784.32,672.284 7783.88,665.995C7783.44,659.926 7789.29,652.091 7795.14,650.215C7795.36,650.105 7795.69,649.995 7795.91,650.105C7801.65,652.643 7802.86,649.332 7802.53,643.705C7805.07,644.257 7807.72,644.036 7809.04,645.25C7812.24,648.339 7815,647.898 7817.98,645.36C7818.31,645.029 7818.86,645.029 7820.3,644.588C7818.75,646.574 7817.76,647.898 7816.43,649.553C7824.16,652.864 7827.14,646.243 7831.88,643.263C7832.43,640.726 7832.88,637.967 7833.43,635.208C7833.21,635.098 7832.99,635.098 7832.65,634.988C7834.97,631.788 7837.18,628.477 7840.27,624.174C7839.39,622.739 7837.73,620.312 7836.63,617.663C7835.74,615.567 7834.97,613.139 7834.86,610.932C7834.53,607.181 7834.75,603.429 7834.75,599.677C7834.2,599.567 7833.65,599.456 7833.1,599.346C7831.88,601.222 7830.56,603.208 7829.01,605.636C7828.46,605.636 7827.36,605.746 7826.03,605.856C7825.81,604.863 7825.7,604.201 7825.59,603.429C7818.2,603.87 7810.81,603.87 7806.06,610.712C7807.5,612.477 7808.71,614.022 7810.36,616.119C7807.83,616.781 7806.5,617.222 7805.18,617.553C7805.29,618.105 7805.4,618.546 7805.4,619.098C7806.14,618.96 7806.9,618.822 7807.65,618.684L7812.2,617.856C7812.95,617.719 7813.7,617.581 7814.45,617.443C7812.9,621.305 7803.85,622.298 7808.82,628.146C7806.39,632.891 7804.41,637.195 7802.2,641.388C7799.99,645.47 7787.52,651.65 7782.89,650.436C7783.22,646.574 7782.45,641.939 7784.1,638.408C7788.07,630.022 7788.07,620.863 7790.06,612.146C7791.72,604.753 7794.48,597.581 7800.21,592.284C7801.76,590.849 7804.52,590.408 7806.83,589.856C7813.68,588.422 7820.3,589.415 7826.7,592.284C7827.36,592.615 7828.24,592.394 7829.34,592.505C7829.01,590.739 7828.68,589.415 7828.35,587.429C7829.9,587.098 7831.33,586.877 7833.21,586.436L7833.21,595.484C7833.54,595.705 7833.98,595.925 7834.31,596.146C7835.86,586.215 7842.92,581.912 7850.2,578.049C7850.53,578.38 7850.75,578.712 7851.08,578.932C7851.74,578.491 7852.41,578.049 7853.18,577.608C7854.93,577.001 7856.61,576.596 7858.24,576.366L7860.64,576.149C7870.84,575.75 7878.74,582.194 7886.72,588.201L7886.72,589.746C7883.63,590.408 7880.43,591.07 7877.23,591.622C7876.79,591.732 7875.91,591.181 7875.69,590.629C7873.48,585.994 7869.51,587.098 7866.2,587.098C7868.3,590.077 7870.39,593.056 7872.6,596.256C7872.44,596.637 7872.3,597.017 7872.16,597.397L7871.72,598.574C7872.16,600.781 7872.6,602.987 7873.04,605.194C7871.72,605.636 7870.5,605.967 7868.85,606.519C7870.39,608.836 7871.83,610.822 7873.26,613.029C7871.94,614.794 7870.61,616.67 7868.85,618.988C7871.06,620.532 7873.04,621.967 7875.03,623.401L7875.03,621.746C7877.79,621.084 7880.65,619.76 7883.41,619.76C7888.38,619.87 7893.34,621.194 7898.42,621.525C7903.06,621.857 7907.8,622.408 7911.99,619.098C7913.98,617.553 7916.52,616.67 7918.83,615.346C7919.94,615.898 7920.93,616.45 7922.7,617.332C7922.15,620.753 7921.59,624.284 7921.04,628.257C7927.66,627.043 7926.34,620.422 7929.32,617.443C7933.07,617.884 7936.49,625.388 7940.57,617.774C7945.1,612.256 7951.28,609.939 7959,611.153C7959.05,610.881 7959.14,610.583 7959.22,610.284L7959.44,609.387C7955.47,603.098 7951.5,596.918 7948.85,592.725C7951.72,589.084 7953.59,586.546 7955.69,583.898C7959.99,583.898 7965.07,583.346 7969.81,584.118C7972.46,584.56 7975.22,586.767 7977.1,588.974C7978.97,591.181 7980.08,594.16 7981.29,596.918C7985.7,606.298 7985.26,616.339 7984.71,626.381C7984.6,627.484 7984.16,628.477 7983.72,630.132C7985.7,631.126 7987.69,632.119 7990.01,633.222C7988.79,634.215 7987.91,634.988 7986.48,636.201C7988.35,637.084 7989.79,637.857 7991.44,638.629C7991.99,639.512 7992.65,640.615 7993.43,641.719C7993.21,642.822 7992.88,644.036 7992.65,645.47C7991.77,646.022 7990.67,646.574 7989.79,647.126C7989.57,650.767 7998.28,657.719 8003.69,658.27C8004.35,657.719 8005.24,657.167 8005.9,656.615C8013.07,658.381 8019.36,668.643 8017.7,676.036C8015.5,686.408 8001.37,710.574 7992.77,718.298C7991.88,717.636 7990.45,717.084 7990.12,716.091C7987.69,709.029 7987.58,702.188 7989.68,694.684C7989.35,694.464 7988.9,694.353 7988.57,694.133C7989.35,692.257 7990.45,690.381 7990.89,688.505C7991.33,686.408 7991.11,684.202 7991.22,681.995C7990.45,681.553 7989.79,681.222 7989.01,680.781C7990.78,679.015 7992.65,677.36 7994.97,675.153C7994.75,674.602 7994.31,672.836 7993.21,671.622C7992.1,670.298 7990.34,669.526 7988.79,668.422C7988.02,669.857 7986.92,671.181 7986.48,672.615C7985.26,677.36 7984.05,681.995 7983.28,686.85C7982.72,690.602 7982.72,694.353 7982.61,698.215C7982.61,700.202 7982.95,702.188 7983.06,704.284C7983.28,710.464 7981.4,711.126 7976.1,714.215C7972.46,716.312 7970.15,721.388 7968.38,725.691C7967.16,728.45 7967.61,732.202 7971.8,733.967C7972.46,732.974 7973.12,731.981 7974.01,730.657C7975,731.54 7975.77,732.312 7975.77,732.312C7976.88,736.395 7977.76,739.485 7978.53,742.464C7978.75,742.243 7978.97,742.022 7979.19,741.802C7982.06,744.229 7985.04,746.767 7987.58,748.974L7987.58,756.588C7986.26,756.478 7985.26,756.367 7984.16,756.257C7984.05,755.154 7983.94,754.16 7983.72,752.726C7982.72,752.616 7981.4,751.954 7980.52,752.285C7975.55,754.16 7969.26,752.285 7966.06,747.871C7965.51,747.098 7964.52,746.767 7963.74,745.995C7961.65,744.119 7959.77,742.022 7957.57,740.147C7952.71,736.064 7950.39,729.222 7943.33,727.567C7941.57,727.126 7939.91,725.691 7938.7,724.257C7935.39,720.505 7931.19,718.85 7926.45,719.181C7924.9,719.291 7923.47,720.726 7921.92,721.498C7916.3,724.367 7910.56,726.905 7905.26,730.216C7901.62,732.533 7898.2,735.622 7895.66,739.043C7890.36,746.216 7887.94,744.45 7881.65,738.712C7885.84,736.174 7889.81,733.636 7895,730.436C7895.88,726.022 7897.54,720.726 7897.65,715.319C7897.76,709.912 7896.21,704.505 7895.44,699.098C7895.88,698.988 7896.43,698.878 7896.88,698.657C7898.31,702.188 7899.63,705.609 7901.18,709.471C7907.25,709.471 7908.68,701.857 7914.53,699.871L7914.53,706.05C7919.28,700.753 7923.25,696.45 7927.33,691.926C7928.1,692.477 7928.99,693.14 7930.09,694.022C7931.08,693.14 7931.97,692.367 7932.41,692.036C7935.16,694.353 7938.15,696.009 7940.13,698.657C7942.67,702.188 7944.88,704.064 7948.08,700.091C7950.28,702.078 7952.16,703.843 7954.15,705.609C7955.47,704.726 7956.24,704.174 7957.68,703.181C7957.57,705.057 7957.45,706.271 7957.35,707.484C7959.55,708.367 7962.75,706.16 7962.31,703.622C7961.65,699.65 7960.55,695.677 7959.66,691.595C7958.67,691.484 7957.57,691.374 7955.8,691.153C7963.41,685.305 7960.77,678.905 7957.45,671.953C7959.55,671.402 7961.43,670.96 7963.08,670.408C7964.85,669.857 7967.16,669.636 7968.05,668.422C7970.59,665.112 7973.57,664.891 7977.1,665.664C7980.41,666.436 7980.96,664.008 7980.96,661.801C7980.96,660.036 7980.19,658.16 7979.74,656.395L7978.09,656.726L7977.59,658.933Z"/>
                </g>
                <path d="M7042.73,786.321C7043.18,786.889 7043.7,787.46 7044.28,788.044C7048.7,792.458 7052.67,797.203 7056.42,802.169C7061.06,808.348 7066.57,812.1 7074.74,812.762C7079.6,813.093 7084.34,815.52 7088.97,817.286C7091.84,818.389 7094.49,819.934 7097.25,821.258C7098.8,821.92 7100.12,822.803 7101.99,823.796C7090.63,831.41 7090.41,831.631 7093.28,835.824C7095.26,835.051 7097.36,834.389 7099.46,833.396C7101.44,832.513 7103.43,830.417 7105.42,830.417C7111.7,830.307 7117.89,830.858 7123.4,834.61C7127.6,837.369 7132.12,839.796 7136.86,841.451C7139.29,842.334 7143.15,842.334 7145.03,840.9C7149.89,837.369 7154.3,832.955 7158.49,828.541C7163.68,823.244 7168.09,818.058 7176.48,816.624C7184.75,815.3 7195.13,817.065 7200.09,806.913C7200.2,806.472 7200.75,806.362 7201.19,806.141C7203.85,804.681 7204.95,803.7 7204.49,802.478L7196.67,794.972L7293.71,824.773C7253.49,882.944 7186.31,921.085 7110.29,921.085C7037.57,921.085 6972.93,886.171 6932.25,832.213L6983.35,811.018L7002.57,854.914C7006.88,852.927 7010.08,851.493 7013.28,850.058C7020.45,846.969 7027.73,843.879 7035.02,841.01C7038.55,839.686 7042.19,831.851 7040.09,827.879C7028.73,833.507 7017.36,839.134 7006.77,844.431C7005.23,844.004 7004.35,843.775 7003.06,843.437L6990.02,808.251L7030.04,791.653L7029.94,791.571L7042.73,786.321ZM7193.03,848.514C7196.67,851.934 7196.45,855.465 7192.59,857.01C7187.73,859.107 7182.44,860.21 7177.58,862.307C7166.99,867.052 7156.62,872.127 7146.24,877.093C7139.51,880.293 7132.56,883.052 7126.38,887.024C7123.18,889.01 7120.53,892.872 7118.99,896.403C7116.89,901.369 7113.03,903.024 7108.73,899.603C7107.84,898.941 7106.63,898.5 7105.19,897.838L7105.19,887.796C7111.04,892.21 7112.48,888.679 7115.24,885.148C7118.11,881.507 7122.52,878.748 7126.82,876.872C7145.25,868.817 7164.01,861.203 7182.55,853.369C7186.3,851.824 7189.72,850.058 7193.03,848.514ZM7035.9,857.01L7035.9,845.424C7042.74,842.113 7107.84,865.838 7114.46,874.665C7111.93,874.665 7109.94,875.107 7108.4,874.555C7097.47,871.024 7086.77,866.5 7075.62,863.741C7064.15,860.872 7052.23,859.438 7040.53,857.451C7039.1,857.231 7037.55,857.231 7035.9,857.01ZM7189.5,830.748C7191.26,830.748 7192.26,830.527 7193.14,830.748C7200.98,833.176 7208.7,835.824 7216.53,838.251C7219.51,839.134 7222.6,839.686 7225.69,840.238C7230.55,841.01 7231.76,843.438 7229.33,848.514C7228.34,848.293 7227.24,848.072 7226.24,847.741C7215.65,844.541 7205.17,841.231 7194.57,838.362C7190.38,837.258 7190.16,834.5 7189.5,830.748ZM7086.88,821.479C7085.89,823.024 7085.44,823.575 7084.78,824.458C7083.68,823.465 7082.9,822.693 7082.13,821.92C7082.24,821.479 7082.35,821.148 7082.46,820.707C7083.68,820.927 7084.89,821.148 7086.88,821.479Z"/>
            </g>
        </g>
    </g>
</svg>
