<?xml version="1.0" encoding="UTF-8" standalone="no"?>
<!DOCTYPE svg PUBLIC "-//W3C//DTD SVG 1.1//EN" "http://www.w3.org/Graphics/SVG/1.1/DTD/svg11.dtd">
<svg width="100%" height="100%" viewBox="0 0 815 813" version="1.1" xmlns="http://www.w3.org/2000/svg" xmlns:xlink="http://www.w3.org/1999/xlink" xml:space="preserve" xmlns:serif="http://www.serif.com/" style="fill-rule:evenodd;clip-rule:evenodd;stroke-linejoin:round;stroke-miterlimit:2;">
    <g transform="matrix(1,0,0,1,-1196.17,-47.2555)">
        <g transform="matrix(1,0,0,1,2376.94,-504.15)">
            <g transform="matrix(1.10345,0,0,1.10345,86.0571,-95.9767)">
                <path d="M-885.843,1053.12L-849.576,1038.08C-851.779,1036.32 -852.709,1033.84 -851.172,1031.63L-838.651,1012.97C-837.692,1011.32 -836.081,1010.18 -834.137,1009.48C-831.184,1008.41 -831.538,1004.06 -833.992,1003.14C-845.567,998.804 -842.991,985.013 -851.172,977.699C-876.467,955.086 -888.756,927.556 -890.138,895.904C-890.93,877.747 -883.37,867.181 -879.036,840.506L-865.33,826.201L-867.462,819.023C-862.287,812.25 -856.687,806.252 -849.576,803.018C-847.247,796.229 -844.832,789.015 -837.692,784.895C-823.765,776.858 -809.261,770.785 -793.181,770.068C-780.79,770.068 -770.192,774.657 -759.219,782.156C-750.683,779.058 -741.742,782.238 -732.591,784.895C-720.698,788.348 -717.174,794.513 -713.553,803.018C-704.847,807.936 -696.832,814.038 -690.527,823.068C-686.15,823.068 -681.357,827.351 -681.357,831.771L-676.948,856.342C-675.317,865.381 -670.327,877.639 -670.327,883.81L-670.327,891.449C-665.734,896.287 -662.873,904.632 -665.252,912.288C-670.419,928.919 -678.512,941.825 -687.641,953.411C-693.865,961.309 -695.782,984.539 -691.856,989.637C-686.15,997.047 -685.739,1001.43 -686.15,1009.48C-686.612,1018.53 -700.825,1028.21 -697.952,1033.17C-695.105,1038.08 -691.14,1041.77 -686.266,1044.47L-686.15,1044.54L-610.624,1068.09C-647.081,1120.81 -707.96,1155.37 -776.848,1155.37C-842.758,1155.37 -901.337,1123.73 -938.202,1074.83L-891.89,1055.63L-874.47,1095.41C-870.57,1093.61 -867.67,1092.31 -864.77,1091.01C-858.27,1088.21 -851.67,1085.41 -845.07,1082.81C-841.87,1081.61 -838.57,1074.51 -840.47,1070.91C-850.77,1076.01 -861.07,1081.11 -870.67,1085.91C-872.063,1085.52 -872.857,1085.31 -874.026,1085.01L-885.843,1053.12ZM-701.87,1089.61C-698.57,1092.71 -698.77,1095.91 -702.27,1097.31C-706.67,1099.21 -711.47,1100.21 -715.87,1102.11C-725.47,1106.41 -734.87,1111.01 -744.27,1115.51C-750.37,1118.41 -756.67,1120.91 -762.27,1124.51C-765.17,1126.31 -767.57,1129.81 -768.97,1133.01C-770.87,1137.51 -774.37,1139.01 -778.27,1135.91C-779.07,1135.31 -780.17,1134.91 -781.47,1134.31L-781.47,1125.21C-776.17,1129.21 -774.87,1126.01 -772.37,1122.81C-769.77,1119.51 -765.77,1117.01 -761.87,1115.31C-745.17,1108.01 -728.17,1101.11 -711.37,1094.01C-707.97,1092.61 -704.87,1091.01 -701.87,1089.61ZM-844.27,1097.31L-844.27,1086.81C-838.07,1083.81 -779.07,1105.31 -773.07,1113.31C-775.37,1113.31 -777.17,1113.71 -778.57,1113.21C-788.47,1110.01 -798.17,1105.91 -808.27,1103.41C-818.67,1100.81 -829.47,1099.51 -840.07,1097.71C-841.37,1097.51 -842.77,1097.51 -844.27,1097.31ZM-705.07,1073.51C-703.47,1073.51 -702.57,1073.31 -701.77,1073.51C-694.67,1075.71 -687.67,1078.11 -680.57,1080.31C-677.87,1081.11 -675.07,1081.61 -672.27,1082.11C-667.87,1082.81 -666.77,1085.01 -668.97,1089.61C-669.87,1089.41 -670.87,1089.21 -671.77,1088.91C-681.37,1086.01 -690.87,1083.01 -700.47,1080.41C-704.27,1079.41 -704.47,1076.91 -705.07,1073.51ZM-744.77,977.306C-748.07,985.706 -751.17,993.706 -754.37,1001.81C-756.67,1002.01 -759.27,1002.21 -762.77,1002.61C-762.17,1005.11 -761.67,1007.21 -761.17,1009.31C-764.27,1008.71 -767.67,1007.21 -771.17,1011.21C-769.07,1011.51 -767.67,1012.11 -766.57,1011.71C-760.07,1009.41 -757.17,1014.61 -754.47,1018.31C-752.37,1021.21 -750.37,1023.01 -746.97,1023.01C-743.57,1023.01 -741.57,1024.11 -742.47,1027.81C-739.47,1029.71 -737.57,1028.61 -737.37,1024.81C-738.07,1024.41 -738.97,1023.91 -739.67,1023.31C-741.57,1021.71 -741.87,1020.31 -739.37,1018.61C-737.87,1017.51 -736.67,1015.51 -736.07,1013.71C-734.07,1007.81 -732.47,1001.81 -730.67,995.906C-729.97,993.406 -729.37,990.806 -728.87,989.006L-717.87,989.006C-716.57,990.006 -714.67,991.406 -712.77,992.806C-712.87,994.006 -712.87,995.006 -712.97,995.806C-711.67,997.406 -710.47,998.906 -708.97,1000.91C-710.87,1001.61 -711.97,1002.01 -714.07,1002.81C-712.47,1003.71 -711.37,1004.41 -709.87,1005.21C-709.57,1005.61 -708.97,1006.41 -707.77,1008.11C-706.57,1005.11 -705.67,1002.91 -704.57,1000.21C-704.17,1000.21 -703.17,1000.31 -702.37,999.906C-700.97,999.206 -699.77,998.106 -698.37,997.206C-696.97,996.306 -695.57,995.206 -694.07,994.706C-693.77,994.606 -692.47,996.606 -692.07,997.806C-691.37,999.806 -690.77,1001.81 -690.77,1003.91C-690.77,1006.61 -690.57,1009.91 -691.97,1012.01C-695.87,1018.01 -700.47,1023.51 -705.47,1030.01C-703.27,1035.11 -699.87,1040.91 -694.17,1045.21C-690.37,1048.01 -690.47,1049.01 -694.47,1051.21C-694.87,1051.41 -695.37,1051.51 -695.47,1051.91C-699.97,1061.11 -709.37,1059.51 -716.87,1060.71C-724.47,1062.01 -728.47,1066.71 -733.17,1071.51C-736.97,1075.51 -740.97,1079.51 -745.37,1082.71C-747.07,1084.01 -750.57,1084.01 -752.77,1083.21C-757.07,1081.71 -761.17,1079.51 -764.97,1077.01C-769.97,1073.61 -775.57,1073.11 -781.27,1073.21C-783.07,1073.21 -784.87,1075.11 -786.67,1075.91C-788.57,1076.81 -790.47,1077.41 -792.27,1078.11C-794.87,1074.31 -794.67,1074.11 -784.37,1067.21C-786.07,1066.31 -787.27,1065.51 -788.67,1064.91C-791.17,1063.71 -793.57,1062.31 -796.17,1061.31C-800.37,1059.71 -804.67,1057.51 -809.07,1057.21C-816.47,1056.61 -821.47,1053.21 -825.67,1047.61C-829.07,1043.11 -832.67,1038.81 -836.67,1034.81C-839.77,1031.71 -840.97,1029.01 -838.67,1024.81C-836.17,1020.21 -834.67,1015.11 -828.67,1013.51C-826.37,1012.91 -825.87,1005.11 -827.67,1002.91C-829.27,1001.01 -830.87,999.106 -832.57,997.306C-836.77,993.006 -838.97,987.806 -839.57,982.006C-840.27,976.106 -844.27,972.806 -848.27,969.406C-863.57,956.506 -874.37,940.606 -879.97,921.306C-881.47,915.906 -882.07,910.206 -882.47,904.506C-882.87,899.006 -877.57,891.906 -872.27,890.206C-872.07,890.106 -871.77,890.006 -871.57,890.106C-866.37,892.406 -865.27,889.406 -865.57,884.306C-863.27,884.806 -860.87,884.606 -859.67,885.706C-856.77,888.506 -854.27,888.106 -851.57,885.806C-851.27,885.506 -850.77,885.506 -849.47,885.106C-850.87,886.906 -851.77,888.106 -852.97,889.606C-845.97,892.606 -843.27,886.606 -838.97,883.906C-838.47,881.606 -838.07,879.106 -837.57,876.606C-837.77,876.506 -837.97,876.506 -838.27,876.406C-836.17,873.506 -834.17,870.506 -831.37,866.606C-832.17,865.306 -833.67,863.106 -834.67,860.706C-835.47,858.806 -836.17,856.606 -836.27,854.606C-836.57,851.206 -836.37,847.806 -836.37,844.406C-836.87,844.306 -837.37,844.206 -837.87,844.106C-838.97,845.806 -840.17,847.606 -841.57,849.806C-842.07,849.806 -843.07,849.906 -844.27,850.006C-844.47,849.106 -844.57,848.506 -844.67,847.806C-851.37,848.206 -858.07,848.206 -862.37,854.406C-861.07,856.006 -859.97,857.406 -858.47,859.306C-860.77,859.906 -861.97,860.306 -863.17,860.606C-863.07,861.106 -862.97,861.506 -862.97,862.006C-860.27,861.506 -857.47,861.006 -854.77,860.506C-856.17,864.006 -864.37,864.906 -859.87,870.206C-862.07,874.506 -863.87,878.406 -865.87,882.206C-867.87,885.906 -879.17,891.506 -883.37,890.406C-883.07,886.906 -883.77,882.706 -882.27,879.506C-878.67,871.906 -878.67,863.606 -876.87,855.706C-875.37,849.006 -872.87,842.506 -867.67,837.706C-866.27,836.406 -863.77,836.006 -861.67,835.506C-855.47,834.206 -849.47,835.106 -843.67,837.706C-843.07,838.006 -842.27,837.806 -841.27,837.906C-841.57,836.306 -841.87,835.106 -842.17,833.306C-840.77,833.006 -839.47,832.806 -837.77,832.406L-837.77,840.606C-837.47,840.806 -837.07,841.006 -836.77,841.206C-835.37,832.206 -828.97,828.306 -822.37,824.806C-822.07,825.106 -821.87,825.406 -821.57,825.606C-820.97,825.206 -820.37,824.806 -819.67,824.406C-806.97,820.006 -798.17,827.306 -789.27,834.006L-789.27,835.406C-792.07,836.006 -794.97,836.606 -797.87,837.106C-798.27,837.206 -799.07,836.706 -799.27,836.206C-801.27,832.006 -804.87,833.006 -807.87,833.006C-805.97,835.706 -804.07,838.406 -802.07,841.306C-802.37,842.006 -802.57,842.706 -802.87,843.406C-802.47,845.406 -802.07,847.406 -801.67,849.406C-802.87,849.806 -803.97,850.106 -805.47,850.606C-804.07,852.706 -802.77,854.506 -801.47,856.506C-802.67,858.106 -803.87,859.806 -805.47,861.906C-803.47,863.306 -801.67,864.606 -799.87,865.906L-799.87,864.406C-797.37,863.806 -794.77,862.606 -792.27,862.606C-787.77,862.706 -783.27,863.906 -778.67,864.206C-774.47,864.506 -770.17,865.006 -766.37,862.006C-764.57,860.606 -762.27,859.806 -760.17,858.606C-759.17,859.106 -758.27,859.606 -756.67,860.406C-757.17,863.506 -757.67,866.706 -758.17,870.306C-752.17,869.206 -753.37,863.206 -750.67,860.506C-747.27,860.906 -744.17,867.706 -740.47,860.806C-736.37,855.806 -730.77,853.706 -723.77,854.806C-723.67,854.306 -723.47,853.706 -723.37,853.206C-726.97,847.506 -730.57,841.906 -732.97,838.106C-730.37,834.806 -728.67,832.506 -726.77,830.106C-722.87,830.106 -718.27,829.606 -713.97,830.306C-711.57,830.706 -709.07,832.706 -707.37,834.706C-705.67,836.706 -704.67,839.406 -703.57,841.906C-699.57,850.406 -699.97,859.506 -700.47,868.606C-700.57,869.606 -700.97,870.506 -701.37,872.006C-699.57,872.906 -697.77,873.806 -695.67,874.806C-696.77,875.706 -697.57,876.406 -698.87,877.506C-697.17,878.306 -695.87,879.006 -694.37,879.706C-693.87,880.506 -693.27,881.506 -692.57,882.506C-692.77,883.506 -693.07,884.606 -693.27,885.906C-694.07,886.406 -695.07,886.906 -695.87,887.406C-696.07,890.706 -688.17,897.006 -683.27,897.506C-682.67,897.006 -681.87,896.506 -681.27,896.006C-674.77,897.606 -669.07,906.906 -670.57,913.606C-672.57,923.006 -685.37,944.906 -693.17,951.906C-693.97,951.306 -695.27,950.806 -695.57,949.906C-697.77,943.506 -697.87,937.306 -695.97,930.506C-696.27,930.306 -696.67,930.206 -696.97,930.006C-696.27,928.306 -695.27,926.606 -694.87,924.906C-694.47,923.006 -694.67,921.006 -694.57,919.006C-695.27,918.606 -695.87,918.306 -696.57,917.906C-694.97,916.306 -693.27,914.806 -691.17,912.806C-691.37,912.306 -691.77,910.706 -692.77,909.606C-693.77,908.406 -695.37,907.706 -696.77,906.706C-697.47,908.006 -698.47,909.206 -698.87,910.506C-699.97,914.806 -701.07,919.006 -701.77,923.406C-702.27,926.806 -702.27,930.206 -702.37,933.706C-702.37,935.506 -702.07,937.306 -701.97,939.206C-701.77,944.806 -703.47,945.406 -708.27,948.206C-711.57,950.106 -713.67,954.706 -715.27,958.606C-716.37,961.106 -715.97,964.506 -712.17,966.106C-711.57,965.206 -710.97,964.306 -710.17,963.106C-709.27,963.906 -708.57,964.606 -708.57,964.606C-707.57,968.306 -706.77,971.106 -706.07,973.806C-705.87,973.606 -705.67,973.406 -705.47,973.206C-702.87,975.406 -700.17,977.706 -697.87,979.706L-697.87,986.606C-699.07,986.506 -699.97,986.406 -700.97,986.306C-701.07,985.306 -701.17,984.406 -701.37,983.106C-702.27,983.006 -703.47,982.406 -704.27,982.706C-708.77,984.406 -714.47,982.706 -717.37,978.706C-717.87,978.006 -718.77,977.706 -719.47,977.006C-721.37,975.306 -723.07,973.406 -725.07,971.706C-729.47,968.006 -731.57,961.806 -737.97,960.306C-739.57,959.906 -741.07,958.606 -742.17,957.306C-745.17,953.906 -748.97,952.406 -753.27,952.706C-754.67,952.806 -755.97,954.106 -757.37,954.806C-762.47,957.406 -767.67,959.706 -772.47,962.706C-775.77,964.806 -778.87,967.606 -781.17,970.706C-785.97,977.206 -788.17,975.606 -793.87,970.406C-790.07,968.106 -786.47,965.806 -781.77,962.906C-780.97,958.906 -779.47,954.106 -779.37,949.206C-779.27,944.306 -780.67,939.406 -781.37,934.506C-780.97,934.406 -780.47,934.306 -780.07,934.106C-778.77,937.306 -777.57,940.406 -776.17,943.906C-770.67,943.906 -769.37,937.006 -764.07,935.206L-764.07,940.806C-759.77,936.006 -756.17,932.106 -752.47,928.006C-751.77,928.506 -750.97,929.106 -749.97,929.906C-749.07,929.106 -748.27,928.406 -747.87,928.106C-745.37,930.206 -742.67,931.706 -740.87,934.106C-738.57,937.306 -736.57,939.006 -733.67,935.406C-731.67,937.206 -729.97,938.806 -728.17,940.406C-726.97,939.606 -726.27,939.106 -724.97,938.206C-725.07,939.906 -725.17,941.006 -725.27,942.106C-723.27,942.906 -720.37,940.906 -720.77,938.606C-721.37,935.006 -722.37,931.406 -723.17,927.706C-724.07,927.606 -725.07,927.506 -726.67,927.306C-719.77,922.006 -722.17,916.206 -725.17,909.906C-723.27,909.406 -721.57,909.006 -720.07,908.506C-718.47,908.006 -716.37,907.806 -715.57,906.706C-713.27,903.706 -710.57,903.506 -707.37,904.206C-704.37,904.906 -703.87,902.706 -703.87,900.706C-703.87,899.106 -704.57,897.406 -704.97,895.806C-705.47,895.906 -705.97,896.006 -706.47,896.106C-706.77,897.406 -707.07,898.806 -707.37,900.106C-707.47,900.206 -707.67,900.406 -707.77,900.406C-716.57,901.106 -725.37,903.106 -733.47,897.306C-735.97,895.506 -739.27,894.806 -741.87,893.106C-743.57,891.906 -745.27,890.006 -745.87,888.106C-747.07,884.306 -747.57,880.206 -748.37,876.506C-752.47,875.406 -756.07,874.406 -760.07,873.306C-760.47,873.806 -761.07,874.606 -761.07,874.606C-761.47,881.506 -757.17,887.106 -760.27,894.806C-761.97,891.906 -763.07,890.106 -764.27,888.106C-764.47,888.106 -764.87,888.006 -765.07,888.206C-770.57,894.106 -778.37,892.806 -785.07,894.506C-787.67,895.206 -790.67,894.306 -793.47,893.906C-797.07,893.406 -800.57,892.406 -804.17,891.906C-809.57,891.106 -810.07,890.806 -816.67,882.206C-820.77,881.306 -824.57,880.106 -828.37,880.006C-830.17,879.906 -832.77,881.606 -833.67,883.306C-834.97,885.606 -834.67,888.306 -831.37,889.806C-829.47,890.706 -827.97,892.506 -826.17,894.006C-824.97,892.906 -823.97,892.106 -822.87,891.106L-815.57,891.106C-815.17,892.106 -814.17,893.406 -814.37,894.506C-814.87,898.506 -812.17,899.306 -809.37,900.406C-807.27,901.206 -805.47,902.906 -803.47,903.906C-801.77,904.706 -799.87,905.206 -798.37,905.706C-796.97,905.006 -795.97,904.506 -795.07,904.106C-794.07,905.906 -793.37,907.406 -792.47,909.106C-793.97,910.106 -795.47,911.106 -797.07,912.206C-796.37,914.206 -795.67,916.006 -794.67,918.806C-798.07,917.406 -800.57,915.406 -802.67,915.706C-804.57,916.006 -806.17,918.806 -807.57,920.206C-805.67,929.606 -805.67,929.606 -811.97,934.506C-810.17,936.506 -808.37,938.506 -806.57,940.606C-803.17,938.006 -800.77,936.106 -798.27,934.306C-796.07,932.806 -793.17,935.806 -792.97,939.706C-792.87,941.106 -792.97,942.506 -792.57,945.206C-795.07,945.706 -798.27,947.406 -800.07,946.406C-807.07,942.906 -813.87,938.906 -820.17,934.206C-822.67,932.306 -823.87,928.406 -825.27,925.206C-828.07,918.606 -830.77,911.906 -833.17,905.106C-834.57,901.106 -835.47,897.006 -836.67,892.306C-838.47,893.006 -840.07,893.506 -841.47,894.306C-843.67,895.406 -846.27,896.206 -847.67,898.006C-849.27,899.906 -849.67,902.806 -850.67,905.506C-848.57,906.206 -847.47,906.506 -846.37,906.906C-846.57,907.206 -846.87,907.506 -847.07,907.806C-845.07,909.706 -843.07,911.506 -841.07,913.406C-841.47,915.806 -842.07,918.606 -842.57,921.406C-842.17,921.406 -841.77,921.306 -841.27,921.306C-839.17,923.006 -837.07,924.706 -834.37,926.906L-831.37,926.906C-831.97,929.506 -832.47,931.806 -832.97,934.106C-833.77,937.606 -834.27,941.306 -835.47,944.706C-836.97,948.906 -838.87,953.006 -840.77,957.006C-842.57,960.806 -842.67,964.506 -840.37,968.206C-839.67,967.906 -839.07,967.506 -838.47,967.306C-834.37,968.206 -830.97,969.706 -830.57,974.606C-830.47,975.806 -829.27,977.006 -828.67,978.106C-826.67,977.006 -825.17,976.306 -822.77,975.006C-823.07,977.506 -823.17,978.706 -823.27,979.806C-820.47,981.606 -817.47,983.206 -814.87,985.206C-812.97,986.706 -811.67,989.106 -809.67,990.506C-807.57,992.006 -805.07,992.906 -802.67,994.106C-802.27,993.506 -801.87,992.806 -801.47,992.206C-798.57,994.706 -795.97,997.706 -792.77,999.706C-789.17,1001.91 -785.07,1003.11 -780.97,1004.61C-780.47,1004.81 -779.37,1003.41 -778.57,1002.81C-778.67,1002.41 -778.87,1002.01 -778.97,1001.71C-780.67,1001.61 -782.37,1001.41 -784.47,1001.21C-783.77,1000.31 -783.17,999.606 -783.27,999.706C-782.27,997.106 -781.67,995.506 -781.07,993.806C-779.57,994.106 -778.67,994.306 -777.87,994.406C-776.47,998.306 -768.17,1002.01 -765.57,999.106C-768.47,997.306 -771.17,995.606 -774.17,993.806C-769.97,988.706 -767.77,994.306 -764.67,995.206C-764.27,996.806 -763.87,998.506 -763.47,1000.31C-761.07,995.406 -759.57,990.006 -756.27,986.306C-746.97,975.206 -746.67,975.406 -744.77,977.306ZM-798.07,1065.11C-798.97,1066.51 -799.37,1067.01 -799.97,1067.81C-800.97,1066.91 -801.67,1066.21 -802.37,1065.51C-802.27,1065.11 -802.17,1064.81 -802.07,1064.41C-800.97,1064.61 -799.87,1064.81 -798.07,1065.11ZM-716.67,1006.31C-718.27,1007.21 -719.57,1007.41 -719.87,1008.11C-720.67,1010.41 -721.27,1012.81 -721.57,1015.31C-721.57,1015.61 -719.87,1016.51 -718.97,1016.51C-718.17,1016.51 -716.87,1015.61 -716.77,1015.01C-716.57,1012.41 -716.67,1009.81 -716.67,1006.31ZM-783.47,1016.01C-783.27,1015.61 -783.07,1015.11 -782.87,1014.71C-784.47,1014.01 -785.97,1013.21 -787.57,1012.51C-787.77,1013.01 -787.97,1013.41 -788.27,1013.91C-786.57,1014.51 -784.97,1015.21 -783.47,1016.01ZM-741.214,1009.62L-741.214,1009.62C-741.215,1009.62 -741.217,1009.62 -741.22,1009.62C-741.244,1009.63 -741.319,1009.71 -741.369,1009.81L-741.37,1009.81C-741.235,1009.67 -741.201,1009.62 -741.214,1009.62ZM-790.57,1002.91C-790.67,1005.56 -789.72,1007.11 -788.207,1007.88C-786.695,1008.66 -784.62,1008.66 -782.47,1008.21C-784.97,1006.61 -787.47,1004.91 -790.57,1002.91ZM-714.57,1001.61C-714.97,1001.41 -715.47,1001.11 -715.87,1000.91C-716.37,1001.91 -716.97,1003.01 -717.47,1004.01C-717.07,1004.21 -716.57,1004.51 -716.17,1004.71C-715.67,1003.71 -715.17,1002.61 -714.57,1001.61ZM-771.57,1002.81C-771.87,1003.11 -772.17,1003.41 -772.37,1003.71C-771.97,1004.01 -771.67,1004.21 -771.27,1004.51C-771.07,1004.21 -770.77,1004.01 -770.57,1003.71C-770.97,1003.41 -771.27,1003.11 -771.57,1002.81ZM-822.77,1001.31C-822.37,1001.11 -821.87,1000.81 -821.47,1000.61C-821.97,999.606 -822.57,998.606 -823.07,997.506C-823.47,997.706 -823.87,997.906 -824.27,998.106C-823.77,999.206 -823.27,1000.31 -822.77,1001.31ZM-827.17,989.606C-827.47,989.806 -827.67,989.806 -827.97,990.006C-827.67,990.306 -827.47,990.706 -826.57,991.906C-826.97,990.406 -827.07,990.006 -827.17,989.606ZM-797.97,976.406C-801.77,979.406 -805.97,976.306 -806.37,970.406C-805.77,967.206 -805.17,964.106 -804.27,959.506C-802.87,961.906 -802.17,963.006 -801.47,964.206C-799.47,963.706 -797.27,963.206 -795.07,962.606C-794.87,963.006 -794.67,963.406 -794.47,963.806C-795.07,964.306 -795.57,965.006 -796.27,965.406C-797.37,966.106 -798.67,966.506 -799.87,967.206C-804.47,970.006 -804.47,971.806 -800.07,974.506C-799.37,975.006 -798.77,975.706 -797.97,976.406ZM-838.37,974.306C-838.27,973.906 -838.17,973.606 -838.07,973.206C-838.77,973.006 -839.47,972.906 -840.27,972.706C-840.37,973.006 -840.47,973.406 -840.57,973.706C-839.77,973.806 -839.07,974.006 -838.37,974.306ZM-713.57,972.806C-713.67,972.706 -713.87,972.706 -713.97,972.606C-714.07,972.806 -714.17,973.006 -714.27,973.206C-714.17,973.306 -713.87,973.406 -713.87,973.406C-713.77,973.206 -713.67,973.006 -713.57,972.806ZM-789.77,953.106C-788.87,952.006 -788.37,951.406 -787.17,949.906C-786.07,950.706 -784.07,951.206 -783.77,952.306C-782.27,957.406 -785.17,962.906 -789.37,963.506C-794.47,959.506 -796.97,952.906 -793.77,950.006C-792.57,951.006 -791.27,952.006 -789.77,953.106ZM-728.17,951.306C-727.97,951.406 -727.87,951.406 -727.77,951.506L-727.77,951.106C-727.87,951.106 -727.97,951.206 -728.17,951.306ZM-722.47,950.606C-722.37,950.206 -722.37,949.806 -722.27,949.506L-724.17,949.506C-724.17,949.806 -724.27,950.106 -724.27,950.306C-723.67,950.406 -723.07,950.506 -722.47,950.606ZM-751.67,945.906L-751.67,946.906L-747.17,946.906L-747.17,945.906L-751.67,945.906ZM-724.27,945.706L-724.27,946.806C-723.77,946.806 -723.27,946.706 -722.77,946.706L-722.77,945.906C-723.27,945.806 -723.77,945.706 -724.27,945.706ZM-838.77,942.206C-838.97,942.406 -839.17,942.606 -839.37,942.806C-839.07,943.106 -838.67,943.306 -838.37,943.606C-838.27,943.406 -838.07,943.306 -837.97,943.106C-838.27,942.806 -838.57,942.506 -838.77,942.206ZM-847.97,939.806L-847.97,940.706L-844.87,940.706L-844.87,939.806L-847.97,939.806ZM-760.97,897.706C-756.87,899.506 -753.77,901.606 -750.37,902.006C-747.17,902.406 -743.07,903.806 -739.87,898.106C-738.67,901.706 -737.87,904.206 -737.07,906.706C-735.67,911.306 -734.47,916.106 -732.77,920.606C-732.27,922.006 -730.27,922.906 -729.17,924.806C-730.47,924.406 -731.97,924.306 -733.07,923.606C-738.07,920.506 -743.37,921.306 -747.57,925.606C-748.17,926.206 -750.97,926.006 -751.57,925.206C-755.47,919.906 -756.67,919.406 -763.27,920.706C-764.57,921.006 -765.87,920.906 -766.97,921.006C-769.67,916.506 -768.77,912.606 -764.87,910.106C-763.37,909.106 -762.27,907.506 -760.67,905.806C-762.17,905.206 -763.07,904.906 -763.97,904.606C-765.77,900.606 -762.87,898.906 -760.97,897.706ZM-722.97,893.906L-722.97,893.306L-726.27,893.306L-726.27,893.906L-722.97,893.906ZM-791.57,890.806C-791.72,890.856 -791.77,890.881 -791.757,890.881C-791.745,890.881 -791.67,890.856 -791.57,890.806C-791.67,890.706 -791.87,890.706 -791.57,890.806ZM-680.77,890.706C-683.37,890.006 -685.57,888.306 -683.57,883.606C-685.57,883.306 -687.27,883.006 -688.87,882.706C-688.17,879.706 -687.57,876.906 -686.67,873.106C-689.07,873.906 -689.87,874.206 -690.67,874.506C-694.37,869.606 -692.87,865.506 -687.37,861.806C-690.27,861.106 -691.77,860.706 -693.27,860.406C-693.37,860.006 -693.37,859.606 -693.47,859.206C-691.87,858.806 -690.27,858.406 -687.77,857.906C-688.77,856.406 -689.67,855.006 -690.77,853.806C-694.17,850.006 -697.57,846.306 -700.47,843.006C-697.87,831.806 -702.77,824.706 -716.47,818.406C-716.77,817.006 -717.17,815.406 -717.67,813.406C-712.57,811.606 -708.37,813.506 -704.47,815.806C-699.57,818.706 -700.67,824.206 -698.97,830.006C-696.87,830.706 -693.87,831.706 -689.77,833.106C-687.27,838.406 -685.07,844.806 -684.77,852.006C-684.57,856.106 -683.37,860.406 -681.97,864.306C-680.07,869.606 -677.37,874.706 -675.37,880.006C-674.47,882.506 -674.67,884.806 -678.17,885.806C-679.27,886.006 -679.77,888.606 -680.77,890.706ZM-783.27,889.206C-783.27,888.806 -783.17,888.306 -783.17,887.906C-785.87,887.606 -788.67,887.206 -791.37,886.906C-791.47,887.506 -791.47,888.006 -791.57,888.606C-788.77,888.806 -786.07,889.006 -783.27,889.206ZM-821.07,878.106C-820.87,878.606 -820.77,879.006 -820.57,879.506C-819.17,878.806 -817.67,878.006 -816.27,877.306C-816.47,876.806 -816.77,876.406 -816.97,875.906C-818.37,876.706 -819.67,877.406 -821.07,878.106ZM-791.87,873.206C-791.87,873.406 -791.77,873.506 -791.77,873.706C-791.57,873.606 -791.37,873.506 -790.17,873.006C-791.37,873.106 -791.67,873.206 -791.87,873.206ZM-828.27,872.306C-828.47,871.806 -828.57,871.306 -828.77,870.806C-829.67,871.206 -830.57,871.506 -831.47,871.906C-831.27,872.306 -831.17,872.806 -830.97,873.206C-830.17,872.906 -829.27,872.606 -828.27,872.306ZM-738.17,865.206C-737.27,866.406 -736.87,867.406 -736.37,867.406C-732.07,867.806 -727.67,868.106 -723.37,868.406C-720.07,868.606 -716.67,868.706 -713.37,868.906C-712.37,869.006 -711.37,869.306 -709.47,869.706C-711.27,867.206 -712.47,865.706 -713.27,864.506L-713.27,854.706C-715.07,855.106 -716.07,855.406 -716.07,855.406C-718.87,855.206 -720.77,855.006 -723.07,854.806C-721.47,860.806 -725.47,860.806 -729.07,861.706C-732.07,862.306 -734.87,863.806 -738.17,865.206ZM-770.57,858.706C-773.67,858.006 -776.87,857.306 -779.97,856.606C-779.97,856.306 -779.97,856.006 -779.87,855.706C-778.17,855.406 -776.47,855.106 -774.47,854.806C-773.07,855.706 -771.57,856.606 -770.07,857.606C-770.27,858.006 -770.47,858.306 -770.57,858.706ZM-766.47,840.506C-762.67,841.106 -758.97,841.706 -755.17,842.306C-752.67,842.706 -750.27,843.206 -747.77,843.306C-745.17,843.306 -742.47,842.806 -739.87,842.706C-739.17,842.706 -738.37,843.106 -737.37,843.406C-743.97,847.806 -762.07,846.806 -766.67,842.006C-766.57,841.406 -766.57,840.906 -766.47,840.506ZM-780.17,839.606C-781.87,840.106 -783.42,840.581 -784.957,841.056C-786.495,841.531 -788.02,842.006 -789.67,842.506C-787.87,838.006 -784.27,836.906 -780.17,839.606ZM-758.37,835.306L-748.37,835.306C-748.37,835.706 -748.37,836.106 -748.27,836.406C-749.507,836.481 -750.759,836.542 -752.014,836.599L-754.525,836.712C-755.781,836.77 -757.032,836.831 -758.27,836.906C-758.27,836.406 -758.27,835.906 -758.37,835.306ZM-770.47,832.706C-768.97,832.806 -767.47,833.006 -765.97,833.106C-765.97,833.506 -766.07,833.906 -766.07,834.306L-770.47,834.306C-770.57,833.806 -770.57,833.306 -770.47,832.706ZM-846.37,820.906C-851.57,823.606 -855.57,825.706 -859.57,827.806C-859.87,827.406 -860.27,827.106 -860.57,826.706C-859.77,824.806 -859.07,822.906 -858.17,820.706C-858.37,820.506 -858.87,819.906 -859.97,818.606C-858.47,816.906 -857.27,814.606 -855.37,813.506C-852.57,812.006 -849.57,809.406 -845.97,812.206C-844.37,813.406 -842.57,814.606 -840.87,815.706C-838.67,817.106 -834.77,816.106 -833.47,814.106C-831.97,811.706 -830.27,809.506 -828.57,807.306C-827.97,807.406 -827.27,807.406 -826.67,807.506C-827.37,806.306 -828.17,805.206 -828.77,803.906C-829.57,802.206 -830.77,800.406 -830.87,798.706C-830.87,797.906 -828.77,796.106 -827.67,796.206C-824.17,796.306 -820.57,797.006 -817.07,797.506C-815.37,797.806 -813.57,798.106 -811.57,797.406C-813.37,795.506 -815.17,793.606 -816.87,791.706C-811.97,786.206 -795.77,787.406 -793.17,791.906C-785.87,794.606 -779.57,797.006 -772.47,799.606C-774.17,800.606 -774.97,801.006 -776.07,801.706C-774.87,802.706 -773.67,803.506 -771.77,805.106C-774.27,805.406 -775.97,805.906 -777.57,805.806C-791.27,804.806 -804.57,806.106 -817.27,811.706C-820.27,813.006 -823.17,813.706 -826.07,809.906C-829.67,814.906 -833.07,819.606 -836.97,825.106C-838.57,824.006 -840.07,823.406 -840.87,822.306C-844.47,817.206 -851.37,814.706 -856.37,817.706C-854.27,818.206 -852.87,818.506 -851.57,818.906C-850.07,819.206 -848.87,819.806 -846.37,820.906ZM-762.782,804.892C-767.977,798.997 -772.773,793.601 -777.57,788.106C-776.67,787.306 -775.67,786.406 -773.77,784.606C-769.77,787.506 -765.07,790.206 -761.37,793.906C-757.47,797.806 -757.87,798.206 -754.07,795.106C-751.77,794.306 -749.47,793.506 -746.57,792.506C-746.27,793.106 -745.47,794.406 -744.67,795.906C-743.47,795.106 -742.37,794.406 -740.97,793.506C-738.97,794.906 -736.77,796.306 -734.77,798.006C-732.17,800.106 -729.67,802.306 -727.47,804.706C-726.77,805.506 -727.17,807.206 -726.97,809.506C-731.17,807.006 -734.37,805.206 -737.07,803.506C-739.87,803.906 -742.37,804.206 -745.07,804.606C-754.17,813.606 -757.37,814.206 -763.37,806.306C-763.147,805.713 -762.87,805.065 -762.782,804.892ZM-762.782,804.892C-762.767,804.861 -762.757,804.845 -762.755,804.847C-762.752,804.848 -762.757,804.867 -762.77,804.906L-762.782,804.892ZM-843.07,799.806C-839.37,793.206 -834.47,787.606 -826.97,784.606C-818.77,781.306 -810.47,777.906 -802.07,775.206C-796.57,773.406 -790.87,773.406 -785.27,776.106C-780.87,778.306 -776.07,779.706 -771.57,781.506C-773.17,782.106 -774.97,782.706 -776.77,783.406C-782.17,781.606 -787.37,779.106 -792.87,778.106C-799.57,776.906 -807.37,777.206 -812.07,782.006C-818.37,788.506 -826.27,790.606 -833.87,794.106C-837.17,795.506 -840.07,797.906 -843.07,799.806ZM-797.27,782.506L-803.17,782.506L-803.17,781.806L-797.17,781.806C-797.27,782.006 -797.27,782.306 -797.27,782.506Z" style="fill:white;"/>
            </g>
            <g transform="matrix(-47.7619,-25.3303,25.3303,-47.7619,-872.845,1181.62)">
                <path d="M0.369,-0.7L0.369,-0.402L0.171,-0.402L0.171,-0.7L0.07,-0.7L0.07,-0L0.171,-0L0.171,-0.307L0.369,-0.307L0.369,-0L0.47,-0L0.47,-0.7L0.369,-0.7Z" style="fill:white;fill-rule:nonzero;"/>
            </g>
            <g transform="matrix(-44.7475,-30.3395,30.3395,-44.7475,-898.609,1167.76)">
                <path d="M0.225,-0.54C0.119,-0.54 0.051,-0.478 0.046,-0.377L0.143,-0.377C0.148,-0.424 0.18,-0.447 0.223,-0.447C0.276,-0.447 0.299,-0.412 0.299,-0.35L0.299,-0.313L0.222,-0.313C0.106,-0.313 0.031,-0.258 0.031,-0.15C0.031,-0.051 0.096,0.013 0.193,0.013C0.251,0.013 0.289,-0.014 0.31,-0.049L0.317,-0L0.396,-0L0.396,-0.35C0.396,-0.471 0.338,-0.54 0.225,-0.54ZM0.299,-0.157C0.299,-0.107 0.266,-0.073 0.213,-0.073C0.16,-0.073 0.129,-0.102 0.129,-0.15C0.129,-0.202 0.163,-0.229 0.222,-0.229L0.299,-0.229L0.299,-0.157Z" style="fill:white;fill-rule:nonzero;"/>
            </g>
            <g transform="matrix(-41.1241,-35.0946,35.0946,-41.1241,-918.956,1154.02)">
                <path d="M0.363,0.117L0.457,0.117L0.457,-0.089L0.397,-0.089L0.397,-0.527L0.3,-0.527L0.3,-0.089L0.155,-0.089L0.155,-0.527L0.058,-0.527L0.058,-0L0.363,-0L0.363,0.117Z" style="fill:white;fill-rule:nonzero;"/>
            </g>
            <g transform="matrix(-38.5119,-37.9428,37.9428,-38.5119,-938.279,1137.26)">
                <path d="M0.106,-0.615C0.142,-0.615 0.168,-0.642 0.168,-0.676C0.168,-0.712 0.142,-0.738 0.106,-0.738C0.07,-0.738 0.045,-0.712 0.045,-0.676C0.045,-0.641 0.07,-0.615 0.106,-0.615ZM0.058,-0L0.155,-0L0.155,-0.527L0.058,-0.527L0.058,-0Z" style="fill:white;fill-rule:nonzero;"/>
            </g>
            <g transform="matrix(-35.5522,-40.7292,40.7292,-35.5522,-946.708,1129.31)">
                <path d="M0.231,0.012C0.346,0.012 0.417,-0.059 0.417,-0.188L0.417,-0.34C0.417,-0.469 0.346,-0.54 0.231,-0.54C0.117,-0.54 0.046,-0.469 0.046,-0.34L0.046,-0.188C0.046,-0.059 0.117,0.012 0.231,0.012ZM0.231,-0.082C0.177,-0.082 0.144,-0.114 0.144,-0.188L0.144,-0.34C0.144,-0.414 0.177,-0.446 0.231,-0.446C0.286,-0.446 0.319,-0.414 0.319,-0.34L0.319,-0.188C0.319,-0.114 0.286,-0.082 0.231,-0.082Z" style="fill:white;fill-rule:nonzero;"/>
            </g>
            <g transform="matrix(-31.272,-44.1009,44.1009,-31.272,-962.963,1110.7)">
                <path d="M0.302,-0.527L0.302,-0.315L0.155,-0.315L0.155,-0.527L0.058,-0.527L0.058,-0L0.155,-0L0.155,-0.225L0.302,-0.225L0.302,-0L0.399,-0L0.399,-0.527L0.302,-0.527Z" style="fill:white;fill-rule:nonzero;"/>
            </g>
            <g transform="matrix(-26.7821,-46.9632,46.9632,-26.7821,-977.219,1090.52)">
                <path d="M0.225,-0.54C0.119,-0.54 0.051,-0.478 0.046,-0.377L0.143,-0.377C0.148,-0.424 0.18,-0.447 0.223,-0.447C0.276,-0.447 0.299,-0.412 0.299,-0.35L0.299,-0.313L0.222,-0.313C0.106,-0.313 0.031,-0.258 0.031,-0.15C0.031,-0.051 0.096,0.013 0.193,0.013C0.251,0.013 0.289,-0.014 0.31,-0.049L0.317,-0L0.396,-0L0.396,-0.35C0.396,-0.471 0.338,-0.54 0.225,-0.54ZM0.299,-0.157C0.299,-0.107 0.266,-0.073 0.213,-0.073C0.16,-0.073 0.129,-0.102 0.129,-0.15C0.129,-0.202 0.163,-0.229 0.222,-0.229L0.299,-0.229L0.299,-0.157Z" style="fill:white;fill-rule:nonzero;"/>
            </g>
            <g transform="matrix(-22.059,-49.3582,49.3582,-22.059,-989.276,1069.15)">
                <path d="M0,0.007C0.104,0.007 0.154,-0.064 0.167,-0.211C0.173,-0.272 0.179,-0.376 0.18,-0.438L0.298,-0.438L0.298,-0L0.394,-0L0.394,-0.527L0.087,-0.527C0.085,-0.425 0.078,-0.303 0.072,-0.227C0.064,-0.143 0.053,-0.086 0,-0.086L0,0.007Z" style="fill:white;fill-rule:nonzero;"/>
            </g>
            <g transform="matrix(-16.4891,-51.4872,51.4872,-16.4891,-999.207,1046.78)">
                <path d="M0.238,-0.349L0.155,-0.349L0.155,-0.527L0.058,-0.527L0.058,-0L0.238,-0C0.338,-0 0.412,-0.071 0.412,-0.176C0.412,-0.279 0.338,-0.349 0.238,-0.349ZM0.228,-0.088L0.155,-0.088L0.155,-0.261L0.228,-0.261C0.279,-0.261 0.314,-0.229 0.314,-0.176C0.314,-0.122 0.279,-0.088 0.228,-0.088Z" style="fill:white;fill-rule:nonzero;"/>
            </g>
            <g transform="matrix(-11.5743,-52.8097,52.8097,-11.5743,-1006.31,1024.94)">
                <path d="M0.302,-0.527L0.302,-0.315L0.155,-0.315L0.155,-0.527L0.058,-0.527L0.058,-0L0.155,-0L0.155,-0.225L0.302,-0.225L0.302,-0L0.399,-0L0.399,-0.527L0.302,-0.527Z" style="fill:white;fill-rule:nonzero;"/>
            </g>
            <g transform="matrix(-6.06352,-53.7221,53.7221,-6.06352,-1011.6,1000.85)">
                <path d="M0.058,-0L0.157,-0L0.258,-0.211C0.279,-0.256 0.312,-0.351 0.317,-0.373L0.32,-0.372C0.317,-0.319 0.315,-0.253 0.315,-0.202L0.315,-0L0.409,-0L0.409,-0.527L0.31,-0.527L0.208,-0.306C0.191,-0.263 0.161,-0.184 0.153,-0.157L0.15,-0.159C0.152,-0.216 0.152,-0.263 0.152,-0.305L0.152,-0.527L0.058,-0.527L0.058,-0Z" style="fill:white;fill-rule:nonzero;"/>
            </g>
            <g transform="matrix(-0.471471,-54.0611,54.0611,-0.471471,-1014.43,975.695)">
                <path d="M0.235,-0.609C0.304,-0.609 0.352,-0.652 0.355,-0.729L0.286,-0.729C0.284,-0.694 0.265,-0.676 0.234,-0.676C0.204,-0.676 0.185,-0.694 0.183,-0.729L0.114,-0.729C0.117,-0.653 0.165,-0.609 0.235,-0.609ZM0.058,-0L0.157,-0L0.258,-0.211C0.279,-0.256 0.312,-0.351 0.317,-0.373L0.32,-0.372C0.317,-0.319 0.315,-0.253 0.315,-0.202L0.315,-0L0.409,-0L0.409,-0.527L0.31,-0.527L0.208,-0.306C0.191,-0.263 0.161,-0.184 0.153,-0.157L0.15,-0.159C0.152,-0.216 0.152,-0.263 0.152,-0.305L0.152,-0.527L0.058,-0.527L0.058,-0Z" style="fill:white;fill-rule:nonzero;"/>
            </g>
            <g transform="matrix(10.6837,-52.997,52.997,10.6837,-1012.67,927.245)">
                <path d="M0.47,-0.7L0.07,-0.7L0.07,-0L0.171,-0L0.171,-0.604L0.369,-0.604L0.369,-0L0.47,-0L0.47,-0.7Z" style="fill:white;fill-rule:nonzero;"/>
            </g>
            <g transform="matrix(16.5887,-51.4552,51.4552,16.5887,-1006.78,898.632)">
                <path d="M0.32,-0.165C0.311,-0.108 0.286,-0.082 0.227,-0.082C0.174,-0.082 0.143,-0.115 0.143,-0.187L0.143,-0.227L0.41,-0.227L0.41,-0.344C0.41,-0.469 0.339,-0.54 0.226,-0.54C0.115,-0.54 0.046,-0.469 0.046,-0.344L0.046,-0.187C0.046,-0.061 0.115,0.011 0.225,0.011C0.339,0.011 0.408,-0.053 0.417,-0.165L0.32,-0.165ZM0.227,-0.449C0.282,-0.449 0.314,-0.417 0.314,-0.345L0.314,-0.3L0.143,-0.3L0.143,-0.345C0.143,-0.417 0.174,-0.449 0.227,-0.449Z" style="fill:white;fill-rule:nonzero;"/>
            </g>
            <g transform="matrix(21.7568,-49.4921,49.4921,21.7568,-999.265,875.244)">
                <path d="M0,0.117L0.093,0.117L0.093,-0L0.371,-0L0.371,0.117L0.464,0.117L0.464,-0.089L0.404,-0.089L0.404,-0.527L0.098,-0.527C0.096,-0.443 0.092,-0.358 0.087,-0.274C0.082,-0.2 0.069,-0.131 0.04,-0.089L0,-0.089L0,0.117ZM0.15,-0.089C0.166,-0.131 0.176,-0.185 0.181,-0.252C0.186,-0.314 0.188,-0.376 0.189,-0.438L0.308,-0.438L0.308,-0.089L0.15,-0.089Z" style="fill:white;fill-rule:nonzero;"/>
            </g>
            <g transform="matrix(26.7111,-47.0036,47.0036,26.7111,-988.821,851.701)">
                <path d="M0.225,-0.54C0.119,-0.54 0.051,-0.478 0.046,-0.377L0.143,-0.377C0.148,-0.424 0.18,-0.447 0.223,-0.447C0.276,-0.447 0.299,-0.412 0.299,-0.35L0.299,-0.313L0.222,-0.313C0.106,-0.313 0.031,-0.258 0.031,-0.15C0.031,-0.051 0.096,0.013 0.193,0.013C0.251,0.013 0.289,-0.014 0.31,-0.049L0.317,-0L0.396,-0L0.396,-0.35C0.396,-0.471 0.338,-0.54 0.225,-0.54ZM0.299,-0.157C0.299,-0.107 0.266,-0.073 0.213,-0.073C0.16,-0.073 0.129,-0.102 0.129,-0.15C0.129,-0.202 0.163,-0.229 0.222,-0.229L0.299,-0.229L0.299,-0.157Z" style="fill:white;fill-rule:nonzero;"/>
            </g>
            <g transform="matrix(31.1397,-44.1944,44.1944,31.1397,-976.601,830.438)">
                <path d="M0.332,-0.528L0.058,-0.528L0.058,-0L0.156,-0L0.156,-0.435L0.332,-0.435L0.332,-0.528Z" style="fill:white;fill-rule:nonzero;"/>
            </g>
            <g transform="matrix(34.6325,-41.5141,41.5141,34.6325,-966.491,815.722)">
                <path d="M0.231,0.012C0.346,0.012 0.417,-0.059 0.417,-0.188L0.417,-0.34C0.417,-0.469 0.346,-0.54 0.231,-0.54C0.117,-0.54 0.046,-0.469 0.046,-0.34L0.046,-0.188C0.046,-0.059 0.117,0.012 0.231,0.012ZM0.231,-0.082C0.177,-0.082 0.144,-0.114 0.144,-0.188L0.144,-0.34C0.144,-0.414 0.177,-0.446 0.231,-0.446C0.286,-0.446 0.319,-0.414 0.319,-0.34L0.319,-0.188C0.319,-0.114 0.286,-0.082 0.231,-0.082Z" style="fill:white;fill-rule:nonzero;"/>
            </g>
            <g transform="matrix(38.3988,-38.0573,38.0573,38.3988,-950.384,796.561)">
                <path d="M0.332,-0.528L0.058,-0.528L0.058,-0L0.156,-0L0.156,-0.435L0.332,-0.435L0.332,-0.528Z" style="fill:white;fill-rule:nonzero;"/>
            </g>
            <g transform="matrix(40.5166,-35.7943,35.7943,40.5166,-937.012,783.407)">
                <path d="M0.106,-0.615C0.142,-0.615 0.168,-0.642 0.168,-0.676C0.168,-0.712 0.142,-0.738 0.106,-0.738C0.07,-0.738 0.045,-0.712 0.045,-0.676C0.045,-0.641 0.07,-0.615 0.106,-0.615ZM0.058,-0L0.155,-0L0.155,-0.527L0.058,-0.527L0.058,-0Z" style="fill:white;fill-rule:nonzero;"/>
            </g>
            <g transform="matrix(42.8636,-32.9475,32.9475,42.8636,-928.517,775.667)">
                <path d="M0.282,-0.527L0.282,-0.275C0.256,-0.258 0.225,-0.256 0.202,-0.256C0.155,-0.256 0.121,-0.286 0.121,-0.378L0.121,-0.527L0.029,-0.527L0.029,-0.378C0.029,-0.229 0.099,-0.165 0.193,-0.165C0.222,-0.165 0.253,-0.169 0.282,-0.184L0.282,-0L0.374,-0L0.374,-0.527L0.282,-0.527Z" style="fill:white;fill-rule:nonzero;"/>
            </g>
            <g transform="matrix(46.0059,-28.3952,28.3952,46.0059,-909.958,761.41)">
                <path d="M0.302,-0.527L0.302,-0.315L0.155,-0.315L0.155,-0.527L0.058,-0.527L0.058,-0L0.155,-0L0.155,-0.225L0.302,-0.225L0.302,-0L0.399,-0L0.399,-0.527L0.302,-0.527Z" style="fill:white;fill-rule:nonzero;"/>
            </g>
            <g transform="matrix(48.6893,-23.4984,23.4984,48.6893,-888.938,748.419)">
                <path d="M0.058,-0L0.157,-0L0.258,-0.211C0.279,-0.256 0.312,-0.351 0.317,-0.373L0.32,-0.372C0.317,-0.319 0.315,-0.253 0.315,-0.202L0.315,-0L0.409,-0L0.409,-0.527L0.31,-0.527L0.208,-0.306C0.191,-0.263 0.161,-0.184 0.153,-0.157L0.15,-0.159C0.152,-0.216 0.152,-0.263 0.152,-0.305L0.152,-0.527L0.058,-0.527L0.058,-0Z" style="fill:white;fill-rule:nonzero;"/>
            </g>
            <g transform="matrix(50.883,-18.2687,18.2687,50.883,-866.193,737.441)">
                <path d="M0.235,-0.609C0.304,-0.609 0.352,-0.652 0.355,-0.729L0.286,-0.729C0.284,-0.694 0.265,-0.676 0.234,-0.676C0.204,-0.676 0.185,-0.694 0.183,-0.729L0.114,-0.729C0.117,-0.653 0.165,-0.609 0.235,-0.609ZM0.058,-0L0.157,-0L0.258,-0.211C0.279,-0.256 0.312,-0.351 0.317,-0.373L0.32,-0.372C0.317,-0.319 0.315,-0.253 0.315,-0.202L0.315,-0L0.409,-0L0.409,-0.527L0.31,-0.527L0.208,-0.306C0.191,-0.263 0.161,-0.184 0.153,-0.157L0.15,-0.159C0.152,-0.216 0.152,-0.263 0.152,-0.305L0.152,-0.527L0.058,-0.527L0.058,-0Z" style="fill:white;fill-rule:nonzero;"/>
            </g>
            <g transform="matrix(53.4857,-7.88082,7.88082,53.4857,-819.87,723.341)">
                <path d="M0.327,-0.7L0.226,-0.359L0.112,-0.7L0.005,-0.7L0.181,-0.205L0.173,-0.179C0.152,-0.109 0.129,-0.081 0.075,-0.081L0.047,-0.081L0.047,0.01L0.072,0.01C0.178,0.01 0.227,-0.031 0.263,-0.147L0.433,-0.7L0.327,-0.7Z" style="fill:white;fill-rule:nonzero;"/>
            </g>
            <g transform="matrix(53.9824,-2.9545,2.9545,53.9824,-798.393,720.064)">
                <path d="M0.302,-0.527L0.302,-0.315L0.155,-0.315L0.155,-0.527L0.058,-0.527L0.058,-0L0.155,-0L0.155,-0.225L0.302,-0.225L0.302,-0L0.399,-0L0.399,-0.527L0.302,-0.527Z" style="fill:white;fill-rule:nonzero;"/>
            </g>
            <g transform="matrix(54.0534,1.02854,-1.02854,54.0534,-773.726,718.958)">
                <path d="M0.106,-0.615C0.142,-0.615 0.168,-0.642 0.168,-0.676C0.168,-0.712 0.142,-0.738 0.106,-0.738C0.07,-0.738 0.045,-0.712 0.045,-0.676C0.045,-0.641 0.07,-0.615 0.106,-0.615ZM0.058,-0L0.155,-0L0.155,-0.527L0.058,-0.527L0.058,-0Z" style="fill:white;fill-rule:nonzero;"/>
            </g>
            <g transform="matrix(53.8233,5.08673,-5.08673,53.8233,-762.191,718.92)">
                <path d="M0.323,-0.28C0.36,-0.304 0.381,-0.343 0.381,-0.381C0.381,-0.472 0.323,-0.527 0.216,-0.527L0.058,-0.527L0.058,-0L0.224,-0C0.347,-0 0.408,-0.058 0.408,-0.153C0.408,-0.205 0.382,-0.257 0.323,-0.28ZM0.152,-0.446L0.21,-0.446C0.26,-0.446 0.286,-0.42 0.286,-0.379C0.286,-0.335 0.26,-0.311 0.211,-0.311L0.152,-0.311L0.152,-0.446ZM0.228,-0.082L0.152,-0.082L0.152,-0.229L0.228,-0.229C0.285,-0.229 0.312,-0.204 0.312,-0.156C0.312,-0.108 0.285,-0.082 0.228,-0.082Z" style="fill:white;fill-rule:nonzero;"/>
            </g>
            <g transform="matrix(53.0872,10.2262,-10.2262,53.0872,-738.989,721.023)">
                <path d="M0.32,-0.165C0.311,-0.108 0.286,-0.082 0.227,-0.082C0.174,-0.082 0.143,-0.115 0.143,-0.187L0.143,-0.227L0.41,-0.227L0.41,-0.344C0.41,-0.469 0.339,-0.54 0.226,-0.54C0.115,-0.54 0.046,-0.469 0.046,-0.344L0.046,-0.187C0.046,-0.061 0.115,0.011 0.225,0.011C0.339,0.011 0.408,-0.053 0.417,-0.165L0.32,-0.165ZM0.227,-0.449C0.282,-0.449 0.314,-0.417 0.314,-0.345L0.314,-0.3L0.143,-0.3L0.143,-0.345C0.143,-0.417 0.174,-0.449 0.227,-0.449Z" style="fill:white;fill-rule:nonzero;"/>
            </g>
            <g transform="matrix(51.7366,15.6893,-15.6893,51.7366,-714.858,725.622)">
                <path d="M0.254,-0.539C0.207,-0.539 0.161,-0.513 0.135,-0.479L0.128,-0.528L0.058,-0.528L0.058,0.18L0.153,0.18L0.153,-0.03C0.179,-0.003 0.216,0.012 0.254,0.012C0.356,0.012 0.422,-0.062 0.422,-0.19L0.422,-0.335C0.422,-0.464 0.354,-0.539 0.254,-0.539ZM0.323,-0.19C0.323,-0.113 0.294,-0.079 0.238,-0.079C0.185,-0.079 0.153,-0.121 0.153,-0.19L0.153,-0.336C0.153,-0.411 0.188,-0.448 0.238,-0.448C0.292,-0.448 0.323,-0.413 0.323,-0.335L0.323,-0.19Z" style="fill:white;fill-rule:nonzero;"/>
            </g>
            <g transform="matrix(49.8673,20.8824,-20.8824,49.8673,-690.725,732.938)">
                <path d="M0.224,0.011C0.336,0.011 0.406,-0.059 0.409,-0.182L0.312,-0.182C0.309,-0.115 0.279,-0.082 0.225,-0.082C0.174,-0.082 0.144,-0.115 0.144,-0.182L0.144,-0.348C0.144,-0.415 0.174,-0.447 0.225,-0.447C0.278,-0.447 0.307,-0.415 0.309,-0.348L0.407,-0.348C0.403,-0.47 0.338,-0.54 0.224,-0.54C0.114,-0.54 0.046,-0.47 0.046,-0.348L0.046,-0.182C0.046,-0.059 0.114,0.011 0.224,0.011Z" style="fill:white;fill-rule:nonzero;"/>
            </g>
            <g transform="matrix(47.5491,25.7275,-25.7275,47.5491,-668.893,742.012)">
                <path d="M0.058,-0L0.157,-0L0.258,-0.211C0.279,-0.256 0.312,-0.351 0.317,-0.373L0.32,-0.372C0.317,-0.319 0.315,-0.253 0.315,-0.202L0.315,-0L0.409,-0L0.409,-0.527L0.31,-0.527L0.208,-0.306C0.191,-0.263 0.161,-0.184 0.153,-0.157L0.15,-0.159C0.152,-0.216 0.152,-0.263 0.152,-0.305L0.152,-0.527L0.058,-0.527L0.058,-0Z" style="fill:white;fill-rule:nonzero;"/>
            </g>
            <g transform="matrix(44.974,30.0028,-30.0028,44.974,-646.68,754.192)">
                <path d="M0.347,-0.527L0.01,-0.527L0.01,-0.436L0.13,-0.436L0.13,-0L0.226,-0L0.226,-0.436L0.347,-0.436L0.347,-0.527Z" style="fill:white;fill-rule:nonzero;"/>
            </g>
            <g transform="matrix(42.1906,33.805,-33.805,42.1906,-631.333,764.23)">
                <path d="M0.32,-0.165C0.311,-0.108 0.286,-0.082 0.227,-0.082C0.174,-0.082 0.143,-0.115 0.143,-0.187L0.143,-0.227L0.41,-0.227L0.41,-0.344C0.41,-0.469 0.339,-0.54 0.226,-0.54C0.115,-0.54 0.046,-0.469 0.046,-0.344L0.046,-0.187C0.046,-0.061 0.115,0.011 0.225,0.011C0.339,0.011 0.408,-0.053 0.417,-0.165L0.32,-0.165ZM0.227,-0.449C0.282,-0.449 0.314,-0.417 0.314,-0.345L0.314,-0.3L0.143,-0.3L0.143,-0.345C0.143,-0.417 0.174,-0.449 0.227,-0.449Z" style="fill:white;fill-rule:nonzero;"/>
            </g>
            <g transform="matrix(39.0169,37.4234,-37.4234,39.0169,-612.231,779.673)">
                <path d="M0.347,-0.527L0.01,-0.527L0.01,-0.436L0.13,-0.436L0.13,-0L0.226,-0L0.226,-0.436L0.347,-0.436L0.347,-0.527Z" style="fill:white;fill-rule:nonzero;"/>
            </g>
            <g transform="matrix(32.6262,43.1087,-43.1087,32.6262,-583.13,810.549)">
                <path d="M0.106,-0.615C0.142,-0.615 0.168,-0.642 0.168,-0.676C0.168,-0.712 0.142,-0.738 0.106,-0.738C0.07,-0.738 0.045,-0.712 0.045,-0.676C0.045,-0.641 0.07,-0.615 0.106,-0.615ZM0.058,-0L0.155,-0L0.155,-0.527L0.058,-0.527L0.058,-0Z" style="fill:white;fill-rule:nonzero;"/>
            </g>
            <g transform="matrix(28.8096,45.7475,-45.7475,28.8096,-575.804,819.578)">
                <path d="M0.4,-0.527L0.319,-0.337C0.305,-0.3 0.291,-0.265 0.279,-0.227L0.276,-0.227C0.265,-0.265 0.251,-0.3 0.236,-0.337L0.155,-0.527L0.058,-0.527L0.058,-0L0.148,-0L0.148,-0.209C0.148,-0.264 0.144,-0.318 0.142,-0.364L0.147,-0.365C0.162,-0.319 0.176,-0.272 0.19,-0.233L0.233,-0.131L0.322,-0.131L0.365,-0.233C0.379,-0.272 0.394,-0.319 0.408,-0.365L0.413,-0.364C0.411,-0.318 0.407,-0.264 0.407,-0.209L0.407,-0L0.497,-0L0.497,-0.527L0.4,-0.527Z" style="fill:white;fill-rule:nonzero;"/>
            </g>
            <g transform="matrix(24.8764,47.9999,-47.9999,24.8764,-560.149,845.205)">
                <path d="M0.097,0.011C0.133,0.011 0.158,-0.013 0.158,-0.05C0.158,-0.086 0.133,-0.11 0.097,-0.11C0.061,-0.11 0.036,-0.086 0.036,-0.05C0.036,-0.013 0.061,0.011 0.097,0.011Z" style="fill:white;fill-rule:nonzero;"/>
            </g>
            <g transform="matrix(17.5603,51.1318,-51.1318,17.5603,-549.841,864.819)">
                <path d="M0.515,-0.7L0.397,-0.416C0.381,-0.376 0.357,-0.309 0.346,-0.277L0.342,-0.277C0.331,-0.309 0.307,-0.376 0.291,-0.416L0.173,-0.7L0.07,-0.7L0.07,-0L0.169,-0L0.169,-0.273C0.167,-0.353 0.164,-0.426 0.161,-0.499L0.165,-0.501C0.185,-0.445 0.209,-0.381 0.233,-0.317L0.294,-0.158L0.394,-0.158L0.455,-0.317C0.479,-0.381 0.503,-0.445 0.523,-0.501L0.527,-0.499C0.523,-0.426 0.521,-0.353 0.519,-0.273L0.519,-0L0.618,-0L0.618,-0.7L0.515,-0.7Z" style="fill:white;fill-rule:nonzero;"/>
            </g>
            <g transform="matrix(12.3985,52.6223,-52.6223,12.3985,-538.389,900.212)">
                <path d="M0.097,0.011C0.133,0.011 0.158,-0.013 0.158,-0.05C0.158,-0.086 0.133,-0.11 0.097,-0.11C0.061,-0.11 0.036,-0.086 0.036,-0.05C0.036,-0.013 0.061,0.011 0.097,0.011Z" style="fill:white;fill-rule:nonzero;"/>
            </g>
            <g transform="matrix(8.02816,53.4638,-53.4638,8.02816,-535.61,910.326)">
                <path d="M0.47,-0.7L0.07,-0.7L0.07,-0L0.171,-0L0.171,-0.604L0.369,-0.604L0.369,-0L0.47,-0L0.47,-0.7Z" style="fill:white;fill-rule:nonzero;"/>
            </g>
            <g transform="matrix(3.63792,53.9406,-53.9406,3.63792,-531.66,939.203)">
                <path d="M0.097,0.011C0.133,0.011 0.158,-0.013 0.158,-0.05C0.158,-0.086 0.133,-0.11 0.097,-0.11C0.061,-0.11 0.036,-0.086 0.036,-0.05C0.036,-0.013 0.061,0.011 0.097,0.011Z" style="fill:white;fill-rule:nonzero;"/>
            </g>
            <g transform="matrix(-0.878575,54.056,-54.056,-0.878575,-530.547,950.248)">
                <path d="M0.475,-0.095L0.475,-0.7L0.138,-0.7L0.126,-0.362C0.122,-0.252 0.098,-0.147 0.047,-0.095L0.006,-0.095L0.006,0.117L0.105,0.117L0.105,-0L0.438,-0L0.438,0.117L0.537,0.117L0.537,-0.095L0.475,-0.095ZM0.375,-0.095L0.168,-0.095C0.201,-0.154 0.219,-0.235 0.223,-0.334L0.233,-0.605L0.375,-0.605L0.375,-0.095Z" style="fill:white;fill-rule:nonzero;"/>
            </g>
            <g transform="matrix(-7.07938,53.5977,-53.5977,-7.07938,-531.146,979.985)">
                <path d="M0.254,-0.539C0.207,-0.539 0.161,-0.513 0.135,-0.479L0.128,-0.528L0.058,-0.528L0.058,0.18L0.153,0.18L0.153,-0.03C0.179,-0.003 0.216,0.012 0.254,0.012C0.356,0.012 0.422,-0.062 0.422,-0.19L0.422,-0.335C0.422,-0.464 0.354,-0.539 0.254,-0.539ZM0.323,-0.19C0.323,-0.113 0.294,-0.079 0.238,-0.079C0.185,-0.079 0.153,-0.121 0.153,-0.19L0.153,-0.336C0.153,-0.411 0.188,-0.448 0.238,-0.448C0.292,-0.448 0.323,-0.413 0.323,-0.335L0.323,-0.19Z" style="fill:white;fill-rule:nonzero;"/>
            </g>
            <g transform="matrix(-12.3368,52.6368,-52.6368,-12.3368,-534.488,1005.02)">
                <path d="M0.225,-0.54C0.119,-0.54 0.051,-0.478 0.046,-0.377L0.143,-0.377C0.148,-0.424 0.18,-0.447 0.223,-0.447C0.276,-0.447 0.299,-0.412 0.299,-0.35L0.299,-0.313L0.222,-0.313C0.106,-0.313 0.031,-0.258 0.031,-0.15C0.031,-0.051 0.096,0.013 0.193,0.013C0.251,0.013 0.289,-0.014 0.31,-0.049L0.317,-0L0.396,-0L0.396,-0.35C0.396,-0.471 0.338,-0.54 0.225,-0.54ZM0.299,-0.157C0.299,-0.107 0.266,-0.073 0.213,-0.073C0.16,-0.073 0.129,-0.102 0.129,-0.15C0.129,-0.202 0.163,-0.229 0.222,-0.229L0.299,-0.229L0.299,-0.157Z" style="fill:white;fill-rule:nonzero;"/>
            </g>
            <g transform="matrix(-17.422,51.1791,-51.1791,-17.422,-540.193,1028.84)">
                <path d="M0.332,-0.528L0.058,-0.528L0.058,-0L0.156,-0L0.156,-0.435L0.332,-0.435L0.332,-0.528Z" style="fill:white;fill-rule:nonzero;"/>
            </g>
            <g transform="matrix(-21.5864,49.5667,-49.5667,-21.5864,-545.758,1045.85)">
                <path d="M0.231,0.012C0.346,0.012 0.417,-0.059 0.417,-0.188L0.417,-0.34C0.417,-0.469 0.346,-0.54 0.231,-0.54C0.117,-0.54 0.046,-0.469 0.046,-0.34L0.046,-0.188C0.046,-0.059 0.117,0.012 0.231,0.012ZM0.231,-0.082C0.177,-0.082 0.144,-0.114 0.144,-0.188L0.144,-0.34C0.144,-0.414 0.177,-0.446 0.231,-0.446C0.286,-0.446 0.319,-0.414 0.319,-0.34L0.319,-0.188C0.319,-0.114 0.286,-0.082 0.231,-0.082Z" style="fill:white;fill-rule:nonzero;"/>
            </g>
            <g transform="matrix(-27.0831,46.7903,-46.7903,-27.0831,-555.625,1068.86)">
                <path d="M0.4,-0.527L0.319,-0.337C0.305,-0.3 0.291,-0.265 0.279,-0.227L0.276,-0.227C0.265,-0.265 0.251,-0.3 0.236,-0.337L0.155,-0.527L0.058,-0.527L0.058,-0L0.148,-0L0.148,-0.209C0.148,-0.264 0.144,-0.318 0.142,-0.364L0.147,-0.365C0.162,-0.319 0.176,-0.272 0.19,-0.233L0.233,-0.131L0.322,-0.131L0.365,-0.233C0.379,-0.272 0.394,-0.319 0.408,-0.365L0.413,-0.364C0.411,-0.318 0.407,-0.264 0.407,-0.209L0.407,-0L0.497,-0L0.497,-0.527L0.4,-0.527Z" style="fill:white;fill-rule:nonzero;"/>
            </g>
            <g transform="matrix(-32.0429,43.544,-43.544,-32.0429,-570.857,1094.79)">
                <path d="M0.225,-0.54C0.119,-0.54 0.051,-0.478 0.046,-0.377L0.143,-0.377C0.148,-0.424 0.18,-0.447 0.223,-0.447C0.276,-0.447 0.299,-0.412 0.299,-0.35L0.299,-0.313L0.222,-0.313C0.106,-0.313 0.031,-0.258 0.031,-0.15C0.031,-0.051 0.096,0.013 0.193,0.013C0.251,0.013 0.289,-0.014 0.31,-0.049L0.317,-0L0.396,-0L0.396,-0.35C0.396,-0.471 0.338,-0.54 0.225,-0.54ZM0.299,-0.157C0.299,-0.107 0.266,-0.073 0.213,-0.073C0.16,-0.073 0.129,-0.102 0.129,-0.15C0.129,-0.202 0.163,-0.229 0.222,-0.229L0.299,-0.229L0.299,-0.157Z" style="fill:white;fill-rule:nonzero;"/>
            </g>
            <g transform="matrix(-36.3939,39.9788,-39.9788,-36.3939,-585.431,1114.53)">
                <path d="M0.302,-0.527L0.302,-0.315L0.155,-0.315L0.155,-0.527L0.058,-0.527L0.058,-0L0.155,-0L0.155,-0.225L0.302,-0.225L0.302,-0L0.399,-0L0.399,-0.527L0.302,-0.527Z" style="fill:white;fill-rule:nonzero;"/>
            </g>
            <g transform="matrix(-40.2891,36.0502,-36.0502,-40.2891,-602.128,1132.88)">
                <path d="M0.231,0.012C0.346,0.012 0.417,-0.059 0.417,-0.188L0.417,-0.34C0.417,-0.469 0.346,-0.54 0.231,-0.54C0.117,-0.54 0.046,-0.469 0.046,-0.34L0.046,-0.188C0.046,-0.059 0.117,0.012 0.231,0.012ZM0.231,-0.082C0.177,-0.082 0.144,-0.114 0.144,-0.188L0.144,-0.34C0.144,-0.414 0.177,-0.446 0.231,-0.446C0.286,-0.446 0.319,-0.414 0.319,-0.34L0.319,-0.188C0.319,-0.114 0.286,-0.082 0.231,-0.082Z" style="fill:white;fill-rule:nonzero;"/>
            </g>
            <g transform="matrix(-43.7825,31.7162,-31.7162,-43.7825,-620.758,1149.56)">
                <path d="M0.323,-0.28C0.36,-0.304 0.381,-0.343 0.381,-0.381C0.381,-0.472 0.323,-0.527 0.216,-0.527L0.058,-0.527L0.058,-0L0.224,-0C0.347,-0 0.408,-0.058 0.408,-0.153C0.408,-0.205 0.382,-0.257 0.323,-0.28ZM0.152,-0.446L0.21,-0.446C0.26,-0.446 0.286,-0.42 0.286,-0.379C0.286,-0.335 0.26,-0.311 0.211,-0.311L0.152,-0.311L0.152,-0.446ZM0.228,-0.082L0.152,-0.082L0.152,-0.229L0.228,-0.229C0.285,-0.229 0.312,-0.204 0.312,-0.156C0.312,-0.108 0.285,-0.082 0.228,-0.082Z" style="fill:white;fill-rule:nonzero;"/>
            </g>
            <g transform="matrix(-46.5015,27.5759,-27.5759,-46.5015,-639.598,1163.26)">
                <path d="M0.225,-0.54C0.119,-0.54 0.051,-0.478 0.046,-0.377L0.143,-0.377C0.148,-0.424 0.18,-0.447 0.223,-0.447C0.276,-0.447 0.299,-0.412 0.299,-0.35L0.299,-0.313L0.222,-0.313C0.106,-0.313 0.031,-0.258 0.031,-0.15C0.031,-0.051 0.096,0.013 0.193,0.013C0.251,0.013 0.289,-0.014 0.31,-0.049L0.317,-0L0.396,-0L0.396,-0.35C0.396,-0.471 0.338,-0.54 0.225,-0.54ZM0.299,-0.157C0.299,-0.107 0.266,-0.073 0.213,-0.073C0.16,-0.073 0.129,-0.102 0.129,-0.15C0.129,-0.202 0.163,-0.229 0.222,-0.229L0.299,-0.229L0.299,-0.157Z" style="fill:white;fill-rule:nonzero;"/>
            </g>
            <g transform="matrix(57.466,12.3873,-12.3873,57.466,-844.332,1230.33)">
                <path d="M0.325,-0.681L0.39,-0.681L0.39,-0.07L0.401,-0.054L0.495,-0.05L0.495,-0L0.148,-0L0.148,-0.05L0.248,-0.056L0.26,-0.074L0.26,-0.566L0.251,-0.578L0.109,-0.557L0.109,-0.608L0.325,-0.681Z" style="fill:white;fill-rule:nonzero;"/>
            </g>
            <g transform="matrix(58.7125,2.93762,-2.93762,58.7125,-810.433,1236.88)">
                <path d="M0.222,-0.314C0.2,-0.294 0.185,-0.275 0.175,-0.255C0.165,-0.235 0.16,-0.214 0.16,-0.19C0.16,-0.148 0.173,-0.114 0.198,-0.087C0.223,-0.059 0.255,-0.046 0.293,-0.046C0.329,-0.046 0.358,-0.056 0.38,-0.075C0.402,-0.095 0.413,-0.121 0.413,-0.152C0.413,-0.184 0.4,-0.212 0.374,-0.235C0.347,-0.258 0.297,-0.285 0.222,-0.314ZM0.394,-0.356C0.444,-0.338 0.48,-0.315 0.504,-0.287C0.527,-0.259 0.539,-0.224 0.539,-0.182C0.539,-0.123 0.516,-0.075 0.47,-0.039C0.424,-0.003 0.362,0.015 0.284,0.015C0.212,0.015 0.154,-0.003 0.109,-0.039C0.064,-0.076 0.042,-0.122 0.042,-0.179C0.042,-0.218 0.053,-0.251 0.076,-0.278C0.099,-0.305 0.133,-0.325 0.177,-0.338C0.142,-0.354 0.116,-0.375 0.098,-0.401C0.08,-0.428 0.071,-0.459 0.071,-0.494C0.071,-0.552 0.092,-0.598 0.134,-0.633C0.177,-0.668 0.233,-0.685 0.303,-0.685C0.365,-0.685 0.416,-0.669 0.454,-0.636C0.493,-0.604 0.512,-0.562 0.512,-0.511C0.512,-0.477 0.502,-0.447 0.482,-0.421C0.462,-0.395 0.433,-0.373 0.394,-0.356ZM0.347,-0.379C0.364,-0.395 0.377,-0.414 0.386,-0.434C0.395,-0.455 0.399,-0.478 0.399,-0.502C0.399,-0.538 0.389,-0.568 0.37,-0.591C0.35,-0.614 0.325,-0.625 0.293,-0.625C0.265,-0.625 0.242,-0.615 0.224,-0.596C0.206,-0.577 0.197,-0.553 0.197,-0.524C0.197,-0.494 0.208,-0.468 0.232,-0.445C0.255,-0.422 0.294,-0.4 0.347,-0.379Z" style="fill:white;fill-rule:nonzero;"/>
            </g>
            <g transform="matrix(58.7639,-1.60866,1.60866,58.7639,-772.293,1238.36)">
                <path d="M0.334,-0.353C0.394,-0.348 0.44,-0.332 0.473,-0.304C0.506,-0.276 0.523,-0.239 0.523,-0.193C0.523,-0.134 0.497,-0.085 0.445,-0.046C0.394,-0.008 0.326,0.011 0.244,0.011C0.186,0.011 0.138,-0.001 0.099,-0.025C0.061,-0.049 0.042,-0.079 0.042,-0.114C0.042,-0.134 0.049,-0.149 0.062,-0.161C0.075,-0.173 0.092,-0.179 0.113,-0.179C0.118,-0.179 0.124,-0.179 0.13,-0.177C0.136,-0.176 0.143,-0.174 0.152,-0.171L0.184,-0.063C0.197,-0.058 0.209,-0.054 0.221,-0.052C0.232,-0.049 0.243,-0.048 0.253,-0.048C0.291,-0.048 0.323,-0.061 0.348,-0.088C0.374,-0.115 0.387,-0.148 0.387,-0.187C0.387,-0.224 0.375,-0.254 0.349,-0.276C0.324,-0.299 0.291,-0.31 0.249,-0.31C0.24,-0.31 0.23,-0.31 0.22,-0.309C0.209,-0.308 0.198,-0.307 0.187,-0.305L0.187,-0.377C0.191,-0.377 0.194,-0.376 0.198,-0.376C0.203,-0.376 0.208,-0.376 0.216,-0.376C0.262,-0.376 0.299,-0.387 0.324,-0.408C0.35,-0.43 0.363,-0.46 0.363,-0.499C0.363,-0.534 0.351,-0.562 0.328,-0.585C0.305,-0.607 0.276,-0.618 0.239,-0.618C0.23,-0.618 0.221,-0.617 0.212,-0.615C0.202,-0.613 0.193,-0.61 0.183,-0.606L0.183,-0.489C0.175,-0.484 0.167,-0.48 0.159,-0.478C0.15,-0.476 0.141,-0.475 0.13,-0.475C0.109,-0.475 0.091,-0.482 0.078,-0.494C0.065,-0.507 0.058,-0.524 0.058,-0.544C0.058,-0.582 0.079,-0.615 0.122,-0.642C0.164,-0.669 0.217,-0.682 0.281,-0.682C0.346,-0.682 0.398,-0.666 0.438,-0.635C0.478,-0.604 0.498,-0.563 0.498,-0.513C0.498,-0.473 0.484,-0.44 0.456,-0.412C0.428,-0.385 0.388,-0.365 0.334,-0.353Z" style="fill:white;fill-rule:nonzero;"/>
            </g>
            <g transform="matrix(57.7812,-10.8218,10.8218,57.7812,-736.157,1238.32)">
                <path d="M0.336,-0.539L0.116,-0.26L0.336,-0.26L0.336,-0.539ZM0.355,-0.677L0.453,-0.677L0.453,-0.26L0.566,-0.26L0.566,-0.181L0.453,-0.181L0.453,0.01L0.336,0.01L0.336,-0.181L0.025,-0.181L0.025,-0.262L0.355,-0.677Z" style="fill:white;fill-rule:nonzero;"/>
            </g>
            <g transform="matrix(1,0,0,1,-1799.07,-65.6943)">
                <path d="M1215.8,704.6L1255.8,704.6C1244.6,712.4 1234.1,719.7 1223.2,727.3C1227.5,739.6 1231.7,751.9 1236.4,765.5C1225.1,756.9 1214.8,749.2 1204.2,741.1C1193.7,749.1 1183.2,757 1172,765.6C1176.6,752.4 1180.9,740 1185.2,727.4C1174.4,719.9 1164.1,712.7 1152.8,704.9L1192.5,704.9C1196.2,692.6 1200,680.1 1204.2,666.5C1208.3,679.6 1212,691.8 1215.8,704.6Z" style="fill:white;fill-rule:nonzero;"/>
            </g>
            <g transform="matrix(1,0,0,1,-1799.07,-65.6943)">
                <path d="M657.6,1013C661.3,1000.7 665.1,988.2 669.2,974.7C670.4,978.5 671.4,981.5 672.4,984.6C675.1,993.6 677.7,1002.7 680.6,1011.6C680.9,1012.5 683.1,1013.4 684.4,1013.4C696,1013.3 707.5,1012.9 719.1,1012.7C719.5,1012.7 719.9,1012.8 720.9,1012.9C709.9,1020.6 699.3,1027.9 688.2,1035.6C692.5,1048 696.8,1060.4 701.4,1073.8C690.2,1065.3 679.8,1057.4 669.2,1049.4C658.6,1057.4 648.3,1065.3 637.1,1073.8C638.6,1069.4 639.8,1065.7 641.1,1062.1C643.9,1054.2 646.8,1046.2 649.4,1038.2C649.8,1037 648.9,1034.7 647.8,1034C639,1027.7 630,1021.6 621,1015.4C620.1,1014.8 619.4,1014.1 618.3,1013.3C631.3,1013 644,1013 657.6,1013Z" style="fill:white;fill-rule:nonzero;"/>
            </g>
            <g transform="matrix(1,0,0,1,-1799.07,-65.6943)">
                <path d="M688.4,892.8C693,879.7 697.2,867.5 701.7,854.7C691,847.3 680.2,839.7 668.9,831.8C676,831.8 682.4,831.7 688.9,831.8C693.9,831.9 698.9,832 703.9,832.6C707.9,833 709.5,831.5 710.5,827.8C713.4,817.4 716.6,807 719.6,796.7C719.8,796.2 720.2,795.8 720.9,794.6C724.9,807.6 728.6,820 732.3,832L772,832C761,839.7 750.3,847.1 739.6,854.6C744,867.1 748.3,879.5 752.9,892.8C741.7,884.3 731.3,876.4 720.7,868.3C710.3,876.3 699.8,884.2 688.4,892.8Z" style="fill:white;fill-rule:nonzero;"/>
            </g>
            <g transform="matrix(1,0,0,1,-1799.07,-65.6943)">
                <path d="M1185,1345.5C1174,1337.8 1163.6,1330.6 1152.3,1322.8C1154.3,1322.7 1155.3,1322.6 1156.2,1322.6C1166.7,1322.9 1177.2,1322.9 1187.7,1323.6C1194.2,1324.1 1193.4,1319 1194.6,1315.6C1197.6,1306.4 1200.2,1297 1203,1287.6C1203.1,1287.1 1203.5,1286.8 1204.3,1285.6C1208.2,1298.5 1212,1310.8 1215.7,1323L1255.3,1323C1244.5,1330.5 1234.1,1337.7 1223,1345.5C1227.2,1357.6 1231.4,1370 1236.1,1383.7C1224.7,1375.1 1214.4,1367.3 1204,1359.3C1193.6,1367.2 1183.3,1375 1173,1382.8C1172.8,1382.7 1172.5,1382.5 1172.3,1382.4C1176.4,1370.2 1180.7,1357.9 1185,1345.5Z" style="fill:white;fill-rule:nonzero;"/>
            </g>
            <g transform="matrix(1,0,0,1,-1799.07,-65.6943)">
                <path d="M835.8,705.1C839.4,693.1 843.2,680.7 847.4,667.1C849,672 850.2,675.7 851.3,679.4C853.7,687.5 856,695.6 858.6,703.6C858.9,704.5 860.9,705.6 862,705.5C873.2,705.3 884.5,705 895.7,704.7L899.7,704.7C887.9,712.9 877.1,720.4 866.3,727.9C870.7,740.5 875,752.8 879.6,766.1C868.2,757.5 857.7,749.5 847.3,741.6C836.7,749.7 826.3,757.6 815.1,766.1C819.7,752.8 824,740.5 828.4,727.9C817.7,720.4 806.9,712.9 795.7,705.2C809.2,705.1 822,705.1 835.8,705.1Z" style="fill:white;fill-rule:nonzero;"/>
            </g>
            <g transform="matrix(1,0,0,1,-1799.07,-65.6943)">
                <path d="M1301.7,896.1C1304.7,887.4 1307.4,879.7 1310.1,872.1C1311.5,868.1 1313.2,864.1 1314.3,859.9C1314.6,858.8 1313.4,856.8 1312.3,856C1303.3,849.6 1294.2,843.4 1285.1,837.1C1284.4,836.6 1283.8,835.9 1283,835.2L1322.4,835.2C1326.1,823.1 1329.9,810.7 1333.6,798.4L1334.4,798.4C1338.1,810.7 1341.9,822.9 1345.6,835.2L1385.6,835.2C1381.2,838.3 1377.3,841 1373.4,843.7C1367.3,847.9 1361.2,852 1355.3,856.5C1354.3,857.2 1353.6,859.5 1354,860.6C1357.7,871.6 1361.6,882.6 1365.5,893.6C1365.7,894.1 1365.8,894.7 1366.1,895.9C1355.2,887.6 1344.8,879.7 1334.1,871.7C1323.5,879.5 1313.1,887.5 1301.7,896.1Z" style="fill:white;fill-rule:nonzero;"/>
            </g>
            <g transform="matrix(1,0,0,1,-1799.07,-65.6943)">
                <path d="M1077.6,1368.6C1065.9,1376.7 1055.1,1384.3 1044.3,1391.8C1048.7,1404.4 1053,1416.7 1057.6,1430C1046.3,1421.4 1035.8,1413.4 1025.3,1405.5C1014.7,1413.6 1004.4,1421.4 993.1,1430C997.8,1416.6 1002,1404.3 1006.4,1391.8C995.6,1384.3 984.9,1376.8 973.7,1369.1L1013.7,1369.1C1017.3,1357.2 1021.1,1344.8 1025.3,1331.2C1026.6,1334.9 1027.5,1337.5 1028.3,1340.2C1031,1349.3 1033.7,1358.4 1036.6,1367.4C1036.9,1368.4 1038.9,1369.5 1040.1,1369.5C1051.1,1369.4 1062.1,1369 1073.1,1368.6L1077.6,1368.6Z" style="fill:white;fill-rule:nonzero;"/>
            </g>
            <g transform="matrix(1,0,0,1,-1799.07,-65.6943)">
                <path d="M901.4,1325.1C890.2,1332.9 879.5,1340.3 868.7,1347.9C873,1360.2 877.3,1372.5 882,1386.1C870.8,1377.6 860.6,1369.8 849.8,1361.7C839.4,1369.5 828.9,1377.5 817.5,1386.1C822.1,1372.8 826.4,1360.5 830.8,1348C819.9,1340.4 809.1,1332.9 798,1325.2L838.1,1325.2C841.8,1312.9 845.5,1300.6 849.3,1288.3C849.6,1288.3 849.9,1288.4 850.1,1288.4C853.8,1300.8 857.6,1313.1 861.2,1325.1L901.4,1325.1Z" style="fill:white;fill-rule:nonzero;"/>
            </g>
            <g transform="matrix(1,0,0,1,-1799.07,-65.6943)">
                <path d="M1059,715.3C1048.7,707.5 1038.5,699.7 1028.1,691.8C1017.7,699.7 1007.4,707.5 997.2,715.2C996.9,715 996.7,714.9 996.4,714.7C1000.6,702.5 1004.8,690.3 1009.1,678C998.2,670.4 987.8,663.2 976.5,655.3L1016.5,655.3C1020.2,643 1024,630.7 1028.1,617.1C1032.2,630.6 1035.9,642.9 1039.7,655.3L1079.7,655.3C1068.4,663.2 1058,670.4 1047.1,678C1051.3,690.2 1055.6,702.5 1059.8,714.7C1059.5,715 1059.2,715.2 1059,715.3Z" style="fill:white;fill-rule:nonzero;"/>
            </g>
            <g transform="matrix(1,0,0,1,-1799.07,-65.6943)">
                <path d="M1329,1012.2L1369.2,1012.2C1372.9,999.8 1376.6,987.6 1380.7,974.1C1384.9,987.8 1388.6,1000.1 1392.3,1012.2L1432.5,1012.2C1421.3,1020 1410.7,1027.4 1399.7,1035C1404,1047.3 1408.2,1059.6 1412.9,1073.1C1401.6,1064.5 1391.4,1056.8 1380.8,1048.7C1370.5,1056.5 1360.1,1064.4 1348.6,1073.1C1353.3,1059.7 1357.5,1047.4 1361.8,1035C1350.9,1027.4 1340.2,1019.9 1329,1012.2Z" style="fill:white;fill-rule:nonzero;"/>
            </g>
            <g transform="matrix(1,0,0,1,-1799.07,-65.6943)">
                <path d="M1304.3,1248.8C1308.5,1236.6 1312.7,1224.5 1317,1212.1C1306.2,1204.6 1295.8,1197.3 1284.4,1189.3L1324.4,1189.3C1328.1,1177 1331.9,1164.7 1336,1151.1C1340.1,1164.7 1343.8,1177 1347.6,1189.3L1387.6,1189.3C1376.4,1197.2 1365.9,1204.4 1355,1212.1C1359.3,1224.4 1363.5,1236.6 1367.7,1248.9C1367.5,1249.1 1367.2,1249.2 1367,1249.4C1356.8,1241.7 1346.6,1233.9 1336,1225.9C1325.7,1233.7 1315.4,1241.5 1305.1,1249.3C1304.8,1249.1 1304.5,1249 1304.3,1248.8Z" style="fill:white;fill-rule:nonzero;"/>
            </g>
            <g transform="matrix(1,0,0,1,-1799.07,-65.6943)">
                <path d="M767.7,1191.3C756.4,1199.2 745.9,1206.5 735.1,1214.1C739.4,1226.5 743.6,1238.8 748.3,1252.2C736.9,1243.6 726.7,1235.8 716.1,1227.8C705.7,1235.7 695.4,1243.5 684.1,1252.1C685.6,1247.4 686.7,1243.9 687.9,1240.4C690.7,1232.4 693.7,1224.4 696.3,1216.3C696.6,1215.2 695.6,1213 694.6,1212.3C685.7,1205.9 676.7,1199.7 667.7,1193.5C666.9,1193 666.2,1192.3 665,1191.3L704.6,1191.3C708.3,1179.2 712,1166.8 716.2,1153.2C720.3,1166.7 724,1179.1 727.8,1191.3L767.7,1191.3Z" style="fill:white;fill-rule:nonzero;"/>
            </g>
        </g>
    </g>
</svg>
