<svg clip-rule="evenodd" fill-rule="evenodd" stroke-linejoin="round" stroke-miterlimit="2" viewBox="0 0 1024 702" xmlns="http://www.w3.org/2000/svg"><g fill="#fff" fill-rule="nonzero"><path d="m49.08 416.39v76.71h155.77c1.341-.025 2.682.089 4 .34 5.721 1.059 9.708 6.416 9.08 12.2-.611 5.679-5.38 10.078-11.09 10.23h-168.25c-4.6 0-8.3-1.57-10.77-5.55-1.187-2.024-1.777-4.344-1.7-6.69v-97c-.029-1.992.31-3.972 1-5.84 1.94-4.89 6-6.89 11-7.12h165.77c1.32 0 2.65.16 4 .24 6.065.602 10.571 6.072 10 12.14-.57 5.944-5.68 10.505-11.65 10.4-30.82-.12-61.65-.06-92.48-.06z" transform="matrix(1.2173959836 0 0 1.21738650989 640.25097936104 -312.21185920659)"/><path d="m-262.44 493.11v-76.36c-.534-.126-1.075-.222-1.62-.29h-149.49c-3.281.161-6.478-1.097-8.77-3.45-2.993-2.935-4.015-7.36-2.61-11.31 1.143-4.15 4.721-7.199 9-7.67 1.396-.222 2.807-.329 4.22-.32h159c1.414.005 2.825.125 4.22.36 5.102.852 8.921 5.239 9.06 10.41v7.5c0 30.75-.07 61.5.06 92.25.072 5.495-3.799 10.314-9.18 11.43-.901.158-1.815.232-2.73.22h-162.28c-5.46 0-9.83-3-11.36-7.72-.399-1.178-.602-2.413-.602-3.656 0-6.112 4.914-11.191 11.022-11.394.83-.05 1.67 0 2.5 0z" transform="matrix(1.2173959836 0 0 1.21738650989 640.25097936104 -312.21185920659)"/><path d="m-29.66 323.6h87.35c1.495-.009 2.986.138 4.45.44 5.599 1.202 9.415 6.521 8.76 12.21-.62 5.496-5.148 9.792-10.67 10.12h-93.23c-3.608.125-7.117-1.218-9.72-3.72-9-8.43-18.05-16.77-27.08-25.16l-34-31.63c-.79-.73-1.6-1.42-2.58-2.29-1.5 1.33-2.94 2.56-4.32 3.84-19.707 18.307-39.403 36.64-59.09 55-2.771 2.675-6.51 4.119-10.36 4-29-.08-58 0-87-.05-5.23 0-9.53-2.72-11.14-7.3-2.53-7.21 1.84-14.71 10.11-15.43.91-.08 1.83-.05 2.75-.05h82.26l15-14c17.807-16.54 35.623-33.083 53.45-49.63 5-4.64 11.37-4.67 16.39 0 12 11.08 23.967 22.18 35.9 33.3l31.67 29.4z" transform="matrix(1.2173959836 0 0 1.21738650989 640.25097936104 -312.21185920659)"/><path d="m-8.53 416.54c-3.5.09-6.23-1.42-8.64-3.84-7.108-7.287-15.116-13.638-23.83-18.9-12.302-7.211-25.823-12.105-39.89-14.44-11.505-1.937-23.194-2.561-34.84-1.86-21.28 1.12-41.35 6.5-59.48 18.1-7.134 4.627-13.764 9.99-19.78 16-.72.71-1.38 1.47-2.14 2.11-3.35 3.078-8.254 3.827-12.37 1.89-4.42-1.85-6.6-5.54-6.74-10.24-.082-2.956 1.058-5.819 3.15-7.91 14.986-15.886 33.668-27.824 54.38-34.75 11.05-3.704 22.488-6.13 34.09-7.23 8.784-.886 17.62-1.133 26.44-.74 19.63.92 38.58 4.89 56.53 13.07 13.773 6.221 26.35 14.808 37.16 25.37 1.49 1.46 3 2.88 4.4 4.43 3.204 3.238 4.01 8.182 2 12.27-1.91 4.48-5.57 6.63-10.44 6.67z" transform="matrix(1.2173959836 0 0 1.21738650989 640.25097936104 -312.21185920659)"/><path d="m195.1 340.62-39.35-31.62c-.69.5-1.37.94-2 1.45-13.64 10.94-27.27 21.89-40.89 32.85-2.399 2.091-5.488 3.224-8.67 3.18-5-.09-10.68-4.61-10.76-10.73-.176-3.801 1.536-7.453 4.57-9.75 16.627-13.333 33.253-26.667 49.88-40 5.15-4.12 10.54-4.11 15.71 0 16.433 13.167 32.847 26.363 49.24 39.59 1.397 1.163 2.631 2.509 3.67 4 1.058 1.615 1.583 3.521 1.5 5.45v25c-.046 6.233-5.187 11.335-11.42 11.335-6.265 0-11.42-5.155-11.42-11.42 0-.028 0-.057 0-.085-.02-6.34-.06-12.67-.06-19.25z" transform="matrix(1.2173959836 0 0 1.21738650989 640.25097936104 -312.21185920659)"/><path d="m-363.81 309-39.29 31.56v6.21c0 4.25.05 8.5 0 12.75-.11 6.25-3.85 10.74-9.82 11.74s-12.78-3.49-12.95-10.12c-.22-9-.12-18 0-27 0-3.36 1.77-6 4.38-8.07 7.54-6.04 15.073-12.09 22.6-18.15 9-7.26 18.16-14.38 27-21.8 4.74-3.947 11.699-3.913 16.4.08 16.37 13.4 32.95 26.55 49.49 39.8 5.1 4.1 6.11 10.75 2.46 15.79-2.149 2.978-5.605 4.746-9.277 4.746-2.613 0-5.149-.895-7.183-2.536-3.5-2.69-6.9-5.5-10.35-8.27l-31.35-25.21c-.63-.52-1.3-.95-2.11-1.52z" transform="matrix(1.2173959836 0 0 1.21738650989 640.25097936104 -312.21185920659)"/><path d="m-120.56 459.39v45.2c-.034 6.208-5.151 11.298-11.36 11.298-.14 0-.28-.003-.42-.008-5.895-.176-10.737-4.882-11.08-10.77v-90.42c-.061-2.253.478-4.483 1.56-6.46 2.535-4.386 7.703-6.582 12.62-5.36 5.059 1.101 8.689 5.633 8.66 10.81.04 15.233.047 30.47.02 45.71z" transform="matrix(1.2173959836 0 0 1.21738650989 640.25097936104 -312.21185920659)"/><path d="m-70 459.23v45c.166 3.211-1.116 6.332-3.49 8.5-3.6 3.23-7.74 4.1-12.27 2.23s-6.71-5.49-7.07-10.29v-89.75c0-4.06 1.18-7.56 4.54-10.05 3.411-2.728 8.137-3.177 12-1.14 3.929 1.734 6.417 5.709 6.26 10 .053 15.167.063 30.333.03 45.5z" transform="matrix(1.2173959836 0 0 1.21738650989 640.25097936104 -312.21185920659)"/><path d="m-193.94 472.5v-32c-.203-4.557 2.526-8.766 6.77-10.44 4.44-2 8.65-1.22 12.32 2 2.53 2.249 3.907 5.529 3.74 8.91v63.49c0 .041.001.083.001.124 0 6.221-5.119 11.34-11.34 11.34-.101 0-.201-.001-.301-.004-6.1-.043-11.111-5.04-11.17-11.14-.08-10.78-.02-21.53-.02-32.28z" transform="matrix(1.2173959836 0 0 1.21738650989 640.25097936104 -312.21185920659)"/><path d="m-42 472.5c0-10.66.15-21.32 0-32 .003-6.29 5.18-11.465 11.47-11.465.297 0 .594.012.89.035 5.74.46 10.07 5 10.49 11.1v62.98c.159 2.839-.625 5.652-2.23 8-2.927 4.031-8.17 5.702-12.89 4.11-4.556-1.481-7.678-5.73-7.73-10.52z" transform="matrix(1.2173959836 0 0 1.21738650989 640.25097936104 -312.21185920659)"/><path d="m427.29 432.78h-10.41c-.49-1.82-.66-46.35-.18-50h9.39l18.78 31.14c6.3-10.6 12.4-20.87 18.55-31.2h9.41v50.06h-10.62v-29l-.57-.19c-4.85 7.86-9.47 15.88-14.3 23.78h-5.23l-14.23-23.21-.59.18z" transform="matrix(1.31898767843 0 0 1.31897741414 -382.65732386031 6.523147521)"/><path d="m379.21 382.63h11.5c.06.69.18 1.32.18 2 0 10.58.06 21.16 0 31.74-.037 2.659-.332 5.308-.88 7.91-1.73 8.35-7 13.52-15.18 15.42-7.503 1.849-15.412 1.145-22.47-2-2.092-1.066-4.127-2.237-6.1-3.51l4.48-8.67 2 1.28c4.948 3.328 10.952 4.721 16.86 3.91 5.5-.74 8.94-4.15 9.46-9.63.17-1.86 0-3.76 0-6l-1.95 1.66c-2.57 2.145-5.721 3.478-9.05 3.83-2.889.368-5.819.253-8.67-.34-7.82-1.54-12.31-6.85-13.76-14.6-.63-3.37-.78-18.84-.33-22.83h11.33c.05.69.14 1.4.15 2.12v14.5c-.048 1.247.046 2.495.28 3.72.724 4.065 4.009 7.221 8.1 7.78 6.65 1.26 12.46-2.37 13.75-8.77.202-1.233.289-2.481.26-3.73v-13z" transform="matrix(1.31898767843 0 0 1.31897741414 -382.65732386031 6.523147521)"/><path d="m787.9 432.8h-11.4v-11.8h-23.19v11.81h-11.41c-.06-.63-.18-1.27-.18-1.9 0-8.25-.1-16.49 0-24.73-.097-3.832.513-7.649 1.8-11.26 2.89-7.33 8.37-11.38 16-12.77 4.189-.77 8.495-.62 12.62.44 8.088 1.905 14.183 8.66 15.25 16.9.32 2.32.484 4.658.49 7 .06 7.91 0 15.82 0 23.73zm-11.56-21.41c.273-3.425.199-6.87-.22-10.28-.76-5.22-3.91-8.64-9.11-9.49s-11.68.79-13.35 8.24c-.84 3.74-.28 7.57-.35 11.53z" transform="matrix(1.31898767843 0 0 1.31897741414 -382.65732386031 6.523147521)"/><path d="m544.9 432.82h-11.6v-11.52c-2-.6-19.85-.74-23.19-.22v11.67h-11.2c-.096-.603-.16-1.21-.19-1.82 0-8.74-.07-17.48 0-26.22-.015-3.248.54-6.474 1.64-9.53 1.971-5.775 6.587-10.275 12.41-12.1 5.64-1.907 11.744-1.967 17.42-.17 8.35 2.6 12.77 8.63 14.16 17 .362 2.55.529 5.124.5 7.7.07 7.5 0 15 0 22.48zm-11.84-21.4c0-3.7.15-7.11 0-10.49-.141-2.184-1.043-4.252-2.55-5.84-3.62-3.85-8.1-4.4-12.85-3-4.47 1.3-6.69 4.65-7.25 9.19-.05.41-.16.81-.19 1.23-.202 2.969-.218 5.949-.05 8.92z" transform="matrix(1.31898767843 0 0 1.31897741414 -382.65732386031 6.523147521)"/><path d="m890 402.3h23v-19.6h11.57v50h-11.37v-20.2c-2-.59-19.32-.75-22.93-.24-.5 2.09-.18 4.33-.23 6.53s0 4.66 0 7v6.9h-11.04c-.5-1.82-.73-42.51-.25-49.95h11.25z" transform="matrix(1.31898767843 0 0 1.31897741414 -382.65732386031 6.523147521)"/><path d="m616.31 432.77h-11.21v-20.18c-1.91-.67-19.7-.83-23.07-.23v20.4h-11.17c-.47-1.86-.6-46.78-.14-50h11.15v19.24c2.12.64 20.36.72 23.15.13v-19.44h11.29z" transform="matrix(1.31898767843 0 0 1.31897741414 -382.65732386031 6.523147521)"/><path d="m950.62 382.66h11.28v28.23c-.008 1.743.166 3.483.52 5.19 1.19 5.53 5.61 8.17 10.9 7.81 6.55-.45 10.57-4.6 10.72-11.2.21-9.07.11-18.15.15-27.23v-2.79h11.2c.47 1.8.64 45.87.19 50h-10.86v-5.67c-.74.62-1.1.87-1.39 1.17-2.904 3.17-6.946 5.069-11.24 5.28-2.487.221-4.992.14-7.46-.24-7.67-1.49-11.86-6.59-13.49-14-.424-2.036-.638-4.11-.64-6.19-.06-9.49 0-19 0-28.48-.02-.54.06-1.12.12-1.88z" transform="matrix(1.31898767843 0 0 1.31897741414 -382.65732386031 6.523147521)"/><path d="m1055.22 432.72v-5.53c-1 .81-1.49 1.23-2 1.71-2.81 2.785-6.58 4.401-10.54 4.52-2.65.168-5.31.034-7.93-.4-6-1.14-10-4.92-11.94-10.56-1-2.821-1.55-5.78-1.64-8.77-.2-9.91-.07-19.83-.07-29.74 0-.33 0-.66.08-1.19h11.34v27.5c-.01 1.746.13 3.49.43 5.21 1.07 5.81 5.46 8.89 11.42 8.36 7-.61 10.48-5.29 10.55-12.74.09-8.5 0-17 0-25.49v-2.87h11.1c.47 1.78.67 45.18.2 50z" transform="matrix(1.31898767843 0 0 1.31897741414 -382.65732386031 6.523147521)"/><path d="m824 418v14.72h-11.27c-.128-.515-.211-1.041-.25-1.57 0-10.15-.17-20.32.14-30.46s6.38-16.69 16.18-18.18c4.689-.795 9.492-.597 14.1.58 7.82 2.09 13.46 7.54 13.87 17.58.18 4.48-.58 8.79-3.29 12.55-3.42 4.75-8.33 6.69-13.93 7.18-4.822.497-9.693-.19-14.19-2-.446-.156-.9-.29-1.36-.4zm0-9.31c3.454 2.427 7.654 3.564 11.86 3.21 4.16-.37 7.68-2 8.82-6.46 2.16-8.4-2.54-14-10-13.65h-1.25c-5.07.25-8.89 3.61-9.4 8.64-.151 2.751-.161 5.508-.03 8.26z" transform="matrix(1.31898767843 0 0 1.31897741414 -382.65732386031 6.523147521)"/><path d="m704.58 391.83v40.9h-11.46c-.14-2.63 0-5.35-.06-8.05s0-5.33 0-8v-24.68c-5.17.17-9.45 2.29-14 4.44l-3.8-8.22c11.56-8.24 33.88-8.91 47.1-.13l-3.36 7.38c-.17.303-.357.597-.56.88-4.33-2.15-8.63-4.05-13.86-4.52z" transform="matrix(1.31898767843 0 0 1.31897741414 -382.65732386031 6.523147521)"/><path d="m301.4 432.77h-11.27v-50.06h35v9.19h-23.73z" transform="matrix(1.31898767843 0 0 1.31897741414 -382.65732386031 6.523147521)"/><path d="m643.19 382.69h11.08v50.08h-11.08z" transform="matrix(1.31898767843 0 0 1.31897741414 -382.65732386031 6.523147521)"/><path d="m1030.42 368.4h7.32c1.73 4.36 3.34 5.49 7.31 5.14 3-.25 4.42-1.63 5.25-5.19h7.62c0 3.31-.83 6.2-3.55 8.07-1.63 1.134-3.48 1.911-5.43 2.28-3.69.691-7.48.588-11.13-.3-4.89-1.29-7.39-4.65-7.39-10z" transform="matrix(1.31898767843 0 0 1.31897741414 -382.65732386031 6.523147521)"/><g transform="matrix(1.31898767843 0 0 1.31897741414 -326.14336750963 6.523147521)"><path d="m288.68 296.17h11.56c.06.74.15 1.45.15 2.17v15c.011 1.242.159 2.48.44 3.69.675 3.723 3.629 6.641 7.36 7.27 2.858.68 5.863.381 8.53-.85 3.102-1.405 5.28-4.301 5.77-7.67.291-1.651.435-3.324.43-5 .06-4.17 0-8.33 0-12.5 0-.64.08-1.29.14-2.07h11.15c.084.476.141.957.17 1.44 0 11.58.08 23.16-.09 34.73-.09 6.08-1.84 11.64-6.49 16-3.264 3.03-7.422 4.925-11.85 5.4-7.11.86-14.13.4-20.69-2.85-1.84-.91-3.53-2.11-5.44-3.27l4.45-8.58 1.9 1.18c5.21 3.563 11.614 4.945 17.83 3.85 4.012-.489 7.298-3.474 8.17-7.42.705-2.625.916-5.358.62-8.06-.353.193-.688.417-1 .67-3.42 3.45-7.7 4.85-12.42 5-4.56.14-9-.57-12.87-3.17-4.46-3-6.67-7.41-7.36-12.53-.93-7.35-.28-14.77-.46-22.43z"/><path d="m535.4 346.32h-11.59v-11.4c-1.93-.63-18.42-.83-23.17-.32-.28 3.79 0 7.67-.17 11.65h-11.06c-.101-.606-.164-1.217-.19-1.83 0-8.75-.13-17.5 0-26.25.074-2.99.565-5.956 1.46-8.81 2.24-7.06 7.22-11.44 14.38-13.23 4.572-1.137 9.348-1.182 13.94-.13 8.67 1.92 14.6 8.25 15.94 17.69.34 2.723.5 5.466.48 8.21.07 7.25 0 14.5 0 21.75zm-11.73-21.32c0-3.17.11-6.07 0-9-.28-6.27-3.69-10-9.86-10.91s-11.32 2.47-12.72 8.23c-.233.985-.381 1.989-.44 3-.17 2.894-.17 5.796 0 8.69z"/><path d="m644.28 346.28h-11.57v-20.28h-22.91v20.33h-11.41v-50h11.34v19.29c2 .58 19.53.71 22.82.19.35-3.14.1-6.37.15-9.58s0-6.47 0-10.06h11.57z"/><path d="m866.63 296.23h11.27v28.77c-.002 1.576.162 3.148.49 4.69.675 3.893 3.776 6.941 7.68 7.55 7.37 1.55 13.76-3.14 14-10.66.23-9.16.12-18.32.16-27.48v-3h11.44v50.19h-11v-5.39c-.587.319-1.145.687-1.67 1.1-4.29 4.43-9.74 5.59-15.57 5.15-2.567-.217-5.074-.894-7.4-2-5.11-2.41-7.73-6.9-8.9-12.27-.408-1.866-.623-3.77-.64-5.68-.06-9.75 0-19.49 0-29.23-.01-.51.08-1.07.14-1.74z"/><path d="m971 296.22h11.3v50h-11.12v-5.48c-.67.53-.94.7-1.16.92-5.53 5.67-12.34 6.46-19.62 4.87-5.62-1.23-9.36-4.82-11.49-10.13-1.117-2.701-1.717-5.588-1.77-8.51-.09-10.24-.06-20.49-.07-30.74.026-.306.069-.609.13-.91h11.33v28c-.02 1.677.124 3.351.43 5 .86 4.07 3.18 6.88 7.38 7.89 7.23 1.74 13.25-2.31 14.29-9.67.194-1.399.297-2.808.31-4.22v-24.24z"/><path d="m405.68 346.33h-13.08l-13-20.12h-8.12v20h-11.09c-.51-1.69-.72-45.75-.2-50h11.1v20.1c2.828.213 5.666.266 8.5.16l13.21-20.26h12.13l-16.35 24.21z"/><path d="m813.38 316.45h8.47l13.15-20.21h12.13l-16.34 24.17 16.84 25.89h-13.04l-13-20.13h-8.1v20.1h-11.36v-50h11.25z"/><path d="m435.94 331.55v14.7h-11.26c0-.61-.12-1.17-.12-1.73 0-9.75-.07-19.5 0-29.24.06-5.51 1.64-10.48 5.8-14.4 2.659-2.433 5.966-4.045 9.52-4.64 4.67-.912 9.48-.837 14.12.22 11.29 2.53 16 11.51 14.63 22.07-.39 4.366-2.486 8.406-5.83 11.24-2.982 2.447-6.66 3.895-10.51 4.14-5.11.42-10.15.15-14.94-2-.463-.147-.934-.267-1.41-.36zm-.24-9.47c3.503 2.456 7.728 3.671 12 3.45 4.74-.25 8.24-2.71 9.06-6.8.4-2.202.4-4.458 0-6.66-.5-2.89-2.52-4.78-5.22-5.93-2.038-.749-4.226-.999-6.38-.73-4.236.087-7.873 3.134-8.7 7.29-.44 3.109-.694 6.241-.76 9.38z"/><path d="m735.68 296.21h11.15v17.79c2.715-.85 5.472-1.557 8.26-2.12 4.89-.74 9.8-.79 14.5 1.17 5.536 2.047 9.416 7.121 9.94 13 .375 2.72.247 5.486-.38 8.16-1.44 6-5.38 9.7-11 11.59-6.604 2.213-13.727 2.366-20.42.44-7.52-2.08-12-7.69-12.13-15.52-.2-11.17-.08-22.33-.09-33.5.026-.341.083-.679.17-1.01zm11.24 27c0 2.5-.19 4.75 0 7 .224 3.417 2.509 6.373 5.76 7.45 3.219 1.231 6.781 1.231 10 0 2.688-.852 4.693-3.127 5.2-5.9 1.12-6.07-1.74-10.1-7.34-11.29-4.85-1.05-9.31.24-13.62 2.78z"/><path d="m715.16 304.17-7.33 6.8c-3.313-4.026-8.367-6.223-13.57-5.9-4.148.071-8.104 1.78-11 4.75-5.65 5.88-5.86 16.42-.45 22.41 3.225 3.586 7.904 5.528 12.72 5.28 4.774-.095 9.271-2.292 12.28-6l7.3 6.79c-1.48 2.001-3.347 3.684-5.49 4.95-5.415 3.221-11.739 4.58-18 3.87-6.122-.368-11.932-2.842-16.44-7-4.402-4.032-7.163-9.55-7.75-15.49-.62-4.628.027-9.339 1.87-13.63 4.18-9.34 11.63-14.22 21.67-15.43 5.302-.699 10.695.044 15.61 2.15 3.366 1.379 6.32 3.6 8.58 6.45z"/><path d="m571.76 346.31h-11v-50.06h10.87c.48 1.85.61 46.85.13 50.06z"/><path d="m946.32 282.19c.351-.095.709-.161 1.07-.2h6.35c.74 1.61.94 3.48 2.69 4.37 1.523.693 3.211.942 4.87.72 2.72-.2 4-1.48 5-4.92h7.3c.56 3.531-1.216 7.045-4.39 8.69-3.42 1.84-7.14 2.12-10.92 1.88-1.408-.119-2.805-.343-4.18-.67-4.701-.835-8.07-5.104-7.79-9.87z"/><path d="m559 291.44c-.091.005-.182.008-.273.008-2.54 0-4.63-2.09-4.63-4.63 0-.059.001-.119.003-.178.013-2.701 2.239-4.915 4.94-4.915.077 0 .153.001.23.005 2.55.01 4.642 2.11 4.642 4.66 0 .113-.004.227-.012.34.01 3.01-1.81 4.74-4.9 4.71z"/><path d="m573.74 291.44c-.113.008-.227.012-.34.012-2.557 0-4.66-2.103-4.66-4.66 0-.017 0-.035 0-.052-.001-.044-.002-.088-.002-.132 0-2.671 2.199-4.87 4.87-4.87.044 0 .088.001.132.002.046-.001.093-.002.139-.002 2.54 0 4.63 2.09 4.63 4.63 0 .097-.003.195-.009.292-.07 2.97-1.78 4.76-4.76 4.78z"/></g><path d="m694.8 501.53c-.49.19-.68.21-.78.32-6 5.93-13.24 6.19-20.71 4.24s-11.42-7.51-12.1-14.87c-.65-7.1-.34-14.3-.44-21.45 0-.15.13-.29.27-.58h11.09c0 .69.15 1.4.16 2.11v13.49c-.05 1.415.037 2.832.26 4.23 1.29 6.16 5.4 8.59 11 8.38 7.24-.28 10.83-4.59 11.12-10.45.25-4.9.23-9.81.32-14.72v-3h11.31c0 .75.09 1.39.09 2v33c.05 3.674-.679 7.318-2.14 10.69-2.88 6.45-8 10.08-14.81 11.41-7.061 1.451-14.398.754-21.06-2-2.392-.927-4.58-2.313-6.44-4.08 1.44-2.74 2.85-5.45 4.36-8.32l2.21 1.41c5.005 3.255 11.037 4.559 16.94 3.66 4.54-.58 7.67-3.07 8.76-7.69.701-2.53.902-5.173.59-7.78z" transform="matrix(1.31898767843 0 0 1.31897741414 -189.32388510078 6.523147521)"/><path d="m327.79 469.15h11.47v19.36c2.27.59 20.42.62 22.93.05v-19.38h11.22c.5 1.88.56 47.45 0 50h-11c-.56-2.24-.2-4.49-.26-6.7s0-4.66 0-7v-6.84h-22.82v20.64h-11.54z" transform="matrix(1.31898767843 0 0 1.31897741414 -189.32388510078 6.523147521)"/><path d="m561.71 469.19h11.18c.52 1.8.6 47.34.06 49.95h-10.8v-5.77c-.89.81-1.42 1.25-1.9 1.73-3.012 2.961-7.029 4.686-11.25 4.83-2.823.3-5.677.08-8.42-.65-6.85-2.06-10.54-7-12-13.72-.409-1.954-.62-3.944-.63-5.94-.06-9.58 0-19.17 0-28.75 0-.49.07-1 .13-1.64h11.32v2.62c0 8.49-.07 17 0 25.49.006 2.241.343 4.468 1 6.61 1.039 3.563 4.29 6.058 8 6.14 1.735.171 3.486.07 5.19-.3 4.51-1.09 7.49-4.89 7.94-9.8.12-1.24.14-2.49.14-3.74v-24.25z" transform="matrix(1.31898767843 0 0 1.31897741414 -189.32388510078 6.523147521)"/><path d="m437.44 504.47c2.42 2.26 4.73 4.4 7.14 6.63-1.826 2.443-4.204 4.421-6.94 5.77-4.936 2.513-10.484 3.581-16 3.08-6.639-.239-12.946-2.988-17.64-7.69-5.84-5.88-7.85-13.08-7.09-21.26 1.071-10.94 9.223-19.956 20-22.12 7.76-1.68 15.24-.95 22.16 3.22 2.151 1.231 4.01 2.913 5.45 4.93l-7.28 6.71c-3.646-4.344-9.28-6.522-14.9-5.76-3.853.365-7.428 2.177-10 5.07-5.46 6.13-5.28 16.6.35 22.41 3.249 3.326 7.801 5.064 12.44 4.75 4.5-.12 6.65-1.09 12.31-5.74z" transform="matrix(1.31898767843 0 0 1.31897741414 -189.32388510078 6.523147521)"/><path d="m773.6 474.47c-1.27 2.82-2.5 5.53-3.62 8-4-1.36-7.81-2.69-11.65-4-.796-.17-1.606-.264-2.42-.28v40.92h-11.44v-41c-5.23.47-9.61 2.38-14.16 4.64-1.29-2.8-2.54-5.54-3.79-8.26 11.48-8.1 33.75-8.84 47.08-.02z" transform="matrix(1.31898767843 0 0 1.31897741414 -189.32388510078 6.523147521)"/><path d="m611.7 478.19c-4.945.618-9.722 2.198-14.06 4.65-1.267-2.78-2.523-5.52-3.77-8.22 10.68-7.94 33.19-9.23 47-.21-1.22 2.72-2.47 5.48-3.78 8.39-4.46-2.18-8.82-4.14-14-4.59-.16 4.62-.06 9.09-.08 13.55s0 9.16 0 13.74v13.62h-11.31z" transform="matrix(1.31898767843 0 0 1.31897741414 -189.32388510078 6.523147521)"/><path d="m490 519.2h-11.37c-.189-2.726-.239-5.459-.15-8.19v-32.71c-5.15.27-9.46 2.3-14.05 4.5l-3.81-8.24c11.66-8.27 33.9-8.81 47.06-.12-1.21 2.7-2.43 5.46-3.74 8.4-4.43-2.23-8.79-4.17-13.92-4.62z" transform="matrix(1.31898767843 0 0 1.31897741414 -189.32388510078 6.523147521)"/><path d="m301.27 519.29h-9.2c-.57 0-1.15-.06-1.67-.09-.53-2-.74-44.68-.29-49.72 1.75-.53 8.24-.62 11.16-.14z" transform="matrix(1.31898767843 0 0 1.31897741414 -189.32388510078 6.523147521)"/></g></svg>