<?xml version="1.0" encoding="UTF-8" standalone="no"?>
<!DOCTYPE svg PUBLIC "-//W3C//DTD SVG 1.1//EN" "http://www.w3.org/Graphics/SVG/1.1/DTD/svg11.dtd">
<svg width="100%" height="100%" viewBox="0 0 760 766" version="1.1" xmlns="http://www.w3.org/2000/svg" xmlns:xlink="http://www.w3.org/1999/xlink" xml:space="preserve" xmlns:serif="http://www.serif.com/" style="fill-rule:evenodd;clip-rule:evenodd;stroke-linejoin:round;stroke-miterlimit:2;">
    <g transform="matrix(1,0,0,1,-3533.64,-786.619)">
        <g transform="matrix(0.57945,0,0,0.57945,2193.42,468.231)">
            <g transform="matrix(0.896121,0,0,0.899289,2078.81,165.014)">
                <path d="M992.174,638.516C705.212,638.516 472.235,871.494 472.235,1158.46C472.235,1445.42 705.212,1678.4 992.174,1678.4C1279.14,1678.4 1512.11,1445.42 1512.11,1158.46C1512.11,871.494 1279.14,638.516 992.174,638.516ZM992.174,644.508C1275.83,644.508 1506.12,874.801 1506.12,1158.46C1506.12,1442.11 1275.83,1672.4 992.174,1672.4C708.519,1672.4 478.226,1442.11 478.226,1158.46C478.226,874.801 708.519,644.508 992.174,644.508Z" style="fill:white;"/>
            </g>
            <g transform="matrix(1.24477,0,0,1.25512,1732.89,-244.101)">
                <path d="M992.174,632.264C701.761,632.264 465.982,868.043 465.982,1158.46C465.982,1448.87 701.761,1684.65 992.174,1684.65C1282.59,1684.65 1518.37,1448.87 1518.37,1158.46C1518.37,868.043 1282.59,632.264 992.174,632.264ZM992.174,650.761C1272.38,650.761 1499.87,878.251 1499.87,1158.46C1499.87,1438.66 1272.38,1666.15 992.174,1666.15C711.97,1666.15 484.479,1438.66 484.479,1158.46C484.479,878.251 711.97,650.761 992.174,650.761Z" style="fill:white;"/>
            </g>
            <g transform="matrix(1.08843,0,0,1.08843,1990.7,118.217)">
                <path d="M1161.74,760.997L1141.83,788.119L1141.83,989.692C1142.14,1046.84 1110.6,1069.11 1070.29,1069.11C1012.39,1069.11 999.242,1024 999.242,989.692L999.242,904.978L751.111,904.978C701.875,904.978 672.034,907.636 640.482,921.244C584.304,945.474 547.9,996.115 547.9,1069.11C547.9,1161.74 608.704,1238.61 739.353,1238.61L930.071,1238.61L896.321,1196.1L711.896,1196.1C648.532,1196.1 592.92,1146.29 592.92,1088.16L907.818,1088.16C907.818,1177.49 956.6,1244.98 1070.29,1244.98C1151.88,1244.98 1216.21,1181.58 1216.21,1088.16L1216.21,792.196L1178.42,760.997L1178.42,1053.5C1178.42,1134.99 1132.51,1196.1 1065.63,1196.1C983.872,1196.1 936.815,1130.71 930.071,1049.06L592.92,1049.06C592.92,984.275 651.905,941.57 725.031,941.57L948.82,941.57L948.82,984.275C948.82,1046.12 966.113,1102.38 1070.29,1102.38C1117.84,1102.38 1161.74,1069.11 1161.74,984.275L1161.74,760.997Z" style="fill:white;"/>
            </g>
            <g transform="matrix(155.575,0,0,155.575,2662.36,1053.57)">
                <path d="M0.492,-0.728L0.492,-0L0.291,-0L0.291,-0.477C0.258,-0.452 0.226,-0.432 0.196,-0.417C0.166,-0.402 0.127,-0.387 0.082,-0.373L0.082,-0.536C0.149,-0.558 0.202,-0.584 0.239,-0.615C0.277,-0.645 0.306,-0.683 0.327,-0.728L0.492,-0.728Z" style="fill:white;fill-rule:nonzero;"/>
            </g>
            <g transform="matrix(155.575,0,0,155.575,2772.35,1053.57)">
                <path d="M0.05,-0.161L0.248,-0.186C0.253,-0.158 0.262,-0.138 0.274,-0.127C0.286,-0.116 0.301,-0.11 0.319,-0.11C0.351,-0.11 0.376,-0.126 0.394,-0.158C0.407,-0.182 0.417,-0.232 0.423,-0.309C0.4,-0.285 0.375,-0.267 0.35,-0.255C0.325,-0.244 0.296,-0.238 0.263,-0.238C0.199,-0.238 0.145,-0.261 0.101,-0.307C0.057,-0.352 0.035,-0.41 0.035,-0.479C0.035,-0.527 0.046,-0.57 0.068,-0.609C0.091,-0.648 0.122,-0.678 0.161,-0.698C0.201,-0.718 0.25,-0.728 0.31,-0.728C0.381,-0.728 0.439,-0.716 0.482,-0.691C0.525,-0.667 0.56,-0.628 0.586,-0.574C0.612,-0.52 0.625,-0.45 0.625,-0.362C0.625,-0.233 0.597,-0.138 0.543,-0.078C0.489,-0.018 0.413,0.012 0.317,0.012C0.26,0.012 0.215,0.006 0.182,-0.008C0.149,-0.021 0.122,-0.04 0.1,-0.065C0.078,-0.091 0.062,-0.123 0.05,-0.161ZM0.416,-0.48C0.416,-0.519 0.406,-0.549 0.387,-0.571C0.367,-0.593 0.343,-0.604 0.315,-0.604C0.289,-0.604 0.267,-0.594 0.25,-0.574C0.232,-0.554 0.224,-0.525 0.224,-0.485C0.224,-0.445 0.233,-0.414 0.251,-0.393C0.269,-0.372 0.291,-0.361 0.318,-0.361C0.346,-0.361 0.37,-0.372 0.388,-0.392C0.407,-0.413 0.416,-0.442 0.416,-0.48Z" style="fill:white;fill-rule:nonzero;"/>
            </g>
            <g transform="matrix(155.575,0,0,155.575,2882.34,1053.57)">
                <path d="M0.041,-0.361C0.041,-0.497 0.066,-0.592 0.115,-0.646C0.163,-0.701 0.238,-0.728 0.338,-0.728C0.387,-0.728 0.426,-0.722 0.457,-0.71C0.488,-0.698 0.513,-0.683 0.533,-0.664C0.552,-0.645 0.568,-0.625 0.579,-0.604C0.59,-0.583 0.599,-0.558 0.606,-0.53C0.619,-0.477 0.626,-0.421 0.626,-0.363C0.626,-0.233 0.604,-0.138 0.56,-0.078C0.516,-0.018 0.44,0.012 0.333,0.012C0.273,0.012 0.224,0.003 0.187,-0.017C0.15,-0.036 0.119,-0.064 0.096,-0.101C0.078,-0.127 0.065,-0.163 0.055,-0.209C0.046,-0.255 0.041,-0.306 0.041,-0.361ZM0.238,-0.36C0.238,-0.269 0.246,-0.207 0.262,-0.174C0.279,-0.14 0.302,-0.124 0.333,-0.124C0.353,-0.124 0.37,-0.131 0.385,-0.145C0.4,-0.159 0.411,-0.181 0.418,-0.212C0.425,-0.243 0.428,-0.29 0.428,-0.355C0.428,-0.45 0.42,-0.514 0.404,-0.547C0.388,-0.579 0.364,-0.596 0.332,-0.596C0.299,-0.596 0.275,-0.579 0.26,-0.546C0.246,-0.512 0.238,-0.451 0.238,-0.36Z" style="fill:white;fill-rule:nonzero;"/>
            </g>
            <g transform="matrix(155.575,0,0,155.575,2992.33,1053.57)">
                <path d="M0.617,-0.555L0.419,-0.53C0.414,-0.558 0.405,-0.577 0.393,-0.589C0.381,-0.6 0.366,-0.606 0.348,-0.606C0.315,-0.606 0.29,-0.59 0.272,-0.557C0.259,-0.534 0.25,-0.484 0.244,-0.407C0.267,-0.431 0.292,-0.449 0.317,-0.46C0.342,-0.472 0.371,-0.478 0.404,-0.478C0.468,-0.478 0.522,-0.455 0.566,-0.409C0.61,-0.364 0.632,-0.306 0.632,-0.236C0.632,-0.189 0.621,-0.146 0.598,-0.106C0.576,-0.067 0.545,-0.038 0.506,-0.018C0.466,0.002 0.417,0.012 0.357,0.012C0.285,0.012 0.228,0 0.185,-0.024C0.141,-0.049 0.107,-0.088 0.081,-0.141C0.055,-0.195 0.042,-0.266 0.042,-0.354C0.042,-0.483 0.069,-0.578 0.124,-0.638C0.178,-0.698 0.253,-0.728 0.35,-0.728C0.407,-0.728 0.452,-0.721 0.485,-0.708C0.518,-0.695 0.545,-0.676 0.567,-0.65C0.589,-0.625 0.605,-0.593 0.617,-0.555ZM0.25,-0.236C0.25,-0.197 0.26,-0.167 0.28,-0.145C0.299,-0.123 0.323,-0.112 0.352,-0.112C0.378,-0.112 0.399,-0.122 0.417,-0.142C0.435,-0.161 0.443,-0.191 0.443,-0.23C0.443,-0.271 0.434,-0.302 0.416,-0.323C0.398,-0.344 0.375,-0.354 0.348,-0.354C0.32,-0.354 0.297,-0.344 0.279,-0.324C0.26,-0.303 0.25,-0.274 0.25,-0.236Z" style="fill:white;fill-rule:nonzero;"/>
            </g>
            <g transform="matrix(-67.8716,-66.4714,66.4714,-67.8716,2634.25,1596.41)">
                <path d="M0.313,-0.671L0.313,-0.622L0.253,-0.617L0.237,-0.603L0.237,-0.374L0.306,-0.374C0.317,-0.374 0.326,-0.375 0.334,-0.377C0.342,-0.38 0.349,-0.384 0.356,-0.39C0.364,-0.396 0.371,-0.404 0.377,-0.415C0.384,-0.426 0.391,-0.44 0.399,-0.457L0.443,-0.553C0.451,-0.572 0.46,-0.588 0.47,-0.603C0.48,-0.618 0.49,-0.632 0.501,-0.644C0.523,-0.667 0.55,-0.679 0.584,-0.679C0.601,-0.679 0.614,-0.677 0.625,-0.672C0.636,-0.667 0.644,-0.661 0.65,-0.654C0.657,-0.646 0.661,-0.638 0.663,-0.629C0.666,-0.62 0.667,-0.612 0.667,-0.604C0.667,-0.583 0.66,-0.565 0.646,-0.552C0.632,-0.539 0.616,-0.532 0.597,-0.531L0.538,-0.586C0.531,-0.578 0.526,-0.571 0.523,-0.564C0.52,-0.557 0.516,-0.548 0.511,-0.538L0.47,-0.444C0.458,-0.416 0.446,-0.395 0.434,-0.381C0.422,-0.368 0.408,-0.359 0.393,-0.352L0.393,-0.35C0.413,-0.347 0.429,-0.342 0.443,-0.335C0.457,-0.327 0.469,-0.318 0.479,-0.306C0.49,-0.295 0.499,-0.281 0.507,-0.266C0.515,-0.25 0.524,-0.233 0.532,-0.215L0.598,-0.071L0.625,-0.054L0.691,-0.049L0.691,-0L0.463,-0L0.463,-0.035L0.385,-0.228C0.38,-0.239 0.375,-0.25 0.369,-0.261C0.363,-0.272 0.356,-0.282 0.347,-0.29C0.338,-0.299 0.328,-0.305 0.316,-0.31C0.304,-0.315 0.29,-0.318 0.274,-0.318L0.237,-0.318L0.237,-0.07L0.253,-0.054L0.313,-0.049L0.313,-0L0.029,-0L0.029,-0.049L0.09,-0.054L0.105,-0.07L0.105,-0.603L0.09,-0.617L0.029,-0.622L0.029,-0.671L0.313,-0.671Z" style="fill:white;fill-rule:nonzero;"/>
            </g>
            <g transform="matrix(-59.5681,-74.0043,74.0043,-59.5681,2592.23,1556.36)">
                <path d="M0.313,-0.671L0.313,-0.622L0.253,-0.617L0.237,-0.601L0.237,-0.194L0.545,-0.573L0.545,-0.601L0.53,-0.617L0.469,-0.622L0.469,-0.671L0.751,-0.671L0.751,-0.622L0.693,-0.617L0.677,-0.601L0.677,-0.07L0.693,-0.054L0.751,-0.049L0.751,-0L0.469,-0L0.469,-0.049L0.53,-0.054L0.545,-0.07L0.545,-0.487L0.237,-0.108L0.237,-0.07L0.253,-0.054L0.313,-0.049L0.313,-0L0.031,-0L0.031,-0.049L0.089,-0.054L0.105,-0.07L0.105,-0.601L0.089,-0.617L0.031,-0.622L0.031,-0.671L0.313,-0.671Z" style="fill:white;fill-rule:nonzero;"/>
            </g>
            <g transform="matrix(-52.632,-79.0878,79.0878,-52.632,2550.88,1504.09)">
                <path d="M0.03,-0L0.03,-0.049L0.096,-0.054L0.113,-0.07L0.113,-0.603L0.096,-0.617L0.03,-0.622L0.03,-0.671L0.329,-0.671L0.329,-0.622L0.262,-0.617L0.246,-0.603L0.246,-0.07L0.262,-0.054L0.329,-0.049L0.329,-0L0.03,-0Z" style="fill:white;fill-rule:nonzero;"/>
            </g>
            <g transform="matrix(-46.5618,-82.807,82.807,-46.5618,2535.78,1482.77)">
                <path d="M0.234,-0.057L0.237,-0.057C0.257,-0.056 0.272,-0.055 0.282,-0.055C0.341,-0.055 0.383,-0.066 0.41,-0.087C0.437,-0.108 0.45,-0.143 0.45,-0.19C0.45,-0.233 0.438,-0.264 0.413,-0.285C0.388,-0.306 0.35,-0.317 0.3,-0.317C0.285,-0.317 0.273,-0.317 0.263,-0.316C0.253,-0.316 0.244,-0.316 0.234,-0.315L0.234,-0.057ZM0.234,-0.373C0.237,-0.373 0.24,-0.372 0.244,-0.372C0.248,-0.372 0.254,-0.372 0.261,-0.372C0.313,-0.372 0.352,-0.383 0.376,-0.404C0.401,-0.425 0.413,-0.457 0.413,-0.502C0.413,-0.541 0.402,-0.57 0.379,-0.589C0.356,-0.608 0.321,-0.617 0.274,-0.617C0.266,-0.617 0.254,-0.617 0.237,-0.615L0.234,-0.615L0.234,-0.373ZM0.029,-0.671L0.329,-0.671C0.403,-0.671 0.458,-0.658 0.495,-0.632C0.532,-0.605 0.551,-0.566 0.551,-0.514C0.551,-0.475 0.539,-0.442 0.515,-0.415C0.491,-0.389 0.455,-0.369 0.408,-0.357C0.465,-0.356 0.51,-0.341 0.542,-0.313C0.574,-0.285 0.59,-0.246 0.59,-0.196C0.59,-0.133 0.568,-0.084 0.525,-0.051C0.482,-0.017 0.419,-0 0.338,-0L0.029,-0L0.029,-0.049L0.088,-0.054L0.104,-0.07L0.104,-0.603L0.088,-0.617L0.029,-0.622L0.029,-0.671Z" style="fill:white;fill-rule:nonzero;"/>
            </g>
            <g transform="matrix(-37.6984,-87.1999,87.1999,-37.6984,2509.88,1437.56)">
                <path d="M0.601,-0.024C0.568,-0.012 0.533,-0.003 0.498,0.003C0.463,0.009 0.428,0.012 0.391,0.012C0.356,0.012 0.322,0.008 0.291,0.001C0.26,-0.007 0.232,-0.018 0.207,-0.033C0.155,-0.064 0.114,-0.106 0.085,-0.159C0.056,-0.213 0.041,-0.271 0.041,-0.335C0.041,-0.386 0.05,-0.433 0.068,-0.477C0.085,-0.521 0.111,-0.559 0.145,-0.591C0.177,-0.621 0.213,-0.644 0.256,-0.66C0.298,-0.675 0.345,-0.683 0.397,-0.683C0.431,-0.683 0.464,-0.68 0.498,-0.674C0.532,-0.668 0.567,-0.658 0.601,-0.646L0.601,-0.479L0.528,-0.479L0.508,-0.586L0.494,-0.603C0.48,-0.608 0.467,-0.612 0.454,-0.614C0.441,-0.617 0.428,-0.618 0.415,-0.618C0.345,-0.618 0.29,-0.593 0.249,-0.542C0.208,-0.492 0.188,-0.423 0.188,-0.336C0.188,-0.247 0.209,-0.177 0.252,-0.126C0.295,-0.076 0.353,-0.051 0.428,-0.051C0.436,-0.051 0.446,-0.052 0.456,-0.053C0.466,-0.055 0.477,-0.057 0.489,-0.06L0.504,-0.075L0.528,-0.196L0.601,-0.196L0.601,-0.024Z" style="fill:white;fill-rule:nonzero;"/>
            </g>
            <g transform="matrix(-28.519,-90.6183,90.6183,-28.519,2488.42,1388.82)">
                <path d="M0.321,-0.671L0.321,-0.622L0.255,-0.617L0.239,-0.603L0.239,-0.386C0.254,-0.388 0.27,-0.389 0.288,-0.39C0.306,-0.391 0.323,-0.392 0.339,-0.392C0.388,-0.392 0.426,-0.387 0.455,-0.377C0.483,-0.368 0.504,-0.358 0.519,-0.348C0.544,-0.331 0.563,-0.309 0.576,-0.285C0.589,-0.26 0.595,-0.23 0.595,-0.195C0.595,-0.166 0.59,-0.14 0.581,-0.12C0.572,-0.099 0.559,-0.081 0.544,-0.067C0.529,-0.052 0.512,-0.041 0.493,-0.032C0.475,-0.023 0.456,-0.016 0.437,-0.011C0.419,-0.007 0.401,-0.004 0.384,-0.002C0.367,-0.001 0.354,-0 0.343,-0L0.031,-0L0.031,-0.049L0.091,-0.054L0.107,-0.07L0.107,-0.603L0.091,-0.617L0.031,-0.622L0.031,-0.671L0.321,-0.671ZM0.239,-0.057C0.246,-0.056 0.255,-0.056 0.264,-0.056C0.274,-0.055 0.284,-0.055 0.295,-0.055C0.316,-0.055 0.338,-0.057 0.359,-0.062C0.381,-0.066 0.4,-0.076 0.417,-0.091C0.433,-0.105 0.443,-0.122 0.448,-0.141C0.453,-0.16 0.455,-0.177 0.455,-0.192C0.455,-0.214 0.453,-0.232 0.448,-0.248C0.443,-0.264 0.436,-0.277 0.428,-0.287C0.42,-0.298 0.411,-0.306 0.401,-0.313C0.39,-0.319 0.379,-0.324 0.367,-0.328C0.356,-0.331 0.344,-0.333 0.333,-0.334C0.322,-0.335 0.311,-0.336 0.301,-0.336C0.281,-0.336 0.261,-0.334 0.239,-0.33L0.239,-0.057Z" style="fill:white;fill-rule:nonzero;"/>
            </g>
            <g transform="matrix(-18.3352,-93.2138,93.2138,-18.3352,2472.21,1339.55)">
                <path d="M0.313,-0.671L0.313,-0.622L0.253,-0.617L0.237,-0.603L0.237,-0.374L0.306,-0.374C0.317,-0.374 0.326,-0.375 0.334,-0.377C0.342,-0.38 0.349,-0.384 0.356,-0.39C0.364,-0.396 0.371,-0.404 0.377,-0.415C0.384,-0.426 0.391,-0.44 0.399,-0.457L0.443,-0.553C0.451,-0.572 0.46,-0.588 0.47,-0.603C0.48,-0.618 0.49,-0.632 0.501,-0.644C0.523,-0.667 0.55,-0.679 0.584,-0.679C0.601,-0.679 0.614,-0.677 0.625,-0.672C0.636,-0.667 0.644,-0.661 0.65,-0.654C0.657,-0.646 0.661,-0.638 0.663,-0.629C0.666,-0.62 0.667,-0.612 0.667,-0.604C0.667,-0.583 0.66,-0.565 0.646,-0.552C0.632,-0.539 0.616,-0.532 0.597,-0.531L0.538,-0.586C0.531,-0.578 0.526,-0.571 0.523,-0.564C0.52,-0.557 0.516,-0.548 0.511,-0.538L0.47,-0.444C0.458,-0.416 0.446,-0.395 0.434,-0.381C0.422,-0.368 0.408,-0.359 0.393,-0.352L0.393,-0.35C0.413,-0.347 0.429,-0.342 0.443,-0.335C0.457,-0.327 0.469,-0.318 0.479,-0.306C0.49,-0.295 0.499,-0.281 0.507,-0.266C0.515,-0.25 0.524,-0.233 0.532,-0.215L0.598,-0.071L0.625,-0.054L0.691,-0.049L0.691,-0L0.463,-0L0.463,-0.035L0.385,-0.228C0.38,-0.239 0.375,-0.25 0.369,-0.261C0.363,-0.272 0.356,-0.282 0.347,-0.29C0.338,-0.299 0.328,-0.305 0.316,-0.31C0.304,-0.315 0.29,-0.318 0.274,-0.318L0.237,-0.318L0.237,-0.07L0.253,-0.054L0.313,-0.049L0.313,-0L0.029,-0L0.029,-0.049L0.09,-0.054L0.105,-0.07L0.105,-0.603L0.09,-0.617L0.029,-0.622L0.029,-0.671L0.313,-0.671Z" style="fill:white;fill-rule:nonzero;"/>
            </g>
            <g transform="matrix(-7.14227,-94.7311,94.7311,-7.14227,2460.25,1282.78)">
                <path d="M0.313,-0.671L0.313,-0.622L0.253,-0.617L0.237,-0.601L0.237,-0.194L0.545,-0.573L0.545,-0.601L0.53,-0.617L0.469,-0.622L0.469,-0.671L0.751,-0.671L0.751,-0.622L0.693,-0.617L0.677,-0.601L0.677,-0.07L0.693,-0.054L0.751,-0.049L0.751,-0L0.469,-0L0.469,-0.049L0.53,-0.054L0.545,-0.07L0.545,-0.487L0.237,-0.108L0.237,-0.07L0.253,-0.054L0.313,-0.049L0.313,-0L0.031,-0L0.031,-0.049L0.089,-0.054L0.105,-0.07L0.105,-0.601L0.089,-0.617L0.031,-0.622L0.031,-0.671L0.313,-0.671Z" style="fill:white;fill-rule:nonzero;"/>
            </g>
            <g transform="matrix(5.07899,-94.8641,94.8641,5.07899,2454.75,1216.12)">
                <path d="M0.313,-0.671L0.313,-0.622L0.253,-0.617L0.237,-0.601L0.237,-0.194L0.545,-0.573L0.545,-0.601L0.53,-0.617L0.469,-0.622L0.469,-0.671L0.751,-0.671L0.751,-0.622L0.693,-0.617L0.677,-0.601L0.677,-0.07L0.693,-0.054L0.751,-0.049L0.751,-0L0.469,-0L0.469,-0.049L0.53,-0.054L0.545,-0.07L0.545,-0.487L0.237,-0.108L0.237,-0.07L0.253,-0.054L0.313,-0.049L0.313,-0L0.031,-0L0.031,-0.049L0.089,-0.054L0.105,-0.07L0.105,-0.601L0.089,-0.617L0.031,-0.622L0.031,-0.671L0.313,-0.671ZM0.316,-0.811C0.332,-0.802 0.346,-0.797 0.358,-0.795C0.369,-0.794 0.38,-0.793 0.39,-0.793C0.402,-0.793 0.413,-0.794 0.425,-0.796C0.437,-0.799 0.45,-0.804 0.464,-0.811L0.464,-0.882C0.47,-0.889 0.477,-0.895 0.485,-0.899C0.493,-0.903 0.503,-0.905 0.515,-0.905C0.533,-0.905 0.547,-0.9 0.558,-0.892C0.569,-0.883 0.574,-0.87 0.574,-0.852C0.574,-0.821 0.558,-0.795 0.525,-0.775C0.492,-0.755 0.447,-0.745 0.39,-0.745C0.333,-0.745 0.287,-0.755 0.255,-0.775C0.222,-0.795 0.206,-0.82 0.206,-0.852C0.206,-0.87 0.212,-0.883 0.222,-0.892C0.233,-0.9 0.248,-0.905 0.265,-0.905C0.277,-0.905 0.287,-0.903 0.295,-0.899C0.303,-0.895 0.31,-0.889 0.316,-0.882L0.316,-0.811Z" style="fill:white;fill-rule:nonzero;"/>
            </g>
            <g transform="matrix(20.8461,-92.6846,92.6846,20.8461,2460.5,1129.5)">
                <path d="M0.03,-0.671L0.313,-0.671L0.313,-0.622L0.253,-0.617L0.237,-0.601L0.237,-0.382L0.526,-0.382L0.526,-0.601L0.511,-0.617L0.451,-0.622L0.451,-0.671L0.733,-0.671L0.733,-0.622L0.675,-0.617L0.659,-0.601L0.659,-0.07L0.675,-0.054L0.733,-0.049L0.733,-0L0.451,-0L0.451,-0.049L0.511,-0.054L0.526,-0.07L0.526,-0.322L0.237,-0.322L0.237,-0.07L0.253,-0.054L0.313,-0.049L0.313,-0L0.03,-0L0.03,-0.049L0.088,-0.054L0.104,-0.07L0.104,-0.601L0.088,-0.617L0.03,-0.622L0.03,-0.671Z" style="fill:white;fill-rule:nonzero;"/>
            </g>
            <g transform="matrix(31.7223,-89.5472,89.5472,31.7223,2474.79,1065.47)">
                <path d="M0.297,-0.541L0.21,-0.294L0.386,-0.294L0.297,-0.541ZM0.275,-0.678L0.38,-0.678L0.61,-0.059L0.669,-0.049L0.669,-0L0.399,-0L0.399,-0.049L0.462,-0.055L0.469,-0.068L0.409,-0.238L0.191,-0.238L0.131,-0.069L0.141,-0.056L0.204,-0.049L0.204,-0L-0.011,-0L-0.011,-0.049L0.049,-0.058L0.275,-0.678Z" style="fill:white;fill-rule:nonzero;"/>
            </g>
            <g transform="matrix(41.8765,-85.2723,85.2723,41.8765,2492.21,1014.02)">
                <path d="M0.313,-0.671L0.313,-0.622L0.253,-0.617L0.237,-0.601L0.237,-0.06L0.513,-0.06L0.513,-0.601L0.498,-0.617L0.437,-0.622L0.437,-0.671L0.719,-0.671L0.719,-0.622L0.661,-0.617L0.645,-0.601L0.645,-0.072L0.657,-0.06L0.729,-0.06L0.729,0.17L0.657,0.17L0.629,0.014L0.613,-0L0.031,-0L0.031,-0.049L0.089,-0.054L0.105,-0.07L0.105,-0.601L0.089,-0.617L0.031,-0.622L0.031,-0.671L0.313,-0.671Z" style="fill:white;fill-rule:nonzero;"/>
            </g>
            <g transform="matrix(49.1632,-81.2895,81.2895,49.1632,2520.73,957.011)">
                <path d="M0.03,-0L0.03,-0.049L0.096,-0.054L0.113,-0.07L0.113,-0.603L0.096,-0.617L0.03,-0.622L0.03,-0.671L0.329,-0.671L0.329,-0.622L0.262,-0.617L0.246,-0.603L0.246,-0.07L0.262,-0.054L0.329,-0.049L0.329,-0L0.03,-0Z" style="fill:white;fill-rule:nonzero;"/>
            </g>
            <g transform="matrix(56.0767,-76.6838,76.6838,56.0767,2533.18,934.131)">
                <path d="M0.38,-0.622C0.323,-0.622 0.277,-0.596 0.242,-0.545C0.207,-0.493 0.19,-0.424 0.19,-0.337C0.19,-0.249 0.207,-0.178 0.242,-0.125C0.277,-0.072 0.322,-0.045 0.378,-0.045C0.435,-0.045 0.48,-0.071 0.515,-0.123C0.55,-0.175 0.567,-0.244 0.567,-0.33C0.567,-0.419 0.55,-0.49 0.516,-0.543C0.482,-0.596 0.437,-0.622 0.38,-0.622ZM0.041,-0.339C0.041,-0.394 0.05,-0.443 0.067,-0.486C0.084,-0.53 0.11,-0.568 0.144,-0.599C0.176,-0.628 0.211,-0.65 0.25,-0.664C0.289,-0.679 0.331,-0.686 0.378,-0.686C0.421,-0.686 0.461,-0.68 0.497,-0.667C0.534,-0.653 0.568,-0.634 0.598,-0.608C0.637,-0.575 0.666,-0.535 0.686,-0.488C0.707,-0.441 0.717,-0.389 0.717,-0.333C0.717,-0.28 0.708,-0.231 0.69,-0.187C0.672,-0.143 0.645,-0.104 0.61,-0.072C0.58,-0.043 0.545,-0.022 0.506,-0.007C0.468,0.009 0.427,0.016 0.385,0.016C0.282,0.016 0.198,-0.016 0.135,-0.082C0.073,-0.147 0.041,-0.232 0.041,-0.339Z" style="fill:white;fill-rule:nonzero;"/>
            </g>
            <g transform="matrix(65.171,-69.1212,69.1212,65.171,2570.58,882.126)">
                <path d="M0.03,-0.671L0.313,-0.671L0.313,-0.622L0.253,-0.617L0.237,-0.601L0.237,-0.382L0.526,-0.382L0.526,-0.601L0.511,-0.617L0.451,-0.622L0.451,-0.671L0.733,-0.671L0.733,-0.622L0.675,-0.617L0.659,-0.601L0.659,-0.07L0.675,-0.054L0.733,-0.049L0.733,-0L0.451,-0L0.451,-0.049L0.511,-0.054L0.526,-0.07L0.526,-0.322L0.237,-0.322L0.237,-0.07L0.253,-0.054L0.313,-0.049L0.313,-0L0.03,-0L0.03,-0.049L0.088,-0.054L0.104,-0.07L0.104,-0.601L0.088,-0.617L0.03,-0.622L0.03,-0.671Z" style="fill:white;fill-rule:nonzero;"/>
            </g>
            <g transform="matrix(72.8123,-61.0194,61.0194,72.8123,2615.46,834.361)">
                <path d="M0.297,-0.541L0.21,-0.294L0.386,-0.294L0.297,-0.541ZM0.275,-0.678L0.38,-0.678L0.61,-0.059L0.669,-0.049L0.669,-0L0.399,-0L0.399,-0.049L0.462,-0.055L0.469,-0.068L0.409,-0.238L0.191,-0.238L0.131,-0.069L0.141,-0.056L0.204,-0.049L0.204,-0L-0.011,-0L-0.011,-0.049L0.049,-0.058L0.275,-0.678Z" style="fill:white;fill-rule:nonzero;"/>
            </g>
            <g transform="matrix(79.3045,-52.3049,52.3049,79.3045,2661.45,795.722)">
                <path d="M0.655,-0.671L0.655,-0.622L0.597,-0.617L0.581,-0.601L0.581,-0.07L0.597,-0.054L0.655,-0.049L0.655,-0L0.373,-0L0.373,-0.049L0.434,-0.054L0.449,-0.07L0.449,-0.611L0.315,-0.611C0.306,-0.407 0.279,-0.252 0.235,-0.146C0.19,-0.041 0.132,0.012 0.059,0.012C0.034,0.012 0.015,0.005 0,-0.008C-0.014,-0.022 -0.021,-0.04 -0.021,-0.061C-0.021,-0.08 -0.016,-0.096 -0.006,-0.111C0.003,-0.125 0.018,-0.135 0.036,-0.14L0.116,-0.082C0.123,-0.091 0.13,-0.102 0.138,-0.115C0.146,-0.128 0.154,-0.144 0.162,-0.164C0.17,-0.184 0.178,-0.208 0.186,-0.237C0.194,-0.265 0.202,-0.3 0.209,-0.341C0.214,-0.364 0.217,-0.387 0.22,-0.41C0.224,-0.433 0.226,-0.456 0.229,-0.479C0.231,-0.503 0.233,-0.525 0.234,-0.544C0.235,-0.564 0.236,-0.583 0.237,-0.6L0.221,-0.616L0.137,-0.622L0.137,-0.671L0.655,-0.671Z" style="fill:white;fill-rule:nonzero;"/>
            </g>
            <g transform="matrix(84.6423,-43.1356,43.1356,84.6423,2709.49,763.889)">
                <path d="M0.321,-0.671L0.321,-0.622L0.255,-0.617L0.239,-0.603L0.239,-0.386C0.254,-0.388 0.27,-0.389 0.288,-0.39C0.306,-0.391 0.323,-0.392 0.339,-0.392C0.388,-0.392 0.426,-0.387 0.455,-0.377C0.483,-0.368 0.504,-0.358 0.519,-0.348C0.544,-0.331 0.563,-0.309 0.576,-0.285C0.589,-0.26 0.595,-0.23 0.595,-0.195C0.595,-0.166 0.59,-0.14 0.581,-0.12C0.572,-0.099 0.559,-0.081 0.544,-0.067C0.529,-0.052 0.512,-0.041 0.493,-0.032C0.475,-0.023 0.456,-0.016 0.437,-0.011C0.419,-0.007 0.401,-0.004 0.384,-0.002C0.367,-0.001 0.354,-0 0.343,-0L0.031,-0L0.031,-0.049L0.091,-0.054L0.107,-0.07L0.107,-0.603L0.091,-0.617L0.031,-0.622L0.031,-0.671L0.321,-0.671ZM0.239,-0.057C0.246,-0.056 0.255,-0.056 0.264,-0.056C0.274,-0.055 0.284,-0.055 0.295,-0.055C0.316,-0.055 0.338,-0.057 0.359,-0.062C0.381,-0.066 0.4,-0.076 0.417,-0.091C0.433,-0.105 0.443,-0.122 0.448,-0.141C0.453,-0.16 0.455,-0.177 0.455,-0.192C0.455,-0.214 0.453,-0.232 0.448,-0.248C0.443,-0.264 0.436,-0.277 0.428,-0.287C0.42,-0.298 0.411,-0.306 0.401,-0.313C0.39,-0.319 0.379,-0.324 0.367,-0.328C0.356,-0.331 0.344,-0.333 0.333,-0.334C0.322,-0.335 0.311,-0.336 0.301,-0.336C0.281,-0.336 0.261,-0.334 0.239,-0.33L0.239,-0.057Z" style="fill:white;fill-rule:nonzero;"/>
            </g>
            <g transform="matrix(89.0221,-33.1671,33.1671,89.0221,2755.46,739.56)">
                <path d="M0.03,-0.671L0.313,-0.671L0.313,-0.622L0.253,-0.617L0.237,-0.601L0.237,-0.382L0.526,-0.382L0.526,-0.601L0.511,-0.617L0.451,-0.622L0.451,-0.671L0.733,-0.671L0.733,-0.622L0.675,-0.617L0.659,-0.601L0.659,-0.07L0.675,-0.054L0.733,-0.049L0.733,-0L0.451,-0L0.451,-0.049L0.511,-0.054L0.526,-0.07L0.526,-0.322L0.237,-0.322L0.237,-0.07L0.253,-0.054L0.313,-0.049L0.313,-0L0.03,-0L0.03,-0.049L0.088,-0.054L0.104,-0.07L0.104,-0.601L0.088,-0.617L0.03,-0.622L0.03,-0.671Z" style="fill:white;fill-rule:nonzero;"/>
            </g>
            <g transform="matrix(92.5441,-21.4614,21.4614,92.5441,2815.8,716.474)">
                <path d="M0.313,-0.671L0.313,-0.622L0.253,-0.617L0.237,-0.601L0.237,-0.194L0.545,-0.573L0.545,-0.601L0.53,-0.617L0.469,-0.622L0.469,-0.671L0.751,-0.671L0.751,-0.622L0.693,-0.617L0.677,-0.601L0.677,-0.07L0.693,-0.054L0.751,-0.049L0.751,-0L0.469,-0L0.469,-0.049L0.53,-0.054L0.545,-0.07L0.545,-0.487L0.237,-0.108L0.237,-0.07L0.253,-0.054L0.313,-0.049L0.313,-0L0.031,-0L0.031,-0.049L0.089,-0.054L0.105,-0.07L0.105,-0.601L0.089,-0.617L0.031,-0.622L0.031,-0.671L0.313,-0.671Z" style="fill:white;fill-rule:nonzero;"/>
            </g>
            <g transform="matrix(94.5535,-9.19994,9.19994,94.5535,2880.86,700.898)">
                <path d="M0.313,-0.671L0.313,-0.622L0.253,-0.617L0.237,-0.601L0.237,-0.194L0.545,-0.573L0.545,-0.601L0.53,-0.617L0.469,-0.622L0.469,-0.671L0.751,-0.671L0.751,-0.622L0.693,-0.617L0.677,-0.601L0.677,-0.07L0.693,-0.054L0.751,-0.049L0.751,-0L0.469,-0L0.469,-0.049L0.53,-0.054L0.545,-0.07L0.545,-0.487L0.237,-0.108L0.237,-0.07L0.253,-0.054L0.313,-0.049L0.313,-0L0.031,-0L0.031,-0.049L0.089,-0.054L0.105,-0.07L0.105,-0.601L0.089,-0.617L0.031,-0.622L0.031,-0.671L0.313,-0.671ZM0.316,-0.811C0.332,-0.802 0.346,-0.797 0.358,-0.795C0.369,-0.794 0.38,-0.793 0.39,-0.793C0.402,-0.793 0.413,-0.794 0.425,-0.796C0.437,-0.799 0.45,-0.804 0.464,-0.811L0.464,-0.882C0.47,-0.889 0.477,-0.895 0.485,-0.899C0.493,-0.903 0.503,-0.905 0.515,-0.905C0.533,-0.905 0.547,-0.9 0.558,-0.892C0.569,-0.883 0.574,-0.87 0.574,-0.852C0.574,-0.821 0.558,-0.795 0.525,-0.775C0.492,-0.755 0.447,-0.745 0.39,-0.745C0.333,-0.745 0.287,-0.755 0.255,-0.775C0.222,-0.795 0.206,-0.82 0.206,-0.852C0.206,-0.87 0.212,-0.883 0.222,-0.892C0.233,-0.9 0.248,-0.905 0.265,-0.905C0.277,-0.905 0.287,-0.903 0.295,-0.899C0.303,-0.895 0.31,-0.889 0.316,-0.882L0.316,-0.811Z" style="fill:white;fill-rule:nonzero;"/>
            </g>
            <g transform="matrix(94.8641,5.07899,-5.07899,94.8641,2967.46,694.109)">
                <path d="M0.029,-0L0.029,-0.049L0.09,-0.054L0.106,-0.07L0.106,-0.603L0.09,-0.617L0.029,-0.622L0.029,-0.671L0.533,-0.671L0.533,-0.514L0.464,-0.514L0.447,-0.602L0.436,-0.615L0.236,-0.615L0.236,-0.377L0.366,-0.377L0.38,-0.391L0.39,-0.463L0.449,-0.463L0.449,-0.231L0.39,-0.231L0.38,-0.303L0.366,-0.317L0.236,-0.317L0.236,-0.057L0.469,-0.057L0.481,-0.073L0.497,-0.179L0.566,-0.179L0.566,-0L0.029,-0Z" style="fill:white;fill-rule:nonzero;"/>
            </g>
            <g transform="matrix(93.7797,15.178,-15.178,93.7797,3016.44,696.005)">
                <path d="M0.313,-0.671L0.313,-0.622L0.253,-0.617L0.237,-0.603L0.237,-0.374L0.306,-0.374C0.317,-0.374 0.326,-0.375 0.334,-0.377C0.342,-0.38 0.349,-0.384 0.356,-0.39C0.364,-0.396 0.371,-0.404 0.377,-0.415C0.384,-0.426 0.391,-0.44 0.399,-0.457L0.443,-0.553C0.451,-0.572 0.46,-0.588 0.47,-0.603C0.48,-0.618 0.49,-0.632 0.501,-0.644C0.523,-0.667 0.55,-0.679 0.584,-0.679C0.601,-0.679 0.614,-0.677 0.625,-0.672C0.636,-0.667 0.644,-0.661 0.65,-0.654C0.657,-0.646 0.661,-0.638 0.663,-0.629C0.666,-0.62 0.667,-0.612 0.667,-0.604C0.667,-0.583 0.66,-0.565 0.646,-0.552C0.632,-0.539 0.616,-0.532 0.597,-0.531L0.538,-0.586C0.531,-0.578 0.526,-0.571 0.523,-0.564C0.52,-0.557 0.516,-0.548 0.511,-0.538L0.47,-0.444C0.458,-0.416 0.446,-0.395 0.434,-0.381C0.422,-0.368 0.408,-0.359 0.393,-0.352L0.393,-0.35C0.413,-0.347 0.429,-0.342 0.443,-0.335C0.457,-0.327 0.469,-0.318 0.479,-0.306C0.49,-0.295 0.499,-0.281 0.507,-0.266C0.515,-0.25 0.524,-0.233 0.532,-0.215L0.598,-0.071L0.625,-0.054L0.691,-0.049L0.691,-0L0.463,-0L0.463,-0.035L0.385,-0.228C0.38,-0.239 0.375,-0.25 0.369,-0.261C0.363,-0.272 0.356,-0.282 0.347,-0.29C0.338,-0.299 0.328,-0.305 0.316,-0.31C0.304,-0.315 0.29,-0.318 0.274,-0.318L0.237,-0.318L0.237,-0.07L0.253,-0.054L0.313,-0.049L0.313,-0L0.029,-0L0.029,-0.049L0.09,-0.054L0.105,-0.07L0.105,-0.603L0.09,-0.617L0.029,-0.622L0.029,-0.671L0.313,-0.671Z" style="fill:white;fill-rule:nonzero;"/>
            </g>
            <g transform="matrix(91.3995,25.9061,-25.9061,91.3995,3072.98,704.388)">
                <path d="M0.38,-0.622C0.323,-0.622 0.277,-0.596 0.242,-0.545C0.207,-0.493 0.19,-0.424 0.19,-0.337C0.19,-0.249 0.207,-0.178 0.242,-0.125C0.277,-0.072 0.322,-0.045 0.378,-0.045C0.435,-0.045 0.48,-0.071 0.515,-0.123C0.55,-0.175 0.567,-0.244 0.567,-0.33C0.567,-0.419 0.55,-0.49 0.516,-0.543C0.482,-0.596 0.437,-0.622 0.38,-0.622ZM0.041,-0.339C0.041,-0.394 0.05,-0.443 0.067,-0.486C0.084,-0.53 0.11,-0.568 0.144,-0.599C0.176,-0.628 0.211,-0.65 0.25,-0.664C0.289,-0.679 0.331,-0.686 0.378,-0.686C0.421,-0.686 0.461,-0.68 0.497,-0.667C0.534,-0.653 0.568,-0.634 0.598,-0.608C0.637,-0.575 0.666,-0.535 0.686,-0.488C0.707,-0.441 0.717,-0.389 0.717,-0.333C0.717,-0.28 0.708,-0.231 0.69,-0.187C0.672,-0.143 0.645,-0.104 0.61,-0.072C0.58,-0.043 0.545,-0.022 0.506,-0.007C0.468,0.009 0.427,0.016 0.385,0.016C0.282,0.016 0.198,-0.016 0.135,-0.082C0.073,-0.147 0.041,-0.232 0.041,-0.339Z" style="fill:white;fill-rule:nonzero;"/>
            </g>
            <g transform="matrix(87.4149,37.1973,-37.1973,87.4149,3134.66,721.329)">
                <path d="M0.03,-0.671L0.313,-0.671L0.313,-0.622L0.253,-0.617L0.237,-0.601L0.237,-0.382L0.526,-0.382L0.526,-0.601L0.511,-0.617L0.451,-0.622L0.451,-0.671L0.733,-0.671L0.733,-0.622L0.675,-0.617L0.659,-0.601L0.659,-0.07L0.675,-0.054L0.733,-0.049L0.733,-0L0.451,-0L0.451,-0.049L0.511,-0.054L0.526,-0.07L0.526,-0.322L0.237,-0.322L0.237,-0.07L0.253,-0.054L0.313,-0.049L0.313,-0L0.03,-0L0.03,-0.049L0.088,-0.054L0.104,-0.07L0.104,-0.601L0.088,-0.617L0.03,-0.622L0.03,-0.671Z" style="fill:white;fill-rule:nonzero;"/>
            </g>
            <g transform="matrix(82.0399,47.9005,-47.9005,82.0399,3194.4,746.24)">
                <path d="M0.38,-0.622C0.323,-0.622 0.277,-0.596 0.242,-0.545C0.207,-0.493 0.19,-0.424 0.19,-0.337C0.19,-0.249 0.207,-0.178 0.242,-0.125C0.277,-0.072 0.322,-0.045 0.378,-0.045C0.435,-0.045 0.48,-0.071 0.515,-0.123C0.55,-0.175 0.567,-0.244 0.567,-0.33C0.567,-0.419 0.55,-0.49 0.516,-0.543C0.482,-0.596 0.437,-0.622 0.38,-0.622ZM0.041,-0.339C0.041,-0.394 0.05,-0.443 0.067,-0.486C0.084,-0.53 0.11,-0.568 0.144,-0.599C0.176,-0.628 0.211,-0.65 0.25,-0.664C0.289,-0.679 0.331,-0.686 0.378,-0.686C0.421,-0.686 0.461,-0.68 0.497,-0.667C0.534,-0.653 0.568,-0.634 0.598,-0.608C0.637,-0.575 0.666,-0.535 0.686,-0.488C0.707,-0.441 0.717,-0.389 0.717,-0.333C0.717,-0.28 0.708,-0.231 0.69,-0.187C0.672,-0.143 0.645,-0.104 0.61,-0.072C0.58,-0.043 0.545,-0.022 0.506,-0.007C0.468,0.009 0.427,0.016 0.385,0.016C0.282,0.016 0.198,-0.016 0.135,-0.082C0.073,-0.147 0.041,-0.232 0.041,-0.339Z" style="fill:white;fill-rule:nonzero;"/>
            </g>
            <g transform="matrix(74.7763,58.5962,-58.5962,74.7763,3250.09,777.64)">
                <path d="M0.025,-0L0.025,-0.049L0.089,-0.056L0.103,-0.074L0.103,-0.604L0.091,-0.617L0.025,-0.623L0.025,-0.671L0.287,-0.671L0.287,-0.643L0.443,-0.184L0.598,-0.642L0.598,-0.671L0.863,-0.671L0.863,-0.623L0.795,-0.617L0.784,-0.603L0.784,-0.07L0.795,-0.054L0.863,-0.049L0.863,-0L0.586,-0L0.586,-0.049L0.648,-0.054L0.658,-0.07L0.658,-0.607L0.45,-0L0.378,-0L0.175,-0.602L0.175,-0.074L0.19,-0.056L0.252,-0.049L0.252,-0L0.025,-0Z" style="fill:white;fill-rule:nonzero;"/>
            </g>
            <g transform="matrix(68.5851,65.7349,-65.7349,68.5851,3309.7,825.437)">
                <path d="M0.03,-0L0.03,-0.049L0.096,-0.054L0.113,-0.07L0.113,-0.603L0.096,-0.617L0.03,-0.622L0.03,-0.671L0.329,-0.671L0.329,-0.622L0.262,-0.617L0.246,-0.603L0.246,-0.07L0.262,-0.054L0.329,-0.049L0.329,-0L0.03,-0Z" style="fill:white;fill-rule:nonzero;"/>
            </g>
            <g transform="matrix(62.9774,71.1256,-71.1256,62.9774,3329.16,842.702)">
                <path d="M0.293,-0.671L0.293,-0.622L0.233,-0.617L0.217,-0.601L0.217,-0.457C0.217,-0.444 0.218,-0.43 0.22,-0.414C0.222,-0.398 0.229,-0.383 0.24,-0.37C0.246,-0.362 0.254,-0.356 0.263,-0.352C0.271,-0.347 0.28,-0.344 0.289,-0.342C0.298,-0.34 0.306,-0.338 0.314,-0.338C0.322,-0.337 0.329,-0.337 0.334,-0.337C0.353,-0.337 0.376,-0.339 0.404,-0.343C0.417,-0.345 0.431,-0.348 0.444,-0.35C0.458,-0.353 0.471,-0.356 0.485,-0.36L0.485,-0.601L0.47,-0.617L0.409,-0.622L0.409,-0.671L0.691,-0.671L0.691,-0.622L0.633,-0.617L0.617,-0.601L0.617,-0.07L0.633,-0.054L0.691,-0.049L0.691,-0L0.409,-0L0.409,-0.049L0.47,-0.054L0.485,-0.07L0.485,-0.3C0.448,-0.291 0.416,-0.284 0.388,-0.28C0.359,-0.276 0.333,-0.274 0.31,-0.274C0.281,-0.274 0.256,-0.276 0.235,-0.28C0.214,-0.284 0.196,-0.289 0.181,-0.295C0.167,-0.301 0.155,-0.308 0.145,-0.314C0.136,-0.321 0.129,-0.327 0.123,-0.333C0.106,-0.352 0.095,-0.371 0.091,-0.391C0.087,-0.41 0.085,-0.428 0.085,-0.445L0.085,-0.601L0.069,-0.617L0.011,-0.622L0.011,-0.671L0.293,-0.671Z" style="fill:white;fill-rule:nonzero;"/>
            </g>
            <g transform="matrix(53.6954,78.3697,-78.3697,53.6954,3370.04,888.07)">
                <path d="M0.03,-0.671L0.313,-0.671L0.313,-0.622L0.253,-0.617L0.237,-0.601L0.237,-0.382L0.526,-0.382L0.526,-0.601L0.511,-0.617L0.451,-0.622L0.451,-0.671L0.733,-0.671L0.733,-0.622L0.675,-0.617L0.659,-0.601L0.659,-0.07L0.675,-0.054L0.733,-0.049L0.733,-0L0.451,-0L0.451,-0.049L0.511,-0.054L0.526,-0.07L0.526,-0.322L0.237,-0.322L0.237,-0.07L0.253,-0.054L0.313,-0.049L0.313,-0L0.03,-0L0.03,-0.049L0.088,-0.054L0.104,-0.07L0.104,-0.601L0.088,-0.617L0.03,-0.622L0.03,-0.671Z" style="fill:white;fill-rule:nonzero;"/>
            </g>
            <g transform="matrix(43.2641,84.5767,-84.5767,43.2641,3407.06,941.117)">
                <path d="M0.313,-0.671L0.313,-0.622L0.253,-0.617L0.237,-0.601L0.237,-0.194L0.545,-0.573L0.545,-0.601L0.53,-0.617L0.469,-0.622L0.469,-0.671L0.751,-0.671L0.751,-0.622L0.693,-0.617L0.677,-0.601L0.677,-0.07L0.693,-0.054L0.751,-0.049L0.751,-0L0.469,-0L0.469,-0.049L0.53,-0.054L0.545,-0.07L0.545,-0.487L0.237,-0.108L0.237,-0.07L0.253,-0.054L0.313,-0.049L0.313,-0L0.031,-0L0.031,-0.049L0.089,-0.054L0.105,-0.07L0.105,-0.601L0.089,-0.617L0.031,-0.622L0.031,-0.671L0.313,-0.671Z" style="fill:white;fill-rule:nonzero;"/>
            </g>
            <g transform="matrix(31.8259,89.5104,-89.5104,31.8259,3437.97,1000.48)">
                <path d="M0.313,-0.671L0.313,-0.622L0.253,-0.617L0.237,-0.601L0.237,-0.194L0.545,-0.573L0.545,-0.601L0.53,-0.617L0.469,-0.622L0.469,-0.671L0.751,-0.671L0.751,-0.622L0.693,-0.617L0.677,-0.601L0.677,-0.07L0.693,-0.054L0.751,-0.049L0.751,-0L0.469,-0L0.469,-0.049L0.53,-0.054L0.545,-0.07L0.545,-0.487L0.237,-0.108L0.237,-0.07L0.253,-0.054L0.313,-0.049L0.313,-0L0.031,-0L0.031,-0.049L0.089,-0.054L0.105,-0.07L0.105,-0.601L0.089,-0.617L0.031,-0.622L0.031,-0.671L0.313,-0.671ZM0.316,-0.811C0.332,-0.802 0.346,-0.797 0.358,-0.795C0.369,-0.794 0.38,-0.793 0.39,-0.793C0.402,-0.793 0.413,-0.794 0.425,-0.796C0.437,-0.799 0.45,-0.804 0.464,-0.811L0.464,-0.882C0.47,-0.889 0.477,-0.895 0.485,-0.899C0.493,-0.903 0.503,-0.905 0.515,-0.905C0.533,-0.905 0.547,-0.9 0.558,-0.892C0.569,-0.883 0.574,-0.87 0.574,-0.852C0.574,-0.821 0.558,-0.795 0.525,-0.775C0.492,-0.755 0.447,-0.745 0.39,-0.745C0.333,-0.745 0.287,-0.755 0.255,-0.775C0.222,-0.795 0.206,-0.82 0.206,-0.852C0.206,-0.87 0.212,-0.883 0.222,-0.892C0.233,-0.9 0.248,-0.905 0.265,-0.905C0.277,-0.905 0.287,-0.903 0.295,-0.899C0.303,-0.895 0.31,-0.889 0.316,-0.882L0.316,-0.811Z" style="fill:white;fill-rule:nonzero;"/>
            </g>
            <g transform="matrix(17.6036,93.3548,-93.3548,17.6036,3465.57,1082.86)">
                <path d="M0.136,-0.182L0.154,-0.073L0.166,-0.059C0.171,-0.056 0.175,-0.054 0.178,-0.053C0.182,-0.052 0.186,-0.052 0.191,-0.052C0.214,-0.052 0.233,-0.06 0.248,-0.078C0.262,-0.096 0.278,-0.125 0.294,-0.166L0.051,-0.612L-0.013,-0.622L-0.013,-0.671L0.276,-0.671L0.276,-0.622L0.22,-0.617L0.211,-0.605L0.366,-0.314L0.481,-0.6L0.472,-0.614L0.41,-0.623L0.41,-0.671L0.627,-0.671L0.627,-0.622L0.565,-0.611L0.387,-0.184C0.37,-0.144 0.354,-0.111 0.338,-0.086C0.323,-0.061 0.307,-0.041 0.291,-0.026C0.275,-0.011 0.258,-0.001 0.241,0.004C0.224,0.01 0.205,0.012 0.185,0.012C0.164,0.012 0.143,0.01 0.122,0.006C0.101,0.001 0.082,-0.005 0.064,-0.012L0.064,-0.182L0.136,-0.182Z" style="fill:white;fill-rule:nonzero;"/>
            </g>
            <g transform="matrix(7.06733,94.7368,-94.7368,7.06733,3475.71,1132.12)">
                <path d="M0.03,-0.671L0.313,-0.671L0.313,-0.622L0.253,-0.617L0.237,-0.601L0.237,-0.382L0.526,-0.382L0.526,-0.601L0.511,-0.617L0.451,-0.622L0.451,-0.671L0.733,-0.671L0.733,-0.622L0.675,-0.617L0.659,-0.601L0.659,-0.07L0.675,-0.054L0.733,-0.049L0.733,-0L0.451,-0L0.451,-0.049L0.511,-0.054L0.526,-0.07L0.526,-0.322L0.237,-0.322L0.237,-0.07L0.253,-0.054L0.313,-0.049L0.313,-0L0.03,-0L0.03,-0.049L0.088,-0.054L0.104,-0.07L0.104,-0.601L0.088,-0.617L0.03,-0.622L0.03,-0.671Z" style="fill:white;fill-rule:nonzero;"/>
            </g>
            <g transform="matrix(-1.24265,94.9919,-94.9919,-1.24265,3480.01,1196.57)">
                <path d="M0.03,-0L0.03,-0.049L0.096,-0.054L0.113,-0.07L0.113,-0.603L0.096,-0.617L0.03,-0.622L0.03,-0.671L0.329,-0.671L0.329,-0.622L0.262,-0.617L0.246,-0.603L0.246,-0.07L0.262,-0.054L0.329,-0.049L0.329,-0L0.03,-0Z" style="fill:white;fill-rule:nonzero;"/>
            </g>
            <g transform="matrix(-8.30283,94.6365,-94.6365,-8.30283,3480.43,1222.77)">
                <path d="M0.234,-0.057L0.237,-0.057C0.257,-0.056 0.272,-0.055 0.282,-0.055C0.341,-0.055 0.383,-0.066 0.41,-0.087C0.437,-0.108 0.45,-0.143 0.45,-0.19C0.45,-0.233 0.438,-0.264 0.413,-0.285C0.388,-0.306 0.35,-0.317 0.3,-0.317C0.285,-0.317 0.273,-0.317 0.263,-0.316C0.253,-0.316 0.244,-0.316 0.234,-0.315L0.234,-0.057ZM0.234,-0.373C0.237,-0.373 0.24,-0.372 0.244,-0.372C0.248,-0.372 0.254,-0.372 0.261,-0.372C0.313,-0.372 0.352,-0.383 0.376,-0.404C0.401,-0.425 0.413,-0.457 0.413,-0.502C0.413,-0.541 0.402,-0.57 0.379,-0.589C0.356,-0.608 0.321,-0.617 0.274,-0.617C0.266,-0.617 0.254,-0.617 0.237,-0.615L0.234,-0.615L0.234,-0.373ZM0.029,-0.671L0.329,-0.671C0.403,-0.671 0.458,-0.658 0.495,-0.632C0.532,-0.605 0.551,-0.566 0.551,-0.514C0.551,-0.475 0.539,-0.442 0.515,-0.415C0.491,-0.389 0.455,-0.369 0.408,-0.357C0.465,-0.356 0.51,-0.341 0.542,-0.313C0.574,-0.285 0.59,-0.246 0.59,-0.196C0.59,-0.133 0.568,-0.084 0.525,-0.051C0.482,-0.017 0.419,-0 0.338,-0L0.029,-0L0.029,-0.049L0.088,-0.054L0.104,-0.07L0.104,-0.603L0.088,-0.617L0.029,-0.622L0.029,-0.671Z" style="fill:white;fill-rule:nonzero;"/>
            </g>
            <g transform="matrix(-17.6768,93.3409,-93.3409,-17.6768,3476.15,1274.72)">
                <path d="M0.029,-0L0.029,-0.049L0.09,-0.054L0.106,-0.07L0.106,-0.603L0.09,-0.617L0.029,-0.622L0.029,-0.671L0.533,-0.671L0.533,-0.514L0.464,-0.514L0.447,-0.602L0.436,-0.615L0.236,-0.615L0.236,-0.377L0.366,-0.377L0.38,-0.391L0.39,-0.463L0.449,-0.463L0.449,-0.231L0.39,-0.231L0.38,-0.303L0.366,-0.317L0.236,-0.317L0.236,-0.057L0.469,-0.057L0.481,-0.073L0.497,-0.179L0.566,-0.179L0.566,-0L0.029,-0Z" style="fill:white;fill-rule:nonzero;"/>
            </g>
            <g transform="matrix(-26.5799,91.2059,-91.2059,-26.5799,3467.35,1323.07)">
                <path d="M0.238,-0.307C0.238,-0.307 0.24,-0.307 0.241,-0.307C0.256,-0.306 0.267,-0.305 0.274,-0.305C0.326,-0.305 0.365,-0.319 0.391,-0.345C0.417,-0.372 0.43,-0.412 0.43,-0.465C0.43,-0.513 0.418,-0.549 0.394,-0.575C0.37,-0.6 0.335,-0.613 0.29,-0.613L0.238,-0.613L0.238,-0.307ZM0.029,-0L0.029,-0.049L0.088,-0.054L0.106,-0.07L0.106,-0.603L0.091,-0.617L0.025,-0.622L0.025,-0.671L0.295,-0.671C0.39,-0.671 0.46,-0.655 0.503,-0.623C0.546,-0.59 0.568,-0.539 0.568,-0.469C0.568,-0.399 0.545,-0.344 0.499,-0.305C0.453,-0.267 0.389,-0.247 0.306,-0.247C0.298,-0.247 0.289,-0.247 0.277,-0.248C0.266,-0.248 0.253,-0.249 0.238,-0.25L0.238,-0.07L0.253,-0.054L0.324,-0.049L0.324,-0L0.029,-0Z" style="fill:white;fill-rule:nonzero;"/>
            </g>
            <g transform="matrix(-35.8196,87.9884,-87.9884,-35.8196,3453.77,1371.25)">
                <path d="M0.601,-0.024C0.568,-0.012 0.533,-0.003 0.498,0.003C0.463,0.009 0.428,0.012 0.391,0.012C0.356,0.012 0.322,0.008 0.291,0.001C0.26,-0.007 0.232,-0.018 0.207,-0.033C0.155,-0.064 0.114,-0.106 0.085,-0.159C0.056,-0.213 0.041,-0.271 0.041,-0.335C0.041,-0.386 0.05,-0.433 0.068,-0.477C0.085,-0.521 0.111,-0.559 0.145,-0.591C0.177,-0.621 0.213,-0.644 0.256,-0.66C0.298,-0.675 0.345,-0.683 0.397,-0.683C0.431,-0.683 0.464,-0.68 0.498,-0.674C0.532,-0.668 0.567,-0.658 0.601,-0.646L0.601,-0.479L0.528,-0.479L0.508,-0.586L0.494,-0.603C0.48,-0.608 0.467,-0.612 0.454,-0.614C0.441,-0.617 0.428,-0.618 0.415,-0.618C0.345,-0.618 0.29,-0.593 0.249,-0.542C0.208,-0.492 0.188,-0.423 0.188,-0.336C0.188,-0.247 0.209,-0.177 0.252,-0.126C0.295,-0.076 0.353,-0.051 0.428,-0.051C0.436,-0.051 0.446,-0.052 0.456,-0.053C0.466,-0.055 0.477,-0.057 0.489,-0.06L0.504,-0.075L0.528,-0.196L0.601,-0.196L0.601,-0.024Z" style="fill:white;fill-rule:nonzero;"/>
            </g>
            <g transform="matrix(-45.8397,83.2089,-83.2089,-45.8397,3434.54,1420.75)">
                <path d="M0.313,-0.671L0.313,-0.622L0.253,-0.617L0.237,-0.601L0.237,-0.194L0.545,-0.573L0.545,-0.601L0.53,-0.617L0.469,-0.622L0.469,-0.671L0.751,-0.671L0.751,-0.622L0.693,-0.617L0.677,-0.601L0.677,-0.07L0.693,-0.054L0.751,-0.049L0.751,-0L0.469,-0L0.469,-0.049L0.53,-0.054L0.545,-0.07L0.545,-0.487L0.237,-0.108L0.237,-0.07L0.253,-0.054L0.313,-0.049L0.313,-0L0.031,-0L0.031,-0.049L0.089,-0.054L0.105,-0.07L0.105,-0.601L0.089,-0.617L0.031,-0.622L0.031,-0.671L0.313,-0.671Z" style="fill:white;fill-rule:nonzero;"/>
            </g>
            <g transform="matrix(-55.0093,77.4531,-77.4531,-55.0093,3402.31,1479.17)">
                <path d="M0.016,-0.671L0.593,-0.671L0.593,-0.494L0.524,-0.494L0.507,-0.601L0.492,-0.614L0.372,-0.614L0.372,-0.07L0.389,-0.054L0.454,-0.049L0.454,-0L0.155,-0L0.155,-0.049L0.22,-0.054L0.237,-0.07L0.237,-0.614L0.117,-0.614L0.102,-0.601L0.085,-0.494L0.016,-0.494L0.016,-0.671Z" style="fill:white;fill-rule:nonzero;"/>
            </g>
            <g transform="matrix(-62.125,71.8713,-71.8713,-62.125,3373.79,1519.93)">
                <path d="M0.029,-0L0.029,-0.049L0.09,-0.054L0.106,-0.07L0.106,-0.603L0.09,-0.617L0.029,-0.622L0.029,-0.671L0.533,-0.671L0.533,-0.514L0.464,-0.514L0.447,-0.602L0.436,-0.615L0.236,-0.615L0.236,-0.377L0.366,-0.377L0.38,-0.391L0.39,-0.463L0.449,-0.463L0.449,-0.231L0.39,-0.231L0.38,-0.303L0.366,-0.317L0.236,-0.317L0.236,-0.057L0.469,-0.057L0.481,-0.073L0.497,-0.179L0.566,-0.179L0.566,-0L0.029,-0Z" style="fill:white;fill-rule:nonzero;"/>
            </g>
            <g transform="matrix(-68.7562,65.556,-65.556,-68.7562,3341.97,1557.34)">
                <path d="M0.016,-0.671L0.593,-0.671L0.593,-0.494L0.524,-0.494L0.507,-0.601L0.492,-0.614L0.372,-0.614L0.372,-0.07L0.389,-0.054L0.454,-0.049L0.454,-0L0.155,-0L0.155,-0.049L0.22,-0.054L0.237,-0.07L0.237,-0.614L0.117,-0.614L0.102,-0.601L0.085,-0.494L0.016,-0.494L0.016,-0.671Z" style="fill:white;fill-rule:nonzero;"/>
            </g>
            <g transform="matrix(48.1649,35.779,-35.779,48.1649,2621.28,1669.25)">
                <path d="M0.173,-0.496L0.221,-0.496L0.221,-0.064L0.236,-0.049L0.292,-0.045L0.292,-0L0.03,-0L0.03,-0.045L0.084,-0.049L0.098,-0.064L0.098,-0.409L0.032,-0.409L0.032,-0.449L0.173,-0.496ZM0.162,-0.724C0.184,-0.724 0.202,-0.717 0.216,-0.703C0.23,-0.69 0.237,-0.672 0.237,-0.651C0.237,-0.629 0.23,-0.611 0.216,-0.596C0.202,-0.582 0.185,-0.575 0.163,-0.575C0.142,-0.575 0.125,-0.582 0.111,-0.596C0.097,-0.61 0.09,-0.628 0.09,-0.649C0.09,-0.67 0.097,-0.688 0.111,-0.703C0.124,-0.717 0.142,-0.724 0.162,-0.724Z" style="fill:white;fill-rule:nonzero;"/>
            </g>
            <g transform="matrix(50.0164,33.1415,-33.1415,50.0164,2632.82,1678.39)">
                <path d="M0.252,-0.487L0.252,-0.463L0.365,-0.15L0.478,-0.463L0.478,-0.487L0.702,-0.487L0.702,-0.442L0.649,-0.437L0.635,-0.423L0.635,-0.064L0.649,-0.05L0.702,-0.045L0.702,-0L0.45,-0L0.45,-0.045L0.503,-0.05L0.517,-0.064L0.517,-0.415L0.515,-0.415L0.364,-0L0.316,-0L0.161,-0.415L0.159,-0.415L0.159,-0.064L0.173,-0.05L0.226,-0.045L0.226,-0L0.028,-0L0.028,-0.045L0.081,-0.05L0.095,-0.064L0.095,-0.423L0.081,-0.437L0.028,-0.442L0.028,-0.487L0.252,-0.487Z" style="fill:white;fill-rule:nonzero;"/>
            </g>
            <g transform="matrix(51.7361,30.387,-30.387,51.7361,2666.5,1700.39)">
                <path d="M0.144,-0.151C0.166,-0.151 0.185,-0.143 0.2,-0.127C0.216,-0.112 0.224,-0.093 0.224,-0.071C0.224,-0.049 0.216,-0.03 0.201,-0.015C0.185,0 0.166,0.008 0.144,0.008C0.123,0.008 0.104,0 0.089,-0.015C0.074,-0.03 0.066,-0.049 0.066,-0.071C0.066,-0.093 0.073,-0.112 0.089,-0.128C0.104,-0.143 0.122,-0.151 0.144,-0.151Z" style="fill:white;fill-rule:nonzero;"/>
            </g>
            <g transform="matrix(73.536,31.5034,-31.5034,73.536,2710.8,1725.09)">
                <path d="M0.234,-0.057L0.237,-0.057C0.257,-0.056 0.272,-0.055 0.282,-0.055C0.341,-0.055 0.383,-0.066 0.41,-0.087C0.437,-0.108 0.45,-0.143 0.45,-0.19C0.45,-0.233 0.438,-0.264 0.413,-0.285C0.388,-0.306 0.35,-0.317 0.3,-0.317C0.285,-0.317 0.273,-0.317 0.263,-0.316C0.253,-0.316 0.244,-0.316 0.234,-0.315L0.234,-0.057ZM0.234,-0.373C0.237,-0.373 0.24,-0.372 0.244,-0.372C0.248,-0.372 0.254,-0.372 0.261,-0.372C0.313,-0.372 0.352,-0.383 0.376,-0.404C0.401,-0.425 0.413,-0.457 0.413,-0.502C0.413,-0.541 0.402,-0.57 0.379,-0.589C0.356,-0.608 0.321,-0.617 0.274,-0.617C0.266,-0.617 0.254,-0.617 0.237,-0.615L0.234,-0.615L0.234,-0.373ZM0.029,-0.671L0.329,-0.671C0.403,-0.671 0.458,-0.658 0.495,-0.632C0.532,-0.605 0.551,-0.566 0.551,-0.514C0.551,-0.475 0.539,-0.442 0.515,-0.415C0.491,-0.389 0.455,-0.369 0.408,-0.357C0.465,-0.356 0.51,-0.341 0.542,-0.313C0.574,-0.285 0.59,-0.246 0.59,-0.196C0.59,-0.133 0.568,-0.084 0.525,-0.051C0.482,-0.017 0.419,-0 0.338,-0L0.029,-0L0.029,-0.049L0.088,-0.054L0.104,-0.07L0.104,-0.603L0.088,-0.617L0.029,-0.622L0.029,-0.671Z" style="fill:white;fill-rule:nonzero;"/>
            </g>
            <g transform="matrix(75.7867,25.6197,-25.6197,75.7867,2752.58,1743.08)">
                <path d="M0.343,-0.098L0.343,-0.261C0.277,-0.247 0.232,-0.231 0.208,-0.213C0.184,-0.196 0.172,-0.173 0.172,-0.143C0.172,-0.12 0.179,-0.102 0.192,-0.088C0.205,-0.075 0.223,-0.068 0.246,-0.068C0.259,-0.068 0.273,-0.07 0.289,-0.075C0.305,-0.08 0.323,-0.088 0.343,-0.098ZM0.343,-0.057C0.309,-0.034 0.278,-0.017 0.25,-0.007C0.223,0.004 0.196,0.009 0.171,0.009C0.132,0.009 0.101,-0.003 0.077,-0.028C0.052,-0.052 0.04,-0.083 0.04,-0.121C0.04,-0.168 0.058,-0.204 0.094,-0.229C0.13,-0.255 0.213,-0.282 0.344,-0.312L0.344,-0.342C0.344,-0.378 0.337,-0.404 0.321,-0.421C0.306,-0.438 0.282,-0.446 0.249,-0.446C0.242,-0.446 0.234,-0.445 0.227,-0.444C0.219,-0.443 0.21,-0.442 0.201,-0.44L0.201,-0.346L0.109,-0.346C0.093,-0.346 0.081,-0.349 0.074,-0.355C0.067,-0.361 0.063,-0.37 0.063,-0.383C0.063,-0.414 0.084,-0.441 0.126,-0.464C0.168,-0.487 0.22,-0.499 0.281,-0.499C0.349,-0.499 0.398,-0.486 0.426,-0.459C0.454,-0.433 0.468,-0.387 0.468,-0.322L0.468,-0.063L0.481,-0.049L0.534,-0.044L0.534,-0L0.356,-0L0.343,-0.057Z" style="fill:white;fill-rule:nonzero;"/>
            </g>
            <g transform="matrix(77.3245,20.5163,-20.5163,77.3245,2790.76,1756.1)">
                <path d="M0.52,-0.487L0.52,-0.442L0.467,-0.437L0.453,-0.423L0.453,-0.066L0.465,-0.056L0.526,-0.056L0.526,0.146L0.456,0.146L0.436,0.016L0.421,-0L0.097,-0L0.082,0.016L0.062,0.146L-0.008,0.146L-0.008,-0.056L0.042,-0.056C0.058,-0.081 0.073,-0.108 0.087,-0.138C0.102,-0.168 0.115,-0.2 0.127,-0.232C0.139,-0.265 0.149,-0.297 0.158,-0.33C0.167,-0.363 0.173,-0.394 0.178,-0.423L0.164,-0.437L0.099,-0.442L0.099,-0.487L0.52,-0.487ZM0.33,-0.056L0.33,-0.431L0.246,-0.431C0.241,-0.403 0.235,-0.372 0.227,-0.339C0.218,-0.306 0.209,-0.272 0.198,-0.239C0.187,-0.206 0.174,-0.173 0.161,-0.142C0.147,-0.11 0.132,-0.082 0.116,-0.056L0.33,-0.056Z" style="fill:white;fill-rule:nonzero;"/>
            </g>
            <g transform="matrix(78.6337,14.7223,-14.7223,78.6337,2828.37,1766.35)">
                <path d="M0.028,-0.045L0.081,-0.05L0.095,-0.064L0.095,-0.423L0.081,-0.437L0.028,-0.442L0.028,-0.487L0.283,-0.487L0.283,-0.442L0.232,-0.437L0.218,-0.423L0.218,-0.176L0.422,-0.399L0.422,-0.423L0.408,-0.437L0.357,-0.442L0.357,-0.487L0.612,-0.487L0.612,-0.442L0.559,-0.437L0.545,-0.423L0.545,-0.064L0.559,-0.05L0.612,-0.045L0.612,-0L0.357,-0L0.357,-0.045L0.408,-0.05L0.422,-0.064L0.422,-0.319L0.218,-0.096L0.218,-0.064L0.232,-0.05L0.283,-0.045L0.283,-0L0.028,-0L0.028,-0.045Z" style="fill:white;fill-rule:nonzero;"/>
            </g>
            <g transform="matrix(79.5711,8.27333,-8.27333,79.5711,2874.04,1775.22)">
                <path d="M0.252,-0.487L0.252,-0.463L0.365,-0.15L0.478,-0.463L0.478,-0.487L0.702,-0.487L0.702,-0.442L0.649,-0.437L0.635,-0.423L0.635,-0.064L0.649,-0.05L0.702,-0.045L0.702,-0L0.45,-0L0.45,-0.045L0.503,-0.05L0.517,-0.064L0.517,-0.415L0.515,-0.415L0.364,-0L0.316,-0L0.161,-0.415L0.159,-0.415L0.159,-0.064L0.173,-0.05L0.226,-0.045L0.226,-0L0.028,-0L0.028,-0.045L0.081,-0.05L0.095,-0.064L0.095,-0.423L0.081,-0.437L0.028,-0.442L0.028,-0.487L0.252,-0.487Z" style="fill:white;fill-rule:nonzero;"/>
            </g>
            <g transform="matrix(79.9632,2.42504,-2.42504,79.9632,2927.39,1780.7)">
                <path d="M0.343,-0.098L0.343,-0.261C0.277,-0.247 0.232,-0.231 0.208,-0.213C0.184,-0.196 0.172,-0.173 0.172,-0.143C0.172,-0.12 0.179,-0.102 0.192,-0.088C0.205,-0.075 0.223,-0.068 0.246,-0.068C0.259,-0.068 0.273,-0.07 0.289,-0.075C0.305,-0.08 0.323,-0.088 0.343,-0.098ZM0.343,-0.057C0.309,-0.034 0.278,-0.017 0.25,-0.007C0.223,0.004 0.196,0.009 0.171,0.009C0.132,0.009 0.101,-0.003 0.077,-0.028C0.052,-0.052 0.04,-0.083 0.04,-0.121C0.04,-0.168 0.058,-0.204 0.094,-0.229C0.13,-0.255 0.213,-0.282 0.344,-0.312L0.344,-0.342C0.344,-0.378 0.337,-0.404 0.321,-0.421C0.306,-0.438 0.282,-0.446 0.249,-0.446C0.242,-0.446 0.234,-0.445 0.227,-0.444C0.219,-0.443 0.21,-0.442 0.201,-0.44L0.201,-0.346L0.109,-0.346C0.093,-0.346 0.081,-0.349 0.074,-0.355C0.067,-0.361 0.063,-0.37 0.063,-0.383C0.063,-0.414 0.084,-0.441 0.126,-0.464C0.168,-0.487 0.22,-0.499 0.281,-0.499C0.349,-0.499 0.398,-0.486 0.426,-0.459C0.454,-0.433 0.468,-0.387 0.468,-0.322L0.468,-0.063L0.481,-0.049L0.534,-0.044L0.534,-0L0.356,-0L0.343,-0.057Z" style="fill:white;fill-rule:nonzero;"/>
            </g>
            <g transform="matrix(79.6693,-7.26639,7.26639,79.6693,3003.06,1781.38)">
                <path d="M0.029,-0.049L0.089,-0.054L0.105,-0.07L0.105,-0.603L0.089,-0.617L0.025,-0.622L0.025,-0.671L0.527,-0.671L0.527,-0.481L0.457,-0.481L0.438,-0.598L0.425,-0.614L0.237,-0.614L0.237,-0.07L0.254,-0.054L0.324,-0.049L0.324,-0L0.029,-0L0.029,-0.049Z" style="fill:white;fill-rule:nonzero;"/>
            </g>
            <g transform="matrix(79.0866,-12.0547,12.0547,79.0866,3036.63,1778.61)">
                <path d="M0.361,-0.308L0.361,-0.319C0.361,-0.36 0.353,-0.391 0.338,-0.412C0.323,-0.434 0.302,-0.445 0.274,-0.445C0.243,-0.445 0.219,-0.433 0.2,-0.408C0.182,-0.384 0.172,-0.351 0.17,-0.308L0.361,-0.308ZM0.492,-0.124L0.492,-0.05C0.458,-0.03 0.424,-0.016 0.389,-0.006C0.354,0.004 0.319,0.009 0.284,0.009C0.21,0.009 0.15,-0.014 0.105,-0.06C0.06,-0.106 0.037,-0.167 0.037,-0.242C0.037,-0.318 0.06,-0.38 0.106,-0.428C0.152,-0.476 0.212,-0.5 0.284,-0.5C0.35,-0.5 0.401,-0.48 0.438,-0.441C0.474,-0.401 0.492,-0.346 0.492,-0.274L0.492,-0.255L0.165,-0.255L0.165,-0.252C0.165,-0.195 0.179,-0.15 0.208,-0.118C0.237,-0.085 0.276,-0.069 0.326,-0.069C0.353,-0.069 0.379,-0.073 0.407,-0.083C0.434,-0.092 0.463,-0.105 0.492,-0.124Z" style="fill:white;fill-rule:nonzero;"/>
            </g>
            <g transform="matrix(78.072,-17.4573,17.4573,78.072,3074.95,1772.85)">
                <path d="M0.118,-0.045L0.176,-0.05L0.19,-0.064L0.19,-0.431L0.107,-0.431L0.092,-0.415L0.08,-0.315L0.012,-0.315L0.012,-0.487L0.491,-0.487L0.491,-0.315L0.423,-0.315L0.411,-0.415L0.396,-0.431L0.313,-0.431L0.313,-0.064L0.328,-0.05L0.385,-0.045L0.385,-0L0.118,-0L0.118,-0.045Z" style="fill:white;fill-rule:nonzero;"/>
            </g>
            <g transform="matrix(76.7555,-22.5519,22.5519,76.7555,3109.6,1765.31)">
                <path d="M0.028,-0.045L0.081,-0.05L0.095,-0.064L0.095,-0.423L0.081,-0.437L0.028,-0.442L0.028,-0.487L0.29,-0.487L0.29,-0.442L0.232,-0.437L0.218,-0.423L0.218,-0.29C0.231,-0.291 0.244,-0.292 0.255,-0.293C0.266,-0.294 0.278,-0.294 0.292,-0.294C0.306,-0.294 0.322,-0.293 0.338,-0.292C0.354,-0.291 0.37,-0.289 0.386,-0.285C0.402,-0.282 0.417,-0.277 0.432,-0.27C0.446,-0.264 0.459,-0.255 0.47,-0.244C0.481,-0.233 0.49,-0.219 0.497,-0.203C0.503,-0.187 0.507,-0.168 0.507,-0.146C0.507,-0.125 0.504,-0.108 0.499,-0.093C0.493,-0.077 0.486,-0.064 0.477,-0.054C0.467,-0.043 0.456,-0.034 0.444,-0.027C0.431,-0.02 0.418,-0.015 0.404,-0.01C0.389,-0.006 0.375,-0.004 0.36,-0.002C0.345,-0.001 0.33,-0 0.316,-0L0.028,-0L0.028,-0.045ZM0.218,-0.06C0.239,-0.056 0.258,-0.054 0.276,-0.054C0.285,-0.054 0.295,-0.055 0.306,-0.057C0.317,-0.059 0.328,-0.063 0.337,-0.069C0.347,-0.076 0.355,-0.085 0.361,-0.098C0.368,-0.111 0.371,-0.128 0.371,-0.149C0.371,-0.159 0.37,-0.17 0.366,-0.181C0.363,-0.191 0.358,-0.201 0.351,-0.21C0.344,-0.219 0.334,-0.226 0.322,-0.232C0.31,-0.237 0.295,-0.24 0.278,-0.24C0.264,-0.24 0.252,-0.24 0.242,-0.238C0.231,-0.237 0.223,-0.235 0.218,-0.234L0.218,-0.06Z" style="fill:white;fill-rule:nonzero;"/>
            </g>
            <g transform="matrix(74.6908,-28.658,28.658,74.6908,3146.44,1754.99)">
                <path d="M0.252,-0.487L0.252,-0.463L0.365,-0.15L0.478,-0.463L0.478,-0.487L0.702,-0.487L0.702,-0.442L0.649,-0.437L0.635,-0.423L0.635,-0.064L0.649,-0.05L0.702,-0.045L0.702,-0L0.45,-0L0.45,-0.045L0.503,-0.05L0.517,-0.064L0.517,-0.415L0.515,-0.415L0.364,-0L0.316,-0L0.161,-0.415L0.159,-0.415L0.159,-0.064L0.173,-0.05L0.226,-0.045L0.226,-0L0.028,-0L0.028,-0.045L0.081,-0.05L0.095,-0.064L0.095,-0.423L0.081,-0.437L0.028,-0.442L0.028,-0.487L0.252,-0.487Z" style="fill:white;fill-rule:nonzero;"/>
            </g>
            <g transform="matrix(72.1343,-34.5926,34.5926,72.1343,3196.51,1735.7)">
                <path d="M0.343,-0.098L0.343,-0.261C0.277,-0.247 0.232,-0.231 0.208,-0.213C0.184,-0.196 0.172,-0.173 0.172,-0.143C0.172,-0.12 0.179,-0.102 0.192,-0.088C0.205,-0.075 0.223,-0.068 0.246,-0.068C0.259,-0.068 0.273,-0.07 0.289,-0.075C0.305,-0.08 0.323,-0.088 0.343,-0.098ZM0.343,-0.057C0.309,-0.034 0.278,-0.017 0.25,-0.007C0.223,0.004 0.196,0.009 0.171,0.009C0.132,0.009 0.101,-0.003 0.077,-0.028C0.052,-0.052 0.04,-0.083 0.04,-0.121C0.04,-0.168 0.058,-0.204 0.094,-0.229C0.13,-0.255 0.213,-0.282 0.344,-0.312L0.344,-0.342C0.344,-0.378 0.337,-0.404 0.321,-0.421C0.306,-0.438 0.282,-0.446 0.249,-0.446C0.242,-0.446 0.234,-0.445 0.227,-0.444C0.219,-0.443 0.21,-0.442 0.201,-0.44L0.201,-0.346L0.109,-0.346C0.093,-0.346 0.081,-0.349 0.074,-0.355C0.067,-0.361 0.063,-0.37 0.063,-0.383C0.063,-0.414 0.084,-0.441 0.126,-0.464C0.168,-0.487 0.22,-0.499 0.281,-0.499C0.349,-0.499 0.398,-0.486 0.426,-0.459C0.454,-0.433 0.468,-0.387 0.468,-0.322L0.468,-0.063L0.481,-0.049L0.534,-0.044L0.534,-0L0.356,-0L0.343,-0.057Z" style="fill:white;fill-rule:nonzero;"/>
            </g>
            <g transform="matrix(69.6028,-39.4393,39.4393,69.6028,3231.6,1719.22)">
                <path d="M0.028,-0.045L0.081,-0.05L0.095,-0.064L0.095,-0.423L0.081,-0.437L0.028,-0.442L0.028,-0.487L0.283,-0.487L0.283,-0.442L0.232,-0.437L0.218,-0.423L0.218,-0.282L0.408,-0.282L0.408,-0.423L0.394,-0.437L0.343,-0.442L0.343,-0.487L0.598,-0.487L0.598,-0.442L0.545,-0.437L0.531,-0.423L0.531,-0.064L0.545,-0.05L0.598,-0.045L0.598,-0L0.343,-0L0.343,-0.045L0.394,-0.05L0.408,-0.064L0.408,-0.226L0.218,-0.226L0.218,-0.064L0.232,-0.05L0.283,-0.045L0.283,-0L0.028,-0L0.028,-0.045Z" style="fill:white;fill-rule:nonzero;"/>
            </g>
            <g transform="matrix(66.5455,-44.4038,44.4038,66.5455,3271.04,1697)">
                <path d="M0.343,-0.098L0.343,-0.261C0.277,-0.247 0.232,-0.231 0.208,-0.213C0.184,-0.196 0.172,-0.173 0.172,-0.143C0.172,-0.12 0.179,-0.102 0.192,-0.088C0.205,-0.075 0.223,-0.068 0.246,-0.068C0.259,-0.068 0.273,-0.07 0.289,-0.075C0.305,-0.08 0.323,-0.088 0.343,-0.098ZM0.343,-0.057C0.309,-0.034 0.278,-0.017 0.25,-0.007C0.223,0.004 0.196,0.009 0.171,0.009C0.132,0.009 0.101,-0.003 0.077,-0.028C0.052,-0.052 0.04,-0.083 0.04,-0.121C0.04,-0.168 0.058,-0.204 0.094,-0.229C0.13,-0.255 0.213,-0.282 0.344,-0.312L0.344,-0.342C0.344,-0.378 0.337,-0.404 0.321,-0.421C0.306,-0.438 0.282,-0.446 0.249,-0.446C0.242,-0.446 0.234,-0.445 0.227,-0.444C0.219,-0.443 0.21,-0.442 0.201,-0.44L0.201,-0.346L0.109,-0.346C0.093,-0.346 0.081,-0.349 0.074,-0.355C0.067,-0.361 0.063,-0.37 0.063,-0.383C0.063,-0.414 0.084,-0.441 0.126,-0.464C0.168,-0.487 0.22,-0.499 0.281,-0.499C0.349,-0.499 0.398,-0.486 0.426,-0.459C0.454,-0.433 0.468,-0.387 0.468,-0.322L0.468,-0.063L0.481,-0.049L0.534,-0.044L0.534,-0L0.356,-0L0.343,-0.057Z" style="fill:white;fill-rule:nonzero;"/>
            </g>
        </g>
    </g>
</svg>
