<svg clip-rule="evenodd" fill-rule="evenodd" stroke-linejoin="round" stroke-miterlimit="2" viewBox="0 0 1712 2048" xmlns="http://www.w3.org/2000/svg"><path d="m91.25 660.92c0 6.08-.48 12.09.15 18 .53 4.9-1.83 7.51-5.05 10.32-15.35 13.37-31.1 26.34-45.66 40.52-8.54 8.32-16.27 18-19.28 30.12-.929 3.452-1.297 7.031-1.09 10.6 1 12.21 10.84 15.17 20.21 18 20.16 6.08 41 5.53 61.62 4.65 29.66-1.26 58.64-7.54 87.5-14.24 49.4-11.48 97.77-26.5 145.51-43.45 30-10.667 59.667-22.197 89-34.59 32.72-13.85 65-28.69 97.15-43.9 26.17-12.41 52.2-25.27 77.53-39.29 27-15 53.65-30.68 79.44-47.6 29.21-19.16 57.73-39.46 85.72-60.38 17-12.67 33.29-26.6 44.36-45.17 3.55-6 6.68-12.86 7.47-19.63 2-16.93-5.62-25-22-29.43-12.78-3.44-25.93-2.84-39-1.39-7.62.85-15.23 1.83-23.11 2.78v-20.34c7-1 13.94-2.58 20.9-2.72 16.51-.32 33.15-1.29 49.28 3.74 11.5 3.58 22.79 7.86 29.36 18.82 2.648 4.35 4.352 9.209 5 14.26 2.46 22.47-3.62 42.73-16 61.62-11.73 18-26 33.7-41.78 47.86s-32.62 26.83-49.18 39.94c-1.992 1.385-3.099 3.733-2.9 6.15.08 17.66.63 35.35-.12 53-.82 19.13-2.66 38.22-4.45 57.3-3.06 32.63-11.25 64.13-22.26 94.91-12 33.5-28.55 64.62-50.56 92.6-9.253 11.92-19.295 23.205-30.06 33.78-18.995 18.427-40.368 34.234-63.55 47-23.39 12.93-48 22.85-73.93 28.64-16.34 3.63-33.15 5.4-49.84 7-12.242 1.08-24.538 1.41-36.82 1-29.2-.67-57.43-6.32-85.08-16-32.64-11.4-62.73-27.13-89.32-49.16-13.9-11.51-28-23.09-39.94-36.54-12.06-13.63-21.76-29.41-32-44.6-5.88-8.75-10.65-18.24-16.15-27.26-1.041-1.539-2.682-2.574-4.52-2.85-13.07-.82-26.23-.59-39.2-2.11-24.09-2.82-47.57-7.94-69.08-20.23-20.63-11.78-23.11-28.69-15.8-49.8 4.6-13.28 12.86-24.62 22.39-34.82s19.2-20.26 29.6-29.51c10.72-9.53 22.38-18 33.65-26.91.59-.327 1.228-.559 1.89-.69zm582.84-40.14c-12.41 7.59-23.69 13.83-34.22 21.13-7.17 5-17.63 6.08-19.86 15.84h-9.45l-.12 1.37 8 4c-8.59 22.41-20.61 42.27-37.91 60.24-1.73-16.59-3.3-31.76-4.88-46.93h-2.16c-.37 1.58-1.09 3.17-1 4.74.14 4.61.46 9.23.94 13.82.83 8 2.13 16 2.64 24 .22 3.49.22 8.28-1.83 10.41-14.48 15-31.74 26.26-50.72 34.93-22.862 10.522-47.713 16.029-72.88 16.15-9.25.06-18.5-1.15-27.75-1.74-5.62-.35-9.88-2.46-12.62-7.79-2.41-4.69-5.63-8.94-8.41-13.44-1.67-2.71-3.27-2.87-5.27-.28l11.71 17.75c-2.26 0-3.86.39-5.16-.06-7.77-2.68-15.41-5.72-23.21-8.25-2.79-.91-6.25-1.75-8.86-.91-17.38 5.6-34.51 11.94-51.91 17.47-17.24 5.48-34.67 10.34-52.06 15.36-10 2.89-20.06 5.55-30.18 8.33.003.939.127 1.873.37 2.78 6 13.35 11.22 27.18 18.4 39.9 11.63 20.61 27.43 37.91 45.84 52.95 23.49 19.18 48.7 35.2 77.73 44.47 12.67 4 25.49 8.31 38.56 10.25s26.29 1.2 39.46 1.3c15.62.1 30.86-2.84 45.71-7.38 34.57-10.57 63.24-30.08 87.08-57.24 13.369-15.343 25.009-32.111 34.71-50 15.64-28.52 26.62-58.93 34.39-90.42 6.35-25.74 11.1-51.84 12.34-78.44.76-17.65 1.66-35.4 2.58-54.31zm-247.05 164.53h39.2c0 6.13.24 11.66-.07 17.15-.36 6.57-1.38 13.11-1.79 19.68-.78 12.54-1.23 25.09-2 37.63-.3 4.73-1.19 9.43-1.82 14.15-.7 5.22-3.57 8.63-8.82 9.25-8 1-13.34-1.57-15.61-7.57-1.316-3.536-2.134-7.238-2.43-11-.88-10.7-1.12-21.45-2.09-32.14-1.28-14.26-3-28.48-4.51-42.72-.101-1.474-.121-2.953-.06-4.43zm-404.01-530.49v-29h254v30.84c-6.76 2-13.84 3.5-20.54 6.07-16.54 6.34-27.07 18.55-29.83 35.92-2.446 14.992-3.733 30.15-3.85 45.34-.31 108-.13 216-.19 323.94 0 15.29-1 30.59-.67 45.87.24 13 1.65 26.07 2.51 39.11.1 1.49 0 3 0 5.63-25 6.12-50.1 12.52-75.33 18.3-9.92 2.27-20.16 3.12-30.25 4.68-3.83.59-5.48-.74-7-4.64-7.675-19.285-12.291-39.651-13.68-60.36-1.14-18.867-1.76-37.767-1.86-56.7-.24-51.83 0-103.65-.12-155.48-.13-43.6-.68-87.21-.83-130.82 0-14.94 1-29.9.73-44.84-.09-9.401-1.044-18.774-2.85-28-4.85-23.73-20.27-37-43.63-41.56-8.66-1.68-17.45-2.83-26.61-4.3zm346.16 460.21c-14.07 5.57-27.19 10.89-40.45 15.84-2.104.491-4.322-.019-6-1.38-11.745-11.185-21.756-24.06-29.7-38.2-5.55-10.07-10.33-20.58-15-31.1-1.16-2.6-1.65-6.43-.61-8.92 5.78-13.85 12.12-27.47 18.31-41.14.774-1.472 1.621-2.904 2.54-4.29zm-28.44-178.66 101.48 46.25 5.06 15.26c-15.86 30.73-32.61 63.21-49.38 95.67-.6 1.17-1.79 2.14-2.08 3.35-2.71 11-12.82 12.09-21 15.56-.87.36-3.27-1.41-4.14-2.74-13.45-20.57-26.75-41.24-40.13-61.86-9.25-14.26-18.5-28.51-27.93-42.65-2.06-3.08-2.35-5.7-.82-9.07 7.75-17.14 15.28-34.38 23.06-51.5.5-1.1 2.4-2.09 3.73-2.21 6.4-.58 8.19-1.31 12.15-6.06zm208.42 96.6-150.13 70.47-1.24-1.57c2.32-4.23 4.72-8.42 6.94-12.71 14.913-28.827 29.79-57.68 44.63-86.56 1.32-2.58 2.48-4.36 5.81-4.14 1.86.13 4.32-.34 5.58-1.53 4.5-4.24 8.33-2.1 12.88 0 24.94 11.55 50 22.81 75 34.17zm-276.89-67.35c7.34 11.32 14.73 22.6 21.92 34 .68 1.08.47 3.22-.11 4.52-6.25 14-12.65 28-19.63 42-7.447-26.05-8.72-53.482-3.72-80.11zm225.83-56.95c8.76 1.56 13-1.34 15.56-9.93.38-1.3 2.33-2.73 3.77-3 11.7-2.46 23.45-4.68 35.88-7.1.69 4.64 1.58 9.25 2 13.91 1.4 14.42 2.55 28.86 3.94 43.27 1.74 18 3.65 36.06 5.45 54.09.68 6.74 1.4 13.47 1.75 20.23-.133 1.666-.938 3.209-2.23 4.27-6.18 5-12.23 4-19.27.7-23.84-11.35-48-22-72-32.9-3-1.35-5.85-2.3-5.78-6.85 0-2.73-2.24-5.49-3.93-9.26 11.19-21.77 23.05-44.66 34.86-67.43zm72.74 112.47c-.41-2.28-.87-4.12-1.06-6-1.2-12.16-2.39-24.32-3.5-36.48-.74-8.07-1.22-16.15-2-24.21-1.14-11.63-2.5-23.23-3.68-34.85-1-10-2-20-2.65-30-.06-.91 1.89-2.58 3.13-2.84 7.72-1.65 15.48-3.13 23.29-4.33 1.729-.097 3.415.578 4.6 1.84 16.82 20.85 29 44.18 35.51 70.16 2.56 10.16 3.42 20.75 5.15 31.13.63 3.82-1.26 5.45-4.47 7.1-17.94 9.24-35.73 18.71-54.32 28.48zm-343.15-11.39c0-7.09-.07-14 .07-21 .073-1.242.679-2.395 1.66-3.16 12.37-7.21 24.82-14.28 38-21.8-.81 8.41-1.46 15.89-2.32 23.34-.209 1.289-.931 2.44-2 3.19-11.14 6.48-22.35 12.8-33.56 19.14-.598.19-1.222.288-1.85.29zm69.53-13.58c-8.22-12.44-16.2-23.76-23.19-35.68-1.58-2.7.38-7.43.59-11.23.28-4.87 3.1-6.32 7.62-7.1 10.32-1.76 20.5-4.28 30.77-6.35 3.06-.62 6.65-1.07 7.91 2.72.517 2.178.288 4.468-.65 6.5-6.14 14.22-12.49 28.34-18.82 42.48-1.2 2.69-2.58 5.3-4.23 8.66zm44.39-65.73c16.72-3.28 33.437-6.56 50.15-9.84 17.9-3.54 35.793-7.087 53.68-10.64 13.66-2.73 27.39-5.14 40.91-8.45 4.23-1 5.51 1.24 6.75 3.52.75 1.38.28 4-.54 5.58-6.49 12.68-13.21 25.24-19.83 37.85-4.07 7.76-8 15.63-12.24 23.27-.82 1.47-3.06 2.33-4.83 3s-4.13.06-5.18 1.1c-4.55 4.48-8.51 2.24-13.18.08-26.54-12.24-53.23-24.18-79.84-36.28-5.46-2.48-10.79-5.22-16.19-7.84.16-.47.23-.92.34-1.35zm448.37-272.31c-8.29 1.8-17 2.55-24.88 5.65-17 6.73-30.67 17.54-35.91 36.22-1.037 3.449-1.616 7.02-1.72 10.62-.15 23.16 0 46.33-.09 69.49-.25 47.27-.66 94.55-.89 141.82 0 3.26-1.17 4.9-3.94 6.63-14.85 9.25-29.49 18.83-44.21 28.29l-5.03 3.24v-243.94c0-30.42-21-50.43-48.85-55.24-5.8-1-11.71-1.35-17.73-2v-33.1h183.25zm-511.96 279.83c3.84-8.44 7.48-16.45 11.3-24.87l29.11 12.84c.11 3.56-1 5.15-5 5.8-10.62 1.76-21.11 4.29-31.67 6.45-1.251.059-2.505-.015-3.74-.22zm252.41-100.68c-8 15.44-15.67 30.59-23.65 45.61-.69 1.3-3 2.33-4.65 2.45-6.66.45-9.89 3-11.71 9.22-.511 1.415-1.643 2.522-3.07 3-31.7 6.36-63.42 12.627-95.16 18.8-15.76 3.1-31.52 6.22-47.3 9.2-1.36.26-4.07-.21-4.16-.71-.57-3.08-5.58-3.95-3.46-8.49 8.79-18.84 17.25-37.84 25.82-56.79 3.26-7.21 6.27-14.56 9.91-21.57 1.393-2.691 3.617-4.862 6.34-6.19 26.66-11.21 54.62-15.18 83.35-13.43 21.26 1.394 42.061 6.824 61.29 16 2.05.89 4.11 1.83 6.45 2.9zm-238.89 72.02c18.34-31.64 43.58-55.5 76.9-72.34-4.83 10.91-9.25 20.91-13.7 30.91-7 15.82-14.07 31.66-21.28 47.41-.63 1.37-2.59 2.21-4.06 3.07-.65.37-1.94-.16-2.4.28-5.85 5.5-11.43 2.26-17-.4-5.99-2.86-11.94-5.79-18.46-8.93zm242.83-70.14c4.66 2.86 9.06 5.4 13.26 8.26 1.353.911 2.306 2.308 2.66 3.9 1.21 10.8 2.15 21.63 3.21 32.82-12.93 2.7-25.7 5.43-38.49 8-2.75.54-5.93-4.29-4.57-6.93 6.68-12.94 13.49-25.82 20.24-38.73 1.14-2.21 2.22-4.42 3.69-7.32zm23.06 44.04c-1-10.1-2-20-3-29.8 11.07 6.92 20.63 14.62 29.15 25.07zm108.62-72.89v20.71c-13.06 4-26.28 7.82-39.4 12-14.75 4.68-29.53 9.3-44 14.63-6.51 2.39-11.73 2.35-17-2.32-3.19-2.8-7-4.92-10.9-7.63 36.34-14.51 73.03-27.61 111.3-37.39zm-261.84-146.96h85.22c-.26 4.77-.43 9.34-.77 13.9-1.15 15.48-2.42 31-3.51 46.45-.76 10.71-1.2 21.45-2 32.16-1.14 15.29-2.54 30.55-3.72 45.84-.25 3.29 0 6.61 0 10.64-20.866-3.474-42.195-3.085-62.92 1.15-4.14-50.05-8.19-99.74-12.3-150.14zm-70.21-94.91h224v31.23c-3.38 0-5.53.19-7.64 0-7.89-.84-13 2.75-17.08 9.3-6.42 10.19-13.43 20-20.4 29.84-3.68 5.2-8.26 8.14-15.41 8.06-34-.39-68-.33-101.94 0-7.2.06-11.74-2.87-15.62-8.43-8.11-11.64-16.22-23.31-25-34.47-2.13-2.7-6.64-3.77-10.26-5-2.1-.69-4.63-.22-6.95-.11-2.76.13-3.84-1-3.8-3.81.18-8.71.1-17.37.1-26.61zm139.48-135c7.9 17-3.26 28.63-9.34 42.09 6.84.5 13.06-.87 17.89-4.67 10.22-8 20.49-16.22 29.53-25.52 17.48-18 36-34.19 59.72-43.38 4-1.53 8.39-1.78 13-1.94-17 16.11-21.61 37.14-26 58.42-2.89 14-5.82 28-10.28 41.51-5.74 17.36-18.06 29.92-34.11 38.27-8.86 4.6-18.52 7.68-27.89 11.26-1.75.67-3.85.45-6.85.74 3-5.54 5.73-10.14 8-15 4.088-8.346 5.429-17.776 3.83-26.93-.57-3.18-1.63-4.16-4.59-2.77-.44.21-1.07.12-1.42.4-13 10.29-29.2 8.93-44.14 12.11-10.73 2.29-22 3.79-28 14.63-2.61 4.7-4.07 10.08-5.75 15.24-1.23 3.77-2.77 5-7.15 4-19.84-4.68-37-24.18-39.57-44.91-2.22-17.88 5.36-30.64 20-39.61 15-9.16 31.47-13.85 48.92-16 12.25-1.53 24.24-4.87 35.11-11.1 3.12-1.84 5.85-4.4 9.09-6.84z" fill-rule="nonzero" transform="matrix(2.04483 0 0 2.04483 .038 -.040897)"/></svg>