<svg fill="none" height="1" viewBox="0 0 1 1" width="1" xmlns="http://www.w3.org/2000/svg" xmlns:xlink="http://www.w3.org/1999/xlink"><clipPath id="a"><path d="m0 0h1v1h-1z"/></clipPath><g clip-path="url(#a)"><path d="m.173158.659877c0 .006071-.000479.012071.00015.017972.000529.004893-.001827.007499-.005042.010304-.015326.013349-.031052.026299-.045589.040457-.008527.008308-.016245.017973-.019251.030074-.000927.003447-.001295.00702-.001088.010583.000999.012192.010823.015147.020179.017973.020129.00607.040936.005521.061524.004642.029615-.001258.05855-.007528.087365-.014218.049324-.011462.097619-.026459.145285-.043382.029953-.010651.059574-.022163.088862-.034537.032669-.013828.064899-.028645.097-.043832.026129-.012391.052119-.025231.07741-.039229.026958-.014977.053567-.030633.079317-.047526.029165-.019131.05764-.039399.085587-.060287.016974-.01265.033238-.026559.044291-.0451.003545-.005991.00667-.01284.007459-.0196.001997-.016903-.005612-.024961-.021966-.029384-.01276-.003435-.02589-.002836-.03894-.001388-.007608.000849-.015206.001827-.023074.002776v-.020309c.006989-.000998.013918-.002576.020868-.002715.016484-.00032.033098-.001288.049203.003734.011483.003574.022755.007848.029315.018791.002644.004343.004345.009194.004992.014238.002456.022435-.003614.042663-.015975.061524-.011712.017972-.02596.033648-.041715.047786-.015756.014138-.03257.026789-.049104.039878-.001989.001383-.003094.003727-.002896.006141.00008.017632.000629.035295-.00012.052918-.000818.0191-.002655.038161-.004443.057211-.003055.032579-.011232.064031-.022225.094763-.011982.033448-.028506.06452-.050482.092457-.009239.011901-.019265.023169-.030013.033728-.018966.018398-.040306.034181-.063452.046927-.023354.01291-.047926.022814-.073816.028595-.016314.003625-.033098.005392-.049763.00699-.012223.001078-.0245.001408-.036763.000998-.029154-.000669-.057341-.00631-.084948-.015975-.032589-.011383-.062633-.027088-.089182-.049084-.013878-.011492-.027956-.023054-.039878-.036484-.012041-.013608-.021726-.029364-.03195-.044531-.005871-.008736-.010634-.018211-.016125-.027217-.00104-.001537-.002678-.00257-.004513-.002846-.01305-.000819-.02619-.000589-.03914-.002107-.024052-.002815-.047496-.007927-.068973-.020198-.0205978-.011762-.0230739-.028646-.0157752-.049723.0045928-.01326.0128401-.024582.0223552-.034766.009515-.010185.01917-.020229.029554-.029465.010704-.009515.022346-.017972.033598-.026868.000589-.000327.001226-.000558.001887-.000689zm.581938-.040078c-.012391.007578-.023653.013809-.034167.021097-.007159.004993-.017603.006071-.019829.015816h-.009436l-.000119.001368.007987.003994c-.008576.022375-.020578.042204-.037851.060146-.001727-.016564-.003295-.03171-.004872-.046857h-.002157c-.00037.001578-.001088.003165-.000999.004733.00014.004603.00046.009215.000939.013798.000829.007988.002127.015976.002636.023963.00022.003485.00022.008267-.001827.010394-.014458.014977-.031691.026219-.050642.034876-.022826.010506-.047639.016004-.072767.016125-.009236.00006-.018471-.001148-.027707-.001737-.005611-.00035-.009865-.002457-.0126-.007778-.002407-.004683-.005622-.008926-.008397-.013419-.001668-.002706-.003265-.002866-.005262-.00028l.011692.017722c-.002257 0-.003854.00039-.005152-.000059-.007758-.002676-.015387-.005712-.023175-.008238-.002785-.000908-.00624-.001747-.008846-.000908-.017353.005591-.034456.011921-.051829.017443-.017214.005471-.034617.010324-.05198.015336-.009984.002885-.020029.005541-.030133.008317.000003.000938.000127.00187.000369.002776.005991.013329.011203.027138.018372.039838.011612.020578.027387.037851.045769.052868.023453.01915.048624.035146.07761.044401.01265.003994.02545.008297.0385.010234s.026249.001198.039399.001298c.015596.0001.030812-.002835.045639-.007368.034516-.010554.063142-.030034.086945-.057152.013349-.015319.024971-.032061.034657-.049922.015615-.028476.026578-.058839.034336-.09028.00634-.0257.011083-.05176.012321-.078319.000759-.017623.001658-.035345.002576-.054226zm-.246667.164275h.039139c0 .006121.00024.011642-.00007.017124-.000359.00656-.001378.01309-.001787.01965-.000779.01252-.001228.025051-.001997.037571-.0003.004723-.001188.009416-.001817.014128-.000699.005212-.003565.008617-.008807.009236-.007987.000998-.013319-.001568-.015586-.007558-.001313-.003531-.00213-.007227-.002426-.010983-.000878-.010684-.001118-.021417-.002087-.03209-.001278-.014238-.002995-.028436-.004503-.042654-.0001-.001472-.00012-.002949-.000059-.004424zm-.403385-.529668v-.028955h.253607v.030792c-.00675.001997-.013819.003494-.020508.00606-.016515.006331-.027029.018522-.029784.035865-.002443.014969-.003728.030103-.003844.04527-.00031.107832-.00013.215665-.00019.323438 0 .015267-.000999.030543-.000669.045799.00024.01298.001647.02603.002506.03905.0001.001487 0 .002995 0 .005621-.024961.00611-.050022.012501-.075213.018272-.009905.002266-.020129.003115-.030203.004672-.003825.000589-.005472-.000738-.00699-.004632-.007663-.019256-.012272-.03959-.013658-.060267-.001139-.018838-.001758-.037709-.001858-.056612-.000239-.05175 0-.10349-.000119-.15524-.00013-.043532-.000679-.087075-.000829-.130617 0-.014917.000998-.029854.000729-.044771-.00009-.009386-.001043-.018745-.002846-.027956-.004842-.023694-.020238-.036943-.043562-.041496-.008647-.001677-.017423-.002826-.026569-.004293zm.345624.459497c-.014048.005562-.027148.010873-.040387.015816-.002101.00049-.004316-.000019-.005991-.001378-.011727-.011168-.021722-.024023-.029654-.038141-.005541-.010054-.010314-.020548-.014977-.031052-.001158-.002596-.001647-.00642-.000609-.008906.005771-.013829.012101-.027428.018282-.041076.000773-.00147.001618-.0029.002536-.004284zm-.028396-.178383.101323.046178.005052.015237c-.015835.030682-.032559.063112-.049303.095522-.000599.001168-.001788.002136-.002077.003344-.002706.010983-.0128.012072-.020968.015536-.000868.00036-.003265-.001408-.004133-.002736-.013429-.020538-.026709-.041176-.040068-.061764-.009236-.014238-.018471-.028466-.027887-.042584-.002057-.003075-.002346-.005691-.000819-.009056.007738-.017113.015257-.034326.023025-.05142.000499-.001098.002396-.002087.003724-.002207.00639-.000579.008177-.001308.012131-.00605zm.208098.09645-.149898.070361-.001238-.001567c.002316-.004224.004712-.008407.006929-.012691.01489-.028782.029744-.05759.044561-.086426.001318-.002576.002476-.004353.005801-.004133.001857.00013.004313-.00034.005571-.001528.004493-.004233.008317-.002097.01286 0 .024902.011532.049923.022775.074884.034117zm-.276462-.067245c.007329.011302.014707.022565.021886.033947.000679.001078.000469.003215-.00011.004513-.00624.013978-.01263.027957-.019599.041935-.007436-.02601-.008707-.053399-.003715-.079986zm.225481-.056862c.008746.001557.012979-.001338.015535-.009915.00038-.001298.002327-.002726.003765-.002995.011682-.002456.023413-.004673.035824-.007089.000689.004633.001578.009235.001997.013888.001398.014398.002546.028815.003934.043203.001737.017972.003644.036004.005441.054006.000679.00673.001398.01345.001748.020199-.000133.001664-.000937.003204-.002227.004264-.00617.004992-.012211.003993-.01924.000698-.023803-.011332-.047926-.021965-.071889-.032849-.002995-.001348-.00584-.002296-.005771-.006839 0-.002726-.002236-.005482-.003923-.009246.011172-.021736.023014-.044591.034806-.067325zm.072627.112296c-.000409-.002277-.000869-.004114-.001058-.005991-.001199-.012141-.002387-.024282-.003495-.036424-.000739-.008057-.001218-.016125-.001997-.024172-.001138-.011612-.002496-.023194-.003674-.034796-.000999-.009985-.001997-.019969-.002646-.029954-.00006-.000908.001887-.002576.003125-.002835.007708-.001648.015456-.003126.023254-.004324.001726-.000097.00341.000577.004593.001837.016794.020818.028955.044112.035455.070052.002556.010144.003415.020718.005142.031082.000629.003814-.001258.005441-.004463.007089-.017912.009225-.035675.018681-.054236.028436zm-.342619-.011373c0-.007079-.00007-.013978.00007-.020967.000073-.00124.000678-.002392.001657-.003155.012351-.007199.024782-.014258.037942-.021767-.000809.008397-.001458.015866-.002317.023304-.000208.001287-.000929.002436-.001997.003185-.011122.00647-.022315.012781-.033508.019111-.000597.000189-.00122.000287-.001847.000289zm.069422-.013559c-.008207-.012421-.016174-.023723-.023154-.035625-.001577-.002695.00038-.007418.000589-.011212.00028-.004863.003096-.00631.007609-.007089.010304-.001757.020468-.004274.030722-.00634.003055-.000619.00664-.001069.007898.002715.000516.002175.000287.004462-.000649.00649-.006131.014198-.012471.028297-.018791.042415-.001198.002686-.002576.005291-.004224.008646zm.044322-.065628c.016694-.003275.033385-.00655.050072-.009825.017872-.003534.035738-.007076.053597-.010623.013639-.002726.027348-.005132.040847-.008437.004223-.000999.005501.001238.006739.003514.000749.001378.00028.003994-.000539.005572-.00648.01266-.013189.025201-.019799.037791-.004064.007748-.007988.015606-.012221.023234-.000819.001468-.003055.002326-.004823.002995-.001767.000669-.004123.00006-.005172.001099-.004543.004473-.008497.002236-.013159.00008-.026499-.012221-.053148-.024143-.079717-.036224-.005451-.002476-.010773-.005212-.016165-.007828.00016-.000469.00023-.000919.00034-.001348zm.447676-.271888c-.008277.001797-.016974.002546-.024842.005641-.016973.006719-.030622.017513-.035854.036164-.001036.003443-.001614.007009-.001717.010603-.00015.023124 0 .046259-.00009.069383-.00025.047197-.000659.094403-.000889.1416 0 .003255-.001168.004893-.003934.00662-.014827.009236-.029444.018801-.044141.028246l-.005023.003235v-.243562c0-.030373-.020967-.050352-.048774-.055155-.005791-.000998-.011692-.001348-.017703-.001997v-.033048h.182967zm-.511168.279396c.003834-.008427.007469-.016424.011283-.024831l.029065.01282c.000109.003554-.000999.005142-.004993.005791-.010603.001757-.021077.004283-.031621.00644-.001249.000059-.002501-.000015-.003734-.00022zm.25202-.100524c-.007988.015416-.015646.030543-.023614.04554-.000689.001298-.002995.002326-.004643.002446-.006649.000449-.009874.002995-.011692.009206-.00051.001412-.00164.002518-.003065.002995-.031651.00635-.063322.012607-.095013.018771-.015735.003095-.031471.00621-.047226.009186-.001358.000259-.004064-.00021-.004154-.000709-.000569-.003076-.005571-.003944-.003455-.008477.008777-.018811.017224-.037782.025781-.056702.003254-.007199.00626-.014538.009894-.021537.001391-.002687.003612-.004854.00633-.00618.026619-.011193.054536-.015157.083221-.01341.021227.001392.041996.006814.061195.015976.002047.000888.004104.001827.006441.002895zm-.238521.071909c.018312-.031591.043513-.055414.076781-.072228-.004822.010893-.009235.020877-.013679.030862-.006989.015795-.014048.031611-.021247.047336-.000629.001368-.002586.002207-.004053.003066-.000649.000369-.001937-.00016-.002397.000279-.005841.005492-.011412.002257-.016973-.000399-.005981-.002856-.011922-.005781-.018432-.008916zm.242454-.070032c.004653.002856.009046.005392.01324.008248.001351.000909.002302.002304.002656.003893.001208.010784.002146.021597.003205.03277-.01291.002696-.02566.005421-.038431.007987-.002745.000539-.00592-.004283-.004563-.006919.00667-.01292.01347-.02578.020209-.03867.001138-.002207.002217-.004413.003684-.007309zm.023025.043972c-.000999-.010084-.001997-.019969-.002996-.029754.011053.00691.020598.014598.029105.025031zm.108452-.072777v.020678c-.01304.003994-.02624.007808-.039339.011981-.014728.004673-.029485.009286-.043932.014608-.0065.002386-.011712.002346-.016974-.002317-.003185-.002795-.006989-.004912-.010883-.007618.036284-.014487.072917-.027567.111128-.037332zm-.261435-.146733h.085088c-.00026.004763-.000429.009326-.000769.013879-.001148.015456-.002416.030952-.003504.046378-.000759.010693-.001199.021417-.001997.03211-.001139.015267-.002536.030503-.003715.045769-.000249.003285 0 .0066 0 .010624-.020833-.003469-.042129-.00308-.062822.001148-.004134-.049973-.008177-.099586-.012281-.149908zm-.070101-.094763h.223653v.031182c-.003375 0-.005522.00019-.007628 0-.007878-.000839-.01298.002746-.017054.009286-.00641.010174-.013409.019969-.020368.029793-.003675.005192-.008248.008128-.015386.008048-.033948-.000389-.067895-.00033-.101783 0-.007189.00006-.011722-.002866-.015595-.008417-.008098-.011622-.016195-.023274-.024962-.034417-.002127-.002695-.00663-.003764-.010244-.004992-.002097-.000689-.004623-.00022-.006939-.00011-.002756.00013-.003834-.000998-.003794-.003804.000179-.008696.0001-.017343.0001-.026569zm.139264-.1347907c.007887.0169737-.003255.0285857-.009326.0420248.00683.0004993.01304-.0008686.017862-.0046627.010205-.0079877.020459-.0161949.029485-.0254805.017453-.0179722.035944-.0341371.059627-.0433129.003994-.00152763.008377-.00177725.01298-.001937-.016974.0160851-.021576.0370825-.02596.0583296-.002885.0139783-.005811.0279566-.010264.0414457-.005731.0173327-.018032.0298737-.034057.0382107-.008846.004593-.018491.007668-.027847.011243-.001747.000669-.003844.000449-.006839.000739.002995-.005532.005721-.010125.007988-.014977.004081-.008333.00542-.017749.003824-.026889-.00057-.003175-.001628-.004153-.004583-.002765-.00044.000209-.001069.00012-.001418.000399-.01298.010274-.029155.008916-.044072.012091-.010713.002287-.021966.003784-.027956.014608-.002606.004692-.004064.010064-.005742.015216-.001228.003764-.002765.004992-.007138.003994-.01981-.004673-.036943-.024143-.039509-.044841-.002217-.0178519.005351-.0305921.019969-.0395483.014977-.0091458.031421-.0138285.048844-.0159752.012231-.0015276.024203-.0048625.035056-.0110828.003115-.0018372.005841-.0043932.009076-.0068294z" fill="#fff"/></g></svg>