<svg clip-rule="evenodd" fill-rule="evenodd" stroke-linejoin="round" stroke-miterlimit="2" viewBox="0 0 1024 872" xmlns="http://www.w3.org/2000/svg"><path d="m457.993 4947.57h111.215v123.77c0 9.89-.963 13.32-10.056 17.11l-45.552 18.64-45.551-18.64c-9.094-3.79-10.056-7.22-10.056-17.11zm12.757 21.59v99.73c.239.02.447.04.655.04 7.505.06 15.01.1 22.514.19.268 0 .713.36.77.62 1.232 5.5 3.368 10.67 7.132 14.98 2.691 3.08 5.964 5.69 8.935 8.55 1.028.99 1.928 2.1 2.899 3.17.393-.5.804-1.08 1.264-1.62.463-.54.903-1.13 1.479-1.54 5.331-3.78 9.752-8.35 12.613-14.11 1.575-3.17 2.635-6.58 4.04-10.17h23.499v-99.77c-.269.14-.466.2-.614.32-3.897 3.09-8.123 5.88-11.604 9.36-5.468 5.46-8.844 12.22-10.081 19.7-1.388 8.39-2.24 16.87-3.321 25.3-.303 2.37-.593 4.74-.907 7.25.87 0 1.679-.05 2.48.01 2.971.19 5.904 2.94 6.109 5.69.398 5.35-3.977 9.15-10.356 8.66-1.806-3.87-3.847-7.83-5.533-11.92-4.029-9.79-6.202-19.91-5.486-30.52.513-7.6.996-15.21 1.382-22.82.257-5.07 1.07-10.24-1.122-15.12-.979-2.18-2.34-4.2-3.889-6.93-1.549 2.67-2.908 4.62-3.867 6.74-2.279 5.04-1.427 10.37-1.165 15.61.458 9.15 1.325 18.28 1.43 27.43.132 11.52-3.559 22.25-8.671 32.55-2.491 5.02-2.544 5-6.412 4.37-3.428-.56-5.895-2.78-6.343-5.72-.492-3.22.929-6.14 3.884-7.36 1.406-.58 3.025-.68 4.625-1.01 0 .03.014-.1-.002-.24-.992-7.95-2.267-15.87-2.917-23.85-1.122-13.78-6.391-25.39-17.959-33.99-1.686-1.26-3.525-2.32-5.461-3.58zm31.159 99.91h8.044v14.31c-2.096-.68-8.017-11.22-8.044-14.31zm-24.145-86.1c1.957 3.07 3.696 5.48 5.089 8.06 4.392 8.13 3.979 17.21 5.36 25.94.377 2.39.4 4.84.969 7.18.474 1.95-1.262 1.96-2.027 2.86-1.701 1.98-3.429 3.98-4.82 6.17-.587.92-.944 1.48-2.1 1.36-.799-.08-1.614-.01-2.471-.01zm39.467 86.1h8.117c-1.368 5.5-4.062 10.25-8.117 14.48zm-11.012-21.99c2.455-5.34 5.035-10.96 7.369-16.04 2.334 5.07 4.921 10.68 7.391 16.04-2.405 1.56-4.999 3.24-7.401 4.79-2.363-1.53-4.942-3.21-7.359-4.79zm43.228-63.48v50.88h-4.043c-1.258-3.91-3.674-6.86-7.529-8.79.316-2.57.61-5.16.956-7.74.864-6.44 1.518-12.91 2.701-19.3 1.028-5.55 3.83-10.44 7.581-14.79.047-.06.117-.1.334-.26zm-23.084 78.5h-9.654c.759-1.82 1.209-3.57 2.162-5.01 1.323-2.01 3.401-3.15 6.229-3.47.423 2.84.836 5.61 1.263 8.48zm-25.543-.01c.422-2.84.834-5.61 1.368-9.21 2.215 1.4 4.263 2.21 5.564 3.65 1.298 1.43 1.849 3.49 2.869 5.56zm48.607-20.56v20.55h-15.882c-.482-3.37-.96-6.7-1.438-10.04 1.66-.47 3.485-.81 5.148-1.5 3.782-1.58 6.304-4.35 7.85-8.04.231-.55 1.431-.84 2.239-1.03.653-.15 1.39.03 2.083.06zm-54.335 10.44-1.46 10.11h-15.877v-20.66c1.279 0 2.522-.01 3.765.01.129.01.327.17.369.3 2.012 6.06 6.576 9.13 12.887 10.16.104.01.207.05.307.08z" transform="matrix(.99354495888 0 0 .99354022627 1.74724352207 -4801.45673823493)"/><path d="m1792.94 5534.82c68.08 1.22 134.91 8.54 170.95-3.22 5.36-1.75 5.28-6.39 5.79-10.33.43-3.31 1.2-6.26 3.64-8.03 1.6-1.16 4-1.88 7.72-1.63.06 0 .12.01.18.02 42.93 6.92 77.42 4.11 114.23 3.98.73 0 1.4.42 1.71 1.09.31.66.2 1.45-.28 2.01-10.29 12.01-24.18 19.87-42.93 22.07 20.36 14.12 33.45 29.79 44.77 45.83.47.67.46 1.57-.04 2.22-.49.65-1.35.9-2.12.63-40.96-14.48-79.93-27.59-101.65-28.37-4.39-.16-8.04.18-10.79 1.19-2.34.86-3.98 2.2-4.69 4.21-2.92 8.32-1.93 15.81-1.88 22.4.04 5.52-.55 10.45-3.84 14.81-3.19 4.24-9.04 8-19.8 11.06-9.99 2.83-25.37 2.86-45.41 1.79-29.63-1.58-69.61-5.52-117.53-5.86l-14.01-.02c-49.2.13-90.26 4.16-120.64 5.83-20.54 1.12-36.27 1.14-46.43-1.74-10.77-3.06-16.61-6.82-19.81-11.06-3.29-4.36-3.88-9.29-3.83-14.81.05-6.59 1.03-14.08-1.89-22.4-.71-2.01-2.34-3.35-4.69-4.21-2.75-1.01-6.39-1.35-10.78-1.19-21.73.78-60.7 13.89-101.66 28.37-.77.27-1.63.02-2.12-.63s-.51-1.55-.04-2.22c11.32-16.04 24.41-31.7 44.77-45.83-18.75-2.2-32.63-10.06-42.93-22.07-.47-.56-.58-1.35-.27-2.01.3-.67.97-1.09 1.71-1.09 36.8.13 71.29 2.94 114.23-3.98.06-.01.11-.02.17-.02 3.72-.25 6.12.47 7.73 1.63 2.43 1.77 3.21 4.72 3.64 8.03.51 3.94.42 8.58 5.79 10.33 37.06 12.1 106.71 4.01 176.78 3.13h.03l9.93-.02.01.03.57.01c-.04-.01-.08-.02-.13-.02.94.01 1.87.03 2.8.04 1.01.01 2.03.03 3.04.05zm-9.22 3.68-7-.02c-70.55.89-140.66 8.86-177.98-3.32-7.16-2.33-7.66-8.16-8.34-13.41-.29-2.2-.5-4.3-2.12-5.47-1.08-.78-2.72-1.09-5.19-.93-41.46 6.67-75.08 4.34-110.47 4.04 10.37 10.56 24.24 17.04 42.79 18.12.81.04 1.49.6 1.7 1.39.21.78-.11 1.61-.79 2.05-20.31 13.18-33.57 27.86-44.7 42.99 39.31-13.82 76.17-25.85 97.13-26.6 4.97-.18 9.1.28 12.21 1.42 3.53 1.29 5.87 3.45 6.94 6.49 3.09 8.79 2.15 16.7 2.1 23.67-.04 4.65.31 8.85 3.08 12.52 2.86 3.8 8.19 6.97 17.83 9.71 9.89 2.8 25.21 2.7 45.2 1.6 30.44-1.67 71.56-5.7 120.84-5.83h.01l14.02.02h.01c47.99.34 88.03 4.28 117.71 5.87 19.5 1.04 34.46 1.09 44.18-1.66 9.64-2.74 14.98-5.91 17.84-9.71 2.77-3.67 3.11-7.87 3.08-12.52-.06-6.97-.99-14.88 2.09-23.67 1.07-3.04 3.41-5.2 6.94-6.49 3.12-1.14 7.24-1.6 12.21-1.42 20.96.75 57.82 12.78 97.14 26.6-11.13-15.13-24.4-29.81-44.71-42.99-.68-.44-1-1.27-.79-2.05.21-.79.9-1.35 1.71-1.39 18.54-1.08 32.42-7.56 42.78-18.12-35.39.3-69.01 2.63-110.47-4.04-2.47-.16-4.11.15-5.18.93-1.62 1.17-1.84 3.27-2.12 5.47-.68 5.25-1.19 11.08-8.35 13.41-36.31 11.85-103.65 4.63-172.24 3.41l-4.62-.04c-.15 0-.32 0-.51 0h.03zm-15.73 30.05 2.54 1.72c5.27 3.7 7.91 8.3 7.91 13.79 0 5.35-1.94 9.41-5.84 12.17-3.9 2.77-8.38 4.15-13.44 4.15-5.71 0-10.19-1.18-13.44-3.55s-4.87-5.55-4.87-9.54c0-5.78 3.57-10.23 10.72-13.35l-1.99-1.46c-3.49-2.51-5.79-4.81-6.93-6.89-1.13-2.08-1.69-4.22-1.69-6.41 0-4.45 1.92-7.89 5.76-10.31 3.84-2.43 8.38-3.64 13.63-3.64 4.7 0 8.42 1.13 11.15 3.39 2.72 2.27 4.09 4.89 4.09 7.87 0 2.51-.54 4.63-1.62 6.35-1.08 1.73-3.07 3.63-5.98 5.71zm-6.94-5.01 2.63 1.78c1.55-1.94 2.32-4.43 2.32-7.49 0-2.51-.55-4.63-1.64-6.35-1.1-1.73-2.72-2.59-4.88-2.59-1.47 0-2.83.49-4.09 1.46s-1.88 2.4-1.88 4.31c0 1.54.56 2.95 1.69 4.22 1.13 1.28 3.08 2.83 5.85 4.66zm-5.77 13.25c-2.19 2.37-3.28 5.6-3.28 9.7 0 3.12.71 5.58 2.13 7.37 1.41 1.8 3.24 2.7 5.46 2.7 2.08 0 3.66-.62 4.72-1.86 1.05-1.24 1.58-2.58 1.58-4.01 0-4.2-2.58-8.14-7.75-11.8zm-26.62 19.77h.91v2.74h-28.81v-2.74h1.24c2.15 0 3.8-.4 4.95-1.19s1.73-2.46 1.73-5.01v-28.54c0-3.2-.24-5.23-.7-6.11-.47-.88-1.3-1.32-2.48-1.32-.9 0-2.51.41-4.85 1.23l-.64-2.31 19.82-8.51h2.63v45.56c0 1.98.4 3.5 1.19 4.58s2.46 1.62 5.01 1.62zm60.15-33.99-2.53-.43 4.47-15.99h31.24l-18.2 54.5-6.09-.92 13.95-41.57h-13.25c-2.48 0-4.42.26-5.84.78s-2.67 1.73-3.75 3.63zm74.98-16.42-4.42 12.01h-19.33l-1.51 4.84c6.28 0 11.93 1.87 16.94 5.61 5.01 3.73 7.51 8.74 7.51 15.02 0 5.17-1.94 9.3-5.82 12.39-3.87 3.09-8.99 4.63-15.34 4.63-8.91 0-13.36-2.1-13.36-6.3 0-1.26.48-2.4 1.45-3.42s2.14-1.54 3.5-1.54c1.83 0 3.5.52 5.01 1.57 2.8 2.15 4.68 3.43 5.63 3.85.95.41 2.13.62 3.53.62 1.65 0 3.19-.59 4.63-1.75 1.43-1.17 2.15-2.87 2.15-5.09 0-3.45-2.01-6.56-6.03-9.32-4.02-2.77-10.54-4.15-19.55-4.15l10.29-28.97z" transform="matrix(.99354495888 0 0 .99354022627 -1258.35887301073 -4741.65102345097)"/><path d="m903.73 5345.46c-7.813-7.76-18.935-10-31.752-9.41-1.236-1.66-2.434-3.32-3.594-4.97 6.763-.14 12.353-2.49 17.009-6.61 4.425-8.93 4.094-27.4 8.537-19.55 1.559 2.75 3.45 5.02 6.852 5.11-2.207-9.56-4.169-18.83 4.108-15.74 3.95 1.48 4.521 6.76 7.804 7.68-3.906-9.28-5.884-18.7 4.28-28.99 4.893.01 8.451 1.82 8.532 8.32l4.822-6.91c5.08-2.53 7.626-1.58 8.891 1.14 2.437 3.46 1.998 8.38.355 13.9 3.864-1.29 7.148-.65 7.166 4.19.024 6.7-5.392 9.15-11.4 9.57 4.828 3.03 2.407 6.53-1.354 10.12-1.564 1.5-4.94 1.71-9.326 1.21 3.557 7.31.01 12.7-7.307 11.41-8.449-1.49-10.499-5.82-22.908-1.45l.334 7.44c9.185 2.32 20.413 2.77 34.563.57 2.232-4.71 5.882-6.46 10.307-6.58 3.584 1.45 4.353 5.09 1.473 11.57 2.27-4.85 5.504-8.23 11.617-7.21 4.789 4.4 5.176 9.74 1.063 16.06-13.128.16-25.601.02-37.567-.37l.039-.09-.393.07c-4.108-.13-8.156-.29-12.151-.48zm-66.232 16.39c-11.402-13.56-21.493-26.89-22.215-38.19-1.475-23.12 9.968-34.86 26.362-38.77-1.813 16.47 14.736 38.21 30.214 58.49-2.219-.19-4.425-.38-6.619-.57-13.952-18.22-27.79-37.49-26.234-51.62-14.585 3.47-20.538 11.51-19.226 32.08.613 9.6 9.512 21.94 19.937 34.8-.556 1.63-1.243 2.97-2.219 3.78zm-45.686 5.5c-1.933-1.67-4.994-1.93-8.978-1.03-4.414-3.13 1.73-8.73-14.345-14.7-4.409-3.91 1.506-11.99-3.067-16.57-4.199-6.86-3.018-8.21-.34-10.99 3.596-3.74 9.654-2.68 16.219 6.34l3.52-3.36 6.319 1.92c-1.232-5.89-5.792-6.93-11.726-10.33-4.42-2.53-1.604-9.73 3.041-11.6-4.507-7.59-5.535-16.16 2.306-18.55 4.922-1.5 7.809 1.36 9.769 6.17.953-4.5 3.375-6.91 7.175-7.34 11.105-1.26 9.677 13.11 4.193 23.77 1.335-.62 2.508-1.06 3.532-1.23-.157 1.22-.244 2.48-.256 3.77-.076 7.82 1.058 14.72 3.339 21.33-.189.11-.349.24-.471.39-1.109 1.38-.856 5.58-1.665 7.45-.653 1.5-3.191 3.74-3.191 3.74l.812 6.89s2.807-7.72 4.29-9.91c.54-.79 1.74-1.63 2.78-2.25 3.052 6.58 7.26 13.07 12.556 20.11-2.529 1.23-5.071 2.46-7.62 3.7-9.592 1.21-18.973 1.93-28.192 2.28zm-1.221-29.18 1.147 4.92 5.017-.11-.798-5.08-4.206.56zm4.443 10.23c.181 6.26 2.284 10.98 6.107 14.33l3.781-.85-2.1-8.78c-2.675.35-4.294-1.15-4.668-4.83zm181.062-69.04c.933 1.82 1.194 4.05.728 6.74 3.281-.63 6.403-1.03 8.617-.07 6.128 2.65 6.43 7.86.237 12.14 7.936-.04 9.558 3.43 7.453 8.97 1.163 8.09-.006 14.55-11.74 13.59-5.411 2.25-8.13-2.46-10.019-9.31-3.863 5.29-8.633 5.63-13.912 3.19-4.341-2.01-3.469-11.75.899-15.62-5.028-.61-8.469-2.34-7.776-6.98.564-3.78.821-7.22 3.206-9.7-2.601 2.6-8.162 3.6-8.061-.05.455-16.37-15.813-27.21-38.684-19.02-16.207 17.14-27.292 41.01-39.262 66.98-1.568-2.26-3.066-4.51-4.495-6.76l1.158-4.56-4.984-16.78c-2.895-.21-5.69-.83-8.518-2.24-2.94-7.14-5.244-14.46-6.929-22.13-1.302.32-2.617.7-3.935 1.13.024-.04.048-.07.071-.1-.105.06-.211.12-.316.18-1.793.58-3.59 1.26-5.366 2.03-2.826.4-5.417-.6-7.584-4.13-3.186-5.19-.038-10.28 4.803-16.01-4.933-4.66-8.079-11.34-2.223-15.9 3.977-3.1 7.492-2.77 10.522 1.16 4.053-2.04 7.695-3.21 11.426.72 4.081 4.29 3.275 8.33-.68 13.62 3.23.35 6.006 1.13 6.955 3.64 1.948 2.79 2.351 8.17 2.562 13.88l2.828-.44c2.849-4.15 2.329-8.09 1.503-12.02 5.183-5.7 3.726-13.82 8.844-19.44 5.456-5.99 8.63-1.33 11.662 3.99l-1.243 7.85c2.572-1.32 5.102-.39 6.576 1.43 1.812 2.23 1.306 14.73-6.348 16.29-1.126 10.85-9.364 14.8-17.093 19.23l1.337 17.74c10.006-19.45 21.168-37.42 34.2-53.01-2.004-5.21-4.755-7.34-7.716-8.6l.865-3.24 12.608 6.39 7.606-.33c-14.038-6.86-26.638-14.13-30.259-23.63-7.596-19.93.135-35.45 14.668-46.21 5.023 28.89 75.828 45.76 80.38 67.6 2.402 11.52.638 20.44-4.571 27.79zm-1.343-1.88c4.437-7.36 4.428-16.31.701-25.78-7.094-18.01-71.519-35.25-75.988-60.95-12.93 9.57-16.436 19.36-9.677 37.09 6.128 16.08 44.74 27.5 64.394 41.76.573.21 1.143.42 1.709.63 2.065 1.94 4.497 4.4 7.192 7.6 2.143-1.96 4.795-3.23 7.489-2.73.493.15.986.3 1.479.45.606.27 1.21.64 1.807 1.11.322.26.62.54.894.82zm-90.854-42.43c-2.533 3.27-5 5.93-8.563 6.14-4.238.25-5.831-2.41-6.779-5.78-4.463 1.94-8.955 3.96-12.055 2.12-3.177-1.89-4.631-5.55-3.622-10.35-6 2.14-10.869 0-11.707-6.05-.93-6.73 6.751-12.47 16.064-7.29.11-5.52-.318-8.71 4.94-8.06 5.731.7 9.323 3.63 10.827 8.74 1.407-1.63 3.466-2.87 5.171-3.24-.544 7.78 1.761 15.73 5.724 23.77zm-5.296-27.19c-.723-.15-1.434-.38-2.134-.69-3.152-1.4-2.501-7-.24-10.83-3.261.53-5.256-2.77-5.265-6.54-.014-6.15 2.726-9.31 8.456-9.24-3.672-6.84-3.043-13.24 4.616-14.62 3.651-.66 5.966 1.57 6.717 7.16 2.895-1.15 6.072-2.87 8.082-.02 1.522 2.15 2.332 4.28 2.082 6.38-13.901 9.09-20.532 18.6-22.314 28.4zm24.007-25.91c-.496-3.13-.715-6-.46-8.4.599-5.63 3.269-6.49 7.067-6.58-.452-6.12 1.615-11.27 6.733-11.46 6.262-.24 7.495 5.82 5.325 12.55 4.211-2.36 9.066-.4 9.675 2.09 1.295 5.31.838 7.91-3.113 11.88 1.936 2.64 3.895 4.4 2.787 7.52-.645 1.81-1.658 2.81-2.839 3.43 2.091 5.06 3.608 9.94 1.493 13.95-.461.87-1.069 1.57-1.798 2.13-12.098-7.87-20.945-16.92-24.87-27.11zm32.35 31.6 3.374-15.52 1.41-17.83c-2.412-1.21-3.967-3.51-4.734-6.82l3.529-2.69c.491 1.96 1.277 3.48 2.989 3.56l3.706-8.01c-3.896-1.2-7.164-5.37-9.963-11.77-3.735-2.05-3.954-4.97-1.648-8.51-3.639 1.2-7.159 1.26-9.768-2.44-2.452-3.49-1.469-6.2-.035-8.81-6.156 3.91-10.791 3.64-13.725-1.3-2.942-4.95-2.31-9.97 1.053-13.48 7.362 10.44 20.496 16.62 35.265 20.73 3.157 5.35 1.908 8.79-2.525 10.83-3.254 5.17-.896 9.96 2.928 12.85 2.749-2.46 4.315-5.2 5.504-8.04-.112-5.2-.427-10.1-1.137-14.39 1.593.39 3.199.76 4.814 1.11.321 2.09.582 4.28.787 6.57l3.588-5.66c2.884.57 5.78 1.1 8.662 1.58l-18.017 23.9 11.203-2.35c1.243-5.57 4.675-9.66 9.981-12.51 2.59.47 4.148 2.21 4.57 5.33 9.103-1.08 12.933 1.67 14.233 6.25l2.191.14.086 1.39-2.37.6c-.408 6.3-5.29 9.44-13.607 8.71-.65 2.27-2.19 3.49-4.368 3.94-5.789-.33-9.415-4-10.3-11.9l-12.281 2.21c-5.344 8.97-6.87 19.13-5.772 30.09 4.674.26 9.274-1.84 13.858-4.48l28.914-9.76c7.447-3.68 10.989-6.23 14.335-11.86 3.25-5.46 11.75-1.74 10.51 6.76 2.61-4.45 6.13-7.44 11.84-6.95 5.08.44 6.94 3.93 7.92 8.17 2.76-6.25 7.06-8.7 13.18-6.66 6.01 2 5.25 7.49 3.43 12.01 4.23-.14 6.87.74 6.89 6.76.03 9.84-14.53 13.7-24.38 15.8 13 4.26 24.6 16.49 20.73 26.19-3 7.49-9.19 9.13-19.47 3.27.17 4.87-6.12 9.1-9.76 7.42-4.83-2.21-5.37-6.6-3.58-14.64-3.79.14-6.66-1.75-8.44-6.11.03 2.5-.04 4.97-2.05 6.6l-4.19 1.83c4.28 7.15 2.63 12.98-3.17 14.14-9.835 1.98-13.808-2.66-15.505-13.1-5.356.61-7.913-1.34-7.286-6.2-3.416-4.06-1.382-7.63 1.37-11.15-7.757.59-12.391-3.96-8.008-7.55 4.46-3.65 3.56-6.79 2.924-9.96l-4.541-2.92-24.6 7.39c-1.33 3.56-2.68 7.12-3.81 10.77-2.317-1.14-4.565-2.32-6.734-3.53zm69.62 4.44c-.59.1-1.16.44-1.66.76-.3.19-.53.36-.79.59-.73.67-.5 1.92.3 2.52.47.34 1.18.24 1.72.23 1.23-.04 3.01-.22 2.4-1.98-.1-.31-.28-.6-.45-.87-.4-.61-1.08-.76-1.52-1.25zm-22.944-25.47c5.77 1.61 11.353 3.52 15.507 7.66 2.348-2.6 5.577-3.65 9.147-4.09-5.39-5.58-14.99-7.72-24.654-3.57zm2.158 8.19.873 4.1c2.66 4.61 5.615 6.51 8.796 6.31-1.998-6.68-5.327-9.87-9.669-10.41zm-11.43 33.4c1.841-.18 3.929.63 6.491 2.65 3.436 2.7 3.919 5.44 2.645 8.16-2.206-3.64-5.226-7.26-9.136-10.81zm13.613 23.15.736.89 9.45-5.53c5.907-1.61 9.937 1.45 8.837 8.25 2.07-6.48 7.27-9.76 12.96-7.89 4.65 1.53 5.5 3.57 3.53 8.71 0 0 8.61-8.08 14.11-2.24 6.05 6.44-2.34 13.32-2.34 13.32-1.07 4.38-2.82 8.3-8.45 9.65-5.25 1-8.67-1.94-11.5-6.15-1.21 4.13-3.47 7.38-8.62 8.15-8.017.98-13.548-3.06-17.379-10.53 0 0-2.533 1.2-5.319 1.93 3.335-5.88 4.805-12.16 3.985-18.56zm6.118-114.69c1.711-2.84-46.395 4.17-66.584-14.04-16.921-15.27-16.925-31.4-8.067-45.41 18.743 23.98 95.216 16.94 110.106 34.83 3.6 4.32 6.09 8.43 7.59 12.39-.08-1.16-.23-2.27-.45-3.34 4.6-1.62 9.08-1.46 11.15 1.22 2.19 2.83 2.25 6.22-.04 10.23 4.12-3.14 10.08-4.74 12.71-.71 2.45 3.77-.04 7.17-4.04 10.47 6.71 1.03 9.03 4.63 8.7 9.78-.32 4.93-9.72 6.24-17.31 4.08-5.36 5.78-12.8 11.86-18.62 7.36-2.11-1.64-34.932-24.84-35.145-26.86zm42.265-2.69c-.39-6.94-4.59-13.84-11.77-20.19-15.51-13.73-86.003-8.99-102.678-30.33-7.882 12.47-6.557 22.22 8.498 35.8 10.89 9.83 45.05 8.18 69.619 11.4 17.151 2.25 35.471 7.34 36.331 3.32zm-113.394-57.8c1.507-2.57 4.241-4.52 8.201-4.82-.333-6.77.272-9.97 8.194-12.09 5.741-1.54 8.639 3.56 10.467 11.52 3.614-1.99 6.866-2.61 10.235.83 4.022 4.1.612 9.88-4.863 14.78-11.979-2.51-23.274-5.57-32.234-10.22zm32.937 10.37c3.404-.45 6.268-.23 7.873 1.55-2.644-.5-5.274-1.01-7.873-1.55zm17.228 3.28-1.47-14.86c-6.148-2.31-10.781-5.63-13.402-10.29l2.235-2.55c2.914 3.15 5.952 4.66 9.068 5.14l-7.451-41.7c2.114-.45 4.243-.91 6.378-1.39 1.481 10.93 3.559 21.54 6.263 31.84 4.797.45 7.747-1.76 8.469-7.18-2.171-2.9-4.648-8.14-3.158-10.65 2.597-4.37 5.78-4.32 8.982-4.13-3.276-4.73-4.904-9.24-4.398-13.49 10.761-2.33 21.163-4.23 30.163-4.32.13 1.73.08 3.61-.11 5.58 3.48-1.44 8.15-.88 8.52 2.33.62 5.32-3.92 8.46-10.48 10.74l.6 5.71-9.54 1.12c1.78 3.32.45 8.47-1.806 10.31-3.949 3.22-8.001 5.56-15.238 4.33 6.273 1.67 11.155 5.61 9.896 10.43-1.188 4.56-3.117 6.63-12.021 6.79-4.444 1.02-5.288 5.53-4.495 11.62l.57 6c-2.51-.46-5.04-.92-7.575-1.38zm24.818 4.94c.565-1.81 1.456-3.58 2.767-5.32 2.024-2.69 4.544.38 7.074 3.37-.27-5.23.44-9.89 4.92-12.33 2.77-1.52 5.31-.78 7.18.07-2.79-6.98-1.18-11.94 5.36-14.66 4.88-2.02 8.94 3.32 12.18 8.75 6.22-6.08 11.98-4.8 15.95.66 4.23 5.81 1.63 11.08-6.81 15.9 4.58 6.3 4.33 12.06-2.24 16.83-4.78 3.49-9.62 3.78-14.54-2.62.15 1.3.26 2.52.13 3.57-7.06-6.88-18.63-11.04-31.971-14.22zm12.211-111.9c15.69 10.26 18.43 21.93 13.4 36.21-17.21-18.68-79.57 13.62-104.065 2.18-19.82-9.25-24.358-24.05-20.169-39.4 23.941 16.74 92.132-11.22 110.834 1.01zm-4.07 2.99c-18.094-8.23-81.444 15.93-102.744 1.04-3.726 13.66.23 22.23 17.863 30.46 21.793 10.17 85.801-19.06 101.121-2.44 4.47-12.71-2.32-22.73-16.24-29.06zm-50.608 41.03c-.46 1.23-1.277 2.4-2.558 3.52-1.505 1.92-3.762 1.65-6.439.17-2.122 12.15-8.741 11.75-15.347 11.39l-2.466 2.21-1.082-1.18 2.194-2.29c-2.303-4.56-2.718-8.38-1.467-11.54 7.966.7 17.307-.43 27.165-2.28zm-52.557-45.74c.154-.93.436-1.94.836-3.03 2.711-7.41 10.497-8.84 17.586-4.52-4.518-5.73-11.729-9.9-21.723-12.46-3.427-3.44-3.56-7.85-2.111-12.73-5.562-3.68-6.908-7.61-2.789-11.86 5.289-5.45 11.121-4.08 16.644.64 4.895-3.26 10.116 1.66 15.528 11.42 5.112 6.11 8.669 12.95 10.393 20.66l6.235-.75c-8.865-17.44-19.44-34.11-30.707-50.48-5.644.67-9.358 6.04-13.484 10.4-3.658 2.47-7.708.87-10.319-1.47 8.463-3.16 14.648-7.49 27.161-14.41l2.05 3.95 3.955-5.3 4.624-2.66c-1.206-2.41-.643-5.72 2.152-8.06 2.95-2.48 5.365-2.58 7.885-1.33.287-7.83 4.787-11.05 11.82-11.49 2.76-.18 5.879 3.82 5.809 8.27 5.473-4.7 10.589-4.43 12.187-.2 2.119 5.61-2.285 8.53-10.352 9.94 1.42 3.55 1.288 9-3.376 9.24l-8.816-.56c1.882 2.66 1.247 5.1-2.17 6.05-3.445.97-5.785-2.22-7.639-3.91l-14.344 3.03c10.126 14.56 19.434 29.92 27.412 46.59l3.61-3.45-3.748-5.24c-1.921-3.49-.369-6.2 2.183-8.93-3.355-.25-5.953-1.42-6.439-5.17-.664-5.11 1.874-7.04 4.898-9.45-3.312-1.84-5.696-4.2-6.134-7.63-.787-6.16 7.594-9.55 16.359-8.53 6.206-2.59 6.686-7.13 7.221-12.97 5.256.12 6.221 3.77 5.236 9.03 4.653.19 10.134 2.34 9.819 7.36-.338 5.39-2.726 8.44-6.382 10.06 2.674 1.36 5.054 6.32 3.204 10.49-1.826 4.12-4.975 5.09-8.314 5.61 2.603 2.38 1.196 9.14-2.361 11.45-4.714 3.07-6.838 3.59-11.445 4.22l-4.864 7.78 5.06 7.85c4.061-4.22 6.675-9.32 8.316-14.99 2.197-.78 4.296-.64 6.218 1.14.364-4.69 1.677-8.46 5.126-10.19 2.956-1.49 4.278-.5 5.895 1.26 1.51-6.76 5.863-9.42 11.735-9.88 5.18-.41 7.507 5.59 8.894 10.31 4.891-.86 9.201-.94 10.711 4.67 1.93 7.18-3.85 10.22-9.79 13.18.23.38.42.77.56 1.16-8.834-.83-19.918.36-31.807 2.04-.691-.15-1.413-.23-2.188-.25l-.433.62c-6.472.94-13.148 1.99-19.8 2.9-1.317-1.7-2.785-3.44-4.419-5.23-4.198-.6-8.588-.02-13.065 1.1l.473 6.03c-10.5.82-20.419.73-28.776-1.32zm31.902 1.05c.207-.03.414-.05.622-.05-.207.01-.415.03-.622.05zm-19.801-72.63c-19.356 10.72-43.715 24.97-53.799 21.4-16.069-5.69-21.885-14.12-21.345-27.87 16.058 9.35 48.656-17.8 73.461-27.01 1.717-1.31 3.96-2.09 5.799-2.68-4.127-3.08-7.143-6.54-5.873-11.5 1.795-7.02 5.204-8.14 12.631-4.85 2.786-5.03 6.06-6.38 9.598-5.7 5.001.95 6.089 6.41 5.734 11.87 4.8.31 6.418 3.77 5.859 6.91-1.21 6.81-6.744 8.15-11.485 8.88 2.817 3.28 3.188 7.05.86 9.06-2.779 2.41-6.088 2.87-9.849 1.67 1.445 2.38 2.017 4.82-.78 7.44-4.744 2.98-8.224 7.24-10.811 12.38zm-4.364-28.35c-23.616 9.86-54.955 33.11-68.592 25.17-.481 12.23 8.441 17.37 21.889 20.89 8.472 2.22 28.985-10.35 49.489-21.81l-1.389-3.61c1.652-2.53 1.668-5.09-.701-7.69l2.85-6.1c-2.886-1.29-3.615-2.99-3.546-6.85zm-23.865 48.24c-1.322 2.78-3.306 5-5.464 5.33-3.736.56-6.699.07-9.027-1.28 4.893-1.21 9.69-2.44 14.491-4.05zm-26.888-30.67c-1.055-1.22-1.376-2.69-1.342-4.29-4.213 3.98-7.914 7.13-14.119 4.79-7.453-2.81-9.15-7.86-7.82-14.09-5.052-1.86-8.637-4.63-7.33-10.45 1.265-5.63 7.314-5.74 12.8-3.69-.085-3.1.812-5.73 5.111-6.73 3.609-.83 7.072 4.97 9.279 8.88 1.972-1.13 2.947-2.4 5.585-1.97 3.832.63 6.627 3.2 8.886 9.75 1.257-2.22 3.463-5.12 5.057-3.04 2.713 3.54 5.817 6.68 9.626 9.1-8.825 5.06-17.431 9.1-25.733 11.74zm32.094-15.52c-7.047-8.38-19.521-18.58-35.233-29.89-2.159 1.24-4.27 1.37-6.341.53-.885 2.25-2.234 5.22-4.741 5.06-3.526-.22-5.92-1.72-7.757-3.87-.767 4.22-3.663 6.54-7.197 6.73-5.052.28-7.875-2.53-10.168-6.08-1.821 3.45-4.587 5.57-8.429 6.19-2.948-.05-4.99-1.05-6.441-2.59 8.175-3.07 17.468-8.89 28.023-17.82 5.682-.07 11.488 2.69 17.448 8.94 1.438 1.28 2.94 1.25 4.497.12-4.332-6.05-9.127-11.28-14.254-15.92 1.09-1.01 2.192-2.06 3.307-3.14l1.002.8c1.323-1.13 1.753-3.02 1.611-5.42-18.071 12.72-36.695 30.33-47.831 29.49-14.948-1.14-21.365-8.26-23.352-20.2 14.574 4.88 35.992-20.65 54.895-33.99-2.346-2.02-4.16-4.4-4.412-7.36-.451-5.31 2.027-8.87 9.023-9.95.035-3.52.665-7.4 5.711-7.71 4.103-.26 6.679 2.28 8.834 5.59 3.789-.66 8.236-.86 9.595 2.46 1.647 4.02.122 7.86-2.551 11.64 3.189.97 5.661 1.94 5.547 4.68-.401 9.7-4.697 17.52-12.024 23.87-.082 4.49-.527 7.83-1.327 10.07 8.869 9.76 9.424 14.96 36.922 34.91l-.219-7.69c-1.88-2.78-4.584-4.42-8.151-4.89-3.885-.5-2.272-6.56-1.947-10.17-4.455.1-8.666-.21-10.413-4.58-1.757-4.39.41-7.55 3.086-10.69-3.569-1-7.824-2.07-8.912-6.41-1.317-5.44 3.489-9.04 6.987-12.29-1.031-4.74.437-10.11 4.892-11.07 5.03-1.09 8.024 2.85 9.033 8.43 4.776-.81 7.834 1.07 9.976 4.38 2.994 4.64 1.578 8.77-1.568 12.7 4.463 1.01 10.553 4.2 10.826 7.87.294 3.96-2.061 6.57-5.831 8.45l.322 8.96c.099 3.13-1.967 5.86-5.488 8.3l-.091 9.31 7.058 9.78c-1.31.84-2.616 1.66-3.917 2.47zm-46.058-59.93c-2.312-2.76-6.108-4.59-9.54-7.67-2.454-2.19-1.842-5.74-.185-9.75-.8-.51-1.615-1.04-2.417-1.6-18.686 12.55-41.883 38.77-55.185 34.32 1.767 10.62 10.387 15.02 22.576 14.09 10.051-.77 27.824-17.68 44.751-29.39zm-34.871-8.06-3.766-.63c-6.179-.75-6.609 9.58-13.025 12.01-5.362.71-8.302-1.23-9.358-5.22-2.103 2.52-4.334 4.83-7.334 5.83-6.474 2.17-12.55-4.68-12.284-12.01-4.862 2.06-10.946 2.16-11.839-4.33-.72-5.22 6.021-7.11 12.28-6.73-1.565-2.78-1.64-5.35 1.7-7.45 3.514-2.21 10.621 1.93 13.663 6.49-.508-2.32 1.224-4.28 5.095-5.88l-7.621-5.91s-6.044 1.51-7.782 1.19c-1.337-.24-2.642-3.11-2.642-3.11s-5.595 6.82-9.051 6.19c-5.344-.97-4.438-9.73-4.438-9.73-3.113 4.06-6.331 6.68-10.963 4.79-5.773-2.36-5.933-8.21-5.034-14.72-7.773-1.31-11.637-4.78-11.054-10.73.466-4.74 9.04-4.99 15.155-3.29 1.958-5.52 4.85-7.05 8.277-6.31 4.874 1.06 7.112 4.15 7.75 11.46 1.186-2.89 3.034-4.16 5.485-3.96 3.555.3 4.896 4.54 6.015 9.54l5.74-.6 2.883 14.28c3.438 4.88 8.572 7.89 11.988 9.57-1.85-4.31-1.289-7.8.49-10.88-4.722-2.39-8.819-5.52-11.321-10.55-1.862-3.74-1.536-6.7 3.127-10.25-1.908-4.47-2.055-8.13 1.832-9.9 4.774-2.18 8.025 1.55 10.145 5.92 3.11-1.67 6.754-2.12 11.575.15 3.688 1.74 1.068 10.1-1.24 15.27 3.303.01 4.523-1.17 7.735 1.74 1.861 1.69.974 3.93-.431 6.28 2.395.31 4.862.54 4.753 3.41-1.42 6.95-1.016 14.26.617 21.47-2.418 2.34-4.792 4.54-7.122 6.6zm-15.889-17.25c3.859 5.53 9.213 6.85 14.661 7.9-3.727-6.01-8.181-9.91-14.661-7.9z" transform="matrix(.97884446767 0 0 .99354022627 -131.66388711193 -4576.61426878)"/><path d="m338.113 5345.77c-9.322 2.49-19.908 2.54-32.182 2.1 24.847-16.88 19.807-49.57 66.171-37.71 14.068-1.63 24.504-6.01 32.56-12.19-18.506-12.62-35.275-19.15-45.962-4.33l2.024-9.75c-8.362 3.81-16.913 5.2-27.719 4.16-24.312-2.33-32.998-38.63-73.819-48.21 22.631-3.01 42.98-1.86 60.397 4.64 9.77-19.38 73.943-37.38 82.085-63.08 11.993 9.13 17.106 22.86 7.537 41.24-9.396 18.04-52.659 29.1-71.139 44.9 2.95 4.94 7.456 9.95 15.922 14.25l14.629-8.14-12.499-12.12c4.737-2.68 10.567-5.34 16.718-8.22 1.863 6.33 1.568 13.01-.448 20.63l3.571 2.65c6.576 1.01 12.585 3.25 18.315 6.11-3.645-11.39-8.762-22.16-14.686-32.6 2.903-1.42 5.815-2.91 8.661-4.49 6.839 7.24 14.663 13.61 23.35 18.7.818-11.2-5.244-18.6-11.517-26.32 6.504-4.98 11.794-10.86 14.512-18.07.688.96 1.295 2 1.802 3.14 5.566 12.51 3.43 31.67.585 43.6l7.744 6.68 1.471-19.45c-.242-18.23-8.305-29.1-9.615-45.47.182-2.74.145-5.27-.094-7.61.412-7.6 2.36-16.47 6.894-27.55 3.409 28.74 33.598 47.1 8.442 79.57l-2.208 23.72 15.916 19.29c-9.654-29.88-4.569-55.39 16.412-71.87-4.738 18.48 3.649 36.57 1.856 52.96-1.21-.73-2.486-1.42-3.828-2.08-.542 7.69-3.447 15.83-8.37 24.36-.567.49-1.158.97-1.775 1.45l.404.86c-1.489 2.42-3.136 4.88-4.934 7.36-12.106-20.78-30.693-36.73-52.755-50.09 8.378 27.12 22.753 46.31 45.621 54.26 1.048.36 2.113.7 3.197 1.02-1.453 1.83-2.982 3.68-4.584 5.54l-9.227-4.41-16.627-10.5c-6.552 1.32-12.24 4.57-17.378 9.07l-1.884 8.83c-1.131 8.43-.146 15.44 1.805 21.67-4.061.24-8.338.44-12.844.62.138-.66.287-1.32.447-2-.35.67-.663 1.34-.944 2.02-7.081.27-14.726.46-22.987.54 3.117-7.6 8.603-13.92 17.62-17.9l5.445-14.03-8.736 1.22c-9.103 18.49-19.476 27.01-32.238 30.72-.387 0-.776 0-1.165-.01.017.11.034.22.051.32zm83.178-3.72c17.229-19.36 40.658-40.74 41.677-62.6 12.804 9.57 20.468 25.93 15.995 50.3-.678 3.7-2.117 7.31-4.115 10.85-1.14-.98-2.346-1.72-3.689-2.25 2.082-3.52 3.558-7.02 4.195-10.49 3.98-21.68.265-32.26-11.127-40.77-.851 18.25-19.635 37.16-35.418 54.13-2.374.28-4.877.56-7.518.83zm55.365 7.81 7.938 6.01c2.627-.88 5.51-1.73 8.684-2.54l-.16-.16 14.902-3.04-11.07-10.88c-5.51-.81-11.089-2.05-16.716-3.6.58-2 1.065-4.05 1.452-6.16 6.446 1.82 13.008 3.34 19.724 4.46 6.268 5.51 11.673 10.57 16.392 15.26-.888-10.57-4.745-15.33-9.785-27.51-3.926-9.49 1.822-22.82 10.643-29.88 4.246-3.4 2.941-14.26 13.59-22.2-5.22 23.75-.736 37.3 3.122 51.43 3.57 13.06-4.18 24.74-14.092 31.68 2.557 2.64 4.895 5.16 7.05 7.58l4.217-10.07c.034-.32.082-.65.145-.98.38-1.99 1.251-3.77 2.467-5.25 2.752-3.35 7.277-5.16 11.923-4.33 6.701 1.2 11.134 7.44 9.893 13.93-1.035 5.4-5.683 9.28-11.08 9.73.36 1.07.688 2.14.985 3.23-.822.08-1.641.14-2.457.2-.107-1.13-.236-2.26-.386-3.41-.482-.03-.967-.09-1.453-.17-3.759-.67-6.804-2.93-8.534-5.93l-2.184 7.13c.846 1 1.662 1.99 2.449 2.96-3.069.11-6.109.15-9.13.12-3.098-3.39-6.423-6.82-10.03-10.32l-.727-.72-15.749 1.17c-2.446.55-5.313 1.47-8.355 2.62l5.428 4.11c-4.942-1.06-9.921-2.41-14.982-4.11-4.754-1.59-4.658-6.18-4.114-10.36zm-153.047-103.76c7.897 3.62 9.04 10.8 12.872 18.52 18.222-15.21 60.84-27.9 69.187-43.93 8.514-16.34 6.55-25.07-4.119-33.19-7.435 23.47-68.982 41.8-77.84 58.41-.033.07-.067.13-.1.19zm63.775 78.08-3.131-7.09c-3.138 5.74-3.677 12.68-1.824 20.72 1.239-4.16 2.871-8.69 4.955-13.63zm14.66-405.31c-3.413 11.78-8.573 27.37-17.462 38.69-1.276 1.63-2.62 4.42-1.387 5.32 10.408 7.61 10.778-26.12 59.918-26.27-9.566 13.57-22.229 28.92-38.464 33.23l-1.588-8.28c-12.026 2.79-23.562 3.77-34.617 2.97-1.073-5.72-3.679-11.03-7.628-15.98-5.054 5.51-10.29 9.72-15.602 12.64-15.269-2.11-29.118-3.28-41.343-3.36-5.384-4.08-10.523-9.63-15.28-16.66 18.85 10.49 33.373 9.71 44.078-1.04 4.665-4.68 12.354-3.41 18.795-.98-10.999-18.23-12.265-36.77-9.642-55.42-3.651-.61-7.02-.41-10.02.87.906-14.65 7.915-23.91 26.252-26.83 21.849-3.47 73.528 48.21 101.917 42.81-2.086 15.26-11.952 26.59-33.678 26.98-7.085.13-15.409-3.48-24.249-8.69zm-11.749-7.51c-1.871 7.12-4.581 14.21-8.244 21.28l-.816 21.21c7.767-11.09 12.188-24.32 16.184-37.81-2.352-1.49-4.731-3.06-7.124-4.68zm-32.525-21.43c8.209 17.42 13.08 36.03 10.651 57.23.905 6.21 1.868 12.39 5.972 17.2 4.018-10.06 3.205-20.18 2.382-30.3-7.424-13.04-10.954-26.17-11.051-39.4-2.699-1.72-5.357-3.31-7.954-4.73zm-15.466-9.37c.006-.04.012-.08.018-.11 3.792.58 8.085 2 12.844 4.2.044.08.088.17.132.25 3.361 1.63 6.882 3.61 10.498 5.82.006-.12.011-.24.017-.36 4.824 2.91 10.002 6.4 15.51 10.45 16.662 11.21 33.472 22.82 44.905 22.62 19.329-.35 26.26-6.39 28.116-19.97-25.257 4.81-73.966-41.6-93.718-41.43-15.194.13-25.28 6.33-26.086 19.36 2.277-.96 4.888-1.19 7.764-.83zm138.963 419.67c4.83 2.31 7.701 7.51 6.672 12.89-.624 3.26-2.564 5.97-5.191 7.7.552-7.45.15-14.37-1.481-20.59zm-150.812-71.5-.552-7.46c-2.863-3.45-7.985-5.37-14.729-6.2-12.675-1.55-12.243-28.88-40.617-37.92 15.316-.62 35.411-3.08 48.635 8.9 7.07 6.41 14.575 11.32 24.44 13.49 3.679.81 5.639-1.26 3.842-5.17-3.32-12.82-31.696-25.75-61.706-41.11-5.714-2.93-10.099-6.92-13.518-11.42-2.297 1.78-4.063 3.87-5.172 6.34-7.156-9.21-9.534-18.4-5.128-28.82-.48-1.74-.903-3.43-1.289-5.04 1.078.36 2.165.72 3.257 1.08 1.2-2.1 2.671-4.26 4.427-6.48 14.101-17.82 88.895-12.81 106.602-36.67 8.986 13.46 9.374 29.2-6.768 44.51-11.471 10.88-39.677 11.84-63.593 15.18 3.732 2.2 6.733 4.45 8.69 6.75 7.37 8.67 11.532 19.24 12.725 31.57l12.56 6.26c-6.25-13.85-4.916-28.86-11.259-41.37 3.754-.73 7.448-1.55 11.081-2.46-.751 9.93-.378 18.45 1.507 25.08l3.21-1.61c1.424-11.36 4.977-20.46 10.145-27.83 3.252-1.09 6.45-2.27 9.598-3.52 9.803-4.41 16.031-10.88 19.225-18.41 1.676-.72 3.386-1.4 5.126-2.05-10.927 38.16-23.859 65.16-42.224 61.91l-.151 8.79 12.368 31.48c-4.711-32.11 12.07-54.54 33.363-74.94-8.02 23.3-1.31 45.2-11.231 64.1-9.937 9.11-23.317 17.39-38.061 25.34-1.747-.37-3.499-.8-5.254-1.27 1.19.75 2.346 1.49 3.467 2.23-4.25 2.26-8.605 4.51-13.016 6.74zm-58.813-112.08c11.256 3.82 22.759 8 31.7 12.46 24.434-4.11 55.108-5.3 65.927-15.56 14.36-13.62 15.417-23.17 7.422-35.14-15.753 21.22-84.654 18.32-99.458 32.09-2.163 2.01-4.035 4.07-5.591 6.15zm2.739 22.54c-3.117-4.75-5.304-9.91-6.944-14.89-2.318 6.54-1.394 13.18 3.491 19.47.765-1.71 1.937-3.22 3.453-4.58zm-5.358-32.8c-7.665-4.36-12.682-8.64-14.993-12.01 9.78 2.75 22.33 3.59 33.929 2.98-8.201 2.55-14.902 5.45-18.936 9.03zm63.06-19.62c-4.713-3.51-8.529-7.78-11.675-12.59-15.509.44-26.325-7.29-34.553-19.52l5.978-3.9c-11.289-13.62-17.843-25.38-16.96-35.41 7.164 8.92 10.031 12.83 27.494 18.37 14.045 4.46 29.223 22.71 22.921 39.69 2.054 3.83 4.728 7 8.866 8.58l2.563-22.69-1.07-1.84-7.411-9.81c-15.935-12.14-21.751-30.09-21.612-50.55-14.579-2.16-27.145-2.15-33.635 4.54-5.045-14.11-2.133-25.62 14.081-35.7 19.319-12 89.158 15.82 113.902-.61 4.175 15.16-.613 29.75-21.059 38.81-13.048 5.78-36.373.03-58.339-4.36 8.767 12.11 17.759 24.69 11.747 48.62l3.076 3.8 1.994.72c-.046-16.18 1.456-31.74 6.81-45.76 1.845.36 3.695.69 5.549.97-6.143 14.87-7.875 34.98-8.038 58.42 5.729-1.48 11.864-6.66 15.15-28.36 2.337-11.43 3.025-21.04 2.299-29.09 1.96.11 3.928.15 5.905.11-.222.39-.438.78-.651 1.18-1.158 19.5-2.034 34.1-8.107 50.68l-13.657 16.43c-.279 2.27-.543 4.51-.775 6.67-3.522.9-7.138 1.77-10.793 2.6zm-25.38-93.14c.246-6.41 1.038-13.04 2.254-19.79 1.099 8.56 5.062 15.25 9.592 21.71 22.691 4.09 47.468 10.13 59.635 4.73 18.19-8.06 22.328-16.5 18.614-29.99-22.014 14.62-86.91-9.44-105.573-1.38-14.357 6.2-21.42 16.07-16.931 28.62 5.754-5.92 18.027-5.88 32.409-3.9zm76.394 77.56c9.801-2.14 20.508-2.15 30.837-4.54-8.674 10.71-16.14 21.3-25.342 28.96.53-7.88-1.457-16.3-5.495-24.42zm9.558-69.02c-2.062 3.64-6.371 5.77-10.814 4.97-.035 0-.07-.01-.105-.02 3.631-1.13 7.27-2.78 10.919-4.95zm-15.761-150.79c2.288-4.52 4.91-9.04 7.846-13.58 2.463 7.11 4.496 14.2 5.991 21.28-4.564-2.66-9.172-5.23-13.837-7.7zm49.409 30.16 6.932-5.09c1.782-3.44 2.313-6.41 1.414-8.84-2.511 2.65-6.334 4.03-10.254 3.33-6.048-1.08-10.05-6.71-8.929-12.57 1.121-5.85 6.941-9.73 12.99-8.65s10.05 6.72 8.929 12.57c-.176.93-.471 1.8-.864 2.62l3.014 6c5.626-4.98 11.099-10.62 16.284-17.5l1.688-10.51c-12.089-12.66-17.603-24.86-19.334-37.88-10.134-10.69-20.004-18.66-29.081-17.24 4.27-13.38 12.946-20.34 30.645-18.74.178.01.357.03.536.06.536-3.06 1.128-6.19 1.753-9.4.895 3.89 2.421 7.67 4.285 11.44 21.434 10.96 53.062 60.01 77.978 61.49-2.494 6.19-6.28 11.26-11.555 14.52-1.456 5.43-7.032 8.92-12.816 7.89-2.877-.51-5.292-2.06-6.911-4.17-2-.21-4.096-.57-6.291-1.09-7.327-1.71-14.993-8.05-22.764-16.06-.802 2.62-1.846 5.32-3.162 8.13l-.548 8.64 8.702-7.92c1.402 1.24 2.605 2.25 4.185 3.41-12.856 8.68-24.333 19.07-34.359 31.28 2.677.27 5.401.05 8.254-1.51 16.348-16.4 41.093-15.86 71.462-3.97-15.511 7.66-32.186 9.69-61.124 1.87l-4.477 2.49c27.696 3.28 38.061 14.29 45.387 26.65-20.546 2.1-35.711-3.82-44.177-19.71-5.867-1.65-12.07-2.65-18.703-2.82l-5.048 3.58c-1.351-.72-2.698-1.49-4.041-2.3zm11.381-81.65c-.502-8.38.363-17.16 1.891-26.66-13.367-2.82-23.533.76-27.192 12.22 7.38-1.15 16.112 5.32 25.301 14.44zm12.673-21.28c6.947 12.04 15.356 24.47 15.752 39.96-.084 1.32-.108 2.66-.08 4.03-.144 2.22-.459 4.52-.97 6.88 8.035 8.28 15.754 14.86 22.566 16.45 1.188.28 2.331.52 3.433.72-.065-2.18.142-4.04.594-5.62 1.486-5.51 5.425-8.06 12.155-7.24.057.01.114.02.172.03 4.772.85 8.27 4.54 8.983 8.94 2.209-2.18 3.953-5.11 5.43-8.77-20.889-1.24-48.842-40.82-68.035-55.38zm30.233 17.03c6.166-6.34 14.867-11.7 25.835-16.18-11.965 9.82-14.549 18.49-15.64 26.85-3.503-3.39-6.905-6.94-10.195-10.67zm19.786 19.35 2.504-2.44c-7.269-16.39 7.526-34.02 32.452-52.23-1.541 14.4-7.9 29.63-21.53 46.12l17.721-10.52c3.87-6.18 5.628-12.25 16.765-14.96 8.191-2 22.172-7.03 29.476-15.72-7.56 43.73-15.454 29.99-41.874 33.86l-19.904 10.79c18.184-5.54 30.366.91 54.048 6.38-25.133 15.5-46.52 16.76-63.273.42l-2.012 1.9c-1.471-1.18-2.929-2.38-4.373-3.6z" transform="matrix(.99354495888 0 0 .99354022627 -142.3296916 -4576.61426878)"/><path d="m513.778 5555.67c-62.12-27.35-123.91-55.55-156.081-160.05-24.315-78.98-3.506-132.8-19.093-176.17-3.749-10.42-9.166-17.44-17.45-23.37l15.046-50.24c59.102 31.72 124.376 28.29 177.578-23.77 53.202 52.06 118.476 55.49 177.579 23.77l15.046 50.24c-8.285 5.93-13.702 12.95-17.451 23.37-15.586 43.37 5.223 97.19-19.092 176.17-32.171 104.5-93.961 132.7-156.082 160.05zm0-286.37c-36.471-60.71-87.491 11.76-154.122-16.65l41.424 174.42c54.425-46.28 79.585 8.79 112.698 6.33 33.113 2.46 58.274-52.61 112.698-6.33l41.425-174.42c-66.631 28.41-117.652-44.06-154.123 16.65zm-.08 8.7c6.387-11 13.589-17.6 21.416-21.28 12.521-5.89 26.735-4.25 42.104-.71 24.666 5.67 52.411 16.28 80.853 5.6l2.98-1.36-37.22 159.01-2.066-1.83c-11.463-9.75-21.844-14.19-31.432-15.29-14.417-1.65-26.985 4.23-38.594 10.63-6.65 3.67-12.99 7.52-19.169 10.35-6.375 2.92-12.594 4.74-18.786 4.31-12.191.85-24.551-7.09-37.944-14.51-11.525-6.38-23.87-12.33-37.755-10.99-9.209.89-19.071 5.01-29.823 14.26l-2.032 1.79-39.941-157.39 3.022 1.51c32.009 10.43 58.495-.71 81.66-6.67 12.022-3.09 23.183-4.8 33.761-1.8 10.079 2.85 19.687 9.95 28.966 24.37zm-1.344 4.14c-9.161-15.08-18.542-22.48-28.53-25.31-10.036-2.84-20.618-1.1-32.023 1.83-22.995 5.91-49.205 16.62-80.661 7.49 0 0 36.999 145.8 37 145.8 10.617-8.61 20.443-12.45 29.624-13.34 14.582-1.41 27.589 4.69 39.691 11.4 6.521 3.61 12.776 7.38 18.886 10.14 5.877 2.65 11.605 4.37 17.314 3.95l.123-.01.123.01c5.707.42 11.414-1.33 17.283-4.01 6.107-2.8 12.372-6.61 18.946-10.24 12.195-6.72 25.437-12.76 40.582-11.02 9.534 1.09 19.844 5.25 31.123 14.33 4.675-19.97 34.506-147.41 34.506-147.41-28.095 9.21-55.464-.88-79.87-6.5-14.578-3.35-28.063-5.1-39.94.48-7.866 3.7-14.987 10.63-21.285 22.33l-1.468 2.84zm-8.758 72.43v-3.23c-18.189-1.75-33.669-12.83-41.591-28.4h93.333c-8.013 15.75-23.759 26.9-42.22 28.46v.97c21.837-4.93 47.906-11.32 44.001-37.51-3.76-25.21-48.091-30.79-68.336 1.72-3.247 5.21-10.765 4.59-12.223-1.68-1.394-7.77 3.754-15.5 10.118-18.73 6.67-3.39 27.872-13.01 45.823-9.73 19.79 3.62 38.146 22.18 31.758 44.91-6.307 22.45-32.006 25.09-51.141 27.36v17.01c13.13 3.44 26.91 10.4 24.718 32-.942-8.96-5.795-17.25-11.635-21.12-3.858-3.01-8.424-4.68-13.083-5.78v15.22c7.655 1.47 13.994 6.67 17.056 13.62h-43.004c2.977-6.76 9.053-11.86 16.426-13.49v-17.08c-10.04-1.55-18.448-2.94-18.401-12.79.029-6.13 7.881-9.11 18.401-11.73zm0 19.05v-13.62c-7.365 1.28-12.334 3.21-12.348 7.73-.011 3.3 5.3 4.46 12.348 5.89z" transform="matrix(.95249168118 0 0 .95248780201 22.66235845145 -4579.03229991748)"/><g fill-rule="nonzero" transform="matrix(.87341742499 0 0 .87341274578 -90.87002399977 -3989.08226619727)"><path d="m238.771 5472.82c-1.011-1.32-1.985-2.68-2.922-4.08-.937-1.39-1.767-2.88-2.49-4.47-.622-1.39-1.059-2.71-1.312-3.94s-.39-2.53-.41-3.89c-.01-1.64.36-4 1.107-7.06.748-3.07 1.982-7 3.702-11.79 2.692-7.36 4.027-12.19 4.004-14.49-.008-2.22-.678-4.2-2.011-5.95l4.675-3.58 13.673 17.86c-.359 1.57-1.185 4.04-2.478 7.41-1.292 3.38-3.069 7.69-5.329 12.94-1.169 2.72-2.084 4.91-2.746 6.58-.663 1.66-1.144 3.01-1.445 4.04s-.436 1.86-.405 2.48.166 1.27.406 1.93c.088.29.34.76.757 1.42.417.67.909 1.42 1.476 2.28.568.86 1.176 1.74 1.825 2.65.649.9 1.275 1.75 1.877 2.53l1.032 1.35 13.519-10.35c1.348-1.03 2.394-1.98 3.139-2.84s1.197-1.75 1.358-2.67c.16-.93-.002-1.94-.487-3.04-.484-1.1-1.297-2.39-2.436-3.88l4.675-3.58 22.284 29.1-4.675 3.58c-1.139-1.48-2.176-2.61-3.11-3.36-.934-.76-1.869-1.18-2.803-1.26-.935-.09-1.914.12-2.938.61-1.025.5-2.211 1.26-3.558 2.29l-13.52 10.35 1.032 1.35c.602.79 1.256 1.61 1.961 2.48.705.86 1.398 1.67 2.077 2.45.68.77 1.284 1.44 1.813 2.01.53.58.922.95 1.178 1.11.577.4 1.162.7 1.755.89.592.2 1.426.28 2.501.26s2.502-.14 4.283-.34c1.78-.21 4.136-.52 7.067-.94 5.658-.81 10.283-1.4 13.876-1.77s6.193-.52 7.799-.46l13.673 17.86-4.675 3.58c-1.333-1.74-3.07-2.9-5.212-3.49-2.213-.62-7.224-.59-15.033.08-5.075.42-9.19.58-12.345.5s-5.524-.33-7.106-.77c-1.312-.38-2.53-.85-3.653-1.41-1.123-.57-2.276-1.33-3.46-2.29-1.341-1.12-2.564-2.31-3.67-3.58-1.105-1.27-2.163-2.56-3.173-3.88.244 1.77.388 3.44.431 5.02.044 1.57.007 3.13-.112 4.69s-.304 3.15-.557 4.77-.529 3.37-.828 5.24c-.28 1.73-.493 3.24-.64 4.54-.146 1.29-.214 2.46-.203 3.52.01 1.07.098 2.07.263 3.01s.43 1.94.794 3c.321 1 .714 1.89 1.178 2.67s.936 1.55 1.418 2.29c.481.75.959 1.52 1.434 2.31s.894 1.72 1.258 2.78c.459 1.3.55 2.46.274 3.5-.276 1.03-1.116 2.09-2.52 3.16-1.432 1.1-2.84 1.4-4.225.9-1.384-.5-2.732-1.61-4.043-3.32-1.312-1.71-2.442-3.7-3.391-5.95-.949-2.26-1.482-4.66-1.599-7.2-.064-1.42-.07-2.75-.019-3.99s.178-2.53.381-3.87c.202-1.33.473-2.75.811-4.26.339-1.51.746-3.2 1.223-5.08.633-2.49 1.166-5.08 1.599-7.77s.715-5.25.846-7.66c.132-2.42.103-4.58-.086-6.49-.188-1.9-.574-3.32-1.156-4.25l-13.478 10.32c-1.291.98-2.316 1.91-3.075 2.78s-1.219 1.77-1.379 2.7c-.161.92-.022 1.92.417 2.99.438 1.06 1.195 2.3 2.27 3.7l.71.93-4.675 3.58-23.316-30.45 4.675-3.58.709.92c1.075 1.41 2.071 2.46 2.986 3.16.916.7 1.842 1.1 2.776 1.18.935.09 1.921-.12 2.959-.62 1.038-.51 2.203-1.26 3.495-2.25l13.478-10.32c-.751-.8-2.021-1.54-3.81-2.22s-3.868-1.27-6.235-1.78c-2.368-.5-4.907-.89-7.619-1.18-2.712-.28-5.352-.44-7.92-.48-1.938-.03-3.679-.08-5.221-.15-1.543-.06-2.985-.17-4.327-.32-1.342-.16-2.619-.37-3.831-.65-1.212-.27-2.496-.62-3.851-1.05-2.42-.78-4.596-1.92-6.528-3.42-1.932-1.51-3.553-3.12-4.865-4.83-1.311-1.71-2.027-3.3-2.148-4.77s.535-2.75 1.967-3.85c1.404-1.07 2.642-1.61 3.713-1.6 1.072 0 2.174.39 3.306 1.18.926.62 1.711 1.27 2.354 1.93.643.67 1.261 1.33 1.855 1.99s1.207 1.32 1.839 1.97c.633.65 1.39 1.26 2.273 1.83.926.63 1.822 1.14 2.689 1.55.867.4 1.811.75 2.833 1.04 1.021.28 2.175.52 3.46.72 1.286.2 2.8.39 4.542.57 1.89.2 3.65.39 5.278.56 1.629.18 3.212.42 4.75.71s3.059.67 4.563 1.12 3.08 1.02 4.728 1.72z"/><path d="m246.804 5415.34-5.301 2.56c-1.647-3.4-3.266-5.41-4.855-6.02-1.637-.62-4.031-.17-7.183 1.36l-38.3 18.52c-3.088 1.49-4.912 3.04-5.471 4.64-.606 1.59-.055 4.16 1.654 7.69l-5.301 2.56-16.326-33.76 5.301-2.56c1.632 3.37 3.274 5.35 4.927 5.92 1.606.56 3.953.09 7.041-1.4l30.182-14.59-44.454-11.27c-2.135 1.19-3.481 2.47-4.036 3.84-.654 1.57-.157 4.06 1.49 7.47l-5.301 2.56-16.28-33.67 5.301-2.56c1.663 3.44 3.296 5.48 4.901 6.11 1.59.61 3.976.14 7.16-1.39l38.3-18.53c3.12-1.5 4.96-3.06 5.519-4.67.559-1.6-.016-4.17-1.725-7.71l5.301-2.56 16.28 33.67-5.301 2.56c-1.616-3.34-3.236-5.27-4.858-5.78-1.606-.56-3.953-.09-7.041 1.4l-30.516 14.76 44.477 11.31c2.406-1.36 3.871-2.72 4.395-4.07.607-1.59.071-4.12-1.607-7.59l5.301-2.56z"/><path d="m140.174 5333.63 1.784 5.78c1.064 3.45 2.218 5.87 3.462 7.26 1.245 1.39 3.143 2.29 5.695 2.71 2.552.41 5.386.27 8.5-.43l1.768 5.72-19.564 6.04-21.237-68.77 19.565-6.05 1.768 5.73c-4.937 2.71-8.024 5.33-9.261 7.86-1.236 2.53-1.192 5.94.133 10.23l1.831 5.93 48.556-14.99c3.143-.98 5.166-2.18 6.071-3.63.905-1.44.83-3.87-.224-7.29l-.547-1.77 5.626-1.74 11.721 37.97-5.626 1.73-.5-1.62c-1.065-3.44-2.389-5.49-3.975-6.13-1.585-.64-3.915-.48-6.99.47z"/><path d="m153.053 5275.39c-6.4.95-12.91.1-19.53-2.55-6.619-2.66-11.846-6.82-15.681-12.48-3.834-5.67-6.272-11.98-7.314-18.94-1.876-12.52.265-22.88 6.421-31.08 6.157-8.2 14.481-13.08 24.973-14.66 9.968-1.49 19.068.78 27.301 6.8 8.233 6.03 13.263 15.15 15.091 27.35 1.252 8.36.592 16.01-1.979 22.96s-6.634 12.23-12.189 15.85c-5.554 3.62-11.252 5.87-17.093 6.75zm-3.861-21.85c10.947-1.64 18.623-4.29 23.026-7.95 4.404-3.66 6.172-8.4 5.302-14.2-.906-6.05-3.802-10.29-8.687-12.7-4.885-2.42-12.871-2.8-23.957-1.13-10.143 1.51-17.499 4.09-22.068 7.72-4.569 3.64-6.382 8.6-5.44 14.9.891 5.94 3.882 10.04 8.973 12.28 5.092 2.24 12.709 2.6 22.851 1.08z"/><path d="m177.158 5147.91-56.789 25.17 37.171 1.03c3.323.1 5.777-.07 7.363-.48 1.586-.42 2.95-1.45 4.092-3.1 1.143-1.65 1.747-3.67 1.814-6.08l5.886.16-.718 25.88-5.886-.16c.063-2.26-.475-4.24-1.613-5.94-1.138-1.69-2.471-2.74-3.999-3.16-1.527-.41-3.987-.67-7.381-.76l-37.807-1.05c-3.606-.1-6.036.46-7.291 1.68-1.254 1.22-1.934 3.74-2.04 7.56l-5.886-.16.799-28.8 47.861-20.85-46.625-23.69.802-28.9 5.886.17-.04 1.43c-.1 3.6.498 5.96 1.794 7.08 1.295 1.11 3.552 1.72 6.769 1.81l42.526 1.18c3.288.09 5.592-.41 6.913-1.48 1.321-1.08 2.031-3.39 2.129-6.92l.046-1.65 5.886.17-1.086 39.13-5.886-.16.04-1.44c.099-3.57-.5-5.91-1.795-7.02-1.296-1.12-3.552-1.72-6.769-1.81l-42.262-1.17 56.211 28.2z"/><path d="m179.333 5089.76-5.762-1.22c.78-3.7.726-6.28-.161-7.73-.914-1.49-3.084-2.6-6.51-3.32l-41.63-8.77c-3.357-.7-5.747-.59-7.172.34-1.451.88-2.582 3.25-3.391 7.09l-5.761-1.21 7.727-36.7 5.762 1.21c-.772 3.67-.68 6.24.276 7.7.929 1.43 3.071 2.49 6.428 3.2l32.806 6.91-28.286-36.1c-2.417-.36-4.264-.18-5.54.57-1.479.84-2.609 3.12-3.388 6.82l-5.762-1.21 7.706-36.6 5.761 1.21c-.787 3.74-.74 6.35.139 7.84.887 1.45 3.061 2.54 6.522 3.27l41.63 8.77c3.391.71 5.799.6 7.223-.32 1.424-.93 2.541-3.32 3.35-7.16l5.762 1.21-7.706 36.6-5.762-1.22c.765-3.63.662-6.14-.308-7.54-.929-1.42-3.072-2.49-6.429-3.2l-33.169-6.98 28.275 36.15c2.736.39 4.724.21 5.967-.54 1.451-.88 2.574-3.21 3.369-6.98l5.761 1.21z"/><path d="m196.567 5007.22-5.483-2.15c1.378-3.52 1.749-6.07 1.113-7.65-.656-1.62-2.615-3.07-5.875-4.35l-39.621-15.49c-3.195-1.25-5.571-1.53-7.129-.85-1.577.63-3.081 2.78-4.511 6.43l-5.484-2.14 13.66-34.93 5.483 2.15c-1.365 3.49-1.697 6.04-.995 7.64.682 1.56 2.621 2.96 5.815 4.21l31.223 12.21-21.963-40.26c-2.324-.76-4.177-.87-5.558-.35-1.598.59-3.086 2.65-4.464 6.17l-5.484-2.14 13.621-34.83 5.483 2.14c-1.391 3.56-1.775 6.14-1.151 7.75.636 1.58 2.6 3.02 5.894 4.3l39.621 15.5c3.227 1.26 5.62 1.55 7.178.87 1.557-.68 3.051-2.85 4.481-6.51l5.484 2.15-13.621 34.83-5.484-2.15c1.353-3.46 1.665-5.95.937-7.49-.682-1.56-2.62-2.96-5.815-4.21l-31.568-12.35 21.943 40.31c2.634.84 4.625.99 5.973.45 1.578-.63 3.069-2.74 4.473-6.33l5.484 2.14z"/><path d="m213.845 4889.22 14.903 8.45c2.86 1.63 5.127 2.27 6.799 1.94 1.673-.33 3.381-2.04 5.126-5.11l.812-1.43 5.121 2.9-19.238 33.92-5.121-2.91.628-1.11c1.762-3.1 2.333-5.45 1.712-7.05-.622-1.59-2.332-3.18-5.131-4.77l-37.003-20.99c-2.861-1.62-5.128-2.27-6.8-1.93-1.672.33-3.372 2.02-5.1 5.06l-.863 1.52-5.122-2.9 13.842-25.69c3.595-6.34 6.543-11.14 8.844-14.41s5.041-5.91 8.219-7.93 6.451-3.04 9.817-3.06c3.367-.02 6.557.82 9.572 2.53 4.091 2.32 6.87 5.58 8.337 9.76 1.467 4.19 1.592 8.45.376 12.78-1.217 4.33-3.588 9.6-7.113 15.82zm-5.537-3.14 1.728-3.05c2.774-4.89 3.555-8.75 2.342-11.6-1.213-2.84-3.604-5.27-7.172-7.3-3.199-1.81-6.13-2.68-8.795-2.61-2.664.08-4.82.87-6.467 2.37-1.647 1.51-3.63 4.3-5.951 8.4z"/><path d="m278.606 4801.61 21.584 16.23-3.538 4.7c-2.693-1.18-5.136-1.76-7.329-1.72 1.215 8.39-1.12 16.5-7.005 24.33-6.693 8.9-14.959 13.84-24.798 14.8-9.839.97-18.759-1.55-26.759-7.56-7.888-5.93-12.912-13.84-15.074-23.74-2.161-9.9.264-19.51 7.275-28.84 5.248-6.98 12.003-11.17 20.266-12.58-.953-1.73-2.218-3.61-3.793-5.63l3.506-4.67 21.691 15.38-3.506 4.66c-6.808-2.95-12.874-3.96-18.197-3.03-5.323.94-9.61 3.57-12.861 7.89-3.739 4.98-4.604 10.19-2.593 15.64 2.01 5.44 7.157 11.28 15.44 17.51 5.823 4.37 10.778 7.39 14.865 9.05 4.086 1.65 8.052 1.83 11.898.54 3.845-1.29 6.957-3.52 9.337-6.68 3.145-4.19 4.493-9.01 4.046-14.48s-3.112-11.16-7.993-17.09z"/><path d="m297.221 4764.64c2.534-2.57 4.882-4.78 7.045-6.65 2.163-1.86 4.247-3.38 6.252-4.56s4-2.02 5.985-2.52 4.103-.68 6.354-.55c4.453.28 8.354 2.06 11.702 5.37 1.812 1.78 3.195 3.82 4.148 6.1s1.426 4.69 1.418 7.21c-.009 2.53-.523 5.11-1.543 7.76-1.02 2.64-2.571 5.25-4.655 7.81-1.29 1.56-2.878 3.37-4.765 5.44-1.886 2.06-4.109 4.39-6.667 6.98-3.428 3.47-6.868 6.9-10.322 10.27-3.453 3.38-6.994 6.73-10.623 10.05l-4.191-4.13 1.229-1.25c1.218-1.23 2.11-2.35 2.679-3.36.568-1 .83-1.97.787-2.91-.044-.94-.376-1.88-.995-2.84s-1.52-2.02-2.703-3.19l-30.283-29.88c-1.133-1.12-2.177-2-3.131-2.64-.955-.65-1.895-.99-2.82-1.04-.926-.04-1.899.23-2.921.81-1.021.58-2.165 1.52-3.432 2.8l-.894.91-4.191-4.14 27.383-27.75 4.192 4.13-1.155 1.17c-1.267 1.29-2.191 2.44-2.772 3.45-.58 1.02-.849 2-.805 2.94.044.93.394 1.87 1.05 2.82.657.95 1.564 1.99 2.722 3.13l12.196 12.04zm20.063 27.25c1.097-.46 2.54-1.59 4.328-3.41.845-.85 1.539-1.68 2.084-2.49.545-.8.952-1.63 1.221-2.48.27-.85.401-1.75.395-2.7s-.151-2.01-.434-3.19c-.642-2.57-2.273-5.15-4.891-7.73-1.787-1.76-3.508-3.04-5.164-3.83s-3.277-1.13-4.865-1.03c-1.587.09-3.159.6-4.716 1.53-1.556.92-3.142 2.2-4.757 3.84l-2.458 2.49z"/><path d="m351.964 4716.97c1.317-1.01 2.674-1.99 4.07-2.93s2.886-1.77 4.468-2.5c1.393-.62 2.705-1.06 3.936-1.32 1.232-.25 2.53-.39 3.895-.42 1.64-.01 3.995.35 7.063 1.09 3.068.75 7 1.97 11.796 3.68 7.367 2.67 12.2 4 14.499 3.97 2.221-.01 4.2-.69 5.938-2.02l3.59 4.66-17.827 13.72c-1.568-.36-4.039-1.18-7.415-2.46-3.375-1.29-7.69-3.06-12.945-5.3-2.723-1.17-4.918-2.08-6.585-2.74s-3.016-1.13-4.049-1.43-1.86-.43-2.483-.4c-.622.03-1.264.17-1.926.41-.288.09-.763.34-1.423.76-.659.42-1.417.91-2.273 1.48s-1.737 1.18-2.641 1.83c-.905.65-1.749 1.28-2.534 1.88l-1.346 1.04 10.383 13.5c1.035 1.34 1.983 2.38 2.844 3.13.862.74 1.755 1.19 2.68 1.35s1.936-.01 3.034-.49c1.097-.49 2.389-1.31 3.874-2.45l3.59 4.67-29.726 22.86-3.59-4.66.883-.68c1.458-1.12 2.538-2.15 3.241-3.1.703-.94 1.084-1.88 1.143-2.82.06-.93-.166-1.91-.677-2.92s-1.252-2.15-2.222-3.41l-25.94-33.72c-.991-1.29-1.931-2.31-2.817-3.06-.886-.74-1.792-1.19-2.717-1.35s-1.92-.02-2.986.42c-1.067.44-2.3 1.2-3.702 2.28l-.883.68-3.59-4.67 30.399-23.38 3.59 4.66-.925.72c-1.402 1.07-2.452 2.07-3.152 2.99s-1.092 1.84-1.176 2.78c-.084.93.128 1.92.636 2.96.508 1.03 1.258 2.19 2.249 3.48l10.35 13.46c.804-.75 1.544-2.02 2.219-3.82.675-1.79 1.261-3.87 1.759-6.23.498-2.37.886-4.91 1.164-7.63.279-2.71.434-5.35.466-7.92.026-1.94.07-3.68.133-5.22.062-1.54.168-2.98.318-4.33.15-1.34.361-2.62.632-3.83.272-1.21.622-2.5 1.052-3.85.769-2.42 1.904-4.6 3.405-6.54 1.501-1.93 3.106-3.56 4.816-4.87 1.71-1.32 3.298-2.04 4.764-2.16 1.466-.13 2.749.53 3.849 1.96 1.078 1.4 1.616 2.63 1.615 3.71-.001 1.07-.39 2.17-1.169 3.31-.625.92-1.27 1.71-1.934 2.35-.664.65-1.325 1.27-1.982 1.86-.658.6-1.312 1.21-1.962 1.85-.65.63-1.26 1.39-1.829 2.27-.625.93-1.14 1.83-1.543 2.7-.403.86-.747 1.81-1.031 2.83-.285 1.02-.524 2.18-.717 3.46-.193 1.29-.378 2.8-.554 4.55-.197 1.89-.382 3.65-.557 5.28-.174 1.62-.406 3.21-.695 4.75s-.657 3.06-1.106 4.56c-.448 1.51-1.02 3.08-1.714 4.73z"/><path d="m408.145 4723.09-2.809-5.18c3.325-1.8 5.253-3.51 5.784-5.13.545-1.66-.018-4.03-1.689-7.11l-20.302-37.39c-1.637-3.01-3.271-4.76-4.901-5.24-1.616-.53-4.149.14-7.599 2.01l-2.81-5.17 32.958-17.9 2.81 5.17c-3.294 1.79-5.19 3.53-5.687 5.21-.483 1.62.094 3.95 1.731 6.96l15.999 29.46 9.16-44.93c-1.288-2.08-2.629-3.36-4.023-3.85-1.602-.58-4.065.03-7.391 1.84l-2.809-5.18 32.864-17.84 2.81 5.17c-3.357 1.82-5.316 3.55-5.878 5.19-.53 1.61.048 3.97 1.736 7.08l20.302 37.39c1.653 3.04 3.296 4.81 4.926 5.29s4.17-.21 7.62-2.09l2.81 5.18-32.865 17.85-2.809-5.18c3.263-1.77 5.112-3.48 5.547-5.12.483-1.64-.095-3.96-1.732-6.97l-16.175-29.79-9.208 44.96c1.472 2.34 2.896 3.74 4.273 4.2 1.616.53 4.118-.12 7.505-1.96l2.81 5.17z"/><path d="m482.134 4682.74-1.923-5.57c3.576-1.23 5.759-2.61 6.547-4.11.811-1.56.644-3.99-.499-7.3l-13.896-40.21c-1.121-3.24-2.445-5.23-3.975-5.97-1.507-.79-4.116-.55-7.826.74l-1.923-5.57 35.446-12.25 1.924 5.57c-3.543 1.22-5.697 2.62-6.463 4.19-.744 1.53-.555 3.92.565 7.16l10.951 31.69 16.405-42.83c-.931-2.26-2.043-3.74-3.337-4.46-1.485-.83-4.016-.63-7.593.61l-1.923-5.57 35.346-12.21 1.924 5.56c-3.61 1.25-5.826 2.63-6.648 4.15-.789 1.51-.606 3.93.549 7.28l13.896 40.21c1.132 3.27 2.463 5.28 3.992 6.02 1.529.75 4.149.48 7.859-.8l1.923 5.56-35.346 12.22-1.923-5.57c3.509-1.21 5.614-2.59 6.312-4.14.744-1.53.556-3.92-.565-7.16l-11.072-32.04-16.455 42.84c1.068 2.55 2.243 4.17 3.525 4.85 1.508.78 4.083.55 7.726-.71l1.924 5.57zm-7.059-101.96 3.459-1.19c3.666 4.87 8.658 6.21 14.975 4.03 6.05-2.09 8.996-6.18 8.84-12.26l3.359-1.16c1.526 4.52 1.469 9.01-.17 13.47-1.64 4.46-4.683 7.45-9.128 8.99-4.512 1.56-8.815 1.07-12.908-1.46s-6.902-6-8.427-10.42z"/><path d="m661.376 4641.42-28.892-54.99 1.443 37.16c.129 3.32.454 5.76.975 7.31.52 1.56 1.641 2.85 3.362 3.88s3.783 1.5 6.186 1.4l.229 5.89-25.867 1-.229-5.88c2.262-.09 4.2-.76 5.815-2 1.615-1.25 2.578-2.65 2.889-4.21.311-1.55.401-4.02.269-7.41l-1.468-37.79c-.14-3.61-.861-6-2.163-7.17s-3.861-1.68-7.677-1.53l-.229-5.88 28.782-1.12 23.992 46.37 20.533-48.1 28.888-1.12.229 5.88-1.431.05c-3.604.15-5.92.9-6.946 2.27-1.026 1.36-1.477 3.65-1.352 6.87l1.652 42.51c.127 3.29.773 5.55 1.936 6.8s3.512 1.8 7.046 1.66l1.643-.06.228 5.88-39.118 1.52-.229-5.88 1.431-.06c3.57-.14 5.867-.89 6.893-2.25 1.027-1.37 1.477-3.66 1.353-6.88l-1.642-42.24-24.397 57.96z"/><path d="m751.477 4609.69-2.112 17.65c-.403 3.37-.474 5.6-.211 6.68.262 1.08 1.195 2.07 2.798 2.95 1.604.89 4.126 1.54 7.567 1.95 4.671.56 8.172.39 10.505-.51 2.334-.89 4.544-2.69 6.631-5.4s3.714-5.66 4.881-8.87l5.899.7-3.279 23.38-65.311-7.81.7-5.85 1.317.16c3.546.42 5.934.04 7.162-1.15 1.229-1.18 2.034-3.38 2.417-6.57l5.067-42.35c.391-3.26.11-5.6-.843-7.02-.953-1.41-3.167-2.33-6.643-2.74l-1.317-.16.687-5.74 60.834 7.28-1.159 18.61-5.899-.7c-.667-3.36-1.535-6.07-2.605-8.14-1.071-2.07-2.231-3.46-3.483-4.16s-3.44-1.24-6.565-1.61l-13.326-1.6-2.949 24.65 6.636.8c3.16.37 5.33.03 6.508-1.04 1.179-1.07 2.049-3.35 2.609-6.85l5.952.71-2.899 24.23-5.952-.71c.09-.45.147-.78.172-.99.244-2.04.035-3.94-.628-5.69s-2.768-2.84-6.314-3.27z"/><path d="m869.896 4666.86c-.204.75-.543 1.79-1.017 3.13-.473 1.34-1.177 3.12-2.111 5.34s-2.155 4.95-3.664 8.21c-1.509 3.25-3.4 7.17-5.674 11.76l-5.682-1.55c.274-3.7.535-6.98.783-9.85.248-2.86.487-5.39.717-7.58s.458-4.07.683-5.64c.226-1.57.436-2.91.631-4.03l-58.965-16.05c-.399 1.06-.891 2.33-1.475 3.8-.584 1.48-1.332 3.21-2.244 5.22s-1.979 4.31-3.199 6.91c-1.221 2.6-2.668 5.56-4.341 8.88l-5.681-1.55c.363-5.1.719-9.44 1.067-13.01.349-3.57.683-6.55 1.002-8.94.32-2.38.614-4.27.884-5.67.269-1.39.505-2.46.71-3.21.157-.58.441-1.02.85-1.31s.904-.36 1.484-.2l5.221 1.42c3.105.84 5.854 1.22 8.245 1.12s4.51-.62 6.357-1.54c1.846-.93 3.473-2.23 4.88-3.9s2.662-3.65 3.765-5.96c1.103-2.3 2.12-4.89 3.05-7.77.931-2.88 1.846-5.98 2.747-9.28.659-2.43 1.21-4.49 1.653-6.18.442-1.69.823-3.19 1.142-4.5s.579-2.5.782-3.58c.202-1.08.415-2.23.638-3.45.284-1.72.407-3.12.369-4.19-.037-1.07-.317-1.97-.839-2.68-.521-.71-1.313-1.3-2.376-1.77-1.062-.47-2.454-.98-4.176-1.52l1.546-5.68 68.229 18.56-1.546 5.69c-2.168-.52-3.902-.78-5.202-.79-1.299 0-2.347.24-3.142.74s-1.398 1.23-1.809 2.2c-.41.97-.806 2.16-1.186 3.56l-11.603 42.63c-.334 1.23-.514 2.33-.538 3.29-.024.97.192 1.82.648 2.57.457.75 1.2 1.42 2.23 2.01s2.445 1.15 4.244 1.68l.665.18c.58.15.973.46 1.178.92s.228.98.07 1.56zm-31.864-66.94c-.353 1.29-.811 3.51-1.374 6.66-.562 3.14-1.563 7.36-3.003 12.65-1.012 3.72-2.137 7.18-3.374 10.38s-2.618 6.09-4.143 8.66c-1.524 2.57-3.201 4.83-5.03 6.76-1.829 1.95-3.863 3.53-6.101 4.75l18.017 4.9c1.74.48 3.203.69 4.387.65 1.185-.05 2.153-.31 2.905-.78s1.351-1.12 1.797-1.96c.447-.83.818-1.79 1.115-2.88l12.188-44.79c.325-1.19.507-2.2.545-3.01.038-.82-.076-1.51-.343-2.07-.267-.57-.708-1.04-1.322-1.41s-1.433-.69-2.457-.97l-6.808-1.85c-1.911-.52-3.409-.47-4.494.15s-1.92 2.01-2.505 4.16z"/><path d="m865.236 4669.43 2.462-5.35c3.437 1.58 5.962 2.1 7.574 1.56 1.659-.56 3.221-2.43 4.685-5.61l17.787-38.65c1.434-3.11 1.857-5.47 1.267-7.06-.542-1.62-2.597-3.24-6.162-4.88l2.461-5.35 34.069 15.68-2.462 5.35c-3.406-1.57-5.929-2.05-7.571-1.44-1.595.59-3.109 2.44-4.544 5.55l-14.017 30.46 41.475-19.57c.891-2.28 1.117-4.12.676-5.53-.496-1.63-2.463-3.23-5.9-4.82l2.462-5.34 33.972 15.63-2.462 5.35c-3.47-1.6-6.027-2.13-7.671-1.6-1.612.54-3.158 2.42-4.636 5.63l-17.788 38.65c-1.449 3.14-1.878 5.52-1.289 7.11.59 1.6 2.667 3.21 6.233 4.85l-2.462 5.35-33.972-15.63 2.462-5.35c3.373 1.55 5.849 2.01 7.426 1.37 1.595-.59 3.11-2.44 4.544-5.56l14.172-30.79-41.522 19.55c-.993 2.58-1.261 4.56-.805 5.94.542 1.61 2.564 3.22 6.066 4.83l-2.462 5.35z"/><path d="m979.129 4720.55c1.704-.28 3.525-1.89 5.464-4.85l11.338-17.31c-3.502 1.22-6.971 1.55-10.409.98-3.437-.56-6.724-1.86-9.859-3.92-4.674-3.06-7.441-6.66-8.303-10.8s.306-8.64 3.504-13.53l8.112-12.38c.736-1.12 1.278-2.11 1.624-2.96s.47-1.63.371-2.35c-.099-.73-.455-1.42-1.069-2.1-.613-.68-1.511-1.4-2.695-2.18l3.082-4.7 25.911 16.98-3.08 4.7c-1.21-.67-2.5-1-3.849-1-1.324.02-2.839 1.33-4.544 3.94l-9.129 13.93c-2.5 3.81-2.316 6.66.553 8.54.592.39 1.411.7 2.458.95 1.046.24 2.224.38 3.534.41s2.677-.05 4.103-.26c1.425-.21 2.813-.57 4.164-1.08l7.5-11.45c1.8-2.75 2.6-4.97 2.4-6.67-.12-.84-.53-1.68-1.23-2.52-.7-.83-1.45-1.52-2.25-2.04l3.23-4.92 30.31 19.85-3.23 4.93-1.42-.93c-3.02-1.98-5.33-2.71-6.93-2.2-1.64.5-3.35 2.1-5.13 4.83l-23.32 35.58c-1.799 2.75-2.6 4.97-2.4 6.67.219 1.66 1.808 3.47 4.77 5.4l.93.61-3.23 4.93-31.813-20.85 3.227-4.92c3.195 2.09 5.63 2.99 7.305 2.69z"/><path d="m1043.78 4735.5-13.18 14.76c-2.24 2.5-3.34 4.61-3.31 6.33.04 1.71 1.49 3.85 4.36 6.42l-3.92 4.39-27.966-24.99 3.926-4.39c2.82 2.52 5.09 3.76 6.82 3.71 1.72-.04 3.75-1.37 6.09-3.98l28.34-31.73c2.26-2.53 3.36-4.65 3.3-6.37-.05-1.71-1.55-3.87-4.47-6.49l3.92-4.39 27.96 24.99-3.92 4.39c-2.79-2.5-5.05-3.7-6.78-3.6-1.72.1-3.72 1.42-6.01 3.98l-10.74 12.03 22.03 19.68 10.75-12.02c2.21-2.48 3.31-4.58 3.31-6.29-.01-1.72-1.43-3.84-4.25-6.36l3.92-4.39 27.89 24.92-3.92 4.39c-2.85-2.55-5.13-3.8-6.84-3.77-1.72.04-3.75 1.37-6.11 4.01l-28.35 31.72c-2.28 2.56-3.38 4.7-3.3 6.41.09 1.71 1.59 3.87 4.52 6.49l-3.92 4.39-27.89-24.92 3.92-4.39c2.77 2.47 5.01 3.64 6.72 3.51 1.7-.13 3.69-1.47 5.95-4l13.19-14.75z"/><path d="m1062.72 4798.47 4.58-3.7c2.38 2.94 4.41 4.53 6.09 4.76 1.74.24 3.97-.74 6.69-2.94l33.11-26.72c2.67-2.15 4.1-4.07 4.28-5.76.23-1.69-.89-4.06-3.35-7.11l4.58-3.7 23.55 29.19-4.58 3.7c-2.36-2.92-4.4-4.47-6.14-4.66-1.7-.18-3.88.81-6.55 2.96l-26.09 21.05 45.85.9c1.81-1.64 2.83-3.19 3.06-4.65.29-1.68-.76-3.99-3.14-6.93l4.58-3.7 23.49 29.1-4.59 3.7c-2.39-2.97-4.45-4.59-6.16-4.85-1.68-.22-3.9.77-6.65 2.99l-33.11 26.71c-2.7 2.18-4.14 4.11-4.32 5.8s.96 4.07 3.43 7.12l-4.59 3.7-23.48-29.11 4.58-3.69c2.33 2.89 4.35 4.4 6.04 4.53 1.7.18 3.88-.81 6.55-2.96l26.38-21.29-45.89-.94c-2.03 1.87-3.15 3.52-3.36 4.96-.23 1.68.87 4.03 3.29 7.03l-4.58 3.69z"/><path d="m1115.81 4864.04 5.12-2.9c1.87 3.29 3.61 5.19 5.24 5.69 1.67.52 4.03-.09 7.08-1.81l37.02-20.96c2.98-1.7 4.7-3.36 5.16-5 .5-1.62-.22-4.14-2.15-7.56l5.12-2.9 18.48 32.63-5.12 2.9c-1.85-3.26-3.62-5.12-5.3-5.59-1.64-.45-3.95.16-6.94 1.86l-29.17 16.51 45.09 8.37c2.05-1.33 3.31-2.69 3.78-4.09.55-1.62-.11-4.07-1.97-7.36l5.12-2.9 18.43 32.54-5.13 2.9c-1.88-3.32-3.64-5.25-5.28-5.78-1.63-.51-3.98.11-7.06 1.86l-37.02 20.96c-3.01 1.71-4.75 3.38-5.2 5.02s.29 4.17 2.22 7.58l-5.12 2.9-18.43-32.54 5.12-2.9c1.83 3.23 3.57 5.05 5.23 5.45 1.63.46 3.95-.16 6.93-1.85l29.5-16.7-45.12-8.41c-2.31 1.51-3.69 2.96-4.12 4.35-.5 1.62.19 4.11 2.09 7.47l-5.12 2.9zm98.98-25.44 1.8 3.18c-4.12 4.49-4.54 9.64-1.24 15.46 3.15 5.57 7.7 7.73 13.66 6.47l1.75 3.09c-4.17 2.32-8.6 3.08-13.28 2.28-4.68-.81-8.18-3.25-10.5-7.35-2.35-4.15-2.66-8.47-.91-12.96 1.75-4.48 4.66-7.87 8.72-10.17z"/><path d="m1241.11 4973.81 5.66-1.64 10.61 36.52-5.66 1.65-.31-1.07c-.99-3.43-2.28-5.48-3.85-6.15-1.58-.66-3.91-.55-7 .35l-40.85 11.87c-3.16.92-5.2 2.1-6.13 3.52-.93 1.44-.91 3.83.07 7.19l.31 1.07-5.65 1.65-10.62-36.53 5.66-1.64c1.06 3.67 2.33 5.94 3.8 6.82s3.91.83 7.3-.16l40.86-11.87c3.29-.96 5.36-2.18 6.2-3.65.84-1.48.71-4.12-.4-7.93z"/><path d="m1228 5049.27-19.52 3.22c-3.32.55-5.5 1.51-6.55 2.86-1.04 1.36-1.25 3.94-.62 7.74l-5.81.96-6.12-37 5.8-.96c.62 3.73 1.62 6.12 2.99 7.17 1.38 1.04 3.79 1.28 7.24.71l41.97-6.95c3.36-.55 5.54-1.51 6.57-2.88s1.22-4 .58-7.87l5.81-.96 6.12 37-5.81.96c-.61-3.7-1.62-6.05-3.02-7.05-1.4-1.01-3.79-1.23-7.18-.67l-15.91 2.63 4.83 29.15 15.91-2.63c3.27-.54 5.45-1.48 6.52-2.83 1.07-1.34 1.29-3.88.67-7.61l5.81-.96 6.11 36.89-5.81.97c-.63-3.77-1.62-6.18-2.97-7.23-1.36-1.05-3.78-1.28-7.27-.7l-41.97 6.94c-3.39.56-5.58 1.53-6.59 2.92s-1.19 4.02-.55 7.89l-5.81.96-6.1-36.9 5.8-.96c.61 3.66 1.62 5.98 3.04 6.95 1.41.96 3.79 1.17 7.14.62l19.52-3.24z"/><path d="m1231.34 5181.21-27 .35-.08-5.89c2.86-.71 5.14-1.74 6.86-3.11-6.09-5.9-9.2-13.74-9.33-23.54-.14-11.14 3.38-20.1 10.58-26.88 7.2-6.77 15.8-10.23 25.8-10.36 9.87-.13 18.68 3.06 26.44 9.58 7.76 6.51 11.72 15.6 11.87 27.27.12 8.73-2.67 16.18-8.35 22.33 1.81.79 3.96 1.51 6.44 2.15l.08 5.83-26.56 1.09-.08-5.83c7.19-1.83 12.61-4.74 16.25-8.73 3.65-3.99 5.43-8.69 5.36-14.1-.08-6.22-2.58-10.88-7.5-13.96-4.92-3.09-12.56-4.56-22.93-4.42-7.28.09-13.05.73-17.29 1.92-4.25 1.19-7.5 3.47-9.75 6.84-2.26 3.37-3.36 7.04-3.31 11 .07 5.23 1.95 9.87 5.65 13.93 3.7 4.05 9.29 6.93 16.77 8.64z"/><path d="m1265.27 5218.67.78-6c.46-3.57.41-6.25-.15-8.04-.55-1.78-1.9-3.39-4.05-4.82-2.15-1.44-4.79-2.49-7.92-3.14l.77-5.94 20.31 2.61-9.2 71.4-20.31-2.62.77-5.94c5.61-.42 9.51-1.53 11.68-3.31 2.17-1.79 3.55-4.91 4.12-9.37l.8-6.15-50.41-6.5c-3.26-.42-5.6-.16-7.02.78-1.43.94-2.36 3.18-2.82 6.73l-.24 1.84-5.84-.76 5.08-39.4 5.84.75-.22 1.69c-.46 3.57-.1 5.98 1.08 7.22 1.17 1.24 3.36 2.07 6.55 2.48z"/><path d="m1195.28 5254.3 5.65 1.63c-1.04 3.64-1.18 6.21-.4 7.72.81 1.56 2.89 2.82 6.26 3.79l40.88 11.76c3.3.95 5.69 1.01 7.18.19 1.51-.78 2.81-3.06 3.89-6.83l5.66 1.63-10.36 36.04-5.66-1.63c1.03-3.6 1.13-6.17.28-7.7-.82-1.49-2.88-2.71-6.18-3.66l-32.22-9.26 25.6 38.05c2.38.54 4.24.48 5.56-.17 1.54-.73 2.83-2.92 3.88-6.55l5.66 1.62-10.34 35.94-5.66-1.62c1.06-3.68 1.2-6.28.43-7.83-.78-1.51-2.87-2.76-6.27-3.73l-40.88-11.76c-3.33-.96-5.74-1.03-7.23-.21-1.49.83-2.77 3.13-3.86 6.9l-5.66-1.63 10.34-35.94 5.66 1.63c-1.03 3.57-1.11 6.08-.24 7.55.82 1.48 2.88 2.7 6.18 3.65l32.57 9.37-25.58-38.1c-2.7-.6-4.69-.56-5.99.1-1.51.78-2.8 3.02-3.86 6.72l-5.66-1.63z"/><path d="m1220.11 5386.45 2.52-5.49c1.51-3.28 2.27-5.85 2.27-7.72 0-1.86-.81-3.8-2.43-5.82-1.62-2.01-3.83-3.79-6.62-5.35l2.51-5.44 18.6 8.56-30.1 65.39-18.6-8.56 2.51-5.45c5.48 1.28 9.53 1.39 12.14.33 2.61-1.05 4.85-3.62 6.73-7.7l2.59-5.64-46.16-21.25c-2.99-1.37-5.3-1.82-6.94-1.35s-3.2 2.33-4.7 5.57l-.77 1.69-5.35-2.46 16.61-36.09 5.35 2.46-.71 1.54c-1.51 3.28-1.89 5.68-1.13 7.22.75 1.53 2.59 2.97 5.51 4.32z"/><path d="m1178.35 5460.45c-.68-.44-1.39-.75-2.12-.93-.73-.17-1.51-.26-2.36-.26l-20.36-.17 6.62 20.21c.29.86.65 1.58 1.07 2.15.43.58.92 1.03 1.45 1.38 1.04.67 2.13.68 3.28.01s2.41-2.06 3.77-4.16l4.94 3.2-15.48 23.91-4.94-3.2c.92-1.76 1.58-3.35 1.97-4.76s.55-2.88.48-4.4-.35-3.17-.83-4.96c-.49-1.79-1.15-3.92-1.98-6.41l-18.64-55.23c-.73-2.2-1.3-4.18-1.73-5.93-.42-1.75-.65-3.38-.68-4.89-.03-1.52.15-2.94.53-4.28.38-1.33 1-2.67 1.86-4 .56-.86 1.22-1.61 2-2.25.77-.64 1.6-1.1 2.48-1.39.88-.3 1.81-.38 2.78-.25.98.12 1.97.51 2.98 1.16 1.63 1.06 2.71 2.36 3.25 3.91.53 1.55.22 3.21-.93 4.99-.59.92-1.33 1.71-2.2 2.37s-1.63 1.5-2.28 2.5c-.83 1.28-1.29 2.54-1.4 3.77-.11 1.24.1 2.64.61 4.19l5.18 15.12 32.21-1.14c2.29-.07 4.25-.18 5.88-.3 1.64-.11 3.06-.28 4.25-.5s2.2-.49 3.03-.82c.82-.33 1.56-.75 2.2-1.26.65-.51 1.26-1.12 1.83-1.85.58-.72 1.21-1.55 1.9-2.49l4.95 3.2-21.83 33.7-4.95-3.2c.68-1.04 1.19-1.91 1.53-2.61.35-.7.58-1.3.67-1.81.1-.51.06-.94-.1-1.3-.17-.36-.47-.7-.89-1.02z"/><path d="m1132.4 5526.86 3.98-4.55c2.38-2.72 3.83-4.97 4.36-6.76s.3-3.89-.69-6.27c-.98-2.39-2.6-4.73-4.83-7.01l3.94-4.51 15.42 13.47-47.35 54.21-15.42-13.47 3.94-4.52c4.9 2.78 8.75 4.03 11.55 3.75 2.8-.27 5.68-2.1 8.63-5.48l4.09-4.68-38.28-33.43c-2.47-2.16-4.56-3.25-6.27-3.26-1.7-.01-3.73 1.33-6.08 4.02l-1.22 1.4-4.44-3.88 26.14-29.92 4.44 3.87-1.12 1.28c-2.37 2.72-3.41 4.92-3.13 6.6.29 1.69 1.65 3.59 4.07 5.71z"/></g></svg>