<?xml version="1.0" encoding="UTF-8" standalone="no"?>
<!DOCTYPE svg PUBLIC "-//W3C//DTD SVG 1.1//EN" "http://www.w3.org/Graphics/SVG/1.1/DTD/svg11.dtd">
<svg width="100%" height="100%" viewBox="0 0 824 1024" version="1.1" xmlns="http://www.w3.org/2000/svg" xmlns:xlink="http://www.w3.org/1999/xlink" xml:space="preserve" xmlns:serif="http://www.serif.com/" style="fill-rule:evenodd;clip-rule:evenodd;stroke-linejoin:round;stroke-miterlimit:2;">
    <g transform="matrix(1,0,0,1,-5506.99,-116)">
        <g transform="matrix(1.18242,0,0,0.907442,-984.254,10.5846)">
            <g transform="matrix(0.697844,0,0,0.909305,3888.21,-2296.7)">
                <path d="M2295.08,2653.53L3293.08,2653.53L3293.08,3634.25C3293.08,3686.28 3260.11,3732.59 3210.94,3749.62L2792.47,3894.53L2376.72,3748.56C2327.81,3731.38 2295.08,3685.19 2295.08,3633.36L2295.08,2653.53ZM2812.82,2848.31L2813.33,2848.31C2814.67,2852.05 2817.7,2853.92 2822.4,2853.92C2824.26,2853.92 2826.41,2853.56 2828.84,2852.82L2828.56,2846.31C2827.94,2846.42 2827.44,2846.47 2827.05,2846.47C2824.91,2846.47 2823.83,2844.78 2823.83,2841.41L2823.83,2822.35C2823.83,2813.38 2818.26,2808.89 2807.12,2808.89C2802.03,2808.89 2796.89,2809.89 2791.7,2811.87L2791.7,2819.88C2796.27,2817.31 2800.79,2816.03 2805.26,2816.03C2810.3,2816.03 2812.82,2818.27 2812.82,2822.74L2812.82,2826.66L2809.76,2826.66C2802.76,2826.66 2797.38,2827.95 2793.62,2830.53C2789.85,2833.1 2787.97,2836.77 2787.97,2841.53C2787.97,2845.19 2789.14,2848.17 2791.46,2850.47C2793.79,2852.77 2796.81,2853.92 2800.53,2853.92C2804.9,2853.92 2809,2852.05 2812.82,2848.31ZM2812.82,2842.08C2810.01,2844.72 2807.25,2846.04 2804.57,2846.04C2802.99,2846.04 2801.66,2845.49 2800.59,2844.41C2799.52,2843.33 2798.98,2841.99 2798.98,2840.39C2798.98,2835.68 2802.69,2833.33 2810.11,2833.33L2812.82,2833.33L2812.82,2842.08ZM3107.57,2852.94L3119.05,2852.94L3119.05,2833.76L3134.36,2833.76L3134.36,2852.94L3145.83,2852.94L3145.83,2809.87L3134.36,2809.87L3134.36,2826.5L3119.05,2826.5L3119.05,2809.87L3107.57,2809.87L3107.57,2852.94ZM2977.29,2764.42L2977.29,2756.2C2972.42,2758.02 2968.05,2758.93 2964.17,2758.93C2955.97,2758.93 2951.48,2754.79 2950.7,2746.52L2977.29,2746.52C2977.29,2737.86 2975.85,2731.52 2972.96,2727.52C2970.07,2723.52 2965.49,2721.51 2959.21,2721.51C2952.99,2721.51 2947.99,2723.56 2944.2,2727.66C2940.41,2731.75 2938.52,2737.16 2938.52,2743.88C2938.52,2750.99 2940.59,2756.6 2944.72,2760.7C2948.86,2764.81 2954.51,2766.87 2961.67,2766.87C2966.59,2766.87 2971.8,2766.05 2977.29,2764.42ZM2950.54,2739.93C2951.3,2732.52 2954.07,2728.82 2958.86,2728.82C2963.57,2728.82 2965.93,2732.52 2965.93,2739.93L2950.54,2739.93ZM2986.04,2781.49L2997.6,2781.49L2997.6,2761.49C3001.24,2765.08 3005.32,2766.87 3009.82,2766.87C3015.42,2766.87 3019.88,2764.71 3023.21,2760.39C3026.54,2756.07 3028.21,2750.28 3028.21,2743.01C3028.21,2736.32 3026.73,2731.06 3023.78,2727.24C3020.82,2723.42 3016.77,2721.51 3011.62,2721.51C3005.24,2721.51 3000.57,2724.57 2997.6,2730.68L2997.6,2722.5L2986.04,2722.5L2986.04,2781.49ZM2997.6,2754.54L2997.6,2737.36C3000.75,2732.91 3004.03,2730.68 3007.44,2730.68C3013.09,2730.68 3015.91,2735.12 3015.91,2743.99C3015.91,2748.63 3015.06,2752.34 3013.37,2755.12C3011.68,2757.89 3009.41,2759.28 3006.58,2759.28C3003.4,2759.28 3000.41,2757.7 2997.6,2754.54ZM2898.06,2765.88L2916.53,2765.88C2922.72,2765.88 2927.19,2765.02 2929.92,2763.29C2932.66,2761.57 2934.02,2758.73 2934.02,2754.78C2934.02,2751.86 2933.1,2749.43 2931.25,2747.49C2929.4,2745.55 2926.64,2744.12 2922.97,2743.2C2926.07,2742.26 2928.4,2740.88 2929.96,2739.08C2931.52,2737.27 2932.3,2735.04 2932.3,2732.38C2932.3,2729.09 2930.86,2726.62 2927.97,2724.97C2925.08,2723.33 2920.76,2722.5 2915.01,2722.5L2898.06,2722.5L2898.06,2765.88ZM2908.88,2758.81L2908.88,2746.76L2912.27,2746.76C2915.71,2746.76 2918.29,2747.33 2920.01,2748.48C2921.72,2749.62 2922.58,2751.34 2922.58,2753.63C2922.58,2755.74 2921.88,2757.13 2920.47,2757.8C2919.07,2758.47 2916.18,2758.81 2911.8,2758.81L2908.88,2758.81ZM2908.88,2740.16L2908.88,2729.57L2912.47,2729.57C2915.33,2729.57 2917.48,2729.96 2918.91,2730.74C2920.34,2731.52 2921.06,2732.68 2921.06,2734.24C2921.06,2736.21 2920.32,2737.69 2918.85,2738.68C2917.38,2739.67 2915.19,2740.16 2912.27,2740.16L2908.88,2740.16ZM2623.39,2853.92C2630.35,2853.92 2635.8,2851.92 2639.76,2847.92C2643.71,2843.92 2645.69,2838.39 2645.69,2831.33C2645.69,2824.43 2643.72,2818.96 2639.77,2814.93C2635.83,2810.91 2630.46,2808.89 2623.67,2808.89C2616.89,2808.89 2611.54,2810.91 2607.6,2814.93C2603.66,2818.96 2601.68,2824.45 2601.68,2831.41C2601.68,2838.28 2603.64,2843.76 2607.56,2847.82C2611.47,2851.89 2616.75,2853.92 2623.39,2853.92ZM2623.59,2846.67C2620.59,2846.67 2618.23,2845.29 2616.49,2842.55C2614.76,2839.8 2613.9,2836.09 2613.9,2831.41C2613.9,2826.67 2614.77,2822.95 2616.51,2820.23C2618.26,2817.51 2620.64,2816.15 2623.67,2816.15C2626.72,2816.15 2629.11,2817.51 2630.86,2820.23C2632.6,2822.95 2633.47,2826.65 2633.47,2831.33C2633.47,2841.55 2630.18,2846.67 2623.59,2846.67ZM2559.15,2852.94L2572.61,2852.94C2581.32,2852.94 2587.38,2851.86 2590.79,2849.69C2595.78,2846.52 2598.27,2841.68 2598.27,2835.17C2598.27,2829.24 2596.09,2824.88 2591.72,2822.11C2589.76,2820.86 2587.73,2820.05 2585.65,2819.68C2583.57,2819.31 2579.93,2819.13 2574.74,2819.13L2570.86,2819.13L2570.86,2802.85L2593.23,2802.85L2593.23,2794.89L2559.15,2794.89L2559.15,2852.94ZM2570.86,2845.49L2570.86,2826.62L2574.31,2826.62C2578.4,2826.62 2581.46,2827.37 2583.5,2828.88C2585.54,2830.38 2586.56,2832.64 2586.56,2835.64C2586.56,2838.94 2585.5,2841.4 2583.36,2843.04C2581.23,2844.67 2578.05,2845.49 2573.81,2845.49L2570.86,2845.49ZM3041.58,2852.94L3053.06,2852.94L3053.06,2809.87L3041.58,2809.87L3041.58,2829.8C3039.46,2830.9 3037.3,2831.45 3035.11,2831.45C3032.65,2831.45 3031.01,2830.81 3030.16,2829.53C3029.33,2828.24 3028.91,2825.72 3028.91,2821.95L3028.91,2809.87L3017.43,2809.87L3017.43,2820.5C3017.43,2827.51 3018.43,2832.29 3020.41,2834.84C3022.41,2837.39 3026.14,2838.66 3031.62,2838.66C3034.85,2838.66 3038.17,2838.02 3041.58,2836.74L3041.58,2852.94ZM2836.39,3407.94L3093.39,3488.88L3238.41,3463.67L3182.68,3407.94L2836.39,3407.94ZM2360.45,2807.87L2370.72,2807.87L2370.72,2799.19L2360.45,2799.19L2360.45,2807.87ZM2784.29,2852L2784.29,2843.96C2780.64,2845.48 2777.1,2846.23 2773.67,2846.23C2769.89,2846.23 2766.88,2844.87 2764.61,2842.16C2762.35,2839.43 2761.22,2835.81 2761.22,2831.29C2761.22,2826.87 2762.27,2823.33 2764.36,2820.66C2766.45,2817.99 2769.22,2816.66 2772.66,2816.66C2775.47,2816.66 2779.24,2817.43 2783.94,2818.97L2783.94,2810.58C2779.42,2809.45 2775.42,2808.89 2771.96,2808.89C2764.8,2808.89 2759.19,2810.88 2755.14,2814.86C2751.08,2818.83 2749.05,2824.33 2749.05,2831.37C2749.05,2838.32 2751.02,2843.82 2754.96,2847.86C2758.9,2851.9 2764.27,2853.92 2771.07,2853.92C2775.13,2853.92 2779.53,2853.28 2784.29,2852ZM3222.41,2848.31L3222.91,2848.31C3224.25,2852.05 3227.28,2853.92 3231.98,2853.92C3233.84,2853.92 3235.99,2853.56 3238.41,2852.82L3238.14,2846.31C3237.52,2846.42 3237.02,2846.47 3236.63,2846.47C3234.49,2846.47 3233.41,2844.78 3233.41,2841.41L3233.41,2822.35C3233.41,2813.38 3227.85,2808.89 3216.71,2808.89C3211.61,2808.89 3206.47,2809.89 3201.28,2811.87L3201.28,2819.88C3205.85,2817.31 3210.37,2816.03 3214.85,2816.03C3219.89,2816.03 3222.41,2818.27 3222.41,2822.74L3222.41,2826.66L3219.34,2826.66C3212.34,2826.66 3206.96,2827.95 3203.2,2830.53C3199.43,2833.1 3197.56,2836.77 3197.56,2841.53C3197.56,2845.19 3198.72,2848.17 3201.04,2850.47C3203.37,2852.77 3206.39,2853.92 3210.12,2853.92C3214.48,2853.92 3218.58,2852.05 3222.41,2848.31ZM3222.41,2842.08C3219.59,2844.72 3216.84,2846.04 3214.15,2846.04C3212.57,2846.04 3211.25,2845.49 3210.17,2844.41C3209.1,2843.33 3208.57,2841.99 3208.57,2840.39C3208.57,2835.68 3212.27,2833.33 3219.69,2833.33L3222.41,2833.33L3222.41,2842.08ZM2472.13,2715.19L2480.8,2715.19L2480.8,2706.42L2472.13,2706.42L2472.13,2715.19ZM3213.35,2765.88L3224.94,2765.88L3224.94,2730.28L3238.41,2730.28L3238.41,2722.5L3199.88,2722.5L3199.88,2730.28L3213.35,2730.28L3213.35,2765.88ZM2875.25,2765.88L2886.81,2765.88L2886.81,2722.5L2875.25,2722.5L2875.25,2765.88ZM2360.45,2852.94L2370.72,2852.94L2370.72,2814.37L2360.45,2814.37L2360.45,2852.94ZM2875.25,2715.19L2886.81,2715.19L2886.81,2705.43L2875.25,2705.43L2875.25,2715.19ZM2462.26,2851.64L2462.26,2844.34C2457.93,2845.95 2454.04,2846.76 2450.59,2846.76C2443.3,2846.76 2439.3,2843.08 2438.61,2835.73L2462.26,2835.73C2462.26,2828.02 2460.97,2822.39 2458.4,2818.83C2455.83,2815.27 2451.76,2813.49 2446.18,2813.49C2440.65,2813.49 2436.2,2815.31 2432.83,2818.95C2429.46,2822.6 2427.78,2827.4 2427.78,2833.37C2427.78,2839.7 2429.62,2844.69 2433.3,2848.34C2436.98,2851.99 2442,2853.82 2448.37,2853.82C2452.74,2853.82 2457.37,2853.09 2462.26,2851.64ZM2438.47,2829.86C2439.14,2823.28 2441.61,2819.99 2445.87,2819.99C2450.06,2819.99 2452.15,2823.28 2452.15,2829.86L2438.47,2829.86ZM2380.73,2852.94L2388.02,2852.94L2388.02,2828.77L2388.05,2828.77L2396.28,2850.34L2402.88,2850.34L2411.73,2826.35L2411.77,2826.35L2411.77,2852.94L2421.21,2852.94L2421.21,2814.37L2410.8,2814.37L2401.18,2841.03L2401.11,2841.03L2390.62,2814.37L2380.73,2814.37L2380.73,2852.94ZM2825.47,2765.88L2837.02,2765.88L2837.02,2746.56L2852.45,2746.56L2852.45,2765.88L2864.01,2765.88L2864.01,2722.5L2852.45,2722.5L2852.45,2739.25L2837.02,2739.25L2837.02,2722.5L2825.47,2722.5L2825.47,2765.88ZM2948.57,2852.94L2960.05,2852.94L2960.05,2809.87L2948.57,2809.87L2948.57,2852.94ZM2702.49,2852.94L2713.96,2852.94L2730.94,2823.33L2730.94,2852.94L2741.72,2852.94L2741.72,2809.87L2730.24,2809.87L2713.26,2839.49L2713.26,2809.87L2702.49,2809.87L2702.49,2852.94ZM2820.24,3813.06C2820.24,3806.74 2821.12,3800.18 2822.89,3793.37C2824.66,3786.56 2826.62,3780.8 2828.78,3776.08C2830.93,3771.36 2833.43,3766.68 2836.28,3762.07C2839.13,3757.45 2841.09,3754.41 2842.16,3752.95C2843.24,3751.49 2844.13,3750.35 2844.82,3749.51L2844.82,3740.14L2788.36,3740.14L2788.36,3754.2L2823.78,3754.2L2821.8,3757.22C2820.41,3759.31 2818.74,3762.28 2816.8,3766.13C2814.85,3769.98 2812.93,3774.25 2811.02,3778.94C2809.11,3783.63 2807.47,3789.05 2806.12,3795.19C2804.77,3801.34 2804.09,3807.29 2804.09,3813.06L2820.24,3813.06ZM3098.88,2851.49L3098.88,2843.33C3094.05,2845.14 3089.71,2846.04 3085.86,2846.04C3077.72,2846.04 3073.26,2841.93 3072.48,2833.72L3098.88,2833.72C3098.88,2825.12 3097.45,2818.83 3094.58,2814.86C3091.71,2810.88 3087.16,2808.89 3080.93,2808.89C3074.76,2808.89 3069.79,2810.93 3066.03,2814.99C3062.27,2819.06 3060.39,2824.43 3060.39,2831.09C3060.39,2838.15 3062.44,2843.72 3066.55,2847.8C3070.66,2851.88 3076.27,2853.92 3083.38,2853.92C3088.26,2853.92 3093.43,2853.11 3098.88,2851.49ZM3072.33,2827.17C3073.08,2819.82 3075.83,2816.15 3080.59,2816.15C3085.26,2816.15 3087.6,2819.82 3087.6,2827.17L3072.33,2827.17ZM2714.12,2702.51C2714.12,2706.75 2715.2,2709.93 2717.36,2712.03C2719.52,2714.14 2722.78,2715.19 2727.12,2715.19C2731.45,2715.19 2734.69,2714.14 2736.87,2712.03C2739.04,2709.93 2740.13,2706.75 2740.13,2702.51L2731.93,2702.51L2731.97,2703.38C2731.97,2705.62 2731.56,2707.29 2730.76,2708.4C2729.95,2709.5 2728.74,2710.06 2727.12,2710.06C2725.51,2710.06 2724.31,2709.51 2723.51,2708.42C2722.72,2707.33 2722.32,2705.67 2722.32,2703.46L2722.32,2702.51L2714.12,2702.51ZM2561.08,2764.93L2561.08,2756.83C2557.41,2758.36 2553.85,2759.12 2550.39,2759.12C2546.58,2759.12 2543.55,2757.76 2541.27,2755.02C2538.99,2752.28 2537.85,2748.63 2537.85,2744.07C2537.85,2739.62 2538.91,2736.05 2541.01,2733.37C2543.12,2730.68 2545.91,2729.34 2549.37,2729.34C2552.21,2729.34 2555.99,2730.11 2560.73,2731.67L2560.73,2723.21C2556.18,2722.08 2552.16,2721.51 2548.67,2721.51C2541.46,2721.51 2535.81,2723.52 2531.72,2727.52C2527.63,2731.52 2525.59,2737.07 2525.59,2744.15C2525.59,2751.16 2527.58,2756.7 2531.55,2760.76C2535.51,2764.83 2540.92,2766.87 2547.77,2766.87C2551.86,2766.87 2556.29,2766.22 2561.08,2764.93ZM2859.29,2852.94L2871.23,2852.94L2871.23,2803.09L2894.22,2803.09L2894.22,2794.89L2859.29,2794.89L2859.29,2852.94ZM2568.82,2765.88L2583.77,2765.88C2590.98,2765.88 2596.24,2764.77 2599.53,2762.54C2602.82,2760.32 2604.47,2756.77 2604.47,2751.89C2604.47,2747.15 2602.95,2743.73 2599.9,2741.62C2596.85,2739.52 2591.95,2738.46 2585.18,2738.46L2580.38,2738.46L2580.38,2722.5L2568.82,2722.5L2568.82,2765.88ZM2580.38,2758.57L2580.38,2745.77L2583.93,2745.77C2586.92,2745.77 2589.17,2746.29 2590.66,2747.33C2592.16,2748.37 2592.91,2749.92 2592.91,2751.97C2592.91,2754.19 2592.15,2755.84 2590.63,2756.93C2589.1,2758.03 2586.83,2758.57 2583.81,2758.57L2580.38,2758.57ZM2611.73,2765.88L2622.55,2765.88L2622.55,2747.87L2626.41,2747.87C2628.94,2750.39 2631.82,2754.69 2635.05,2760.74L2636.84,2764.1C2637,2764.39 2637.32,2764.99 2637.82,2765.88L2650.04,2765.88C2649.18,2764.64 2648.62,2763.81 2648.36,2763.39L2646.02,2759.4L2643.83,2755.81L2642.54,2753.47C2640.69,2750.18 2639.08,2747.91 2637.7,2746.64C2636.32,2745.38 2634.38,2744.43 2631.88,2743.8C2634.75,2742.85 2636.88,2741.1 2638.29,2738.54L2639.5,2736.33L2640.67,2734.2C2641.68,2732.3 2642.53,2731.1 2643.21,2730.58C2643.88,2730.07 2644.91,2729.81 2646.29,2729.81L2647.38,2729.81L2647.38,2722.5L2645.67,2722.54C2642.12,2722.54 2639.57,2723.02 2638.01,2723.98C2636.45,2724.95 2634.8,2727.06 2633.05,2730.32L2631.92,2732.38C2629.92,2736.12 2628.43,2738.41 2627.45,2739.25C2626.47,2740.1 2624.84,2740.52 2622.55,2740.52L2622.55,2722.5L2611.73,2722.5L2611.73,2765.88ZM2656.6,2765.88L2668.16,2765.88L2685.26,2736.05L2685.26,2765.88L2696.12,2765.88L2696.12,2722.5L2684.56,2722.5L2667.46,2752.33L2667.46,2722.5L2656.6,2722.5L2656.6,2765.88ZM2841.8,3788.58L2841.8,3797.95L2878.26,3797.95L2878.26,3813.06L2893.16,3813.06L2893.16,3797.95L2901.07,3797.95L2901.07,3784.72L2893.16,3784.72L2893.16,3768.47L2878.26,3768.47L2878.26,3784.72L2860.76,3784.72L2885.14,3740.14L2868.26,3740.14L2841.8,3788.58ZM2948.57,2802.62L2960.05,2802.62L2960.05,2792.93L2948.57,2792.93L2948.57,2802.62ZM2793.13,2763.95L2792.35,2765.57L2790.79,2768.84C2789.9,2770.64 2788.69,2771.89 2787.14,2772.6C2785.59,2773.31 2783.3,2773.66 2780.28,2773.66L2779.19,2773.66L2779.19,2781.49L2780.44,2781.49C2787.37,2781.49 2791.93,2780.66 2794.15,2779.02C2796.36,2777.37 2799.11,2772.74 2802.39,2765.13L2820.82,2722.5L2811.33,2722.5L2799.11,2750.63L2787.47,2722.5L2776.11,2722.5L2793.13,2763.95ZM2899.14,2868.43L2910.62,2868.43L2910.62,2848.59C2914.24,2852.14 2918.28,2853.92 2922.75,2853.92C2928.31,2853.92 2932.74,2851.78 2936.05,2847.49C2939.36,2843.2 2941.01,2837.45 2941.01,2830.23C2941.01,2823.59 2939.54,2818.37 2936.61,2814.58C2933.68,2810.79 2929.65,2808.89 2924.53,2808.89C2918.2,2808.89 2913.56,2811.93 2910.62,2817.99L2910.62,2809.87L2899.14,2809.87L2899.14,2868.43ZM2910.62,2841.68L2910.62,2824.62C2913.74,2820.2 2917,2817.99 2920.39,2817.99C2925.99,2817.99 2928.8,2822.4 2928.8,2831.21C2928.8,2835.81 2927.96,2839.49 2926.28,2842.25C2924.6,2845.01 2922.35,2846.39 2919.53,2846.39C2916.38,2846.39 2913.41,2844.82 2910.62,2841.68ZM3157,2852.94L3167.74,2852.94L3167.74,2835.05L3171.58,2835.05C3174.09,2837.57 3176.94,2841.83 3180.14,2847.84L3181.93,2851.18C3182.08,2851.46 3182.41,2852.05 3182.9,2852.94L3195.03,2852.94C3194.18,2851.71 3193.62,2850.89 3193.37,2850.47L3191.04,2846.51L3188.87,2842.94L3187.59,2840.62C3185.75,2837.36 3184.15,2835.09 3182.78,2833.84C3181.41,2832.58 3179.49,2831.64 3177.01,2831.01C3179.85,2830.07 3181.97,2828.34 3183.36,2825.8L3184.57,2823.6L3185.73,2821.48C3186.74,2819.6 3187.58,2818.41 3188.25,2817.89C3188.92,2817.39 3189.94,2817.13 3191.31,2817.13L3192.4,2817.13L3192.4,2809.87L3190.69,2809.91C3187.18,2809.91 3184.64,2810.39 3183.09,2811.34C3181.54,2812.3 3179.9,2814.4 3178.17,2817.64L3177.04,2819.68C3175.05,2823.39 3173.57,2825.67 3172.61,2826.5C3171.64,2827.34 3170.01,2827.76 3167.74,2827.76L3167.74,2809.87L3157,2809.87L3157,2852.94ZM3075.19,2765.88L3086.75,2765.88L3103.85,2736.05L3103.85,2765.88L3114.7,2765.88L3114.7,2722.5L3103.15,2722.5L3086.05,2752.33L3086.05,2722.5L3075.19,2722.5L3075.19,2765.88ZM2771.5,3424.25L2500.88,3504.71L2439.43,3612.53L2624.86,3594.2L2771.5,3424.25ZM2793.38,2962.77L2722.24,3052.16L2864.53,3052.16L2793.38,2962.77ZM3067.45,2764.93L3067.45,2756.83C3063.78,2758.36 3060.22,2759.12 3056.76,2759.12C3052.96,2759.12 3049.92,2757.76 3047.64,2755.02C3045.36,2752.28 3044.22,2748.63 3044.22,2744.07C3044.22,2739.62 3045.28,2736.05 3047.39,2733.37C3049.49,2730.68 3052.28,2729.34 3055.74,2729.34C3058.58,2729.34 3062.37,2730.11 3067.1,2731.67L3067.1,2723.21C3062.55,2722.08 3058.53,2721.51 3055.04,2721.51C3047.83,2721.51 3042.18,2723.52 3038.09,2727.52C3034.01,2731.52 3031.96,2737.07 3031.96,2744.15C3031.96,2751.16 3033.95,2756.7 3037.92,2760.76C3041.89,2764.83 3047.29,2766.87 3054.14,2766.87C3058.23,2766.87 3062.67,2766.22 3067.45,2764.93ZM2971.22,2852.94L2982.69,2852.94L2982.69,2833.76L2998,2833.76L2998,2852.94L3009.48,2852.94L3009.48,2809.87L2998,2809.87L2998,2826.5L2982.69,2826.5L2982.69,2809.87L2971.22,2809.87L2971.22,2852.94ZM2411.56,2765.88L2423.12,2765.88L2440.22,2736.05L2440.22,2765.88L2451.08,2765.88L2451.08,2722.5L2439.52,2722.5L2422.42,2752.33L2422.42,2722.5L2411.56,2722.5L2411.56,2765.88ZM2794.08,3424.25L2647.26,3608.73L2792.33,3707.07L2940.9,3608.73L2794.08,3424.25ZM2881.34,3071.1C2845.25,3071.1 2815.33,3076.72 2793.38,3089.6C2761.11,3074.43 2730.63,3068.41 2701.86,3071.1L2412.97,3389.55L3171.68,3389.55L2881.34,3071.1ZM2799.17,3102.97C2823.72,3090.56 2848.22,3085.64 2872.69,3087.95L3105.93,3339.95C3008.4,3291.85 2906.45,3295.33 2799.17,3361.08L2799.17,3102.97ZM2770.39,3371.83L2451.33,3371.83C2540.73,3313.79 2662.98,3305.54 2770.39,3371.83ZM2784.84,3102.97L2784.84,3361.08C2677.56,3295.33 2575.61,3291.85 2478.08,3339.95L2711.32,3087.95C2735.79,3085.64 2760.29,3090.56 2784.84,3102.97ZM2813.61,3371.83C2921.03,3305.54 3043.28,3313.79 3132.68,3371.83L2813.61,3371.83ZM2485.13,2765.88L2503.6,2765.88C2509.8,2765.88 2514.26,2765.02 2517,2763.29C2519.73,2761.57 2521.1,2758.73 2521.1,2754.78C2521.1,2751.86 2520.17,2749.43 2518.32,2747.49C2516.48,2745.55 2513.72,2744.12 2510.05,2743.2C2513.14,2742.26 2515.47,2740.88 2517.04,2739.08C2518.6,2737.27 2519.38,2735.04 2519.38,2732.38C2519.38,2729.09 2517.93,2726.62 2515.04,2724.97C2512.16,2723.33 2507.83,2722.5 2502.08,2722.5L2485.13,2722.5L2485.13,2765.88ZM2495.95,2758.81L2495.95,2746.76L2499.35,2746.76C2502.78,2746.76 2505.36,2747.33 2507.08,2748.48C2508.8,2749.62 2509.66,2751.34 2509.66,2753.63C2509.66,2755.74 2508.95,2757.13 2507.55,2757.8C2506.14,2758.47 2503.25,2758.81 2498.88,2758.81L2495.95,2758.81ZM2495.95,2740.16L2495.95,2729.57L2499.54,2729.57C2502.41,2729.57 2504.55,2729.96 2505.99,2730.74C2507.42,2731.52 2508.13,2732.68 2508.13,2734.24C2508.13,2736.21 2507.4,2737.69 2505.93,2738.68C2504.46,2739.67 2502.26,2740.16 2499.35,2740.16L2495.95,2740.16ZM2462.33,2765.88L2473.89,2765.88L2473.89,2722.5L2462.33,2722.5L2462.33,2765.88ZM2514.31,2852.94L2524.59,2852.94L2524.59,2814.37L2514.31,2814.37L2514.31,2852.94ZM2360.45,2765.88L2372.01,2765.88L2372.01,2739.57L2376.57,2739.57C2379.07,2742.47 2381.98,2746.93 2385.28,2752.96L2388.48,2758.97L2391.06,2763.59C2391.24,2763.93 2391.62,2764.7 2392.19,2765.88L2405.35,2765.88C2403.03,2762.14 2401.15,2758.89 2399.69,2756.12L2397.31,2751.46L2395.71,2748.54C2393.31,2744.03 2391.18,2740.91 2389.32,2739.17C2387.46,2737.44 2384.93,2736.17 2381.73,2735.38C2385.16,2733.75 2387.78,2731.39 2389.58,2728.31L2391.26,2725.5L2392.93,2722.62L2394.5,2720.05C2395.88,2717.79 2397,2716.37 2397.88,2715.8C2398.75,2715.24 2400.24,2714.96 2402.35,2714.96L2402.35,2707.41C2400.91,2707.46 2399.99,2707.49 2399.57,2707.49C2396.14,2707.49 2393.49,2708.15 2391.65,2709.47C2389.8,2710.78 2387.64,2713.53 2385.16,2717.72L2382.94,2721.47C2379.97,2726.48 2377.98,2729.49 2376.97,2730.5C2375.95,2731.52 2374.3,2732.1 2372.01,2732.26L2372.01,2707.41L2360.45,2707.41L2360.45,2765.88ZM3244.82,2892.86L2350.65,2892.86L2350.65,2909.3L3244.82,2909.3L3244.82,2892.86ZM2748.55,3407.94L2402.26,3407.94L2346.53,3463.67L2491.56,3488.88L2748.55,3407.94ZM2470.03,2852.94L2480.31,2852.94L2480.31,2835.76L2494.03,2835.76L2494.03,2852.94L2504.3,2852.94L2504.3,2814.37L2494.03,2814.37L2494.03,2829.26L2480.31,2829.26L2480.31,2814.37L2470.03,2814.37L2470.03,2852.94ZM2514.31,2807.87L2524.59,2807.87L2524.59,2799.19L2514.31,2799.19L2514.31,2807.87ZM2653.05,2868.43L2664.53,2868.43L2664.53,2848.59C2668.15,2852.14 2672.19,2853.92 2676.66,2853.92C2682.22,2853.92 2686.65,2851.78 2689.96,2847.49C2693.27,2843.2 2694.92,2837.45 2694.92,2830.23C2694.92,2823.59 2693.46,2818.37 2690.52,2814.58C2687.59,2810.79 2683.57,2808.89 2678.45,2808.89C2672.12,2808.89 2667.48,2811.93 2664.53,2817.99L2664.53,2809.87L2653.05,2809.87L2653.05,2868.43ZM2664.53,2841.68L2664.53,2824.62C2667.66,2820.2 2670.91,2817.99 2674.3,2817.99C2679.91,2817.99 2682.71,2822.4 2682.71,2831.21C2682.71,2835.81 2681.87,2839.49 2680.19,2842.25C2678.51,2845.01 2676.26,2846.39 2673.45,2846.39C2670.29,2846.39 2667.32,2844.82 2664.53,2841.68ZM2707.37,2765.88L2718.92,2765.88L2736.03,2736.05L2736.03,2765.88L2746.88,2765.88L2746.88,2722.5L2735.32,2722.5L2718.22,2752.33L2718.22,2722.5L2707.37,2722.5L2707.37,2765.88ZM3132.9,2765.88L3144.5,2765.88L3144.5,2730.28L3157.97,2730.28L3157.97,2722.5L3119.43,2722.5L3119.43,2730.28L3132.9,2730.28L3132.9,2765.88ZM2683.87,3767.33C2689.92,3766.22 2695.4,3763.82 2700.33,3760.14L2700.33,3813.06L2716.06,3813.06L2716.06,3740.14L2703.25,3740.14C2702.76,3742.71 2700.7,3745.16 2697.05,3747.48C2693.41,3749.81 2689.01,3751.46 2683.87,3752.43L2683.87,3767.33ZM3197.65,2764.42L3197.65,2756.2C3192.78,2758.02 3188.41,2758.93 3184.53,2758.93C3176.33,2758.93 3171.84,2754.79 3171.06,2746.52L3197.65,2746.52C3197.65,2737.86 3196.2,2731.52 3193.31,2727.52C3190.42,2723.52 3185.84,2721.51 3179.57,2721.51C3173.35,2721.51 3168.34,2723.56 3164.56,2727.66C3160.77,2731.75 3158.87,2737.16 3158.87,2743.88C3158.87,2750.99 3160.94,2756.6 3165.08,2760.7C3169.22,2764.81 3174.87,2766.87 3182.03,2766.87C3186.95,2766.87 3192.16,2766.05 3197.65,2764.42ZM3170.9,2739.93C3171.66,2732.52 3174.43,2728.82 3179.22,2728.82C3183.93,2728.82 3186.28,2732.52 3186.28,2739.93L3170.9,2739.93ZM2738.04,3776.49C2730.54,3780.52 2726.79,3786.18 2726.79,3793.47C2726.79,3799.59 2729.5,3804.6 2734.92,3808.53C2740.34,3812.45 2747.25,3814.41 2755.65,3814.41C2764.05,3814.41 2770.95,3812.45 2776.33,3808.53C2781.71,3804.6 2784.4,3799.59 2784.4,3793.47C2784.4,3789.93 2783.43,3786.69 2781.48,3783.73C2779.54,3780.78 2776.8,3778.37 2773.25,3776.49C2779.3,3772.47 2782.32,3767.12 2782.32,3760.45C2782.32,3754.41 2779.82,3749.43 2774.82,3745.5C2769.82,3741.58 2763.43,3739.62 2755.65,3739.62C2747.87,3739.62 2741.46,3741.58 2736.43,3745.5C2731.39,3749.43 2728.88,3754.41 2728.88,3760.45C2728.88,3767.12 2731.93,3772.47 2738.04,3776.49ZM2742.11,3791.7C2742.11,3789.06 2743.37,3786.89 2745.91,3785.19C2748.44,3783.49 2751.69,3782.64 2755.65,3782.64C2759.54,3782.64 2762.77,3783.49 2765.34,3785.19C2767.91,3786.89 2769.19,3789.06 2769.19,3791.7C2769.19,3794.34 2767.91,3796.53 2765.34,3798.27C2762.77,3800 2759.54,3800.87 2755.65,3800.87C2751.69,3800.87 2748.44,3800 2745.91,3798.27C2743.37,3796.53 2742.11,3794.34 2742.11,3791.7ZM2755.65,3771.18C2752.32,3771.18 2749.57,3770.33 2747.42,3768.63C2745.27,3766.93 2744.19,3764.76 2744.19,3762.12C2744.19,3759.55 2745.27,3757.41 2747.42,3755.71C2749.57,3754.01 2752.32,3753.16 2755.65,3753.16C2758.91,3753.16 2761.64,3754.01 2763.83,3755.71C2766.01,3757.41 2767.11,3759.55 2767.11,3762.12C2767.11,3764.76 2766.03,3766.93 2763.88,3768.63C2761.73,3770.33 2758.98,3771.18 2755.65,3771.18ZM2455.77,2715.19L2464.44,2715.19L2464.44,2706.42L2455.77,2706.42L2455.77,2715.19ZM2813.45,3424.25L2960.09,3594.2L3145.52,3612.53L3084.07,3504.71L2813.45,3424.25Z" style="fill:white;"/>
            </g>
        </g>
    </g>
</svg>
