<svg clip-rule="evenodd" fill-rule="evenodd" stroke-linejoin="round" stroke-miterlimit="2" viewBox="0 0 953 1024" xmlns="http://www.w3.org/2000/svg"><g fill="#fff"><path d="m1158.6 4928.6-1.39-205.21 35.35.27 97.77 169.45c-9.24 10.15-16.43 22.2-20.91 35.49zm105.58-204.39 100.42.77 101.99-.78-79.74 138.52c-7.16-1.62-14.61-2.47-22.25-2.47-7.15 0-14.13.74-20.85 2.17zm274.04-.56 33.77-.26-1.39 205.21h-110.82c-4.33-12.83-11.17-24.5-19.95-34.43zm31.94 269.08-.32 48.04c-2.37 46.88-22.56 87.88-52.87 119.89l-77.08-133.59c8.75-9.9 15.57-21.55 19.89-34.34zm-102.02 206.9c-31.52 18.88-67.48 30.64-103.54 33.53-35.62-2.85-71.14-14.36-102.38-32.83l81.43-141.44c6.75 1.43 13.76 2.19 20.95 2.19 7.68 0 15.16-.86 22.34-2.5zm-254.94-37.94c-30.85-32.16-51.44-73.53-53.84-120.92l-.33-48.04h110.39c4.47 13.25 11.63 25.28 20.84 35.41z" transform="matrix(1.0720883898 0 0 1.07208395431 -986.63243351134 -4872.87065866)"/><path d="m1364.6 4847.06c62.7 0 113.6 50.9 113.6 113.6s-50.9 113.6-113.6 113.6-113.6-50.9-113.6-113.6 50.9-113.6 113.6-113.6zm0 5.84c-59.51 0-107.82 48.31-107.82 107.82s48.31 107.82 107.82 107.82 107.82-48.31 107.82-107.82-48.31-107.82-107.82-107.82z" transform="matrix(.92841782468 0 0 .92841494847 -790.57962966861 -4160.33663748085)"/><path d="m1356.38 4970.07v-3.51c-18.49-1.1-34.44-11.7-43.02-26.99h-3.39c-2.91 0-5.28-2.36-5.28-5.28 0-2.91 2.37-5.27 5.28-5.27h99.17c2.91 0 5.28 2.36 5.28 5.27 0 2.92-2.37 5.28-5.28 5.28h-3.39c-8.12 14.47-22.84 24.74-40.07 26.73v3.77h13.51c16.46-1.28 31.64-9.94 38.17-27.76 5.08-18.38 2.85-36.83-19.02-47.72-16.66-8.3-33.21-11.48-51.37 8.06.91 2.23 1.52 4.68-.33 8.85-4.34 5.17-8.59 10.71-13.83 12.38-2.97-.17-5.36-3.21-6.79-11.1.76-5.87 3.63-10.77 8.72-14.68 28.31-29.99 72.85-19.69 88.96 5.69 9.87 15.56 10.05 31.1 3.6 46.61-9.82 19.64-23.57 26.5-39.06 27.68-.39.13-.8.2-1.23.2h-3.33c-.47 0-.95 0-1.43 0h-52.13c-2.26 0-4.1-1.84-4.1-4.11s1.84-4.1 4.1-4.1zm34.73 18.47c0 2.27-1.84 4.11-4.1 4.11h-56.89c-2.26 0-4.1-1.84-4.1-4.11 0-2.26 1.84-4.1 4.1-4.1h56.89c2.26 0 4.1 1.84 4.1 4.1zm-37.33 10.79h12.93c11.34 16.87 28.18 22.6 47.32 23.68l.39 7.58h-106.78v-7.27c19.48-2.8 34.84-10.82 46.14-23.99zm31.08 7.47-9.85-8.37h11.92c2.31 0 4.18 1.88 4.18 4.18 0 2.31-1.87 4.19-4.18 4.19z" transform="matrix(1.0720883898 0 0 1.07208395431 -986.63243351134 -4872.87065866)"/><path d="m1457.44 4674.58c23.8 10.43 48.64 21.72 64.83 22.17 7.15-.49 10.75-2.59 12.22-5.62 1.09-2.25.99-4.9.51-7.49-.53-2.86-1.55-5.64-2.29-7.83-.63-1.87-1.04-3.39-1-4.32.04-.88.38-1.49.84-1.89.55-.48 1.51-.83 3.04-.31l.21.07.18.12c12.65 8.45 16.4 20.4 11.15 30-.83 1.52-2.02 2.34-3.45 3-1.49.7-3.33 1.17-5.05 2.97 0 .07-.01.24-.01.35.02.21.05.43.09.65.13.69.29 1.43.35 2.16.04.42.04.85-.01 1.26h48.74v119.49c2.72-.51 5.6-.37 8.55.65-2.45-43.72 6.43-81.65 24.99-107.78.53-.75 1.57-.93 2.32-.4s.93 1.58.4 2.33c-18.45 25.98-27.03 63.89-24.27 107.53 6.35 4.57 7.99 12.63 6.27 23 3.67-4.79 4.43-11 1.71-18.96l-.08-.23-.01-.24c-1.56-36.88 2.49-66.51 12.69-88.07 1.27-6.1 3.4-10.51 5.9-13.54 2.67-3.42 5.7-5.15 8.55-5.63 3.29-.56 6.49.49 8.93 2.63 1.45 1.18 2.64 2.75 3.42 4.61 1.03 2.45 1.36 5.44.62 8.76-.05 1.01-.36 1.95-.85 2.76-.08.2-.16.41-.24.61l-.01.01-.13-.06c-1.09 1.41-2.8 2.32-4.71 2.32-3.29 0-5.95-2.67-5.95-5.95s2.66-5.95 5.95-5.95c.95 0 1.85.22 2.65.62-.4-1.9-1.27-3.54-2.44-4.77-1.82-1.7-4.34-2.49-6.94-1.96-2.35.48-4.69 1.96-6.72 4.63-1.82 2.56-3.43 6.16-4.62 10.98 8.6 9.5 16.73 11.88 23.05 9.44 6.42-2.47 10.73-9.75 11.53-18.7 1.3-14.5-17.39-28.05-38.61-16.43l-.85.47-.82-.51c-.82-.5-1.63-1.02-2.43-1.55-2.74 2.28-5.27 5.47-7.46 10.19-.39.83-1.38 1.19-2.21.81-.84-.39-1.2-1.38-.81-2.22 2.26-4.86 4.86-8.26 7.67-10.75-1.04-.76-2.05-1.54-3.03-2.35-2.64 1.9-3.56 2.08-5.8 6.91-.39.83-1.38 1.2-2.22.81-.83-.39-1.19-1.38-.8-2.22 2.46-5.3 3.53-5.84 6.2-7.72-1.5-1.34-2.94-2.73-4.33-4.17-2.03 1.43-2.8 1.7-4.61 5.58-.39.83-1.38 1.19-2.21.81-.84-.39-1.2-1.38-.81-2.22 2.12-4.56 3.03-5 5.34-6.64-1.48-1.66-2.89-3.39-4.24-5.16-2.25 1.57-3.19 2.04-5.28 6.53-.39.84-1.38 1.2-2.21.81s-1.2-1.38-.81-2.21c2.51-5.38 3.56-5.86 6.33-7.82-1.02-1.43-2-2.89-2.95-4.39-2.59 1.86-3.51 2.07-5.74 6.86-.38.84-1.38 1.2-2.21.81s-1.2-1.38-.81-2.21c2.7-5.81 3.72-5.9 7.02-8.31-.81-1.38-1.6-2.77-2.36-4.19-2.94 1.96-5.76 4.85-8.42 9.25-.48.79-1.5 1.04-2.29.56-.79-.47-1.04-1.5-.56-2.29 3.34-5.53 6.95-8.9 10.68-11.09.32-.18.68-.25 1.02-.22l.16-.28c1.31-.01 2.31-.26 2.99-.85.57-.48.87-1.18 1.01-2.05-3.21-9.51-10.42-14.2-17.59-14.22-7.21-.01-14.26 4.71-16.91 13.76l-3.15.13c-3.64-9.31-8.26-14.46-15.32-11.68-.86.34-1.82-.08-2.16-.94-.34-.85.08-1.82.93-2.16 7.73-3.05 13.62.87 17.99 9.78 3.86-8.11 11.21-12.24 18.63-12.22 8.49.02 17.19 5.47 20.87 16.88l.11.34-.04.35c-.21 1.99-.97 3.51-2.2 4.57-.68.58-1.52 1.03-2.54 1.31 6.5 11.95 14.77 22.33 25.99 30.08.01.01.03.02.05.03.8.56 1.62 1.1 2.45 1.63 23.79-12.38 44.13 3.8 42.67 20.11-.93 10.38-6.2 18.65-13.65 21.52-6.99 2.69-16.11.76-25.6-9.13-9.1 20.52-12.73 48.1-11.51 82.06 1.06 1.17 2.47 1.72 4.42 1.31 8.46-2.87 12.29-9.21 12.38-18.37l2.76-1.24c4.44 3.87 6.94 7.94 7.32 12.14.33 3.64-.91 7.45-4.07 11.38 3.17 1.18 5.57 2.46 7.31 3.81 2.44 1.89 3.67 3.94 4.05 6.07.69 3.97-1.81 8.46-6.29 13.04l-2.5-.13c-3.92-4.97-8.16-8.14-11.77-9.33-2-.66-3.75-.72-5.01.08-.98.62-1.57 1.76-1.77 3.35-.22 1.72.02 3.9.77 6.56 3.5-.37 6.05.06 7.97.96 2.31 1.09 3.77 2.87 4.8 4.99l.67 1.37-1.3.79c-6.61 3.99-11.44 7.44-14.5 10.63-2.68 2.79-3.95 5.29-3.56 7.82.25 1.69 1.23 3.35 2.83 5.09 1.8 1.94 4.35 3.94 7.64 6.08.77.5.99 1.54.49 2.31s-1.54.99-2.31.48c-7.41-4.82-11.3-9.19-11.95-13.46-.42-2.77.41-5.59 2.67-8.55 2.81-3.7 7.97-7.72 15.57-12.41-.61-.87-1.4-1.62-2.47-2.12-1.72-.81-4.1-1.03-7.48-.5-.81.13-1.59-.35-1.84-1.13-1.53-4.68-1.7-8.27-1.02-10.79.54-1.99 1.61-3.4 3.01-4.29 1.96-1.25 4.7-1.45 7.83-.42 3.7 1.21 8.04 4.2 12.12 8.94 1.3-1.46 2.36-2.88 3.1-4.27.84-1.57 1.27-3.07 1.01-4.51-.25-1.43-1.17-2.75-2.8-4.01-1.92-1.49-4.76-2.85-8.66-4.1l-.7-2.73c3.56-3.74 5.15-7.27 4.84-10.7-.23-2.58-1.51-5.04-3.66-7.45-1.06 8.78-5.7 14.86-14.5 17.8l-.08.03-.08.02c-1.71.39-3.18.33-4.45-.09 2.85 10.58-.12 18.3-7.4 23.86l-2.63-1.74c1.52-6.01 2.13-11.34 1.43-15.76-.65-4.08-2.45-7.34-5.77-9.5-3.31-1.7-6.54-1.97-9.54-1.28v.86c1.38.95 2.62 2.12 3.65 3.55 2.04 2.84 3.28 6.75 2.99 12.12-1.08 19.71 1.83 32 7.17 41 5.36 9.02 13.13 14.72 21.58 21.3.72.56.85 1.61.29 2.33-.57.73-1.62.86-2.34.29-8.79-6.84-16.82-12.83-22.39-22.22-5.59-9.42-8.76-22.26-7.64-42.88.24-4.42-.69-7.65-2.36-9.99-.3-.41-.61-.79-.95-1.14v145.6l2.02-2.02c4.78 1.49 8.46.49 11.19-2.71.6-.69 1.65-.78 2.35-.18s.78 1.65.18 2.35c-2.98 3.49-6.79 5.1-11.58 4.43 3.58 8.26 10.48 12.93 18.06 16.85l-.38 3.11c-2.81.66-5.7 1.22-8.11 2.29-2.01.89-3.67 2.13-4.45 4.27.06.16.29.75.54 1.18.91 1.56 2.59 3.68 4.65 6.24 5.03 6.23 12.27 14.94 16.92 24.39 3.14 6.37 5.09 13.08 4.55 19.63 3.09 7.89.95 15.14-2.49 22.22-.4.83-1.4 1.17-2.23.77-.82-.4-1.17-1.4-.77-2.23 3.01-6.2 5.08-12.51 2.44-19.41-10.96-7.27-21.56-18.78-31.43-38.16-1.63 9.39-4.43 19.96-5.43 29.34-.75 7.07-.53 13.43 2.29 17.95 6.82 10.95 9.96 19.16 9.99 24.56.02 4.29-1.74 7.06-4.96 8.43l-2.32-1.62c.3-5.36-2.82-12.32-6.48-17.57-1.94-2.79-4.03-5.11-5.87-6.35-1.31 1.93-2.11 3.9-1.93 5.97.22 2.54 1.9 5.14 5.52 8.01l-.99 2.97c-1.88.04-3.35.5-4.43 1.39-1.7 1.41-2.42 3.78-2.57 6.81-.31 5.81 1.59 13.85 4.56 22.89l-3.1 1.21c-1.98-4.36-3.87-8-5.69-9.95-.42-.45-.79-.82-1.17-.99-.03 0-.06-.02-.1-.04-.1-.03-.2-.05-.3-.05-.33-.01-.57.23-.84.6-.07 15.92-.37 31.76-6.02 45.38-.83 2.8-2.16 4.74-3.42 6.84l-2.86-1.71c1.19-2 2.23-4.07 3.12-6.19.08-.25.14-.52.21-.79 1-4.31.64-10.83-3.06-23.18-8.7 11.75-16.11 19.77-20.71 34.4-.02.07-.05.13-.07.19-12.29 27.03-39.95 40.18-67.68 52.62-26.98 12.1-54.02 23.5-65.87 47.52l-.8 1.63-15.53-9.39c-7.42 7.08-13.57 14.79-16.47 24.15-.06.66-.51 1.23-1.17 1.43-.17.05-.34.07-.5.07-.17 0-.33-.02-.5-.07-.66-.2-1.11-.77-1.18-1.43-2.9-9.36-9.04-17.07-16.46-24.15l-15.53 9.39-.81-1.63c-11.84-24.02-38.88-35.42-65.86-47.52-27.73-12.44-55.4-25.59-67.68-52.62-.03-.06-.05-.12-.07-.19-4.6-14.63-12.01-22.65-20.72-34.4-3.69 12.35-4.06 18.87-3.05 23.18.06.27.13.54.2.79.9 2.12 1.93 4.19 3.13 6.19l-2.87 1.71c-1.25-2.1-2.58-4.04-3.42-6.84-5.64-13.62-5.95-29.46-6.01-45.38-.27-.37-.52-.61-.84-.6-.53.01-1.01.47-1.57 1.08-1.82 1.95-3.72 5.59-5.69 9.95l-3.1-1.21c2.97-9.04 4.86-17.08 4.56-22.89-.16-3.03-.87-5.4-2.57-6.81-1.09-.89-2.55-1.35-4.43-1.39l-1-2.97c3.62-2.87 5.31-5.47 5.53-8.01.18-2.07-.62-4.04-1.93-5.97-1.85 1.24-3.93 3.56-5.88 6.35-3.65 5.25-6.78 12.21-6.48 17.57l-2.31 1.62c-3.22-1.37-4.99-4.14-4.96-8.43.03-5.4 3.17-13.61 9.99-24.56 2.81-4.52 3.04-10.88 2.29-17.95-1-9.38-3.8-19.95-5.43-29.34-9.87 19.38-20.47 30.89-31.43 38.16-2.64 6.9-.57 13.21 2.43 19.41.41.83.06 1.83-.77 2.23s-1.82.06-2.23-.77c-3.43-7.08-5.57-14.33-2.48-22.22-.55-6.55 1.41-13.26 4.55-19.63 4.65-9.45 11.89-18.16 16.91-24.39 2.07-2.56 3.74-4.68 4.66-6.24.25-.43.47-1.02.54-1.18-.78-2.14-2.44-3.38-4.45-4.27-2.41-1.07-5.31-1.63-8.11-2.29l-.39-3.11c7.59-3.92 14.48-8.59 18.07-16.85-4.8.67-8.61-.94-11.59-4.43-.6-.7-.52-1.75.18-2.35s1.76-.51 2.35.18c2.74 3.2 6.41 4.2 11.2 2.71l2.01 2.02v-145.6c-.33.35-.65.73-.94 1.14-1.68 2.34-2.61 5.57-2.36 9.99 1.12 20.62-2.05 33.46-7.64 42.88-5.58 9.39-13.6 15.38-22.39 22.22-.73.57-1.77.44-2.34-.29-.57-.72-.44-1.77.29-2.33 8.44-6.58 16.21-12.28 21.57-21.3 5.34-9 8.25-21.29 7.18-41-.3-5.37.94-9.28 2.98-12.12 1.03-1.43 2.28-2.6 3.65-3.55v-.86c-2.99-.69-6.22-.42-9.53 1.28-3.33 2.16-5.12 5.42-5.77 9.5-.7 4.42-.09 9.75 1.43 15.76l-2.63 1.74c-7.28-5.56-10.25-13.28-7.4-23.86-1.27.42-2.74.48-4.45.09l-.09-.02-.08-.03c-8.79-2.94-13.44-9.02-14.49-17.8-2.15 2.41-3.43 4.87-3.66 7.45-.31 3.43 1.28 6.96 4.84 10.7l-.7 2.73c-3.91 1.25-6.74 2.61-8.66 4.1-1.64 1.26-2.56 2.58-2.81 4.01-.25 1.44.17 2.94 1.01 4.51.74 1.39 1.81 2.81 3.11 4.27 4.07-4.74 8.41-7.73 12.11-8.94 3.13-1.03 5.87-.83 7.84.42 1.4.89 2.46 2.3 3 4.29.69 2.52.52 6.11-1.01 10.79-.26.78-1.04 1.26-1.84 1.13-3.38-.53-5.76-.31-7.48.5-1.08.5-1.86 1.25-2.47 2.12 7.59 4.69 12.76 8.71 15.57 12.41 2.25 2.96 3.09 5.78 2.67 8.55-.65 4.27-4.55 8.64-11.96 13.46-.77.51-1.8.29-2.3-.48-.51-.77-.29-1.81.48-2.31 3.29-2.14 5.85-4.14 7.64-6.08 1.61-1.74 2.58-3.4 2.84-5.09.39-2.53-.89-5.03-3.56-7.82-3.06-3.19-7.89-6.64-14.5-10.63l-1.3-.79.66-1.37c1.03-2.12 2.49-3.9 4.81-4.99 1.91-.9 4.46-1.33 7.97-.96.75-2.66.98-4.84.76-6.56-.2-1.59-.78-2.73-1.76-3.35-1.26-.8-3.02-.74-5.01-.08-3.61 1.19-7.86 4.36-11.77 9.33l-2.5.13c-4.48-4.58-6.99-9.07-6.29-13.04.37-2.13 1.61-4.18 4.05-6.07 1.74-1.35 4.14-2.63 7.3-3.81-3.15-3.93-4.39-7.74-4.07-11.38.38-4.2 2.88-8.27 7.33-12.14l2.76 1.24c.09 9.16 3.92 15.5 12.38 18.37 1.94.41 3.35-.14 4.42-1.31 1.22-33.96-2.41-61.54-11.51-82.06-9.49 9.89-18.62 11.82-25.61 9.13-7.44-2.87-12.71-11.14-13.64-21.52-1.46-16.31 18.87-32.49 42.66-20.11.84-.53 1.66-1.07 2.46-1.63.02-.01.03-.02.05-.03 11.21-7.75 19.48-18.13 25.99-30.08-1.02-.28-1.87-.73-2.55-1.31-1.23-1.06-1.98-2.58-2.2-4.57l-.04-.35.11-.34c3.69-11.41 12.38-16.86 20.88-16.88 7.42-.02 14.76 4.11 18.62 12.22 4.38-8.91 10.27-12.83 17.99-9.78.86.34 1.28 1.31.94 2.16-.34.86-1.31 1.28-2.16.94-7.06-2.78-11.68 2.37-15.32 11.68l-3.15-.13c-2.66-9.05-9.7-13.77-16.92-13.76-7.16.02-14.38 4.71-17.59 14.22.14.87.45 1.57 1.01 2.05.69.59 1.69.84 2.99.85l.17.28c.34-.03.69.04 1.01.22 3.73 2.19 7.34 5.56 10.69 11.09.47.79.22 1.82-.56 2.29-.79.48-1.82.23-2.29-.56-2.66-4.4-5.48-7.29-8.42-9.25-.77 1.42-1.55 2.81-2.36 4.19 3.3 2.41 4.31 2.5 7.02 8.31.38.83.02 1.82-.81 2.21-.84.39-1.83.03-2.22-.81-2.23-4.79-3.14-5-5.74-6.86-.94 1.5-1.92 2.96-2.94 4.39 2.76 1.96 3.82 2.44 6.32 7.82.39.83.03 1.82-.8 2.21-.84.39-1.83.03-2.22-.81-2.09-4.49-3.02-4.96-5.27-6.53-1.35 1.77-2.77 3.5-4.25 5.16 2.32 1.64 3.22 2.08 5.35 6.64.38.84.02 1.83-.81 2.22-.84.38-1.83.02-2.22-.81-1.8-3.88-2.57-4.15-4.6-5.58-1.39 1.44-2.83 2.83-4.34 4.17 2.68 1.88 3.74 2.42 6.21 7.72.39.84.03 1.83-.81 2.22-.83.39-1.82.02-2.21-.81-2.25-4.83-3.16-5.01-5.8-6.91-.99.81-2 1.59-3.03 2.35 2.8 2.49 5.41 5.89 7.67 10.75.39.84.03 1.83-.81 2.22-.83.38-1.83.02-2.21-.81-2.2-4.72-4.72-7.91-7.47-10.19-.79.53-1.6 1.05-2.42 1.55l-.83.51-.84-.47c-21.23-11.62-39.91 1.93-38.61 16.43.8 8.95 5.1 16.23 11.52 18.7 6.32 2.44 14.45.06 23.05-9.44-1.19-4.82-2.79-8.42-4.62-10.98-2.02-2.67-4.37-4.15-6.71-4.63-2.6-.53-5.12.26-6.94 1.96-1.18 1.23-2.04 2.87-2.44 4.77.8-.4 1.7-.62 2.65-.62 3.28 0 5.95 2.67 5.95 5.95s-2.67 5.95-5.95 5.95c-1.92 0-3.62-.91-4.71-2.32l-.14.06v-.01c-.09-.2-.17-.41-.25-.61-.49-.81-.79-1.75-.84-2.76-.74-3.32-.41-6.31.62-8.76.78-1.86 1.97-3.43 3.42-4.61 2.43-2.14 5.64-3.19 8.92-2.63 2.85.48 5.88 2.21 8.55 5.63 2.5 3.03 4.63 7.44 5.91 13.54 10.2 21.56 14.24 51.19 12.69 88.07l-.01.24-.08.23c-2.73 7.96-1.96 14.17 1.7 18.96-1.71-10.37-.07-18.43 6.28-23 2.75-43.64-5.82-81.55-24.27-107.53-.53-.75-.36-1.8.39-2.33s1.79-.35 2.33.4c18.55 26.13 27.43 64.06 24.99 107.78 2.95-1.02 5.82-1.16 8.54-.65v-119.48l48.73-.12c-.03-.38-.03-.76 0-1.15.06-.73.23-1.47.35-2.16.04-.22.08-.44.09-.65.01-.11 0-.28-.01-.35-1.71-1.8-3.55-2.27-5.04-2.97-1.43-.66-2.63-1.48-3.46-3-5.24-9.6-1.49-21.55 11.15-30l.19-.12.2-.07c1.53-.52 2.49-.17 3.04.31.47.4.81 1.01.84 1.89.04.93-.36 2.45-.99 4.32-.74 2.19-1.76 4.97-2.29 7.83-.48 2.59-.58 5.24.51 7.49 1.47 3.03 5.06 5.13 12.22 5.62 15.37-.43 38.57-10.64 61.25-20.6-1.64-2.79-2.18-5.47-1.88-7.97.27-2.27 1.27-4.42 2.87-6.4-.75-.96-1.33-2.58-1.33-4.63v-9.87c0-1.99.51-3.95 1.27-5.35.32-.6.71-1.11 1.11-1.52-.08-.05-.16-.11-.24-.18-1.27-.98-2.14-2.62-2.14-4.76v-10.36c0-.36.03-.73.08-1.1l-29.68-14.83c-.72-.19-1.36-.52-1.91-.96-1.25-.99-2.09-2.6-2.09-4.65v-9.88c0-1.88.76-3.79 1.96-5.31-.69-.21-1.32-.55-1.86-1-1.26-1.03-2.09-2.66-2.09-4.69v-9.87c0-3.61 2.79-7.16 6.21-7.96l26.67-6.22c1.83-.43 3.49-.05 4.74.86 1.13-1.59 2.74-2.82 4.53-3.27l12.33-3.16c1.27-.32 2.46-.25 3.49.13l.05-.09 31.04 17.01-.02 1.21s-.33 14.02-.01 18.18l-.29.17.27 13.44c5.46-.61 10.92-1.08 16.38-1.43l-5.87-14.03c-1.99-1.21-3.32-3.4-3.32-5.9v-9.87c0-1.93.8-3.68 2.08-4.94-1.28-1.25-2.08-3-2.08-4.93v-9.87c0-3.82 3.1-6.92 6.92-6.92h10.43c1.94 0 3.69.8 4.94 2.08 1.26-1.28 3-2.08 4.93-2.08h33.68c3.82 0 6.91 3.1 6.91 6.92v9.87c0 1.93-.79 3.68-2.07 4.93 1.28 1.26 2.07 3.01 2.07 4.94v9.87c0 1.31-.36 2.53-.99 3.58l.89 1.25-5.24 15.17c4.61.32 9.22.72 13.83 1.21l.27-13.29-.29-.17c.32-4.16-.01-18.18-.01-18.18l-.02-1.21 31.04-17.01.05.09c1.03-.38 2.22-.45 3.49-.13l12.33 3.16c1.79.45 3.4 1.68 4.53 3.27 1.25-.91 2.91-1.29 4.74-.86l26.67 6.22c3.42.8 6.21 4.35 6.21 7.96v9.87c0 2.03-.83 3.66-2.09 4.69-.55.45-1.17.79-1.86 1 1.2 1.52 1.96 3.43 1.96 5.31v9.88c0 2.05-.84 3.66-2.09 4.65-.55.44-1.19.77-1.91.96l-28.37 14.17c.13.59.2 1.18.2 1.76v10.36c0 2.14-.86 3.78-2.13 4.76-.17.13-.34.25-.52.36.34.37.66.82.94 1.34.76 1.4 1.27 3.36 1.27 5.35v9.87c0 2.28-.71 4.03-1.58 4.93-.14.14-.27.27-.42.38 2.5 4.02 2.68 8.69.28 12.12zm-185.6-.04c5.5-2.4 10.94-4.77 16.2-6.94 11.44-4.72 22.07-8.56 30.66-10.12 6.05-1.1 11.14-1.05 14.92.45.61.24 1.21.49 1.8.75 20.04-6.03 39.45-5.62 58.35 0 .59-.26 1.19-.51 1.81-.75 3.78-1.5 8.87-1.55 14.91-.45 8.6 1.56 19.22 5.4 30.67 10.12 4.09 1.69 8.28 3.49 12.53 5.34 3.11-3.25 1.32-8.79-3.48-12.07-5.11-2.63-10.23-4.54-15.37-5.81l-.14-.04-.14-.05c-.51-.21-1.02-.57-1.49-1.07-18.46-5.61-42.6-8.6-67.23-8.75-.63-.01-1.26-.01-1.89-.01-.09 0-.19 0-.28 0-24.64.01-49.64 2.87-69.84 8.87-.45.44-.92.77-1.39.96l-.13.05-.14.04c-6 1.48-11.97 3.83-17.92 7.17-2.25 1.88-3.73 4.02-4.02 6.43-.22 1.85.29 3.82 1.61 5.88zm63.89-12.06c-1.06-.51-2.17-.99-3.34-1.45-3.32-1.32-7.79-1.23-13.09-.27-8.41 1.52-18.8 5.3-29.99 9.92-28.5 11.77-62.17 28.89-82.38 29.41h-.08l-.07-.01c-8.97-.6-13.23-3.71-15.07-7.5-1.12-2.32-1.35-4.97-1.07-7.65.39-3.66 1.74-7.38 2.69-10.19.17-.51.33-1.09.47-1.6-9.9 7.18-13.15 16.81-8.81 24.74.6 1.11 1.63 1.46 2.74 1.94 1.66.7 3.52 1.49 5.31 3.4.87.93 1 2.27.72 3.82-.11.61-.27 1.27-.31 1.92-.03.38-.03.75.17 1.08.32.56 1.07.9 2.36 1.19l.4.09.32.27c.62.53 1.47.78 2.48.87 1.26.11 2.75-.05 4.41-.4 5.43-1.15 12.62-4.34 20.37-8.14l2.11 2.43c-1.46 2.16-3.24 4.62-4.3 6.64-.31.58-.56 1.34-.69 1.76 2.47.52 5.06-.23 7.71-1.55 3.11-1.54 6.28-3.9 9.38-6.31 3.9-3.04 7.72-6.17 11.22-8.08 2.63-1.43 5.12-2.18 7.37-1.93 2.54.28 3.96 1.17 4.63 2.23.54.86.71 1.91.39 3.17-.31 1.28-1.19 2.87-2.56 4.73-1.56 2.1-3.78 4.62-6.4 7.52 2.92 1.27 5.58.58 8.11-1.08 2.28-1.51 4.46-3.73 6.63-6.14 3.47-3.84 6.9-8.12 10.54-10.92 2.69-2.08 5.52-3.37 8.51-3.34 2.33.01 3.77.58 4.69 1.37 1.04.9 1.51 2.14 1.58 3.64.1 2.01-.66 4.63-.54 7.14.19 3.95 3.46 7.14 11.9 6.48 1.67-.13 2.52-1.11 3.01-2.54.67-1.98.78-4.65.91-7.57.32-6.94.82-15.1 6.84-20.11 2.62-2.17 6.28-3.79 11.47-4.41.92-.11 1.75.55 1.85 1.46.11.92-.54 1.75-1.45 1.85-4.4.53-7.53 1.82-9.74 3.67-5.26 4.37-5.36 11.62-5.64 17.7-.14 3.11-.31 5.96-.98 8.14h16.59c-2.79-2.47-5.42-5.81-7.88-10.04l-.18-.32-.03-.36c-.3-3.22.11-5.89 1.47-8.29 1.91-3.4 5.85-6.31 12.94-9.39l.54-.23.57.15c7.92 2.19 11.42 5.69 12.92 12.07l.16.69-.39.6c-2.63 4.04-6.28 6.67-9.61 6.51-2.37-.12-4.77-1.53-6.64-5.05-.43-.82-.12-1.83.7-2.26.81-.43 1.82-.12 2.25.7 1.13 2.14 2.41 3.21 3.86 3.28 1.08.05 2.17-.43 3.22-1.2 1.09-.8 2.11-1.91 3.02-3.2-1.26-4.56-4.09-7.08-9.81-8.76-9.4 4.16-12.36 7.62-11.91 13.71 4.04 6.86 8.49 11.16 13.49 12.71 8.36-2.09 11.92-6.42 16.06-12.5 2-8.39 1.98-15.9-.96-22.25-2.57-5.56-7.36-10.2-14.85-13.82-.08.03-.16.05-.24.08zm4.96-1.16c6.49 3.75 10.76 8.38 13.23 13.72 3.26 7.05 3.37 15.39 1.1 24.73l-.02.08c3.88 2.42 7.17 5.55 9.6 9.7 2.43-4.15 5.71-7.28 9.6-9.7l-.02-.08c-2.27-9.34-2.16-17.68 1.1-24.73 2.46-5.33 6.72-9.96 13.21-13.71-15.55-3.95-31.46-4.2-47.8-.01zm52.47 1.3c-7.49 3.62-12.29 8.26-14.85 13.82-2.94 6.35-2.96 13.86-.96 22.25 4.13 6.08 7.69 10.41 16.06 12.5 5-1.55 9.45-5.85 13.49-12.71.44-6.09-2.51-9.55-11.91-13.71-5.73 1.68-8.55 4.2-9.82 8.76.91 1.29 1.94 2.4 3.02 3.2 1.06.77 2.15 1.25 3.23 1.2 1.44-.07 2.72-1.14 3.86-3.28.43-.82 1.44-1.13 2.25-.7s1.12 1.44.69 2.26c-1.86 3.52-4.26 4.93-6.63 5.05-3.34.16-6.99-2.47-9.62-6.51l-.38-.6.16-.69c1.49-6.38 4.99-9.88 12.91-12.07l.57-.15.54.23c7.09 3.08 11.03 5.99 12.95 9.39 1.36 2.4 1.77 5.07 1.47 8.29l-.03.36-.19.32c-2.45 4.23-5.09 7.57-7.87 10.04h16.58c-.66-2.18-.83-5.03-.97-8.14-.28-6.08-.38-13.33-5.64-17.7-2.22-1.85-5.34-3.14-9.74-3.67-.91-.1-1.57-.93-1.46-1.85.11-.91.94-1.57 1.85-1.46 5.2.62 8.86 2.24 11.48 4.41 6.01 5.01 6.51 13.17 6.84 20.11.13 2.92.24 5.59.91 7.57.49 1.43 1.34 2.41 3.01 2.54 8.44.66 11.7-2.53 11.89-6.48.12-2.51-.64-5.13-.54-7.14.08-1.5.55-2.74 1.59-3.64.91-.79 2.36-1.36 4.69-1.37 2.99-.03 5.81 1.26 8.51 3.34 3.63 2.8 7.07 7.08 10.54 10.92 2.17 2.41 4.34 4.63 6.62 6.14 2.53 1.66 5.2 2.35 8.12 1.08-2.62-2.9-4.85-5.42-6.41-7.52-1.37-1.86-2.24-3.45-2.56-4.73-.31-1.26-.14-2.31.4-3.17.67-1.06 2.09-1.95 4.62-2.23 2.25-.25 4.75.5 7.38 1.93 3.5 1.91 7.31 5.04 11.22 8.08 3.1 2.41 6.26 4.77 9.37 6.31 2.65 1.32 5.24 2.07 7.72 1.55-.13-.42-.38-1.18-.69-1.76-1.07-2.02-2.84-4.48-4.3-6.64l2.11-2.43c7.74 3.8 14.93 6.99 20.37 8.14 1.66.35 3.14.51 4.4.4 1.01-.09 1.86-.34 2.49-.87l.31-.27.41-.09c1.29-.29 2.03-.63 2.36-1.19.19-.33.19-.7.17-1.08-.05-.65-.21-1.31-.32-1.92-.27-1.55-.14-2.89.73-3.82 1.79-1.91 3.65-2.7 5.3-3.4 1.12-.48 2.14-.83 2.75-1.94 4.33-7.93 1.09-17.56-8.81-24.74.13.51.29 1.09.47 1.6.94 2.81 2.29 6.53 2.68 10.19.29 2.68.06 5.33-1.07 7.65-1.83 3.79-6.09 6.9-15.06 7.5l-.08.01h-.07c-20.22-.52-53.88-17.64-82.38-29.41-11.2-4.62-21.58-8.4-29.99-9.92-5.3-.96-9.78-1.05-13.09.27-1.17.46-2.28.94-3.34 1.44l-.07.23c-.08-.03-.16-.05-.24-.08zm-96.98-26.47v9.87c0 1.38 1.04 2.32 2.36 2.12 12.27-3.38 24.58-5.61 36.96-6.86 1.15-.24 2.14-1.1 2.67-2.18-.03-.29-.05-.58-.05-.87v-9.88c0-.62.08-1.23.24-1.81-.38-.81-1.23-1.28-2.22-1.1l-.12.03h-.12c-8.66.5-17.15 1.69-25.44 3.66-.2.09-.41.17-.62.24l-.08.03-.08.02c-2.7.66-5.39 1.38-8.07 2.14-.67.21-1.35.43-2.02.65l-.13.04-.13.03c-1.75.32-3.15 2.06-3.15 3.87zm46.1 3.16c.43 1.09 1.5 1.87 2.75 1.87h36.48c1.64 0 2.96-1.32 2.96-2.95v-9.88c0-1.63-1.32-2.95-2.96-2.95h-36.48c-1.07 0-2.01.57-2.53 1.43.02.24.03.47.03.72v9.87c0 .64-.09 1.27-.25 1.89zm-82.48-51.92v9.87c0 .7.21 1.29.64 1.64.41.34.98.42 1.61.28l26.67-6.22c1.75-.41 3.15-2.26 3.15-4.1v-9.88c0-.69-.22-1.28-.65-1.63-.41-.34-.98-.43-1.6-.28l-26.67 6.22c-1.75.41-3.15 2.26-3.15 4.1zm171.02 58.63v-9.87c0-1.81-1.4-3.55-3.15-3.87l-.13-.03-.13-.04c-11.69-3.86-23.81-6.02-36.3-6.74h-.13l-.12-.03c-1.35-.25-2.43.71-2.43 2.11v9.87c0 1.78 1.36 3.5 3.08 3.86 12.37 1.25 24.68 3.48 36.96 6.86 1.32.2 2.35-.75 2.35-2.12zm35.39-48.76v-9.87c0-1.84-1.4-3.69-3.15-4.1l-26.67-6.22c-.62-.15-1.19-.06-1.6.28-.43.35-.65.94-.65 1.63v9.88c0 1.84 1.4 3.69 3.15 4.1l26.67 6.22c.62.14 1.2.06 1.61-.28.43-.35.64-.94.64-1.64zm-130.84-28.33c-1.63 0-2.96 1.33-2.96 2.96v9.87c0 .94.44 1.78 1.13 2.32l37.47-.11c.61-.54.99-1.33.99-2.21v-9.87c0-1.63-1.33-2.96-2.96-2.96zm-40.67 23.92c4.92 3.19 18.39 11.93 18.39 11.93 1.03-.9 2.41-1.58 4.2-1.96l-.22-11.51-21.31-13.31c.04.32.07.65.07.98v9.88c0 1.39-.42 2.77-1.13 3.99zm45.33 12.66c-6.9.4-13.78.99-20.66 1.81h-.06l-.05.01c-1.84.12-3.39 1.56-3.39 3.29v9.87c0 1.58 1.4 2.71 3.07 2.63 12.67-1.79 25.7-2.64 39.13-2.5 1.81-.15 3.32-1.58 3.32-3.29 0-.01 0-.03 0-.04v-9.83c0-.01 0-.03 0-.04-.03-1.58-1.46-2.69-3.19-2.58h-.05c-.6.01-1.2.02-1.8.03-.21.03-.42.07-.63.11l-.16.03zm-46.2-45.93v9.03c0 .89-.17 1.78-.47 2.63 3.34 2.08 23.84 14.79 23.84 14.79-.06-4.55.05-10.95.1-13.59zm-21.59 14.56c0 .68.2 1.26.62 1.6.39.32.94.38 1.54.23l12.33-3.16c1.75-.44 3.15-2.34 3.15-4.2v-9.87c0-.68-.21-1.26-.63-1.6-.39-.32-.94-.38-1.54-.23l-12.33 3.15c-1.75.45-3.14 2.34-3.14 4.21zm64.24 14.53c1.08 2.58 5.04 12.02 5.35 12.77 4.75-.25 9.49-.42 14.24-.52 1.92-.22 4.04-.05 6.37.53l7.66-12.86c-.35.06-.7.08-1.06.08zm-68.2-24.26c0-.7-.22-1.29-.65-1.64-.41-.34-.98-.42-1.6-.28l-26.67 6.23c-1.75.4-3.15 2.25-3.15 4.1v9.87c0 .69.21 1.28.65 1.63.4.34.98.43 1.6.28l26.67-6.22c1.75-.41 3.15-2.26 3.15-4.1zm143.3 46.21c0-1.74-1.59-3.18-3.47-3.3h-.05l-.05-.01c-13.1-1.54-26.22-2.29-39.4-2.51h-.04c-1.74-.11-3.22 1.01-3.22 2.62v.04 9.83.04c.03 1.7 1.57 3.1 3.4 3.25 13.61-.13 26.83.73 39.69 2.54 1.7.07 3.14-1.04 3.14-2.63zm-24.76-9.11 4.53-13.13c-.63.19-1.3.29-2 .29h-10.44c-1.13 0-2.2-.27-3.14-.75h-.67l-7.71 12.97c.44-.06.91-.07 1.38-.05 6.02.1 12.04.32 18.05.67zm-80.02 3.9-14.84-9.62c-.73.47-1.52.83-2.34 1.02l-24.23 5.65 20.89 9.41c6.84-2.39 13.68-4.52 20.52-6.46zm-50.96-17.87c0-.68-.19-1.24-.59-1.56-.37-.3-.89-.33-1.45-.17l-12.47 3.55c-1.74.5-3.13 2.45-3.13 4.33v9.88c0 .55.13 1.03.4 1.37l.9.45c.23.01.48-.02.74-.09l12.47-3.56c1.74-.5 3.13-2.45 3.13-4.33zm92.92-35.39c0-1.63-1.32-2.96-2.96-2.96h-10.43c-1.63 0-2.96 1.33-2.96 2.96v9.87c0 1.63 1.33 2.95 2.96 2.95h10.43c1.64 0 2.96-1.32 2.96-2.95zm40.59 12.82c1.63 0 2.96-1.32 2.96-2.95v-9.87c0-1.63-1.33-2.96-2.96-2.96h-33.68c-1.63 0-2.95 1.33-2.95 2.96v9.87c0 1.63 1.32 2.95 2.95 2.95zm1.97 18.99c.6-.54.99-1.33.99-2.2v-9.87c0-1.63-1.33-2.96-2.96-2.96h-10.44c-1.63 0-2.95 1.33-2.95 2.96v9.87c0 .87.38 1.66.98 2.2zm66.41-19.55v9.87c0 1.84 1.4 3.69 3.15 4.1l26.67 6.22c.62.15 1.2.06 1.6-.28.44-.35.65-.94.65-1.63v-9.87c0-1.85-1.4-3.7-3.15-4.1l-26.67-6.23c-.62-.14-1.19-.06-1.6.28-.43.35-.65.94-.65 1.64zm-145.82 56.35v-10.35c0-.72-.18-1.31-.6-1.64-.38-.29-.9-.29-1.47-.1l-.05.02-.05.01c-11.52 3.2-23.03 6.95-34.51 11.52l-.06.02-.05.02c-1.85.61-3.32 2.8-3.32 4.85v10.36c0 .71.18 1.31.6 1.63.36.28.86.3 1.4.13 8.7-3.7 17.59-6.86 26.69-9.46 2.86-.9 5.76-1.7 8.67-2.4 1.57-.83 2.75-2.77 2.75-4.61zm145.85-1.01 23.35-11.67-8.9-2.53c-1.35-.39-2.6-1.23-3.61-2.33l-22.86 10.28c2.63.97 5.26 1.97 7.88 3.02 1.6.54 3.06 1.73 4.14 3.23zm-27.51-41.75-21.31 13.31s-.22 11.51-.23 11.51c1.8.38 3.18 1.06 4.21 1.96l18.39-11.93c-.71-1.22-1.13-2.6-1.13-3.99v-9.88c0-.33.03-.66.07-.98zm57.16 26.94c.27-.34.4-.82.4-1.37v-9.88c0-1.88-1.39-3.83-3.13-4.33l-12.47-3.55c-.56-.16-1.08-.13-1.45.17-.4.32-.59.88-.59 1.56v9.87c0 1.88 1.39 3.83 3.13 4.33l12.47 3.56c.26.07.51.1.74.09zm-53.36-9.15-14.41 9.34c6.91 1.94 13.82 4.07 20.71 6.46l20.27-9.13-24.23-5.65c-.82-.19-1.61-.55-2.34-1.02zm18.19 61.67c.88.46 1.76.94 2.64 1.43.14-.44.32-1.13.32-1.74v-9.87c0-1.29-.3-2.56-.79-3.47-.16-.29-.27-.58-.49-.66l-.19-.08-.18-.12c-5.92-4.06-12.06-6.5-18.39-7.57-.14.4-.38 1.22-.38 1.93v9.87c0 1.23.28 2.46.74 3.35 5.85 1.84 11.12 3.94 15.66 6.28l.04.02c.35.2.69.41 1.02.63zm-36.7-47.05v10.35c0 2.02 1.43 4.19 3.25 4.84 11.95 2.93 23.57 6.83 34.86 11.63.54.16 1.04.15 1.39-.13.43-.32.6-.92.6-1.63v-10.36c0-2.05-1.46-4.24-3.31-4.85l-.06-.02-.05-.02c-11.49-4.57-22.99-8.32-34.52-11.52l-.05-.01-.04-.02c-.57-.19-1.1-.19-1.47.1-.42.33-.6.92-.6 1.64zm38.23-36.27v-9.87c0-1.87-1.39-3.76-3.14-4.21l-12.33-3.15c-.6-.15-1.15-.09-1.54.23-.42.34-.63.92-.63 1.6v9.87c0 1.86 1.4 3.76 3.15 4.2l12.33 3.16c.6.15 1.15.09 1.54-.23.42-.34.62-.92.62-1.6zm-21.59-14.56c-8.39 4.6-23.47 12.86-23.47 12.86.05 2.64.16 9.04.1 13.59l23.84-14.79c-.3-.85-.47-1.74-.47-2.63zm-139.96 77.73c0-.71-.24-1.53-.38-1.93-6.32 1.07-12.47 3.51-18.39 7.57l-.17.12-.2.08c-.21.08-.33.37-.49.66-.49.91-.79 2.18-.79 3.47v9.87c0 .61.18 1.3.32 1.74.89-.72 1.88-1.4 2.94-2.04l.09-.05.09-.04c4.91-2.32 10.36-4.37 16.21-6.16.48-.9.77-2.16.77-3.42zm-22.9-17.03c1.1-1.74 2.71-3.15 4.49-3.76 2.37-.94 4.74-1.85 7.11-2.73l-23.51-10.57c-1.01 1.1-2.26 1.94-3.61 2.33l-8.9 2.53zm318.47 363.61v36.83l2.11-.34c9.58 20.31 19.87 32.51 30.58 40.21-.13-5.14-1.84-10.34-4.29-15.32-4.54-9.22-11.62-17.69-16.53-23.77-2.58-3.21-4.58-5.81-5.4-7.53-.58-1.23-.63-2.22-.4-2.9 1.07-3.17 3.38-5.1 6.31-6.4 1.38-.61 2.91-1.07 4.48-1.48-7.5-4.39-13.87-10.01-16.86-19.3zm-98.35-274.02c-.15-.12-.31-.24-.46-.35-3.75-2.92-7.4-5.95-10.77-7.78-1.94-1.06-3.75-1.73-5.41-1.55-.61.07-1.12.17-1.53.32-.3.11-.54.19-.65.38-.09.17-.03.36.03.59.09.36.25.75.47 1.17.98 1.9 2.97 4.32 5.55 7.22zm78.55 406.77c.29.13.6.3.9.52.38.26.76.6 1.15 1-.32-1.47-.59-2.9-.79-4.26-.42.91-.84 1.82-1.26 2.74zm-482.72-371.36c.48.64 1.24 1.05 2.09 1.05 1.44 0 2.62-1.18 2.62-2.62s-1.18-2.62-2.62-2.62c-1.36 0-2.48 1.04-2.61 2.37.13.6.3 1.21.52 1.82zm81.9 383.13c.15 8.47.62 16.81 2.27 24.66.57-3.87 1.67-8.65 3.51-14.67-2.02-3.3-3.95-6.63-5.78-9.99zm215.53-418.54c-2.58-1.97-4.63-4.4-6.66-7.24-3.03 1.87-5.64 4.23-7.7 7.24zm146.2 5.94c-.02-.01-.04-.01-.07-.01l.05.03zm-238.59-5.94c-.82-1.38-1.22-2.92-1.3-4.51-.1-2.08.37-4.23.52-6.08.07-.87.14-1.65-.28-2.2s-1.26-.69-2.66-.7c-2.29-.02-4.4 1.06-6.46 2.65-3.49 2.69-6.76 6.82-10.1 10.52-.1.1-.19.21-.29.32zm265.93 428.53c1.84 6.02 2.95 10.8 3.52 14.67 1.65-7.85 2.12-16.19 2.26-24.66-1.83 3.36-3.76 6.69-5.78 9.99zm-303.71-428.53c2.58-2.9 4.56-5.32 5.55-7.22.22-.42.38-.81.47-1.17.06-.23.11-.42.03-.59-.11-.19-.35-.27-.65-.38-.41-.15-.92-.25-1.53-.32-1.67-.18-3.48.49-5.42 1.55-3.36 1.83-7.01 4.86-10.77 7.78-.15.11-.3.23-.45.35zm108.33 0c-2.06-3.01-4.68-5.37-7.7-7.24-2.04 2.84-4.08 5.27-6.66 7.24zm98.6 0c-.1-.11-.2-.22-.3-.32-3.33-3.7-6.6-7.83-10.1-10.52-2.05-1.59-4.17-2.67-6.45-2.65-1.4.01-2.24.15-2.67.7-.41.55-.34 1.33-.27 2.2.14 1.85.61 4 .51 6.08-.07 1.59-.48 3.13-1.29 4.51zm184.47 35.41c.21-.61.38-1.22.51-1.82-.12-1.33-1.24-2.37-2.6-2.37-1.45 0-2.62 1.18-2.62 2.62s1.17 2.62 2.62 2.62c.85 0 1.61-.41 2.09-1.05zm-497.43 329.38c-.18.35-.38.68-.58 1.01-6.36 10.21-9.46 17.78-9.49 22.82-.01 1.41.25 2.57.79 3.49.75-5.33 3.57-11.41 6.9-16.17 1.28-1.84 2.64-3.49 3.98-4.83-.8-2.94-1.19-4.43-1.6-6.32zm73.22-364.79c.07-.11.14-.22.21-.34-.24.12-.49.23-.73.34zm290.27 0c-.24-.11-.48-.22-.72-.34.07.12.13.23.2.34zm-350.04 404.03c-.21 1.36-.47 2.79-.79 4.26.39-.4.77-.74 1.15-1 .3-.22.6-.39.9-.52-.43-.92-.85-1.83-1.26-2.74zm421.15-32.92c1.33 1.34 2.69 2.99 3.98 4.83 3.32 4.76 6.15 10.84 6.9 16.17.54-.92.79-2.08.78-3.49-.03-5.04-3.13-12.61-9.48-22.82-.21-.33-.41-.68-.59-1.03-.37 1.96-.55 2.51-1.59 6.34zm-381.61 92.35c.06.16.11.33.17.51 11.97 26.23 39.02 38.77 65.96 50.86 27.11 12.16 54.11 23.88 66.67 47.47l14.61-8.83.92.86c7.13 6.67 13.2 13.88 16.78 22.34 3.58-8.46 9.64-15.67 16.78-22.34l.92-.86 14.61 8.83c12.56-23.59 39.55-35.31 66.66-47.47 26.94-12.09 54-24.63 65.97-50.86.05-.18.11-.35.16-.51-37.16 39.98-92.07 69.37-164.9 74.17l-.2.02-.21-.02c-72.82-4.8-127.73-34.19-164.9-74.17zm165.09 86.14h.03c3.29 0 5.95 2.66 5.95 5.95 0 3.28-2.66 5.95-5.95 5.95-.01 0-.02 0-.03 0-3.28 0-5.95-2.67-5.95-5.95 0-3.29 2.67-5.95 5.95-5.95zm.03 3.33c-.01 0-.02 0-.03 0-1.43.02-2.58 1.18-2.58 2.62 0 1.43 1.15 2.6 2.58 2.61h.03c1.43-.01 2.59-1.18 2.59-2.61 0-1.44-1.16-2.6-2.59-2.62zm-164.23-546.81c-5.43.01-52.73.12-52.73.12v332.29c.43 2.46.79 4.87 1.04 7.21.18 1.65.3 3.27.34 4.83.83 4.24 3.03 11.61 4.5 16.79l.2-.09.79 1.03c2.36 3.03 3.75 6.17 3.46 9.45-.09 1.06-.36 2.14-.84 3.25 25.3 73.54 95.01 142.89 207.46 150.38 112.56-7.5 182.07-77.14 207.29-150.76-.38-.97-.59-1.93-.67-2.87-.29-3.28 1.1-6.42 3.45-9.45l.8-1.03.18.08c1.58-5.67 3.66-13.09 4.57-18.12.06-1.14.16-2.3.29-3.49.24-2.34.61-4.75 1.03-7.21v-332.28h-70.14c-.28.87-.96 1.47-1.97 1.74-2.71.74-5.56.37-8.46-.76-.72-.28-1.45-.61-2.18-.98h-18.81l-.02.21c-4.98 3.38-9.44 2.58-13.62-.21h-203.48c-4.19 2.79-8.64 3.59-13.62.21l-.03-.21h-18.8c-.73.37-1.46.7-2.19.98-2.9 1.13-5.74 1.5-8.45.76-1.02-.27-1.69-.87-1.97-1.74h-17.68zm.24-.19.05.04.09-.05c-.05 0-.1.01-.14.01zm-59.22 304.92v-36.83c-2.98 9.29-9.35 14.91-16.86 19.3 1.58.41 3.1.87 4.48 1.48 2.94 1.3 5.24 3.23 6.32 6.4.23.68.18 1.67-.41 2.9-.81 1.72-2.81 4.32-5.4 7.53-4.9 6.08-11.98 14.55-16.52 23.77-2.45 4.98-4.17 10.18-4.29 15.32 10.71-7.7 21-19.9 30.58-40.21zm223.18-335.05h.03c3.29 0 5.95 2.67 5.95 5.95 0 3.29-2.66 5.95-5.95 5.95-.01 0-.02 0-.03 0-3.28 0-5.95-2.66-5.95-5.95 0-3.28 2.67-5.95 5.95-5.95zm.03 3.34c-.01 0-.02 0-.03 0-1.43.01-2.58 1.18-2.58 2.61 0 1.44 1.15 2.6 2.58 2.62h.03c1.43-.02 2.59-1.18 2.59-2.62 0-1.43-1.16-2.6-2.59-2.61zm-1.69 621.37c-.85-6.28-3.08-11.81-7.31-16.26-1.95 3.09-3.81 5.75-5.18 6.79-.79.61-1.55.82-2.17.78-.61-.03-1.18-.28-1.65-.8-4.46-4.61-6.5-10.91-7.91-17.63-3.69 3.83-7.9 7.3-13.6 9.76l-2.31-1.26c-2.78-16.55-12.51-28.39-25.19-35.46l-126.9-65.55-.14-.13c-40.95-34.61-75.67-76.84-77.71-131.25-1.17-31.14 9.54-49.85 17.36-64.01 4.77-8.64 8.55-15.44 7.22-22.51-6.24-4.58-10.36-8.83-12.29-12.66-2.26-4.47-1.8-8.47 1.45-11.97.63-.68 1.68-.72 2.36-.09.67.62.71 1.68.08 2.35-2.22 2.4-2.46 5.15-.92 8.21 1.82 3.59 5.82 7.52 11.79 11.84l.51.37.14.61c1.83 8-2.04 15.71-7.42 25.46-7.61 13.78-18.09 31.97-16.95 62.28 2 53.38 36.22 94.72 76.39 128.71l126.61 65.4.02.02c12.97 7.23 23.06 19.15 26.48 35.69 5.38-2.72 9.24-6.48 12.79-10.46l2.88.8c1.28 7 2.82 13.79 7.21 18.68.28-.26.7-.65 1.01-1.04 1.28-1.57 2.77-3.94 4.3-6.44l2.53-.36c3.94 3.55 6.58 7.79 8.2 12.59 1.62-4.8 4.26-9.04 8.19-12.59l2.54.36c1.53 2.5 3.02 4.87 4.29 6.44.32.39.73.78 1.02 1.04 4.39-4.89 5.92-11.68 7.21-18.68l2.88-.8c3.54 3.98 7.41 7.74 12.79 10.46 3.42-16.54 13.5-28.46 26.48-35.69l.02-.02 126.61-65.4c40.16-33.99 74.38-75.33 76.39-128.71 1.13-30.31-9.34-48.5-16.95-62.28-5.39-9.75-9.26-17.46-7.43-25.46l.14-.61.51-.37c5.97-4.32 9.98-8.25 11.79-11.84 1.55-3.06 1.31-5.81-.92-8.21-.62-.67-.58-1.73.09-2.35.67-.63 1.73-.59 2.36.09 3.25 3.5 3.71 7.5 1.45 11.97-1.93 3.83-6.05 8.08-12.29 12.66-1.33 7.07 2.44 13.87 7.22 22.51 7.81 14.16 18.53 32.87 17.36 64.01-2.05 54.41-36.77 96.64-77.72 131.25l-.14.13-126.89 65.55c-12.68 7.07-22.42 18.91-25.2 35.46l-2.3 1.26c-5.7-2.46-9.91-5.93-13.61-9.76-1.41 6.72-3.45 13.02-7.9 17.63-.47.52-1.04.77-1.66.8-.61.04-1.37-.17-2.16-.78-1.37-1.04-3.23-3.7-5.18-6.79-4.23 4.45-6.47 9.98-7.31 16.26.06.87-.58 1.65-1.46 1.76-.07.01-.15.02-.22.01-.08.01-.15 0-.23-.01-.88-.11-1.51-.89-1.45-1.76zm-249.52-360.21c-.04.7-.11 1.41-.18 2.13-.1.92-.92 1.58-1.83 1.48-.92-.09-1.58-.91-1.49-1.83 2.76-26.35-14.09-33.48-26.47-41.74-9.11-6.09-15.99-12.74-13.13-26.41.45-2.16 2.3-4.95 5.12-7.26 4.09-3.34 10.13-5.68 16.21-3.85 4.26 1.29 8.6 4.62 12.24 11.32l.07.13.05.14c2.11 6.4 1.4 11.46-1.16 14.82-2.58 3.39-7.14 5.19-13.07 4.76-14.57-1.06-16.39-19.08-5.17-22.33 3.63-1.05 6.38-.04 8.04 1.74 2.52 2.7 2.63 7.45-.74 10.66-.66.63-1.72.61-2.35-.06-.64-.66-.61-1.72.05-2.35 1.89-1.81 2.02-4.46.6-5.98-.96-1.03-2.58-1.42-4.67-.81-8.04 2.34-5.96 15.04 4.48 15.8 4.58.33 8.18-.83 10.18-3.45 2.01-2.64 2.31-6.61.69-11.62-3.07-5.59-6.62-8.5-10.2-9.58-4.94-1.48-9.82.53-13.14 3.24-2.11 1.73-3.63 3.74-3.97 5.36-1.85 8.85 1.08 14.27 5.99 18.64 3.49 3.1 7.91 5.71 12.37 8.58 4.58 2.96 9.2 6.19 12.98 10.41.22-.21.51-.35.84-.4 3.73-.61 4.46-.11 8.93-3.55.73-.56 1.78-.43 2.34.3s.42 1.77-.31 2.34c-4.86 3.75-5.93 3.54-9.57 4.07.97 1.34 1.87 2.78 2.66 4.32.22-.18.49-.31.79-.36 3.1-.5 3.72-.08 7.43-2.95.73-.56 1.78-.42 2.34.31.56.72.43 1.77-.3 2.33-4.48 3.45-5.2 3-8.94 3.6 0 0-.01.01-.01.01.77 1.98 1.38 4.13 1.8 6.47 3.3-.49 4.17-.19 8.43-3.48.73-.56 1.78-.42 2.34.31s.42 1.77-.31 2.34c-5.05 3.89-6.01 3.52-10.02 4.13.17 1.71.23 3.52.19 5.43.17-.09.35-.15.54-.19 3.72-.6 4.46-.1 8.93-3.55.73-.56 1.77-.42 2.33.31.57.72.43 1.77-.3 2.33-5.22 4.03-6.07 3.5-10.43 4.21-.43.07-.86-.04-1.2-.27zm17.96 157.86c.3-.86 1.26-1.32 2.12-1.01.87.31 1.32 1.26 1.02 2.13-1.43 4.02-1.46 8.27-.46 12.7.2.89-.37 1.79-1.26 1.99-.9.2-1.79-.37-2-1.26-1.13-5.07-1.06-9.94.58-14.55zm47.24 68.89c-.54-.74-.37-1.78.37-2.32s1.79-.38 2.33.37c2.5 3.44 5.64 6.72 9.31 9.85.7.6.78 1.66.18 2.35-.6.7-1.65.78-2.35.19-3.87-3.32-7.19-6.79-9.84-10.44zm-50.49-202.49c0 .92-.74 1.66-1.66 1.66s-1.67-.74-1.67-1.66v-4.82l2.13-1.6c2.88.83 5.59-.39 8.27-3.42.61-.69 1.67-.76 2.36-.15.68.61.75 1.67.14 2.36-3.08 3.48-6.29 5.01-9.57 4.79zm-9.32 40.88c.78-.49 1.81-.25 2.3.53s.25 1.81-.53 2.29c-5.37 3.35-7.91 7.65-9.53 12.25-.31.86-1.26 1.32-2.13 1.01-.87-.3-1.32-1.26-1.02-2.12 1.86-5.25 4.78-10.14 10.91-13.96zm3.01-53.53c-.91-.12-1.56-.96-1.44-1.87s.95-1.56 1.86-1.44c3.91.5 7.03-.03 9.49-1.5 2.44-1.46 4.19-3.85 5.45-6.91.35-.85 1.32-1.25 2.17-.91.85.36 1.26 1.33.91 2.18-1.56 3.79-3.8 6.68-6.82 8.5-3.01 1.8-6.82 2.56-11.62 1.95zm12.92 89.31c.14-.9.99-1.53 1.9-1.38.91.14 1.53.99 1.39 1.9-2.28 14.51-8.7 24.65-13.68 34.59-4.74 9.46-8.15 18.75-4.76 31.87.23.89-.31 1.8-1.2 2.03s-1.8-.31-2.03-1.2c-3.63-14.07-.08-24.04 5.01-34.19 4.85-9.68 11.15-19.51 13.37-33.62zm12.49 57.27c.56-.73 1.61-.86 2.34-.3.72.56.86 1.61.29 2.34-7.23 9.33-8.66 22.43-6.75 37.76.11.92-.54 1.75-1.45 1.86-.91.12-1.75-.53-1.86-1.45-2.04-16.34-.29-30.26 7.43-40.21zm5.56-433.2c3.28 0 5.95 2.66 5.95 5.95 0 3.28-2.67 5.95-5.95 5.95s-5.95-2.67-5.95-5.95c0-3.29 2.67-5.95 5.95-5.95zm0 3.33c-1.44 0-2.62 1.17-2.62 2.62 0 1.44 1.18 2.61 2.62 2.61s2.62-1.17 2.62-2.61c0-1.45-1.18-2.62-2.62-2.62zm463.02 271.68c-.34.23-.76.34-1.19.27-4.36-.71-5.21-.18-10.44-4.21-.73-.56-.86-1.61-.3-2.33.56-.73 1.61-.87 2.34-.31 4.47 3.45 5.2 2.95 8.93 3.55.19.04.37.1.53.19-.04-1.91.03-3.72.19-5.43-4-.61-4.96-.24-10.02-4.13-.73-.57-.86-1.61-.3-2.34s1.61-.87 2.34-.31c4.26 3.29 5.13 2.99 8.43 3.48.42-2.34 1.03-4.49 1.8-6.47-.01 0-.01-.01-.02-.01-3.73-.6-4.46-.15-8.93-3.6-.73-.56-.87-1.61-.31-2.33.57-.73 1.61-.87 2.34-.31 3.72 2.87 4.33 2.45 7.44 2.95.3.05.57.18.79.36.79-1.54 1.68-2.98 2.66-4.32-3.65-.53-4.71-.32-9.58-4.07-.73-.57-.86-1.61-.3-2.34s1.61-.86 2.34-.3c4.46 3.44 5.2 2.94 8.92 3.55.33.05.62.19.85.4 3.78-4.22 8.39-7.45 12.97-10.41 4.46-2.87 8.89-5.48 12.38-8.58 4.9-4.37 7.83-9.79 5.98-18.64-.33-1.62-1.85-3.63-3.97-5.36-3.31-2.71-8.19-4.72-13.13-3.24-3.59 1.08-7.13 3.99-10.2 9.58-1.63 5.01-1.32 8.98.69 11.62 1.99 2.62 5.59 3.78 10.17 3.45 10.44-.76 12.53-13.46 4.49-15.8-2.1-.61-3.72-.22-4.68.81-1.41 1.52-1.29 4.17.6 5.98.67.63.69 1.69.06 2.35-.64.67-1.69.69-2.36.06-3.36-3.21-3.25-7.96-.74-10.66 1.67-1.78 4.41-2.79 8.05-1.74 11.21 3.25 9.4 21.27-5.18 22.33-5.92.43-10.48-1.37-13.07-4.76-2.55-3.36-3.27-8.42-1.15-14.82l.05-.14.07-.13c3.63-6.7 7.98-10.03 12.24-11.32 6.08-1.83 12.12.51 16.2 3.85 2.82 2.31 4.68 5.1 5.13 7.26 2.85 13.67-4.03 20.32-13.14 26.41-12.38 8.26-29.22 15.39-26.47 41.74.1.92-.57 1.74-1.48 1.83-.92.1-1.74-.56-1.83-1.48-.08-.72-.14-1.43-.19-2.13zm-17.95 157.86c1.64 4.61 1.71 9.48.57 14.55-.2.89-1.09 1.46-1.99 1.26s-1.46-1.1-1.26-1.99c.99-4.43.97-8.68-.46-12.7-.31-.87.15-1.82 1.01-2.13.87-.31 1.82.15 2.13 1.01zm-47.24 68.89c-2.66 3.65-5.97 7.12-9.84 10.44-.7.59-1.75.51-2.35-.19-.6-.69-.52-1.75.18-2.35 3.66-3.13 6.8-6.41 9.31-9.85.54-.75 1.58-.91 2.33-.37.74.54.91 1.58.37 2.32zm50.48-202.49v-2.84c-3.27.22-6.48-1.31-9.56-4.79-.61-.69-.55-1.75.14-2.36s1.74-.54 2.35.15c2.68 3.03 5.4 4.25 8.28 3.42l2.13 1.6v4.82c0 .92-.75 1.66-1.67 1.66s-1.67-.74-1.67-1.66zm9.32 40.88c6.13 3.82 9.05 8.71 10.91 13.96.31.86-.15 1.82-1.01 2.12-.87.31-1.82-.15-2.13-1.01-1.63-4.6-4.16-8.9-9.53-12.25-.78-.48-1.02-1.51-.53-2.29.48-.78 1.51-1.02 2.29-.53zm-3.01-53.53c-4.79.61-8.61-.15-11.62-1.95-3.02-1.82-5.25-4.71-6.81-8.5-.35-.85.05-1.82.91-2.18.85-.34 1.82.06 2.17.91 1.26 3.06 3.01 5.45 5.45 6.91 2.45 1.47 5.57 2 9.48 1.5.91-.12 1.75.53 1.87 1.44.11.91-.53 1.75-1.45 1.87zm-12.91 89.31c2.22 14.11 8.52 23.94 13.37 33.62 5.08 10.15 8.63 20.12 5 34.19-.23.89-1.13 1.43-2.03 1.2-.89-.23-1.42-1.14-1.19-2.03 3.38-13.12-.02-22.41-4.76-31.87-4.99-9.94-11.4-20.08-13.68-34.59-.15-.91.47-1.76 1.38-1.9.91-.15 1.77.48 1.91 1.38zm-12.49 57.27c7.71 9.95 9.46 23.87 7.43 40.21-.12.92-.95 1.57-1.86 1.45-.92-.11-1.57-.94-1.45-1.86 1.91-15.33.48-28.43-6.76-37.76-.56-.73-.43-1.78.3-2.34s1.77-.43 2.34.3zm-5.56-433.2c3.28 0 5.95 2.66 5.95 5.95 0 3.28-2.67 5.95-5.95 5.95-3.29 0-5.95-2.67-5.95-5.95 0-3.29 2.66-5.95 5.95-5.95zm0 3.33c-1.45 0-2.62 1.17-2.62 2.62 0 1.44 1.17 2.61 2.62 2.61 1.44 0 2.61-1.17 2.61-2.61 0-1.45-1.17-2.62-2.61-2.62z" transform="matrix(1.0720883898 0 0 1.07208395431 -986.63243351134 -4872.87065866)"/><path d="m477.827 5499.95c-205.503 6.08-341.612-52.13-416.907-166.66 45.509-42.76 70.947-95.74 63.322-165.56 24.071 76.63 179.801 159.73 353.585 160.43 173.785-.7 329.514-83.8 353.585-160.43-7.624 69.82 17.814 122.8 63.322 165.56-75.294 114.53-211.404 172.74-416.907 166.66zm-76.513-32.44 20.086 1.44.226-3.15c-2.065-.15-3.386-.58-3.964-1.29-.489-.6-.729-1.65-.718-3.13l17.169-17.68-1.298 18.16c-.131 1.83-.542 3.05-1.232 3.65-.672.62-2.002.85-3.991.71l-.226 3.16 20.03 1.43.225-3.16c-2.102-.15-3.452-.57-4.05-1.26s-.831-1.96-.698-3.82l1.628-22.78c.136-1.9.557-3.13 1.265-3.71.726-.57 2.112-.79 4.158-.64l.225-3.16-20.029-1.43-.225 3.15c2.026.15 3.318.58 3.875 1.31.489.62.724 1.59.707 2.91l-17.141 17.67 1.283-17.95c.132-1.84.542-3.06 1.232-3.65.711-.62 2.07-.86 4.077-.71l.226-3.16-20.087-1.43-.225 3.15c2.102.15 3.442.58 4.02 1.29.598.69.831 1.95.7 3.79l-1.629 22.79c-.134 1.87-.565 3.1-1.292 3.7-.708.58-2.075.79-4.102.65zm169.811-98.59-2.824.37-1.191-9.12c-.113-.87-.153-1.61-.118-2.23.034-.62.197-1.13.488-1.54s.727-.74 1.309-.98c.581-.23 1.352-.42 2.312-.54l.876-.12-.409-3.13-20.759 2.71.409 3.13.678-.08c.96-.13 1.753-.15 2.377-.06.625.09 1.126.3 1.503.62.378.33.662.79.854 1.37.192.59.343 1.31.453 2.16l2.957 22.65c.116.88.146 1.63.092 2.24-.055.61-.227 1.12-.518 1.53s-.723.74-1.295.98c-.572.23-1.32.41-2.242.53l-.932.12.409 3.14c2.634-.21 5.24-.46 7.816-.75s5.163-.6 7.762-.94c1.939-.25 3.649-.5 5.129-.75 1.48-.26 2.751-.5 3.812-.73 1.729-.4 3.246-.99 4.551-1.77 1.305-.79 2.377-1.71 3.214-2.78.838-1.07 1.431-2.24 1.781-3.52s.436-2.6.259-3.95c-.327-2.51-1.388-4.55-3.184-6.14-.909-.8-1.866-1.42-2.872-1.86-1.006-.45-2.128-.75-3.365-.91-1.237-.17-2.622-.21-4.154-.14-1.531.08-3.258.24-5.178.49zm-.502 18.16-1.88-14.4 1.864-.24c1.224-.16 2.318-.18 3.282-.06s1.798.43 2.503.91c.704.48 1.277 1.16 1.717 2.04.441.89.748 1.99.923 3.33.255 1.96.095 3.59-.483 4.89-.267.59-.557 1.09-.868 1.49-.311.41-.664.74-1.059 1.02-.396.27-.841.48-1.337.64-.497.16-1.065.29-1.705.37-1.356.18-2.341.18-2.957.01zm104.617-77.31c1.038 2.28 2.715 4 5.031 5.14 2.316 1.15 4.64 1.19 6.974.13 2.298-1.04 3.774-2.8 4.425-5.27.652-2.46.455-4.87-.589-7.21l-1.737.79c.391 3.25-.978 5.58-4.107 7-3.267 1.49-6.003 1.02-8.208-1.39zm-92.711 136.87c.465 3.14 1.668 6.2 3.608 9.19 1.94 2.98 4.774 5.17 8.502 6.55 3.728 1.39 7.837 1.75 12.326 1.08 6.555-.97 11.454-3.66 14.696-8.08s4.466-9.3 3.671-14.65c-.835-5.64-3.452-10.11-7.85-13.42-4.398-3.32-9.959-4.47-16.683-3.47-3.738.55-7.129 1.85-10.174 3.91-3.045 2.05-5.283 4.86-6.715 8.41-1.431 3.55-1.891 7.05-1.381 10.48zm11.731-2.05c-.808-5.45-.609-9.54.599-12.27 1.207-2.73 3.407-4.34 6.6-4.81 3.381-.5 6.046.47 7.994 2.93s3.326 6.41 4.134 11.86c.883 5.95.674 10.24-.626 12.86-1.301 2.62-3.576 4.17-6.825 4.65-3.118.47-5.659-.49-7.623-2.85-1.963-2.37-3.381-6.49-4.253-12.37zm-337.797-7.83c.113-.31.126-.58.039-.84s-.282-.44-.584-.55l-.347-.13c-.936-.37-1.665-.74-2.187-1.11-.522-.36-.886-.76-1.094-1.18-.207-.42-.28-.89-.22-1.4.06-.52.21-1.1.449-1.74l8.297-22.22c.273-.73.542-1.35.809-1.85s.626-.86 1.075-1.09c.45-.22 1.022-.3 1.717-.24.695.07 1.609.29 2.743.68l1.106-2.96-35.571-13.28-1.106 2.96c.894.38 1.614.71 2.159 1.02.545.3.939.66 1.183 1.06.244.41.35.9.317 1.47-.032.58-.166 1.32-.403 2.23-.179.64-.349 1.24-.511 1.81-.161.57-.359 1.2-.593 1.88-.235.68-.512 1.46-.832 2.35-.32.88-.715 1.96-1.187 3.22-.644 1.72-1.286 3.33-1.924 4.83-.639 1.49-1.31 2.83-2.013 4.01-.703 1.17-1.471 2.17-2.306 3-.834.82-1.768 1.43-2.801 1.84-1.032.4-2.191.57-3.474.51-1.284-.06-2.735-.4-4.354-1l-2.722-1.02c-.302-.11-.57-.1-.803.04-.233.13-.406.35-.519.66-.146.39-.325.95-.538 1.68-.212.73-.462 1.73-.75 2.99s-.613 2.83-.975 4.73c-.361 1.89-.765 4.19-1.209 6.9l2.962 1.11c1.057-1.69 1.976-3.21 2.756-4.54.781-1.33 1.464-2.51 2.05-3.53.587-1.03 1.072-1.92 1.456-2.68.385-.76.71-1.42.976-1.97l30.741 11.48c-.16.59-.338 1.3-.536 2.13-.197.82-.411 1.82-.642 2.98-.23 1.16-.482 2.5-.756 4.02-.273 1.52-.574 3.26-.902 5.23l2.962 1.1c1.441-2.34 2.645-4.34 3.612-6.01.966-1.66 1.753-3.07 2.362-4.21.608-1.14 1.072-2.06 1.391-2.75s.551-1.23.697-1.62zm-13.751-37.36c.418-1.12.933-1.82 1.544-2.1.61-.28 1.414-.23 2.41.14l3.549 1.32c.534.2.956.42 1.266.64.311.23.523.5.638.82.115.31.142.69.082 1.12-.06.44-.207.97-.439 1.59l-8.716 23.35c-.212.57-.458 1.06-.738 1.49-.279.42-.631.74-1.057.95-.425.22-.956.31-1.591.27-.636-.03-1.407-.22-2.315-.55l-9.393-3.51c1.257-.54 2.423-1.29 3.496-2.24s2.08-2.07 3.022-3.37c.941-1.3 1.821-2.77 2.64-4.43.819-1.65 1.59-3.44 2.314-5.38 1.029-2.76 1.771-4.96 2.227-6.62.455-1.65.809-2.82 1.061-3.49zm406.403 22.71c-.261-1.16-.213-2.03.147-2.6.359-.56 1.058-.96 2.096-1.2l3.696-.82c.556-.13 1.026-.18 1.41-.16s.711.13.98.34c.269.2.497.5.683.89.186.4.352.92.497 1.57l5.448 24.32c.137.61.203 1.17.198 1.66-.005.5-.142.96-.41 1.37s-.692.77-1.271 1.1c-.579.32-1.376.61-2.391.85l.691 3.09 19.567-4.38-.691-3.09c-1.056.24-1.921.35-2.593.35-.673-.01-1.226-.13-1.66-.37-.434-.25-.766-.6-.997-1.07-.23-.46-.422-1.03-.576-1.72l-5.187-23.15c-.17-.76-.279-1.42-.327-1.99-.049-.56.053-1.06.306-1.5.253-.43.688-.81 1.306-1.13.619-.33 1.507-.64 2.666-.94l-.691-3.08-37.049 8.3.691 3.08c.953-.17 1.741-.28 2.364-.32s1.148.04 1.573.24c.426.21.782.56 1.069 1.06.288.5.579 1.2.875 2.08.201.64.389 1.24.564 1.8.175.57.351 1.2.527 1.9s.372 1.51.587 2.42c.214.92.469 2.03.764 3.35.722 3.22 1.2 6.05 1.433 8.48.232 2.43.253 4.47.063 6.14-.191 1.67-.581 2.97-1.171 3.9-.589.93-1.338 1.5-2.246 1.7-1.167.26-1.842-.02-2.025-.83-.016-.08-.03-.2-.039-.37-.01-.18-.011-.36-.004-.54.007-.19.004-.37-.007-.56-.012-.18-.028-.31-.049-.41-.228-1.02-.723-1.75-1.483-2.19-.761-.44-1.679-.54-2.754-.3-.518.11-.998.32-1.438.61-.441.29-.813.65-1.118 1.07s-.515.89-.63 1.42c-.114.54-.105 1.1.028 1.69.187.84.559 1.54 1.116 2.12.557.57 1.253 1.01 2.089 1.31s1.791.46 2.866.48 2.215-.1 3.42-.37c2.13-.48 3.922-1.12 5.375-1.94 1.453-.81 2.628-1.77 3.526-2.89.898-1.11 1.547-2.39 1.946-3.82s.611-3.01.635-4.72c.023-1.72-.115-3.58-.416-5.57-.301-2-.705-4.13-1.212-6.39-.643-2.87-1.226-5.12-1.748-6.76-.521-1.63-.861-2.8-1.019-3.51zm-280.826 22.48 15.726 2.1-1.406 10.53c-.242 1.81-.721 3-1.44 3.57-.718.58-2.066.73-4.042.47l-.418 3.13 19.903 2.66.419-3.14c-2.089-.27-3.411-.78-3.964-1.51-.553-.74-.708-2.02-.464-3.85l3.023-22.64c.252-1.88.753-3.09 1.504-3.62s2.143-.66 4.176-.39l.418-3.13-19.904-2.66-.418 3.13c2.014.27 3.281.79 3.802 1.54.522.76.664 2.03.428 3.8l-1.146 8.58-15.726-2.1 1.146-8.58c.244-1.83.734-3.02 1.47-3.58.736-.57 2.102-.72 4.097-.45l.418-3.13-19.96-2.67-.419 3.13c2.09.28 3.406.79 3.948 1.54.543.74.693 2.02.452 3.82l-3.023 22.64c-.249 1.87-.749 3.07-1.502 3.61-.752.54-2.135.68-4.149.41l-.419 3.14 19.961 2.66.418-3.13c-2.051-.28-3.343-.79-3.875-1.54s-.679-2.02-.44-3.81zm171.758-73.71c1.271-.35 2.5-.82 3.689-1.39 1.189-.58 2.237-1.26 3.145-2.04.909-.79 1.62-1.67 2.134-2.66.513-.98.731-2.05.653-3.21-.08-1.19-.428-2.26-1.042-3.18-.615-.93-1.533-1.7-2.753-2.3-1.221-.61-2.777-1.03-4.668-1.27s-4.144-.28-6.758-.1c-2.331.16-4.462.51-6.395 1.06s-3.584 1.25-4.953 2.12c-1.369.86-2.414 1.87-3.136 3.02-.721 1.15-1.037 2.4-.946 3.75.024.36.119.76.283 1.22.163.46.44.88.828 1.27s.899.71 1.534.95c.635.25 1.426.34 2.373.27.815-.05 1.501-.18 2.06-.37.558-.19 1.004-.41 1.338-.68s.567-.55.7-.84c.133-.28.191-.56.173-.82-.022-.32-.113-.61-.272-.86-.159-.24-.332-.48-.519-.7-.186-.23-.359-.46-.519-.71-.159-.25-.249-.52-.269-.82-.036-.53.102-1.03.413-1.5.31-.47.763-.89 1.357-1.25s1.311-.66 2.153-.89c.841-.22 1.782-.37 2.824-.44.815-.06 1.574-.02 2.279.13.704.14 1.311.4 1.822.77.511.38.924.87 1.241 1.48.317.6.505 1.34.564 2.21.053.8-.056 1.57-.329 2.32s-.735 1.51-1.388 2.28c-.652.77-1.517 1.55-2.595 2.36-1.078.8-2.396 1.66-3.953 2.56-.695.41-1.253.75-1.673 1.02-.419.26-.737.5-.951.7-.215.21-.354.4-.417.59-.064.18-.088.4-.071.64.013.19.079.4.198.61s.274.4.466.56c.192.17.42.3.684.4.263.1.546.13.849.11.739-.05 1.53-.45 2.373-1.21 1.059-.95 2.148-1.46 3.266-1.54 1.629-.11 2.867.47 3.713 1.72.846 1.26 1.351 3.1 1.514 5.52.106 1.58-.011 2.94-.353 4.08-.341 1.15-.829 2.1-1.463 2.86-.634.75-1.375 1.33-2.224 1.73-.848.4-1.718.63-2.608.69-1.554.1-2.832-.02-3.836-.37s-1.853-1.02-2.547-2c-.693-.96-1.426-1.67-2.199-2.12s-1.746-.64-2.921-.56c-1.497.1-2.602.51-3.316 1.21-.713.71-1.031 1.64-.953 2.79.06.89.446 1.68 1.159 2.36.712.69 1.725 1.24 3.038 1.67s2.913.72 4.798.87c1.885.16 4.022.16 6.409 0 1.553-.1 3.104-.32 4.653-.64 1.548-.33 3.021-.77 4.42-1.34 1.398-.57 2.688-1.27 3.869-2.11 1.181-.83 2.191-1.79 3.03-2.9.839-1.1 1.472-2.36 1.901-3.77.428-1.4.585-2.96.47-4.67-.121-1.78-.539-3.26-1.256-4.44-.718-1.18-1.641-2.1-2.771-2.76-1.13-.67-2.41-1.11-3.842-1.31-1.432-.21-2.924-.25-4.477-.13zm-66.096 7.22 2.847.07c3.835.1 6.931-.11 9.29-.63s4.344-1.66 5.956-3.41c1.611-1.76 2.448-3.9 2.512-6.42.047-1.86-.361-3.59-1.223-5.18-.862-1.58-2.173-2.88-3.934-3.87-1.76-.99-3.706-1.62-5.836-1.88-2.13-.27-5.151-.45-9.061-.55l-15.669-.05-.08 3.16.94.02c1.879.05 3.109.43 3.689 1.14.581.7.849 1.94.804 3.71l-.575 22.83c-.044 1.73-.364 2.94-.961 3.64s-1.854 1.02-3.771.97l-.684-.01-.079 3.16 20.928.52.08-3.16-.883-.02c-1.898-.05-3.138-.42-3.718-1.13-.581-.71-.849-1.95-.804-3.71zm.086-3.42.378-15c2.525.06 4.352.29 5.482.69 1.129.4 2.049 1.22 2.758 2.47.71 1.24 1.04 2.85.99 4.82-.056 2.2-.603 3.95-1.643 5.24-1.039 1.3-3.068 1.91-6.086 1.83zm-60.474-3.07c-.277 3.16.181 6.42 1.374 9.77s3.441 6.14 6.745 8.35c3.304 2.22 7.216 3.52 11.737 3.92 6.602.58 11.993-.9 16.173-4.45 4.179-3.54 6.505-8 6.978-13.39.497-5.68-1.008-10.64-4.516-14.88-3.507-4.24-8.647-6.66-15.419-7.26-3.764-.33-7.366.15-10.805 1.44s-6.268 3.5-8.486 6.62c-2.217 3.13-3.478 6.42-3.781 9.88zm11.888.73c.48-5.49 1.625-9.42 3.435-11.8 1.809-2.37 4.322-3.42 7.537-3.14 3.405.3 5.77 1.87 7.093 4.71 1.324 2.84 1.745 7.01 1.265 12.49-.526 6-1.725 10.12-3.6 12.37-1.874 2.25-4.447 3.22-7.72 2.94-3.14-.28-5.39-1.79-6.749-4.55-1.36-2.76-1.78-7.1-1.261-13.02zm68.858-12.26c2.126-.04 3.513.26 4.162.9.648.64.99 1.89 1.025 3.73l.432 22.84c.035 1.9-.278 3.17-.94 3.81-.662.63-2.018.97-4.069 1.01l.06 3.16 20.419-.38-.06-3.16-.598.01c-1.88.03-3.125-.29-3.736-.97s-.933-1.91-.967-3.67l-.432-22.84c-.032-1.73.234-2.95.8-3.68.565-.72 1.807-1.1 3.724-1.14l.598-.01-.059-3.16-20.419.39zm-42.061 110.93 20.136.25.04-3.17c-2.07-.02-3.414-.37-4.032-1.04-.525-.58-.825-1.61-.902-3.09l16.097-18.66-.225 18.2c-.023 1.84-.361 3.08-1.015 3.72-.634.66-1.949.97-3.942.95l-.04 3.16 20.079.25.04-3.16c-2.108-.03-3.481-.37-4.118-1.02-.638-.66-.945-1.91-.922-3.78l.283-22.84c.024-1.89.372-3.15 1.044-3.77.691-.62 2.062-.92 4.113-.89l.039-3.16-20.079-.25-.039 3.16c2.031.03 3.347.38 3.946 1.07.524.6.816 1.55.876 2.86l-16.069 18.66.223-18c.023-1.84.361-3.08 1.015-3.72.672-.65 2.015-.97 4.028-.94l.039-3.16-20.136-.25-.039 3.16c2.107.02 3.47.37 4.089 1.04.637.66.945 1.9.922 3.75l-.283 22.84c-.023 1.88-.381 3.14-1.072 3.77-.673.62-2.025.92-4.056.89zm-121.708-18.2c-.773.49-2.166.53-4.178.14l-.612 3.1 20.037 3.95.612-3.1-.587-.12c-1.863-.37-3.017-.94-3.463-1.73-.441-.8-.491-2.07-.149-3.8l4.419-22.41c.338-1.72.864-2.86 1.578-3.44.694-.58 1.992-.68 3.892-.3l.894.17.612-3.1-19.086-3.76-.612 3.1c.503.1 1.013.29 1.529.56.517.28.891.61 1.123 1.01.442.8.492 2.07.15 3.8l-1.422 7.21c-.568.53-1.186.99-1.854 1.38-.667.39-1.33.71-1.988.96-.659.24-1.273.41-1.842.5-.57.09-1.041.1-1.414.03-1.807-.36-2.473-1.74-1.999-4.14l1.73-8.77c.323-1.64.812-2.6 1.467-2.88.673-.27 1.379-.37 2.116-.28l.585-2.96-16.32-3.22-.584 2.96c.745.15 1.338.33 1.78.54.442.22.76.49.955.83.194.34.291.75.291 1.25-.001.49-.071 1.09-.21 1.8l-1.538 7.8c-.606 3.07-.277 5.55.986 7.43 1.264 1.89 3.368 3.12 6.311 3.7 1.975.39 3.874.38 5.698-.04 1.824-.41 3.484-1.27 4.981-2.58l-2.149 10.89c-.367 1.87-.947 3.04-1.739 3.52zm-71.133-13.11 19.437 5.27.827-3.06c-1.998-.54-3.212-1.21-3.643-2.02-.364-.69-.399-1.76-.103-3.21l20.244-14.05-4.76 17.56c-.481 1.78-1.118 2.9-1.91 3.35-.779.48-2.13.46-4.055-.06l-.827 3.05 19.382 5.25.827-3.05c-2.034-.55-3.279-1.22-3.733-2.02-.454-.79-.438-2.08.048-3.88l5.974-22.05c.497-1.83 1.148-2.96 1.953-3.39.824-.43 2.226-.37 4.205.16l.827-3.05-19.382-5.25-.827 3.05c1.961.53 3.146 1.21 3.553 2.03.36.7.405 1.7.135 2.99l-20.216 14.05 4.707-17.37c.482-1.78 1.119-2.9 1.911-3.35.815-.47 2.194-.44 4.137.09l.827-3.05-19.437-5.27-.827 3.05c2.035.55 3.267 1.23 3.698 2.04.455.79.441 2.07-.041 3.85l-5.974 22.05c-.491 1.81-1.151 2.94-1.98 3.39-.805.43-2.189.38-4.15-.15zm117.498-90.26-.081.53c2.083.32 3.385.85 3.904 1.61.518.75.64 2.02.364 3.83l-3.424 22.38c-.284 1.86-.803 3.05-1.556 3.58s-2.134.64-4.142.33l-.478 3.13 20.018 3.06c5.575.85 9.7.57 12.376-.84 2.675-1.42 4.25-3.68 4.723-6.77.422-2.76-.174-5.14-1.788-7.15s-4.247-3.63-7.897-4.88c3.32-.36 5.886-1.16 7.699-2.4s2.883-2.93 3.211-5.07c.433-2.83-.426-5.25-2.577-7.26s-6.531-3.52-13.138-4.54l-2.083-.31-14.566-1.8.004-.02-19.614-4.31-.678 3.09c1.985.44 3.201 1.06 3.648 1.85.393.69.486 1.68.279 2.98l-19.511 15.02 3.86-17.58c.395-1.8.977-2.95 1.746-3.44.791-.5 2.17-.54 4.136-.11l.678-3.09-19.669-4.32-.678 3.09c2.059.45 3.323 1.07 3.792 1.86.492.76.541 2.05.146 3.85l-4.898 22.31c-.403 1.84-1.007 3-1.813 3.48-.784.47-2.168.49-4.152.05l-.678 3.09 19.669 4.32.678-3.09c-2.022-.45-3.268-1.06-3.737-1.84-.397-.67-.483-1.74-.259-3.21l19.539-15.01-3.902 17.77c-.395 1.8-.977 2.95-1.746 3.44-.754.52-2.105.56-4.053.13l-.678 3.09 19.614 4.3.678-3.08c-2.059-.46-3.335-1.07-3.827-1.84-.492-.76-.538-2.06-.139-3.87l4.897-22.32c.407-1.85 1.003-3.01 1.786-3.48.802-.47 2.205-.48 4.208-.04zm12.921 15.75 2.011-13.15c2.027.31 3.539.69 4.535 1.15.995.46 1.733 1.26 2.214 2.39.48 1.13.584 2.58.311 4.36-.365 2.39-1.128 3.99-2.289 4.8-1.162.81-2.775 1.06-4.84.74zm-.526 3.43 1.83.28c1.99.3 3.461.73 4.415 1.28.953.55 1.634 1.44 2.042 2.66.408 1.23.459 2.84.151 4.85-.384 2.52-1.119 4.33-2.203 5.46-1.084 1.12-2.517 1.54-4.3 1.27-1.145-.18-2.004-.5-2.577-.96s-.926-.98-1.058-1.56c-.133-.58-.119-1.39.042-2.44zm-91.021-38.46.841.24c1.805.53 2.899 1.21 3.281 2.04.381.83.327 2.09-.165 3.79l-6.356 21.94c-.48 1.66-1.098 2.75-1.852 3.28-.755.52-2.053.51-3.895-.02l-.657-.19-.879 3.04 20.108 5.82.88-3.04-.848-.24c-1.824-.53-2.927-1.21-3.309-2.04-.382-.84-.327-2.1.165-3.8l2.559-8.83 2.736.79c3.685 1.07 6.733 1.65 9.147 1.75 2.414.09 4.623-.5 6.627-1.79s3.357-3.15 4.06-5.57c.517-1.79.561-3.56.13-5.32-.43-1.75-1.37-3.33-2.821-4.74-1.45-1.41-3.172-2.51-5.166-3.31-1.994-.79-4.869-1.73-8.626-2.82l-15.142-4.03-.152.52c-.061-.3-.187-.57-.378-.82-.477-.63-1.259-1.15-2.346-1.55-1.088-.4-2.286-.66-3.595-.78-1.309-.13-2.623-.02-3.943.32-.739.2-1.422.41-2.051.63-.628.23-1.269.5-1.921.82-.652.31-1.337.68-2.055 1.09-.718.42-1.521.9-2.408 1.44-1.175.72-2.418 1.41-3.729 2.06s-2.575 1.21-3.793 1.66-2.33.78-3.337.99c-1.006.21-1.795.24-2.368.09l3.138-8.56c.3-.82.613-1.49.938-2.02s.712-.91 1.16-1.14.981-.32 1.598-.26c.618.05 1.372.24 2.263.57l.589.22 1.088-2.97-19.335-7.09-1.089 2.97.562.2c.892.33 1.59.67 2.096 1.03s.856.77 1.05 1.23c.193.47.248 1.01.163 1.63-.084.61-.277 1.33-.577 2.15l-7.862 21.45c-.295.8-.598 1.46-.911 1.99-.313.52-.69.9-1.133 1.14s-.979.34-1.608.29c-.63-.05-1.408-.24-2.335-.58l-.561-.21-1.089 2.97 18.908 6.93 1.088-2.96c-.945-.35-1.686-.7-2.222-1.06s-.901-.77-1.094-1.24c-.194-.46-.245-1-.155-1.6s.292-1.34.605-2.19l3.147-8.58.856.31c.499.18 1.026.39 1.581.61s1.085.45 1.589.67c.504.23.945.43 1.325.61.379.18.63.32.753.43.299.23.546.48.739.75.193.28.37.69.531 1.24.161.56.331 1.31.51 2.25.179.95.396 2.21.649 3.78.487 3.03.924 5.49 1.309 7.39s.722 3.26 1.01 4.07l11.339 4.16 1.088-2.97c-1.105-.4-1.979-1.11-2.623-2.11-.672-1.04-1.458-3.61-2.357-7.72-.6-2.67-1.172-4.8-1.716-6.41-.544-1.6-1.055-2.78-1.531-3.52-.403-.61-.838-1.16-1.308-1.65-.469-.48-1.045-.95-1.729-1.4-.783-.51-1.589-.95-2.416-1.31-.828-.37-1.66-.7-2.498-1.01.948-.16 1.828-.35 2.639-.58.812-.23 1.609-.5 2.39-.81s1.566-.66 2.356-1.05c.789-.38 1.641-.8 2.556-1.26.841-.42 1.581-.77 2.22-1.05.64-.28 1.232-.5 1.777-.67.546-.16 1.073-.28 1.583-.34.51-.07 1.064-.09 1.665-.08.564.01 1.084.07 1.558.18s.941.23 1.399.36c.459.13.93.25 1.413.37.483.11 1.025.18 1.625.2.738.03 1.351-.11 1.838-.42.261-.16.5-.41.716-.75zm10.824 18.7 4.177-14.41c2.426.7 4.134 1.39 5.125 2.06.992.67 1.673 1.7 2.043 3.08.371 1.39.281 3.02-.268 4.92-.613 2.12-1.586 3.67-2.92 4.66-1.334.98-3.451 1.06-6.351.22zm158.099 69.35c-.031 2.5.758 4.77 2.366 6.79 1.608 2.03 3.694 3.05 6.257 3.09 2.525.03 4.607-.94 6.245-2.89 1.639-1.96 2.483-4.21 2.534-6.78l-1.908-.02c-1.026 3.1-3.257 4.63-6.694 4.59-3.589-.05-5.867-1.63-6.835-4.76zm87.725 29.13c.793-.55 1.509-1.09 2.148-1.64s1.248-1.13 1.825-1.74 1.141-1.26 1.693-1.95c.552-.68 1.146-1.42 1.784-2.22.585-.74 1.108-1.37 1.569-1.89.46-.53.903-.98 1.328-1.36s.855-.7 1.289-.98.927-.53 1.478-.77c.514-.23 1.01-.4 1.488-.5.477-.09.951-.18 1.421-.26s.948-.17 1.435-.26c.487-.1 1.007-.27 1.558-.51.681-.28 1.177-.67 1.489-1.15.311-.49.427-1.2.347-2.15-.082-.96-.472-1.63-1.171-2-.698-.37-1.624-.51-2.778-.41s-2.351.37-3.591.81-2.385 1.09-3.435 1.96c-.588.49-1.119.97-1.594 1.44-.474.47-.94.98-1.398 1.54-.457.57-.924 1.19-1.4 1.87s-1.001 1.45-1.575 2.32c-.76 1.15-1.596 2.29-2.509 3.44-.913 1.14-1.826 2.18-2.739 3.1-.912.93-1.781 1.7-2.605 2.31-.825.62-1.528.98-2.11 1.08l-.77-9.08c-.074-.87-.075-1.61-.003-2.23.071-.62.262-1.12.571-1.52s.755-.7 1.338-.91c.582-.21 1.346-.36 2.292-.44l.625-.05-.268-3.16-20.519 1.75.267 3.15.596-.05c.946-.08 1.724-.07 2.334.04.609.11 1.1.34 1.472.68s.65.8.833 1.4c.184.59.313 1.32.387 2.19l1.93 22.77c.072.85.077 1.58.014 2.18-.063.61-.244 1.11-.543 1.52s-.744.72-1.335.94-1.379.38-2.362.46l-.596.05.267 3.15 20.065-1.7-.267-3.15c-1.003.08-1.823.08-2.46-.02s-1.142-.32-1.514-.66c-.371-.34-.644-.8-.818-1.39-.173-.58-.299-1.33-.376-2.24l-.772-9.11.908-.08c.53-.04 1.093-.08 1.691-.11s1.172-.05 1.724-.06 1.038-.01 1.457-.01c.42 0 .708.03.864.07.369.08.699.21.989.37.291.17.626.47 1.006.9.38.44.85 1.05 1.412 1.83s1.289 1.83 2.182 3.14c1.721 2.54 3.157 4.6 4.309 6.15 1.152 1.57 2.031 2.65 2.635 3.27l12.034-1.02-.267-3.15c-1.173.1-2.263-.17-3.27-.81-1.047-.66-2.846-2.66-5.397-6-1.67-2.17-3.091-3.86-4.262-5.09-1.171-1.22-2.129-2.07-2.874-2.54-.624-.39-1.251-.7-1.881-.94s-1.351-.43-2.161-.55c-.926-.13-1.841-.18-2.745-.17-.903.02-1.8.07-2.689.15zm72.466-102.69c1.848-.55 3.15-.61 3.907-.19.809.43 1.49 1.52 2.043 3.27l6.851 21.79c.564 1.8.616 3.1.158 3.92-.446.8-1.638 1.51-3.577 2.12l.949 3.01 19.21-6.04-.948-3.01c-1.975.62-3.36.7-4.158.26-.678-.39-1.284-1.27-1.819-2.66l9.479-22.74 5.459 17.36c.553 1.76.618 3.04.196 3.85-.399.82-1.549 1.53-3.451 2.13l.948 3.02 19.156-6.02-.948-3.02c-2.011.63-3.421.74-4.23.31-.81-.42-1.494-1.52-2.052-3.29l-6.851-21.79c-.57-1.82-.631-3.12-.185-3.92.307-.53.942-1.02 1.905-1.47l.043.1c1.918-.88 3.301-1.14 4.146-.8.855.32 1.664 1.32 2.427 3l9.458 20.79c.779 1.71.99 3 .636 3.88-.346.84-1.443 1.68-3.293 2.52l1.309 2.88 18.33-8.34-1.309-2.87c-1.884.85-3.249 1.11-4.094.77-.72-.3-1.43-1.11-2.129-2.42l6.633-23.73 7.536 16.57c.763 1.68.984 2.94.664 3.8-.295.86-1.35 1.71-3.165 2.53l1.309 2.88 18.278-8.32-1.309-2.87c-1.918.87-3.305 1.15-4.16.82-.855-.32-1.668-1.32-2.438-3.02l-9.459-20.79c-.786-1.73-1.007-3.02-.661-3.86.362-.85 1.477-1.71 3.344-2.55l-1.309-2.88-18.278 8.31 1.309 2.88c1.849-.84 3.192-1.08 4.028-.71.728.32 1.397 1.06 2.009 2.22l-6.608 23.72-7.453-16.39c-.763-1.67-.984-2.94-.664-3.79.33-.88 1.411-1.74 3.243-2.57l-1.309-2.88-16.588 7.54-18.855 5.93.948 3.02c1.939-.61 3.3-.68 4.085-.21.684.4 1.258 1.22 1.724 2.44l-9.453 22.74-5.399-17.17c-.552-1.76-.617-3.04-.195-3.85.435-.83 1.612-1.55 3.532-2.16l-.948-3.01-18.945 5.95c-.156-.12-.331-.21-.524-.29-.738-.28-1.674-.3-2.808-.07-1.134.24-2.29.65-3.467 1.24-1.178.58-2.235 1.37-3.173 2.36-.524.56-.994 1.09-1.408 1.62-.415.52-.815 1.09-1.201 1.7-.386.62-.774 1.29-1.165 2.02-.39.73-.818 1.56-1.284 2.49-.615 1.24-1.307 2.48-2.075 3.73-.768 1.24-1.549 2.38-2.343 3.41s-1.563 1.89-2.308 2.6c-.744.71-1.399 1.15-1.963 1.33l-1.862-8.92c-.178-.86-.269-1.59-.272-2.21-.004-.62.124-1.15.383-1.58.259-.44.665-.79 1.217-1.07.553-.28 1.294-.52 2.223-.71l.614-.13-.646-3.1-20.159 4.21.646 3.09.585-.12c.93-.19 1.704-.27 2.322-.23.619.03 1.133.19 1.543.49.41.29.743.72.997 1.29s.47 1.28.649 2.13l4.665 22.36c.175.84.268 1.56.278 2.17.011.61-.108 1.14-.355 1.58-.248.44-.652.8-1.212 1.09s-1.323.54-2.29.74l-.585.12.645 3.1 19.714-4.11-.646-3.1c-.985.21-1.8.3-2.445.28-.644-.02-1.171-.18-1.582-.47-.41-.29-.737-.72-.979-1.28-.243-.56-.458-1.29-.644-2.18l-1.868-8.95.893-.19c.52-.11 1.075-.21 1.664-.31.59-.11 1.158-.2 1.705-.27.547-.08 1.028-.14 1.445-.19s.705-.06.866-.03c.376.03.718.12 1.027.25.308.13.677.38 1.107.77.429.39.97.93 1.622 1.64s1.501 1.66 2.546 2.86c2.015 2.31 3.689 4.18 5.021 5.59s2.335 2.38 3.01 2.92l11.822-2.47-.646-3.1c-1.152.25-2.267.11-3.344-.4-1.117-.53-3.145-2.29-6.082-5.31-1.919-1.95-3.534-3.46-4.845-4.53-1.31-1.08-2.364-1.8-3.16-2.18-.665-.31-1.326-.54-1.981-.71-.655-.16-1.392-.25-2.211-.28-.935-.01-1.85.04-2.745.17-.894.13-1.778.28-2.652.47.721-.64 1.366-1.27 1.934-1.89.568-.63 1.102-1.27 1.601-1.95s.981-1.39 1.446-2.14c.465-.74.966-1.55 1.502-2.42.492-.8.936-1.49 1.329-2.07.394-.57.779-1.07 1.155-1.5.377-.43.764-.81 1.161-1.13.398-.33.856-.64 1.375-.94.482-.3.954-.52 1.416-.68.462-.15.922-.3 1.379-.43s.921-.28 1.393-.44c.472-.15.967-.38 1.486-.69.641-.36 1.087-.8 1.338-1.32.1-.21.165-.45.194-.72zm125.23 40.05c.476.74.969 1.2 1.48 1.4.539.2 1.166.21 1.884.03.584-.13 1.101-.31 1.551-.52.449-.21.886-.43 1.309-.64.424-.22.857-.44 1.298-.64.442-.21.939-.37 1.49-.49.585-.14 1.133-.23 1.645-.27.513-.03 1.053-.03 1.62.02.568.05 1.193.15 1.876.3.682.14 1.478.34 2.387.58.987.26 1.907.5 2.758.72.852.22 1.692.4 2.519.55.828.15 1.662.25 2.503.31.842.06 1.742.07 2.703.03-.759.47-1.507.97-2.243 1.49-.737.53-1.438 1.12-2.103 1.78-.577.58-1.047 1.15-1.409 1.72-.361.57-.677 1.2-.947 1.88-.318.82-.581 2.08-.789 3.76-.209 1.68-.338 3.89-.387 6.62-.05 4.21-.3 6.89-.749 8.04-.427 1.11-1.141 1.98-2.142 2.6l1.666 2.68 10.265-6.36c.118-.85.174-2.25.167-4.19-.006-1.94-.077-4.44-.212-7.51-.069-1.58-.11-2.86-.126-3.82-.015-.96 0-1.73.045-2.31.046-.57.135-1.02.27-1.32.134-.31.324-.61.571-.89.099-.13.316-.32.651-.57s.727-.54 1.175-.86c.448-.33.921-.65 1.419-.98.499-.34.974-.64 1.426-.92l.775-.48 4.816 7.77c.48.77.825 1.45 1.035 2.02.21.58.268 1.11.172 1.6-.095.5-.37.98-.822 1.44-.453.46-1.107.95-1.962 1.48l1.665 2.69 16.73-10.37-1.665-2.69c-.856.53-1.59.9-2.202 1.1-.613.2-1.162.23-1.648.1-.485-.14-.938-.43-1.358-.87s-.87-1.05-1.35-1.83l-4.816-7.77.775-.48c.452-.28.937-.57 1.455-.87.519-.3 1.022-.57 1.51-.83s.92-.48 1.295-.67.642-.3.801-.33c.367-.09.717-.13 1.051-.11.334.01.769.13 1.305.34.535.22 1.231.55 2.085.99.855.44 1.978 1.05 3.37 1.82 2.686 1.48 4.895 2.66 6.629 3.53s3.01 1.44 3.828 1.71l10.266-6.36-1.666-2.69c-1.001.62-2.094.88-3.282.77-1.229-.11-3.739-1.08-7.53-2.91-2.47-1.17-4.504-2.04-6.103-2.6s-2.837-.89-3.714-.97c-.731-.06-1.432-.05-2.103.02-.672.06-1.396.23-2.174.49-.885.3-1.726.66-2.523 1.09-.796.43-1.574.88-2.333 1.35.461-.85.851-1.66 1.172-2.44s.6-1.57.838-2.38c.238-.8.447-1.64.629-2.5.181-.86.375-1.79.583-2.79.188-.92.369-1.72.542-2.39.172-.68.362-1.29.57-1.82.207-.53.442-1.01.704-1.46.263-.44.586-.89.97-1.35.352-.44.719-.81 1.1-1.12.382-.3.765-.59 1.148-.88.384-.28.77-.57 1.16-.88s.776-.7 1.161-1.16c.477-.56.745-1.13.803-1.7.059-.57-.162-1.26-.662-2.07-.51-.82-1.16-1.24-1.95-1.26-.79-.01-1.677.29-2.662.9s-1.93 1.39-2.837 2.34c-.906.96-1.63 2.06-2.173 3.31-.302.7-.559 1.37-.77 2-.21.64-.392 1.31-.545 2.02-.152.71-.287 1.47-.404 2.29s-.235 1.75-.353 2.78c-.157 1.37-.383 2.78-.678 4.21s-.64 2.77-1.034 4.01c-.395 1.24-.82 2.32-1.278 3.24-.457.92-.921 1.56-1.392 1.91l-4.8-7.74c-.461-.75-.798-1.41-1.013-1.99s-.275-1.12-.18-1.61c.096-.5.355-.97.779-1.43.423-.45 1.038-.92 1.845-1.42l.533-.33-1.665-2.69-17.505 10.85 1.665 2.68.533-.33c.807-.5 1.507-.84 2.1-1.01.594-.18 1.133-.2 1.619-.07.486.14.941.43 1.366.88s.867 1.05 1.327 1.79l4.801 7.75c-.53.26-1.309.39-2.337.39-1.027 0-2.183-.1-3.467-.29-1.285-.2-2.635-.49-4.05-.86-1.416-.38-2.772-.8-4.069-1.27-.978-.35-1.861-.66-2.648-.92s-1.532-.48-2.235-.66-1.385-.32-2.046-.41c-.66-.09-1.372-.16-2.135-.2-1.362-.07-2.672.09-3.928.48-1.257.38-2.377.88-3.362 1.49-.984.61-1.647 1.27-1.987 1.99-.006.01-.013.02-.019.04l-.322-.78-35.109 14.45 1.204 2.92c.91-.33 1.668-.57 2.275-.72.607-.14 1.138-.15 1.592-.02.455.13.866.42 1.233.86.368.45.773 1.08 1.215 1.91.306.59.592 1.15.86 1.67.268.53.549 1.12.841 1.78s.621 1.43.988 2.29c.367.87.807 1.92 1.32 3.17.701 1.7 1.326 3.32 1.874 4.85.547 1.53.964 2.96 1.249 4.31.285 1.34.402 2.59.35 3.76s-.319 2.26-.8 3.26c-.482 1-1.215 1.91-2.2 2.74-.984.82-2.275 1.57-3.873 2.22l-2.686 1.11c-.299.12-.488.31-.566.57-.079.26-.056.54.067.84.159.38.409.92.751 1.6s.836 1.58 1.482 2.7 1.479 2.5 2.501 4.13c1.021 1.63 2.291 3.59 3.809 5.88l2.924-1.2c-.376-1.96-.73-3.69-1.063-5.2-.332-1.51-.633-2.83-.902-3.99-.269-1.15-.521-2.13-.754-2.95-.234-.82-.441-1.52-.619-2.1l30.341-12.49c.284.54.635 1.18 1.054 1.92.418.74.937 1.61 1.557 2.62s1.347 2.16 2.18 3.46 1.797 2.79 2.893 4.45l2.924-1.2c-.535-2.7-1.015-4.99-1.439-6.87-.425-1.88-.802-3.44-1.132-4.69s-.613-2.24-.85-2.96c-.236-.73-.434-1.28-.593-1.67-.123-.3-.303-.51-.541-.64-.237-.12-.505-.13-.804 0l-.342.14c-.938.36-1.723.59-2.355.67-.632.09-1.168.05-1.607-.12s-.811-.46-1.117-.88c-.305-.42-.588-.94-.848-1.58l-9.033-21.94c-.297-.72-.517-1.35-.66-1.9-.143-.54-.127-1.05.049-1.53.175-.47.54-.92 1.094-1.34.461-.35 1.108-.73 1.941-1.13zm-21.265 12.21c-.456-1.1-.554-1.97-.296-2.59s.879-1.13 1.862-1.53l3.503-1.44c.527-.22.981-.35 1.363-.4.383-.04.723.01 1.023.17.299.15.574.41.825.77.25.36.502.84.755 1.46l9.488 23.04c.232.56.389 1.09.471 1.59.083.5.042.98-.123 1.43s-.492.87-.981 1.28c-.49.41-1.182.79-2.078 1.16l-9.271 3.82c.552-1.26.899-2.59 1.041-4.02.143-1.42.117-2.93-.077-4.53-.194-1.59-.552-3.27-1.074-5.04-.522-1.76-1.177-3.6-1.965-5.52-1.121-2.72-2.077-4.84-2.868-6.36s-1.324-2.62-1.598-3.29zm-539.682-24.24c1.512.8 2.375 1.61 2.587 2.45.225.89-.058 2.12-.848 3.7l-10.246 20.48c-.773 1.55-1.578 2.51-2.414 2.89-.837.38-2.113.14-3.828-.72l-.637-.32-1.414 2.83 31.586 15.8 5.901-11.22-2.853-1.43c-1.173 1.41-2.532 2.61-4.077 3.6-1.546.99-2.99 1.5-4.332 1.53-1.341.03-3.142-.52-5.4-1.65-1.664-.84-2.821-1.62-3.471-2.36-.649-.74-.942-1.41-.878-2 .064-.6.503-1.71 1.319-3.34l4.269-8.53 3.312 1.65c1.715.86 2.581 1.79 2.598 2.8.016 1.01-.222 2-.714 2.99-.051.1-.141.26-.268.47l2.878 1.44 5.863-11.72-2.879-1.44c-.917 1.67-1.771 2.66-2.561 2.99s-1.949.11-3.477-.66l-3.21-1.6 5.964-11.93 6.445 3.23c1.511.75 2.52 1.42 3.025 2.01.505.58.84 1.49 1.006 2.73.165 1.24.111 2.77-.161 4.58l2.853 1.43 3.964-9.2-29.422-14.71-.401.8-11.51-8.26-24.564 13.6 5.128-27.56-12.563-9.02-1.844 2.57c1.666 1.2 2.581 2.26 2.747 3.18.165.93-.317 2.18-1.446 3.75l-11.844 16.5c-1.063 1.48-1.916 2.5-2.56 3.05-.644.56-1.513.83-2.609.83-1.096-.01-2.138-.36-3.125-1.07l-1.844 2.57 11.291 8.1 1.844-2.57c-1.049-.75-1.768-1.63-2.157-2.63-.39-1.01-.438-1.92-.146-2.75s.959-1.97 2-3.42l11.644-16.22-5.896 32.83 1.804 1.29 29.456-16.51-13.239 18.44c-1.008 1.4-1.955 2.23-2.84 2.47-.886.24-2.108-.2-3.666-1.32l-.625-.45-1.843 2.57 17.075 12.26 1.844-2.57-.717-.51c-1.543-1.11-2.355-2.12-2.437-3.03-.081-.92.393-2.09 1.423-3.52l13.322-18.56c1.008-1.4 1.954-2.22 2.84-2.47.886-.24 2.115.21 3.689 1.34l.624.45zm502.436 51.95 3.54-1.09c1.833-.56 3.103-.48 3.81.24.706.71 1.221 1.6 1.544 2.65.034.11.078.28.132.52l3.077-.94-3.844-12.52-3.077.94c.484 1.84.553 3.15.207 3.93s-1.336 1.42-2.969 1.92l-3.431 1.05-3.911-12.74 6.889-2.11c1.615-.5 2.807-.71 3.574-.64s1.638.5 2.613 1.29c.976.78 1.992 1.92 3.049 3.43l3.05-.94-3.478-9.39-31.45 9.65.911 2.97.68-.21c1.798-.55 3.084-.58 3.859-.1.775.49 1.422 1.58 1.94 3.27l6.719 21.89c.507 1.65.588 2.9.243 3.75s-1.434 1.56-3.267 2.12l-.681.21.928 3.02 33.764-10.36-3.474-12.19-3.049.94c.124 1.82-.032 3.63-.468 5.41-.436 1.79-1.13 3.15-2.08 4.1-.951.94-2.634 1.79-5.048 2.53-1.779.55-3.158.77-4.138.69-.98-.09-1.652-.37-2.016-.84-.364-.48-.814-1.59-1.349-3.33zm-522.262-445.63c7.067 79.56-1.221 117.97-55.94 139.82 40.918-36.67 48.081-57.59 51.994-110.93-5.074 46.92-22.36 80.34-78.518 71.71 72.543-37.01-18.943-201.7 108.892-277.67-37.376 29.54-35.128 79.12-26.428 177.07zm15.471 194.88c-29.06-9.07-65.216-21.84-66.692-12.01 2.842 38.89-4.85 73.9-19.056 106.52l-68.031-60.98c31.597-27.1 47.626-67.8 51.921-118.76 30.092 41.24 72.429 73.42 112.815 88.55l-21.72 48.16zm596.484-194.88c8.699-97.95 10.948-147.53-26.428-177.07 127.835 75.97 36.349 240.66 108.891 277.67-56.157 8.63-73.444-24.79-78.517-71.71 3.913 53.34 11.076 74.26 51.994 110.93-54.72-21.85-63.007-60.26-55.94-139.82zm-15.472 194.88 10.764 51.48-21.72-48.16c40.386-15.13 82.722-47.31 112.815-88.55 4.294 50.96 20.323 91.66 51.921 118.76l-68.031 60.98c-14.206-32.62-21.898-67.63-19.056-106.52-1.476-9.83-37.632 2.94-66.693 12.01z" transform="matrix(1.0720883898 0 0 1.07208395431 -35.93554 -4872.87065866)"/></g></svg>