<?xml version="1.0" encoding="UTF-8" standalone="no"?>
<!DOCTYPE svg PUBLIC "-//W3C//DTD SVG 1.1//EN" "http://www.w3.org/Graphics/SVG/1.1/DTD/svg11.dtd">
<svg width="100%" height="100%" viewBox="0 0 1024 1019" version="1.1" xmlns="http://www.w3.org/2000/svg" xmlns:xlink="http://www.w3.org/1999/xlink" xml:space="preserve" xmlns:serif="http://www.serif.com/" style="fill-rule:evenodd;clip-rule:evenodd;stroke-linejoin:round;stroke-miterlimit:2;">
    <g transform="matrix(1,0,0,1,-5393,-121.499)">
        <g transform="matrix(1.18242,0,0,0.907442,-984.254,10.5846)">
            <g transform="matrix(0.748812,0,0,2.25242,4160.97,-3635.22)">
                <g transform="matrix(3.2945,0,0,1.42713,1644.53,1666.78)">
                    <path d="M35.858,248.959L18.114,249.249L16.58,245.857L28.522,232.743L30.201,236.453L21.644,245.763L34.314,245.547L35.858,248.959ZM26.61,265.861C25.76,264.4 25.309,262.899 25.257,261.359C25.204,259.82 25.538,258.397 26.258,257.089C26.978,255.782 28.029,254.727 29.41,253.924C30.79,253.12 32.227,252.729 33.719,252.749C35.211,252.769 36.613,253.183 37.926,253.989C39.238,254.796 40.32,255.93 41.17,257.391C42.02,258.852 42.469,260.35 42.518,261.882C42.566,263.415 42.232,264.839 41.516,266.152C40.8,267.466 39.752,268.525 38.371,269.328C36.99,270.131 35.551,270.52 34.055,270.493C32.559,270.466 31.157,270.053 29.848,269.253C28.54,268.453 27.46,267.322 26.61,265.861ZM29.386,264.246C29.869,265.078 30.497,265.718 31.269,266.165C32.041,266.613 32.88,266.83 33.786,266.814C34.692,266.798 35.581,266.537 36.452,266.03C37.324,265.523 37.99,264.88 38.452,264.1C38.913,263.32 39.14,262.484 39.132,261.591C39.124,260.699 38.879,259.837 38.395,259.005C37.911,258.174 37.283,257.535 36.511,257.087C35.739,256.639 34.9,256.422 33.994,256.438C33.088,256.453 32.2,256.715 31.328,257.222C30.456,257.729 29.79,258.372 29.329,259.152C28.867,259.932 28.64,260.768 28.648,261.661C28.656,262.553 28.902,263.415 29.386,264.246ZM47.16,267.191L49.492,270.152L39.11,278.328L44.161,284.743L41.749,286.643L34.365,277.266L47.16,267.191ZM52.717,290.358L48.551,294.351L45.943,291.63L50.143,287.605L53.338,275.809L56.107,278.698L53.894,286.845L62.128,284.979L64.688,287.65L52.717,290.358ZM77.226,298.96L66.547,311.256L64.21,309.227L64.564,296.437L58.08,303.902L55.27,301.461L65.949,289.166L68.303,291.21L67.932,303.984L74.416,296.519L77.226,298.96ZM97.939,313.154L89.091,326.826L86.493,325.145L85.049,312.432L79.676,320.733L76.551,318.71L85.4,305.038L88.017,306.732L89.442,319.432L94.815,311.131L97.939,313.154ZM105.486,331.237L98.739,327.823L95.876,330.286L92.43,328.542L106.259,317.287L109.581,318.968L108.726,336.787L105.197,335.002L105.486,331.237ZM105.719,328.147L106.229,321.418L101.11,325.816L105.719,328.147ZM118.93,326.231L113.989,324.576L114.964,321.664L128.422,326.17L127.446,329.082L122.505,327.428L118.309,339.959L114.735,338.762L118.93,326.231ZM131.529,327.07L135.159,328.087L130.763,343.768L127.133,342.751L131.529,327.07ZM144.139,347.083C142.476,346.777 141.044,346.142 139.841,345.179C138.638,344.216 137.776,343.036 137.253,341.638C136.729,340.241 136.613,338.756 136.902,337.185C137.192,335.615 137.83,334.269 138.817,333.15C139.804,332.031 141.031,331.236 142.498,330.764C143.965,330.294 145.529,330.212 147.192,330.518C148.855,330.825 150.284,331.459 151.479,332.42C152.673,333.381 153.536,334.562 154.067,335.961C154.598,337.36 154.718,338.845 154.429,340.416C154.139,341.987 153.497,343.331 152.502,344.449C151.508,345.567 150.281,346.362 148.821,346.834C147.362,347.307 145.801,347.39 144.139,347.083ZM144.721,343.926C145.667,344.1 146.561,344.04 147.404,343.746C148.246,343.452 148.957,342.956 149.535,342.258C150.113,341.561 150.494,340.716 150.676,339.724C150.859,338.733 150.805,337.808 150.513,336.95C150.222,336.092 149.735,335.375 149.053,334.8C148.37,334.225 147.556,333.85 146.61,333.675C145.665,333.501 144.77,333.561 143.927,333.855C143.085,334.149 142.374,334.645 141.796,335.343C141.218,336.041 140.837,336.886 140.654,337.877C140.472,338.868 140.526,339.793 140.818,340.651C141.109,341.509 141.596,342.226 142.278,342.801C142.961,343.377 143.775,343.751 144.721,343.926ZM173.94,333.703L172.703,349.942L169.618,349.707L162.272,339.232L161.521,349.091L157.81,348.808L159.047,332.569L162.155,332.806L169.477,343.28L170.228,333.421L173.94,333.703ZM189.044,345.69L181.505,346.265L180.331,349.854L176.48,350.147L182.482,333.357L186.193,333.074L194.691,348.76L190.747,349.06L189.044,345.69ZM187.644,342.927L184.595,336.906L182.494,343.319L187.644,342.927ZM195.466,332.5L199.173,331.817L201.569,344.813L209.6,343.333L210.156,346.353L198.419,348.516L195.466,332.5ZM227.644,342.247C225.403,342.876 223.486,342.744 221.891,341.854C220.297,340.964 219.178,339.369 218.533,337.069L216.071,328.288L219.7,327.271L222.124,335.918C222.911,338.725 224.47,339.802 226.799,339.15C227.935,338.831 228.706,338.249 229.112,337.402C229.519,336.555 229.52,335.407 229.114,333.958L226.69,325.311L230.274,324.307L232.736,333.088C233.381,335.388 233.253,337.333 232.354,338.922C231.454,340.511 229.884,341.619 227.644,342.247ZM246.891,316.737L253.603,331.575L250.784,332.851L239.311,327.188L243.386,336.197L239.994,337.731L233.282,322.893L236.123,321.608L247.575,327.28L243.499,318.271L246.891,316.737ZM250.641,314.79L253.899,312.894L262.089,326.971L258.831,328.867L250.641,314.79ZM271.536,301.882L274.338,319.405L271.198,321.405L256.523,311.442L259.958,309.255L270.386,316.405L268.377,303.893L271.536,301.882ZM290.418,302.821L292.389,305.115L282.821,313.33L272.212,300.974L281.55,292.956L283.521,295.251L277.025,300.828L279.328,303.511L285.065,298.586L286.975,300.81L281.238,305.735L283.693,308.595L290.418,302.821ZM303.359,294.314L297.91,293.443L297.781,293.578L295.512,295.947L298.788,299.085L296.18,301.807L284.42,290.541L289.297,285.45C290.295,284.408 291.335,283.671 292.417,283.236C293.499,282.801 294.558,282.682 295.593,282.88C296.629,283.077 297.583,283.594 298.457,284.431C299.331,285.268 299.882,286.199 300.113,287.225C300.344,288.252 300.256,289.312 299.852,290.407L306.159,291.391L303.359,294.314ZM295.817,287.186C295.157,286.553 294.446,286.28 293.685,286.368C292.925,286.456 292.153,286.908 291.37,287.726L289.245,289.943L293.345,293.87L295.469,291.653C296.252,290.835 296.669,290.042 296.718,289.273C296.767,288.504 296.467,287.808 295.817,287.186ZM312.753,283.791C311.964,284.808 311.062,285.684 310.05,286.419C309.037,287.155 308.087,287.64 307.198,287.873L305.741,285.122C306.573,284.884 307.407,284.481 308.242,283.911C309.076,283.342 309.788,282.678 310.378,281.918C311.035,281.073 311.394,280.35 311.457,279.751C311.52,279.152 311.343,278.69 310.926,278.367C310.62,278.129 310.273,278.051 309.885,278.133C309.498,278.215 309.097,278.395 308.685,278.674C308.272,278.952 307.745,279.353 307.103,279.876C306.11,280.675 305.254,281.297 304.536,281.741C303.818,282.185 303.028,282.432 302.167,282.479C301.305,282.527 300.445,282.218 299.588,281.552C298.84,280.972 298.321,280.244 298.028,279.369C297.735,278.494 297.728,277.511 298.005,276.42C298.282,275.33 298.877,274.196 299.79,273.02C300.428,272.199 301.149,271.473 301.954,270.841C302.758,270.209 303.573,269.742 304.397,269.439L305.944,272.113C304.347,272.778 303.088,273.705 302.165,274.893C301.518,275.726 301.175,276.447 301.135,277.054C301.096,277.662 301.297,278.137 301.738,278.479C302.179,278.822 302.685,278.846 303.256,278.553C303.827,278.26 304.583,277.723 305.524,276.941C306.517,276.142 307.373,275.52 308.091,275.076C308.809,274.632 309.593,274.381 310.442,274.324C311.291,274.267 312.145,274.571 313.002,275.237C313.738,275.808 314.249,276.533 314.537,277.415C314.825,278.296 314.828,279.285 314.546,280.382C314.264,281.479 313.666,282.615 312.753,283.791ZM305.769,265.557L307.818,262.393L321.49,271.242L319.441,274.406L305.769,265.557ZM314.953,256.785L312.346,261.298L309.687,259.762L316.785,247.472L319.444,249.008L316.838,253.521L328.281,260.13L326.396,263.394L314.953,256.785ZM330.39,242.714L335.656,245.074L334.115,248.513L328.807,246.135L316.674,247.607L318.311,243.956L326.693,242.944L321.869,236.015L323.382,232.639L330.39,242.714Z" style="fill:white;fill-rule:nonzero;"/>
                </g>
                <g transform="matrix(3.2945,0,0,1.42713,1644.53,1666.78)">
                    <path d="M76.071,65.135L78.13,63.352L85.885,72.304L83.826,74.088L76.071,65.135ZM96.819,63.499L92.425,57.936L93.292,64.679L92.334,65.432L86.07,63.102L90.367,68.57L88.345,70.159L81.027,60.847L82.809,59.446L90.842,62.494L89.727,54.009L91.51,52.608L98.841,61.911L96.819,63.499ZM108.539,53.774L109.636,55.681L101.686,60.252L95.782,49.984L103.541,45.523L104.637,47.429L99.24,50.533L100.522,52.763L105.289,50.022L106.352,51.87L101.585,54.611L102.951,56.987L108.539,53.774ZM116.782,38.994L121.662,49.787L119.164,50.916L117.163,46.491L112.261,48.708L114.262,53.132L111.764,54.262L106.884,43.469L109.382,42.34L111.306,46.595L116.209,44.379L114.285,40.124L116.782,38.994ZM120.352,37.525L122.887,36.526L127.231,47.544L124.697,48.543L120.352,37.525ZM141.748,30.598L144.983,41.991L142.379,42.731L139.753,33.486L135.847,34.595L136.44,36.995C136.845,38.627 137.087,39.974 137.166,41.036C137.245,42.098 137.119,42.967 136.789,43.641C136.458,44.315 135.859,44.776 134.991,45.022C134.633,45.124 134.182,45.187 133.638,45.213L133.168,42.937C133.321,42.94 133.485,42.917 133.658,42.868C134.288,42.689 134.621,42.192 134.66,41.378C134.699,40.564 134.525,39.356 134.14,37.753L132.991,33.084L141.748,30.598ZM156.863,37.64L157.249,39.805L148.222,41.418L146.139,29.758L154.951,28.185L155.337,30.35L149.208,31.445L149.66,33.977L155.073,33.01L155.448,35.109L150.035,36.075L150.516,38.773L156.863,37.64ZM165.337,39.267C164.134,39.358 163.025,39.18 162.012,38.731C161,38.281 160.18,37.614 159.553,36.729C158.925,35.843 158.567,34.816 158.478,33.646C158.389,32.476 158.588,31.406 159.074,30.436C159.56,29.465 160.27,28.682 161.203,28.085C162.136,27.488 163.21,27.143 164.425,27.051C165.448,26.973 166.387,27.082 167.241,27.379C168.095,27.677 168.829,28.141 169.443,28.773L167.811,30.526C166.943,29.665 165.918,29.279 164.737,29.369C164.006,29.424 163.365,29.634 162.816,29.998C162.267,30.363 161.854,30.844 161.577,31.441C161.3,32.04 161.189,32.704 161.245,33.435C161.301,34.166 161.51,34.807 161.875,35.356C162.239,35.905 162.72,36.318 163.318,36.595C163.916,36.872 164.581,36.983 165.312,36.927C166.493,36.837 167.447,36.295 168.174,35.301L170.052,36.787C169.542,37.516 168.884,38.092 168.079,38.515C167.275,38.939 166.36,39.189 165.337,39.267ZM172.014,26.864L174.737,26.795L175.036,38.636L172.313,38.705L172.014,26.864ZM194.646,27.79L188.908,36.755C188.355,37.618 187.722,38.254 187.006,38.664C186.291,39.073 185.533,39.247 184.735,39.186C184.116,39.139 183.485,38.956 182.843,38.635L183.658,36.61C184.12,36.792 184.508,36.895 184.823,36.919C185.16,36.945 185.47,36.886 185.752,36.744C186.034,36.601 186.302,36.364 186.553,36.033L186.664,35.905L182.667,26.879L185.586,27.101L188.242,33.684L191.963,27.586L194.646,27.79ZM200.953,36.063L199.088,35.729L198.249,40.427L195.567,39.948L197.65,28.288L200.331,28.767L199.489,33.481L201.421,33.826L205.328,29.659L208.176,30.168L203.357,35.117L206.211,41.849L203.146,41.301L200.953,36.063ZM215.95,32.21C216.96,32.496 217.788,32.913 218.436,33.461C219.084,34.008 219.52,34.648 219.746,35.381C219.972,36.113 219.965,36.902 219.725,37.749C219.487,38.584 219.079,39.257 218.5,39.767C217.922,40.277 217.214,40.592 216.377,40.712C215.539,40.832 214.616,40.748 213.607,40.462L211.312,39.81L210.42,42.952L207.783,42.203L211.019,30.809L215.95,32.21ZM214.071,38.272C214.863,38.497 215.513,38.497 216.023,38.272C216.533,38.047 216.877,37.62 217.055,36.991C217.237,36.351 217.17,35.801 216.855,35.342C216.54,34.884 215.986,34.541 215.194,34.317L213.045,33.706L211.922,37.662L214.071,38.272ZM227.575,45.914L222.46,43.897L220.553,45.874L217.94,44.843L227.195,35.761L229.714,36.754L230.296,49.715L227.62,48.66L227.575,45.914ZM227.536,43.662L227.452,38.754L224.042,42.284L227.536,43.662ZM236.823,39.712L239.321,40.841L234.441,51.633L231.944,50.504L236.823,39.712ZM236.947,38.616C236.639,38.477 236.427,38.261 236.312,37.967C236.197,37.674 236.209,37.373 236.349,37.065C236.488,36.756 236.706,36.548 237.002,36.441C237.298,36.334 237.601,36.349 237.909,36.489C238.217,36.628 238.426,36.843 238.536,37.135C238.646,37.425 238.631,37.725 238.492,38.034C238.353,38.342 238.137,38.551 237.846,38.661C237.555,38.77 237.255,38.756 236.947,38.616ZM240.062,40.025C239.753,39.885 239.544,39.67 239.434,39.379C239.324,39.088 239.339,38.788 239.478,38.48C239.618,38.171 239.833,37.962 240.124,37.852C240.415,37.743 240.715,37.757 241.023,37.897C241.332,38.036 241.543,38.253 241.658,38.546C241.773,38.839 241.761,39.14 241.621,39.449C241.482,39.757 241.264,39.965 240.968,40.072C240.672,40.18 240.37,40.164 240.062,40.025ZM252.745,47.976L246.841,58.244L244.465,56.877L246.885,52.667L242.221,49.985L239.8,54.195L237.424,52.829L243.328,42.561L245.704,43.928L243.377,47.976L248.041,50.658L250.369,46.61L252.745,47.976ZM256.224,58.604L254.68,57.506L251.914,61.395L249.694,59.816L256.558,50.164L258.778,51.742L256.003,55.645L257.603,56.782L262.915,54.684L265.273,56.361L258.801,58.776L258.506,66.082L255.968,64.277L256.224,58.604ZM267.659,57.956L269.718,59.739L264.667,65.571L273.99,63.44L275.934,65.123L268.179,74.076L266.133,72.303L271.173,66.484L261.861,68.603L259.905,66.908L267.659,57.956Z" style="fill:white;fill-rule:nonzero;"/>
                </g>
                <g transform="matrix(3.2945,0,0,1.42713,1644.53,1666.78)">
                    <path d="M98.449,281.222L100.874,283.126L94.199,291.631L99.455,295.756L97.903,297.733L90.222,291.704L98.449,281.222ZM110.243,303.069L108.912,305.155L100.214,299.607L107.38,288.373L115.869,293.789L114.539,295.875L108.633,292.108L107.077,294.547L112.292,297.874L111.002,299.896L105.787,296.569L104.129,299.169L110.243,303.069ZM115.864,309.264C114.928,308.781 114.088,308.188 113.345,307.484C112.601,306.779 112.069,306.087 111.748,305.408L113.743,303.823C114.059,304.457 114.508,305.067 115.091,305.653C115.674,306.239 116.316,306.713 117.015,307.073C117.793,307.474 118.428,307.655 118.92,307.615C119.411,307.576 119.755,307.365 119.953,306.981C120.098,306.699 120.109,306.409 119.985,306.109C119.861,305.809 119.656,305.515 119.37,305.224C119.084,304.935 118.683,304.57 118.166,304.133C117.374,303.454 116.746,302.858 116.281,302.347C115.816,301.837 115.5,301.238 115.332,300.552C115.165,299.866 115.284,299.129 115.691,298.339C116.046,297.651 116.553,297.124 117.213,296.757C117.874,296.391 118.663,296.237 119.582,296.297C120.5,296.356 121.501,296.665 122.584,297.223C123.34,297.612 124.032,298.084 124.661,298.636C125.29,299.189 125.788,299.774 126.155,300.391L124.236,302.036C123.462,300.852 122.528,299.978 121.434,299.414C120.667,299.019 120.036,298.85 119.541,298.91C119.047,298.969 118.695,299.202 118.486,299.608C118.276,300.014 118.332,300.424 118.653,300.84C118.975,301.255 119.52,301.783 120.29,302.422C121.082,303.101 121.711,303.697 122.175,304.208C122.64,304.718 122.959,305.311 123.132,305.986C123.306,306.66 123.189,307.393 122.782,308.182C122.433,308.859 121.926,309.379 121.26,309.743C120.595,310.106 119.8,310.257 118.875,310.195C117.951,310.132 116.947,309.822 115.864,309.264ZM131.456,310.862L129.737,315.258L126.865,314.135L128.598,309.703L126.914,299.847L129.963,301.04L131.122,307.849L136.593,303.632L139.412,304.735L131.456,310.862ZM145.436,317.265L139.487,315.565L137.568,317.986L134.53,317.117L143.902,305.938L146.83,306.775L148.897,321.224L145.786,320.334L145.436,317.265ZM145.146,314.747L144.516,309.261L141.082,313.585L145.146,314.747ZM162.709,323.322C160.811,323.178 159.374,322.54 158.397,321.41C157.421,320.279 157.006,318.74 157.154,316.791L157.72,309.351L160.794,309.585L160.238,316.911C160.057,319.29 160.953,320.554 162.927,320.704C163.889,320.777 164.645,320.545 165.195,320.008C165.745,319.47 166.066,318.588 166.16,317.361L166.716,310.034L169.753,310.265L169.188,317.706C169.04,319.654 168.397,321.113 167.261,322.083C166.125,323.053 164.608,323.466 162.709,323.322ZM177.755,318.469L176.008,320.374L176.083,323.743L173.02,323.812L172.721,310.491L175.784,310.422L175.924,316.645L181.684,310.289L185.109,310.212L179.724,316.274L185.732,323.526L182.135,323.607L177.755,318.469ZM196.744,322.128L193.718,318.778L193.567,318.797L190.905,319.143L191.383,322.824L188.325,323.222L186.609,310.008L192.328,309.265C193.499,309.113 194.54,309.176 195.453,309.454C196.365,309.732 197.101,310.2 197.66,310.856C198.219,311.513 198.562,312.332 198.69,313.314C198.817,314.295 198.691,315.173 198.311,315.945C197.932,316.717 197.332,317.349 196.513,317.839L200.029,321.701L196.744,322.128ZM195.594,313.716C195.497,312.974 195.184,312.435 194.654,312.101C194.125,311.767 193.4,311.659 192.482,311.779L189.99,312.102L190.588,316.708L193.08,316.385C193.999,316.265 194.671,315.973 195.097,315.508C195.523,315.043 195.689,314.446 195.594,313.716ZM211.079,315.971L205.131,317.672L204.781,320.741L201.743,321.61L203.791,307.166L206.719,306.329L216.11,317.503L212.999,318.392L211.079,315.971ZM209.502,313.987L206.068,309.663L205.439,315.148L209.502,313.987ZM214.378,303.972L217.304,302.999L221.506,315.644L218.58,316.616L214.378,303.972ZM231.242,296.854L236.73,308.996L234.423,310.038L225.038,305.403L228.37,312.775L225.594,314.029L220.106,301.887L222.431,300.837L231.799,305.48L228.467,298.108L231.242,296.854ZM241.811,299.777L241.316,302.314L243.139,305.147L240.562,306.805L233.352,295.599L235.93,293.941L239.297,299.176L240.892,290.749L243.774,288.895L242.345,296.876L251.255,299.926L248.23,301.872L241.811,299.777ZM258.005,291.044L253.139,294.864L253.973,297.838L251.488,299.789L247.932,285.641L250.328,283.761L263.242,290.563L260.697,292.561L258.005,291.044ZM255.796,289.802L250.984,287.093L252.472,292.411L255.796,289.802Z" style="fill:white;fill-rule:nonzero;"/>
                </g>
                <g transform="matrix(3.2945,0,0,1.42713,1644.53,1666.78)">
                    <path d="M9.471,197.924C9.585,196.895 9.924,196.061 10.487,195.424C11.05,194.787 11.812,194.382 12.774,194.209C14.194,193.954 15.397,194.293 16.385,195.226C17.372,196.16 18.046,197.627 18.405,199.626L19.826,207.526L3.797,210.409L2.455,202.944C2.12,201.082 2.218,199.567 2.748,198.4C3.279,197.233 4.209,196.53 5.537,196.291C6.331,196.148 7.065,196.221 7.739,196.509C8.414,196.798 8.991,197.269 9.471,197.924ZM9.775,205.528L9.153,202.07C9.008,201.261 8.734,200.68 8.331,200.327C7.929,199.974 7.407,199.855 6.766,199.971C6.14,200.083 5.697,200.379 5.437,200.859C5.176,201.34 5.118,201.977 5.26,202.771L5.882,206.228L9.775,205.528ZM15.682,200.258C15.369,198.518 14.526,197.771 13.152,198.018C11.824,198.257 11.316,199.247 11.629,200.987L12.362,205.063L16.415,204.334L15.682,200.258ZM17.247,183.161C17.292,184.851 16.968,186.384 16.275,187.76C15.583,189.136 14.607,190.225 13.348,191.026C12.089,191.827 10.661,192.249 9.064,192.291C7.467,192.334 6.019,191.988 4.719,191.255C3.42,190.521 2.388,189.486 1.623,188.148C0.859,186.811 0.454,185.297 0.409,183.607C0.364,181.917 0.688,180.388 1.381,179.02C2.074,177.651 3.05,176.563 4.309,175.754C5.567,174.945 6.995,174.519 8.592,174.476C10.189,174.434 11.637,174.784 12.937,175.525C14.237,176.266 15.269,177.302 16.033,178.631C16.798,179.961 17.203,181.471 17.247,183.161ZM14.038,183.246C14.012,182.285 13.768,181.422 13.306,180.658C12.844,179.895 12.211,179.303 11.409,178.882C10.606,178.461 9.701,178.264 8.693,178.29C7.685,178.317 6.792,178.562 6.013,179.025C5.234,179.488 4.634,180.113 4.212,180.899C3.791,181.687 3.593,182.561 3.618,183.522C3.644,184.483 3.888,185.346 4.351,186.109C4.813,186.873 5.445,187.465 6.248,187.886C7.05,188.307 7.955,188.504 8.963,188.477C9.971,188.451 10.865,188.206 11.644,187.743C12.422,187.28 13.023,186.655 13.444,185.868C13.866,185.081 14.063,184.207 14.038,183.246ZM1.577,156.65L17.816,157.885L17.534,161.597L4.357,160.594L3.933,166.162L7.311,166.536C9.61,166.788 11.463,167.116 12.871,167.519C14.28,167.921 15.34,168.496 16.054,169.242C16.767,169.989 17.076,170.981 16.982,172.218C16.943,172.729 16.811,173.34 16.586,174.055L13.425,173.581C13.502,173.384 13.55,173.162 13.569,172.915C13.637,172.018 13.156,171.351 12.123,170.915C11.091,170.479 9.449,170.128 7.198,169.864L0.628,169.13L1.577,156.65ZM2.245,151.507L2.908,147.82L13.349,149.698L4.283,140.172L4.909,136.692L20.938,139.574L20.279,143.238L9.86,141.364L18.903,150.886L18.273,154.389L2.245,151.507ZM11.009,116.76L26.44,121.97L25.234,125.541L18.907,123.405L16.541,130.415L22.867,132.55L21.662,136.121L6.232,130.912L7.437,127.341L13.521,129.395L15.888,122.385L9.804,120.331L11.009,116.76ZM30.967,111.712C30.284,113.225 29.338,114.445 28.129,115.371C26.92,116.297 25.574,116.847 24.092,117.021C22.61,117.194 21.134,116.949 19.663,116.286C18.193,115.623 17.032,114.678 16.182,113.452C15.331,112.226 14.853,110.853 14.747,109.333C14.642,107.814 14.933,106.291 15.622,104.764C16.203,103.477 16.954,102.416 17.875,101.581C18.796,100.746 19.84,100.167 21.008,99.842L22.049,102.967C20.437,103.447 19.295,104.43 18.626,105.914C18.211,106.833 18.042,107.744 18.12,108.647C18.197,109.55 18.506,110.365 19.045,111.094C19.585,111.822 20.314,112.394 21.232,112.808C22.152,113.223 23.063,113.391 23.965,113.313C24.868,113.236 25.684,112.928 26.412,112.388C27.14,111.849 27.711,111.12 28.126,110.201C28.796,108.716 28.771,107.208 28.05,105.674L31.081,104.387C31.625,105.484 31.887,106.657 31.867,107.907C31.847,109.158 31.547,110.426 30.967,111.712ZM28.759,91.443C29.75,89.722 30.893,88.622 32.189,88.142C33.485,87.662 34.886,87.855 36.392,88.722C37.992,89.642 38.919,90.852 39.176,92.351C39.432,93.849 39.03,95.519 37.97,97.361L34.303,103.733L20.187,95.609L22.056,92.363L26.693,95.032L28.759,91.443ZM35.445,96.15C35.933,95.303 36.106,94.521 35.964,93.804C35.821,93.087 35.354,92.5 34.561,92.044C33.095,91.2 31.844,91.679 30.807,93.481L29.113,96.425L33.751,99.094L35.445,96.15ZM40.819,80.795L39.308,82.918L44.654,86.722L42.482,89.774L29.212,80.333L31.384,77.281L36.749,81.098L38.313,78.899L35.43,71.594L37.736,68.352L41.055,77.252L51.101,77.66L48.619,81.148L40.819,80.795ZM39.647,66.108L42.1,63.278L50.117,70.226L47.189,57.406L49.506,54.733L61.813,65.4L59.374,68.213L51.375,61.28L54.285,74.085L51.954,76.775L39.647,66.108ZM53.619,50.555L56.452,48.106L63.391,56.131L62.331,43.024L65.006,40.711L75.657,53.031L72.841,55.465L65.918,47.457L66.962,60.548L64.27,62.875L53.619,50.555ZM58.619,44.849C56.366,46.796 54.452,46.882 52.876,45.108L54.83,43.418C55.594,44.255 56.451,44.262 57.401,43.441C57.871,43.035 58.135,42.617 58.194,42.187C58.252,41.757 58.105,41.325 57.752,40.893L59.706,39.204C60.454,40.094 60.745,41.011 60.577,41.956C60.41,42.9 59.757,43.864 58.619,44.849ZM87.411,25.052L96.192,38.768L93.017,40.8L89.417,35.176L83.186,39.165L86.786,44.789L83.612,46.821L74.832,33.105L78.006,31.073L81.468,36.481L87.699,32.492L84.237,27.084L87.411,25.052ZM107.539,28.985L100.803,32.419L101.102,36.184L97.662,37.938L96.732,20.132L100.048,18.441L113.933,29.643L110.409,31.439L107.539,28.985ZM105.182,26.974L100.05,22.593L100.581,29.32L105.182,26.974ZM130.671,20.712L132.773,26.878L129.492,27.997L128.381,24.738L115.499,29.13L110.244,13.715L113.789,12.506L118.053,25.014L124.924,22.672L120.66,10.164L124.205,8.955L128.469,21.463L130.671,20.712ZM129.14,7.584L132.744,6.563L137.181,22.233L133.577,23.253L129.14,7.584ZM148.265,20.237C146.601,20.536 145.037,20.447 143.572,19.969C142.107,19.492 140.884,18.692 139.902,17.568C138.919,16.445 138.287,15.097 138.004,13.524C137.721,11.952 137.844,10.468 138.374,9.073C138.903,7.678 139.771,6.501 140.978,5.543C142.184,4.586 143.62,3.957 145.283,3.658C146.947,3.359 148.508,3.449 149.965,3.927C151.422,4.406 152.646,5.206 153.635,6.329C154.625,7.45 155.261,8.798 155.544,10.37C155.827,11.943 155.7,13.427 155.163,14.824C154.626,16.221 153.758,17.397 152.559,18.353C151.36,19.31 149.929,19.937 148.265,20.237ZM147.697,17.077C148.643,16.906 149.459,16.535 150.144,15.963C150.829,15.391 151.319,14.676 151.614,13.819C151.909,12.962 151.968,12.038 151.789,11.045C151.611,10.054 151.234,9.207 150.659,8.507C150.084,7.807 149.375,7.307 148.534,7.01C147.692,6.712 146.798,6.648 145.852,6.818C144.906,6.988 144.089,7.36 143.404,7.932C142.72,8.504 142.229,9.219 141.935,10.076C141.639,10.932 141.581,11.857 141.759,12.849C141.938,13.841 142.315,14.688 142.89,15.388C143.465,16.088 144.173,16.587 145.014,16.885C145.856,17.183 146.75,17.247 147.697,17.077ZM173.022,0.983L174.258,17.222L170.5,17.508L169.993,10.85L162.616,11.411L163.122,18.069L159.364,18.355L158.129,2.116L161.887,1.83L162.374,8.233L169.751,7.672L169.264,1.269L173.022,0.983ZM189.069,14.593L181.529,14.019L179.826,17.39L175.976,17.097L184.449,1.408L188.161,1.691L194.186,18.482L190.243,18.182L189.069,14.593ZM188.103,11.649L186.001,5.236L182.953,11.258L188.103,11.649ZM213.119,5.116L210.237,21.145L206.573,20.486L208.912,7.48L203.416,6.491L202.701,9.814C202.215,12.075 201.701,13.885 201.157,15.245C200.613,16.605 199.933,17.602 199.118,18.235C198.303,18.868 197.284,19.075 196.063,18.856C195.559,18.765 194.964,18.571 194.277,18.274L195.07,15.179C195.257,15.275 195.473,15.346 195.717,15.389C196.603,15.549 197.315,15.137 197.854,14.155C198.393,13.172 198.909,11.575 199.401,9.362L200.8,2.9L213.119,5.116ZM224.236,13.574C226.147,14.116 227.492,14.956 228.274,16.096C229.055,17.237 229.209,18.642 228.736,20.314C228.233,22.09 227.286,23.284 225.896,23.898C224.505,24.512 222.787,24.529 220.743,23.95L213.669,21.947L218.106,6.277L221.71,7.298L220.252,12.446L224.236,13.574ZM221.302,21.207C222.242,21.473 223.042,21.45 223.703,21.137C224.364,20.825 224.819,20.228 225.068,19.347C225.529,17.721 224.759,16.624 222.759,16.058L219.491,15.133L218.033,20.281L221.302,21.207ZM249.093,16.94L243.102,32.084L239.597,30.697L242.053,24.488L235.174,21.766L232.718,27.975L229.213,26.589L235.204,11.445L238.709,12.831L236.346,18.803L243.226,21.524L245.588,15.553L249.093,16.94ZM254.452,19.443L257.698,21.312L252.406,30.507L264.433,25.188L267.498,26.952L259.375,41.067L256.148,39.21L261.429,30.035L249.413,35.334L246.328,33.558L254.452,19.443ZM271.812,29.609L274.864,31.78L268.714,40.424L281.196,36.285L284.078,38.335L274.637,51.605L271.603,49.447L277.74,40.821L265.271,44.942L262.371,42.879L271.812,29.609ZM278.542,33.112C276.116,31.385 275.578,29.547 276.928,27.595L279.033,29.092C278.402,30.032 278.598,30.867 279.622,31.595C280.127,31.955 280.596,32.112 281.028,32.067C281.459,32.023 281.843,31.777 282.179,31.331L284.284,32.828C283.597,33.767 282.775,34.267 281.817,34.328C280.86,34.39 279.768,33.984 278.542,33.112ZM304.152,56.576L290.238,61.113C288.898,61.55 287.67,61.674 286.552,61.486C285.434,61.299 284.477,60.824 283.68,60.064C283.063,59.475 282.552,58.73 282.147,57.829L284.779,56.385C285.111,56.981 285.434,57.429 285.749,57.729C286.085,58.05 286.466,58.258 286.89,58.352C287.315,58.446 287.805,58.427 288.362,58.293L288.591,58.255L292.203,45.171L295.114,47.95L292.205,57.265L301.476,54.022L304.152,56.576ZM315.659,70.096L303.338,80.747L300.873,77.896L305.925,73.529L301.086,67.932L296.035,72.299L293.57,69.448L305.89,58.797L308.355,61.648L303.498,65.848L308.336,71.444L313.194,67.245L315.659,70.096ZM318.414,74.354L320.588,77.404L307.325,86.855L305.151,83.804L318.414,74.354ZM322.447,95.182C322.687,96.19 322.65,97.088 322.336,97.879C322.021,98.668 321.441,99.307 320.594,99.795C319.345,100.516 318.097,100.604 316.852,100.059C315.608,99.515 314.478,98.362 313.463,96.602L309.455,89.648L323.564,81.514L327.352,88.085C328.297,89.725 328.717,91.183 328.612,92.461C328.507,93.739 327.87,94.715 326.701,95.389C326.003,95.792 325.287,95.971 324.555,95.928C323.822,95.884 323.12,95.636 322.447,95.182ZM319.589,88.129L321.344,91.173C321.754,91.885 322.209,92.339 322.707,92.535C323.205,92.732 323.736,92.667 324.3,92.342C324.851,92.024 325.168,91.596 325.251,91.056C325.333,90.516 325.173,89.896 324.77,89.197L323.016,86.154L319.589,88.129ZM315.812,95.086C316.695,96.618 317.741,97.036 318.951,96.338C320.12,95.665 320.263,94.562 319.38,93.03L317.312,89.442L313.744,91.499L315.812,95.086ZM325.768,114.45L323.012,115.696L317.816,104.206L332.656,97.496L337.726,108.711L334.971,109.957L331.443,102.155L328.221,103.612L331.336,110.502L328.665,111.71L325.55,104.82L322.115,106.373L325.768,114.45ZM341.742,119.392C342.207,120.757 342.384,122.02 342.272,123.181C342.16,124.341 341.778,125.336 341.126,126.165C340.474,126.993 339.576,127.603 338.431,127.993C337.301,128.378 336.221,128.443 335.191,128.188C334.162,127.932 333.252,127.378 332.461,126.525C331.671,125.672 331.043,124.563 330.577,123.198L329.519,120.093L325.269,121.542L324.053,117.974L339.467,112.719L341.742,119.392ZM333.417,122.008C333.782,123.08 334.291,123.816 334.944,124.216C335.596,124.617 336.348,124.672 337.2,124.381C338.066,124.086 338.635,123.581 338.907,122.865C339.179,122.15 339.133,121.256 338.768,120.184L337.777,117.278L332.426,119.102L333.417,122.008ZM330.721,140.986C330.348,139.369 330.361,137.825 330.763,136.356C331.163,134.886 331.901,133.634 332.975,132.598C334.049,131.562 335.372,130.862 336.944,130.5C338.516,130.137 340.011,130.186 341.431,130.646C342.85,131.106 344.062,131.909 345.067,133.054C346.071,134.199 346.762,135.587 347.139,137.22C347.456,138.595 347.501,139.894 347.274,141.116C347.047,142.339 346.567,143.433 345.835,144.398L343.114,142.542C344.106,141.183 344.418,139.71 344.052,138.123C343.825,137.141 343.408,136.314 342.799,135.643C342.19,134.972 341.451,134.509 340.581,134.257C339.711,134.004 338.784,133.99 337.802,134.217C336.82,134.444 335.993,134.862 335.321,135.471C334.65,136.079 334.188,136.819 333.935,137.689C333.683,138.559 333.669,139.485 333.896,140.467C334.262,142.054 335.196,143.24 336.699,144.023L335.067,146.883C333.97,146.34 333.051,145.565 332.31,144.559C331.568,143.552 331.038,142.361 330.721,140.986ZM349.019,147.329L349.487,151.046L338.961,152.371L350.457,158.755L350.899,162.264L334.741,164.298L334.276,160.605L344.779,159.283L333.305,152.895L332.861,149.363L349.019,147.329ZM348.384,179.895L348.246,174.685L335.036,175.035L334.937,171.314L348.147,170.964L348.01,165.778L351.08,165.697L351.454,179.814L348.384,179.895ZM337.131,194.875L334.115,194.646L335.071,182.072L351.311,183.308L350.377,195.58L347.361,195.35L348.011,186.813L344.485,186.545L343.911,194.084L340.988,193.862L341.561,186.323L337.803,186.037L337.131,194.875ZM344.718,211.733L345.641,206.604L332.635,204.264L333.294,200.601L346.3,202.94L347.218,197.833L350.241,198.377L347.741,212.276L344.718,211.733Z" style="fill:white;fill-rule:nonzero;"/>
                </g>
                <g transform="matrix(3.2945,0,0,1.42713,1644.53,1666.78)">
                    <path d="M15.964,220.748C17.803,220.748 19.294,222.239 19.294,224.078C19.294,225.916 17.803,227.407 15.964,227.407C14.125,227.407 12.634,225.916 12.634,224.078C12.634,222.239 14.125,220.748 15.964,220.748Z" style="fill:white;"/>
                </g>
                <g transform="matrix(3.2945,0,0,1.42713,1644.53,1666.78)">
                    <path d="M334.853,220.565C336.692,220.565 338.183,222.056 338.183,223.895C338.183,225.734 336.692,227.225 334.853,227.225C333.014,227.225 331.523,225.734 331.523,223.895C331.523,222.056 333.014,220.565 334.853,220.565Z" style="fill:white;"/>
                </g>
                <g transform="matrix(3.2945,0,0,1.42713,1644.53,1666.78)">
                    <path d="M170.09,256.072C182.617,255.799 195.218,245.024 198.289,230.321C200.804,218.279 201.255,204.968 200.57,190.679L184.646,190.679L184.643,208.248L171.15,208.288C168.551,208.288 168.551,206.21 168.429,205.161L168.429,190.679L152.504,190.679L152.504,207.208C152.504,211.741 154.353,215.857 157.332,218.835C160.289,221.793 167.021,224.796 171.231,224.796C160.98,229.68 152.573,234.466 152.504,242.616C152.437,250.531 158.82,256.168 170.09,256.072ZM152.812,100.635C136.509,102.695 118.538,112.011 101.803,98.763L101.803,142.081L94.499,140.617L94.499,190.668L104.554,188.52C104.126,190.763 104.132,192.932 104.132,195.198C104.132,215.046 112.176,233.016 125.182,246.021C132.77,253.609 142.048,259.507 152.403,263.105L150.812,274.064L201.18,274.064L199.546,263.127C209.925,259.531 219.226,253.624 226.829,246.021C239.835,233.015 247.88,215.046 247.88,195.198C247.88,193.008 247.903,190.799 247.469,188.642L257.494,190.668L257.494,140.617L250.294,142.051L250.294,98.763C233.504,112.054 215.471,102.635 199.125,100.616L201.18,91.777L150.812,91.777L152.812,100.635ZM85.892,204.708L81.148,202.712L81.148,129.39L85.643,127.844L85.643,87.278L137.56,87.278L139.143,82.677L212.465,82.677L214.401,87.278L266.861,87.278L266.861,128.02L270.845,129.39L270.845,202.712L266.121,204.7C263.909,225.925 254.369,244.973 240.075,259.267C223.678,275.664 201.025,285.806 176.006,285.806C150.986,285.806 128.333,275.664 111.936,259.267C97.644,244.976 88.106,225.931 85.892,204.708ZM152.437,123.31C148.798,125.389 146.274,127.936 144.454,130.952L144.454,117.305L168.499,117.305L168.499,138.538L184.561,138.538L184.561,117.305L200.624,117.305L200.624,171.425L184.561,171.425L184.561,148.011L176.531,155.639L168.499,148.011L168.499,171.425L152.437,171.425L152.437,123.31ZM149.21,138.538L149.21,174.637L204.666,174.637C213.981,172.21 214.416,155.8 203.729,153.513L203.729,138.538C225.472,141.043 232.33,168.56 218.488,181.338C234.195,194.931 225.882,222.265 203.822,223.513L202.473,223.566L203.822,208.288C210.797,206.703 214.116,195.906 208.676,190.136C207.514,188.903 206.06,187.98 204.434,187.491C204.259,187.514 203.729,187.693 203.729,187.466L149.21,187.466L149.21,223.566C147.473,222.532 145.861,221.365 144.377,220.064C140.859,216.981 138.132,213.147 136.194,208.561C134.258,203.976 133.289,198.718 133.289,192.789L133.289,148.974C128.388,152.215 124.909,155.575 122.853,159.054L122.853,138.538L149.21,138.538ZM183.103,224.817C182.008,231.711 176.586,242.828 171.459,242.828C168.744,242.828 167.325,241.039 167.204,237.459C167.069,233.447 171.428,228.581 175.872,224.94L183.103,224.817Z" style="fill:white;"/>
                </g>
            </g>
        </g>
    </g>
</svg>
