<svg clip-rule="evenodd" fill-rule="evenodd" stroke-linejoin="round" stroke-miterlimit="2" viewBox="0 0 1024 787" xmlns="http://www.w3.org/2000/svg"><path d="m3080.5 2777.22h17.1c-4.83 25.91-.52 44.51 18.44 51.37v-50.9h16.76v92.96l-16.25 6.84v-28.45c-34.28-12.13-42.04-38.33-36.05-71.82zm74.75 98.66c-22.9-76.3-2.43-122.55 51.29-145.78l.2 47.12h73.74c.81 21.35 6.9 38.73 20.97 50.13 6.12-17.8 5.17-34.34 0-50.13h20.02c4.38 32.24-.91 62.69-19.12 90.74-7.89 2.97-15.75 3.8-23.6 4.23l16.66-27.81c-14.18-10.14-25.7-24.62-30.72-49.74l-18 .06v76.02l-17.24-3.62v-72.32h-22.45v80.79c22.65 1.5 42.53 5.54 63.4 6.64 22.94 1.2 36.26-6.2 46.32-16.51-10.95 18.67-36.13 28.35-60.37 28.97-35.61.91-79.56-5.39-106.09-5.12-23.26.23-43.63 7.04-63.5 15 21.12-12.59 42.2-25.25 68.49-28.67zm35.6-113.43c-26.54 20.71-32.88 57.84-17.89 112.31h17.89zm-80.66 155.26c21.59-10.85 44.63-18.31 70.9-18.25 27.56.07 66.56 11.28 87.03 5.09-13.22 6.84-30.53 10.71-52.57 11.15-32.5.64-54.38-11.27-105.36 2.01z" transform="matrix(4.192151868 0 0 4.19213703066 -12906.1870414 -11444.9567206)"/></svg>