<svg clip-rule="evenodd" fill-rule="evenodd" stroke-linejoin="round" stroke-miterlimit="2" viewBox="0 0 926 1024" xmlns="http://www.w3.org/2000/svg"><g fill="#fff"><g transform="matrix(.79130975418 0 0 .79130614508 -466.61180047447 -3187.06614604027)"><path d="m1156.03 5096.68-6.19-3.97c-3.45-.36-6.87-.86-10.28-1.48l-29.76-.66c-20.42 29.2-51.75 42.77-85.33 25.92l4.45-13.61c31.25-10.23 58.66-30.18 76.7-16.28l12.13-1.09c-6.77-2.32-13.47-5.11-20.1-8.34-18.07-6.89-36.22-17.9-53.74-28.74l-3.03 1.51c.08-6.33-.42-12.38-1.55-18.14l.57.3 61.3 37.58 7.24 1.99c1.15-5.79 1.75-11.68 1.84-17.65-14.3-13.95-30.41-27.98-51.13-42.2l-1.28-.89-22.94 6.2c-.05.02-.09.04-.14.06-1.14-2.6-2.45-5.12-3.94-7.57l15.7-6.57-19.54-13.6c-4.99.18-10.06.13-15.2-.11-7.52-5.46-16.625-10.18-27.459-14.09l-2.43-5.5c-7.5-2.38-12.968-9.42-13.019-17.74-.062-10.31 8.211-18.71 18.464-18.75 10.252-.04 18.624 8.3 18.694 18.6.06 10.31-8.215 18.71-18.468 18.75h-.052l5.196 7.13c12.964 1.65 26.044 2.54 39.314 2.32 10.88 6.7 20.34 12.95 28.69 18.83-4.4-15.98-11.49-22.2-22.5-39.49-8.58-13.47-3.99-35.54 6.98-48.86 5.28-6.41.18-22.72 13.59-37.9-.76 37.93 9.83 57.48 19.66 78.08 9.09 19.07 1.06 39.17-11.56 52.6 4.55 3.33 8.74 6.54 12.63 9.66l3.29-16.64c-.04-.51-.07-1.02-.07-1.55-.02-3.16.74-6.14 2.11-8.75 3.08-5.92 9.24-9.97 16.35-9.99 10.25-.04 18.63 8.29 18.69 18.6.05 8.59-5.68 15.85-13.52 18.06 6.17 11.22 9.98 23.99 12.37 37.71 5.69 6.31 11.11 12.54 17.08 18.95 6.43 5.39 12.8 10.41 19.12 15.11l11.94 3.29c24.54-19.12 52.65-34.29 85.3-44.43l43.25-24.47c-.83-7.3-6.51-9.97-15.83-9.15-6.1-5.7 4.44-12.99-18.89-25.43-5.93-6.9 4.78-18.01-1.26-25.97-5-11.34-2.92-13.17 1.75-16.86 6.27-4.97 15.31-2.1 23.48 13.04l6.07-4.4 9.27 4.23c-.67-9.26-7.42-11.78-15.79-18.2-6.23-4.79-.44-15.21 7.05-17.1-5.32-12.55-5.12-25.86 7.36-27.89 7.83-1.27 11.65 3.7 13.65 11.46 2.39-6.69 6.59-9.86 12.49-9.73 17.23.37 12.08 22.03 1.49 37.19 6.5-2.03 10.44-1.76 11.86 3.92 2.28 9.04-2.81 16.29-7.73 23.58 4.15 4.32 8.76 2.4 13.65-3.36 6.38-12.68 14.02-18.86 23.89-13.38 5.89 6.92 4.75 14.42-2.02 22.37l.26 6.31c1.28 1.31 2.11 2.63 2.56 3.94-1.16.32-2.31.66-3.45 1.02-29.64 10.61-47.04 27.59-54.18 49.93-9.74 3.68-19.47 7.82-29.08 12.83 8.95.7 17.48 1.99 25.73 3.69-.28 2.83-.43 5.73-.46 8.7-14-2.09-29.51-2.77-46.66-1.92l-4.49 6.44c14.48-.37 27.84-.35 32.76 2.55l1.98 4.9c5.98-4.82 11.76-6.76 16.49-6.62.49 12.23 2.97 25.49 7.25 39.7-.97-1.25-1.94-2.73-2.91-4.46-1.47 5.29-2.44 9.36-10.02 9.33-9.2-.04-15.91-8.72-22.71-17.07-6.57 1.7-12.26 1.85-15.19-2.83-2.54-8.6-11.25-12.98-20.02-17.32-24.24 5.91-44.26 16.26-61.29 29.75l6.72 1.85 65.41 17.41c-18.05-5.28-141.23-2.4-108.49-5.7 4.42-.45 6.52-6.04 9.88-8.94zm-34.37-21.37 12.8 3.53c-4.53-4.79-9.08-9.58-13.75-14.38.38 3.57.69 7.2.95 10.85zm-18.01-62.05c-.73.09-1.46.14-2.2.14-5.75.02-10.91-2.59-14.35-6.71l-1.14 11.56c9.4 7.93 16.95 15.25 23.69 22.31-.97-8.93-3-18.04-6-27.3zm227.01-44.85c-1.98 1.89-2.46 8.36-4.08 11.04-1.31 2.17-5.65 5.07-5.65 5.07l-.19 10.69s5.89-11.21 8.61-14.26c1.93-2.15 7.71-3.99 7.71-3.99l1.41-8.83s-5.92-1.52-7.81.28zm-28.69 16.45c-1.02 9.61 1.22 17.26 6.37 23.16l5.95-.51-1.39-13.85c-4.16-.02-6.33-2.65-6.14-8.36zm-4.68-16.56.74 7.76 7.69.87-.17-7.93-6.54-.01zm110.25 1.69c1.04-1.47 1.74-2.98 2.04-4.52l4.58-11.35-4.15-26.67c-4.65-.99-9.03-2.63-13.29-5.7-6.1-4.39-4.52-9.53-2.72-14.7-5.43 3.21-10.86 5.89-16.48.73-5.53-5.07 1.64-13.58 7.81-20.01-8.25 3.33-15.65 3.92-19.88-5.67-3.8-8.6 2.06-15.72 10.65-23.48-6.58-8.14-10-19.01-.11-24.77 6.72-3.91 12.02-2.67 15.84 3.96 6.62-2.28 12.43-3.31 17.32 3.46 5.35 7.4 3.28 13.41-3.86 20.68 4.86 1.2 8.95 2.96 9.88 7 2.4 4.66 1.9 12.98 1.04 21.74l4.42-.08c5.21-5.76 5.23-11.89 4.78-18.06 9.1-7.65 8.55-20.36 17.54-27.89 9.58-8.03 13.46-.25 17 8.51l-3.53 11.74c4.21-1.48 7.88.47 9.76 3.54 2.31 3.79-1.05 22.8-13.07 23.59-3.97 16.36-17.37 20.68-30.11 25.86l-1.62 27.39c19.31-27.65 40.09-52.81 63.23-73.94-1.98-8.38-5.75-12.2-10.01-14.74l3.18-7.61 8.67 6.39-2.59-29.8-16.17-1.98c-7.33 6.8-12.83 14.6-20.81 13.99-6.53-.49-8.41-4.89-9.17-10.24-7.22 2.04-14.5 4.2-18.86.74-4.47-3.54-5.93-9.43-3.4-16.56-9.61 2.03-16.61-2.24-16.64-11.67-.03-10.48 12.9-17.66 26.06-7.82 1.31-8.42 1.32-13.37 9.22-11.3 8.61 2.26 13.5 7.48 14.74 15.6 4.5-3.97 11.98-5.58 12.8-1.65 1.83 8.75 4.32 16.92 12.72 19.94l9.28.4-.38-8.56c-2.58-4.94-7.1-7.13-13.15-7.11l-2.76-12.23c-4.46 1.6-8.26.81-11.69-1.31-4.53-2.79-2.38-11.2 1.87-16.59-5.09.13-7.46-5.32-6.69-11.09 1.25-9.4 6.09-13.67 14.83-12.37-4.2-11.22-1.91-20.86 10.08-21.39 5.72-.26 8.8 3.62 8.79 12.33 4.66-1.16 9.87-3.13 12.35 1.64 3.61 6.92 3.24 13.16-4.87 18.08 2.61 1.09 6.29 3.87 3.98 7.3-3.8 5.66-3.83 9.95-2.93 13.9l3.9 6.85c7.21-5.87 8.37-12.4 4.68-19.46-.95-9.74-1.37-18.8.21-25.26 2.08-8.49 6.34-9.25 12.17-8.61.57-9.44 4.79-16.88 12.66-16.12 9.62.92 10.25 10.44 5.54 20.29 6.92-2.74 13.94 1.25 14.36 5.19.88 8.39-.36 12.26-7.22 17.52 2.41 4.43 5.04 7.52 2.71 12.06-1.37 2.64-3.12 3.95-5.05 4.66 2.15 8.16 3.46 15.94-.61 21.63-3.09 4.33-8.46 5.07-14.78 4.32-18.66 17.18-33.74 37.8-27.09 63.5 14.64-5.36 26.45-14.13 37.36-23.97l20.2-55.58 5.84-26.95c-3.44-2.36-5.34-6.2-5.83-11.41l5.96-3.39c.34 3.11 1.23 5.58 3.82 6.07l7.33-11.47c-5.71-2.65-9.84-9.7-12.8-20.06-5.28-3.91-5.01-8.42-.75-13.35-5.82 1.09-11.21.44-14.43-5.76-3.03-5.82-.96-9.77 1.77-13.47-10.22 4.71-17.25 3.35-20.71-4.81-4.87-11.47 1.02-21.68 13.22-24.49-10.71-11.5-8.69-26.19-.09-26.79 10.39-.71 19.64 4.46 21.75 19.67l4.29-12.08-10.7-11.9c-9.36-8.69-3.93-27.24 12.29-26.3.89-10.41 2.48-15.18 15.03-16.78 9.09-1.17 12.47 7.23 13.61 19.78 5.94-2.29 11.04-2.58 15.48 3.38 5.4 7.25-1.38 15.55-11.07 21.98 8.02-.22 14.26 1.25 14.66 8.24.65 11.45-6.64 19.39-20.44 20.33l11.48 8.74c2.38 9.64-1.91 16.46-13.66 20.11 2.03 8.37 2.71 18.59 2.16 30.5l31.57-37.53 2.33-64.85c-8.92-4.81-15.31-10.84-18.36-18.5l3.95-3.43c3.8 5.41 8.13 8.35 12.8 9.72l-3.57-84.24-5.41-4.95-5.39 4.04c2.88 11.15 5.3 19.59-3.44 25.38-2.7 2.62-6.09 1.74-9.88-1.08-5.76 18.13-15.79 16.15-25.81 14.24l-4.23 2.87-1.41-2.03 3.83-3.05c-4.38-12.65-.87-20.9 8.95-25.64-1.9-5.56-2.14-10.98 5-15.77 9.6-4.02 16.78-2.22 25.43 3.08l6.95-5.21.09-5.73c-8.39-4.86-16.91-9.24-27.96-4.13-3.55-4.16-8.25-6.06-15.34-3.33-3.74-1.66-5.55-4.99-5.62-9.85-3.05 5.24-6.9 7.51-12.11 4.83-8.36-4.31-8.16-15.3-5.21-22.87-10.31-1.74-11.62-7.7-7.01-16.43 5.67-10.75 17.87-11.34 27.81-3.27-5.71-9.7-15.88-17.56-30.62-23.53-4.53-5.97-3.82-12.75-.59-19.91-7.74-6.77-8.99-13.05-1.81-18.69 9.21-7.24 17.84-3.94 25.3 4.41 8.16-3.97 15.12 4.64 21.37 20.67 6.55 10.4 10.58 21.6 11.62 33.73l9.68.15c-9.94-28.49-22.66-56.16-36.49-83.5-8.77-.15-15.56 7.28-22.76 13.1-7.72 3.81-13.1 1.2-16.81-6.02-2.41 6.16-7.34 11.93-12.02 11.99-13.17.19-19.2-6.98-20.97-18.54-10.34.58-14.81-4.65-15.9-13.22-.98-7.73 6.04-13.36 18.62-11.02-1.06-4.02.09-6.76 2.7-8.68 4.07 6 9.82 9.56 16.68 11.52l10.35-6.15c6.92 9.03 16.87 13.92 32.43 11.18-2.92-9.69-8.13-18.25-16.58-25.25-5.44-2.97-11.36-4.81-19.25-1.99-2.52 4.72-5.81 13.07-11.34 11.75-4.79-1.14-7.28-4.34-8.03-9.08-3.77 2.04-8.18 5.26-11.88 2.31-3.26-2.59-3.82-5.74-3.29-9.1-7.26 5.2-13.57 9.25-22.57 4.39-10.81-5.84-12.36-13.91-9.04-23.16-7.34-3.88-12.24-8.85-9.04-17.48 3.09-8.34 12.36-7.26 20.32-2.99.52-4.76 2.43-8.6 9.21-9.23 5.69-.53 9.78 9.05 12.34 15.48 3.25-1.32 5-3.05 8.95-1.85 5.73 1.75 9.47 6.26 11.56 16.74 2.38-3.13 6.35-7.1 8.36-3.6 5.51 9.63 12.78 17.88 24.1 22.99l4.84-.7c-5.65-15.26-25.62-37.63-53.27-63.83-3.56 1.46-6.81 1.21-9.8-.5-1.82 3.26-4.5 7.51-8.3 6.76-5.34-1.06-8.69-3.86-11.05-7.52-2.05 6.28-6.95 9.24-12.4 8.8-7.78-.62-11.51-5.5-14.28-11.4-3.49 4.89-8.16 7.57-14.16 7.72-13.08-1.99-12.78-14.74-13.02-24.21-8.92-.53-12.93-4.03-12.25-10.36.84-7.74 9-8.32 15.63-5.15-1.54-7.7.27-13.75 9.07-14.71 8.45-.93 15.2 8.1 18 18.86-.27-5.51 1.13-8.66 6.16-8.37 7.32.44 9.69 8.9 10.75 17 9.74.16 19.01 5.52 27.69 17.48 1.93 2.25 4.23 2.52 6.84 1.11-13.98-26.41-33.93-44.95-55.39-61.49l-11.08-3.45c-9.29-2.42-12.08 13.28-22.4 15.67-8.34-.03-12.43-3.6-13.22-9.91-3.73 3.42-7.62 6.48-12.41 7.4-10.35 1.97-18.22-9.75-16.29-20.91-7.86 2.15-17.18 1.03-17.2-9.06-.02-8.14 10.67-9.63 20.16-7.75-1.82-4.57-1.4-8.52 4.14-11.04 5.82-2.65 15.83 5.15 19.53 12.76-.29-3.66 2.76-6.29 9.01-7.95l-10.43-10.61s-9.55 1.07-12.14.22c-1.99-.65-3.39-5.3-3.39-5.3s-9.96 9.26-15.12 7.58c-7.96-2.58-4.76-15.79-4.76-15.79-5.6 5.57-11.06 8.9-17.75 5.05-8.34-4.79-7.37-13.77-4.65-23.53-11.61-3.6-16.8-9.72-14.68-18.68 1.69-7.16 14.85-5.76 23.85-1.91 4.13-8.02 8.87-9.77 13.95-7.92 7.23 2.62 10.01 7.81 9.48 19.11 2.41-4.17 5.49-5.73 9.2-4.91 5.37 1.19 6.54 7.95 7.22 15.82l8.9.28 1.45 22.42c4.24 8.17 11.47 13.83 16.34 17.1-1.93-6.96-.35-12.18 3-16.52-6.72-4.63-12.33-10.27-15.12-18.47-2.07-6.1-.96-10.57 6.9-15.01-1.99-7.24-1.46-12.86 4.85-14.77 7.75-2.34 11.94 4.04 14.28 11.16 5.1-1.93 10.76-1.85 17.66 2.62 5.28 3.42-.46 15.65-5.05 23.08 5.04.7 7.15-.86 11.46 4.26 2.49 2.97.68 6.21-1.96 9.51 3.6.96 7.32 1.82 6.56 6.19-3.96 11.33-4.65 23.79-3.15 36.28l36.83 38.5c2.79-1.79 3.74-5.67 3.65-10.73-2.22-6.3-8.92-10.16-14.44-16.65-3.3-3.87-1.63-9.16 1.73-14.94-6.07-5.16-12.75-11.23-12.36-18.91.4-8.2 4.93-13.15 15.85-13.34.78-5.38 2.54-11.18 10.32-10.61 6.32.46 9.73 4.88 12.34 10.38 5.93-.23 12.77.39 14.16 5.74 1.69 6.49-1.44 12.05-6.31 17.27 4.68 2.14 8.26 4.13 7.52 8.29-2.63 14.76-10.81 25.82-23.32 34.01-1.05 6.83-2.43 11.86-4.11 15.11 11.54 16.75 11.31 24.82 49.21 61l1.26-11.8c-2.3-4.64-6.09-7.71-11.45-9.16-5.83-1.57-2.12-10.5-.87-15.95-6.83-.77-13.2-2.11-14.97-9.15-1.78-7.08 2.19-11.45 6.93-15.71-5.25-2.27-11.53-4.77-12.3-11.63-.89-8.59 7.2-13.11 13.22-17.35-.59-7.45 2.76-15.36 9.77-15.91 7.91-.62 11.67 6.02 12.06 14.77 7.47-.27 11.76 3.24 14.34 8.75 3.62 7.7.6 13.72-5.02 19.09 6.61 2.46 15.26 8.6 14.92 14.25-.37 6.13-4.51 9.62-10.66 11.72l-1.36 13.76c-.5 4.81-4.22 8.55-10.11 11.56l-2.06 14.21 28.24 52.82c3.76-3.75 4.7-7.94 1.35-12.79l5.62-8.73c-4.18-2.6-4.92-5.37-3.97-11.37 1.15-7.36 9.01-9.02 14.55-10.03-5.68-5.55-9.57-11.47-6.6-18.79 4.19-10.35 9.64-11.36 20.31-4.79 5.3-7.12 10.58-8.49 15.85-6.73 7.44 2.49 7.98 11.06 6.31 19.33 7.27 1.47 9.03 7.09 7.52 11.78-3.26 10.15-11.99 11.06-19.39 11.19 3.63 5.6 3.42 11.43-.56 14.03-4.75 3.11-9.9 3.13-15.4.51 1.72 3.94 2.09 7.78-2.73 11.21-8.07 3.67-14.38 9.65-19.46 17.25l3.83 10.71 7.14-7.29 7.62-3.1c-1.34-3.94.2-8.88 4.96-11.88 5.02-3.17 8.73-2.83 12.32-.4 2.06-11.91 9.6-15.9 20.45-15.13 4.25.31 8.19 7.07 7.16 13.85 9.34-6.05 17.11-4.58 18.67 2.21 2.08 9.02-5.25 12.57-17.88 13.06 1.44 5.72.11 14.02-7.07 13.43l-13.36-2.69c2.33 4.46.85 8.05-4.56 8.81-5.47.76-8.39-4.6-10.87-7.55l-22.55 1.65c12.46 24.35 23.51 49.76 32.26 76.88l6.23-4.52-4.64-8.79c-2.22-5.74.71-9.56 5.18-13.19-5.08-1.08-8.8-3.41-8.77-9.23.04-7.96 4.32-10.38 9.44-13.44-4.68-3.5-7.84-7.6-7.8-12.93.07-9.57 13.58-13.02 26.77-9.66 10.02-2.68 11.69-9.5 13.72-18.33 8.01 1.28 8.73 7.06 6.13 14.88 7.08 1.26 15.01 5.69 13.49 13.3-1.63 8.16-5.92 12.33-11.84 14.04 3.81 2.63 6.42 10.71 2.73 16.7-3.64 5.92-8.66 6.75-13.87 6.86 3.49 4.17-.06 14.21-5.97 17.01-7.84 3.71-11.2 4.08-18.37 4.09l-9.04 10.88 6.11 13.04c7.08-5.61 12.13-12.86 15.81-21.19 3.52-.73 6.7-.08 9.27 3.02 1.52-7.08 4.31-12.57 9.94-14.51 4.82-1.65 6.64.12 8.75 3.15 3.71-10.03 10.91-13.18 19.98-12.67 8 .44 10.31 10.1 11.46 17.6 7.65-.32 14.26.46 15.4 9.34 1.46 11.37-8 14.83-17.68 18.12 2.76 6.54-1.42 13.25-8.75 15.61-8.73 2.8-13.91-4.45-17.7-12.55l-8.45 7.18c-6.55-7.94-10.2-11.55-16.82-12.64l-4.1 4.5c-4.17-2.54-8.84-2.4-13.86-.43l9.64 23.22c-3.05 32.71-2.87 64.28.86 94.62 7.24 1.68 12.21-1.09 14.43-9.22-2.72-4.88-5.42-13.41-2.62-16.94 4.87-6.14 9.73-5.41 14.58-4.46-6.07-11.89-6.52-22.29 1.13-30.53 4.72-5.08 12.29.34 17.21 5.8.91-10.42 6.52-14.25 15.97-12.7 9.24 1.52 10.26 11.96 7.44 24.06 5.62-1.5 12.64.32 12.54 5.31-.16 8.26-7.74 12.12-18.25 14.24l-.26 8.85-14.81-.25c2.03 5.44-1.08 13.04-4.89 15.38-6.71 4.11-13.39 6.85-24.19 3.46 9.24 3.87 15.89 10.89 12.97 18-2.76 6.72-6.14 9.49-19.78 7.89-7 .64-9.23 7.36-9.27 16.83l-2.03 50.94c9.42.52 18-2.11 25.13-10.22-1.33-10.89-1.04-21.39 7.47-29.99 3.66-3.69 6.87 1.54 10.12 6.62.67-8.05 2.72-15.02 10.06-17.83 4.55-1.74 8.29-.09 10.97 1.6-2.83-11.24.67-18.5 11.23-21.29 7.87-2.09 12.97 6.92 16.81 15.89 10.76-8.02 19.3-4.86 24.24 4.3 5.26 9.75.2 17.28-13.71 22.89 5.71 10.58 4.14 19.33-6.89 25.27-8.04 4.33-15.49 3.78-21.69-7.01-.11 4.98-.4 9.15-5.72 9.8-5.17.63-8.08-1.31-8.91-5.61l-4.54 7.86c-10.47-2.26-20.74-2.02-30.65 2.67 11.09 6.24 24.14 6.96 38.47 4.08l2.59 14.32c10.72-9.1 28.26-11.52 32.85-3.56 2.76 4.78 2.15 9.97-2.17 15.62 6.94-3.94 16.38-5.16 19.56 1.55 2.97 6.26-1.53 10.95-8.33 15.16 10.05 2.97 12.84 8.95 11.27 16.76-1.51 7.45-16.15 7.52-27.3 2.65-9.39 7.73-22.02 15.48-29.98 7.4-6.7-6.81-3.8-14.25 1.34-21.84 0 0-10.9 3.33-15.26-1.92-2.27-2.73.35-13.33.35-13.33l-10.29-.14c-2.92-21.64-17.86-30.31-37.82-33.92l-54.82 55.35 17.61-1.28c3.05-8.24 9.14-13.8 17.84-17.05 3.86 1.26 5.89 4.24 5.88 9.1 14.14.22 19.43 5.21 20.47 12.49l3.32.67-.16 2.13-3.74.43c-1.93 9.55-10.04 13.34-22.6 10.51-1.47 3.34-4.07 4.87-7.5 5.11-8.78-1.7-13.56-8.06-13.28-20.32l-19.22.83c-10.03 12.62-14.46 27.82-15.05 44.8 7.09 1.37 14.56-.89 22.11-3.97l46.21-8.94c12.14-4.08 18.08-7.25 24.36-15.16 6.09-7.68 18.33-.23 14.67 12.5 4.9-6.27 10.91-10.11 19.53-8.17 7.67 1.72 9.8 7.44 10.42 14.13 5.51-8.99 12.59-11.84 21.52-7.45 8.77 4.3 6.48 12.53 2.76 19.06 6.49.66 10.34 2.55 9.12 11.76-1.99 15.03-25.03 17.93-40.52 19.1 18.99 9.2 34.19 30.3 26.26 44.32-6.12 10.83-15.92 12.05-30.43.96-.75 7.48-11.23 12.65-16.46 9.33-6.91-4.38-6.83-11.2-2.44-23.11-5.81-.57-9.82-4.06-11.63-11.09-.48 3.83-1.08 7.59-4.5 9.66l-6.78 1.93c5.06 11.81 1.33 20.39-7.77 20.97-15.44.98-20.56-6.93-20.99-23.23-8.31-.19-11.82-3.7-9.85-10.99-4.39-6.91-.54-11.95 4.39-16.75-11.97-.71-18.11-8.62-10.67-13.2 7.57-4.66 6.84-9.65 6.53-14.63l-6.34-5.4-39.13 6.21c-6.56 12.26-13.29 24.42-15.59 39.27l6.84 3.67-1.86 5.88c-14.85 3.31-26.34 9.52-34.69 18.47l21 2.93 21.59-17.02 5.46 7.65c.1-9.41.57-18.6 12.26-21.08 8.17 2.02 9.17 8.55 8.43 16.18 7.17-8.72 12.82-11.2 21.24-2.51 10.82 11.17-2.41 19.4-17.08 26.45l19.3-.73 5.37 8.59 15.58-6.48c9.36-1.24 14.9 4.26 11.8 14.43 4.5-9.47 13.13-13.42 21.45-9.38 6.79 3.29 7.67 6.59 3.58 14.04 0 0 14.84-10.57 22.03-.5 7.92 11.08-6.32 19.87-6.32 19.87-2.54 6.47-6.03 12.11-14.91 13-8.23.45-12.85-4.75-16.32-11.77-2.7 6.06-6.82 10.56-14.85 10.68-12.46-.16-20.08-7.48-24.39-19.7 0 0-15.49 4.93-18.53-.45-5.42-9.58-18.92-21.81-37.97-25.39-1.65 3.69 7.12 8.67 18.66 26.86 5.18-3.61 11.63-4.9 16.71.44 3.59 3.78 4.57 8.73 2.58 15.03 5.15-.29 10-.25 13.18 1.67 8.82 5.32 8.21 13.35-2.14 18.61 12.13 1.58 13.89 7.22 9.53 15.26.1 12.61-3.02 22.23-20.75 18.34-8.74 2.31-11.92-5.45-13.39-16.3-7 7.28-14.36 6.81-21.92 1.99-6.22-3.97-2.88-18.68 4.6-23.69-7.56-1.97-12.46-5.32-10.44-12.27 1.64-5.66 2.75-10.87 6.91-14.17-4.52 3.45-13.22 3.83-12.31-1.74 4.08-24.92-18.55-44.86-55.2-37.07-28.05 22.63-49.78 56.39-73.19 93.2-3.4-.47-6.75-.83-10.05-1.07zm4.22-817.71c4.75 9.25 12.66 12.37 20.77 15.1-4.45-9.96-10.45-16.83-20.77-15.1zm160.35 513.8-5.02.74 2.05 12.94 4.63-.57zm9.12 20.99c-6.3-1.21-9.1.92-6.6 8.12 5.98 11.01 3.67 17.01-4.42 19.49-6.04 7.23-3.43 15.04 1.82 20.25 4.71-3.2 7.67-7.07 10.07-11.16 1.64-14.46 2.06-27.5-.87-36.7zm39.79 111.09.49 6.45c3.11 7.59 7.24 11.11 12.14 11.47-1.67-10.63-6.1-16.2-12.63-17.92zm-38.23-345.05-.61 10.78c3.06-1.23 6.08-1.97 8.89-.08 5.12 3.45 3.7 5.09 2.51 10.96l10.77.65c1.61 10.93 7.89 18.24 15.62 24.44-.21-12.75-4.16-27.21-16.99-45.72-6.29-1.8-13.11-1.82-20.19-1.03zm36.63 332.09c8.49 3.66 16.62 7.72 22.12 14.92 4.12-3.5 9.28-4.43 14.83-4.37-7.09-9.65-21.32-14.89-36.95-10.55zm29.8 43.66c-.93.05-1.87.45-2.7.83-.49.23-.88.43-1.32.74-1.25.87-1.17 2.84-.06 3.91.64.63 1.74.62 2.57.7 1.9.2 4.65.3 4.09-2.53-.1-.48-.3-.97-.51-1.41-.49-1.01-1.5-1.38-2.07-2.24zm-159.02-26.76.19 14.28 4.1-4.22 1.51-12.19zm-60.43 171.13c5.49-.98 10.56-3.12 15.26-6.26 8.61-12.74 11.92-41.03 17.09-28.12 1.81 4.53 4.23 8.4 9.42 9.22-1.4-15.06-2.48-29.63 9.53-23.19 5.73 3.07 5.51 11.26 10.34 13.35-4.05-15-5.13-29.81 12.53-43.42 7.48 1.03 12.55 4.53 11.33 14.47l8.8-9.57c8.28-2.82 11.98-.83 13.35 3.6 3.01 5.79 1.32 13.21-2.33 21.31 6.17-1.18 11.06.48 10.08 7.88-1.35 10.25-10.13 12.88-19.4 12.28 6.75 5.62 2.33 10.47-4.16 15.19-2.71 1.96-7.91 1.59-14.51-.08 3.93 11.9-2.61 19.4-13.53 15.92-12.6-4.02-14.84-11.07-34.71-6.96l-1.03 11.45c13.56 5.44 30.63 8.46 52.71 8.02 4.39-6.74 10.33-8.65 17.12-7.93 5.17 2.96 5.6 8.68-.14 17.99 4.47-6.94 10.11-11.44 19.24-8.61 6.65 7.99 5.85 16.57-2.57 25.74 13.79 3.04 20.93 10.25 18.05 23.74-49.22-34.94-93.66-57.66-132.47-66.02zm49.57 156.41c-4.75 2-11.25 1.72-18.8-1.17 2.86 4.5 4.02 9.46.43 15.7-11.54 13.98-31.77 11.78-54.2-20.56-1.63 1.89-3.41 3.4-5.29 4.54l-13.11-36.35c36.38 2.15 64.57 18.44 90.97 37.84zm-705.508-78.4c-8.139 2.05-16.995 3.58-26.577 5.03 31.784-32.87 14.773-81.66 86.756-76.46 20.314-6.44 34.455-16.09 44.551-27.85-31.038-14.18-57.726-19.5-69.186 6.26l.137-15.55c-11.24 8.2-23.469 12.74-39.741 14.17-36.611 3.23-60.062-50.06-123.187-53.32 34.803-11.72 67.143-15.41 96.271-8.64 23.274 5.42 17.456 34.61 56.091 46.45l19.238-16.59-66.106-45.35-6.423-24.21c-5.238-4.49-13.369-6-23.576-5.38-19.186 1.17-26.538-40.91-71.113-46.83 22.452-5.25 51.431-14.66 74.475.02 12.321 7.85 24.847 13.29 40.061 13.86 5.673.21 7.962-3.53 4.165-9.02-8.656-18.76-54.37-30.64-103.208-45.81-27.211-8.45-40.29-34.15-48.489-52.73 32.984 4.77 70.827 10.89 84.879 22.65 13.424 11.24 22.665 26.3 28.035 44.89l20.392 6.09c-15.455-22.69-16.202-50.67-36.065-68.38-21.623-13.35-39.548-6.71-61.715-10.58-30.1-5.24-49.646-14.67-57.066-22.3 20.527 1.99 47.447-2.74 67.705-9.94 20.304-7.22 42 14.13 55.741 36.02.258-21.5-2.731-40.04-6.524-57.86-9.641-4.21-17.742-10.34-24.739-17.85-22.791 5.02-41.034-3.81-56.769-20.28l7.694-7.66c-20.666-17.75-33.792-33.97-35.421-49.62 13.196 11.69 18.575 16.88 46.004 20.5 22.06 2.91 49.825 26.67 45.477 54.5 4.157 5.31 9.033 9.42 15.611 10.69l-2.85-35.57-2.118-2.52-13.819-12.97c-36.994-19.34-49.291-60.62-50.074-107.92 12.777 39.72 60.918 44.29 57.806 107.63l5.66 4.99 3.156.54c-6.739-34.86-8.611-68.7 4.551-99.39-8.776-13.35-17.107-21.17-24.625-18.86 3.177 2.82 5.193 6.93 5.221 11.52.052 8.52-6.789 15.47-15.266 15.5s-15.402-6.86-15.453-15.38c-.052-8.53 6.788-15.47 15.265-15.5 1.237-.01 2.44.13 3.594.41 8.096-11.54 20.572-5.79 36.175 12.29.375-.68.759-1.36 1.152-2.03 4.417-7.44 8.205-15.52 10.148-25.45-2.626-11.58-8.856-21.37-18.144-29.64-27.558 46.42-69.484 49.95-108.891 8.92 30.924 10.83 52.157 5.55 64.834-13.95 5.525-8.5 17.258-8.71 27.488-6.78-28.017-32.33-31.952-70.03-30.573-108.91 29.342 32.79 54.19 68.29 57.974 116.46 3.151 9.27 6.382 18.48 13.852 24.71 2.996-16.57-1.165-31.88-5.34-47.18-35.764-43.37-38.021-94.08-16.379-150.02 25.739 46.01 38.511 94.04 23.76 146.36l4.997 32.79c9.608-22.4 11.635-47.99 13.802-73.53.916-10.06 4.261-18.27 9.287-25.2l31.12-34.69c1.626-5.78 1.544-10.49-.494-13.96-2.936 4.78-8.182 7.97-14.179 7.99-9.255.04-16.814-7.49-16.871-16.79-.056-9.31 7.412-16.89 16.667-16.93 9.255-.03 16.814 7.49 16.871 16.8.009 1.47-.17 2.89-.514 4.25l6.21 8.37c6.856-9.22 13.297-19.41 18.946-31.44l-.578-16.6c-44.255-32.91-47.041-70.68-47.208-123.4 15.477 35.99 66.702 58.82 51.751 120.86l1.718 13.42 15.521-21.5c-22.799-40.13-9.156-73.04 31.955-100.5-28.854 35.92-6.362 55.14-16.909 83.56l21.348-31.76c-15.537-23.13 1.169-54.35 32.682-89.29 1.932 22.53-3.011 47.7-18.33 76.84l23.11-21.12c3.913-10.58 4.735-20.38 20.399-27.68 11.519-5.36 30.711-17 38.961-32.4 1.618 69.26-14.065 50.39-51.977 63.73l-26.256 22.16c25.25-13.61 45.137-7.13 81.733-5.38-32.607 30.86-63.841 38.8-93.379 18.4l-23.948 34.58 13.737-3.2c2.946-2.66 6.838-4.28 11.11-4.3 9.255-.03 16.814 7.49 16.871 16.8.056 9.3-7.412 16.88-16.667 16.92s-16.814-7.49-16.871-16.79c-.012-2.08.351-4.07 1.025-5.92l-14.366 4.75c-21.793 19.61-39.762 42.61-53.651 69.22 4.034-.33 7.995-1.44 11.757-4.62 19.36-29.77 56.086-35.89 104.439-26.16-20.681 16.12-44.727 23.92-89.776 20.03l-5.888 5.08c41.885-2.74 60.421 11.26 74.863 28.18-29.75 8.98-53.89 4.15-71.046-17.87-9.154-.89-18.613-.68-28.464.92l-17.976 19.39 21.022.03c2.098-.96 4.428-1.5 6.885-1.51 9.255-.04 16.815 7.49 16.871 16.79.057 9.31-7.411 16.89-16.666 16.93-9.255.03-16.815-7.49-16.871-16.8-.025-4.03 1.363-7.73 3.696-10.65l-19.168-.13-12.217 17.19c-4.487 3.55-.575 56.33-18.054 91.69-1.411 2.86-2.581 7.53-.493 8.56 17.603 8.76 8.287-43.12 80.86-57.13-14.745 34.07-38.008 75.76-83.364 65.42-8.957 10.16-15.485 22.93-20.488 37.35.079 9.81 2.225 16.61 8.246 17.81l10.295-11.99c.698-7.83 7.226-13.98 15.204-14.01 8.478-.04 15.402 6.86 15.454 15.38s-6.789 15.47-15.266 15.5c-6.044.03-11.298-3.47-13.836-8.57-4.634 5.1-7.47 11.37-9.488 18.16 3.992 30.28 6.968 52.94 2.84 80.09l-15.376 29.06c1.743 24.66 4.059 46.64 11.475 44.75l7.737-10.53c7.11-59.23 47.668-55.35 81.475-70.6-19.189 37.38-31.497 72.76-77.177 78.8l-11.29 8.89c.54 30.54 3.747 55.8 11.605 71.86l4.275-3.37c-3.121-45.65 18.697-72.39 50.007-91.92-4.988 61.65-16.202 106.73-44.291 106.9l2.347 13.53 27.48 44.86c-16.349-47.97 1.89-87.11 27.39-124.41-6.721 50.71 24.552 90.24-17.24 133.67 19.723 28.52 48.078 52.86 81.247 65.32-4.864-41-59.818-39.03-52.329-100.75 10.337 22.35 35.703 18.77 47.354 36.07 11.881 17.63 14.33 47.66 13.613 66.77l13.398 8.08-3.514-30.28c-8.892-43.63-40.745-54.29-27.739-122.99 13.442 43.17 63.421 62.88 35.744 119.79l3.672 37.03 29.162 25.16c-23.004-43.17-22.949-83.76 3.237-114.95-2.418 44.96 39.333 80.11 4.52 121.14l18.222 25.85-.058-.01.383.56c-4.462-.71-9.132-1.05-14.006-1.04-1.275-1.81-2.58-3.59-3.913-5.33-24.403-31.92-58.457-52.91-97.523-68.23 20.31 39.28 47.163 64.7 83.281 70.49 1.931.31 3.888.57 5.872.76l.339.78c2.312.56 4.626 1.12 6.941 1.66-8.003.39-16.523 1.68-25.54 3.83l-2.666-.74-27.641-11.46c-9.298 3.86-16.751 10.46-23.03 18.79l-.19 13.26c-2.202 1.05-4.424 2.14-6.666 3.27l-5.903-8.82c-1.225 4.02-1.73 8.23-1.54 12.63-3.045 1.59-6.124 3.25-9.237 4.96l3.748-21.93-12.553 4.32c-3.04 11.69-6.764 21.24-11.178 29.11-16.113 9.67-33.031 20.74-50.708 33.12zm-53.272-549.08c-12.828 26.37-9.788 65.21-1.219 111.88 8.035-3.87 15.586-13.54 14.095-47.78.178-29-4.482-49.74-12.876-64.1zm39.583 347.87c50.384 20.81 65.784 40.05 63.698 74.09l6.054 3.07c10.012-.3 19.548 1.47 28.85 4.24-16.962-32.03-41.49-58.94-66.928-85.23-9.59 4.85-20.518 4.76-31.674 3.83zm187.953 280.32c-4.699 3.15-9.887 6.31-15.605 9.49-3.463-13.47-4.255-27.05.239-40.86 7.981-2.54 16.453-4.76 25.509-6.61-5.809 13.46-9.358 26.18-10.143 37.98zm-39.009-22.34c-.508 2.79-1.182 5.72-2.036 8.79-1.402-2.04-2.868-3.96-4.383-5.8 2.103-1.02 4.242-2.02 6.419-2.99zm-46.828 27.54c-2.18 7.42-5.306 15.3-9.638 23.7-.584-3.77-1.958-8.36-3.824-13.58 4.409-3.43 8.88-6.81 13.462-10.12zm178.401-79.94c2.1 2.42 3.62 5.4 4.29 8.77 1.71 8.64-2.7 17.08-10.23 20.77l3.01-9.2c1.52-7.03 2.51-13.82 2.93-20.34z"/><path d="m1023.51 4070.02v-4.41c10.97-5.47 21.48-11.81 30.94-20.19v141.72h9.71v4.69h-38.24v-5.07h9.56v-116.94z"/><path d="m1108.05 4028.35c1.59-1.11 3.73-.98 5.18.31 14.69 13.27 23.13 30.19 22.77 42.03-.33 10.94-4.29 22.92-14.56 34.87 15.53 16.48 18.86 27.1 18.21 43.41-.58 14.4-12.04 33.69-27.6 45.81-1.55 1.2-3.72 1.15-5.22-.1-17.48-14.64-27.07-31.45-26.98-51.57.05-13.79 4.53-25.06 15.61-35.7-9.43-12.18-13.22-19.75-13.04-35.79.2-18.53 11.39-33.27 25.63-43.27zm-8.2 14.19c-7.8 6.12-11.45 13.48-8.62 22.51 4.01 12.78 11.15 21.67 28.31 36.47 3.26-3.66 6.2-7.55 7.74-12.43 4.06-12.87-5.33-30.03-27.43-46.55zm-1.92 67.88c-9.23 7.24-12.78 15.19-9.43 25.87 4.73 15.1 13.18 25.62 33.47 43.12 3.85-4.33 6.43-8.51 8.25-14.28 4.81-15.22-6.17-35.18-32.29-54.71z"/><path d="m1176.84 4030.34c.87-1.1 2.22-1.7 3.62-1.62 1.41.08 2.68.84 3.42 2.03 16.65 26.96 24.21 55 24.26 83.92.05 32.12-6.9 57.59-23.15 78.86-.81 1.04-2.05 1.66-3.37 1.67-1.33.02-2.58-.57-3.41-1.6-17.56-22.06-28.91-51.68-29.18-88.52-.16-21.84 4.63-45.7 27.81-74.74zm-8.17 25.3c-6.83 7.69-14.29 19.53-13.34 34.09 2.42 36.87 15.56 63.18 35.15 80.95 4.01-5.52 9.95-13.09 11.36-22.97 3.22-22.66-10.97-69.2-33.17-92.07z"/><path d="m1278.96 4043.7v88.97h8.88l5.71-4.55c-3.45 7.22-3.62 15.26-3.64 23.33h-10.37v36.3h7.93v4.08h-35.47v-4.19h10.67v-35.74c-18.59-1.24-34.35-.73-41.53 5.08l-2-12.64c14.66-38.12 35.06-71.26 59.82-100.64zm-16.54 34.49c-14.63 17.2-23.84 36.43-30.14 56.73h30.42z"/></g><path d="m1413.56 4262.02v478.12c0 16.08-6.87 31.5-19.07 42.83-12.21 11.34-28.74 17.64-45.94 17.53l-73.99-.49c-13.09-.09-25.67 4.69-34.98 13.29l-75.68 69.83-75.96-67.85c-9.02-8.06-20.98-12.62-33.46-12.76l-77.19-.87c-35.342-.4-63.769-27.3-63.769-60.36v-479.27zm-12.5 11.69h-475.039v467.58c0 26.65 22.922 48.35 51.42 48.67l77.189.87c15.65.18 30.64 5.89 41.95 16 0 0 67.18 60.01 67.18 60.01l67.04-61.86c11.67-10.78 27.44-16.77 43.85-16.66l73.99.49c13.87.09 27.2-4.99 37.04-14.13s15.38-21.57 15.38-34.54z" transform="matrix(.79130975418 0 0 .84618227918 -466.61180047447 -3425.2255722529)"/><path d="m1413.56 4262.02v490.09c0 16.08-6.87 31.5-19.07 42.83-12.21 11.33-28.74 17.64-45.94 17.53l-73.99-.49c-13.09-.09-25.67 4.69-34.98 13.29l-75.68 69.83-75.96-67.85c-9.02-8.06-20.98-12.62-33.46-12.76l-77.19-.87c-35.342-.4-63.769-27.3-63.769-60.36v-491.24zm-4.53 4.23s-441.344 0-490.983 0v487.01c0 30.74 26.433 55.76 59.297 56.13l77.196.87c13.62.15 26.68 5.13 36.53 13.93 0 0 72.78 65.01 72.78 65.01l72.55-66.94c10.17-9.39 23.9-14.61 38.19-14.51l73.99.49c16 .1 31.37-5.76 42.72-16.3s17.73-24.87 17.73-39.83z" transform="matrix(.69219979009 0 0 .74020033622 -350.42853712675 -2948.36784097671)"/><path d="m994.032 4377.87h139.088l16.29 28.8c-12.43-8.85-27.28-18.15-30.27-12.89-2.66 4.65-1.02 10.48 3.44 17.08l89.24 182.99 85.04-191.05c2.54-6.35 3.91-13.68-2.13-15.64-7.33-2.37-14.76 7.41-21.32 15.31l7.24-25.06h77.36c-20.22 8.35-35.16 23.72-43.8 47.46l-134.09 273.76c-27.91 48.3-57.24 78.78-89.62 77.67-15.19-.52-22.77-10.52-22.99-30.44-.41-37.38 40.61-63.9 102.74-75.87l-124.17-250.33c-11.63-23.04-29.1-34.61-52.048-41.79zm171.878 305.78c-26.65.92-49.26 13.14-67.83 29.76-13.19 11.81-20.62 28.69-13.47 37.19 8.81 10.46 32.37 1.66 53.96-20.59 17.99-18.1 25.54-32.87 27.34-46.36z" transform="matrix(.79130975418 0 0 .79130614508 -466.61180047447 -3187.06614604027)"/><path d="m1174.66 5100.84c.2-.01.4-.02.6 0 59.82 3.63 110.84 14.87 151.79 34.71-26.01-61.02-27.99-101.86-12.54-128.68 10.84-18.84 30.3-31.11 56.78-38.55 28.8-8.1 59.48-3.39 90.11 8.46 30.04 11.62 60.05 30.09 88.15 49.66 31.94 22.25 61.39 45.9 85.55 62.22l-10.93-139.59c-.01-.02-.01-.04-.01-.06-1.83-28.73 9.6-43.7 23.21-48.54 20.77-7.4 48.38 8.75 48.7 38.99.08 7.06-1.4 12.88-3.85 17.32l-8.69 38.98c3.04.01 6.11-.14 9.2-.35 11.14-.78 22.35-2.56 32.13-2.42 14.81.23 26.57 4.67 31.64 20.74 4.43 14.07 4.17 33.76-.82 48.83l-33.06 148.92c-.06.28-.14.54-.26.79-3.53 7.95-10.54 11.64-17.09 10.89-6.35-.72-12.8-5.63-15.09-16.12-.1-.43-.12-.88-.07-1.33l3.82-35.99-3.83.4-4.91 46.6c-.05.5-.2 1-.43 1.45-6.72 13.19-19.19 18.29-34.4 19.44-7.4.56-17.58-2.52-29.67-8.46-26.36-12.94-62.7-39.39-99.78-65.43-31.4-22.06-63.33-43.81-90.07-56.54-13.72-6.53-25.97-10.74-35.94-11.05 16.81 26.96 14.72 47.62 5.16 59.88 19.26-.96 36.44-.27 49.27 3.73 8.47 2.64 15.15 6.71 19.61 12.46 4.53 5.84 6.86 13.45 6.19 23.33-.77 11.51-4.14 20.34-9.26 26.42-21.09 33.35-33.17 62.8-30.55 86.45.13 1.16-.24 2.33-1.01 3.21-6.85 7.81-13.35 10.75-18.84 9.92-5.51-.84-10.82-5.56-14.95-15.17-.41-.97-.45-2.06-.09-3.05 2.51-6.96 4.74-13.93 6.72-20.91l-3.97 1.34c-16.59 13.67-40.42 16.7-73.2 5.71-.09-.03-.18-.07-.27-.1-45.66-18.84-94.77-33.86-154.9-36.63-.05 0-.1-.01-.15-.01-.04 0-.09.01-.14.01-60.13 2.77-109.24 17.79-154.9 36.63-.09.03-.18.07-.27.1-32.78 10.99-56.613 7.96-73.205-5.71l-3.972-1.34c1.986 6.98 4.219 13.95 6.724 20.91.358.99.325 2.08-.092 3.05-4.128 9.61-9.437 14.33-14.946 15.17-5.493.83-11.986-2.11-18.841-9.92-.772-.88-1.139-2.05-1.01-3.21 2.625-23.65-9.456-53.1-30.55-86.45-5.121-6.08-8.488-14.91-9.265-26.42-.666-9.88 1.665-17.49 6.198-23.33 4.456-5.75 11.134-9.82 19.606-12.46 12.835-4 30.012-4.69 49.269-3.73-9.553-12.26-11.652-32.92 5.162-59.88-9.973.31-22.215 4.52-35.937 11.05-26.745 12.73-58.676 34.48-90.076 56.54-37.076 26.04-73.421 52.49-99.776 65.43-12.089 5.94-22.275 9.02-29.666 8.46-15.213-1.15-27.684-6.25-34.403-19.44-.231-.45-.377-.95-.431-1.45l-4.908-46.6-3.83-.4 3.822 35.99c.048.45.023.9-.073 1.33-2.294 10.49-8.746 15.4-15.094 16.12-6.552.75-13.562-2.94-17.091-10.89-.112-.25-.199-.51-.259-.79l-33.059-148.92c-4.985-15.07-5.248-34.76-.815-48.83 5.065-16.07 16.822-20.51 31.632-20.74 9.786-.14 20.996 1.64 32.139 2.42 3.082.21 6.159.36 9.195.35l-8.684-38.98c-2.458-4.44-3.935-10.26-3.858-17.32.326-30.24 27.934-46.39 48.706-38.99 13.602 4.84 25.039 19.81 23.204 48.54-.001.02-.003.04-.004.06l-10.931 139.59c24.152-16.32 53.603-39.97 85.549-62.22 28.094-19.57 58.106-38.04 88.143-49.66 30.632-11.85 61.314-16.56 90.114-8.46 26.483 7.44 45.933 19.71 56.783 38.55 15.45 26.82 13.46 67.66-12.55 128.68 40.96-19.84 91.97-31.08 151.8-34.71.2-.02.4-.01.59 0zm173.62 20.62c-3.49 5.26-6.85 11.4-10.11 18.51 3.32 6.27 7.65 11.09 12.48 14.55 10.27 6.82 23.21 7.74 32.8 3.86 9.03-3.65 14.83-11.91 11.48-23.64-1.3-4.58-2.84-8.02-4.6-10.44-1.31-1.8-2.67-2.96-4.16-3.37-3.17-.86-6.24 1.62-9.17 5.39-3.3 4.24-6.11 10.31-7.96 17.46-.43 1.64-1.81 2.87-3.5 3.08-1.69.22-3.34-.61-4.17-2.09zm354.47 44.09c-2.4 22.59-4.28 40.35-4.28 40.35 1.36 5.51 4.29 8.59 7.74 8.98 3.27.38 6.52-1.77 8.37-5.64l28.21-127.06c-3.99 2.88-8.64 4.36-13.89 4.05-5-.3-10.7-2.31-17.02-6.69-1.72 16.19-5.88 55.4-9.12 85.88 0 .04 0 .09-.01.13zm-985.892-217.21c1.456-23.34-6.62-36.08-17.692-40.02-16.268-5.8-37.322 7.55-37.578 31.23-.057 5.36.904 9.83 2.647 13.1.307.36.556.78.729 1.23 1.635 2.49 3.801 4.11 6.356 4.69 6.147 1.4 13.208-3.41 18.913-14.48.885-1.72 2.834-2.6 4.709-2.14 1.874.47 3.183 2.16 3.161 4.09l-.443 39.12c10.886-8.61 17.086-21.04 19.198-36.82zm960.442 55.42c-6.11-.46-11.98-1.64-17.37-4.03-10.8-4.79-19.09-11.63-25.04-20.4l9.02 115.11c7.42 4.69 14.18 8.47 20.21 10.96l2.19-49.62c-.13-2.16.02-4.36.43-6.55 1.96-10.37 9.85-20.13 21.47-21.79 11.04-1.57 18.41 3.6 22.39 12.83 3.24 7.51 4.04 18.06 2.41 29.66 7.74 6.43 14.18 8.8 19.61 7.8 5.54-1.02 9.61-5.56 12.61-11.56.89-1.79 1.69-3.72 2.39-5.74.05-.19.11-.37.19-.55 4.48-13.44 4.7-31.07.74-43.65-4.84-15.35-18.23-15.72-33.52-14.53-11.57.9-24.22 2.8-36.1 2.16-.47.07-.96.05-1.46-.06-.06-.01-.12-.03-.17-.04zm13.69 157.89 3.84-.4 9.56-90.1c.01-.09.02-.17.04-.25v-.01c1.78-10.68 1.46-20.49-1.48-27.32-2.42-5.61-6.85-8.84-13.56-7.88-7.94 1.13-13.12 8-14.46 15.08-.28 1.5-.4 3.02-.32 4.5.02.14.03.29.03.44.24 2.82 1.19 5.48 3.04 7.58.05.06.09.11.14.17l19.7 24.89c.67.86.99 1.94.87 3.03zm-30.93-171.09c1.06.54 2.14 1.06 3.25 1.56 3.71 1.64 7.68 2.61 11.79 3.13l6.48-29.04c-.57.19-1.15.36-1.72.49-6.12 1.39-13.49-.66-20.15-7.41zm-22.5 109.7c-1.29-.82-2.59-1.66-3.9-2.53-24.77-16.39-55.46-41.18-88.87-64.45-27.55-19.18-56.94-37.34-86.39-48.73-28.85-11.16-57.73-15.84-84.85-8.21-24.06 6.76-41.97 17.57-51.82 34.69-14.39 24.98-11.66 62.68 12.02 118.96 3.65-7.18 7.47-13.31 11.45-18.49l.06-.09c9.46-14.1 22.61-22.93 41.84-23.09 12.18-2.08 28.58 2.42 47.32 11.34 27.1 12.89 59.47 34.89 91.28 57.24 31.49 22.11 62.43 44.55 87.07 58.59 15.54 8.85 28.33 14.46 36.96 13.81 11.82-.9 21.83-4.29 27.26-14.25l5.17-49.09c0-.05.01-.1.01-.15l5.57-52.88c-3.04 2.8-6.73 4.28-11.33 4.06-2.76-.13-5.77-.71-9.01-1.68-.42-.07-.82-.19-1.19-.37-8.16-2.65-17.73-7.71-28.41-14.52-.08-.05-.16-.1-.24-.16zm-243.76-99.42h29.13v13.89h-11.66v13.16h10.92v13.2h-10.92v15.26h12.83v13.89h-30.3zm50.11 7.18 9.98 2.38c6.66 1.58 11.09 2.96 13.3 4.14 2.21 1.17 3.76 3.19 4.64 6.06.89 2.86.68 7.05-.64 12.55-1.19 5.03-2.52 8.28-3.99 9.76-1.46 1.48-3.77 2.02-6.93 1.63 2.59 1.49 4.2 3.04 4.84 4.65.63 1.61.92 3.03.88 4.24s-.68 4.42-1.93 9.63l-4.05 17.03-13.1-3.12 5.11-21.45c.83-3.46 1.11-5.66.85-6.59s-1.37-1.63-3.31-2.09l-6.94 29.11-14.1-3.36zm11.47 14.41-3.42 14.36c1.58.37 2.75.38 3.51.01.76-.36 1.48-1.97 2.16-4.82l.85-3.54c.48-2.05.5-3.47.04-4.25-.47-.79-1.51-1.37-3.14-1.76zm162.05 90.19 23.62 11.18-5.46 11.55-9.46-4.48-5.18 10.94 8.85 4.19-5.19 10.98-8.85-4.19-6.01 12.69 10.4 4.92-5.47 11.55-24.56-11.63zm-36.63-28.02-32.38 54.1-13.86-8.3 32.37-54.1zm2.64 5.63 9.3 5.03c6.2 3.36 10.26 5.9 12.17 7.61s2.98 4.02 3.19 6.92c.22 2.9-.95 6.72-3.5 11.43-2.33 4.31-4.39 6.94-6.17 7.89s-4.19.8-7.22-.46c2.22 2.12 3.46 4.01 3.71 5.68s.22 3.06-.1 4.17-1.69 3.89-4.1 8.36l-7.91 14.6-12.2-6.61 9.96-18.39c1.6-2.97 2.38-4.92 2.34-5.85-.05-.94-.98-1.9-2.79-2.88l-13.51 24.95-13.14-7.11zm8.01 16.58-6.66 12.31c1.48.8 2.63 1.13 3.47 1.01.83-.12 1.91-1.4 3.23-3.84l1.64-3.04c.96-1.76 1.29-3.06 1.02-3.92-.28-.86-1.18-1.7-2.7-2.52zm-67.83-62.87-19.28 37.6c-2.19 4.27-3.86 7.19-5.01 8.78s-2.84 2.96-5.07 4.12c-2.24 1.15-4.66 1.65-7.27 1.49-2.61-.15-5.36-.97-8.25-2.45-3.2-1.64-5.74-3.65-7.62-6.02-1.88-2.36-2.97-4.75-3.27-7.16-.29-2.4-.05-4.65.75-6.75.79-2.09 2.82-6.32 6.08-12.66l17.08-33.3 13.93 7.15-21.64 42.19c-1.26 2.46-1.94 4.09-2.04 4.91-.1.81.24 1.41 1.02 1.81.88.45 1.64.37 2.28-.26.64-.62 1.68-2.33 3.11-5.14l21.27-41.46zm9.07 6.5 10.06 5.92c6.5 3.83 10.7 6.74 12.61 8.75 1.9 2 3 4.11 3.31 6.32.31 2.2.07 4.31-.72 6.34-.79 2.02-2.77 5.73-5.95 11.14l-11.76 19.99c-3.02 5.13-5.25 8.43-6.71 9.9-1.45 1.47-3.01 2.37-4.67 2.71s-3.4.23-5.23-.32c-1.82-.56-4.34-1.78-7.56-3.67l-16.97-9.98zm7.7 17.68-22.09 37.56c1.94 1.14 3.38 1.42 4.34.82.95-.59 2.54-2.8 4.78-6.6l13.05-22.19c1.53-2.58 2.43-4.28 2.71-5.1.27-.82.25-1.55-.08-2.21-.33-.65-1.24-1.41-2.71-2.28zm92.08-119.78c2.11 15.78 8.31 28.21 19.2 36.82l-.44-39.12c-.03-1.93 1.28-3.62 3.16-4.09 1.87-.46 3.82.42 4.71 2.14 5.7 11.07 12.76 15.88 18.91 14.48 2.55-.58 4.72-2.2 6.35-4.69.18-.45.43-.87.73-1.23 1.75-3.27 2.71-7.74 2.65-13.1-.26-23.68-21.31-37.03-37.58-31.23-11.07 3.94-19.15 16.68-17.69 40.02zm-457.81 296.06c.18-.01.36-.01.53 0 59.33 2.72 108.13 17.14 153.4 35.49 11.23-40.45 10.61-85.22 3.83-132.25-41.52-22.32-94.61-34.66-157.67-38.48-.03-.01-.06-.01-.09-.01s-.05 0-.08.01c-63.06 3.82-116.15 16.16-157.67 38.48-6.78 47.03-7.41 91.8 3.83 132.25 45.27-18.35 94.07-32.77 153.39-35.49.18-.01.36-.01.53 0zm-115.26-80.61 10.43-2.01c6.74-1.3 11.36-1.82 13.88-1.54 2.51.28 4.55 1.14 6.12 2.59 1.56 1.44 2.69 3.17 3.4 5.18.71 2 1.65 6.03 2.82 12.08l4.33 22.39c1.1 5.74 1.62 9.62 1.54 11.64s-.58 3.68-1.49 4.99-2.16 2.35-3.73 3.1c-1.57.76-4.03 1.45-7.36 2.1l-17.59 3.4zm16.06 8.24 8.12 42.05c2.01-.39 3.16-1.11 3.43-2.16.28-1.05.01-3.71-.82-7.97l-4.79-24.83c-.56-2.9-1-4.74-1.31-5.52-.31-.79-.78-1.32-1.41-1.6-.62-.27-1.7-.26-3.22.03zm105.42 3.51h-14.59v-11.34c0-3.3-.16-5.35-.47-6.17s-1-1.23-2.06-1.23c-1.21 0-1.97.5-2.29 1.49-.33.99-.49 3.14-.49 6.43v30.24c0 3.16.16 5.23.49 6.19.32.97 1.05 1.45 2.18 1.45 1.09 0 1.8-.48 2.13-1.45.34-.96.51-3.23.51-6.79v-8.17h14.59v2.54c0 6.73-.41 11.5-1.23 14.31-.82 2.82-2.63 5.28-5.44 7.4s-6.27 3.18-10.38 3.18c-4.28 0-7.81-.9-10.58-2.7-2.77-1.79-4.61-4.28-5.51-7.45-.9-3.18-1.36-7.96-1.36-14.34v-19.02c0-4.69.14-8.21.42-10.55.28-2.35 1.1-4.61 2.48-6.78s3.28-3.88 5.72-5.12c2.44-1.25 5.24-1.87 8.41-1.87 4.3 0 7.85.96 10.64 2.89 2.8 1.93 4.64 4.34 5.52 7.22.87 2.88 1.31 7.36 1.31 13.45zm-41.29 12.63c.41 6.53.57 11.16.47 13.89-.1 2.74-.78 5.27-2.06 7.61-1.27 2.33-3.07 4.18-5.41 5.53-2.33 1.36-5.1 2.14-8.3 2.34-3.04.19-5.81-.2-8.3-1.19-2.5-.98-4.55-2.56-6.17-4.74-1.62-2.19-2.65-4.6-3.1-7.26s-.88-7.33-1.31-14.02l-.7-11.12c-.41-6.52-.57-11.15-.47-13.89.1-2.73.79-5.26 2.06-7.6s3.08-4.18 5.41-5.54c2.33-1.35 5.1-2.13 8.31-2.33 3.04-.2 5.81.2 8.3 1.18 2.49.99 4.55 2.57 6.16 4.75 1.62 2.18 2.65 4.6 3.1 7.26s.89 7.33 1.31 14.02zm-16.12-20.41c-.19-3.03-.46-4.95-.8-5.77-.35-.83-.98-1.21-1.89-1.15-.77.05-1.34.42-1.71 1.13-.36.71-.44 2.73-.23 6.08l1.91 30.34c.24 3.77.52 6.09.85 6.95.32.87.98 1.27 1.96 1.21 1-.06 1.61-.61 1.83-1.65.22-1.03.21-3.46-.04-7.29zm62.8-20.61h26.31v13.03h-10.54v12.35h9.86v12.38h-9.86v14.31h11.58v13.03h-27.35zm39.68 2.56 11.01 1.87c7.34 1.24 12.26 2.39 14.75 3.44 2.5 1.05 4.36 2.96 5.57 5.74 1.21 2.77 1.35 6.9.42 12.37-.84 4.99-1.99 8.25-3.44 9.77s-3.9 2.17-7.36 1.93c2.94 1.35 4.82 2.79 5.65 4.35.82 1.55 1.27 2.93 1.33 4.12s-.35 4.38-1.23 9.56l-2.87 16.92-14.45-2.45 3.62-21.33c.59-3.43.7-5.6.33-6.51-.36-.9-1.62-1.54-3.76-1.9l-4.92 28.94-15.55-2.65zm13.69 13.62-2.43 14.27c1.75.3 3.02.25 3.81-.15.79-.39 1.43-2.01 1.91-4.83l.6-3.53c.34-2.04.23-3.43-.34-4.18s-1.75-1.27-3.55-1.58zm27.94-5.33 25.57 6.19-3.06 12.66-10.24-2.48-2.9 12 9.58 2.32-2.91 12.04-9.58-2.32-3.37 13.91 11.26 2.73-3.06 12.66-26.59-6.43zm142.17 114.73c4.34-17.13 7.26-34.3 9.19-51.49.1-.84.45-1.63.99-2.25 7.39-8.59 10.44-16.46 8.51-22.19-1.78-5.27-7.93-7.6-17.34-6.8-8.27.7-13.35 5.78-14.78 14.85-1.07 6.69-.32 15.26 2.29 25.69 4 1.95 7.44 4.64 8.73 8.75.99 3.14.87 7.3-1.78 12.92-1.55 3.27-3.7 5.72-5.76 8.05-2.02 2.29-4.06 4.34-3.9 8.07.2 4.79 2.62 5.77 5.55 7.2zm-408.7-151.27-13.092 23.31c-.833 1.48-2.483 2.31-4.169 2.09-1.686-.21-3.07-1.44-3.497-3.08-1.854-7.15-4.668-13.22-7.964-17.46-2.93-3.77-5.998-6.25-9.169-5.39-1.493.41-2.846 1.57-4.156 3.37-1.763 2.42-3.305 5.86-4.608 10.44-3.346 11.73 2.449 19.99 11.482 23.64 9.594 3.88 22.528 2.96 32.802-3.86 4.831-3.46 9.161-8.28 12.471-14.55-3.25-7.11-6.61-13.25-10.1-18.51zm384.28-24.75c-11.73.61-22.15 6.06-31.61 17.42 1 1.77 10.32 18.37 10.32 18.37 2.48-5.96 5.59-10.83 8.91-14.19 3.96-4 8.32-5.97 12.47-5.85 3.8.1 7.82 2.06 11.31 6.63-2.16-6.76-5.86-14.24-11.4-22.38zm-378.29 61.97c-.61.5-1.23.98-1.85 1.44-13.927 10.93-31.876 11.93-45.063 4.93-22.657-1.75-43.101-1.88-57.654 2.65-6.65 2.07-11.999 5.09-15.497 9.6-3.421 4.42-4.971 10.22-4.469 17.67.635 9.41 3.151 16.7 7.266 21.57.148.15.286.31.413.48 1.562 1.74 3.34 3.16 5.322 4.22 6.504 3.49 14.898 3.1 24.27-1-7.216-9.99-9.061-19.34-6.788-26.09 2.743-8.15 11.401-13.68 25.936-12.46 19.281 1.63 28.308 19.25 19.355 52.89-.332 1.25-1.224 2.27-2.414 2.77-2.478 1.04-5.159 1.99-5.936 4.45-.53 1.68-.048 3.84 1.373 6.85 1.541 3.26 3.953 5.41 5.878 7.73 2.759 3.33 4.799 6.88 4.572 12.3-.129 3.1-.768 5.36-1.687 7.13-1.049 2.02-2.52 3.41-4.308 4.64 13.801 8.82 32.548 9.88 57.131 2.32-10.72-38.15-11.21-80.06-5.85-124.09zm-295.268-58.42c-.081.06-.163.11-.245.16-10.675 6.81-20.247 11.87-28.412 14.52-.367.18-.765.3-1.184.37-3.242.97-6.252 1.55-9.01 1.68-4.603.22-8.294-1.26-11.334-4.06l5.569 52.88c.006.05.011.1.016.15l5.171 49.09c5.424 9.96 15.437 13.35 27.259 14.25 8.629.65 21.412-4.96 36.952-13.81 24.644-14.04 55.583-36.48 87.072-58.59 31.813-22.35 64.187-44.35 91.284-57.24 18.74-8.92 35.138-13.42 47.32-11.34 19.224.16 32.378 8.99 41.84 23.09.02.03.04.06.06.09 3.98 5.18 7.79 11.31 11.45 18.49 23.68-56.28 26.41-93.98 12.02-118.96-9.85-17.12-27.757-27.93-51.819-34.69-27.126-7.63-56-2.95-84.851 8.21-29.447 11.39-58.846 29.55-86.388 48.73-33.411 23.27-64.104 48.06-88.871 64.45-1.315.87-2.615 1.71-3.899 2.53zm2.118 67.67-12.26 3.58-3.211-10.98c-.934-3.2-1.648-5.15-2.141-5.87-.494-.71-1.187-.94-2.08-.68-1.01.3-1.51.96-1.501 2 .009 1.05.48 3.16 1.414 6.36l8.563 29.29c.896 3.06 1.616 5.02 2.161 5.88.545.85 1.293 1.14 2.245.86.912-.26 1.372-.91 1.381-1.92.008-1.02-.493-3.26-1.502-6.71l-2.312-7.91 12.26-3.58.717 2.45c1.906 6.52 2.912 11.24 3.02 14.17s-.718 5.77-2.477 8.51-4.366 4.61-7.822 5.62c-3.592 1.05-6.806 1.05-9.645-.01-2.838-1.06-5.086-3.02-6.742-5.87-1.657-2.86-3.389-7.38-5.195-13.56l-5.386-18.42c-1.329-4.54-2.208-7.99-2.64-10.33-.431-2.34-.376-4.73.164-7.17s1.658-4.56 3.353-6.37 3.873-3.1 6.532-3.88c3.612-1.05 6.865-.99 9.761.2 2.895 1.18 5.12 3.06 6.674 5.63 1.553 2.58 3.192 6.81 4.915 12.71zm36.846-12.86c2.335 5.92 3.87 10.16 4.606 12.72.736 2.55.888 5.09.456 7.62-.432 2.52-1.484 4.74-3.157 6.67-1.673 1.92-3.908 3.43-6.705 4.53-2.655 1.05-5.242 1.47-7.762 1.28-2.52-.2-4.83-1.08-6.93-2.63-2.099-1.56-3.75-3.5-4.952-5.83-1.201-2.33-2.998-6.53-5.389-12.59l-3.975-10.08c-2.334-5.92-3.869-10.16-4.605-12.72-.736-2.55-.888-5.09-.457-7.62.432-2.52 1.485-4.75 3.157-6.67 1.673-1.92 3.908-3.43 6.706-4.53 2.655-1.05 5.242-1.47 7.762-1.28 2.52.2 4.83 1.08 6.929 2.63 2.1 1.56 3.75 3.5 4.952 5.83s2.998 6.53 5.39 12.59zm-20.528-14.27c-1.081-2.74-1.9-4.45-2.457-5.11-.556-.66-1.233-.84-2.029-.53-.674.27-1.068.78-1.181 1.54-.114.76.428 2.66 1.623 5.69l10.848 27.51c1.349 3.42 2.299 5.49 2.849 6.2.551.71 1.255.89 2.112.55.878-.34 1.258-1.03 1.14-2.04-.119-1.02-.862-3.27-2.23-6.74zm142.939-92.03-12.358 2.73-1.096-4.98c-.511-2.32-.995-3.76-1.451-4.33-.456-.56-1.053-.76-1.79-.6-.801.18-1.312.74-1.534 1.68-.222.95-.142 2.29.242 4.04.493 2.23 1.096 3.87 1.809 4.9.692 1.03 2.247 2.13 4.665 3.27 6.938 3.31 11.501 6.28 13.691 8.89 2.189 2.62 4.009 7.22 5.457 13.79 1.054 4.78 1.403 8.4 1.049 10.86-.354 2.45-1.584 4.71-3.691 6.78-2.106 2.08-4.781 3.47-8.026 4.18-3.561.79-6.795.57-9.703-.64-2.907-1.21-5.052-3.1-6.435-5.66-1.382-2.57-2.627-6.36-3.735-11.39l-.968-4.4 12.358-2.72 1.799 8.17c.554 2.51 1.084 4.09 1.59 4.73s1.201.87 2.086.67c.885-.19 1.443-.8 1.674-1.8.231-1.01.149-2.41-.247-4.21-.871-3.95-1.851-6.44-2.94-7.48-1.111-1.03-3.634-2.6-7.569-4.72-3.941-2.14-6.592-3.75-7.953-4.81-1.36-1.06-2.646-2.66-3.858-4.8-1.211-2.14-2.209-4.99-2.994-8.55-1.133-5.14-1.46-9.01-.983-11.6.477-2.6 1.685-4.82 3.623-6.65s4.488-3.09 7.648-3.79c3.456-.76 6.562-.68 9.318.25s4.775 2.42 6.055 4.47 2.508 5.74 3.683 11.07zm39.028-6.25-13.708 1.76-1.509-11.72c-.439-3.4-.859-5.51-1.261-6.32-.401-.81-1.102-1.14-2.1-1.02-1.129.15-1.779.75-1.951 1.82-.172 1.06-.039 3.3.4 6.7l4.022 31.25c.421 3.27.848 5.39 1.28 6.34.432.96 1.18 1.37 2.244 1.24 1.02-.14 1.624-.72 1.81-1.76s.042-3.4-.432-7.08l-1.086-8.44 13.709-1.76.337 2.62c.895 6.95 1.144 11.93.748 14.94s-1.772 5.77-4.128 8.3-5.465 4.04-9.33 4.54c-4.016.52-7.445.01-10.289-1.51s-4.901-3.86-6.17-7.04c-1.269-3.17-2.328-8.06-3.177-14.65l-2.53-19.65c-.624-4.85-.962-8.5-1.014-10.96-.051-2.46.424-4.89 1.427-7.3s2.566-4.41 4.691-5.99c2.124-1.58 4.673-2.57 7.647-2.95 4.038-.52 7.499.05 10.382 1.71 2.884 1.65 4.929 3.92 6.138 6.79 1.208 2.87 2.217 7.45 3.026 13.74zm-115.735 27.82 26.68 58.91-10.532 6.58-18.38-22.89 12.129 26.79-10.047 6.27-26.68-58.92 10.047-6.27 18.75 22.33-12.014-26.53zm-21.248 46.24-12.661 5.57-2.36-5.37c-1.488-3.38-2.539-5.45-3.154-6.19-.615-.75-1.374-.93-2.276-.53-.782.35-1.153.95-1.113 1.8.041.85.725 2.79 2.052 5.81l12.474 28.37c1.167 2.65 2.075 4.34 2.725 5.05.65.72 1.396.89 2.238.52.922-.41 1.34-1.16 1.253-2.25-.086-1.09-.734-3.02-1.944-5.77l-3.082-7.01-2.557 1.12-3.949-8.98 14.826-6.52 13.952 31.73-7.97 3.51-3.035-3.72c-.059 2.2-.545 4.05-1.457 5.54s-2.26 2.63-4.044 3.41c-2.125.94-4.391 1.19-6.797.75-2.405-.44-4.496-1.37-6.272-2.8s-3.231-3.1-4.365-5.03-2.595-4.92-4.383-8.99l-7.722-17.56c-2.483-5.65-4.036-9.86-4.658-12.64-.623-2.77-.214-5.75 1.225-8.92 1.439-3.18 4.044-5.59 7.813-7.25 3.709-1.63 7.193-2.06 10.452-1.29 3.26.78 5.82 2.28 7.68 4.49 1.86 2.22 3.855 5.75 5.985 10.6zm175.549-114.68 10.464.52c6.976.35 11.682.92 14.118 1.71 2.436.8 4.364 2.6 5.783 5.43s1.978 7.25 1.677 13.26c-.274 5.5-1.009 9.16-2.204 11-1.194 1.83-3.416 2.86-6.666 3.07 2.881 1.05 4.787 2.36 5.718 3.92s1.488 2.98 1.67 4.26c.183 1.27.132 4.76-.153 10.46l-.931 18.62-13.73-.69 1.174-23.46c.189-3.78.066-6.13-.369-7.06-.435-.92-1.671-1.43-3.707-1.54l-1.592 31.84-14.783-.74zm14.179 12.82-.786 15.7c1.662.08 2.841-.15 3.537-.68.695-.53 1.121-2.36 1.276-5.47l.194-3.88c.112-2.24-.136-3.72-.745-4.45s-1.768-1.14-3.476-1.22zm-46.529-10.27 23.246-.72.428 13.81-9.305.29.405 13.09 8.709-.27.406 13.13-8.709.27.47 15.18 10.232-.32.428 13.82-24.173.74zm79.003 2.47 23.696 7.34-2.71 13.46-9.49-2.93-2.57 12.76 8.87 2.74-2.58 12.81-8.88-2.75-2.98 14.8 10.43 3.22-2.72 13.47-24.641-7.63zm-150.183 80.96c1.241 6.54 2.001 11.19 2.281 13.96.279 2.77.01 5.4-.808 7.88-.817 2.49-2.171 4.54-4.062 6.15-1.89 1.61-4.245 2.68-7.064 3.21-2.675.51-5.185.4-7.531-.34-2.346-.73-4.383-2.12-6.112-4.15-1.728-2.03-2.97-4.37-3.726-7-.755-2.64-1.768-7.31-3.04-14.01l-2.112-11.14c-1.241-6.54-2.001-11.2-2.281-13.96-.279-2.77-.01-5.4.808-7.89.817-2.48 2.172-4.53 4.062-6.14 1.891-1.61 4.245-2.68 7.064-3.22 2.675-.5 5.186-.39 7.531.35 2.346.73 4.383 2.12 6.112 4.15 1.728 2.03 2.97 4.37 3.726 7 .755 2.64 1.768 7.3 3.04 14.01zm-17.051-18.93c-.575-3.03-1.071-4.95-1.488-5.74-.418-.8-1.028-1.12-1.83-.97-.679.13-1.134.57-1.364 1.32-.231.76-.028 2.81.608 6.16l5.766 30.4c.717 3.78 1.278 6.1 1.682 6.94.405.84 1.039 1.17 1.903 1.01.885-.17 1.354-.79 1.408-1.85.053-1.07-.283-3.52-1.01-7.35zm842.18 39.11c1.56.33 3.05.54 4.47.61 3.31.15 5.55-1.66 7.39-4.38 2.21-3.26 3.84-7.66 5.41-12.5-3.26-4.11-11.47-14.49-15.68-19.81zm-749.543 119.95c-8.824 3.77-17.001 4.72-24.021 3.21 16.538 28.91 25.41 54.79 23.696 76.2 1.983 2.11 3.869 3.69 5.692 4.73 1.579.89 3.045 1.35 4.449 1.14 1.393-.21 2.639-1.07 3.857-2.39 1.44-1.55 2.764-3.68 4.019-6.36-9.006-25.44-14.482-50.96-17.692-76.53zm503.733 0c-3.21 25.57-8.68 51.09-17.69 76.53 1.25 2.68 2.58 4.81 4.02 6.36 1.22 1.32 2.46 2.18 3.85 2.39 1.41.21 2.88-.25 4.45-1.14 1.83-1.04 3.71-2.62 5.7-4.73-1.72-21.41 7.15-47.29 23.69-76.2-7.02 1.51-15.19.56-24.02-3.21zm-737.265-237.45.354-31.27c-6.657 6.75-14.034 8.8-20.146 7.41-.58-.13-1.154-.3-1.72-.49l6.471 29.04c4.117-.52 8.082-1.49 11.791-3.13 1.115-.5 2.198-1.02 3.25-1.56zm-12.281 117.5-1.59-36.08c-4.209 5.32-12.42 15.7-15.673 19.81 1.563 4.84 3.196 9.24 5.402 12.5 1.841 2.72 4.088 4.53 7.399 4.38 1.419-.07 2.907-.28 4.462-.61zm262.592 164.67 8.297 2.8c2.94-1.43 5.355-2.41 5.555-7.2.156-3.73-1.882-5.78-3.902-8.07-2.054-2.33-4.21-4.78-5.758-8.05-2.653-5.62-2.773-9.78-1.784-12.92 1.299-4.11 4.732-6.8 8.736-8.75 2.608-10.43 3.354-19 2.293-25.69-1.439-9.07-6.51-14.15-14.789-14.85-9.409-.8-15.561 1.53-17.336 6.8-1.927 5.73 1.118 13.6 8.513 22.19.541.62.888 1.41.983 2.25 1.931 17.19 4.859 34.36 9.192 51.49zm-267.544-268.97c-.057.01-.115.03-.173.04-.496.11-.99.13-1.466.06-11.877.64-24.525-1.26-36.095-2.16-15.285-1.19-28.678-.82-33.518 14.53-3.963 12.58-3.746 30.21.741 43.65.074.18.136.36.186.55.699 2.02 1.496 3.95 2.392 5.74 3.003 6 7.069 10.54 12.604 11.56 5.432 1 11.877-1.37 19.618-7.8-1.631-11.6-.829-22.15 2.407-29.66 3.981-9.23 11.351-14.4 22.386-12.83 11.626 1.66 19.517 11.42 21.474 21.79.413 2.19.56 4.39.433 6.55l2.187 49.62c6.027-2.49 12.792-6.27 20.212-10.96l9.013-115.11c-5.943 8.77-14.237 15.61-25.039 20.4-5.389 2.39-11.261 3.57-17.362 4.03zm670.258 154.92c5.36 44.03 4.87 85.94-5.86 124.09 24.59 7.56 43.34 6.5 57.14-2.32-1.79-1.23-3.26-2.62-4.31-4.64-.92-1.77-1.56-4.03-1.69-7.13-.22-5.42 1.82-8.97 4.58-12.3 1.92-2.32 4.33-4.47 5.87-7.73 1.42-3.01 1.91-5.17 1.38-6.85-.78-2.46-3.46-3.41-5.94-4.45-1.19-.5-2.08-1.52-2.41-2.77-8.96-33.64.07-51.26 19.35-52.89 14.54-1.22 23.2 4.31 25.94 12.46 2.27 6.75.43 16.1-6.79 26.09 9.37 4.1 17.77 4.49 24.27 1 1.98-1.06 3.76-2.48 5.32-4.22.13-.17.27-.33.42-.48 4.11-4.87 6.63-12.16 7.26-21.57.5-7.45-1.05-13.25-4.47-17.67-3.5-4.51-8.84-7.53-15.49-9.6-14.56-4.53-35-4.4-57.66-2.65-13.19 7-31.13 6-45.06-4.93-.62-.46-1.24-.94-1.85-1.44zm-695.711 6.87c-.006-.04-.011-.09-.015-.13-3.237-30.48-7.4-69.69-9.12-85.88-6.315 4.38-12.016 6.39-17.021 6.69-5.246.31-9.895-1.17-13.884-4.05l28.206 127.06c1.85 3.87 5.099 6.02 8.371 5.64 3.448-.39 6.381-3.47 7.746-8.98 0 0-1.886-17.76-4.283-40.35zm11.76-3.9-7.402-70.27c-.115-1.09.197-2.17.875-3.03l19.697-24.89c.046-.06.093-.11.142-.17 1.849-2.1 2.803-4.76 3.033-7.58.002-.15.012-.3.03-.44.081-1.48-.032-3-.315-4.5-1.336-7.08-6.521-13.95-14.462-15.08-6.706-.96-11.138 2.27-13.557 7.88-2.946 6.83-3.261 16.64-1.481 27.32l.001.01c.014.08.025.16.034.25l9.568 90.1zm305.657-64.94c-5.535 8.14-9.235 15.62-11.4 22.38 3.493-4.57 7.508-6.53 11.313-6.63 4.149-.12 8.513 1.85 12.466 5.85 3.327 3.36 6.437 8.23 8.917 14.19 0 0 9.321-16.6 10.316-18.37-9.465-11.36-19.878-16.81-31.612-17.42z" transform="matrix(.79130975418 0 0 .79130614508 -466.61180047447 -3187.06614604027)"/></g></svg>