<svg clip-rule="evenodd" fill-rule="evenodd" stroke-linejoin="round" stroke-miterlimit="2" viewBox="0 0 1024 1024" xmlns="http://www.w3.org/2000/svg"><path d="m2725.61 4015.72c210.06 0 380.59 170.53 380.59 380.59s-170.53 380.59-380.59 380.59-380.6-170.53-380.6-380.59 170.54-380.59 380.6-380.59zm0 2.91c-208.45 0-377.68 169.23-377.68 377.68s169.23 377.68 377.68 377.68 377.68-169.23 377.68-377.68-169.23-377.68-377.68-377.68zm-291.72 478.44-24.99-8.19-18.34 18.04-2.05-8.83 16.17-15.25-1.82-7.87-18.7 4.32-1.88-8.13 18.7-4.31-1.8-7.74-21.24-6.69-2.04-8.83 24.46 8.1 19.98-19.36 2.22 9.59-16.21 15.6 1.77 7.68 18.83-4.34 1.88 8.12-18.83 4.35 1.78 7.67 21.44 6.98 1.98 8.52 9.53-4.19 3.17 7.21-8.93 3.93 14.18 32.28 8.94-3.93 3.19 7.28-15.55 6.77-.79-1.81c-1.28-2.59-4.05-3.59-8.29-2.99s-9.93 2.33-17.07 5.18l-13.52 5.37-13.55-30.84 35.36-15.55-2.67-6.07zm-12.6 41.99c5.52-2.19 10.24-3.74 14.15-4.65 3.92-.91 6.98-.96 9.19-.17l-9.38-21.34-28.77 12.66 7.24 16.47zm58.51-163.63v16.77h-8.92v-16.77zm-10.88-23.81v15.6h-8.91v-15.6zm0 23.81v16.77h-8.91v-16.77zm539.59-90.73-.24.11-14.42-31.32 41.63-19.18 14.03 30.48-6.48 2.98-10.46-22.72-10.82 4.99 9.28 20.16-6.37 2.93-9.28-20.16-11.47 5.29 10.84 23.56-5.73 2.64 26.78 8.53 16.58-21.57 2.98 9.39-11.34 14.95 17.89 5.7 3.01 9.52-25.64-8.07-14.87 19.43 44.97 11.72 1.42 8.28-41.68 28.15-1.51-8.8 9.68-6.31-3.88-22.65-11.23-2.69-.82-4.8-2.81-8.87 12.3-16.44-19.51-6.29zm34.89 66.77 18.29-11.91-21.21-5.11zm-204.81 333.27-7.12 23.21 21.7 16.48-9.33 3.04-15.04-11.26-5.51 17.95-9.46 3.09 7.79-25.74-23.23-17.58 9.59-3.12 16.52 12.23 6.08-19.6 8.6-2.8 4.54-2.2 8.76 7.57 20.62-10-.57-11.55 7.89-3.83 1.49 50.37-7.55 3.66zm19.34 6.07 16.54 14.31-1.04-21.83zm-378.13-339.19v15.6h-8.92v-15.6zm-27.7-1.11c.06-.4.13-.8.2-1.19h30.11v-1.76l-1.48-3.37-27.7-.01c24.41-128.15 137.16-225.16 272.38-225.16s247.97 97.01 272.38 225.16l-28.21.01-1.47 3.37v1.76h30.61c.07.39.14.79.2 1.19h-30.33v60.76h2.13v-10.8h8.91v10.8h1.97v-10.8h8.91v10.8h11.79c-.04.69-.08 1.38-.12 2.07l-193.15.05-3.4 7.95h-5.88l-1.93 5.73v34.13h14.08v-12.82h12.66v12.82h15.03v-12.82h12.66v12.82h14.73v-12.82h12.66v12.82h14.95v-12.82h12.66v12.82h14.75v-12.82h12.66v12.82h14.44v-12.82h12.66v12.82h15.09v-12.82h12.66v12.82h5.53c-.09.41-.19.81-.29 1.21h-196.55v7.95h194.48c-32.43 117.13-139.87 203.23-267.27 203.23s-234.84-86.1-267.27-203.23h202.38v-7.95h-204.45c-.1-.4-.2-.8-.3-1.21h13.44v-12.82h12.66v12.82h15.09v-12.82h12.66v12.82h14.44v-12.82h12.66v12.82h14.76v-12.82h12.65v12.82h14.95v-12.82h12.66v12.82h14.73v-12.82h12.66v12.82h15.03v-12.82h12.66v12.82h14.08v-34.13l-1.92-5.73h-5.89l-3.4-7.95-201.05-.16c-.04-.65-.08-1.31-.12-1.96h11.29v-10.8h8.91v10.8h1.96v-10.8h8.92v10.8h2.13v-60.76zm433.63-2.12h-10.3v62.88h10.3zm-11.83 15.93h-12.23v9.04h12.23zm0 25.91h-12.23v8.25h12.23zm-362.99-25.91h-12.23v9.04h12.23zm0 25.91h-12.23v8.25h12.23zm37.76-41.84h-10.3v62.88h10.3zm2.23-8.9h-14.87l2.34 7.63h10.13zm141.51 50.74h-12.24v8.25h12.24zm-166.86-43.11h10.48l-1.65-5.89h-7.22zm195.09 80.27h-7.37v42.97h7.37zm25.31 0h-7.37v42.97h7.37zm52.45-6.05h-10.84l1.04 5.08h8.54zm-128.24 6.05h-7.37v42.97h7.37zm100.03-63.07h-12.23v9.04h12.23zm0 25.91h-12.23v8.25h12.23zm-14.1-41.84h-10.3v62.88h10.3zm2.23-8.9h-14.87l2.34 7.63h10.13zm-25.35 7.63h10.48l-1.65-5.89h-7.22zm11.29 17.2h-12.23v9.04h12.23zm-37.79-24.83h-14.88l2.34 7.63h10.14zm-25.35 7.63h10.47l-1.65-5.89h-7.22zm11.29 17.2h-12.24v9.04h12.24zm-63.73-24.83h-14.87l2.34 7.63h10.13zm-51.85 0h-14.88l2.34 7.63h10.14zm271.14 24.83h-12.23v9.04h12.23zm14.06-24.83h-14.87l2.34 7.63h10.13zm-25.93 0h-14.87l2.34 7.63h10.14zm-91.84 50.74h-12.23v8.25h12.23zm223.1-41.84h-13.75v62.88h13.75zm2.98-8.9h-19.85l3.12 7.63 13.75-.17zm-447.6 8.9h-10.3v62.88h10.3zm2.23-8.9h-14.87l2.34 7.63h10.13zm-25.35 7.63h10.48l-1.65-5.89h-7.22zm230.54 1.27h-10.3v62.88h10.3zm2.23-8.9h-14.87l2.34 7.63h10.13zm-60.4 81.85h-10.83l1.03 5.08h8.55zm75.8 0h-10.84l1.04 5.08h8.54zm23.59 6.05h-7.37v42.97h7.37zm25.18 0h-7.37v42.97h7.37zm-100.79 0h-7.37v42.97h7.37zm-92.43-80.27h10.47l-1.65-5.89h-7.22zm11.28 17.2h-12.23v9.04h12.23zm82.99 57.02h-10.84l1.04 5.08h8.55zm24.87 0h-10.84l1.03 5.08h8.55zm140.13-74.22h10.48l-1.65-5.89h-7.22zm-247.99 43.11h-12.23v8.25h12.23zm-113.79-50.74h-19.85l3.12 7.63 13.75-.17zm61.94 50.74h-12.24v8.25h12.24zm37.76-41.84h-10.31v62.88h10.31zm221.51 15.93h-12.23v9.04h12.23zm-114.99-17.2h10.47l-1.65-5.89h-7.22zm11.28 17.2h-12.23v9.04h12.23zm0 25.91h-12.23v8.25h12.23zm169.63-50.74h-14.87l2.34 7.63h10.13zm-80.01 8.9h-10.31v62.88h10.31zm2.23-8.9h-14.88l2.34 7.63h10.14zm-36.96 81.85h-10.84l1.04 5.08h8.55zm195.56-91.15h-487.8v4.07h487.8zm-417.3 16.93h10.47l-1.65-5.89h-7.21zm11.29 17.2h-12.24v9.04h12.24zm219.25-15.93h-10.3v62.88h10.3zm-141.47 15.93h-12.23v9.04h12.23zm-51.86 25.91h-12.23v8.25h12.23zm37.76-41.84h-10.3v62.88h10.3zm210.23-1.27h10.48l-1.65-5.89h-7.22zm-2.81 1.27h-10.3v62.88h10.3zm-231.12-8.9h-14.87l2.34 7.63h10.14zm-25.34 7.63h10.47l-1.65-5.89h-7.22zm374.27 17.2h-12.23v9.04h12.23zm-299.3-15.93h-10.3v62.88h10.3zm2.81-1.27h10.47l-1.64-5.89h-7.22zm49.05 1.27h-10.31v62.88h10.31zm221.51 15.93h-12.23v9.04h12.23zm-296.49-17.2h10.48l-1.65-5.89h-7.22zm311.13 0h10.48l-1.65-5.89h-7.22zm-259.85-7.63h-14.88l2.35 7.63h10.13zm-25.93 0h-14.87l2.34 7.63h10.13zm259.28 0h-14.88l2.35 7.63h10.13zm-14.06 24.83h-12.23v9.04h12.23zm-325.23-15.93h-10.31v62.88h10.31zm313.94-1.27h10.47l-1.64-5.89h-7.23zm63.14 43.11h-12.23v8.25h12.23zm23.44-69.42 2.68-4.43h-505.15l3.7 4.43h4.34v3.63h-1.83l1.05 1.72 491.3.12.64-.94 3.15-4.53zm-50.76 0h4.92v3.59h-4.92zm21.09 0h4.81v3.59h-4.81zm-378.4 0h5.27v3.63h-5.27zm181.86 0h5.26v3.61h-5.26zm182.24 0h5.28v3.59h-5.28zm-406.16 0h5.27v3.63h-5.27zm202.93 0h4.81v3.61h-4.81zm-118.79 0h5.26v3.62h-5.26zm153.71 0h5.27v3.61h-5.27zm196.44 0h5.28v3.59h-5.28zm7.16 0h5.5l-1.56 3.59h-3.94zm-392.24 0h5.27v3.62l-5.27.01zm377.94 0h5.27v3.59h-5.27zm-119.1 0h5.27v3.6h-5.27zm7.14 0h4.82v3.6h-4.82zm-308.05 0h4.92v3.63h-4.92zm6.8 0h5.26v3.63h-5.26zm7.14 0h5.28v3.63h-5.28zm7.15 0h5.27v3.63h-5.27zm41.61 0h5.27v3.62h-5.27zm7.14 0h5.28v3.62h-5.28zm-119.4 0h5.26v3.63h-5.26zm252.04 0h5.27v3.61h-5.27zm77.8 0h4.46v3.6h-4.46zm-147.23 0h5.26v3.62h-5.26zm7.14 0h4.82v3.62h-4.82zm6.69 0h5.27v3.62h-5.27zm7.14 0h5.28v3.61l-5.28.01zm7.16 0h5.26v3.61h-5.26zm7.14 0h4.16v3.61h-4.16zm6.03 0h5.27v3.61h-5.27zm7.14 0h5.28v3.61h-5.28zm7.16 0h5.26v3.61h-5.26zm126.1 0h5.26v3.6h-5.26zm7.14 0h5.28v3.6h-5.28zm7.15 0h5.27v3.6h-5.27zm7.14 0h4.61v3.6h-4.61zm6.49 0h5.26v3.6h-5.26zm7.14 0h5.28v3.6h-5.28zm7.15 0h5.27v3.6h-5.27zm-70.34 0h5.26v3.6h-5.26zm77.48 0h4.82v3.6h-4.82zm6.7 0h5.26v3.6h-5.26zm7.14 0h5.28v3.59h-5.28zm7.15 0h5.27v3.59h-5.27zm-300.95 0h4.82v3.62h-4.82zm6.69 0h5.27v3.62h-5.27zm-112.26 0h5.26v3.63h-5.26zm7.14 0h5.27v3.63h-5.27zm308.05 0h5.28v3.6h-5.28zm-195.79 0h5.28v3.62h-5.28zm7.16 0h5.26v3.62h-5.26zm7.14 0h4.61v3.62h-4.61zm6.48 0h5.27v3.62h-5.27zm-146.88 0h4.82v3.63h-4.82zm154.02 0h5.28v3.62h-5.28zm126.26 0h4.81v3.61h-4.81zm6.69 0h5.27v3.6l-5.27.01zm-202.48 0h4.47v3.62h-4.47zm209.62 0h5.28v3.6h-5.28zm-308.4 0h5.28v3.63h-5.28zm7.15 0h5.27v3.63h-5.27zm273.12 0h5.28v3.61h-5.28zm7.16 0h5.26v3.61h-5.26zm161.17 0h5.26v3.59h-5.26zm-196.56 0h5.28v3.61h-5.28zm-160.4 0h5.27v3.62h-5.27zm223.91 0h5.27v3.6h-5.27zm-49.21 0h4.92v3.61h-4.92zm-195.69 0h4.82v3.63h-4.82zm351.3 27.58h-10.3v62.88h10.3zm-233.35 0h-10.3v62.88h10.3zm106.52-1.27h10.47l-1.65-5.89h-7.22zm11.29 17.2h-12.24v9.04h12.24zm14.64-17.2h10.47l-1.65-5.89h-7.22zm49.04 1.27h-10.3v62.88h10.3zm-75.55-8.9h-14.87l2.34 7.63h10.13zm63.72 50.74h-12.23v8.25h12.23zm-89.07-43.11h10.48l-1.65-5.89h-7.22zm209.88-11.88h-487.8v3.1h487.8zm-132.77-103v-18.87h-41.96v18.87h6.82v-12.05h10.12v38.21h-6.46v6.82h21v-6.82h-6.39v-38.21h10.05v12.05zm-90.91-18.87h-18.69v6.82h6.47v38.21h-6.47v6.82h21v-6.82h-6.39v-34.6l16.93 44.68 17.88-44.89v34.81h-6.46v6.82h21v-6.82h-6.4v-38.21h6.4v-6.82h-18.47l-13.72 34.26zm-22.45 0h-42.68v6.82h6.46v38.21h-6.46v6.82h42.68v-16.03h-6.82v9.21h-21.26v-16.05h19.21v-6.85h-19.21v-15.31h21.26v9.21h6.82zm-75.66 6.82h6.39v-6.82h-21v6.82h6.47v38.21h-6.47v6.82h21v-6.82h-6.39v-19.7l15.42 19.7h-5.48v6.82h21v-6.82h-4.31l-16.79-20.37 15.97-17.84h5.13v-6.82h-21v6.82h6.1l-16.04 17.58zm12.7 351.74h-6.75v6.27h20.97v-6.27h-6.96v-45.09h-14.01v6.38h6.75zm78.87 0h-6.54v6.27h20.97v-6.27h-6.81c1.22-17.44 5.74-30.63 15.59-40.58v-5.04h-33.73v14.16h6.14v-7.15h18.89c-7.32 6.53-13.43 24.4-14.51 38.61zm48.93-26.08c-2.7 0-5.13.6-7.29 1.81-2.15 1.22-3.84 2.98-5.07 5.3-.04-.46-.07-1.11-.07-1.93 0-6.65 1.58-11.51 3.82-15.2 2.25-3.69 7.67-4.49 11.23-2.64 3.59 1.86 5.04 5.87 5.36 9.21l5.87-.12c.16-1.79-1.09-9.63-5.63-13.12-5.69-4.36-15.44-3.02-17.66-1.28-2.97 2.31-4.88 4.78-6.59 9.04-1.7 4.25-2.55 9.39-2.55 15.42 0 8.61 1.57 15.26 4.71 19.95s7.6 7.03 13.38 7.03c2.88 0 5.47-.7 7.79-2.12s4.14-3.42 5.47-5.99c1.34-2.58 2-5.57 2-8.97 0-3.25-.63-6.12-1.9-8.62s-3.03-4.42-5.26-5.76c-2.24-1.34-4.77-2.01-7.61-2.01zm-.73 27.21c-2.14 0-3.97-.47-5.51-1.43-1.54-.95-2.71-2.21-3.51-3.79-.8-1.57-1.2-3.31-1.2-5.22 0-1.95.42-3.73 1.26-5.33s2.01-2.86 3.51-3.79 3.21-1.39 5.14-1.39c2.99 0 5.38.94 7.17 2.82 1.78 1.88 2.68 4.42 2.68 7.62 0 3.19-.89 5.75-2.65 7.65-1.76 1.91-4.06 2.86-6.89 2.86zm-289.32-224.67h-13.74v62.88h13.74zm153.69 64.84 2.81 6.81 150.76.35 2.99-6.95zm170.91-23h-12.23v8.25h12.23zm-186.28 155.21c-2.8 0-5.08 2.28-5.08 5.08s2.28 5.08 5.08 5.08 5.08-2.28 5.08-5.08-2.28-5.08-5.08-5.08zm184.26 0c-2.8 0-5.07 2.28-5.07 5.08s2.27 5.08 5.07 5.08 5.08-2.28 5.08-5.08-2.28-5.08-5.08-5.08zm-106.13 5.81c2.06-1.15 3.63-2.69 4.72-4.61s1.64-4.16 1.64-6.7c0-2.9-.67-5.42-2.02-7.56-1.35-2.15-3.26-3.8-5.72-4.94-2.46-1.15-5.32-1.73-8.57-1.73-3.21 0-6.04.58-8.48 1.73-2.44 1.14-4.33 2.79-5.68 4.94-1.35 2.14-2.02 4.66-2.02 7.56 0 2.59.53 4.84 1.6 6.74 1.07 1.89 2.63 3.42 4.69 4.57-2.57 1.14-4.53 2.79-5.88 4.94s-2.02 4.71-2.02 7.71c0 3.15.73 5.88 2.18 8.2 1.46 2.32 3.52 4.11 6.2 5.35 2.68 1.25 5.81 1.87 9.41 1.87 3.64 0 6.81-.62 9.5-1.87 2.7-1.24 4.78-3.03 6.23-5.35 1.46-2.32 2.19-5.05 2.19-8.2 0-3-.69-5.56-2.06-7.71s-3.34-3.8-5.91-4.94zm-9.95-19.47c3.04 0 5.47.76 7.29 2.28s2.73 3.58 2.73 6.18-.89 4.64-2.67 6.14-4.23 2.24-7.35 2.24c-3.08 0-5.49-.74-7.23-2.24-1.73-1.5-2.6-3.54-2.6-6.14s.88-4.66 2.64-6.18c1.75-1.52 4.15-2.28 7.19-2.28zm0 41.48c-3.55 0-6.34-.86-8.35-2.58-2.01-1.73-3.02-4.06-3.02-7 0-2.9 1.01-5.18 3.02-6.86 2.01-1.67 4.8-2.5 8.35-2.5s6.36.83 8.41 2.5c2.06 1.68 3.08 3.96 3.08 6.86 0 2.94-1.02 5.27-3.08 7-2.05 1.72-4.86 2.58-8.41 2.58zm221.81-183.03h-12.23v8.25h12.23zm-259.27 0h-12.24v8.25h12.24zm129.64 0h-12.24v8.25h12.24zm-207.43-25.91h-12.23v9.04h12.23zm348.9-15.93h-10.31v62.88h10.31zm-37.76 41.84h-12.23v8.25h12.23zm-362.99 0h-12.23v8.25h12.23zm377.63-43.11h10.47l-1.65-5.89h-7.22zm-273.92 43.11h-12.23v8.25h12.23zm299.26-50.74h-14.87l2.34 7.63h10.14zm-273.33 24.83h-12.24v9.04h12.24zm-129.64 0h-12.23v9.04h12.23zm316.43 62.53c-.6-2.86-2.54-5.56-5.76-5.8-.23-.02-.4-.22-.38-.45.01-.23.22-.4.45-.38 3.61.27 5.83 3.25 6.5 6.46.05.23-.09.45-.32.49-.22.05-.44-.09-.49-.32zm-1.16 2.95v7.47h-11.98v-7.77c0-4.13 2.63-7.48 5.87-7.48h.01c3.37 0 6.1 3.48 6.1 7.78zm-26.53-2.95c-.6-2.86-2.53-5.56-5.75-5.8-.23-.02-.41-.22-.39-.45s.22-.4.45-.38c3.61.27 5.83 3.25 6.51 6.46.04.23-.1.45-.32.49-.23.05-.45-.09-.5-.32zm81.53 2.95v7.47h-11.98v-7.77c0-4.13 2.63-7.48 5.87-7.48 3.37 0 6.11 3.48 6.11 7.78zm41.37-2.95c-.05.23-.27.37-.49.32-.23-.04-.37-.26-.33-.49.68-3.21 2.9-6.19 6.51-6.46.23-.02.43.15.45.38s-.16.43-.38.45c-3.23.24-5.16 2.94-5.76 5.8zm-137.19 0c-.05.23-.27.37-.5.32-.22-.04-.37-.26-.32-.49.67-3.21 2.89-6.19 6.51-6.46.23-.02.43.15.45.38.01.23-.16.43-.39.45-3.22.24-5.15 2.94-5.75 5.8zm27.68 0c-.04.23-.27.37-.49.32-.23-.04-.37-.26-.32-.49.67-3.21 2.89-6.19 6.51-6.46.23-.02.43.15.44.38.02.23-.15.43-.38.45-3.22.24-5.15 2.94-5.76 5.8zm95.55 2.95v7.47h-11.98v-7.77c0-4.13 2.63-7.48 5.87-7.48 3.37 0 6.11 3.48 6.11 7.78zm-55.02 0v7.47h-11.98v-7.77c0-4.13 2.63-7.48 5.87-7.48h.01c3.37 0 6.1 3.48 6.1 7.78zm56.18-2.95c-.6-2.86-2.54-5.56-5.76-5.8-.23-.02-.4-.22-.38-.45.01-.23.21-.4.44-.38 3.62.27 5.84 3.25 6.51 6.46.05.23-.1.45-.32.49-.22.05-.45-.09-.49-.32zm49.75-188.21 25.03-17.23-29.26 1.75-2.15-3.15 11.91-26.46-24.75 16.95-4.55-6.66 37.82-25.91 3.96 5.8-14.76 32.15 35.17-2.28 3.92 5.75-37.75 26.01zm89.89 175.46-45.85.39-.09-8.53 19.65-.17-.25-23.76-19.65.16-.08-8.53 45.84-.39.09 8.53-18.93.16.25 23.77 18.93-.17zm-1.53 14.11-.84 8.36-45.63-4.7.84-8.36zm-440.25-1.36c-.05.23-.27.37-.49.32-.23-.04-.37-.26-.33-.49.68-3.21 2.9-6.19 6.51-6.46.23-.02.43.15.45.38s-.15.43-.38.45c-3.23.24-5.16 2.94-5.76 5.8zm-150.65 0c-.6-2.86-2.54-5.56-5.76-5.8-.23-.02-.4-.22-.38-.45s.22-.4.45-.38c3.61.27 5.83 3.25 6.5 6.46.05.23-.09.45-.32.49-.22.05-.44-.09-.49-.32zm14.62 2.95c0-4.3 2.73-7.78 6.1-7.78 3.25 0 5.87 3.35 5.87 7.48v7.77h-11.97zm40.23-2.95c-.6-2.86-2.54-5.56-5.76-5.8-.23-.02-.4-.22-.38-.45s.22-.4.45-.38c3.61.27 5.83 3.25 6.51 6.46.04.23-.1.45-.33.49-.22.05-.44-.09-.49-.32zm82.41 0c-.6-2.86-2.54-5.56-5.76-5.8-.23-.02-.4-.22-.38-.45.01-.23.21-.4.44-.38 3.62.27 5.84 3.25 6.51 6.46.05.23-.09.45-.32.49-.22.05-.44-.09-.49-.32zm286.43-321.92-13.33-7.34-18.56 33.94-7.41-4.08 18.55-33.94-13.27-7.31 3.46-6.33 34.02 18.73zm26.83 10.26c3.19 2.38 5.58 4.97 7.17 7.79s2.28 5.68 2.09 8.59c-.2 2.91-1.29 5.71-3.3 8.41-1.97 2.67-4.33 4.53-7.06 5.57s-5.67 1.21-8.82.5c-3.15-.72-6.32-2.26-9.51-4.64l-8.31-6.19-7.89 10.63-6.84-5.09 27.32-36.86zm-15.46 20.19c2.99 2.23 5.72 3.28 8.2 3.17 2.48-.12 4.59-1.35 6.33-3.7 1.74-2.36 2.31-4.74 1.7-7.15-.6-2.42-2.4-4.73-5.38-6.95l-8-5.96-10.84 14.64zm22.16 47.01c-3.3-3.32-5.55-7.04-6.77-11.14-1.21-4.11-1.3-8.19-.26-12.26 1.04-4.06 3.14-7.67 6.3-10.82 3.15-3.14 6.76-5.23 10.82-6.25s8.14-.91 12.23.32c4.09 1.24 7.78 3.52 11.08 6.84s5.56 7.04 6.77 11.14 1.31 8.18.28 12.23c-1.02 4.05-3.13 7.67-6.31 10.84-3.19 3.18-6.8 5.27-10.85 6.28s-8.12.89-12.21-.34c-4.08-1.24-7.78-3.52-11.08-6.84zm5.29-5.28c2.16 2.18 4.59 3.65 7.29 4.41 2.7.77 5.42.78 8.15.03s5.18-2.2 7.35-4.36c2.16-2.16 3.63-4.6 4.39-7.34s.76-5.46.01-8.17-2.21-5.15-4.37-7.33c-2.16-2.17-4.58-3.64-7.29-4.41-2.7-.76-5.41-.78-8.15-.03-2.73.75-5.18 2.21-7.35 4.37-2.16 2.15-3.62 4.6-4.38 7.34-.77 2.73-.77 5.46-.02 8.17.76 2.71 2.21 5.15 4.37 7.32zm25.52 174.51h8.91v15.6h-8.91zm5.31 75.23c-.05.23-.27.37-.49.32-.23-.04-.37-.26-.32-.49.67-3.21 2.89-6.19 6.51-6.46.23-.02.43.15.44.38.02.23-.15.43-.38.45-3.22.24-5.16 2.94-5.76 5.8zm-452.79 0c-.04.23-.26.37-.49.32-.22-.04-.37-.26-.32-.49.67-3.21 2.89-6.19 6.51-6.46.23-.02.43.15.45.38.01.23-.16.43-.39.45-3.22.24-5.15 2.94-5.76 5.8zm541.47 56.74-45.01-8.89 1.62-8.31 16.97 3.35c-.75-4.56-.76-8.76-.02-12.58 1.13-5.75 3.37-9.91 6.74-12.48 3.38-2.56 7.65-3.33 12.84-2.31l14.34 2.83-1.62 8.31-13.44-2.65c-3.17-.63-5.77-.19-7.8 1.33-2.04 1.52-3.39 3.99-4.06 7.43-.76 3.9-.68 7.75.23 11.54l20.83 4.12zm-18.37 53.99-43.04-15.94 2.94-8 18.44 6.83 8.18-22.29-18.44-6.83 2.94-8 43.04 15.93-2.94 8-17.77-6.58-8.18 22.29 17.77 6.58zm-6.91 14.97-4.13 7.31-28.34-16.11 16.22 37.57-3.9 6.91-39.92-22.69 4.13-7.31 28.28 16.08-16.16-37.54 3.9-6.91zm-29.45 49.4-5.26 6.54-25.36-20.51 9.91 39.7-4.97 6.18-35.71-28.89 5.26-6.54 25.3 20.47-9.86-39.66 4.98-6.18zm-10.38 17.82c2.46-3.06 4.95-4.86 7.45-5.39 2.51-.53 4.98.16 7.42 2.08l-3.74 4.65c-1.28-.99-2.58-1.36-3.89-1.13s-2.57 1.1-3.77 2.59c-1.18 1.47-1.76 2.89-1.76 4.28.01 1.38.63 2.6 1.86 3.65l-3.69 4.6c-2.36-1.96-3.53-4.25-3.54-6.87 0-2.61 1.22-5.43 3.66-8.46zm-106.95 60.53c-3.52-4.92-4.59-10.02-3.22-15.31s5.11-10.31 11.21-15.07l-2.83-3.95 6.39-4.58 2.83 3.95c6.51-4.18 12.48-6.09 17.91-5.73 5.44.35 9.91 2.99 13.42 7.9 3.52 4.92 4.57 10.02 3.17 15.3-1.4 5.29-5.12 10.34-11.17 15.17l2.71 3.79-6.39 4.58-2.71-3.79c-6.51 4.18-12.48 6.08-17.91 5.69s-9.9-3.04-13.41-7.95zm38.95-27.94c-2.31-3.24-5.23-4.97-8.74-5.2-3.52-.22-7.5.99-11.94 3.63l15.5 21.69c8.17-6.83 9.89-13.53 5.18-20.12zm-27.07 3.01c-4.03 3.37-6.48 6.77-7.37 10.18s-.16 6.75 2.18 10.03 5.27 5.03 8.78 5.25c3.52.23 7.49-1.03 11.92-3.77zm-129.05 41.84c4.61-.78 8.93-.48 12.98.9 4.04 1.37 7.42 3.66 10.14 6.87 2.71 3.2 4.45 7 5.2 11.4s.38 8.56-1.13 12.48c-1.5 3.92-3.93 7.19-7.29 9.83-3.36 2.63-7.34 4.34-11.94 5.12-4.61.78-8.94.48-12.98-.9s-7.42-3.65-10.14-6.84c-2.71-3.18-4.44-6.99-5.2-11.43-.76-4.45-.39-8.62 1.12-12.52 1.5-3.89 3.94-7.16 7.3-9.79 3.35-2.63 7.34-4.34 11.94-5.12zm1.26 7.38c-3.01.51-5.61 1.65-7.79 3.41-2.18 1.77-3.74 3.99-4.71 6.66-.96 2.68-1.18 5.52-.66 8.54.51 3.02 1.67 5.64 3.46 7.84s4.01 3.78 6.65 4.73 5.47 1.17 8.49.66c3.01-.51 5.61-1.65 7.78-3.42 2.18-1.76 3.75-3.98 4.71-6.66.96-2.67 1.19-5.51.67-8.53-.51-3.02-1.67-5.64-3.46-7.84-1.8-2.21-4.01-3.78-6.65-4.73-2.65-.95-5.48-1.17-8.49-.66zm-61.16 21.43c-2.93-.78-5.16-2.12-6.7-4.02s-2.31-4.27-2.33-7.12c-.01-4.02 1.45-7.16 4.41-9.4s7.26-3.36 12.89-3.38l21.75-.06.21 45.95-20.5.06c-5.15.01-9.17-1-12.07-3.05-2.89-2.05-4.34-4.96-4.36-8.72-.01-2.41.56-4.49 1.71-6.24 1.15-1.76 2.81-3.1 4.99-4.02zm8.57-17.36c-6.03.02-9.03 2.31-9.01 6.86.02 4.46 3.04 6.68 9.07 6.67l13.1-.04-.06-13.52zm13.19 19.73-11.4.03c-2.75.01-4.84.56-6.28 1.66s-2.15 2.72-2.14 4.86c.01 2.15.74 3.77 2.19 4.89 1.44 1.11 3.54 1.66 6.29 1.65l11.4-.03zm-43.36 18.85-8.3-1.25 4.75-32.26-29.11 28.62-7.84-1.17 6.68-45.45 8.3 1.24-4.74 32.2 29.1-28.56 7.85 1.18zm-56.69-9.87-7.99-2.58 9.94-31.05-33.39 23.48-7.55-2.44 13.99-43.74 7.99 2.58-9.92 30.99 33.37-23.41 7.55 2.44zm-20.34-3.33c3.74 1.21 6.31 2.89 7.71 5.04s1.65 4.72.74 7.69l-5.67-1.84c.45-1.55.33-2.9-.36-4.04s-1.95-2.01-3.78-2.6c-1.79-.58-3.33-.61-4.61-.11-1.29.5-2.2 1.52-2.73 3.05l-5.62-1.82c.98-2.9 2.68-4.82 5.12-5.76 2.43-.93 5.5-.8 9.2.39zm-62.99-61.61 7.2 4.57 10.31-16.36 7.09 4.5-24.48 38.81-7.09-4.5 10.25-16.25-7.42-4.7-21.38 9.18-7.65-4.86 25.1-10.39-1.12-28.73 8.15 5.16zm-26.5-44.07c3.56 3.04 6.11 6.55 7.66 10.54s1.97 8.06 1.27 12.2c-.7 4.13-2.49 7.9-5.38 11.3-2.88 3.4-6.3 5.77-10.27 7.13-3.96 1.35-8.03 1.59-12.21.69-4.17-.89-8.04-2.86-11.6-5.89-3.57-3.04-6.12-6.56-7.67-10.55s-1.98-8.04-1.29-12.17c.69-4.12 2.49-7.89 5.4-11.32s6.34-5.82 10.29-7.16 8.01-1.56 12.19-.67c4.17.9 8.04 2.86 11.61 5.9zm-4.84 5.69c-2.33-1.98-4.87-3.25-7.62-3.79-2.76-.54-5.47-.32-8.13.65s-4.98 2.62-6.96 4.96c-1.98 2.33-3.24 4.89-3.77 7.68s-.31 5.5.66 8.14c.98 2.64 2.63 4.95 4.96 6.94s4.87 3.25 7.63 3.79c2.75.55 5.46.33 8.12-.64 2.66-.98 4.98-2.63 6.96-4.96s3.24-4.89 3.77-7.68.31-5.51-.66-8.15c-.98-2.64-2.63-4.95-4.96-6.94zm-77.31-24.22 34.59-30.1 5.5 6.35-29.15 25.37 11.87 13.69 8.9-7.23c4.99-4.04 9.26-7.06 12.82-9.06 3.56-1.99 6.72-2.98 9.49-2.95s5.21 1.27 7.34 3.71c.74.86 1.59 2.18 2.55 3.96l-5.97 4.41c-.24-.55-.6-1.1-1.09-1.66-1.75-2.02-4.18-2.41-7.3-1.18-3.12 1.24-7.34 3.99-12.65 8.26l-14.76 11.98zm5.35-63.2 6.07-3.76 18.13 29.32-38.95 24.16-17.66-28.54 6.07-3.76 13.16 21.27 10.13-6.28-11.68-18.87 5.96-3.69 11.67 18.87 10.75-6.66zm-54.52-165.47c8.36 0 15.15 6.79 15.15 15.15s-6.79 15.15-15.15 15.15-15.14-6.79-15.14-15.15 6.78-15.15 15.14-15.15zm128.26 48.64c0-4.3 2.74-7.78 6.11-7.78 3.24 0 5.87 3.35 5.87 7.48v7.77h-11.98zm55.02 0c0-4.3 2.73-7.78 6.1-7.78h.01c3.24 0 5.87 3.35 5.87 7.48v7.77h-11.98zm-173.6-91.77-1.61 8.38 18.97 3.71-1.59 8.25-45.02-8.81 1.59-8.24 18.84 3.68 1.67-8.63-16.35-16.64 1.72-8.89 18.83 19.66 26.3-11.43-1.83 9.47zm-19.56-35.84 2.72-7.95 30.8 10.62-22.84-33.96 2.57-7.51 43.39 14.95-2.72 7.95-30.74-10.59 22.77 33.93-2.56 7.51zm19.23-51.24 3.61-7.72 41.52 19.59-3.62 7.72zm-4.93 0c-.48 1.03-1.21 1.72-2.2 2.07-.99.36-2 .29-3.02-.19-1.07-.51-1.78-1.25-2.14-2.24s-.29-2 .19-3.03 1.21-1.72 2.2-2.08c.99-.35 2.02-.28 3.08.22 1.03.49 1.72 1.23 2.08 2.22s.29 2-.19 3.03zm5.4-11.52c-.48 1.03-1.22 1.72-2.21 2.07-.98.36-1.99.3-3.02-.19-1.06-.5-1.78-1.25-2.13-2.24-.36-.99-.3-2 .18-3.03.49-1.03 1.22-1.72 2.21-2.08.99-.35 2.01-.28 3.08.22 1.03.49 1.72 1.23 2.08 2.22.35.99.29 2-.19 3.03zm158.99 187.42c-.6-2.86-2.53-5.56-5.75-5.8-.23-.02-.41-.22-.39-.45s.22-.4.45-.38c3.61.27 5.83 3.25 6.51 6.46.05.23-.1.45-.32.49-.23.05-.45-.09-.5-.32zm-14.29 0c-.05.23-.27.37-.5.32-.22-.04-.37-.26-.32-.49.68-3.21 2.9-6.19 6.51-6.46.23-.02.43.15.45.38.01.23-.16.43-.39.45-3.22.24-5.15 2.94-5.75 5.8zm-82.27 0c-.04.23-.26.37-.49.32-.22-.04-.37-.26-.32-.49.67-3.21 2.89-6.19 6.51-6.46.23-.02.43.15.44.38.02.23-.15.43-.38.45-3.22.24-5.15 2.94-5.76 5.8zm1.16 2.95c0-4.3 2.74-7.78 6.11-7.78 3.24 0 5.87 3.35 5.87 7.48v7.77h-11.98zm164.95 0c0-4.3 2.73-7.78 6.1-7.78h.01c3.24 0 5.87 3.35 5.87 7.48v7.77h-11.98zm-41.94-2.95c-.6-2.86-2.54-5.56-5.76-5.8-.23-.02-.4-.22-.38-.45.01-.23.21-.4.44-.38 3.62.27 5.84 3.25 6.51 6.46.05.23-.1.45-.32.49-.22.05-.45-.09-.49-.32zm-14.3 0c-.05.23-.27.37-.49.32-.23-.04-.37-.26-.33-.49.68-3.21 2.9-6.19 6.52-6.46.22-.02.42.15.44.38s-.15.43-.38.45c-3.23.24-5.16 2.94-5.76 5.8zm-82.11 0c-.05.23-.27.37-.5.32-.22-.04-.37-.26-.32-.49.68-3.21 2.9-6.19 6.51-6.46.23-.02.43.15.45.38.01.23-.16.43-.39.45-3.22.24-5.15 2.94-5.75 5.8zm55.67 2.95c0-4.3 2.73-7.78 6.1-7.78 3.25 0 5.87 3.35 5.87 7.48v7.77h-11.97zm-41.38-2.95c-.6-2.86-2.53-5.56-5.75-5.8-.23-.02-.41-.22-.39-.45s.22-.4.45-.38c3.61.27 5.83 3.25 6.51 6.46.05.23-.1.45-.32.49-.23.05-.45-.09-.5-.32zm137.2 0c-.61-2.86-2.54-5.56-5.76-5.8-.23-.02-.4-.22-.38-.45.01-.23.21-.4.44-.38 3.62.27 5.84 3.25 6.51 6.46.05.23-.1.45-.32.49-.23.05-.45-.09-.49-.32zm-41.99 0c-.05.23-.27.37-.49.32-.23-.04-.37-.26-.32-.49.67-3.21 2.89-6.19 6.51-6.46.23-.02.43.15.44.38.02.23-.15.43-.38.45-3.22.24-5.16 2.94-5.76 5.8zm1.16 2.95c0-4.3 2.73-7.78 6.11-7.78 3.24 0 5.87 3.35 5.87 7.48v7.77h-11.98zm374.79-54.37h8.91v16.77h-8.91zm-10.88 0h8.91v16.77h-8.91zm10.88-23.81h8.91v15.6h-8.91zm-20.18 78.18v7.47h-11.98v-7.77c0-4.13 2.63-7.48 5.87-7.48 3.37 0 6.11 3.48 6.11 7.78zm-40.24-2.95c-.05.23-.27.37-.49.32-.23-.04-.37-.26-.32-.49.67-3.21 2.89-6.19 6.51-6.46.22-.02.42.15.44.38s-.15.43-.38.45c-3.23.24-5.16 2.94-5.76 5.8zm-27.41 0c-.05.23-.27.37-.5.32-.22-.04-.36-.26-.32-.49.68-3.21 2.9-6.19 6.51-6.46.23-.02.43.15.45.38s-.16.43-.39.45c-3.22.24-5.15 2.94-5.75 5.8zm14.29 0c-.6-2.86-2.53-5.56-5.75-5.8-.23-.02-.4-.22-.39-.45.02-.23.22-.4.45-.38 3.61.27 5.83 3.25 6.51 6.46.05.23-.1.45-.32.49-.23.05-.45-.09-.5-.32zm82.27 0c-.6-2.86-2.54-5.56-5.76-5.8-.23-.02-.4-.22-.38-.45.01-.23.21-.4.44-.38 3.62.27 5.84 3.25 6.51 6.46.05.23-.09.45-.32.49-.22.05-.44-.09-.49-.32zm-1.16 2.95v7.47h-11.98v-7.77c0-4.13 2.63-7.48 5.87-7.48 3.38 0 6.11 3.48 6.11 7.78zm-164.95 0v7.47h-11.98v-7.77c0-4.13 2.63-7.48 5.88-7.48 3.37 0 6.1 3.48 6.1 7.78zm41.95-2.95c-.05.23-.27.37-.5.32-.22-.04-.37-.26-.32-.49.67-3.21 2.89-6.19 6.51-6.46.23-.02.43.15.45.38.01.23-.16.43-.39.45-3.22.24-5.15 2.94-5.75 5.8zm14.29 0c-.6-2.86-2.53-5.56-5.76-5.8-.22-.02-.4-.22-.38-.45s.22-.4.45-.38c3.61.27 5.83 3.25 6.51 6.46.04.23-.1.45-.33.49-.22.05-.44-.09-.49-.32zm82.11 0c-.6-2.86-2.53-5.56-5.75-5.8-.23-.02-.4-.22-.39-.45.02-.23.22-.4.45-.38 3.62.27 5.83 3.25 6.51 6.46.05.23-.1.45-.32.49-.23.05-.45-.09-.5-.32zm-185.79-377.88-3.98 45.77-8.35-.75 3.35-38.58-18.01-1.6-1.39 11.41c-.77 6.39-1.74 11.54-2.92 15.45-1.17 3.92-2.76 6.83-4.77 8.74-2 1.91-4.62 2.71-7.84 2.43-1.13-.1-2.65-.46-4.57-1.07l1.23-7.34c.55.23 1.19.38 1.93.44 2.65.24 4.67-1.17 6.06-4.24 1.38-3.06 2.5-7.98 3.35-14.75l2.3-18.91zm39.97 49.22-1.74 6.94-33.35-8.46 11.17-44.55 32.46 8.24-1.73 6.93-24.21-6.14-2.91 11.58 21.48 5.45-1.71 6.81-21.47-5.45-3.08 12.29zm26.62-3-7.89-3.23-7.27 17.93-7.77-3.18 17.25-42.54 7.77 3.18-7.22 17.8 8.13 3.33 19.42-12.82 8.38 3.42-22.86 14.68 6.15 28.09-8.92-3.65zm-394.11 121.29c2.19-2.1 4.5-3.3 6.91-3.62 2.42-.32 4.84.26 7.27 1.74 3.44 2.09 5.33 4.99 5.7 8.69s-.91 7.97-3.83 12.79l-11.27 18.62-39.21-23.89 10.62-17.56c2.67-4.41 5.63-7.31 8.88-8.71s6.48-1.12 9.69.84c2.06 1.25 3.53 2.83 4.42 4.73.9 1.9 1.17 4.02.82 6.37zm-13.34 17.35 5.91-9.76c1.42-2.35 2.04-4.43 1.86-6.23-.19-1.8-1.2-3.26-3.03-4.38-1.83-1.11-3.59-1.34-5.29-.69s-3.26 2.16-4.69 4.51l-5.91 9.76zm23.65-.94c3.13-5.16 2.74-8.92-1.14-11.29-3.81-2.32-7.27-.9-10.4 4.26l-6.79 11.21 11.54 7.04zm32.03-32.23c-2.93 3.58-6.37 6.17-10.31 7.77-3.93 1.6-7.96 2.08-12.07 1.44s-7.91-2.39-11.39-5.26c-3.48-2.86-5.92-6.26-7.34-10.19-1.41-3.94-1.72-8-.93-12.18.8-4.18 2.66-8.07 5.6-11.65 2.38-2.91 5.05-5.14 8.03-6.71s6.11-2.39 9.39-2.46l.52 7.56c-4.87.29-8.85 2.31-11.92 6.06-1.99 2.43-3.24 5.05-3.76 7.85-.51 2.8-.26 5.53.74 8.16 1.01 2.64 2.71 4.95 5.11 6.92s4.99 3.2 7.76 3.67c2.78.48 5.49.19 8.13-.86s4.96-2.79 6.95-5.23c3.07-3.75 4.26-8.06 3.56-12.94l7.54-.92c.57 3.24.37 6.48-.59 9.73-.97 3.25-2.64 6.33-5.02 9.24zm9.26-54.17c4.07-3.7 8.03-5.62 11.87-5.77s7.39 1.58 10.65 5.18c3.4 3.76 4.81 7.73 4.23 11.9-.59 4.17-3.05 8.22-7.38 12.15l-14.59 13.26-30.83-34.06 6.2-5.64 10.44 11.53zm14.68 18.86c2.46-2.23 3.83-4.52 4.13-6.86s-.54-4.59-2.51-6.77c-3.73-4.12-8.14-3.86-13.25.78l-8.1 7.36 11.63 12.85zm25.29-36.32-7.06 4.75 10.79 16.08-6.95 4.68-25.61-38.16 6.95-4.68 10.72 15.97 7.28-4.9.2-23.32 7.5-5.04-.58 27.22 26.68 10.61-7.98 5.37zm11.67-39.22 7.54-3.66 14.24 29.36 7.9-40.12 7.13-3.46 20.06 41.36-7.54 3.66-14.21-29.3-7.94 40.06-7.13 3.46zm52.15-23.84 8.03-2.39 9.33 31.27 14.26-38.3 7.6-2.27 13.15 44.05-8.04 2.39-9.31-31.21-14.28 38.25-7.6 2.26zm18.63-8.77c-3.76 1.12-6.83 1.19-9.2.2-2.36-.98-4.01-2.96-4.94-5.92l5.71-1.7c.5 1.53 1.36 2.58 2.57 3.13 1.22.56 2.74.56 4.58.01 1.8-.54 3.09-1.38 3.86-2.52.78-1.15.95-2.5.53-4.07l5.65-1.68c.84 2.95.52 5.5-.96 7.65-1.48 2.16-4.08 3.79-7.8 4.9zm104.58 26.75.32 7.15-34.36 1.46-2.02-45.92 33.44-1.41.32 7.15-24.93 1.05.52 11.94 22.12-.93.31 7.01-22.12.94.55 12.66z" fill="#fff" transform="matrix(1.34526288 0 0 1.34526462 -3154.651059 -5402.190652)"/></svg>