<?xml version="1.0" encoding="UTF-8" standalone="no"?>
<!DOCTYPE svg PUBLIC "-//W3C//DTD SVG 1.1//EN" "http://www.w3.org/Graphics/SVG/1.1/DTD/svg11.dtd">
<svg width="100%" height="100%" viewBox="0 0 1024 970" version="1.1" xmlns="http://www.w3.org/2000/svg" xmlns:xlink="http://www.w3.org/1999/xlink" xml:space="preserve" xmlns:serif="http://www.serif.com/" style="fill-rule:evenodd;clip-rule:evenodd;stroke-linejoin:round;stroke-miterlimit:2;">
    <g transform="matrix(1,0,0,1,-5393,-116)">
        <g transform="matrix(1.18242,0,0,0.907442,-984.254,10.5846)">
            <g transform="matrix(0.525824,0,0,1.58167,4436.6,-2593.05)">
                <g transform="matrix(1,0,0,0.433187,-265.995,-88.8877)">
                    <path d="M2909.14,4159.35C3363.63,4159.35 3732.63,4508.75 3732.63,4939.12C3732.63,5369.5 3363.63,5718.91 2909.14,5718.91C2454.64,5718.91 2085.64,5369.5 2085.64,4939.12C2085.64,4508.75 2454.64,4159.35 2909.14,4159.35ZM2909.14,4183.33C2466.48,4183.33 2107.1,4522.81 2107.1,4940.96C2107.1,5359.1 2466.48,5698.59 2909.14,5698.59C3351.79,5698.59 3711.17,5359.1 3711.17,4940.96C3711.17,4522.81 3351.79,4183.33 2909.14,4183.33Z"/>
                </g>
                <g transform="matrix(1.05041,0,0,0.43834,-444.348,-116.107)">
                    <path d="M2217.43,4883.58L2218.65,4875.94L2234.15,4878.6C2234.25,4876.87 2234.01,4875.65 2233.43,4874.93C2232.85,4874.21 2231.11,4872.96 2228.21,4871.17C2224.52,4868.92 2222.32,4866.9 2221.62,4865.14C2220.91,4863.4 2220.83,4860.76 2221.39,4857.24C2221.42,4857.06 2221.47,4856.69 2221.54,4856.12L2226.99,4857.06L2226.79,4858.13C2226.54,4859.7 2226.54,4860.87 2226.8,4861.66C2227.06,4862.44 2227.53,4863.13 2228.22,4863.7C2228.91,4864.28 2230.38,4865.21 2232.6,4866.49C2233.79,4867.18 2234.76,4867.86 2235.52,4868.54C2236.28,4869.23 2236.92,4870.32 2237.45,4871.83C2238.18,4870.21 2239.34,4868.96 2240.92,4868.09C2242.51,4867.23 2244.69,4866.35 2247.47,4865.47L2258.27,4862.02L2256.85,4870.99L2246.71,4873.89C2246.57,4873.94 2246.29,4874.04 2245.87,4874.2C2245.73,4874.26 2245.11,4874.48 2244.01,4874.86C2242.06,4875.53 2240.82,4876.15 2240.27,4876.7C2239.72,4877.25 2239.34,4878.17 2239.12,4879.45L2255.07,4882.19L2253.85,4889.82L2217.43,4883.58Z" style="fill-rule:nonzero;"/>
                </g>
                <g transform="matrix(1.05041,0,0,0.43834,-444.348,-116.107)">
                    <path d="M2222.68,4851.14L2224.14,4844.06L2248.17,4849.43L2227.29,4828.88L2228.85,4821.34L2264.94,4829.4L2263.47,4836.48L2239.91,4831.22L2260.33,4851.64L2258.76,4859.2L2222.68,4851.14Z" style="fill-rule:nonzero;"/>
                </g>
                <g transform="matrix(1.05041,0,0,0.43834,-444.348,-116.107)">
                    <path d="M2266.48,4823.55L2230.71,4814.08L2232.55,4806.59L2268.32,4816.05L2266.48,4823.55ZM2227.45,4818.45L2221.57,4816.9L2223.07,4810.79L2228.95,4812.35L2227.45,4818.45ZM2230.13,4807.56L2224.25,4806.01L2225.75,4799.88L2231.63,4801.43L2230.13,4807.56Z" style="fill-rule:nonzero;"/>
                </g>
                <g transform="matrix(1.05041,0,0,0.43834,-444.348,-116.107)">
                    <path d="M2234.18,4799.59L2238.37,4784.9C2239.2,4782 2239.94,4779.87 2240.58,4778.51C2241.22,4777.15 2242.07,4776.03 2243.13,4775.12C2244.2,4774.23 2245.45,4773.59 2246.9,4773.22C2248.34,4772.84 2249.83,4772.89 2251.36,4773.36C2253.02,4773.87 2254.4,4774.81 2255.52,4776.16C2256.64,4777.51 2257.32,4779.09 2257.56,4780.89C2258.83,4778.84 2260.39,4777.45 2262.25,4776.71C2264.1,4775.98 2266.05,4775.92 2268.1,4776.55C2269.7,4777.05 2271.16,4777.92 2272.46,4779.16C2273.76,4780.41 2274.67,4781.84 2275.2,4783.47C2275.72,4785.09 2275.8,4786.92 2275.45,4788.96C2275.23,4790.23 2274.46,4793.24 2273.14,4797.98L2269.57,4810.48L2234.18,4799.59ZM2242.18,4793.98L2250.37,4796.5L2251.76,4791.64C2252.58,4788.75 2253.05,4786.94 2253.18,4786.22C2253.39,4784.9 2253.26,4783.78 2252.76,4782.83C2252.27,4781.89 2251.45,4781.24 2250.31,4780.89C2249.22,4780.56 2248.24,4780.6 2247.38,4781.01C2246.51,4781.43 2245.83,4782.23 2245.33,4783.42C2245.04,4784.13 2244.4,4786.23 2243.4,4789.73L2242.18,4793.98ZM2256.26,4798.32L2265.72,4801.23L2267.68,4794.36C2268.45,4791.69 2268.86,4789.97 2268.92,4789.21C2269.04,4788.05 2268.83,4787.01 2268.28,4786.08C2267.73,4785.16 2266.82,4784.5 2265.57,4784.12C2264.51,4783.79 2263.53,4783.78 2262.64,4784.09C2261.74,4784.39 2260.98,4785 2260.36,4785.91C2259.73,4786.81 2258.93,4788.95 2257.97,4792.33L2256.26,4798.32Z" style="fill-rule:nonzero;"/>
                </g>
                <g transform="matrix(1.05041,0,0,0.43834,-444.348,-116.107)">
                    <path d="M2274.31,4749.15L2278.87,4742.87C2282.3,4745.34 2284.51,4748.18 2285.5,4751.38C2286.48,4754.58 2286.32,4758.11 2285,4761.99C2283.36,4766.79 2280.44,4770.15 2276.23,4772.09C2272.03,4774.02 2267.18,4773.98 2261.71,4771.97C2255.91,4769.85 2251.94,4766.64 2249.79,4762.36C2247.65,4758.08 2247.43,4753.41 2249.16,4748.35C2250.66,4743.93 2253.14,4740.8 2256.6,4738.97C2258.64,4737.87 2261.2,4737.42 2264.26,4737.62L2263.47,4745.45C2261.52,4745.22 2259.79,4745.58 2258.28,4746.56C2256.78,4747.53 2255.7,4748.98 2255.04,4750.92C2254.12,4753.6 2254.31,4756.11 2255.6,4758.46C2256.88,4760.81 2259.6,4762.74 2263.74,4764.26C2268.14,4765.88 2271.55,4766.2 2273.98,4765.24C2276.41,4764.29 2278.07,4762.49 2278.96,4759.86C2279.62,4757.93 2279.6,4756.04 2278.89,4754.21C2278.17,4752.38 2276.65,4750.69 2274.31,4749.15Z" style="fill-rule:nonzero;"/>
                </g>
                <g transform="matrix(1.05041,0,0,0.43834,-444.348,-116.107)">
                    <path d="M2257.27,4727.16L2260.14,4720.02L2273.76,4725.93L2277.6,4716.38C2279.41,4711.88 2281.74,4709.06 2284.58,4707.92C2287.43,4706.78 2290.26,4706.83 2293.1,4708.06C2295.42,4709.07 2297.15,4710.53 2298.28,4712.46C2299.42,4714.39 2299.96,4716.26 2299.91,4718.08C2299.86,4719.9 2299.24,4722.29 2298.05,4725.25L2291.32,4741.94L2257.27,4727.16ZM2288.48,4732.32L2291.28,4725.37C2292.19,4723.12 2292.71,4721.52 2292.85,4720.56C2292.99,4719.6 2292.83,4718.62 2292.36,4717.61C2291.89,4716.61 2291.12,4715.87 2290.03,4715.4C2288.47,4714.72 2287.09,4714.8 2285.89,4715.65C2284.69,4716.5 2283.53,4718.34 2282.39,4721.15L2279.47,4728.41L2288.48,4732.32Z" style="fill-rule:nonzero;"/>
                </g>
                <g transform="matrix(1.05041,0,0,0.43834,-444.348,-116.107)">
                    <path d="M2271.93,4691.36L2275.15,4684.39L2289.32,4691.45C2289.88,4689.82 2289.98,4688.57 2289.62,4687.72C2289.25,4686.86 2287.92,4685.15 2285.62,4682.59C2282.69,4679.35 2281.12,4676.78 2280.92,4674.88C2280.71,4673 2281.35,4670.45 2282.84,4667.23C2282.91,4667.07 2283.06,4666.73 2283.29,4666.2L2288.26,4668.68L2287.78,4669.66C2287.12,4671.09 2286.8,4672.22 2286.84,4673.05C2286.87,4673.88 2287.14,4674.67 2287.65,4675.43C2288.16,4676.18 2289.31,4677.5 2291.1,4679.38C2292.06,4680.38 2292.8,4681.31 2293.35,4682.19C2293.89,4683.07 2294.21,4684.31 2294.31,4685.91C2295.45,4684.56 2296.9,4683.71 2298.66,4683.33C2300.41,4682.96 2302.74,4682.76 2305.65,4682.72L2316.95,4682.56L2313.16,4690.75L2302.65,4690.59C2302.5,4690.59 2302.2,4690.61 2301.76,4690.64C2301.6,4690.65 2300.94,4690.69 2299.79,4690.73C2297.74,4690.81 2296.38,4691.03 2295.7,4691.4C2295.03,4691.77 2294.41,4692.54 2293.85,4693.71L2308.43,4700.98L2305.2,4707.95L2271.93,4691.36Z" style="fill-rule:nonzero;"/>
                </g>
                <g transform="matrix(1.05041,0,0,0.43834,-444.348,-116.107)">
                    <path d="M2285.66,4661.87L2288.98,4655.5L2310.6,4667.62L2296.08,4641.83L2299.61,4635.05L2332.09,4653.26L2328.78,4659.63L2307.58,4647.74L2321.68,4673.27L2318.14,4680.07L2285.66,4661.87Z" style="fill-rule:nonzero;"/>
                </g>
                <g transform="matrix(1.05041,0,0,0.43834,-444.348,-116.107)">
                    <path d="M2303.71,4627.66L2307.35,4621.49L2328.31,4634.8L2315.16,4608.24L2319.03,4601.67L2350.52,4621.66L2346.88,4627.84L2326.32,4614.78L2339.08,4641.06L2335.19,4647.66L2303.71,4627.66ZM2305.86,4605.74L2307.66,4602.68C2309.5,4604.1 2310.61,4605.78 2310.99,4607.73C2311.37,4609.67 2310.97,4611.63 2309.81,4613.61C2308.64,4615.59 2307.14,4616.84 2305.3,4617.38C2303.46,4617.92 2301.51,4617.65 2299.46,4616.6L2301.26,4613.54C2302.34,4614.08 2303.32,4614.2 2304.22,4613.89C2305.12,4613.59 2305.93,4612.82 2306.65,4611.6C2307.37,4610.39 2307.65,4609.29 2307.51,4608.32C2307.36,4607.35 2306.81,4606.49 2305.86,4605.74Z" style="fill-rule:nonzero;"/>
                </g>
                <g transform="matrix(1.05041,0,0,0.43834,-444.348,-116.107)">
                    <path d="M2340.39,4569.19L2355.61,4547.94L2380.26,4566.97L2382.2,4564.27L2393.63,4573.1L2389.93,4578.25L2383.47,4573.26L2369.6,4592.62L2376.07,4597.61L2372.37,4602.77L2360.93,4593.94L2362.8,4591.34C2361.18,4588.11 2358.84,4585.01 2355.78,4582.02C2352.72,4579.03 2348.64,4575.56 2343.52,4571.61L2340.39,4569.19ZM2349.59,4567.11C2358.59,4574.06 2364.55,4579.97 2367.45,4584.84L2375.82,4573.16L2356.14,4557.97L2349.59,4567.11Z" style="fill-rule:nonzero;"/>
                </g>
                <g transform="matrix(1.05041,0,0,0.43834,-444.348,-116.107)">
                    <path d="M2389.41,4565.3L2360.99,4540.85L2378.45,4518.98L2383.26,4523.11L2370.55,4539.03L2376.85,4544.45L2388.68,4529.64L2393.47,4533.76L2381.64,4548.57L2389.38,4555.23L2402.54,4538.74L2407.32,4542.86L2389.41,4565.3Z" style="fill-rule:nonzero;"/>
                </g>
                <g transform="matrix(1.05041,0,0,0.43834,-444.348,-116.107)">
                    <path d="M2410.47,4539.11L2383.23,4513.25L2391.3,4504.09C2394.36,4500.62 2396.49,4498.48 2397.69,4497.69C2399.53,4496.46 2401.61,4495.94 2403.94,4496.15C2406.27,4496.36 2408.52,4497.49 2410.69,4499.55C2412.36,4501.13 2413.49,4502.78 2414.08,4504.49C2414.66,4506.2 2414.85,4507.86 2414.65,4509.44C2414.44,4511.03 2414,4512.43 2413.33,4513.63C2412.39,4515.24 2410.78,4517.34 2408.5,4519.92L2405.22,4523.65L2415.5,4533.4L2410.47,4539.11ZM2392.87,4511.92L2400.6,4519.25L2403.35,4516.13C2405.33,4513.88 2406.52,4512.24 2406.9,4511.21C2407.28,4510.18 2407.36,4509.16 2407.13,4508.15C2406.91,4507.15 2406.39,4506.26 2405.58,4505.5C2404.59,4504.56 2403.51,4504.08 2402.33,4504.08C2401.16,4504.07 2400.08,4504.45 2399.1,4505.23C2398.38,4505.79 2397.11,4507.1 2395.3,4509.16L2392.87,4511.92Z" style="fill-rule:nonzero;"/>
                </g>
                <g transform="matrix(1.05041,0,0,0.43834,-444.348,-116.107)">
                    <path d="M2422.85,4470.25L2433.85,4481.9C2434.66,4480.93 2435.01,4479.9 2434.89,4478.83C2434.77,4477.75 2434.09,4475.72 2432.84,4472.72C2431.2,4468.8 2430.56,4465.89 2430.93,4463.98C2431.29,4462.1 2432.74,4459.86 2435.28,4457.28C2435.41,4457.16 2435.66,4456.89 2436.04,4456.48L2439.9,4460.56L2439.11,4461.33C2438.03,4462.43 2437.37,4463.37 2437.13,4464.17C2436.89,4464.96 2436.89,4465.8 2437.12,4466.69C2437.34,4467.58 2437.99,4469.22 2439.06,4471.63C2439.63,4472.9 2440.02,4474.05 2440.24,4475.07C2440.47,4476.09 2440.36,4477.36 2439.93,4478.9C2441.46,4478.05 2443.11,4477.76 2444.87,4478.03C2446.64,4478.29 2448.89,4478.92 2451.64,4479.91L2462.32,4483.76L2456.06,4490.12L2446.22,4486.27C2446.09,4486.2 2445.8,4486.11 2445.36,4486C2445.09,4485.91 2444.47,4485.7 2443.5,4485.37C2441.6,4484.74 2440.26,4484.47 2439.48,4484.55C2438.71,4484.63 2438.01,4484.99 2437.37,4485.64L2448.68,4497.62L2443.49,4502.91L2432.17,4490.92C2431.56,4491.55 2431.2,4492.26 2431.08,4493.06C2430.97,4493.86 2431.21,4495.26 2431.81,4497.26C2432.14,4498.38 2432.32,4499.04 2432.36,4499.22C2432.43,4499.52 2432.51,4499.82 2432.6,4500.11L2436.11,4510.41L2429.85,4516.77L2426.37,4505.61C2425.5,4502.85 2424.95,4500.53 2424.71,4498.64C2424.47,4496.76 2424.78,4495.02 2425.65,4493.42C2424.16,4493.84 2422.93,4493.92 2421.96,4493.68C2420.99,4493.43 2419.89,4493 2418.64,4492.39C2416.4,4491.25 2414.85,4490.55 2413.99,4490.28C2413.13,4490 2412.32,4489.98 2411.53,4490.21C2410.76,4490.44 2409.79,4491.15 2408.64,4492.32C2408.49,4492.46 2408.27,4492.7 2407.97,4493.03L2404.11,4488.94C2404.52,4488.55 2404.78,4488.3 2404.91,4488.17C2407.48,4485.55 2409.69,4484.08 2411.52,4483.75C2413.35,4483.45 2416.12,4484.18 2419.83,4485.95C2422.71,4487.31 2424.66,4488.06 2425.68,4488.21C2426.7,4488.36 2427.69,4488.02 2428.65,4487.19L2417.66,4475.54L2422.85,4470.25Z" style="fill-rule:nonzero;"/>
                </g>
                <g transform="matrix(1.05041,0,0,0.43834,-444.348,-116.107)">
                    <path d="M2489.64,4459.28L2483.52,4464.8L2475.59,4460.44L2464.46,4470.49L2467.67,4479.14L2461.7,4484.52L2448.31,4445.83L2454.25,4440.45L2489.64,4459.28ZM2469.7,4457.2L2456.87,4449.94L2462.1,4464.06L2469.7,4457.2Z" style="fill-rule:nonzero;"/>
                </g>
                <g transform="matrix(1.05041,0,0,0.43834,-444.348,-116.107)">
                    <path d="M2468.84,4427.54L2480.46,4418.1C2482.76,4416.23 2484.56,4414.94 2485.84,4414.22C2487.12,4413.5 2488.44,4413.1 2489.81,4413.01C2491.18,4412.91 2492.55,4413.15 2493.94,4413.72C2495.33,4414.28 2496.51,4415.22 2497.49,4416.52C2498.56,4417.94 2499.17,4419.53 2499.32,4421.31C2499.48,4423.08 2499.15,4424.78 2498.34,4426.39C2500.51,4425.48 2502.57,4425.29 2504.49,4425.81C2506.41,4426.33 2508.03,4427.46 2509.34,4429.2C2510.38,4430.57 2511.08,4432.16 2511.44,4433.95C2511.8,4435.75 2511.74,4437.47 2511.26,4439.11C2510.78,4440.75 2509.83,4442.29 2508.4,4443.73C2507.51,4444.64 2505.2,4446.62 2501.48,4449.69L2491.58,4457.72L2468.84,4427.54ZM2478.5,4427.8L2483.75,4434.78L2487.6,4431.65C2489.89,4429.8 2491.29,4428.61 2491.79,4428.09C2492.7,4427.15 2493.22,4426.15 2493.35,4425.08C2493.47,4424.02 2493.17,4423 2492.43,4422.02C2491.73,4421.09 2490.91,4420.53 2489.97,4420.35C2489.04,4420.17 2488.04,4420.42 2486.96,4421.09C2486.33,4421.49 2484.63,4422.82 2481.87,4425.06L2478.5,4427.8ZM2487.54,4439.8L2493.62,4447.87L2499.05,4443.46C2501.17,4441.74 2502.47,4440.59 2502.94,4440.01C2503.69,4439.13 2504.1,4438.15 2504.17,4437.07C2504.23,4435.99 2503.86,4434.91 2503.06,4433.84C2502.38,4432.93 2501.59,4432.34 2500.69,4432.05C2499.79,4431.76 2498.83,4431.8 2497.81,4432.16C2496.8,4432.52 2494.95,4433.78 2492.28,4435.95L2487.54,4439.8Z" style="fill-rule:nonzero;"/>
                </g>
                <g transform="matrix(1.05041,0,0,0.43834,-444.348,-116.107)">
                    <path d="M2519.79,4435.01L2498.54,4403.67L2504.64,4399.22L2513,4411.55L2524.94,4402.83L2516.58,4390.5L2522.68,4386.04L2543.92,4417.38L2537.83,4421.83L2528.54,4408.13L2516.59,4416.86L2525.88,4430.56L2519.79,4435.01Z" style="fill-rule:nonzero;"/>
                </g>
                <g transform="matrix(1.05041,0,0,0.43834,-444.348,-116.107)">
                    <path d="M2529.52,4381.32L2535.42,4377.46L2548.51,4399.05L2548.08,4369.19L2554.37,4365.08L2574.03,4397.51L2568.12,4401.37L2555.29,4380.2L2555.49,4409.63L2549.18,4413.75L2529.52,4381.32Z" style="fill-rule:nonzero;"/>
                </g>
                <g transform="matrix(1.05041,0,0,0.43834,-444.348,-116.107)">
                    <path d="M2561.26,4360.83L2567.35,4357.29L2579.36,4379.54L2580.39,4349.7L2586.87,4345.93L2604.92,4379.35L2598.84,4382.89L2587.05,4361.07L2585.81,4390.47L2579.31,4394.26L2561.26,4360.83ZM2573.46,4342.8L2576.47,4341.04C2577.41,4343.21 2577.59,4345.24 2577,4347.13C2576.41,4349.02 2575.15,4350.53 2573.2,4351.67C2571.25,4352.8 2569.35,4353.13 2567.49,4352.67C2565.63,4352.2 2564.06,4350.98 2562.76,4349.02L2565.77,4347.27C2566.46,4348.29 2567.27,4348.89 2568.2,4349.08C2569.12,4349.27 2570.19,4349.01 2571.39,4348.32C2572.59,4347.62 2573.36,4346.81 2573.69,4345.89C2574.02,4344.96 2573.94,4343.93 2573.46,4342.8Z" style="fill-rule:nonzero;"/>
                </g>
                <g transform="matrix(1.05041,0,0,0.43834,-444.348,-116.107)">
                    <path d="M2605.96,4335.73L2612.7,4332.41L2619.44,4347.14C2620.87,4346.24 2621.7,4345.34 2621.93,4344.44C2622.17,4343.53 2622.17,4341.33 2621.93,4337.84C2621.61,4333.41 2621.94,4330.39 2622.94,4328.78C2623.91,4327.18 2625.96,4325.61 2629.07,4324.08C2629.22,4324 2629.54,4323.84 2630.03,4323.57L2632.4,4328.74L2631.43,4329.19C2630.05,4329.87 2629.12,4330.55 2628.65,4331.21C2628.18,4331.88 2627.91,4332.67 2627.84,4333.59C2627.78,4334.51 2627.88,4336.29 2628.13,4338.92C2628.27,4340.32 2628.28,4341.53 2628.18,4342.57C2628.07,4343.61 2627.57,4344.78 2626.68,4346.09C2628.38,4345.79 2630.03,4346.07 2631.62,4346.93C2633.2,4347.78 2635.14,4349.14 2637.43,4351L2646.32,4358.25L2638.4,4362.15L2630.33,4355.17C2630.21,4355.07 2629.97,4354.89 2629.61,4354.63C2629.47,4354.54 2628.94,4354.14 2628.02,4353.41C2626.38,4352.14 2625.18,4351.43 2624.43,4351.27C2623.69,4351.12 2622.74,4351.32 2621.6,4351.86L2628.53,4367.02L2621.8,4370.34L2605.96,4335.73Z" style="fill-rule:nonzero;"/>
                </g>
                <g transform="matrix(1.05041,0,0,0.43834,-444.348,-116.107)">
                    <path d="M2640.28,4340.22C2638.82,4336.62 2638.12,4333.37 2638.17,4330.48C2638.22,4328.34 2638.62,4326.27 2639.39,4324.26C2640.15,4322.24 2641.19,4320.54 2642.5,4319.16C2644.25,4317.3 2646.51,4315.77 2649.28,4314.57C2654.29,4312.39 2658.96,4312.25 2663.27,4314.17C2667.59,4316.1 2670.91,4319.93 2673.23,4325.69C2675.53,4331.39 2675.84,4336.5 2674.16,4341.03C2672.47,4345.55 2669.12,4348.9 2664.12,4351.07C2659.06,4353.27 2654.39,4353.42 2650.11,4351.52C2645.82,4349.61 2642.55,4345.85 2640.28,4340.22ZM2647.26,4336.9C2648.88,4340.9 2650.99,4343.55 2653.61,4344.84C2656.22,4346.13 2658.9,4346.18 2661.64,4344.98C2664.38,4343.79 2666.21,4341.79 2667.14,4338.98C2668.07,4336.16 2667.71,4332.71 2666.06,4328.61C2664.42,4324.56 2662.35,4321.91 2659.83,4320.66C2657.32,4319.41 2654.64,4319.4 2651.81,4320.64C2648.97,4321.87 2647.1,4323.87 2646.18,4326.64C2645.26,4329.41 2645.62,4332.83 2647.26,4336.9Z" style="fill-rule:nonzero;"/>
                </g>
                <g transform="matrix(1.05041,0,0,0.43834,-444.348,-116.107)">
                    <path d="M2673.01,4305.36L2697.31,4296.18L2709.93,4332.19L2702.93,4334.83L2692.44,4304.92L2682.01,4308.86L2687.4,4324.23C2688.94,4328.64 2689.88,4331.77 2690.2,4333.62C2690.53,4335.47 2690.32,4337.09 2689.56,4338.48C2688.81,4339.87 2687.26,4341 2684.93,4341.88C2684.11,4342.19 2682.59,4342.67 2680.37,4343.33L2678.4,4337.7L2679.97,4337.14C2681.44,4336.58 2682.35,4336.01 2682.71,4335.4C2683.07,4334.81 2682.97,4333.7 2682.41,4332.1L2680.22,4325.92L2673.01,4305.36Z" style="fill-rule:nonzero;"/>
                </g>
                <g transform="matrix(1.05041,0,0,0.43834,-444.348,-116.107)">
                    <path d="M2715.82,4330.19L2704.98,4293.56L2731.15,4285.22L2732.98,4291.41L2713.94,4297.48L2716.34,4305.6L2734.06,4299.96L2735.89,4306.13L2718.17,4311.77L2721.12,4321.74L2740.83,4315.46L2742.66,4321.63L2715.82,4330.19Z" style="fill-rule:nonzero;"/>
                </g>
                <g transform="matrix(1.05041,0,0,0.43834,-444.348,-116.107)">
                    <path d="M2740.89,4282.43L2765.59,4275.83L2773.24,4306.72L2776.39,4305.88L2779.94,4320.2L2773.94,4321.81L2771.93,4313.7L2749.43,4319.71L2751.43,4327.81L2745.43,4329.41L2741.88,4315.09L2744.91,4314.28C2745.6,4310.71 2745.66,4306.77 2745.1,4302.45C2744.53,4298.13 2743.45,4292.76 2741.86,4286.35L2740.89,4282.43ZM2749.31,4286.82C2752.1,4298.09 2753.16,4306.57 2752.47,4312.26L2766.05,4308.64L2759.94,4283.98L2749.31,4286.82Z" style="fill-rule:nonzero;"/>
                </g>
                <g transform="matrix(1.05041,0,0,0.43834,-444.348,-116.107)">
                    <path d="M2796.93,4269.02L2799.97,4285.02C2801.16,4284.67 2802,4284.01 2802.47,4283.05C2802.93,4282.08 2803.43,4279.99 2803.97,4276.77C2804.68,4272.56 2805.69,4269.76 2807,4268.38C2808.3,4267.01 2810.69,4265.97 2814.19,4265.26C2814.35,4265.22 2814.7,4265.14 2815.24,4265.02L2816.31,4270.63L2815.24,4270.82C2813.76,4271.13 2812.71,4271.54 2812.09,4272.07C2811.47,4272.59 2811.02,4273.29 2810.74,4274.16C2810.46,4275.04 2810.13,4276.78 2809.76,4279.4C2809.56,4280.79 2809.28,4281.98 2808.93,4282.95C2808.57,4283.93 2807.81,4284.94 2806.64,4285.98C2808.36,4286.14 2809.89,4286.84 2811.23,4288.06C2812.57,4289.29 2814.12,4291.1 2815.89,4293.49L2822.78,4302.8L2814.18,4304.55L2807.99,4295.72C2807.92,4295.59 2807.73,4295.35 2807.43,4295.01C2807.24,4294.78 2806.84,4294.25 2806.2,4293.42C2804.94,4291.81 2803.96,4290.82 2803.28,4290.45C2802.59,4290.07 2801.81,4289.97 2800.94,4290.15L2804.05,4306.62L2796.91,4308.07L2793.8,4291.61C2792.96,4291.78 2792.28,4292.17 2791.76,4292.77C2791.24,4293.37 2790.7,4294.68 2790.14,4296.69C2789.82,4297.82 2789.63,4298.48 2789.56,4298.65C2789.46,4298.94 2789.37,4299.23 2789.29,4299.53L2786.78,4310.14L2778.19,4311.89L2781.18,4300.57C2781.91,4297.78 2782.68,4295.52 2783.47,4293.81C2784.27,4292.09 2785.45,4290.82 2787.02,4289.98C2785.56,4289.48 2784.49,4288.85 2783.8,4288.09C2783.12,4287.34 2782.42,4286.35 2781.71,4285.12C2780.44,4282.9 2779.51,4281.43 2778.94,4280.71C2778.37,4279.99 2777.7,4279.51 2776.92,4279.25C2776.15,4279 2774.97,4279.04 2773.39,4279.36C2773.19,4279.4 2772.88,4279.48 2772.45,4279.58L2771.39,4273.96C2771.94,4273.87 2772.29,4273.81 2772.46,4273.77C2776,4273.05 2778.62,4273.07 2780.32,4273.85C2782.01,4274.64 2783.94,4276.83 2786.11,4280.42C2787.8,4283.2 2789.03,4284.94 2789.81,4285.64C2790.58,4286.35 2791.59,4286.62 2792.83,4286.48L2789.8,4270.47L2796.93,4269.02Z" style="fill-rule:nonzero;"/>
                </g>
                <g transform="matrix(1.05041,0,0,0.43834,-444.348,-116.107)">
                    <path d="M2846.48,4299.56L2842.7,4267.97L2831.84,4269.37L2831.07,4262.94L2860.18,4259.19L2860.95,4265.62L2850.1,4267.02L2853.88,4298.61L2846.48,4299.56Z" style="fill-rule:nonzero;"/>
                </g>
                <g transform="matrix(1.05041,0,0,0.43834,-444.348,-116.107)">
                    <path d="M2861.24,4259.04L2869.54,4258.34L2879.68,4277.44L2885.45,4256.99L2893.21,4256.33L2883.07,4286.41C2881.96,4289.66 2880.77,4292.17 2879.49,4293.94C2878.22,4295.69 2876.47,4296.67 2874.24,4296.86C2872.05,4297.04 2870.32,4297.04 2869.06,4296.85L2868.61,4291.12C2869.67,4291.1 2870.62,4291.05 2871.48,4290.98C2873.2,4290.84 2874.41,4290.4 2875.1,4289.69C2875.8,4288.98 2876.4,4287.51 2876.92,4285.3L2861.24,4259.04Z" style="fill-rule:nonzero;"/>
                </g>
                <g transform="matrix(1.05041,0,0,0.43834,-444.348,-116.107)">
                    <path d="M2898.46,4294.43L2897.11,4256.14L2909.06,4255.68C2913.59,4255.51 2916.55,4255.59 2917.94,4255.92C2920.07,4256.42 2921.89,4257.6 2923.38,4259.47C2924.87,4261.34 2925.67,4263.8 2925.78,4266.84C2925.87,4269.19 2925.52,4271.19 2924.76,4272.82C2923.99,4274.45 2922.99,4275.75 2921.76,4276.71C2920.53,4277.68 2919.26,4278.33 2917.96,4278.68C2916.2,4279.11 2913.63,4279.39 2910.26,4279.52L2905.4,4279.7L2905.91,4294.15L2898.46,4294.43ZM2904.78,4262.33L2905.17,4273.2L2909.24,4273.04C2912.18,4272.93 2914.14,4272.66 2915.11,4272.22C2916.09,4271.78 2916.84,4271.12 2917.37,4270.25C2917.91,4269.38 2918.15,4268.37 2918.11,4267.24C2918.06,4265.85 2917.63,4264.71 2916.81,4263.84C2915.99,4262.96 2914.97,4262.43 2913.75,4262.25C2912.86,4262.11 2911.07,4262.09 2908.38,4262.2L2904.78,4262.33Z" style="fill-rule:nonzero;"/>
                </g>
                <g transform="matrix(1.05041,0,0,0.43834,-444.348,-116.107)">
                    <path d="M2931.68,4254.96L2938.66,4255.03L2938.43,4280.54L2953.61,4255.17L2961.04,4255.24L2960.7,4293.56L2953.73,4293.49L2953.95,4268.48L2938.8,4293.35L2931.34,4293.28L2931.68,4254.96Z" style="fill-rule:nonzero;"/>
                </g>
                <g transform="matrix(1.05041,0,0,0.43834,-444.348,-116.107)">
                    <path d="M2973.5,4266.3L2966.35,4264.15C2968.23,4258 2972.83,4255.14 2980.13,4255.54C2984.46,4255.78 2987.67,4256.95 2989.77,4259.05C2991.88,4261.15 2992.86,4263.53 2992.72,4266.19C2992.63,4268.02 2992.04,4269.64 2990.96,4271.05C2989.87,4272.47 2988.3,4273.67 2986.23,4274.68C2988.63,4275.68 2990.4,4277.02 2991.55,4278.68C2992.69,4280.34 2993.2,4282.33 2993.08,4284.66C2992.9,4288.02 2991.58,4290.67 2989.1,4292.61C2986.62,4294.55 2983.02,4295.39 2978.29,4295.12C2974.43,4294.91 2971.43,4294.07 2969.26,4292.62C2967.1,4291.16 2965.56,4288.57 2964.62,4284.86L2971.56,4282.91C2972.14,4285.25 2973,4286.79 2974.13,4287.53C2975.26,4288.28 2976.68,4288.7 2978.39,4288.79C2980.74,4288.92 2982.47,4288.49 2983.6,4287.5C2984.73,4286.51 2985.33,4285.33 2985.4,4283.97C2985.48,4282.41 2984.93,4281.11 2983.77,4280.09C2982.6,4279.06 2980.8,4278.48 2978.35,4278.35L2976.66,4278.25L2976.96,4272.48L2977.82,4272.53C2980.1,4272.66 2981.87,4272.23 2983.13,4271.23C2984.39,4270.24 2985.07,4268.86 2985.16,4267.1C2985.23,4265.71 2984.8,4264.51 2983.87,4263.5C2982.94,4262.49 2981.56,4261.93 2979.73,4261.83C2976.62,4261.65 2974.54,4263.14 2973.5,4266.3Z" style="fill-rule:nonzero;"/>
                </g>
                <g transform="matrix(1.05041,0,0,0.43834,-444.348,-116.107)">
                    <path d="M2997.39,4295.56L3001.25,4257.45L3012.34,4258.67L3016.37,4285.39L3025.59,4260.11L3036.7,4261.33L3032.84,4299.43L3025.96,4298.68L3029,4268.68L3018.67,4297.89L3011.53,4297.11L3007.31,4266.32L3004.27,4296.31L2997.39,4295.56Z" style="fill-rule:nonzero;"/>
                </g>
                <g transform="matrix(1.05041,0,0,0.43834,-444.348,-116.107)">
                    <path d="M3040.64,4261.9L3048.87,4263.24L3054.42,4284.27L3064.64,4265.8L3072.33,4267.05L3055.68,4293.82C3053.87,4296.72 3052.15,4298.86 3050.51,4300.27C3048.87,4301.67 3046.95,4302.19 3044.74,4301.83C3042.57,4301.48 3040.89,4301.06 3039.71,4300.56L3040.56,4294.88C3041.6,4295.12 3042.54,4295.31 3043.38,4295.45C3045.09,4295.72 3046.36,4295.6 3047.2,4295.07C3048.03,4294.55 3048.95,4293.27 3049.95,4291.25L3040.64,4261.9Z" style="fill-rule:nonzero;"/>
                </g>
                <g transform="matrix(1.05041,0,0,0.43834,-444.348,-116.107)">
                    <path d="M3089.5,4309.75L3096.06,4278.65L3085.37,4276.22L3086.7,4269.89L3115.36,4276.4L3114.02,4282.73L3103.35,4280.31L3096.78,4311.41L3089.5,4309.75Z" style="fill-rule:nonzero;"/>
                </g>
                <g transform="matrix(1.05041,0,0,0.43834,-444.348,-116.107)">
                    <path d="M3139.6,4322.61L3131.76,4320.47L3130.78,4311.2L3116.51,4307.3L3111.43,4314.91L3103.78,4312.83L3127.07,4279.57L3134.7,4281.65L3139.6,4322.61ZM3130.05,4304.32L3128.61,4289.23L3120.31,4301.66L3130.05,4304.32Z" style="fill-rule:nonzero;"/>
                </g>
                <g transform="matrix(1.05041,0,0,0.43834,-444.348,-116.107)">
                    <path d="M3166.25,4291.11L3189.96,4299.36L3187.99,4305.45L3171.35,4299.67L3161.59,4329.9L3154.53,4327.45L3166.25,4291.11Z" style="fill-rule:nonzero;"/>
                </g>
                <g transform="matrix(1.05041,0,0,0.43834,-444.348,-116.107)">
                    <path d="M3184.86,4317.93C3186.21,4314.29 3187.87,4311.44 3189.83,4309.38C3191.29,4307.87 3192.96,4306.67 3194.86,4305.76C3196.75,4304.85 3198.63,4304.37 3200.5,4304.31C3203,4304.22 3205.65,4304.74 3208.45,4305.86C3213.53,4307.88 3216.99,4311.13 3218.83,4315.62C3220.66,4320.1 3220.51,4325.26 3218.35,4331.08C3216.22,4336.86 3213.03,4340.77 3208.8,4342.83C3204.57,4344.89 3199.93,4344.9 3194.87,4342.89C3189.74,4340.85 3186.27,4337.6 3184.44,4333.15C3182.62,4328.7 3182.76,4323.62 3184.86,4317.93ZM3192.12,4320.54C3190.63,4324.6 3190.39,4328.02 3191.42,4330.83C3192.45,4333.64 3194.35,4335.6 3197.12,4336.7C3199.9,4337.81 3202.56,4337.68 3205.1,4336.31C3207.65,4334.95 3209.69,4332.19 3211.22,4328.04C3212.74,4323.94 3213.01,4320.54 3212.02,4317.83C3211.03,4315.13 3209.11,4313.2 3206.24,4312.06C3203.37,4310.92 3200.68,4311.02 3198.17,4312.36C3195.66,4313.7 3193.65,4316.43 3192.12,4320.54Z" style="fill-rule:nonzero;"/>
                </g>
                <g transform="matrix(1.05041,0,0,0.43834,-444.348,-116.107)">
                    <path d="M3223.28,4354.24L3235.66,4325.11L3225.64,4320.52L3228.15,4314.59L3254.99,4326.88L3252.47,4332.81L3242.48,4328.23L3230.1,4357.36L3223.28,4354.24Z" style="fill-rule:nonzero;"/>
                </g>
                <g transform="matrix(1.05041,0,0,0.43834,-444.348,-116.107)">
                    <path d="M3243,4363.36L3259.41,4329.04L3283.93,4341.67L3281.15,4347.48L3263.31,4338.29L3259.67,4345.9L3276.27,4354.45L3273.51,4360.23L3256.91,4351.68L3252.44,4361.02L3270.91,4370.54L3268.14,4376.32L3243,4363.36Z" style="fill-rule:nonzero;"/>
                </g>
                <g transform="matrix(1.05041,0,0,0.43834,-444.348,-116.107)">
                    <path d="M3292.61,4346.49L3315.23,4359.5L3297.33,4393.02L3290.82,4389.27L3305.68,4361.42L3295.97,4355.83L3288.33,4370.15C3286.14,4374.24 3284.48,4377.03 3283.35,4378.5C3282.22,4379.97 3280.9,4380.87 3279.4,4381.19C3277.89,4381.51 3276.05,4381.04 3273.88,4379.79C3273.12,4379.35 3271.77,4378.48 3269.84,4377.17L3272.63,4371.93L3274.08,4372.79C3275.44,4373.58 3276.46,4373.92 3277.13,4373.81C3277.81,4373.69 3278.54,4372.89 3279.34,4371.4L3282.39,4365.62L3292.61,4346.49Z" style="fill-rule:nonzero;"/>
                </g>
                <g transform="matrix(1.05041,0,0,0.43834,-444.348,-116.107)">
                    <path d="M3322.38,4363.89L3328.7,4368L3320.86,4380.98L3329.31,4386.47C3333.29,4389.07 3335.59,4391.91 3336.21,4395C3336.83,4398.1 3336.32,4401 3334.69,4403.7C3333.36,4405.91 3331.68,4407.45 3329.66,4408.29C3327.64,4409.14 3325.78,4409.39 3324.05,4409.04C3322.33,4408.69 3320.16,4407.67 3317.55,4405.97L3302.78,4396.36L3322.38,4363.89ZM3312.39,4395.02L3318.53,4399.02C3320.52,4400.31 3321.96,4401.11 3322.85,4401.41C3323.74,4401.71 3324.7,4401.7 3325.73,4401.39C3326.76,4401.07 3327.59,4400.4 3328.22,4399.36C3329.12,4397.87 3329.26,4396.44 3328.65,4395.08C3328.03,4393.72 3326.48,4392.22 3323.99,4390.6L3317.57,4386.43L3312.39,4395.02Z" style="fill-rule:nonzero;"/>
                </g>
                <g transform="matrix(1.05041,0,0,0.43834,-444.348,-116.107)">
                    <path d="M3332.69,4415.97L3353.82,4384.56L3359.93,4388.99L3351.61,4401.35L3363.59,4410.03L3371.91,4397.67L3378.02,4402.1L3356.88,4433.51L3350.77,4429.08L3360.01,4415.35L3348.04,4406.67L3338.8,4420.4L3332.69,4415.97Z" style="fill-rule:nonzero;"/>
                </g>
                <g transform="matrix(1.05041,0,0,0.43834,-444.348,-116.107)">
                    <path d="M3371.9,4421.4C3374.21,4418.32 3376.6,4416.1 3379.06,4414.74C3380.88,4413.73 3382.82,4413.09 3384.88,4412.79C3386.95,4412.5 3388.88,4412.61 3390.69,4413.13C3393.1,4413.8 3395.49,4415.1 3397.86,4417.02C3402.14,4420.49 3404.53,4424.66 3405.03,4429.5C3405.52,4434.35 3403.92,4439.23 3400.22,4444.15C3396.55,4449.02 3392.4,4451.8 3387.77,4452.48C3383.15,4453.16 3378.7,4451.77 3374.43,4448.3C3370.1,4444.79 3367.7,4440.63 3367.2,4435.82C3366.72,4431.01 3368.28,4426.21 3371.9,4421.4ZM3378.1,4426.1C3375.53,4429.52 3374.34,4432.73 3374.53,4435.73C3374.72,4438.73 3375.99,4441.18 3378.33,4443.07C3380.67,4444.98 3383.25,4445.66 3386.07,4445.13C3388.89,4444.59 3391.62,4442.58 3394.25,4439.08C3396.86,4435.62 3398.07,4432.44 3397.89,4429.55C3397.71,4426.67 3396.41,4424.24 3393.99,4422.28C3391.57,4420.31 3388.97,4419.59 3386.19,4420.11C3383.41,4420.63 3380.72,4422.63 3378.1,4426.1Z" style="fill-rule:nonzero;"/>
                </g>
                <g transform="matrix(1.05041,0,0,0.43834,-444.348,-116.107)">
                    <path d="M3416.54,4433.4L3435.43,4450.4L3431.37,4455.26L3418.11,4443.33L3397.99,4467.43L3392.36,4462.36L3416.54,4433.4Z" style="fill-rule:nonzero;"/>
                </g>
                <g transform="matrix(1.05041,0,0,0.43834,-444.348,-116.107)">
                    <path d="M3423.98,4465.63C3426.57,4462.8 3429.15,4460.82 3431.72,4459.7C3433.62,4458.88 3435.61,4458.43 3437.69,4458.34C3439.78,4458.25 3441.69,4458.56 3443.44,4459.25C3445.78,4460.15 3448.04,4461.68 3450.22,4463.83C3454.17,4467.71 3456.17,4472.09 3456.22,4476.96C3456.26,4481.84 3454.22,4486.54 3450.09,4491.07C3445.99,4495.56 3441.61,4497.91 3436.94,4498.13C3432.27,4498.36 3427.97,4496.53 3424.04,4492.66C3420.05,4488.74 3418.04,4484.36 3417.99,4479.52C3417.94,4474.69 3419.94,4470.06 3423.98,4465.63ZM3429.73,4470.92C3426.85,4474.07 3425.37,4477.15 3425.29,4480.15C3425.21,4483.16 3426.24,4485.72 3428.4,4487.84C3430.56,4489.96 3433.06,4490.9 3435.92,4490.65C3438.77,4490.39 3441.67,4488.65 3444.62,4485.43C3447.53,4482.24 3449.03,4479.2 3449.11,4476.31C3449.2,4473.42 3448.12,4470.88 3445.89,4468.68C3443.66,4466.49 3441.14,4465.51 3438.33,4465.76C3435.52,4466 3432.65,4467.72 3429.73,4470.92Z" style="fill-rule:nonzero;"/>
                </g>
                <g transform="matrix(1.05041,0,0,0.43834,-444.348,-116.107)">
                    <path d="M3476.69,4492.04L3493.59,4511.16L3489.02,4515.51L3477.16,4502.08L3454.52,4523.64L3449.48,4517.94L3476.69,4492.04Z" style="fill-rule:nonzero;"/>
                </g>
                <g transform="matrix(1.05041,0,0,0.43834,-444.348,-116.107)">
                    <path d="M3480.6,4525C3483.48,4522.5 3486.26,4520.84 3488.94,4520.04C3490.92,4519.45 3492.95,4519.24 3495.03,4519.4C3497.11,4519.56 3498.98,4520.09 3500.64,4520.98C3502.86,4522.17 3504.94,4523.95 3506.87,4526.34C3510.36,4530.67 3511.86,4535.26 3511.37,4540.11C3510.88,4544.95 3508.33,4549.38 3503.72,4553.39C3499.15,4557.36 3494.53,4559.17 3489.87,4558.84C3485.21,4558.5 3481.14,4556.18 3477.66,4551.86C3474.14,4547.49 3472.62,4542.9 3473.11,4538.09C3473.6,4533.28 3476.09,4528.92 3480.6,4525ZM3485.72,4530.95C3482.52,4533.73 3480.71,4536.61 3480.29,4539.59C3479.88,4542.56 3480.62,4545.23 3482.53,4547.6C3484.44,4549.96 3486.82,4551.19 3489.69,4551.28C3492.55,4551.37 3495.62,4549.99 3498.91,4547.14C3502.15,4544.32 3503.97,4541.48 3504.38,4538.61C3504.79,4535.75 3504,4533.09 3502.03,4530.65C3500.06,4528.2 3497.66,4526.94 3494.84,4526.84C3492.02,4526.75 3488.98,4528.12 3485.72,4530.95Z" style="fill-rule:nonzero;"/>
                </g>
                <g transform="matrix(1.05041,0,0,0.43834,-444.348,-116.107)">
                    <path d="M3517.21,4580.38L3519.7,4587.82C3515.81,4589.4 3512.31,4589.73 3509.2,4588.8C3506.09,4587.88 3503.35,4585.77 3500.98,4582.47C3498.04,4578.4 3496.97,4574.01 3497.76,4569.3C3498.55,4564.6 3501.28,4560.44 3505.93,4556.83C3510.85,4553.01 3515.62,4551.36 3520.24,4551.89C3524.86,4552.41 3528.72,4554.82 3531.82,4559.12C3534.52,4562.87 3535.65,4566.75 3535.2,4570.75C3534.94,4573.13 3533.88,4575.59 3532.02,4578.12L3526.19,4573.08C3527.46,4571.53 3528.12,4569.83 3528.18,4567.99C3528.24,4566.15 3527.68,4564.41 3526.49,4562.76C3524.85,4560.49 3522.74,4559.26 3520.14,4559.06C3517.55,4558.86 3514.49,4560.13 3510.97,4562.87C3507.23,4565.77 3505.07,4568.53 3504.49,4571.16C3503.91,4573.79 3504.43,4576.22 3506.03,4578.45C3507.22,4580.1 3508.74,4581.12 3510.61,4581.52C3512.47,4581.93 3514.67,4581.55 3517.21,4580.38Z" style="fill-rule:nonzero;"/>
                </g>
                <g transform="matrix(1.05041,0,0,0.43834,-444.348,-116.107)">
                    <path d="M3544.17,4577.73L3560.47,4603.08L3529.77,4624.36L3525.64,4617.92L3551.18,4600.22L3543.16,4587.74L3517.61,4605.45L3513.47,4599.01L3544.17,4577.73Z" style="fill-rule:nonzero;"/>
                </g>
                <g transform="matrix(1.05041,0,0,0.43834,-444.348,-116.107)">
                    <path d="M3547.98,4618.7C3551.22,4616.72 3554.22,4615.56 3556.99,4615.22C3559.04,4614.98 3561.07,4615.12 3563.1,4615.63C3565.12,4616.14 3566.89,4616.98 3568.38,4618.14C3570.39,4619.69 3572.16,4621.8 3573.68,4624.49C3576.45,4629.35 3577.2,4634.13 3575.95,4638.83C3574.7,4643.53 3571.49,4647.46 3566.32,4650.63C3561.18,4653.77 3556.34,4654.78 3551.8,4653.66C3547.25,4652.54 3543.61,4649.55 3540.85,4644.7C3538.06,4639.79 3537.29,4635.01 3538.53,4630.35C3539.77,4625.68 3542.92,4621.8 3547.98,4618.7ZM3552.1,4625.44C3548.5,4627.64 3546.26,4630.18 3545.38,4633.04C3544.5,4635.9 3544.82,4638.66 3546.33,4641.32C3547.84,4643.98 3549.99,4645.59 3552.81,4646.17C3555.62,4646.74 3558.87,4645.9 3562.55,4643.65C3566.2,4641.42 3568.45,4638.93 3569.3,4636.17C3570.15,4633.41 3569.79,4630.66 3568.23,4627.91C3566.67,4625.17 3564.51,4623.51 3561.74,4622.94C3558.97,4622.37 3555.76,4623.2 3552.1,4625.44Z" style="fill-rule:nonzero;"/>
                </g>
                <g transform="matrix(1.05041,0,0,0.43834,-444.348,-116.107)">
                    <path d="M3586.24,4648.73L3597.99,4672.23L3570.72,4686.92L3572.22,4689.91L3559.57,4696.73L3556.72,4691.02L3563.87,4687.17L3553.16,4665.76L3546.01,4669.61L3543.16,4663.9L3555.81,4657.09L3557.24,4659.97C3560.75,4659.86 3564.46,4659.04 3568.39,4657.49C3572.32,4655.94 3577.11,4653.65 3582.77,4650.6L3586.24,4648.73ZM3584.01,4658.23C3574.06,4663.6 3566.33,4666.57 3560.84,4667.16L3567.3,4680.08L3589.07,4668.35L3584.01,4658.23Z" style="fill-rule:nonzero;"/>
                </g>
                <g transform="matrix(1.05041,0,0,0.43834,-444.348,-116.107)">
                    <path d="M3581.84,4727.65L3578.51,4719.98L3584.83,4713.35L3578.76,4699.39L3569.87,4700.08L3566.62,4692.6L3606.18,4690.45L3609.41,4697.91L3581.84,4727.65ZM3589.51,4708.43L3599.91,4697.77L3585.37,4698.9L3589.51,4708.43Z" style="fill-rule:nonzero;"/>
                </g>
                <g transform="matrix(1.05041,0,0,0.43834,-444.348,-116.107)">
                    <path d="M3582.68,4730.06L3617.11,4716.22L3621.43,4727.8C3623.06,4732.19 3623.96,4735.11 3624.11,4736.59C3624.36,4738.84 3623.87,4741.01 3622.66,4743.08C3621.44,4745.16 3619.47,4746.75 3616.73,4747.85C3614.61,4748.7 3612.69,4749.02 3610.95,4748.8C3609.21,4748.58 3607.71,4748.02 3606.43,4747.13C3605.15,4746.23 3604.14,4745.2 3603.4,4744.04C3602.43,4742.45 3601.33,4740.02 3600.12,4736.76L3598.36,4732.05L3585.38,4737.27L3582.68,4730.06ZM3613.97,4725.78L3604.21,4729.7L3605.68,4733.65C3606.74,4736.49 3607.63,4738.32 3608.35,4739.14C3609.07,4739.95 3609.91,4740.48 3610.88,4740.71C3611.85,4740.95 3612.84,4740.86 3613.86,4740.45C3615.11,4739.95 3616,4739.15 3616.53,4738.06C3617.06,4736.97 3617.21,4735.8 3616.98,4734.55C3616.81,4733.62 3616.24,4731.86 3615.28,4729.26L3613.97,4725.78Z" style="fill-rule:nonzero;"/>
                </g>
                <g transform="matrix(1.05041,0,0,0.43834,-444.348,-116.107)">
                    <path d="M3614.32,4779.46L3614.41,4787.33C3610.24,4787.55 3606.82,4786.71 3604.15,4784.81C3601.49,4782.91 3599.53,4780.01 3598.29,4776.1C3596.75,4771.27 3597.07,4766.76 3599.26,4762.55C3601.45,4758.35 3605.3,4755.3 3610.81,4753.41C3616.64,4751.41 3621.67,4751.41 3625.9,4753.43C3630.12,4755.45 3633.04,4759.01 3634.67,4764.1C3636.09,4768.55 3635.97,4772.6 3634.32,4776.25C3633.35,4778.42 3631.6,4780.4 3629.06,4782.19L3625.07,4775.49C3626.74,4774.44 3627.89,4773.05 3628.51,4771.32C3629.13,4769.6 3629.12,4767.76 3628.5,4765.81C3627.64,4763.11 3626.01,4761.24 3623.61,4760.2C3621.21,4759.17 3617.93,4759.36 3613.75,4760.8C3609.32,4762.32 3606.43,4764.23 3605.08,4766.53C3603.72,4768.83 3603.47,4771.31 3604.31,4773.95C3604.93,4775.9 3606.07,4777.38 3607.71,4778.37C3609.35,4779.37 3611.56,4779.73 3614.32,4779.46Z" style="fill-rule:nonzero;"/>
                </g>
                <g transform="matrix(1.05041,0,0,0.43834,-444.348,-116.107)">
                    <path d="M3606.86,4802.89L3636.41,4794.39L3633.49,4783.43L3639.51,4781.7L3647.34,4811.05L3641.32,4812.78L3638.41,4801.85L3608.85,4810.35L3606.86,4802.89Z" style="fill-rule:nonzero;"/>
                </g>
                <g transform="matrix(1.05041,0,0,0.43834,-444.348,-116.107)">
                    <path d="M3648.61,4816.26L3651.81,4831.21C3652.44,4834.17 3652.79,4836.4 3652.87,4837.91C3652.94,4839.42 3652.72,4840.84 3652.21,4842.16C3651.7,4843.48 3650.91,4844.67 3649.82,4845.72C3648.72,4846.78 3647.4,4847.48 3645.85,4847.84C3644.16,4848.23 3642.51,4848.12 3640.9,4847.5C3639.28,4846.88 3637.95,4845.84 3636.9,4844.39C3636.75,4846.81 3636.04,4848.82 3634.76,4850.4C3633.48,4851.98 3631.8,4853 3629.72,4853.48C3628.08,4853.86 3626.4,4853.83 3624.68,4853.4C3622.97,4852.96 3621.5,4852.17 3620.28,4851.01C3619.06,4849.86 3618.13,4848.3 3617.49,4846.34C3617.09,4845.11 3616.36,4842.09 3615.3,4837.29L3612.58,4824.55L3648.61,4816.26ZM3644.23,4825.19L3635.9,4827.11L3636.95,4832.06C3637.58,4835 3638.01,4836.82 3638.25,4837.52C3638.67,4838.78 3639.32,4839.69 3640.19,4840.27C3641.06,4840.85 3642.08,4841 3643.24,4840.73C3644.36,4840.48 3645.19,4839.95 3645.75,4839.15C3646.31,4838.35 3646.53,4837.31 3646.41,4836.01C3646.33,4835.24 3645.91,4833.08 3645.16,4829.53L3644.23,4825.19ZM3629.9,4828.49L3620.26,4830.71L3621.76,4837.7C3622.34,4840.42 3622.78,4842.13 3623.08,4842.83C3623.52,4843.91 3624.19,4844.71 3625.11,4845.24C3626.02,4845.77 3627.12,4845.89 3628.39,4845.6C3629.48,4845.35 3630.34,4844.86 3630.97,4844.15C3631.61,4843.43 3631.99,4842.51 3632.12,4841.41C3632.24,4840.3 3631.93,4838.03 3631.2,4834.59L3629.9,4828.49Z" style="fill-rule:nonzero;"/>
                </g>
                <g transform="matrix(1.05041,0,0,0.43834,-444.348,-116.107)">
                    <path d="M3625.23,4892.2L3623.88,4883.9L3631.61,4879.15L3629.14,4864.05L3620.37,4862.38L3619.05,4854.29L3657.84,4862.61L3659.16,4870.68L3625.23,4892.2ZM3637.34,4875.62L3649.99,4868.04L3635.66,4865.31L3637.34,4875.62Z" style="fill-rule:nonzero;"/>
                </g>
                <g transform="matrix(1,0,0,0.433187,-265.995,-88.8877)">
                    <path d="M3545.05,5081.15C3545.17,5025.48 3586.32,4994.89 3595.9,4951.14C3603.84,4992.02 3599.18,5037.6 3581.21,5088.15C3601.24,5067.57 3625.03,5056.69 3653.03,5056.67C3629.44,5075.82 3606.41,5095.85 3588.47,5123.8C3595.45,5117.91 3601.2,5116.61 3606.94,5115.39C3592.81,5163.46 3569.2,5203.35 3532.1,5231.64L3536.83,5243.58C3557.64,5236.72 3573.87,5223.83 3588.12,5208.35C3578.82,5244.52 3560.62,5272.31 3526.32,5284.94L3531.05,5296.38L3503.22,5300.71C3488.08,5329.96 3449.63,5345.02 3390.24,5347.35L3339.91,5390.78C3372.13,5371.78 3403.97,5367.05 3435.49,5374.06C3461.95,5364.97 3485.35,5351.59 3506.6,5335.21C3502.65,5358.77 3489.42,5374.81 3470.11,5385.93C3495.69,5390.13 3520.49,5396.28 3544.16,5405.31C3523.6,5414.33 3486.78,5414.65 3441.07,5410.21C3429.28,5415.19 3418.82,5421.86 3409.75,5430.28C3418.14,5432.24 3427.21,5433.67 3437.53,5434.11C3437.53,5434.11 3390.64,5470.19 3367.56,5477.96C3345.9,5485.25 3299.04,5480.72 3299.04,5480.72C3299.04,5480.72 3278.67,5496.58 3266.63,5496.64C3249.53,5496.72 3217.83,5494.58 3217.83,5494.58L3162.91,5530.22C3185.96,5527.12 3214.89,5518.91 3237.94,5529.01C3281.03,5547.88 3317.58,5560.64 3338.46,5558.79C3298.89,5582.73 3254.53,5599.48 3204.95,5608.4C3128.79,5607.58 3099.79,5569.4 3086.19,5576.03C3067.16,5585.31 3048.86,5597.27 3031.34,5612.11L3034.34,5590.97L3095.74,5556.83C3108.38,5518.36 3118.78,5465.88 3143.73,5438.48C3156.39,5424.57 3173.22,5409.5 3192.57,5393.73L3221.29,5354.07C3225.16,5357.77 3222.9,5370.6 3218.17,5387.13C3186.88,5434.53 3156.52,5482.7 3131.51,5535.32L3176.44,5505.58C3181.91,5480.9 3194.66,5455.65 3209.39,5430.24C3217.28,5416.61 3235.37,5402.63 3253.24,5390.85C3258.76,5369.69 3265.12,5352.07 3272,5336.68L2962.04,5384.9C2951.45,5395.74 2936.4,5401.81 2915.37,5401.42C2894.33,5401.81 2879.29,5395.74 2868.7,5384.9L2558.74,5336.68C2565.62,5352.07 2571.97,5369.69 2577.49,5390.85C2595.37,5402.63 2613.45,5416.61 2621.35,5430.24C2636.08,5455.65 2648.83,5480.9 2654.3,5505.58L2699.23,5535.32C2674.22,5482.7 2643.86,5434.53 2612.57,5387.13C2607.84,5370.6 2605.58,5357.77 2609.45,5354.07L2638.16,5393.73C2657.51,5409.5 2674.35,5424.57 2687.01,5438.48C2711.96,5465.88 2722.36,5518.36 2735,5556.83L2796.4,5590.97L2799.4,5612.11C2781.88,5597.27 2763.58,5585.31 2744.54,5576.03C2730.95,5569.4 2701.95,5607.58 2625.79,5608.4C2576.21,5599.48 2531.85,5582.73 2492.28,5558.79C2513.16,5560.64 2549.71,5547.88 2592.8,5529.01C2615.85,5518.91 2644.78,5527.12 2667.83,5530.22L2612.91,5494.58C2612.91,5494.58 2581.21,5496.72 2564.11,5496.64C2552.07,5496.58 2531.7,5480.72 2531.7,5480.72C2531.7,5480.72 2484.84,5485.25 2463.18,5477.96C2440.1,5470.19 2393.21,5434.11 2393.21,5434.11C2403.53,5433.67 2412.6,5432.24 2420.99,5430.28C2411.91,5421.86 2401.46,5415.19 2389.67,5410.21C2343.96,5414.65 2307.14,5414.33 2286.58,5405.31C2310.24,5396.28 2335.05,5390.13 2360.63,5385.93C2341.32,5374.81 2328.09,5358.77 2324.14,5335.21C2345.39,5351.59 2368.78,5364.97 2395.24,5374.06C2426.77,5367.05 2458.61,5371.78 2490.83,5390.78L2440.5,5347.35C2381.11,5345.02 2342.66,5329.96 2327.52,5300.71L2299.69,5296.38L2304.42,5284.94C2270.12,5272.31 2251.92,5244.52 2242.62,5208.35C2256.87,5223.83 2273.1,5236.72 2293.91,5243.58L2298.64,5231.64C2261.54,5203.35 2237.93,5163.46 2223.8,5115.39C2229.53,5116.61 2235.29,5117.91 2242.27,5123.8C2224.33,5095.85 2201.3,5075.82 2177.7,5056.67C2205.71,5056.69 2229.5,5067.57 2249.53,5088.15C2231.56,5037.6 2226.9,4992.02 2234.83,4951.14C2244.42,4994.89 2285.57,5025.48 2285.69,5081.15C2285.55,5084.27 2285.43,5087.41 2285.32,5090.58C2285.58,5087.36 2285.7,5084.22 2285.69,5081.15C2286.82,5055.8 2289.17,5032.76 2294.95,5016.19C2304.42,5051.58 2325.05,5086.46 2317.74,5120.95C2325.16,5124.2 2331.7,5128.53 2337.33,5133.95L2394.99,4988.36C2365.65,4945.18 2349.41,4897.64 2349.41,4847.72C2349.41,4654.13 2593.77,4496.23 2898.51,4489.99L2917.23,4333.11L2935.89,4489.99C3240.66,4496.2 3485.06,4654.11 3485.06,4847.72C3485.06,4898.96 3467.94,4947.7 3437.11,4991.79L3493.41,5133.95C3499.04,5128.53 3505.57,5124.2 3513,5120.95C3505.68,5086.46 3526.32,5051.58 3535.79,5016.19C3541.57,5032.76 3543.92,5055.8 3545.05,5081.15C3545.04,5084.22 3545.16,5087.36 3545.41,5090.58C3545.31,5087.41 3545.19,5084.27 3545.05,5081.15ZM2401.11,4997.05L2291.91,5266.04C2578.69,5313.7 2836.13,5236.21 2915.37,5385.12C2994.61,5236.21 3252.04,5313.7 3538.83,5266.04L3430.95,5000.3C3342.58,5118.2 3155.03,5200.87 2936.35,5205.44L2917.34,5365.22L2898.27,5205.44C2677.52,5200.87 2488.47,5116.7 2401.11,4997.05ZM2363.41,5180.9C2361.83,5180.21 2361.11,5178.37 2361.8,5176.79C2362.49,5175.21 2364.33,5174.48 2365.91,5175.18C2394.36,5187.6 2436.05,5193.1 2483.75,5195.91C2555.97,5200.17 2641.87,5198.17 2716.84,5203.88C2767.22,5207.72 2812.71,5215.06 2845.97,5229.99C2868.69,5240.18 2885.77,5253.93 2895.12,5272.35C2895.9,5273.88 2895.29,5275.77 2893.75,5276.55C2892.21,5277.33 2890.33,5276.71 2889.55,5275.18C2880.8,5257.94 2864.68,5245.23 2843.41,5235.69C2810.69,5221.01 2765.93,5213.89 2716.37,5210.11C2641.42,5204.4 2555.57,5206.41 2483.38,5202.15C2434.81,5199.29 2392.38,5193.56 2363.41,5180.9ZM2356.46,5204.15C2354.88,5203.45 2354.16,5201.61 2354.85,5200.03C2355.54,5198.45 2357.38,5197.73 2358.96,5198.42C2387.41,5210.84 2428.87,5216.32 2476.37,5219.13C2548.29,5223.39 2633.96,5221.46 2709.66,5227.55C2760.52,5231.63 2806.9,5239.35 2841.76,5254.85C2865.48,5265.4 2883.91,5279.55 2895.03,5298.48C2895.9,5299.97 2895.41,5301.88 2893.92,5302.76C2892.43,5303.63 2890.51,5303.13 2889.64,5301.64C2879.14,5283.77 2861.63,5270.52 2839.22,5260.56C2804.91,5245.31 2759.22,5237.8 2709.16,5233.78C2633.5,5227.69 2547.88,5229.62 2476,5225.37C2427.63,5222.5 2385.43,5216.8 2356.46,5204.15ZM2348.16,5228.76C2346.58,5228.07 2345.85,5226.23 2346.54,5224.65C2347.23,5223.07 2349.08,5222.35 2350.66,5223.04C2379.1,5235.46 2421.04,5240.91 2469.26,5243.7C2542.28,5247.92 2629.59,5245.93 2706.73,5251.96C2758.54,5256.01 2805.78,5263.7 2841.18,5279.17C2865.26,5289.7 2883.91,5303.86 2895.03,5322.79C2895.9,5324.27 2895.41,5326.19 2893.92,5327.06C2892.43,5327.94 2890.51,5327.44 2889.64,5325.95C2879.14,5308.08 2861.42,5294.85 2838.67,5284.9C2803.82,5269.66 2757.27,5262.18 2706.25,5258.19C2629.15,5252.16 2541.88,5254.15 2468.9,5249.94C2419.8,5247.1 2377.12,5241.42 2348.16,5228.76ZM3467.33,5180.9C3438.36,5193.56 3395.93,5199.29 3347.36,5202.15C3275.17,5206.41 3189.31,5204.4 3114.37,5210.11C3064.81,5213.89 3020.05,5221.01 2987.33,5235.69C2966.06,5245.23 2949.94,5257.94 2941.19,5275.18C2940.41,5276.71 2938.53,5277.33 2936.99,5276.55C2935.45,5275.77 2934.84,5273.88 2935.62,5272.35C2944.97,5253.93 2962.05,5240.18 2984.77,5229.99C3018.03,5215.06 3063.51,5207.72 3113.9,5203.88C3188.87,5198.17 3274.77,5200.17 3346.99,5195.91C3394.69,5193.1 3436.38,5187.6 3464.82,5175.18C3466.41,5174.48 3468.25,5175.21 3468.94,5176.79C3469.63,5178.37 3468.91,5180.21 3467.33,5180.9ZM3474.28,5204.15C3445.31,5216.8 3403.11,5222.5 3354.74,5225.37C3282.86,5229.62 3197.24,5227.69 3121.58,5233.78C3071.51,5237.8 3025.83,5245.31 2991.51,5260.56C2969.11,5270.52 2951.6,5283.77 2941.1,5301.64C2940.22,5303.13 2938.31,5303.63 2936.82,5302.76C2935.33,5301.88 2934.84,5299.97 2935.71,5298.48C2946.82,5279.55 2965.26,5265.4 2988.97,5254.85C3023.84,5239.35 3070.22,5231.63 3121.08,5227.55C3196.78,5221.46 3282.45,5223.39 3354.37,5219.13C3401.87,5216.32 3443.33,5210.84 3471.78,5198.42C3473.36,5197.73 3475.2,5198.45 3475.89,5200.03C3476.58,5201.61 3475.86,5203.45 3474.28,5204.15ZM3482.58,5228.76C3453.62,5241.42 3410.94,5247.1 3361.84,5249.94C3288.86,5254.15 3201.59,5252.16 3124.49,5258.19C3073.47,5262.18 3026.92,5269.66 2992.07,5284.9C2969.32,5294.85 2951.6,5308.08 2941.1,5325.95C2940.22,5327.44 2938.31,5327.94 2936.82,5327.06C2935.33,5326.19 2934.84,5324.27 2935.71,5322.79C2946.83,5303.86 2965.47,5289.7 2989.56,5279.17C3024.95,5263.7 3072.2,5256.01 3124.01,5251.96C3201.15,5245.93 3288.46,5247.92 3361.48,5243.7C3409.7,5240.91 3451.64,5235.46 3480.08,5223.04C3481.66,5222.35 3483.51,5223.07 3484.2,5224.65C3484.89,5226.23 3484.16,5228.07 3482.58,5228.76ZM3360.89,5322.85L3332.07,5327.34C3320.74,5347.78 3294.74,5384.04 3297.91,5406.77C3308.7,5368.98 3343.2,5348.95 3360.89,5322.85ZM2451.05,5319.93C2464.54,5346.29 2501.67,5368.97 2525.49,5397.95C2512.74,5364.57 2484.38,5352.35 2464.16,5321.97L2451.05,5319.93ZM2430.11,5316.67C2456.11,5352.99 2487.35,5374.12 2513.38,5398.18C2500.95,5372.07 2467.79,5358.19 2446.12,5319.16L2430.11,5316.67ZM2521.01,5443.26C2542.47,5453.54 2567.12,5464.27 2593.09,5475.17C2578.12,5464.22 2563.42,5452.51 2548.9,5440.23L2521.01,5443.26ZM3192.05,5422.94C3157.59,5453.48 3129.78,5488.34 3116.6,5542.07L3123.34,5538.74C3138.76,5502.78 3159.76,5466.86 3192.05,5422.94ZM3314.27,5565.27C3243.58,5593.15 3176.58,5590.51 3110.68,5578.66C3133.47,5589.66 3156.55,5600.58 3203.53,5605.02C3263.33,5591.68 3290.88,5578.47 3314.27,5565.27ZM3379.68,5319.93L3366.58,5321.97C3346.36,5352.35 3318,5364.57 3305.25,5397.95C3329.07,5368.97 3366.2,5346.29 3379.68,5319.93ZM3529.62,5405.02C3504.18,5401.21 3480.23,5396.43 3462.83,5387.38L3440.66,5403.47C3471.07,5408.51 3500.86,5409.83 3529.62,5405.02ZM2567.48,5572.44L2576.61,5578.87C2640.84,5586.73 2690.39,5584.28 2716.29,5573.09C2658.61,5576.71 2608.11,5576.12 2567.48,5572.44ZM3210.64,5383.21C3188.7,5409.39 3150.55,5431.63 3137.97,5457.58C3122.75,5488.97 3112.43,5520.61 3105.2,5552.39C3116.38,5522.65 3128.51,5493.05 3147.24,5464.4C3170.45,5435.17 3204.51,5410.87 3210.64,5383.21ZM3513.96,5185.84L3517.94,5195.89C3573.59,5186.94 3566.78,5110.06 3634.93,5064.5C3567.91,5101.03 3563.2,5159.41 3513.96,5185.84ZM2292.08,5097.86L2306.88,5108.69C2305.39,5081.14 2301.26,5057.04 2296.02,5034.4C2292.89,5047.42 2295.01,5070 2292.08,5097.86ZM3276.39,5336C3285.39,5346.98 3287.39,5364.54 3286.97,5384.37C3276.78,5414.45 3258.76,5438.55 3237.97,5460.53C3231.36,5467.51 3219.18,5469.04 3217.46,5480.95L3292.51,5425.01C3285.84,5390.28 3297.36,5358.17 3325.26,5328.4L3276.39,5336ZM3495.04,5138.07L3503.13,5158.49C3545.26,5126.29 3574.52,5096.48 3582.14,5063.25C3562.54,5083.87 3539.33,5106.14 3495.04,5138.07ZM3292.15,5563.28C3240.49,5542.68 3193.25,5532.02 3152.58,5536.16C3185.6,5552.81 3225.74,5565.44 3292.15,5563.28ZM3419.2,5438.65C3390.5,5445.33 3359.62,5446.61 3327.62,5445.13C3291.41,5457.21 3257.16,5470.27 3230.36,5487.09C3248.94,5484.43 3255.21,5487.63 3325.2,5462.88C3325.2,5462.88 3365.94,5464.32 3380.82,5460.72C3395.16,5457.24 3419.2,5438.65 3419.2,5438.65ZM3524.86,5213.35L3531.15,5229.24C3562.93,5196.94 3586.47,5163.62 3594.96,5128.41C3573.71,5167.8 3549.79,5193.23 3524.86,5213.35ZM3246.81,5567.34C3209.86,5563.84 3174.2,5557.89 3144.54,5540.51L3102.93,5563.62C3118.27,5557.44 3173.59,5577.65 3246.81,5567.34ZM2381.21,5309.06C2388.72,5317.77 2398.43,5324.82 2410.19,5330.32C2404.31,5324.52 2398.95,5318.4 2395.29,5311.25L2381.21,5309.06ZM3543.16,5259.57L3546.7,5268.52C3561.88,5256.06 3571.07,5242.64 3576.11,5228.57C3567.06,5240.48 3556.4,5251.08 3543.16,5259.57ZM3449.53,5309.06L3435.45,5311.25C3431.78,5318.4 3426.43,5324.52 3420.55,5330.32C3432.31,5324.82 3442.02,5317.77 3449.53,5309.06ZM3309.73,5443.26L3281.84,5440.23C3267.32,5452.51 3252.62,5464.22 3237.65,5475.17C3263.62,5464.27 3288.27,5453.54 3309.73,5443.26ZM3581.75,5097.6C3554.87,5117.09 3540.59,5150.86 3513.24,5179.43C3527.4,5170.84 3541.64,5167.33 3581.75,5097.6ZM2248.99,5097.6C2289.1,5167.33 2303.34,5170.84 2317.5,5179.43C2290.15,5150.86 2275.87,5117.09 2248.99,5097.6ZM2411.54,5438.65C2411.54,5438.65 2435.58,5457.24 2449.92,5460.72C2464.8,5464.32 2505.54,5462.88 2505.54,5462.88C2575.53,5487.63 2581.8,5484.43 2600.38,5487.09C2573.58,5470.27 2539.33,5457.21 2503.12,5445.13C2471.12,5446.61 2440.24,5445.33 2411.54,5438.65ZM3440.78,5380.57C3408.17,5394.66 3375.49,5419.62 3348.59,5424.78L3369.18,5424.71C3400.88,5409.21 3420.58,5394.91 3440.78,5380.57ZM3263.26,5572.44C3222.63,5576.12 3172.13,5576.71 3114.45,5573.09C3140.35,5584.28 3189.9,5586.73 3254.13,5578.87L3263.26,5572.44ZM2316.78,5185.84C2267.54,5159.41 2262.83,5101.03 2195.8,5064.5C2263.96,5110.06 2257.15,5186.94 2312.8,5195.89L2316.78,5185.84ZM3504.77,5162.64L3511.19,5178.84C3525.04,5162.78 3538.23,5145.68 3549.93,5126.15C3534.31,5135.06 3519.61,5149.26 3504.77,5162.64ZM2389.96,5380.57C2410.15,5394.91 2429.86,5409.21 2461.56,5424.71L2482.15,5424.78C2455.25,5419.62 2422.57,5394.66 2389.96,5380.57ZM2244.26,4999.16C2249.32,5024.61 2275.35,5051.53 2275.47,5082.94L2283.52,5089.25C2280.42,5053.74 2267.83,5023.44 2244.26,4999.16ZM2398.3,5311.72C2406.3,5324.13 2420.06,5332.74 2437.81,5338.73C2429.57,5331.01 2425.13,5323.38 2424.65,5315.82L2398.3,5311.72ZM3497.17,5349.08C3482.9,5361.27 3467.19,5368.91 3446.67,5382.04C3424.26,5396.38 3396.59,5416.14 3371.08,5427.82C3355.64,5432.75 3306.75,5424.32 3289.34,5434.02C3327.02,5432.91 3362.07,5442.34 3374.84,5438.05C3391.36,5432.49 3485.24,5379.53 3497.17,5349.08ZM3275.5,5347.81C3274.08,5388.58 3252.53,5418.07 3217.26,5439.89C3204.82,5458.88 3192.62,5478.09 3185.11,5501.42L3208.62,5484.48C3210.88,5474.93 3215.37,5466.61 3222.3,5459.65C3245.35,5441.23 3266.92,5419.73 3280.61,5381.86C3280.78,5361.65 3278.49,5353.05 3275.5,5347.81ZM3557.23,5081.41L3574.64,5066C3591.65,5026.08 3597.64,4998.09 3592.48,4982.18C3589.91,5029.31 3562.35,5052.58 3557.23,5081.41ZM3495.07,5301.98L3453.12,5308.5C3441.2,5326.4 3424.11,5336.21 3403.35,5340.3C3448.32,5339.05 3480.03,5327.17 3495.07,5301.98ZM3586.48,4999.16C3562.91,5023.44 3550.32,5053.74 3547.22,5089.25L3555.26,5082.94C3555.39,5051.53 3581.42,5024.61 3586.48,4999.16ZM2620.1,5383.21C2626.23,5410.87 2660.28,5435.17 2683.5,5464.4C2702.23,5493.05 2714.36,5522.65 2725.54,5552.39C2718.31,5520.61 2707.99,5488.97 2692.77,5457.58C2680.19,5431.63 2642.03,5409.39 2620.1,5383.21ZM3538.66,5097.86C3535.73,5070 3537.85,5047.42 3534.72,5034.4C3529.47,5057.04 3525.35,5081.14 3523.86,5108.69L3538.66,5097.86ZM2554.35,5336L2505.48,5328.4C2533.38,5358.17 2544.9,5390.28 2538.23,5425.01L2613.28,5480.95C2611.56,5469.04 2599.38,5467.51 2592.77,5460.53C2571.97,5438.55 2553.96,5414.45 2543.77,5384.37C2543.35,5364.54 2545.35,5346.98 2554.35,5336ZM2516.47,5565.27C2539.86,5578.47 2567.41,5591.68 2627.21,5605.02C2674.19,5600.58 2697.27,5589.66 2720.06,5578.66C2654.16,5590.51 2587.16,5593.15 2516.47,5565.27ZM3427.34,5377.36C3393.35,5374.25 3362.8,5381.52 3337.08,5401.44C3355.43,5393.55 3378.14,5389.9 3407.13,5392.32L3427.34,5377.36ZM2301.12,5405.02C2329.88,5409.83 2359.66,5408.51 2390.08,5403.47L2367.91,5387.38C2350.51,5396.43 2326.56,5401.21 2301.12,5405.02ZM2305.88,5213.35C2280.95,5193.23 2257.03,5167.8 2235.78,5128.41C2244.27,5163.62 2267.81,5196.94 2299.59,5229.24L2305.88,5213.35ZM3432.44,5311.72L3406.09,5315.82C3405.61,5323.38 3401.17,5331.01 3392.93,5338.73C3410.68,5332.74 3424.44,5324.13 3432.44,5311.72ZM2333.57,5349.08C2345.5,5379.53 2439.38,5432.49 2455.9,5438.05C2468.66,5442.34 2503.72,5432.91 2541.4,5434.02C2523.99,5424.32 2475.09,5432.75 2459.66,5427.82C2434.15,5416.14 2406.48,5396.38 2384.07,5382.04C2363.55,5368.91 2347.84,5361.27 2333.57,5349.08ZM2273.51,5081.41C2268.39,5052.58 2240.83,5029.31 2238.26,4982.18C2233.1,4998.09 2239.09,5026.08 2256.1,5066L2273.51,5081.41ZM2335.7,5138.07C2291.41,5106.14 2268.2,5083.87 2248.6,5063.25C2256.22,5096.48 2285.48,5126.29 2327.61,5158.49L2335.7,5138.07ZM2555.24,5347.81C2552.25,5353.05 2549.96,5361.65 2550.13,5381.86C2563.82,5419.73 2585.39,5441.23 2608.44,5459.65C2615.37,5466.61 2619.86,5474.93 2622.12,5484.48L2645.63,5501.42C2638.12,5478.09 2625.92,5458.88 2613.48,5439.89C2578.21,5418.07 2556.66,5388.58 2555.24,5347.81ZM2583.93,5567.34C2657.14,5577.65 2712.47,5557.44 2727.81,5563.62L2686.2,5540.51C2656.54,5557.89 2620.88,5563.84 2583.93,5567.34ZM2287.58,5259.57C2274.34,5251.08 2263.68,5240.48 2254.63,5228.57C2259.66,5242.64 2268.86,5256.06 2284.03,5268.52L2287.58,5259.57ZM2325.97,5162.64C2311.13,5149.26 2296.43,5135.06 2280.81,5126.15C2292.51,5145.68 2305.7,5162.78 2319.55,5178.84L2325.97,5162.64ZM2335.67,5301.98C2350.71,5327.17 2382.42,5339.05 2427.39,5340.3C2406.63,5336.21 2389.54,5326.4 2377.62,5308.5L2335.67,5301.98ZM3542.85,5270.82L3522.41,5275.5L3525.12,5282.07L3542.85,5270.82ZM2287.89,5270.82L2305.61,5282.07L2308.33,5275.5L2287.89,5270.82ZM2638.69,5422.94C2670.98,5466.86 2691.98,5502.78 2707.4,5538.74L2714.14,5542.07C2700.96,5488.34 2673.15,5453.48 2638.69,5422.94ZM2538.58,5563.28C2604.99,5565.44 2645.14,5552.81 2678.15,5536.16C2637.49,5532.02 2590.25,5542.68 2538.58,5563.28ZM3400.63,5316.67L3384.62,5319.16C3362.95,5358.19 3329.79,5372.07 3317.36,5398.18C3343.39,5374.12 3374.63,5352.99 3400.63,5316.67ZM2469.85,5322.85C2487.54,5348.95 2522.03,5368.98 2532.83,5406.77C2536,5384.04 2509.99,5347.78 2498.67,5327.34L2469.85,5322.85ZM2291.78,5248.97C2284.96,5246.8 2278.56,5243.27 2272.35,5239.15C2277.18,5245.85 2282.55,5251.82 2288.72,5256.7L2291.78,5248.97ZM2403.4,5377.36L2423.61,5392.32C2452.6,5389.9 2475.31,5393.55 2493.66,5401.44C2467.94,5381.52 2437.39,5374.25 2403.4,5377.36ZM3538.96,5248.97L3542.02,5256.7C3548.19,5251.82 3553.56,5245.85 3558.39,5239.15C3552.18,5243.27 3545.78,5246.8 3538.96,5248.97ZM3270.3,4718.96C3275.86,4731.05 3280.59,4743.31 3284.49,4755.7C3285.47,4755.23 3286.44,4754.75 3287.41,4754.27C3290.55,4752.7 3293.61,4751.09 3296.6,4749.45L3277.41,4701.02L3270.3,4718.96ZM3016.96,4778.51L3078.36,4778.51L3047.66,4701.02L3016.96,4778.51ZM3160.9,4587.68C3153.98,4581.99 3146.8,4576.42 3139.35,4570.97C3105.84,4585.45 3070.18,4596.37 3033.52,4603.72C3043.92,4620.94 3053.14,4638.81 3061.17,4657.18C3083.13,4652.95 3104.17,4647.76 3123.84,4641.61C3133.69,4638.52 3143.19,4635.2 3152.29,4631.64C3154.47,4625.73 3157.77,4621.26 3161.64,4619.22L3161.64,4608.5C3157.61,4606.68 3154.8,4602.62 3154.8,4597.9C3154.8,4593.49 3157.27,4589.64 3160.9,4587.68ZM3298.07,4753.16C3295.17,4754.74 3292.21,4756.29 3289.18,4757.81C3288.01,4758.39 3286.85,4758.96 3285.66,4759.53C3287.55,4765.83 3289.22,4772.15 3290.68,4778.51L3308.11,4778.51L3298.07,4753.16ZM2669.53,4786.55C2627.16,4776.94 2588.96,4765.06 2557.32,4751.09C2548.76,4776.51 2543.78,4802.54 2542.43,4828.79C2542.15,4834.22 2542.03,4839.66 2542.06,4845.11L2733.46,4845.11C2733.93,4829.84 2735.05,4814.58 2736.84,4799.39C2724.17,4797.39 2711.73,4795.21 2699.55,4792.85L2679.29,4827.66L2659.04,4827.83L2669.53,4786.55ZM2701.66,4789.24C2713.31,4791.48 2725.21,4793.56 2737.32,4795.48C2740.58,4769.47 2745.78,4743.7 2752.98,4718.5C2749.78,4718.36 2746.51,4718.16 2743.18,4717.9L2701.66,4789.24ZM2756.99,4718.65C2749.7,4743.99 2744.43,4769.91 2741.16,4796.07C2779.38,4801.99 2819.6,4806.28 2860.45,4808.86L2876.49,4674.45C2858.39,4673.78 2840.46,4672.55 2822.92,4670.74C2806.96,4669.1 2791.31,4666.98 2776.14,4664.39C2772.52,4672.96 2769.16,4681.64 2766.05,4690.4C2786.75,4690.71 2801.68,4694.55 2801.58,4704.56C2801.7,4715.99 2782.25,4719.38 2756.99,4718.65ZM2761.91,4690.39C2765.07,4681.4 2768.49,4672.5 2772.18,4663.7C2754.14,4660.51 2736.8,4656.65 2720.41,4652.11L2743.18,4691.22C2749.69,4690.73 2756,4690.43 2761.91,4690.39ZM2717.56,4647.2C2735.24,4652.26 2754.09,4656.52 2773.77,4659.97C2782.11,4640.56 2791.76,4621.69 2802.73,4603.55C2766.09,4596.01 2730.87,4584.78 2698.3,4569.87C2692.18,4574.32 2686.23,4578.85 2680.45,4583.46L2717.56,4647.2ZM2676.66,4581.44C2682.33,4576.87 2688.18,4572.38 2694.2,4567.97C2678.64,4560.64 2663.71,4552.47 2649.53,4543.45C2649.4,4543.36 2649.27,4543.26 2649.16,4543.14C2629.05,4550.06 2609.69,4557.73 2591.18,4566.11C2600.58,4584.8 2617.41,4600.95 2639.68,4614.61C2646.81,4607.46 2654.3,4600.44 2662.16,4593.58L2659.04,4581.29L2676.66,4581.44ZM2663.25,4597.88C2656.26,4604.04 2649.57,4610.31 2643.18,4616.7C2645.71,4618.19 2648.32,4619.65 2650.98,4621.08C2657.51,4624.58 2664.43,4627.9 2671.68,4631.03L2663.25,4597.88ZM2672.91,4635.85C2664.52,4632.33 2656.57,4628.57 2649.11,4624.57C2646.09,4622.95 2643.16,4621.3 2640.3,4619.6C2601.85,4658.78 2574.53,4702.07 2558.61,4747.34C2590.13,4761.3 2628.23,4773.15 2670.5,4782.73L2686.65,4719.2L2633.65,4719.2L2616.8,4740.77L2605.43,4740.77L2613.59,4703.86L2605.43,4668.36L2616.8,4668.36L2633.65,4689.93L2686.65,4689.93L2672.91,4635.85ZM2736.57,4518.95C2707.9,4525.1 2680.28,4532.67 2653.91,4541.53C2667.88,4550.28 2682.57,4558.21 2697.86,4565.31C2716.14,4552.15 2735.98,4539.71 2757.34,4528.09C2750.27,4525.24 2743.34,4522.19 2736.57,4518.95ZM3238.74,4778.2C3238.43,4778.31 3238.11,4778.41 3237.8,4778.51L3238.62,4778.51L3238.74,4778.2ZM3268.27,4724.07L3250.02,4770.14C3260.92,4766.2 3271.23,4761.96 3280.88,4757.43C3277.38,4746.19 3273.17,4735.06 3268.27,4724.07ZM3174.78,4621.95C3180.13,4619.41 3185.3,4616.77 3190.27,4614.03C3186.09,4609.92 3181.78,4605.86 3177.35,4601.86C3176.28,4604.81 3174.04,4607.21 3171.19,4608.5L3171.19,4619.22C3172.46,4619.88 3173.66,4620.81 3174.78,4621.95ZM2883.7,4614.1C2857.69,4612.58 2831.94,4609.34 2806.83,4604.38C2795.81,4622.46 2786.12,4641.28 2777.74,4660.65C2792.53,4663.15 2807.78,4665.2 2823.32,4666.8C2840.89,4668.61 2858.84,4669.85 2876.96,4670.51L2883.7,4614.1ZM3178.52,5096.37C3145.95,5127.66 3106.64,5157.03 3060.47,5183.59C3185.84,5162.78 3294.05,5115.28 3368.65,5051.15C3412.97,5013.05 3445.35,4969.09 3461.98,4921.43C3405.07,4982.6 3323.69,5026.58 3230.34,5055.23C3224.33,5057.07 3218.28,5058.85 3212.18,5060.57C3210.47,5062.59 3208.74,5064.6 3206.98,5066.61L3206.98,5096.37L3178.52,5096.37ZM3288.5,5064.01L3288.5,5096.37L3221.08,5096.37L3221.08,5064.01L3288.5,5064.01ZM2587.57,4567.75C2542.16,4588.62 2501.94,4613.71 2468.36,4642.12C2460.86,4680.84 2490.61,4713.59 2542.74,4739.85C2546.7,4741.84 2550.78,4743.8 2554.99,4745.71C2571.01,4700.3 2598.38,4656.85 2636.83,4617.5C2614.2,4603.47 2597.16,4586.87 2587.57,4567.75ZM3474.63,4845.11C3474.28,4816 3468.14,4787.77 3456.94,4760.82C3447.58,4793.05 3426.51,4821.1 3396.45,4845.11L3474.63,4845.11ZM3084.65,4516.23C3070.02,4513.35 3055.14,4510.84 3040.03,4508.71C3050.75,4513.63 3061.14,4518.74 3071.2,4524.03C3075.87,4521.57 3080.36,4518.97 3084.65,4516.23ZM3026.25,4506.89C3000.36,4503.67 2973.83,4501.58 2946.8,4500.7C2964.23,4515.72 2980.16,4531.96 2994.61,4549.2C3021.16,4544.38 3045.72,4536.73 3066.88,4526.23C3053.88,4519.48 3040.34,4513.02 3026.25,4506.89ZM2950.2,4610.3C2976.06,4608.89 3001.86,4605.77 3027.2,4600.95C3016.93,4584.44 3005.53,4568.55 2992.99,4553.44C2977.26,4556.18 2960.85,4557.95 2944.07,4558.75L2950.2,4610.3ZM3098.52,4885.18C3099,4874.55 3099.16,4863.89 3098.99,4853.22L2978.23,4853.22L2966.55,4951.45C2981.08,4951.12 2995.57,4950.57 3009.96,4949.79L3009.96,4917.1C3009.96,4899.48 3024.27,4885.18 3041.89,4885.18L3098.52,4885.18ZM2461.82,4853.22C2484.77,4867.57 2511.85,4880.43 2542.12,4891.74C2539.98,4878.91 2538.7,4866.05 2538.26,4853.22L2461.82,4853.22ZM3286.96,4907.27C3287.28,4905.86 3287.58,4904.44 3287.88,4903.02C3287.13,4903.3 3286.38,4903.57 3285.62,4903.84C3286.13,4904.95 3286.58,4906.1 3286.96,4907.27ZM3013.8,5094.06C2992.37,5095.61 2970.82,5096.56 2949.25,5096.93L2937.59,5194.99C2948.68,5194.75 2959.69,5194.29 2970.62,5193.64C2999.12,5165.2 3023.02,5132.29 3042.18,5096.37L3013.8,5096.37L3013.8,5094.06ZM2943.61,4554.9C2959.54,4554.15 2975.12,4552.51 2990.11,4549.99C2975.54,4532.8 2959.48,4516.64 2941.9,4501.71C2941.53,4501.4 2941.3,4500.97 2941.23,4500.53C2939.86,4500.49 2938.5,4500.46 2937.13,4500.43L2943.61,4554.9ZM3219.14,4784.2C3183.43,4794.37 3143.12,4801.99 3100.16,4807.18C3101.46,4819.79 3102.3,4832.45 3102.68,4845.11L3294.09,4845.11C3294.12,4839.66 3294,4834.22 3293.72,4828.79C3293.31,4820.8 3292.56,4812.82 3291.48,4804.89C3286.89,4805.62 3282.19,4806 3277.41,4806C3255.12,4806 3234.74,4797.77 3219.14,4784.2ZM3283.73,4900.32C3285.43,4899.71 3287.12,4899.09 3288.8,4898.47C3291.7,4883.4 3293.41,4868.29 3293.93,4853.22L3102.87,4853.22C3103.04,4863.89 3102.88,4874.55 3102.41,4885.18L3256.58,4885.18C3268.04,4885.18 3278.1,4891.23 3283.73,4900.32ZM2379,4757.35C2366.86,4785.34 2360.2,4814.74 2359.84,4845.11L2442.68,4845.11C2407.95,4819.83 2385.33,4790.47 2379,4757.35ZM3066.78,4681.34C3064.28,4674.72 3061.64,4668.16 3058.84,4661.65C3058.2,4661.77 3057.56,4661.89 3056.92,4662.01C3058.97,4664.29 3060.22,4667.3 3060.22,4670.61C3060.22,4676.04 3056.85,4680.69 3052.08,4682.57L3052.08,4684.93C3056.98,4683.65 3061.88,4682.45 3066.78,4681.34ZM3293.13,4896.84C3325.7,4884.48 3354.7,4869.96 3378.97,4853.22L3297.89,4853.22C3297.39,4867.75 3295.81,4882.31 3293.13,4896.84ZM2796.85,4508.37C2778.55,4510.9 2760.59,4513.98 2743,4517.6C2749.18,4520.44 2755.47,4523.13 2761.88,4525.65C2773.12,4519.66 2784.78,4513.89 2796.85,4508.37ZM3243.55,4678.7C3229.6,4657.23 3212.8,4636.54 3193.18,4616.91C3188.09,4619.74 3182.79,4622.48 3177.3,4625.11C3180.98,4630.66 3183.32,4638.98 3183.32,4648.26C3183.32,4657.47 3181.02,4665.72 3177.39,4671.28C3199.46,4672.14 3221.51,4674.65 3243.55,4678.7ZM2839.52,4551.62C2812.9,4546.75 2786.76,4539.54 2762.15,4530C2740.53,4541.59 2720.48,4554.04 2702,4567.21C2734.14,4581.73 2768.83,4592.66 2804.91,4599.99C2815.29,4583.18 2826.83,4567.01 2839.52,4551.62ZM2889.41,4500.64C2862.59,4501.47 2836.26,4503.48 2810.56,4506.6C2795.33,4513.21 2780.74,4520.2 2766.78,4527.54C2790.89,4536.65 2816.44,4543.53 2842.41,4548.17C2856.64,4531.29 2872.3,4515.38 2889.41,4500.64ZM3068.56,4686.12L3052.08,4686.12L3052.08,4691.76L3086.45,4778.51L3092.49,4778.51C3087.45,4747.05 3079.49,4716.04 3068.56,4686.12ZM3150.86,4636.43C3142.55,4639.61 3133.93,4642.6 3125.03,4645.38C3105.47,4651.5 3084.58,4656.67 3062.78,4660.9C3065.54,4667.37 3068.16,4673.91 3070.64,4680.49C3098.88,4674.4 3127.08,4671.31 3155.25,4670.98C3151.74,4665.43 3149.52,4657.3 3149.52,4648.26C3149.52,4644.07 3150,4640.07 3150.86,4636.43ZM3268.22,4917.1C3268.22,4910.68 3263,4905.47 3256.58,4905.47L3041.89,4905.47C3035.47,4905.47 3030.25,4910.68 3030.25,4917.1L3030.25,4980.95C3030.25,4987.37 3035.47,4992.59 3041.89,4992.59L3256.58,4992.59C3263,4992.59 3268.22,4987.37 3268.22,4980.95L3268.22,4917.1ZM3261.06,4921.82L3261.06,4975.51C3261.06,4981.51 3256.18,4986.39 3250.18,4986.39L3047.91,4986.39C3041.91,4986.39 3037.03,4981.51 3037.03,4975.51L3037.03,4921.82C3037.03,4915.82 3041.91,4910.94 3047.91,4910.94L3250.18,4910.94C3256.18,4910.94 3261.06,4915.82 3261.06,4921.82ZM3295.38,4804.17C3296.49,4812.28 3297.25,4820.43 3297.67,4828.59C3297.95,4834.09 3298.08,4839.59 3298.05,4845.11L3390.14,4845.11C3423.07,4819.85 3445.68,4789.89 3454.42,4754.98C3436.73,4715.32 3408.01,4678.55 3370.61,4645.99C3374.51,4688.96 3349.26,4723.26 3304.67,4749.42L3316.2,4778.51L3341.63,4778.51C3329.4,4791.31 3313.38,4800.47 3295.38,4804.17ZM3204.01,5064.01C3204.46,5063.49 3204.91,5062.97 3205.36,5062.45C3203.44,5062.98 3201.52,5063.49 3199.59,5064.01L3204.01,5064.01ZM3247.06,5012.87C3238.12,5027.2 3227.99,5041.32 3216.66,5055.17C3220.86,5053.96 3225.03,5052.72 3229.18,5051.44C3325.09,5022.01 3408.31,4976.33 3464.98,4912.24C3470.79,4893.09 3474.07,4873.37 3474.57,4853.22L3385.74,4853.22C3359.77,4871.91 3328.12,4887.95 3292.25,4901.4C3291.16,4906.85 3289.91,4912.29 3288.5,4917.73L3288.5,4980.95C3288.5,4998.57 3274.2,5012.87 3256.58,5012.87L3247.06,5012.87ZM3009.96,4953.74C2995.41,4954.53 2980.77,4955.08 2966.08,4955.41L2949.72,5092.97C2971.13,5092.59 2992.53,5091.64 3013.8,5090.1L3013.8,5064.01L3057.82,5064.01C3065.04,5047.42 3071.33,5030.34 3076.67,5012.87L3041.89,5012.87C3024.27,5012.87 3009.96,4998.57 3009.96,4980.95L3009.96,4953.74ZM3185.64,4543.26C3155.41,4532.84 3123.47,4524.13 3090.18,4517.34C3085.49,4520.49 3080.56,4523.46 3075.41,4526.26C3098.68,4538.73 3120.17,4552.16 3139.85,4566.44C3155.64,4559.52 3170.95,4551.79 3185.64,4543.26ZM3183.57,5064.01C3192.45,5061.82 3201.25,5059.52 3209.95,5057.08C3222.09,5042.63 3232.9,5027.87 3242.4,5012.87L3168.88,5012.87L3168.88,5032.01L3184.28,5032.01L3184.28,5052.07L3114.19,5052.07L3114.19,5032.01L3129.59,5032.01L3129.59,5012.87L3080.75,5012.87C3075.46,5030.33 3069.24,5047.41 3062.09,5064.01L3183.57,5064.01ZM3035.53,4665.63C3010.29,4669.5 2984.15,4672.19 2957.73,4673.67L2974.13,4811.53C3015.87,4810.85 3056.94,4808.28 3095.89,4803.72C3095.48,4800.02 3095.04,4796.31 3094.55,4792.61C3080.93,4801.09 3064.87,4806 3047.66,4806C3022.41,4806 2999.61,4795.44 2983.43,4778.51L3008.87,4778.51L3043.29,4691.63L3043.29,4682.79C3038.2,4681.09 3034.53,4676.27 3034.53,4670.61C3034.53,4668.84 3034.88,4667.16 3035.53,4665.63ZM3098.15,4790.25C3098.74,4794.58 3099.27,4798.92 3099.75,4803.26C3141.53,4798.22 3180.8,4790.86 3215.72,4781.07C3214.86,4780.23 3214.01,4779.38 3213.18,4778.51L3224.57,4778.51C3230.04,4776.88 3235.4,4775.18 3240.64,4773.41L3263.9,4714.69C3259.22,4705.04 3253.99,4695.51 3248.23,4686.12L3072.72,4686.12C3083.55,4716.06 3091.43,4747.06 3096.42,4778.51L3111.89,4778.51C3107.72,4782.87 3103.12,4786.8 3098.15,4790.25ZM2978.12,4845.11L3098.81,4845.11C3098.42,4832.6 3097.59,4820.1 3096.31,4807.64C3057.36,4812.19 3016.31,4814.78 2974.6,4815.48L2978.12,4845.11ZM2856.12,4845.11L2859.98,4812.79C2819.13,4810.21 2778.91,4805.91 2740.68,4799.99C2738.92,4814.98 2737.81,4830.04 2737.34,4845.11L2856.12,4845.11ZM3052.46,4658.8C3054.05,4658.52 3055.64,4658.23 3057.22,4657.93C3049.14,4639.57 3039.88,4621.72 3029.41,4604.53C3003.5,4609.52 2977.12,4612.74 2950.66,4614.2L2957.26,4669.73C2984.95,4668.19 3012.35,4665.32 3038.7,4661.13C3040.99,4659.04 3044.03,4657.76 3047.37,4657.76C3049.18,4657.76 3050.9,4658.13 3052.46,4658.8ZM2969.7,4844.89L2917.22,4403.55L2864.54,4844.89C2864.54,4844.89 2969.7,4844.89 2969.7,4844.89ZM3135.62,4568.27C3115.94,4554.13 3094.45,4540.82 3071.18,4528.49C3049.7,4539.48 3024.63,4547.53 2997.45,4552.63C3009.86,4567.76 3021.16,4583.65 3031.34,4600.15C3067.43,4593 3102.56,4582.38 3135.62,4568.27ZM3303.2,4745.7C3347.35,4719.65 3371.99,4685.46 3366.2,4642.2C3333.37,4614.41 3294.2,4589.8 3250.04,4569.2C3237.66,4586.54 3219.4,4601.77 3196.74,4614.88C3217.19,4635.45 3234.59,4657.17 3248.89,4679.71C3256.94,4681.28 3264.99,4683.06 3273.04,4685.03L3273.04,4682.79C3267.95,4681.09 3264.27,4676.27 3264.27,4670.61C3264.27,4663.52 3270.03,4657.76 3277.12,4657.76C3284.21,4657.76 3289.97,4663.52 3289.97,4670.61C3289.97,4676.04 3286.59,4680.69 3281.82,4682.57L3281.82,4691.76L3303.2,4745.7ZM3178.01,4597.14C3183.48,4602.02 3188.76,4606.98 3193.86,4612.01C3216.14,4599.26 3234.14,4584.43 3246.38,4567.51C3228.54,4559.33 3209.9,4551.8 3190.55,4544.97C3175.49,4553.88 3159.77,4561.93 3143.53,4569.13C3151.12,4574.74 3158.43,4580.47 3165.47,4586.32C3165.78,4586.3 3166.1,4586.29 3166.42,4586.29C3172.57,4586.29 3177.62,4591.08 3178.01,4597.14ZM3252.86,4686.12C3257.56,4693.9 3261.9,4701.77 3265.87,4709.73L3273.04,4691.63L3273.04,4686.12L3252.86,4686.12ZM2463.73,4646.1C2427.7,4677.48 2399.75,4712.78 2381.95,4750.8C2386.62,4786.85 2411.07,4818.35 2449.5,4845.11L2538.1,4845.11C2538.07,4839.59 2538.19,4834.09 2538.48,4828.59C2539.85,4801.86 2544.94,4775.36 2553.69,4749.47C2549.32,4747.48 2545.07,4745.45 2540.96,4743.39C2488.97,4717.19 2459.09,4684.32 2463.73,4646.1ZM3248.08,4775.02L3246.7,4778.51L3286.62,4778.51C3285.28,4772.73 3283.75,4766.98 3282.05,4761.25C3271.48,4766.19 3260.12,4770.78 3248.08,4775.02ZM2553.48,4937.6C2548.96,4923.87 2545.44,4910.07 2542.91,4896.24C2509.83,4884.02 2480.46,4869.99 2456,4854.23C2455.49,4853.89 2454.97,4853.56 2454.46,4853.22L2359.89,4853.22C2360.27,4868.34 2362.21,4883.22 2365.61,4897.8C2400.89,4954.22 2471.39,5000.18 2561.12,5033.31L2561.12,4994.83C2561.12,4992.9 2562.69,4991.33 2564.62,4991.33L2571.62,4991.33C2573.55,4991.33 2575.12,4992.9 2575.12,4994.83L2575.12,5038.32C2583.6,5041.26 2592.24,5044.1 2601.03,5046.82C2595.51,5036.94 2591.7,5025.98 2590.01,5014.34C2584.07,5004.92 2578.64,4995.41 2573.73,4985.83L2561.49,4985.83C2560.51,4966.57 2556.13,4957.1 2553.48,4937.6ZM2736.58,4921.27C2734.04,4898.76 2732.93,4876 2733.28,4853.22L2542.22,4853.22C2542.68,4866.58 2544.07,4879.97 2546.41,4893.33C2548.1,4893.94 2549.8,4894.56 2551.51,4895.17C2551.66,4887.09 2552.03,4877.97 2552.7,4867.56C2552.7,4865.74 2554.17,4864.27 2555.99,4864.27C2557.81,4864.27 2559.28,4865.74 2559.28,4867.56L2559.28,4897.88C2560.86,4898.42 2562.45,4898.95 2564.04,4899.49L2564.04,4867.56C2564.04,4865.74 2565.51,4864.27 2567.33,4864.27C2569.15,4864.27 2570.62,4865.74 2570.62,4867.56L2570.62,4901.65C2572.25,4902.17 2573.89,4902.7 2575.53,4903.22L2575.53,4867.56C2575.53,4865.74 2577.01,4864.27 2578.83,4864.27C2580.64,4864.27 2582.12,4865.74 2582.12,4867.56C2583.16,4883.1 2583.56,4895.51 2583.53,4905.69C2599.89,4910.65 2616.93,4915.22 2634.54,4919.39C2648.97,4910.56 2665.94,4905.46 2684.09,4905.46C2703.49,4905.46 2721.54,4911.28 2736.58,4921.27ZM2551.46,4899.33C2550.04,4898.83 2548.63,4898.33 2547.23,4897.82C2548.5,4904.5 2550.01,4911.17 2551.76,4917.83C2551.51,4912.37 2551.39,4906.26 2551.46,4899.33ZM2767.09,5046.92C2760.08,5059.42 2750.33,5070.19 2738.65,5078.39C2740.95,5078.76 2743.26,5079.12 2745.57,5079.47C2758.11,5081.39 2770.78,5083.11 2783.55,5084.63C2777.53,5072.36 2772.05,5059.77 2767.09,5046.92ZM2564.04,4903.64C2562.45,4903.11 2560.86,4902.58 2559.28,4902.05L2559.28,4909.26L2564.04,4909.26L2564.04,4903.64ZM2575.53,4907.35C2573.89,4906.83 2572.25,4906.31 2570.62,4905.79L2570.62,4909.26L2575.53,4909.26L2575.53,4907.35ZM2890.38,4558.07C2874.92,4556.97 2859.39,4555.08 2844,4552.42C2831.16,4567.8 2819.51,4583.98 2809.03,4600.81C2833.58,4605.6 2858.75,4608.73 2884.16,4610.2L2890.38,4558.07ZM2574.82,4979.21C2579.16,4988 2583.93,4996.73 2589.13,5005.39C2589.05,5003.78 2589.01,5002.16 2589.01,5000.54C2589.01,4968.16 2605.23,4939.54 2629.99,4922.36C2613.98,4918.5 2598.46,4914.31 2583.5,4909.8C2582.94,4946.61 2576.37,4952.51 2574.82,4979.21ZM2680.44,4933.19C2644.91,4935.08 2616.64,4964.54 2616.64,5000.54C2616.64,5027.84 2632.89,5051.37 2656.23,5061.98C2664.91,5064.08 2673.69,5066.07 2682.57,5067.97C2683.07,5067.98 2683.58,5067.99 2684.09,5067.99C2721.31,5067.99 2751.54,5037.77 2751.54,5000.54C2751.54,5000.17 2751.53,4999.8 2751.53,4999.44C2751.6,4987.35 2748.69,4978.33 2744.57,4970.68C2737.44,4956.28 2725.32,4944.78 2710.47,4938.46C2700.34,4936.81 2690.33,4935.06 2680.44,4933.19ZM2684.09,4942.97C2715.86,4942.97 2741.65,4968.77 2741.65,5000.54C2741.65,5032.31 2715.86,5058.11 2684.09,5058.11C2652.32,5058.11 2626.52,5032.31 2626.52,5000.54C2626.52,4968.77 2652.32,4942.97 2684.09,4942.97ZM2684.09,4947.02C2654.55,4947.02 2630.56,4971 2630.56,5000.54C2630.56,5030.08 2654.55,5054.06 2684.09,5054.06C2713.63,5054.06 2737.61,5030.08 2737.61,5000.54C2737.61,4971 2713.63,4947.02 2684.09,4947.02ZM2804.65,4946.18C2825.51,4948.03 2846.62,4949.43 2867.83,4950.38L2856.24,4853.22L2737.16,4853.22C2736.79,4877.01 2738.03,4900.78 2740.84,4924.27C2747.41,4929.17 2753.32,4934.89 2758.43,4941.28C2765.47,4942.15 2772.55,4942.97 2779.67,4943.73C2774.78,4913.78 2782.44,4886.53 2798.31,4867.85C2802.2,4862.59 2804.21,4863.28 2804.65,4868.91L2804.65,4946.18ZM3046.63,5096.37C3027.84,5132.03 3004.43,5164.79 2976.56,5193.27C3001.31,5191.63 3025.59,5188.98 3049.28,5185.37C3097.73,5158.43 3138.86,5128.44 3172.79,5096.37L3046.63,5096.37ZM2897.26,4500.43C2896.48,4500.45 2895.7,4500.47 2894.93,4500.49C2894.86,4500.95 2894.63,4501.38 2894.25,4501.71C2877.03,4516.34 2861.26,4532.15 2846.93,4548.95C2861.51,4551.41 2876.21,4553.16 2890.84,4554.2L2897.26,4500.43ZM2804.65,5086.96C2831.06,5089.63 2857.84,5091.46 2884.78,5092.41L2868.31,4954.36C2846.93,4953.41 2825.67,4952.01 2804.65,4950.15L2804.65,4985.83L2794.34,4985.83C2794.37,4985.28 2794.25,4985.23 2793.7,4984.2C2787.12,4971.92 2782.78,4959.67 2780.41,4947.79C2774.15,4947.12 2767.93,4946.42 2761.73,4945.67C2772.71,4961.18 2779.17,4980.11 2779.17,5000.54C2779.17,5015.52 2775.7,5029.69 2769.51,5042.3C2775.05,5056.95 2781.28,5071.27 2788.2,5085.18C2788.36,5085.2 2788.52,5085.22 2788.68,5085.23C2784.5,5050.53 2790.72,5019.18 2793.36,4996.66C2793.68,4993.64 2796.23,4991.34 2799.28,4991.34C2799.28,4991.33 2799.28,4991.33 2799.28,4991.33C2800.7,4991.33 2802.07,4991.9 2803.08,4992.91C2804.08,4993.91 2804.65,4995.28 2804.65,4996.7L2804.65,5086.96ZM2659.1,5092.29C2693.96,5126.03 2736.72,5157.55 2787.49,5185.72C2811.03,5189.23 2835.13,5191.81 2859.71,5193.39C2836.12,5169.31 2815.72,5142.16 2798.62,5112.79L2794.27,5112.79C2792.91,5108.12 2791.79,5103.49 2790.87,5098.91C2789.09,5095.59 2787.35,5092.24 2785.66,5088.87C2771.97,5087.27 2758.4,5085.44 2744.97,5083.39C2741.22,5082.81 2737.48,5082.22 2733.75,5081.61C2719.29,5090.49 2702.28,5095.62 2684.09,5095.62C2675.44,5095.62 2667.06,5094.46 2659.1,5092.29ZM2803.18,5112.79C2820.64,5142.39 2841.49,5169.67 2865.64,5193.75C2876.02,5194.35 2886.49,5194.76 2897.03,5195L2885.26,5096.38C2858.16,5095.44 2831.22,5093.62 2804.65,5090.94L2804.65,5112.79L2803.18,5112.79ZM2561.12,5037.45C2474.99,5005.79 2406.25,4962.41 2368.68,4909.51C2383.83,4961.77 2417.82,5009.89 2465.82,5051.15C2540.88,5115.68 2649.98,5163.38 2776.36,5183.98C2726.56,5155.41 2684.72,5123.57 2650.7,5089.58C2631.38,5082.32 2615.04,5068.95 2604.04,5051.83C2594.22,5048.84 2584.57,5045.71 2575.12,5042.44L2575.12,5109.29C2575.12,5111.22 2573.55,5112.79 2571.62,5112.79L2564.62,5112.79C2562.69,5112.79 2561.12,5111.22 2561.12,5109.29L2561.12,5037.45ZM2808,5545.13L2784.66,5545.13L2784.66,5457.16C2776.13,5465.14 2766.08,5471.03 2754.51,5474.86L2754.51,5453.67C2760.6,5451.68 2767.22,5447.9 2774.36,5442.33C2781.5,5436.77 2786.41,5430.28 2789.06,5422.85L2808,5422.85L2808,5545.13ZM2828.34,5524.55L2850.93,5522.06C2851.49,5526.66 2852.93,5530.06 2855.25,5532.28C2857.58,5534.49 2860.65,5535.6 2864.47,5535.6C2869.29,5535.6 2873.39,5533.39 2876.77,5528.95C2880.14,5524.52 2882.3,5515.33 2883.24,5501.38C2877.38,5508.19 2870.04,5511.59 2861.23,5511.59C2851.65,5511.59 2843.39,5507.9 2836.43,5500.5C2829.49,5493.11 2826.01,5483.49 2826.01,5471.64C2826.01,5459.29 2829.68,5449.33 2837.02,5441.77C2844.35,5434.21 2853.7,5430.43 2865.05,5430.43C2877.4,5430.43 2887.54,5435.21 2895.46,5444.76C2903.38,5454.32 2907.34,5470.03 2907.34,5491.9C2907.34,5514.17 2903.21,5530.23 2894.96,5540.09C2886.71,5549.94 2875.96,5554.87 2862.73,5554.87C2853.2,5554.87 2845.5,5552.34 2839.63,5547.27C2833.76,5542.2 2830,5534.63 2828.34,5524.55ZM2881.17,5473.55C2881.17,5466.02 2879.44,5460.17 2875.98,5456.02C2872.51,5451.86 2868.51,5449.79 2863.97,5449.79C2859.65,5449.79 2856.07,5451.49 2853.22,5454.9C2850.36,5458.3 2848.94,5463.88 2848.94,5471.64C2848.94,5479.5 2850.49,5485.27 2853.59,5488.96C2856.69,5492.64 2860.57,5494.48 2865.22,5494.48C2869.7,5494.48 2873.49,5492.71 2876.56,5489.16C2879.63,5485.62 2881.17,5480.41 2881.17,5473.55ZM2910.13,5458.75L2910.13,5437.07L2989.97,5437.07L2989.97,5454.01C2983.37,5460.49 2976.67,5469.8 2969.86,5481.92C2963.05,5494.05 2957.86,5506.94 2954.29,5520.59C2950.71,5534.24 2948.95,5546.44 2949.01,5557.19L2926.5,5557.19C2926.89,5540.35 2930.36,5523.18 2936.92,5505.68C2943.49,5488.18 2952.25,5472.54 2963.22,5458.75L2910.13,5458.75ZM2996.4,5446.7L2996.4,5425.01L3076.23,5425.01L3076.23,5441.96C3069.64,5448.44 3062.94,5457.74 3056.13,5469.87C3049.32,5482 3044.13,5494.89 3040.55,5508.54C3036.98,5522.19 3035.22,5534.39 3035.28,5545.13L3012.77,5545.13C3013.15,5528.3 3016.63,5511.13 3023.19,5493.63C3029.75,5476.13 3038.52,5460.48 3049.48,5446.7L2996.4,5446.7Z"/>
                </g>
            </g>
        </g>
    </g>
</svg>
