<svg viewBox="0 0 2025.03 2025.01" xmlns="http://www.w3.org/2000/svg"><g transform="translate(-10 -13)"><path d="m2032.83 987.64c.78 12.38 1.82 24.75 2.19 37.15.17 5.57-1.32 11.17-1.51 16.78-.28 8.3.13 16.63-.12 24.93-.43 13.84-.74 27.7-1.86 41.49-1.33 16.3-3 32.6-5.36 48.78-2.4 16.68-5.56 33.25-8.72 49.81-4 21.11-7.86 42.27-12.74 63.18-4 17.21-9.23 34.15-14.25 51.1a849.6 849.6 0 0 1 -34.41 94.8c-13.36 31-28.24 61.44-43.94 91.35-17.29 33-37.37 64.34-58.72 94.84-10.85 15.51-22.32 30.61-34 45.48-11.41 14.46-23.65 28.26-35.25 42.58-21.84 27-47.18 50.57-71.67 75-10.1 10.06-21 19.41-32 28.45-16 13.13-32.68 25.44-48.69 38.56-23 18.89-48.18 34.7-73 51-11.4 7.51-23.23 14.42-35.25 20.9-23.33 12.58-46.71 25.11-70.48 36.82a685.27 685.27 0 0 1 -69.63 29.86c-18.27 6.61-36.41 13.69-55 19.42-24.63 7.62-49.45 14.77-74.49 20.9-19.44 4.76-39.4 7.4-59 11.44a435.79 435.79 0 0 1 -47.52 7c-11.35 1.06-22.7 2.18-34 3.55a540.91 540.91 0 0 1 -67 3.62c-7.29 0-14.6 1.67-21.89 1.57-19.61-.27-39.23-.8-58.83-1.77-15.21-.74-30.44-1.86-45.58-3.6-15.6-1.8-31.11-4.5-46.64-6.9-15.24-2.35-30.6-4.21-45.68-7.36-23-4.8-45.91-10-68.62-16-19.89-5.24-39.66-11.14-59.09-17.87-22.19-7.68-44-16.57-65.88-25-28.59-11-55.85-24.91-82.9-39.12-19.81-10.41-39-22-58.14-33.65-15.38-9.37-30.44-19.31-45.24-29.57-15.54-10.77-30.89-21.86-45.82-33.46-15.72-12.21-30.76-25.27-45.95-38.15-26.26-22.29-50.1-47-74.2-71.41-13.78-14-26.59-29-39-44.26a1165.87 1165.87 0 0 1 -78.7-109c-9.52-14.94-18.22-30.43-26.65-46-10.54-19.49-20.78-39.15-30.47-59.07a712 712 0 0 1 -31.5-74.6c-5.79-16.41-12.46-32.54-17.55-49.15-7.58-24.95-14.71-50.06-21.08-75.36-4.08-16.32-6.33-33.1-9.43-49.66-2.3-12.28-5-24.49-6.86-36.83-1.71-11.26-2.35-22.68-3.82-34-2-15.15-2.45-30.42-3.95-45.55-1.17-11.83-.7-23.56-1.35-35.31-.51-9.15-1.36-18.29-1.62-27.45-.13-4.86.82-9.75 1-14.64.32-9.31.33-18.63.67-27.94.5-14.13.91-28.28 1.85-42.38.8-12 2-23.92 3.57-35.79 2-14.41 4.41-28.75 7-43.07 4.1-23.18 8.05-46.4 12.82-69.45 2.93-14.17 6.91-28.16 11.06-42 6-20 12-40 19-59.66 7.7-21.57 16.43-42.77 24.93-64.05 10.71-26.83 24-52.48 37.47-77.95 10.46-19.77 22.29-38.82 33.71-58.07 6.37-10.73 12.86-21.42 19.81-31.78 7.45-11.12 15.4-21.92 23.32-32.72 7.06-9.63 14.2-19.21 21.63-28.55 6.56-8.25 13.77-16 20.33-24.24 22.74-28.64 48.52-54.45 74.75-79.79 15.78-15.24 32.36-29.71 49.14-43.86 17.63-14.87 35.36-29.74 54.08-43.16 20.05-14.37 39.83-29.23 61.54-41.25 14-7.73 27.13-16.94 41.09-24.7 16.8-9.35 34-17.94 51.15-26.73a586 586 0 0 1 65.32-29c24.22-8.9 48.25-18.39 72.78-26.35 24.25-7.85 48.89-14.57 73.58-20.91 17.14-4.4 34.6-7.61 52-10.77 12.89-2.35 26-3.75 38.94-5.59 12.4-1.75 24.77-3.85 37.22-5.2 10.21-1.1 20.52-1.34 30.8-1.89 18.18-1 36.35-2.35 54.55-2.67 12.14-.21 24.28-1.69 36.54.58 7.46 1.38 15.39.15 23.11.32a418.28 418.28 0 0 1 47 3.41c8.12 1.11 16.39 1.11 24.56 2 7.23.77 14.4 2.07 21.61 3.08 5.49.77 11 1.47 16.48 2.18 19.33 2.5 38.35 6.61 57.45 10.42 26.79 5.35 53.07 12.46 79.3 19.92a858.78 858.78 0 0 1 101.49 36.34c30 12.76 59.35 27.18 88.25 42.28 27.82 14.53 54.38 31.34 80.56 48.76 18.19 12.09 36.13 24.49 53.32 37.9s33.4 27.5 50.22 41.1c27.55 22.29 51.71 48.13 76.51 73.27 11.82 12 22.37 25.26 33.12 38.27 15.26 18.47 31.07 36.57 45 56 17.39 24.33 33.3 49.74 49.45 74.94 18.58 29 34 59.73 48.89 90.72 11.67 24.35 22.57 49.06 31.42 74.63 5.87 17 12.53 33.74 17.82 50.9 7.51 24.37 14.74 48.86 20.84 73.6 4.72 19.15 7.33 38.82 11.22 58.18a451.82 451.82 0 0 1 7.13 48.41c1 11 2.29 22.08 3.47 33.12s2.61 22.06 3.44 33.13c.51 6.79.09 13.65.09 20.48zm-409.25 252.64c-3.11-10.75-1.86-21.64.48-32.13 3.66-16.42 8.74-32.5 16.25-47.68 1.26-2.55 2.41-5.16 3.8-8.15-5.15-2.52-9.88-4.21-13.91-7-7.71-5.23-15.89-10.21-22.28-16.83a63.28 63.28 0 0 1 -17.67-41.77c-.77-19-2.15-38.26 3.15-57.13 8.43-30 24.13-54.85 50-72.73 10-6.94 20.17-13.76 31.81-17.9.85-.31 1.42-1.38 2.66-2.65l-8.39-1.75c-1.58-6.1-3.44-12.2-4.69-18.41-2.46-12.26-4.91-24.37-11.19-35.52-7.44-13.19-14.11-26.81-21-40.28-3.17-6.16-7.25-12.07-3.71-19.73.63-1.35-.92-4.85-2.47-5.89-9.78-6.63-17.39-15.53-25.16-24.15a79 79 0 0 1 -12.76-18.7c-7.7-16.23-12.53-33.23-11.11-51.64.75-9.68 2-19.25 6-28 6-13.23 12.62-26.19 19.49-39 2.4-4.48 6.3-8.15 10-12.76 3.76 3 6.71 5.33 9.6 7.72 4.38 3.61 10 3.15 12.94-1.5a17.27 17.27 0 0 0 2.59-7.3c.85-8.46 1.31-17 1.87-25.44.14-2.07-.21-4.21.19-6.22a4.19 4.19 0 0 1 6.82-2.66 32.11 32.11 0 0 1 5.36 5.85c8.85 11.62 16.65 24.07 27.54 34.06 3.93 3.61 8.09 6.57 13.29 8s8.75-.72 9.09-5.95a22.07 22.07 0 0 0 -.63-5.2c-2.58-14.32-10.17-26.43-17.22-38.77-3.33-5.82-5-12.07-2.51-18.44 2.34-6 5.34-11.66 10.4-16.08 2.49-2.17 5.69-4.14 6.4-7.89-.87-.41-1.46-1-1.88-.85-10.77 2.66-12.46 1.74-15.92-8.73-.54-1.65-1.53-3.27-1.61-4.94-.62-13.86-.19-27.7 2.38-41.36 1.23-6.54 1.19-8.43-3.87-11-14.59-7.35-26.24-18.21-36.76-30.37-5.36-6.2-10.62-13.15-11.45-21.27a104.4 104.4 0 0 1 2.76-36.72c3-11.79 5.23-23.82 7.53-35.79.61-3.18.2-6-3.65-8-15.26-7.9-30.22-16.36-45.41-24.4-3.29-1.75-7-3.43-10.61-3.75-17-1.51-34.06-2.55-51.1-3.74-9.08-.64-18.19-1-27.24-1.93-6.57-.67-13.08-2.06-19.6-3.12-5.28 8.14-10.46 16.15-16 24.78h95.36v604.53c0 9.2.17 18.41-.05 27.61-.2 8.65-.95 17.29-1.18 25.94-.2 7.85 0 15.7 0 23.56s.18 15.61.09 23.41c-.09 8.09-.51 16.18-.61 24.27-.11 9.2 0 18.41 0 27.61v164.75c0 9.2-.17 18.41.05 27.6.21 8.88-1 17.87 2.34 26.85 4.81-11.3 9.62-22.61 14.56-34.19 2 .67 3.77.72 4.57 1.64 3.08 3.5 5.78 7.33 8.73 11 5.2 6.4 9.86 13.36 17.32 17.67 3.53-7 .17-20.17-6-24.43-3.34-2.31-6.81-4.44-10-6.92s-3.41-4.84-1-8.94c6.22-10.81 12.49-21.71 15.91-33.91 1.65-5.9 3.78-11.66 5.76-17.69l12 10.3c1 2 1.7 4.29 3.16 5.87a156.9 156.9 0 0 0 28.75 24.49c5.31 3.54 5.7 5.89 2.13 11.19-1.62 2.42-3.88 4.55-5 7.17-1.28 3.14-2.53 6.78-2.15 10 .57 4.79 2.58 9.41 4.38 15.5 2-1.7 4-2.55 4.47-3.93 2.51-6.78 4.59-13.71 6.91-20.55 1.6-4.76 1.26-10.31 5.08-14.2 1.42.29 2.56.17 3.07.68 10.77 10.62 21.91 20.93 32 32.19a29.37 29.37 0 0 1 7.2 16.4c.37 5.65-2 12.12-4.92 17.25-8.4 14.77-9.44 30.49-8.28 46.79l6.15 3c4.24-5.11 8.63-9.86 12.36-15.07 3-4.23 5.19-9.09 7.89-13.57 3.42-5.66 6.65-11.55 13.65-14.94.9 3.35 1.83 6.07 2.36 8.87 1.87 9.69 3.4 19.46 5.49 29.1a20.79 20.79 0 0 0 4.2 8.41c4.4 5.38 7.66 5.62 12.34.45 7.83-8.65 8.52-6.18 15.79 1.25 1 1 1.43 2.51 2.15 3.76 4.1 7 7.86 14.29 12.37 21 10.61 15.93 17.86 32.94 21.07 52a102.37 102.37 0 0 1 -3.29 48.51c-4.78 15.16-13.63 27.91-24.57 39.49-8.07 8.55-17.06 15.33-28.2 18.84-4.65 1.47-10.06.58-14.63 2.19-11.43 4-22.51-.23-33.64-.88-9.92-.57-19.68-3.82-29.76-5.93-1.51 3.59-2.75 6.81-4.18 9.94-11.08 24.27-28.21 44.35-46 63.55-23.82 25.65-48.88 50.16-78.17 69.86-3.65 2.45-7.07 5.46-8.64 10.3s-4.6 9.41-6.84 14.16c-3.4 7.2-9.64 11.08-16.76 13.1-5.27 1.49-11 1.12-16.49 2.1-8.56 1.55-17.1 3.31-25.52 5.47-2.81.72-5.23 2.92-9.49 5.43 4.53 2.28 7.14 4.33 10 4.92 11.74 2.37 23.55 3 35.45.64 5-1 10.3-1.6 15.49 2.8-3.09 1.56-5.68 2.78-8.18 4.16-6.11 3.39-12 7.13-18.33 10.19-4.24 2.06-4.51 4.79-3.2 8.56l12 3.44c-1 2.16-1.48 4.38-2.81 5.74-9.22 9.45-17.84 19.72-28.14 27.83-20.44 16.11-44.79 23.16-70.33 25.69a122.16 122.16 0 0 1 -42-3.57c-11.9-3-23.14-7.88-30.38-18.82a12.58 12.58 0 0 0 -3.08 1.25 65.82 65.82 0 0 1 -31 12.77c-6 .91-12 2-18 2.88-11 1.6-22 4-33.1.51a14.35 14.35 0 0 0 -7.93-.06c-4.79 1.43-10.4.3-15 4.51 14.14 8 29.93 7.08 44.57 11.31-8.74 3.49-18.39 3.68-27.79 9l10.33 7c-8.34 4.8-15.83 9.94-24 13.56s-16.92 5.68-25.47 8.44l4.83 8.34-46.52 65.62c7.24-1.35 12.25-2.3 17.26-3.22 17.15-3.13 34.53-5.33 51.39-9.57 32.31-8.13 64.49-16.7 96-27.66 33.49-11.63 66.5-24.38 98.5-39.5 25.78-12.2 51.13-25.44 76-39.51 20.45-11.59 39.92-24.92 59.65-37.77 10.23-6.66 20.19-13.76 30-21 10.09-7.43 20-15.13 29.74-23 8.46-6.78 16.69-13.84 24.89-20.93 6.23-5.38 12.27-11 18.37-16.52 12-10.86 24.2-21.45 35.79-32.71 10.52-10.21 20.38-21.1 30.43-31.79q10.17-10.8 20-21.86c4.11-4.58 8.15-9.24 12-14 5.81-7.29 11.47-14.69 17.1-22.12 10.55-13.92 21.42-27.61 31.42-41.91 10.83-15.48 21.29-31.26 31.08-47.42 13.55-22.38 27.09-44.82 39.18-68 11.15-21.37 20.72-43.6 30.33-65.74 7.39-17 14-34.37 20.53-51.74a719.35 719.35 0 0 0 23.09-73.86c4.27-16.56 8.79-33.08 12.3-49.81 3.64-17.35 6.33-34.9 9.16-52.41 2-12.36 3.64-24.77 5.21-37.19.89-7 1.29-14 1.92-21 1.15-12.82 2.52-25.63 3.41-38.47.87-12.32 1.3-24.68 1.78-37 .06-1.7-.73-3.44-1.57-7.1-2.45 5-4.21 8-5.42 11.19-5.93 15.55-17.7 26.29-34.18 24.57-6.41-.66-12.81-1.37-19.23-1.73a91.51 91.51 0 0 0 -48.12 10.67c-3.34 1.75-7.29 4-7 8.28.33 4.81 5.07 5.94 8.77 7.61.5.23 1.18 0 1.76.14 9.75 2 19.51 3.55 29.53 3.67a91.76 91.76 0 0 1 19.13 2.2c3.49.79 8.25 1.13 9.6 6.76-4.71 3.86-9.28 8-14.28 11.58-5.91 4.19-12.43 7.52-18.24 11.83s-11 9.73-12.58 17.47c-.91 4.32 0 7.26 3.94 9.2a84.39 84.39 0 0 0 8.11 3.13c6.92 2.53 8.58 6 5.55 12.85a99.6 99.6 0 0 1 -6.21 11.5c-5 8.19-10.32 16.19-15.24 24.42-11.89 19.93-26.29 37.64-45.81 50.53-11.91 7.86-24.69 14.42-38.74 17.45-11.26 2.43-22.78 3.66-34.45 5.46 5.34 13.77 14.52 25.71 23 38.08 7.09 10.29 14.06 20.71 20.34 31.5 4.94 8.5 5.48 17.57.57 26.74-2.45 4.56-3.66 9.77-5.68 14.58-4 9.36-8 18.69-12.22 27.93-.61 1.33-2.52 2-5.16 4.08-1.48-9.54-2.81-17.24-3.83-25-.84-6.38-1.14-12.84-2-19.21-.59-4.29-1.13-8.78-2.82-12.69-3.58-8.29-7.64-16.4-12-24.33-8.36-15.32-17.21-30.38-25.51-45.73-3.45-6.37-5.69-13.27-2.86-20.92-7.05-2.39-13.57-4.66-20.13-6.81-20.1-6.59-34-20.16-42.26-39.18-4.45-10.3-7-21.44-10-32.33-3-11.06-5.38-22.29-8.44-35.16-4.31 7.37-8.16 13.08-11.12 19.22-7.19 14.93-14 30.07-20.9 45.13-3.13 6.6-6.06 13.23-15.13 12.33zm-543.79-1024.17-28.88-35.8c3-3.47 7.59-1.06 11.42-2q19-4.75 37.85-9.8c6.42-1.71 8.5-1.26 11.27 4.54 3.25 6.81 8.6 10 15.79 10.74 2.13.22 4.25.48 7.85.89-2.07-3.7-3-6.94-5.18-9-5.33-5.1-11.18-9.67-17.13-14.71 1.43-.77 2.6-1.78 3.92-2.06 12.51-2.57 25.06-5 37.58-7.5 12.73-2.57 22.29 2.09 29.45 12.61 5.75 8.44 13.82 14.16 22.87 18.54a13 13 0 0 0 5.92 1.12c4.19-.15 5.89-2.46 4.46-6.44-1.37-3.77-3.46-7.29-5.21-10.93-3.31-6.92-9-12.73-9.89-22 4.08.88 7.71 1.41 11.19 2.47 8.31 2.54 16.55 5.34 24.83 8a11.7 11.7 0 0 0 12.23-2.88c2.8-2.7 1.09-6-.25-9-.32-.71 0-1.71.13-3.49 4.76-.64 9.58-1.72 14.43-1.86 9.79-.3 19.59-.12 29.39-.08a130.12 130.12 0 0 1 42.07 7.11c21.39 7.33 38.17 20 47.41 41.27 5.7 13.12 7.7 26.4-.27 39.2a105.77 105.77 0 0 1 -14.55 18.6c-6.36 6.4-13.94 11.58-20.71 17.59-4.37 3.88-9.59 7.59-8 14.95 8.27 1.25 16.61 2.53 25 3.77 7.77 1.14 15.56 2.22 23.33 3.34 8.65 1.26 17.32 2.4 25.94 3.83 8.31 1.38 16.56 3.1 24.84 4.63 9.09 1.68 18 4.68 27.61 4.07 3.24-10.08 9.91-17.4 18-22.67a149.13 149.13 0 0 1 28-14.09c20.78-8 41.94-13.2 64.81-9.65 19.23 3 35.37 11.22 49.5 23.88 13.72 12.29 23.15 27.72 30.93 44.29 5 10.63 6.66 21.49 3.78 33.52 2.41 1.81 5.11 3.55 7.48 5.66 9.55 8.52 20.18 15.54 28.53 25.78 12.29 15.07 16.78 32.24 18.88 50.68.62 5.51 1.32 11 1.65 16.56.27 4.44 1 9.2-.18 13.29-2.44 8.23-1 16.31-1.3 25.31l47.83 11.22c-5.85 6.68-11.35 13-16.75 19.16l-34.44-8.17c-2.49 13.76-5 27.61-7.84 43.4l13.14-9.93c6.24 13.66 8.35 28 18.18 38.61 6.26-8.15 6.44-16.9 1-24.13-3.26-4.34-6.18-8.94-9.68-14 18.51-10.51 32.1-25.35 46.12-41 7.08 21.51 18.33 39.66 31.52 57.3-3.91 3.06-7 6.47-10.86 8.28-8.69 4.1-8.25 11.88-8.86 19.34-.21 2.66 1.15 4.47 5.24 5.07l23.56-28.75c2 1.88 4.55 3.34 5.69 5.54 6.45 12.36 12.88 24.77 18.65 37.46 2.86 6.27 2.73 13.14-1.53 19.11-2.37 3.32-4.83 7.05-8.16 9.12-6.21 3.86-10.56 9.25-14.54 15-4.11 5.93-8.28 11.87-9.56 19.33-.88 5.18 0 6.65 5.16 6.88 5.37.25 9.42-2.69 13.63-5.28 10.6-6.51 19.65-15.58 32.89-19.9.6 2.18 2 4.4 1.58 6.25-1.73 8.21-4.17 16.26-5.92 24.47a35.57 35.57 0 0 0 -.67 11.4c.9 7.66 6.58 11.17 13.81 9 2.73-.81 5.39-1.86 9-3.12 1.88 3.35 4.35 6.38 5.37 9.84 2 6.94 3.29 14.11 4.88 21.18 2.87 12.81 5.77 25.63 5.88 38.82 0 4-1.3 8.05-1.64 12.11a77.94 77.94 0 0 1 -18.48 44.39c-14.17 16.85-32.7 27.28-53.51 33.54-7.21 2.16-15 4-22.61 2.2-11.25-2.65-22.29-6.19-33.44-9.31a32.26 32.26 0 0 0 -4.23-.52c3.56 5.43 6.48 10.07 9.59 14.56 4.66 6.72 5.3 13.67 2.07 21.18-1.14 2.64-1.58 5.58-2.35 8.37-4.24 15.25-8.49 30.49-13 46.64 2.59-1.07 5.49-1.63 7.58-3.25 5.09-4 9.92-8.27 14.62-12.7 5.39-5.1 10.44-10.56 15.82-15.67 1.5-1.42 3.66-2.15 5.49-3.19 6 9.64 1.61 18.81.92 27.43-.81 10.12-2.89 20.18-3.06 30.48-.12 7.09 2.27 13.2 5.51 19.11 3 5.54 8.23 7 13.14 3.25a48.87 48.87 0 0 0 9.86-10.09c9.11-12.47 13.3-27 16.2-41.9 3.35-17.22 12.65-29.33 30.42-32.87 10.16-2 20.59-2.8 30.94-3.72 5.6-.5 11.27-.18 16.91-.15 2.94 0 5.87.17 9.12.28-.33 2.2-.27 3.44-.72 4.46-2.71 6.12-5.82 12.07-8.24 18.3-2.92 7.55-5.38 15.29-7.81 23-.42 1.34-.17 4.06.51 4.33a8.24 8.24 0 0 0 5.5.12c1.54-.56 2.45-2.67 4-3.46 10.41-5.44 13.3-14.74 13.87-25.55.21-4.21 1.42-8.36 2.06-11.87l51.77 1.52c-.88-6.12-1.65-10.89-2.24-15.67-1.29-10.44-1.94-21-3.86-31.3-3-16.26-7.16-32.3-10.28-48.53-4.55-23.68-10.92-46.87-17.82-69.92-5.9-19.72-12.54-39.19-19.57-58.56a809.11 809.11 0 0 0 -33.9-80.19c-12-24.58-24.27-49.14-38-72.78-14-24.12-29.6-47.31-45.46-70.33-17.42-25.27-37-48.74-56.06-72.67a440 440 0 0 0 -30.92-34.54c-23-23.38-45.74-47.06-71.21-67.86-13.59-11.09-26.87-22.57-40.67-33.39s-27.7-21.34-42-31.32q-22.17-15.45-45.24-29.55c-18.86-11.54-37.75-23.13-57.33-33.34-22.19-11.57-44.93-22.15-67.85-32.21-20.18-8.85-40.76-16.87-61.48-24.38-18.8-6.81-37.9-12.91-57.13-18.44-18.37-5.29-37-9.68-55.65-14-15-3.48-30.08-6.66-45.24-9.23-14.08-2.37-28.33-3.75-42.51-5.58-13.59-1.74-27.14-4-40.78-5.1-15.27-1.21-30.63-1.33-45.94-1.93a40.86 40.86 0 0 1 -5.32-.32c-17.22-2.94-34.59-1.52-51.86-1.23s-34.54 2.2-51.82 3.32c-10.27.67-20.54 1.22-30.81 1.82-.59 0-1.19 0-1.78.1-11.81 1.74-23.61 3.5-35.42 5.21-9.23 1.34-18.55 2.24-27.7 4-13.1 2.5-26.12 5.45-39.12 8.47-17.52 4.06-35.06 8.05-52.44 12.65-15.12 4-30.17 8.4-45 13.38-15.11 5.08-29.82 11.34-44.86 16.64a583.3 583.3 0 0 0 -62.55 26.45q-29.44 14.41-58.31 30c-15.84 8.58-31.63 17.39-46.7 27.23-34.15 22.29-68.21 44.75-98.92 71.84-15.28 13.47-31.84 25.57-46.4 39.76-24.76 24.11-49.66 48.11-71.91 74.73-11.94 14.28-23.87 28.54-35.57 43-14.65 18.14-27.88 37.28-40.82 56.63-7 10.4-13.9 20.82-20.34 31.53-9.14 15.2-18.21 30.46-26.55 46.1-9.31 17.45-17.89 35.3-26.57 53.08-4.2 8.61-8.18 17.36-11.8 26.23-7.22 17.73-14.62 35.41-21 53.43q-10.92 30.36-20 61.27c-5.19 17.8-9.52 35.87-13.59 54-3.69 16.42-6.55 33-9.72 49.58-1.8 9.41-3.69 18.82-5.12 28.29-1 6.87-1.39 13.83-2.11 21.44 3.81.72 6.86 1.67 9.93 1.79 6.52.26 13.07.3 19.59 0 5.83-.26 11.66-.91 17.44-1.68 7.15-1 9.3.29 11.27 7.5a17.14 17.14 0 0 1 .63 5.22c-.72 12.54 5.3 21.07 15.72 27.18 2.17 1.27 3.69 4.14 7.81 1.32-.56-3.07-1.05-6.74-1.93-10.31-2.57-10.53-7.18-20.24-12.09-29.84-1.52-3-3.94-6.06-1.09-9.74 18.6-1 37.13-.61 55.29 3.51 11 2.49 20.82 7.65 25.29 19.12a142.77 142.77 0 0 1 5.4 16.47c4 15.54 7.89 30.9 19 43.43 3.83 4.29 7.72 7.1 13.31 8.16 13.23-9.22 12.78-22.79 11.89-36.44-.19-2.88-.94-5.73-1.41-8.59-1.14-6.89-2.65-13.74-3.28-20.67-.5-5.57-1.84-11.66 3.51-16.85 3 2.35 6 4.25 8.48 6.62 5.8 5.54 11.05 11.68 17.15 16.84 4.84 4.11 9.31 9.27 17.15 10.9-.65-2.64-.91-4.28-1.46-5.81-1.28-3.55-3-7-4-10.58-3.55-12.55-7-25.12-10.23-37.76-1.53-6.07-4.23-12.2.85-18.3 2.89-3.48 4.74-7.83 7-11.79 1.15-2 2.27-4 4.06-7.13l-16.15 5.71c-8.56 3-17.41 5.32-26.42 5.28-16.4-.08-31.29-6.08-45.36-14-9.16-5.14-16.73-12.32-23.88-20.06-14.4-15.57-20.39-34.34-21.73-54.93-1-15.06 2.38-29.63 6-44.13 1.68-6.75 2.75-13.66 4.69-20.33 2.69-9.23 3.35-9.36 12.11-6.66 2.2.68 4.57 1.85 6.69 1.54 2.37-.34 5.54-1.51 6.59-3.34 2.29-4 4-8.44 2.72-13.37q-3.39-13.49-6.5-27c-.68-3-.7-6 3.34-7.72a169.08 169.08 0 0 1 26.87 17c6.47 4.87 13.3 9.56 22.42 7.37a18.08 18.08 0 0 0 -1.61-13c-3.74-7.37-8.09-14.21-14.25-19.87-4.59-4.22-8.87-8.76-13.26-13.19-5.64-5.7-7-12.11-4.78-20 4.55-16.26 14.61-29.68 21.93-44.5.29-.59 1.47-.74 2.53-1.23 9.42 9.07 14.9 21.84 27.73 29.5.71-3.33 1.65-5.72 1.61-8.1a29.52 29.52 0 0 0 -1.6-7.62c-1.07-3.59-2.12-6.82-6.17-8.92-4.48-2.32-8.13-6.23-11.68-9.08 6.38-9.79 12.61-18.27 17.68-27.39 5.18-9.29 9.23-19.21 13.84-29 12.77 13.15 24.14 26.83 39.31 36.49 5 3.16 5.24 6.09 1.72 11.13a48.43 48.43 0 0 1 -4.85 5.2c-4.09 4.31-3.54 9.69-3.52 15 0 4.05-.21 8.13 4.2 11.05 10.66-10.54 10.61-26.3 19.26-38.68l10.88 8.26c-2.91-14.55-2.38-29.21-7.26-41.92l-33.91 7.79-16.76-18.86c4.48-1 7.61-1.6 10.68-2.4 11.21-2.94 22.38-6 33.62-8.86 3.21-.81 4.53-2.69 4.22-5.71-.42-4.05-1.47-8.06-1.65-12.11-.69-15.36-.56-30.8 2-45.91 3.37-19.95 11.5-37.94 27-51.72 6.77-6 13.5-12.28 21.09-17.12 4.36-2.79 5.37-5.63 5-10-.7-9.49 0-18.86 4-27.56a190.85 190.85 0 0 1 9.87-17.61c10.71-17.94 24.72-32.46 43.46-42.24 10-5.21 20.55-7.3 31.55-9.38 11.81-2.23 22.75 0 33.93 1.54 15.4 2.12 29.42 9 43.23 15.54 7.73 3.68 16.08 7.48 21.37 15.05 3.32 4.73 6.57 9.51 10.62 15.4 40.57-8.07 82-15.56 123.39-19.94 2.25-5.94.64-9.68-3.31-12.65-4.19-3.13-8.66-5.94-12.55-9.41-10.12-9-20.29-18.27-26.72-30.34-3.49-6.57-6-14.23-4.34-22.05 4.14-19.41 12.6-35.85 30.11-47.12 18.58-12 39.11-16.17 60.48-17.51 12.12-.76 24.33-.07 36.5-.18 4.3 0 8.12.73 11 4.09-2.29 10.3 2.66 15.74 12.19 13.36 4.77-1.19 9.41-2.94 14.11-4.42 6.53-2 13.07-4.08 20.92-6.52-.52 3.54-.37 5.94-1.26 7.85-2 4.2-4.71 8-6.68 12.23-2.84 6.08-8.31 11.5-5.86 19.25 5.91 1.22 10.34-.37 15.19-3.38 9.17-5.68 16.11-13.43 22.71-21.57 5.34-6.57 12.9-8.57 20.07-7.93 10.89 1 21.58 4.28 32.35 6.55 4.11.87 8.24 1.64 13 2.57-5.67 10.15-18.07 12.8-21.39 24.29 9.88-.21 18.59-.67 22.89-11.3 1.85-4.6 5-5.64 9.45-4.33 16.18 4.82 32.31 9.75 49.35 10.56 1 .05 1.87 1.27 3.36 2.36-11.18 10.34-21.23 21.3-28.34 35.56-4.21-1-8.25-1.65-12-3.07-9.16-3.5-19-2.25-25.59 4.16 12.79 4.44 25.81 4.88 40.43 5.85-7.3 8.82-13.06 17.18-20.24 24-6.55 6.27-14.72 10.71-24.64 9.15-12.66-2-25.33-3.86-38-5.92-6-1-11.43-.19-16.45 3a14.53 14.53 0 0 0 6.62 9.23c9.57 6.55 20.48 9.49 31.09 13.38 6.62 2.42 13.65 4.09 20.28 9.58-4.43 1.14-7.68 2.13-11 2.78-6.85 1.34-14 1.76-20.52 4-4.74 1.59-11 2.88-11.57 10.6l11.95 7.86c-2.73 6.69-8.82 8.32-13.59 11.43-13.12 8.56-25.75 18.07-41.33 22.1-1.54.39-2.75 2.07-4.11 3.15l.57 1.52h7.87c22.26 0 44.54-.36 66.79.21 7 .17 11-2.9 14.93-7.56 8.8-10.55 17.53-21.18 26.44-31.65 5.14-6 10.67-11.75 15.86-17.76q15.81-18.28 31.43-36.68c5.67-6.69 11.15-13.54 16.85-20.21a76.78 76.78 0 0 1 6.1-5.81 9.55 9.55 0 0 1 2.08 1.2c10.92 12.64 21.75 25.36 32.75 37.93 6.2 7.09 12.85 13.8 19 20.93 9.36 10.86 18.31 22.07 27.72 32.89 7.16 8.22 15 15.83 22 24.15 2.88 3.41 5.9 4.11 9.84 3.88 4.52-.27 9-.3 13.57-.39l61.65-1.13c-11.95-5.1-24.25-8.59-34.51-15.23-10.54-6.84-22.95-11.56-31.92-22.72a83 83 0 0 1 7.87-4.65c2.46-1.1 3.73-2.58 3.78-5.31.06-3.17-1.39-4.9-4.37-5.74-5.84-1.64-11.6-3.59-17.48-5.07-6.31-1.58-12.73-2.77-19.77-4.27 6.88-6.74 16-9 25-11.71 12.18-3.63 23.63-8.35 32.1-18.48l-1.81-4c-5-.88-9.43-2.74-13.53-2.17-10.31 1.43-20.44 4.16-30.7 6-10 1.77-19.9 2.11-28.53-4.61s-15.13-15.47-21.49-24.26a17.79 17.79 0 0 1 -1.44-3.16l37.25-4.69c0-2.06.32-3.54 0-3.74-5-2.73-10.27-5.05-16.1-3.87-6.5 1.24-12.91 3.04-18.12 4.35zm20 790.31c1.87 4.32 4.92 3 7.35 3q70.18 0 140.38-.17 85-.09 170.09-.11 55 0 110 .33c6.74 0 6.82.14 7.06-6 .08-1.78 0-3.56 0-5.34 0-60 .16-119.94-.14-179.91-.06-12.19.88-24.33.57-36.55-.41-16.38 1.26-32.8 1.28-49.2q.19-171.88 0-343.78c0-2.26-.38-4.51-.55-6.47a7.46 7.46 0 0 0 -1.45-.51q-56.12-.09-112.22-.11a12.78 12.78 0 0 0 -5.72 1.57 110 110 0 0 1 -44.11 12.43c-9.45.71-16.23 4.23-20.32 12.7-2.71 5.62-7 8.84-13 10.83-10 3.33-20.29 4.94-30.42 7.39-5.47 1.32-8.28.78-10.6-3.57 1.06-6.24 3.39-10 10.83-9.75 5.64.2 11.47-1.66 17-3.27 3.49-1 7.76-2.47 9.68-5.15 5-7 8.87-14.79 13.43-22.65a48.49 48.49 0 0 0 -5.75-.56c-19.38.28-38.75.68-58.13.94-24.76.32-49.53.65-74.3.78-25.53.13-51.06 0-76.59 0-3.17 0-6.42.65-9.06-2.31-3.54-4-7.72-7.42-11.21-11.45-10-11.5-19.68-23.23-29.59-34.79-7.83-9.13-15.78-18.15-23.75-27.16-.46-.52-1.6-.44-3.38-.89v611.11a61.6 61.6 0 0 0 .06 6.23 31.9 31.9 0 0 0 1.41 4.94c7.67-9.34 14.62-18 21.75-26.42 7.36-8.75 15-17.28 22.32-26 7.87-9.41 15.65-18.9 23.24-28.54 4.31-5.48 9.09-10.9 7.86-18.8-1.07-6.9-2.12-13.82-3-20.76s-2.4-13.89 4.06-19.62c3.18-2.83 5.17-7 7.87-10.39q11.67-14.77 23.49-29.45c7.69-9.56 15.5-19 23.16-28.62 2.52-3.16 1.48-6.37-2.47-7.36-3.66-.93-7.45-1.27-11.17-2-6.13-1.13-12.25-2.32-19-3.61l86.47-103.17c2 5.93 3.81 11.14 5.64 16.34.66 1.89 1.13 4 2.27 5.55 4.5 6.21 7.58 6.31 12.51.39 3.66-4.41 7-9 10.78-13.86l70.75 58.22-14.18 18.44 156.01 56.54-116.64 177.91c-7.92-10.64-15.27-20.06-22.12-29.82-15.87-22.59-31.46-45.39-47.3-68a14.84 14.84 0 0 0 -9.86-6.55c-17.32-3.5-34.44-8-51.68-12-3.36-.77-6.64-.36-7.67 3.9-.6 2.52-1.53 5-1.6 7.58-.21 7.72-.19 15.44 0 23.16a15.35 15.35 0 0 1 -3.58 10.53c-5.39 6.54-10.72 13.13-16.11 19.67-11.15 13.55-22.35 27-33.47 40.61-13.15 16-26.17 32.21-39.36 48.22-12.49 15.15-25.1 30.13-37.8 45.36zm-215.88 229.58c.88 2 1.2 3.5 2 4.55 3.3 4.11 6.78 8.08 10.17 12.12 9 10.77 17.93 21.61 27 32.29 5.35 6.26 11.05 12.21 16.48 18.4 2.72 3.1 2.59 5.14-.56 7.4-7.07 5.07-14.19 10.09-21.44 14.91-14 9.34-28.2 18.52-42.31 27.77-22.1 14.5-44.3 28.87-66.28 43.56-12.58 8.41-25.07 17-37.1 26.15-13.25 10.09-26 20.83-38.8 31.49-12.15 10.12-24.11 20.47-36.12 30.77-5.12 4.4-10.16 8.9-15.2 13.39-2.66 2.37-4 .77-5.36-1.61 8.76-10 17.48-19.92 26.17-29.87 4.06-4.64 8.09-9.29 12.06-14 8.85-10.52 17.53-21.18 26.5-31.59 9.21-10.68 18.81-21 28-31.71 8.56-10 16.63-20.39 25.2-30.37 9.39-10.91 19.15-21.49 28.63-32.33 1.87-2.13 3.19-4.75 4.73-7.1l-21.18-20.72c-7.22 6.56-14.47 13.48-22.09 20-9.11 7.76-18.53 15.16-27.84 22.69-5 4-10.07 7.94-15 12-8.35 6.9-16.78 13.72-24.91 20.87s-16.21 14.6-24 22.2c-14.06 13.67-27.87 27.57-41.86 41.3-1.1 1.07-2.77 1.55-6 3.27 1.46-3.39 1.85-5.39 3-6.76 12.54-15.08 25.59-29.75 37.71-45.15 11.87-15.09 22.89-30.86 34.16-46.41q13.58-18.74 26.86-37.68c8-11.41 15.8-23 23.9-34.37 1.8-2.53 2.63-4.48.36-7-5.7-6.28-11.35-12.59-16.78-18.63-24.2 23.31-48.19 46.21-71.94 69.35-31.11 30.3-62 60.8-93.07 91.17a26.93 26.93 0 0 1 -4.46 3c-.65-2-.43-3 .17-3.82 4.66-6 9.67-11.74 14.06-17.92 15.31-21.58 30.74-43.09 45.48-65 11.16-16.63 21.47-33.84 31.91-51 6.81-11.17 13.08-22.66 19.73-33.93q14.86-25.17 29.93-50.22 14-23.13 28.29-46.05c3.53-5.67 3.85-5.73 9.15-2 16.85 11.95 33.54 24.11 50.4 36 4.41 3.13 8.34 7.39 14.22 7.6 4.28-4.26 2.92-9.49 3.19-14.39.57-10-1.39-20 1.7-29.92 1.73-5.56 3-7 9.11-5.48 7.3 1.78 14.43 4.28 21.64 6.46l15.85 4.81c-3.18-9.71-5.88-17.89-8.53-26.08-1.42-4.42-3.21-8.78-4-13.31-1.05-5.86 1.94-8.74 7.86-7.81 6.59 1 13.12 2.49 19.64 3.9 8.18 1.78 8.59 1.67 13.34-5.42 4.21-6.29 8.46-12.54 12.58-18.87 1.39-2.13 2.43-4.47 3.75-7a16.13 16.13 0 0 0 -3.19-.82q-202.6 0-405.21.16c-.23 0-.47.31-.68.5s-.42.41-1 1v10.31q0 135.38 0 270.74c0 21.76-.09 43.5 1.89 65.19.31 3.37 1.53 6.67 2.37 10.22l5.56-1.83c5 5.34 5.59 12.06 6.21 18.7.38 4.11.08 8.28.51 12.39.88 8.41 1.91 16.8 3.15 25.16.68 4.57 1.13 9.41 3 13.49a179.67 179.67 0 0 0 13 23.67c9.8 14.71 20.46 28.76 34.37 40 9.23 7.47 17.63 16.05 27.24 23 28 20.15 59.25 34.58 90.84 48 24.55 10.4 49.68 19.48 74.75 28.59 32.17 11.69 64.46 23.08 95.64 37.26 20.09 9.13 40.52 17.71 59.8 28.35a367.38 367.38 0 0 1 58.61 39.58c.64-.81 1.63-1.49 1.66-2.2.29-6.24.64-12.48.51-18.72-.33-17-1.91-34-1.14-51 1.34-29.54.85-59.09.66-88.59-.24-39.93-.09-79.89-.42-119.82-.25-29.48.45-59.07.44-88.57 0-32.88.13-65.77-.53-98.66-.71-35 .72-70.09 1-105.14.14-16.73-.22-33.45-.37-50.55-1.84.18-3.28-.11-4 .47-6.28 4.77-12.58 9.53-18.57 14.65-4.45 3.81-6.34 5.45-2.21 14.39 2.79 6.05 4.71 12.52 7.61 18.5 1.7 3.5.94 6-1.43 8.74-15 2-29.12-5.51-44.75-5.61 2.34 10.9 4.61 21 6.66 31.19 1.06 5.25-1.41 9.93-5.9 10.09-6.74.24-13.17 2.12-20.33.84-8.03-1.43-16.97-2.57-25.85 2.43zm319.5 69.59c.14 2.51-.15 3.81.31 4.74 3.26 6.52 6.67 13 10 19.44.66 1.27 1.93 2.55 1.9 3.79-.18 7-.48 14.1-1.13 21.11-.41 4.42-1.43 8.57 2.34 12.34 4.34 4.35 8.26 9.14 12.27 13.82 10.08 11.79 20.06 23.68 30.18 35.44 8.23 9.57 16.48 19.11 24.93 28.48 5.85 6.5 7.85 14.81 7.69 22.59-.22 11.1-5 21.46-12.18 30.17-9 10.91-19.57 20-32.79 25.42-15.5 6.38-30.23 6.57-43.38-7.43-8.07-8.6-16-17.32-24.13-25.88-12.91-13.61-26-27.09-38.85-40.74-2.71-2.87-4.87-6.24-7.47-9.62 10.53-9.86 20.35-18.9 30.87-26.47l7 7.84c5.27 5.93 10.51 11.89 15.81 17.8 9.8 11 19.39 22.1 29.6 32.65 3 3.16 7.67 5.19 11.94 6.74 7.57 2.75 14-2.24 14.21-10.25.24-10.25-5.79-17.75-12-24.51-15.06-16.51-30.87-32.33-46.38-48.42a24.2 24.2 0 0 0 -10.92-7c-8.31-2.47-16.33-6-24.43-9.12a9.16 9.16 0 0 1 -6-6.88c-.76-3.7-1.34-7.45-1.89-11.19-2.06-14-2.18-13.69-15.59-19-14.2-5.63-27.91-12.71-38-24.38-8.33-9.64-15.16-20.61-22.36-31.19-2-3-3.67-6.13-7.51-7.75v484.95a9.76 9.76 0 0 0 1.92-.76c17.26-12.36 34.42-24.77 53-35.33 17.23-9.81 35.09-18.25 52.8-27 5.2-2.58 10.52-5 15.93-7.06 17.84-6.92 35.74-13.69 53.62-20.48 27.65-10.51 55.38-20.81 82.93-31.56 19.45-7.6 38.88-15.33 57.93-23.88 21.79-9.78 42.76-21.28 62.07-35.43a340.38 340.38 0 0 0 30.53-25c14-13 25.43-28.26 35.46-44.47 5.25-8.48 9.51-17.48 7.93-28.16a56.61 56.61 0 0 1 0-13.33c1-10.47 2.33-20.89 3.4-31.35.57-5.64 1.6-10.92 6.92-13.93l8.47 4c.87-3.27 1.89-6.16 2.37-9.14.38-2.32-.37-4.85.17-7.09 2.47-10.22 3-20.2-1.58-30.09a6.37 6.37 0 0 1 .93-5.76c2.76-2.76 2.32-5.92 2.33-9.11q0-146 0-292.09c0-2.24-.4-4.48-.65-7h-374.57a38 38 0 0 0 -5.34.07 27.7 27.7 0 0 0 -4.7 1.65c14 6.66 27.08 13 40.26 19.08 8.44 3.89 16.84 8.06 25.64 10.91 11.41 3.7 22.33 8.16 32.45 14.59a76.11 76.11 0 0 1 25.14 25.27c10 16.75 12 35.21 10.91 54.23-.55 9.67-1.13 19.35-2.07 29-.74 7.52-2.2 15-3.05 22.5-.92 8.14-1.8 16.32-2.13 24.5-.22 5.71.89 6.44 6.82 6.62 4.15.12 8.36-.36 12.45.15 4.33.53 8.08 1.59 9.53 7.27a35.9 35.9 0 0 1 .55 17.3c-2.25 9.72-.74 13.85 7.19 19.67 5.39 4 10.61 8.19 15.73 12.51 8.74 7.36 17.17 15.11 26.09 22.25 3.78 3 8 5.46 13.65 4.75s11.26-.18 16.9-.14c8.55.06 14.94 3.78 19.45 11.06-15.48 16.18-30.61 32-45.72 47.79-2 2.14-4 4.33-6.06 6.5l-23.76 25.61c-5.13-4.74-9.69-8.93-10.13-15.67-.65-10-1.27-19.94-1.76-29.92a10.54 10.54 0 0 0 -4-8.13c-15.6-13.38-31.13-26.84-46.39-40.58a14.05 14.05 0 0 0 -10.23-3.93c-6.11 0-12.32 1.13-18.33-1.55-5-2.24-6.78-5.34-5.8-10.72 1.56-8.6 3.93-17.15 2.09-27.12zm-835.83-369.45.35 1.74c4 2.13 7.94 4.44 12.06 6.36 22.21 10.33 40.44 25.26 53.71 46 14.18 22.16 22 46.18 21.49 72.69-.13 6.23.29 12.49-.11 18.69a90.38 90.38 0 0 1 -2.45 17.31c-5.76 21.44-19.11 36.8-38.81 46.82-4.09 2.08-8.13 4.27-12.05 6.34.1 1.44-.11 2.45.26 3.17 10.59 20.59 17.17 42.5 20.78 65.27.7 4.42-.89 9.2-1.31 13.82-.26 2.88-1 5.6-4.39 5.55a7.26 7.26 0 0 1 -6.87-4.38c-2.63-5.54-6.13-10.73-8.24-16.45-6.38-17.25-15.76-33-23.87-49.42-.78-1.56-2.67-2.58-4.49-4.27-2.64 11.23-5.1 21.66-7.54 32.1-3.05 13-6.26 26-12.61 37.9-7.31 13.74-16.93 25.21-31.72 31.33-6.42 2.65-13 4.82-19.55 7.29-3.15 1.2-6.22 2.58-7.91 3.29-.29 4.88-.3 8.2-.72 11.47-1.19 9.23-6.44 16.8-10.77 24.65-9.39 17.08-19.22 33.92-28.81 50.89a13.9 13.9 0 0 0 -1.81 4.87c-1.89 14.17-3.58 28.36-5.5 42.53-.62 4.59-.59 9.55-4.62 13.58a22 22 0 0 1 -2.36-3.34q-9.75-22.82-19.4-45.69a25.82 25.82 0 0 1 .45-22c6.42-13.84 15.38-26 24.16-38.35 7.77-10.89 16.21-21.38 20.54-33.83-10.62-1.52-21.48-2.31-31.93-4.8a157.84 157.84 0 0 1 -27.79-9.85c-10.38-4.67-19.24-12-28-19.19a82 82 0 0 1 -14.58-15.38q-14.17-19.85-27.17-40.56c-4.75-7.58-8.26-15.93-12.28-24-1.58-3.16-.72-5.49 2.67-6.72s6.56-2.26 9.78-3.54c4.1-1.62 6.86-5.66 6.08-9.16-1.59-7-4.59-13.25-10.86-17.43-9.91-6.6-19.85-13.15-29.6-20-2.17-1.52-3.59-4.12-5.92-6.88 3.28-1.53 5.23-2.95 7.37-3.35 7.42-1.41 14.88-2.74 22.38-3.6 8.15-.93 16.38-1.19 24.55-2a28.4 28.4 0 0 0 8.43-2.13c3.4-1.49 8.09-2.9 7.69-7.36-.24-2.66-3.12-5.51-5.5-7.43s-5.59-3.12-8.59-4.2c-4.37-1.58-8.91-2.63-13.3-4.16-8.47-2.94-17.39-4.46-26-2.79s-17 1.18-25.52 1.42a24.26 24.26 0 0 1 -16.22-5.54 44.65 44.65 0 0 1 -15-22.28c-1.85-6.1-3.5-12.26-5.5-18.32-.65-2-2.1-3.71-3.19-5.56a16 16 0 0 0 -2 8.74c.54 20.07 1.06 40.14 1.8 60.2.34 9.39 1.17 18.77 1.79 28.14 0 .58.22 1.15.3 1.73 1.07 7.79 2.25 15.57 3.17 23.38.79 6.69.91 13.47 2 20.1 2 12.32 4.58 24.55 6.89 36.83 3.1 16.56 5.28 33.36 9.46 49.65 8.57 33.4 17.92 66.57 29.44 99.16a945.66 945.66 0 0 0 35.78 87.83c12.28 26.07 25.62 51.72 39.91 76.74 12.68 22.18 27 43.44 41.2 64.71 9.2 13.79 19.21 27.08 29.32 40.23 11.56 15 23.25 30 35.61 44.4 12.89 15 26.15 29.73 40.15 43.68 16.32 16.25 33.81 31.32 50.44 47.26 14.42 13.82 30.21 25.94 45.62 38.56 18.73 15.36 38.54 29.18 58.48 42.82 11.51 7.87 23.67 14.78 35.35 22.42a596.13 596.13 0 0 0 57.56 32.83c20.78 10.51 42 20.26 63 30.15 25.52 12 52.05 21.43 78.73 30.4 18.67 6.29 37.55 12 56.49 17.44 12.54 3.59 25.3 6.49 38.06 9.22 17.6 3.77 35.26 7.19 52.95 10.51 5.34 1 10.83 1.17 18.17 1.92l-46.43-65.48 4.87-8.66c-25.25-7.65-34.15-11.64-49.33-22.2 3-1.87 5.86-3.66 9.58-6-8.09-7-18.6-5.8-28.06-9.78 1.82-.94 2.5-1.52 3.26-1.65 10.89-1.88 21.82-3.51 32.66-5.65 3.14-.63 7-1.52 7.75-7-7-.51-13.59-1.24-20.23-1.38-3.44-.07-6.89 1.12-10.36 1.37-10.35.73-20.32-2.46-30.46-3.25-16.66-1.31-31.86-5.65-44.71-15.48-5.78 4.59-10.91 9.58-16.87 13.21-11.54 7-25 7.67-37.92 8.91-18.14 1.74-35.94-1.7-53.27-7.07a115.42 115.42 0 0 1 -44.62-26c-7.1-6.59-13.28-14.18-19.7-21.47-1-1.12-1.06-3-1.55-4.61l13.49-4.14c-6.45-13.84-21.36-14.63-30.91-22.63 4.56-3.78 9.74-3.57 14.5-2.46 12.24 2.86 24.3 1.11 36.35-.61 2.81-.41 5.33-2.79 9.21-4.94-3.46-2.29-5.37-4.3-7.68-5-9.77-2.8-19.53-5.65-29.87-6.07a61.43 61.43 0 0 1 -16.19-3c-10-3.22-15.33-11.36-19-20.53-2.2-5.54-4.41-10.88-9.2-14.64-7.57-5.93-15.49-11.45-22.82-17.65-13.21-11.18-26.59-22.22-39-34.27-11.58-11.26-22.31-23.47-32.75-35.81a285.21 285.21 0 0 1 -20.72-28.13c-6-9.12-10.9-18.91-16.29-28.38-5.83 1.2-12 2.81-18.33 3.7-11.85 1.66-23.73 3.16-35.64 4.17-4 .34-8-1.26-12.1-1.58-8.29-.67-15.66-3.44-22.9-7.61-10.73-6.18-19-14.8-25.89-24.66-4.76-6.82-8.4-14.51-12-22.08-6-12.73-6.94-26.32-7.07-40.26a99.83 99.83 0 0 1 11.43-47.14c6.75-13.19 14.51-25.88 22.24-38.53 2.82-4.62 6.84-8.5 10.58-13 4 3.14 7.26 5.41 10.18 8 2.43 2.19 4.35 1.52 7.15.49 5.43-2 6.56-7 7.68-11.08 2.18-7.8 2.45-16.1 4.07-24.07 1-4.71-.08-10.57 5.68-13.66 7.08 6.12 11.27 13.85 15.51 21.49 4.63 8.37 9.49 16.48 18.67 22 1.63-2.36 4.16-4.37 4.29-6.54a109.52 109.52 0 0 0 -.42-18.5c-1.14-10.55-5.87-20-10.1-29.54-3.34-7.55-4.51-15 .17-22.34 2-3.19 3.95-6.57 6.54-9.25 9.18-9.5 18.58-18.79 28-28 1.27-1.23 3.35-1.63 5-2.41 5.86 12.66 4.62 27 13.12 38.15 6.09-5.64 8.89-16.51 5.91-22.3-2.78-5.4-6-10.6-9.47-16.8 19.44-11.9 35.32-27.41 49.51-45.71 3 9.26 5.29 17.35 8.32 25.14 2.95 7.57 6.05 15.2 10.21 22.14 7 11.62 7.33 11.4-4.11 19.28-.24.17-.4.48-.65.6-10.71 4.8-9.69 14.59-11.17 24.63 2.75-.71 4.79-.62 5.8-1.59 4.25-4.09 8.38-8.34 12.2-12.83 4.47-5.25 8.58-10.82 13.31-16.82a39.35 39.35 0 0 1 2.84 4.77c5.39 13.73 12.49 26.78 14.94 41.67 1.44 8.73-.06 16.22-5.95 22.54-6.88 7.37-14.42 14.14-21.27 21.54-3.74 4-6.77 8.74-9.89 13.3-2.58 3.75-4.81 8.43-1.81 12.27 3.31 4.25 8.9 2.88 13.15 1.17 7.24-2.9 14-6.92 21.14-10.17 7.46-3.41 9.4-9 9.39-17q-.27-365.62-.17-731.23c0-11.33-.38-22.67-.38-34 0-20.15.39-40.31.17-60.46-.29-26.77-1.3-53.53-1.48-80.29-.27-38.6-.08-77.19-.05-115.79 0-2.56.3-5.12.51-8.48h90.57l-15.71-24.69c-1.56.63-2.85 1.49-4.23 1.64-11.62 1.31-23.24 2.78-34.9 3.63-12.8.94-25.65 1.11-38.47 1.93-7.46.47-15.39.17-22.24 2.63-18.38 6.62-35 17.06-52.09 26.38-5.42 2.94-6.14 6.83-5.19 11.57 3.19 15.93 7.29 31.69 10 47.7 2.6 15.53.7 30.61-10.53 42.88-12.21 13.34-24.84 26.3-42.8 33.55 1 8 1.58 15.88 2.94 23.59a75.51 75.51 0 0 1 -.92 32.31c-2.17 8.41-6.34 10.14-15.1 7.63-.66-.19-1.55.43-3.67 1.09 3.38 3.44 6.27 6.26 9 9.2 8.16 8.72 13.79 20.51 5.49 34.07-4.1 6.71-8.34 13.47-11.24 20.72a86.35 86.35 0 0 0 -5.44 21.83c-.65 5.65 4.32 8.48 9.3 5.76 5.33-2.9 10.91-5.93 15.13-10.15a151.48 151.48 0 0 0 16-19.73c5.18-7.27 10.29-14.46 17.55-20 4 6.54 3.82 6.55 4.16 11.88.5 7.9-.86 15.74 1.45 23.73 4 14 9.14 16 19.46 6.38 4.6-4.26 5.78-4.28 10.07.37a25.91 25.91 0 0 1 3.4 5c4.38 7.89 8.22 16.12 13.11 23.68 8.6 13.29 12.62 28.14 14.57 43.4 1.68 13.14-.37 26.24-4.51 39-7.85 24.17-24.22 42-43 57.81-3.43 2.89-5 5.83-3.54 8.69 1.93 3.89.23 6.89-.64 10a70.93 70.93 0 0 1 -5.38 12.84c-7.7 15-15.65 30-23.34 45a39.79 39.79 0 0 0 -3.08 9c-1.92 8.19-3.49 16.46-5.4 24.65-1.38 5.84-3.03 11.53-10.93 11.98zm623.63-311.14c.62-3.07 1.79-6.36 1.85-9.68.17-8.72-.16-17.46-.26-26.19-.22-18.85-.56-37.69-.61-56.53-.07-21.9.15-43.79.18-65.69q0-36.49 0-73c0-13.67-.09-27.34 0-41s.57-27.2.67-40.8c0-1.72-1.19-3.45-2.12-6-5.43 6.1-10.2 11.26-14.75 16.61-9.49 11.13-18.8 22.42-28.31 33.53-5.16 6-11.62 11.22-15.59 17.92s-8.8 7.32-15.34 7.31q-106-.21-211.92-.07c-3.06 0-6.12.21-10.57.37 5.71 8.27 11.42 14.56 13.78 22.86 1.1 3.88 5.08 4.57 8.5 5.21 4.58.86 9.28 1.06 13.84 2 5 1 9.9 2.55 14.6 3.8v9.78c-2.14.73-4.21 2.24-5.85 1.87-11.56-2.63-23.08-5.53-34.53-8.62a16.75 16.75 0 0 1 -11.78-10.35c-2.83-7-8.44-11.1-15.79-12.48-4.86-.92-9.85-1.14-14.74-1.94-10.91-1.78-21.89-3.89-31.52-9.37a21.77 21.77 0 0 0 -11.51-3.07q-48.52 0-97.06 0c-2.58 0-5.16.22-7.91.35v628.48h41.28 59.66c6.38 0 7.06-.82 7.22-7.18.11-4.57 0-9.14 0-14.09a35.42 35.42 0 0 0 -4.11-1.82c-7.72-2.51-15.49-4.87-23.21-7.39-8.26-2.71-9.5-5-8.25-13.52.76-5.19 1.15-10.44 1.73-15.66.61-5.52 1-11.08 2-16.51a6 6 0 0 1 4-3.74c8.9-1.51 17.86-2.72 26.84-3.74s9.5-1.35 11.74-10.78a39 39 0 0 1 2-4.94l-34.22-22.75c5.17-14.37 8.8-29.26 15.78-42.61l39.25 3.81c2.17-4.55 4.59-9.45 6.85-14.42 1.19-2.6-.19-4.33-2.15-6.08-8.3-7.42-16.48-15-24.76-22.56l22.16-39.59c10.53 2.9 20.57 5.53 30.52 8.45 8.85 2.6 8.81 2.74 14.77-5.3 5.12-6.9 5-6.8.38-14-5.41-8.49-10.49-17.18-15.46-25.37 8.3-9.2 16.09-17.85 23.9-26.48 5.81-6.43 5.91-6.58 14-2.29s15.8 8.64 23.5 13.3c3.17 1.91 5.33 1.5 7.77-1 2.22-2.27 4.75-4.22 8.05-7.11l-11.05-39 39-23c5.18 5.66 9.77 11 14.7 16 11.55 11.75 11.62 11.69 25.17 2 .22-.16.31-.51.19-.31-.37-4.44-.58-8.46-1.08-12.43-.9-7.22-1.78-14.46-3-21.62-1-5.47-.77-6.3 4.58-8.38 12.14-4.72 24.29-9.42 37-14.35 8 11.33 16 22.67 23.79 33.69l14.37-4.09c2-13.34 3.93-26.27 6-40.08l44.89-4.56c2.44 6.5 5.05 12.93 7.28 19.5 6 17.22 2.15 15.75 23.66 14.7zm12.6 1188a38.34 38.34 0 0 0 -3.56-3.77c-14-11-27.49-22.75-42.27-32.58-15.2-10.12-31.41-18.83-47.65-27.22a673.7 673.7 0 0 0 -73.28-32.49c-22.27-8.33-44.44-16.93-66.67-25.34-18.17-6.88-36.47-13.4-54.54-20.54-18.34-7.25-36.77-14.42-54.6-22.8-17.63-8.28-34.8-17.63-51.75-27.25a263.79 263.79 0 0 1 -52.27-39.51c-13.87-13.32-25.23-28.82-35.94-46.42-16.73 32.17-43.35 51.05-76.23 61.47 12.7 16.16 25.63 31.64 37.42 48 6.79 9.4 15.29 15.92 25.28 21.09 8.48 4.38 16.92 8.83 25.38 13.25a15.33 15.33 0 0 1 -8.93 0c-10.31-2.95-20.42-6.79-30.88-8.93-8-1.63-13.94-5.78-19.29-11.21-4.94-5-9.57-10.36-14.06-15.79-10.23-12.38-20.16-25-30.51-37.29-2.54-3-6-6.5-9.49-7.22-11.21-2.28-22-5.28-32.05-10.84-1.56-.86-3.46-1.1-5.75-1.79 10.23 29 77.6 96.43 116.19 124.3-1.17-10.57-6.09-18.73-11.55-27.39 2-.34 3.44-1 4.65-.71 14.85 3.62 29.84 5.73 45.19 5.33 4.54-.13 6.63 2.38 7.62 6.86.55 2.45 1 5.57 2.65 7 3.6 3.08 8 5.27 13.11 8.52.75-10.68-7.71-15.92-9.7-24.18 4 0 7.76-.75 11.06.14 9.31 2.51 19 2.68 28.39 4.6 11 2.23 17.16 7.45 20.41 17.55 2.8 8.71 9.12 15 15.77 20.73 1.4 1.22 4.58 1.4 6.45.72 1.32-.48 2.35-3.17 2.55-5 .26-2.24-.37-4.62-.81-6.91-1.08-5.62-3.95-11-2-16.94 3.36-1.44 5.55-.2 8.22 1.62a243.75 243.75 0 0 0 22.22 13.71c6.6 3.55 8.16 2.55 12-3.91a7.19 7.19 0 0 1 4.75-3.06 19 19 0 0 1 7.74 1c10.78 3.44 21.42 7.3 32.22 10.66 22.35 7 41 19.06 54.27 38.66.74 1.09 1.68 2.42 2.81 2.81a74.05 74.05 0 0 0 12.52 3.59c14 2.21 25.11 9 34.2 19.67 5.08 6 8.8 11.79 2.93 19.78-6.63-1.48-11.75-5.6-16.68-10.23-5.13-4.82-10.49-9.42-15.79-14.06-5-4.35-8.66-10.2-16.08-13.93.45 4 .7 6.7 1.08 9.43 1.82 13-2.11 23.41-13.57 30.45-3.47 2.13-7 4.11-10.5 6.24-1.3.8-2.46 1.85-3.68 2.78l.54 1.8 24-2.09c3.84 7.94 9.92 10 18.83 8.51l-13.67-11.63c6.08-.8 10.81-1.75 15.58-2 6.81-.31 13.67.27 20.47-.18 6.64-.45 11.46 2.34 15.26 7.2 5.17 6.61 12 10.12 20.28 12.62 5.29-8.31-4.81-13.14-3.83-20.63 11.5.92 21.73 9.13 33.68 5.62l4.17-7.17c12.94 1.41 25.71 3 38.52 4.13a115.22 115.22 0 0 1 36.06 9.48 13 13 0 0 0 7.47.36c11.57-2.67 23.08-5.59 35.64-8.67zm367.93-95.81a18.24 18.24 0 0 0 14-2.8c6.5-4.37 13.27-8.37 19.65-12.91 2.81-2 5.13-2.34 8.09-.68-.44 9.72-5.56 18.8-2.87 28.56 6.46.21 8-.31 12-4a48.86 48.86 0 0 0 13.07-20.52c3-8.83 9.41-12.11 17.32-14.06a138.44 138.44 0 0 1 14.51-2.9c9-1.19 18-2 27.54-3.1-2.41 8.93-10.82 13.85-11 23.09 14.81-5.28 15.92-5.57 17.37-18.92l55.7-6.53c-4.07 8.91-8.11 17.74-12.81 28 3.2-1.36 5-1.68 6.14-2.68 13.38-11.43 27.1-22.5 39.88-34.57 22.5-21.24 43.91-43.54 61.89-68.87 4-5.65 8-11.37 10.23-19.39-11.23 6-21.47 10.92-33 12-6.07.58-10.19 4-13.84 8.38q-9 10.74-17.94 21.61c-5.57 6.78-11.33 13.42-16.54 20.47-7.86 10.63-17.48 18.69-30.22 22.71-6.64 2.09-13.22 4.38-19.93 6.23-6.08 1.67-12.3 2.86-18.46 4.26-.22-.61-.45-1.22-.67-1.84 7.91-4.22 15.54-9.12 23.79-12.52 13.64-5.63 22.9-15.67 31.18-27.29 6.59-9.26 13.84-18.06 20.84-27 3.73-4.78 7.56-9.47 12-15-15.33-6.57-30.09-12.45-43.06-22.07s-22.06-22.49-31.64-35.69c-1.43 2.93-2.08 4.93-3.26 6.55-14.19 19.4-29.75 37.57-48.72 52.51a352.45 352.45 0 0 1 -61 38.78c-20.27 10.09-41.19 18.93-62.18 27.47-21.47 8.75-43.36 16.47-65.08 24.62-16.29 6.11-32.71 11.9-48.87 18.35-20.75 8.29-41.56 16.52-61.86 25.84-21.41 9.84-42.55 20.36-63.23 31.65-17.34 9.46-33.31 21.27-49.11 33.15-5.88 4.42-11.12 9.71-16.89 14.82 1.62 1.21 2.25 2 3 2.2 8.49 1.95 17.06 3.56 25.48 5.76 5.26 1.38 9.65 1.35 15-1.07a112.57 112.57 0 0 1 48.48-9.72 61.1 61.1 0 0 0 8-.17c4.87-.58 9.7-1.44 14.26-2.13 3.34 7.67 3.34 7.82 10.65 7.59a39.77 39.77 0 0 0 8.51-1.6c5.79-1.53 11.54-3.23 17.66-5 .68 3.36.29 5.74-2 8.37-2.92 3.41-4.24 7.67-1.94 12.54a22.76 22.76 0 0 0 4.26-.89c6.81-2.89 13-6.64 17.88-12.43 2.67-3.18 5.83-6.3 10.26-6.19 12.94.33 26.09-1.85 39.08 2.42l-12.34 11.29c6.21 1.12 11.93.74 14.28-2.88 4.78-7.38 10.55-6 17-4.34 4 1 7.86 1 13.61-.81-5.46-3-9.52-5-13.33-7.36-13.3-8.33-20-19.78-15.6-36.4.37-1.39-.14-3-.35-6.24-15.68 14.88-28.94 30.3-47.6 39.76-1.8-3.64-3.17-6.4-4.44-8.95 11.42-24 33.3-30.73 54.37-34.88 6.09-7.54 10.29-14.5 16.14-19.54 6.53-5.61 14.36-9.83 22-14 15.64-8.61 33.15-12.23 49.81-18.11a19.36 19.36 0 0 1 11.78-.82c1.02 2.7 1.97 5.1 3.07 7.89zm-348.32-1479.77-1.79.93v9.76c1.06 118.16-.78 236.32 1.36 354.5 2 108.91.42 217.88.42 326.82v9.78c13 1 16.73 13.81 26.74 18.94v-10.7q0-333.08.1-666.14c0-7.92.25-15.41-7.41-20.34-.68-.44-1-1.43-1.54-2.1q-8.93-10.74-17.88-21.45zm26.39 1562.07q0-341.48 0-682.79a1.15 1.15 0 0 0 -.37-.78c-.2-.17-.54-.17-1.35-.38-5.65 5-11.32 10.46-17.48 15.3-5.78 4.54-7.4 9.91-7.34 17.21 1 126.88-.72 253.77 1.62 380.67 1.67 90.17.33 180.4.33 270.61v10.48c2.51.2 4.32-.19 5.36.52 4.7 3.21 7.54.62 10.57-2.66 2.53-2.77 5.46-5.19 8.66-8.18zm-179.51-1046.79c-14.46 9.59-28.66 18.15-41.85 28a239.06 239.06 0 0 0 -30.92 27.42c-10.34 11-19.06 23.56-28.66 35.3-2 2.44-2.65 4.47-.69 7.06 1.58 2.08 3 4.3 4.68 6.27 11.72 13.52 26.65 22.72 42.39 30.55s32.07 15.13 48.19 22.52c13.69 6.27 27.47 12.34 41.57 18.67 10.79-11.77 22.27-22.58 36.28-29.65 0-1.44.29-2.45 0-3.19-4.64-10.65-9.26-21.3-14.1-31.86-8.25-18-16.71-35.83-25-53.8-3.87-8.43-7.25-17.09-11.22-25.48a132.18 132.18 0 0 0 -20.67-31.81zm-187.76 257.61c1-5.48 2.39-9.79 2.32-14.08-.28-17.39 2-34.39 5.26-51.47a310.31 310.31 0 0 1 24.37-75.11c5-10.5 11.15-20.42 16.86-30.55 10.52-18.66 23.81-35.31 38.08-51.13a289.77 289.77 0 0 1 38.48-35.09 321.83 321.83 0 0 1 49.16-31.45c18.89-9.72 38.55-17.69 59.19-22.82 13.79-3.43 27.71-6.46 41.72-8.75 9.23-1.51 18.73-1.42 28.11-2 6-.34 6.84-.9 7-6.52.16-4.75.19-9.51 0-14.25-.22-5.13-2.53-6.83-7.5-5.82-2.27.46-4.51 1.54-6.76 1.53-15.3-.09-30.23 2.49-45.22 5.26a317.07 317.07 0 0 0 -80.68 26.94c-18.07 8.74-35.6 18.63-51.54 30.9-11.36 8.74-22.52 17.83-33 27.58-9 8.41-17.3 17.74-25.42 27.09-7.26 8.36-14.22 17.05-20.71 26-17.85 24.68-31.28 51.82-42.2 80.11-8.89 23.07-13.87 47.31-18.12 71.62-1.3 7.48-1.31 15.18-1.91 22.78s-1.29 15.18-1.73 22.78c-.29 4.94 1 6.24 6.18 6.4 5.88.18 11.77.05 18.06.05zm37.07-.29h155c2.79-9.68 5.37-19.15 8.27-28.53 4.75-15.35 2.74-19.77-12.1-24.65-11.28-3.71-22.67-7-33.94-10.76-11.82-3.9-23.53-8.14-35.32-12.1-12.38-4.15-24.84-7.92-36-15-4.61-2.92-10.1-4.41-15-6.83-8.64-4.23-16.06.32-21 7.2-9.39 13-11.52 28-12.11 43.07-.73 15.52-2.04 31.28 2.2 47.58zm815.06 16.31c-136.94 0-272.84 0-408.75 0a21.69 21.69 0 0 0 -3.48.46 1 1 0 0 0 -.6.51 6.6 6.6 0 0 0 -.31 1.35l7.43 8.47c-4.34 4.56-8.36 8.8-13 13.72h418.32a34.71 34.71 0 0 0 .42-3.76c-.01-6.49-.03-13-.03-20.75zm-1020.67 24.4h415.88l.93-1.48-13.22-10.75c4.79-4 9.81-5.82 11.78-12.18h-403.61c-2.08 0-4.16 0-6.23 0-3.6 0-5.57 1.58-5.56 5.31.03 6.19.03 12.37.03 19.1zm823.59-758c-.82 2.1-1.6 4.23-2.46 6.33-3 7.48-6.52 14.76-12.52 20.37a103.5 103.5 0 0 1 -34.8 21.05c-7.57 2.85-15.24 5.41-22.86 8.1l.09.85h15.22q67.14 0 134.27-.06a19.74 19.74 0 0 0 8.4-1.52 94.76 94.76 0 0 0 15.72-9.27c6.43-4.94 13-10 16.11-18.62-11.66-2.72-23-5.13-34.12-8-20.46-5.28-41-10.37-61.19-16.52-7.25-2.2-14.1-3.44-21.89-2.7zm-565.59 56.02.06-1.81c-5.66-2.15-11.58-3.79-16.91-6.57-9.77-5.09-19.81-10-28.59-16.55-10.26-7.63-16.44-18.68-19.42-31.07-10.06-1.45-18.69 2.32-27.71 4.78-27.68 7.54-55.54 14.42-83.32 21.63a52.17 52.17 0 0 0 -6.5 2.7c8.24 10.71 17.85 17.77 28.43 23.56 3.45 1.89 6.44 4.25 11.18 4.22 45.41-.33 90.83-.19 136.24-.23a63 63 0 0 0 6.54-.66zm212.74 536.7c6.24.45 7.56-3.05 8.25-7a30.42 30.42 0 0 0 .15-5.32c0-21.93.08-43.86 0-65.79-.07-12.54-.49-25.08-.69-37.62-.23-13.86-.29-27.72-.59-41.58-.13-6.1-1.43-7.12-6.28-6.3-4 .67-8 1.09-12.06 1.64-8.64 1.2-17.3 2.25-25.89 3.75a6.68 6.68 0 0 0 -4.15 3.7 24.88 24.88 0 0 0 -1.88 9.31c.23 7.3.27 14.75 1.84 21.82 3.37 15.24 7.09 30.46 11.72 45.35 4.21 13.52 9.78 26.62 14.84 39.87 4.83 12.72 9.79 25.34 14.76 38.17zm40.26 68.55c-15.16 10.56-85.4 75.88-88.44 82.2 9.21 1.5 82 1.19 88.44-.43zm-2.11 168.7v-82.09h-72.37c-5.71 0-11.51-1.25-18.19 1.1 10.42 9 20.22 17.32 29.8 25.88 13.13 11.73 26.09 23.65 39.12 35.49zm91-86.13c.23-.63.47-1.27.71-1.9-27.57-27.14-54.22-55.22-83.65-81.78-.22 2.41-.42 3.58-.42 4.75 0 23.73-.06 47.46 0 71.19 0 7.87.43 8.22 8.86 8.23q34.24.06 68.51 0c2.03-.06 4.02-.36 6.02-.53zm-708.84-699.82c1.81-.12 2.52 0 2.94-.23 9.64-6.48 19.25-13 28.88-19.53 2.41-1.62 4.67-4 7.33-4.6a94.56 94.56 0 0 1 15.59-2.09c10.85-.76 21.71-1.25 32.57-1.85.59 0 1.19 0 1.78-.1 9.25-1.14 18.49-2.4 27.76-3.41 7.28-.79 14.61-1.08 21.87-2 3.22-.41 6.32-1.81 9.67-2.82a19 19 0 0 0 -11-9.46c-6.54-2.33-13.14-4.54-19.83-6.39-16.89-4.69-33.75-9.18-51.67-8-17.54 1.13-32.28 7.95-44 20.62a105.37 105.37 0 0 0 -19.94 31.63c-1 2.48-1.25 5.25-1.95 8.23zm1085.43-35.59c7.29.73 14 1.29 20.62 2.08 14.17 1.68 28.3 3.68 42.49 5.16 14 1.46 27.94 2.75 41.94 3.46 5.77.3 9.68 2.78 14 6.18 7.73 6.12 16.09 11.45 24.29 16.94 1.47 1 3.46 1.21 6.12 2.09-.39-2.44-.31-3.95-.88-5.14-6.13-12.9-12-26.1-22.58-36.07-7.12-6.72-14.83-12.68-24.44-16.16-12.07-4.37-24.61-4.71-36.55-2.88-16.8 2.58-33.3 7.52-49.64 12.4-5.79 1.72-12.17 4.31-15.37 11.94zm-379.27 739.25s-.66-1-1.3-1c-5.49.26-11 1.25-16.46 1-19.23-.82-38.44.83-57.67.2a26.82 26.82 0 0 0 -5 .75v79.41zm543.62-211.6-1.24 1.51c3.82 5.77 7.54 11.61 11.46 17.31 9.9 14.36 20.21 28.46 29.71 43.08 3.91 6 6.53 13 9.08 19.76 2 5.29.28 8.35-4.48 11.12-6 3.51-12 7.09-17.88 10.85-1.14.73-1.66 2.44-2.46 3.7l1 1.31 47-16.89c0-11.45.31-22.42-.16-33.35a27.57 27.57 0 0 0 -3.47-12c-5.84-10.36-12.17-20.47-18.56-30.5-3.25-5.1-7.06-9.85-10-13.9-14.32 2.66-27.2 1.44-40-2zm-1263.27 1.38c-15.12 2-28.78 3.26-42.74.76-8.45 13.12-17.12 26.18-25.31 39.53-2.51 4.1-5 8.94-5.24 13.57-.74 12.07-.25 24.21-.25 36.63 16.1 5.43 31 13 49 16.52-1.8-2.48-2.45-4.15-3.66-4.92-5.87-3.74-12-7.13-17.84-10.86-6.22-3.95-6.22-4.07-4.36-11.64a36.41 36.41 0 0 1 2.76-8.17c9.55-18.35 21.83-34.94 33.82-51.7 4.69-6.53 9.26-13.15 13.82-19.72zm722.83 1085.56a22.93 22.93 0 0 0 -11 12.66c-2.75 6.92-3.67 13.47-1.83 21.1 2.67 11 8.56 18 19.22 21.2 5.11 1.52 9.46.8 14.43 0 8.64-1.42 14.87-6.08 18.23-13.34 6.39-13.83 6.28-31-10.19-41.57 5.08-5.54 12.22-10 12-18.65-.24-8-2-15.58-8.18-21.38-9.94-9.37-26.73-9-36.06-.72-4.45 4-6.8 9.17-7.44 15.35-1.19 10.5 1.27 19.28 10.82 25.35zm-117.74.07c6.69-5.4 12.88-10.63 12.45-19.42-.4-8-2.06-15.47-8.64-21.21-9.58-8.36-28.74-8.5-36.14.35-5.49 6.56-8 14.29-6.74 22.81 1 7.05 3.82 13.31 11 16.56-3.48 3.62-7 6.32-9.25 9.81-5.76 8.82-5.3 18.34-2.58 28.24 5.24 19.11 23.2 22.24 37.72 16.52 9.43-3.71 15.73-12 16.53-23 .86-12.48-1.77-23.38-14.35-30.66zm43.05 35.44c-2.1 1.58-4.48 2.9-6.12 4.84a5.43 5.43 0 0 0 -.62 4.77c2.93 6.43 16.36 12.64 23.37 11 11.29-2.66 18.45-9.58 22.47-20.55 7.68-20.91 6.68-42 1.26-62.92-1.44-5.61-3.72-12.06-9.36-15.47-15.35-9.26-37.73-1.8-41.87 17.91-1.75 8.34-2.24 16.59-.12 25.05 4 16 23.07 28 38.18 13.84a13.49 13.49 0 0 1 2.36-1.41c2.06 9.07-1.45 17-5.08 24.46-4.28 8.8-11.54 8.91-19.24 4.23-1.93-1.16-3.13-3.39-5.23-5.75zm771.62-902.76c-1.83-.31-3-.85-4-.63-16.54 3.56-28.89 13.41-39.28 26.22a40 40 0 0 1 -4.21 4c-5.84 5.34-13.43 6.65-20.64 8.76-21.3 6.25-42.19 13.51-59 28.7-7.11 6.41-13.19 13.92-13.62 24.82 1.38-.41 2.37-.42 3-.91 4.91-4.18 9.55-8.72 14.66-12.62a145 145 0 0 1 16-10.57 99 99 0 0 1 13.49-6c8.11-3.14 16.31-6 24.47-9 9.78-3.57 19.65-6.91 29.29-10.81 3.42-1.39 6.34-4.06 9.36-6.32 7.24-5.43 15.64-4.61 23.79-4.21 15.61.77 27.31-8 40.06-14.7-2.63-4.36-6.42-3.89-9.21-2.91-11.49 4-23.12 3.5-36.5 2.43zm-1437.32 93.32c-.43-7-1.84-13.38-6.33-18.67a92 92 0 0 0 -33.81-24.63 239.77 239.77 0 0 0 -40.27-13.72c-6.67-1.59-13.51-4.68-17.6-10.87a60.44 60.44 0 0 0 -18.1-17.69c-7-4.52-14.81-7.23-24.06-8.63 2.52 7.34 10.86 9.81 10.85 16.46-15.18 4.14-29.43-1.45-44.85-1.94 4.41 5.8 10.37 9.58 16.89 12.31a69.13 69.13 0 0 0 31.68 5.39c6.35-.42 11.95 1.83 17.21 5.35 4.58 3.07 9.19 6.38 14.26 8.39 10.5 4.14 21.35 7.41 32 11.19 12.57 4.45 25.43 8.55 36.45 16.17 8.87 6.15 16.84 13.64 25.68 20.89zm1264.84 254.94c-1.45 10.78-1.36 11.47 3.7 21.59 7.42 14.82 15.78 29.31 20 45.47 3.69 14.32 6.23 28.93 9.38 43.38 1.43 6.59 3.1 13.12 4.94 20.83 4.78-7.56 8.65-14 12.82-20.19 3.4-5.06 7.08-9.94 10.77-14.8 7.62-10 10.86-21.5 11.33-33.94-1.87-2-3.94-2.68-5.88-.24a85.43 85.43 0 0 0 -5.54 7.81c-5.7 9.06-11.3 18.19-16.92 27.26-.84-5.2-1.7-10.28-2.49-15.37-4-26-13-49.92-28.64-71.22-3.42-4.55-7.08-8.63-13.5-10.58zm-1251.38-1021.66c-6.37 6.44-11.42 11.41-16.32 16.52-11.17 11.63-17.28 25.74-17.27 41.68 0 12.77 2.09 25.55 3.28 38.51 14.31-7.16 23.87-18.4 31.94-31 1.82-2.86 2.61-6.4 3.76-9.66 2.73-7.73 1.82-15.38.13-23.25-2.18-10.21-3.5-20.57-5.52-32.8zm1299.63 97.24c1-6.51 2.55-12 2.4-17.47-.26-10.14 2.17-20.18.32-30.42-1.26-6.95-2.72-13.69-6.4-19.74-6.62-10.88-15.42-19.86-25.62-28.69-1 4.56-2 8.44-2.76 12.38-2.16 11.15-5.18 22.2-4.59 33.73.38 7.38 1.87 14.16 6.37 20.47 5 7 10 13.82 16.39 19.42 4.26 3.7 9.07 6.77 13.89 10.32zm-1319.8 1054.66 2-.42c.18-2.9 0-5.87.59-8.67 3.42-15.85 6.64-31.76 10.69-47.46 3.54-13.72 7.79-27.17 15.53-39.45 4.58-7.26 7.16-15.82 10.29-23.93 1.27-3.27 1.87-6.93-1.65-9.64-5.43 1.55-8.75 5.62-11.85 9.88-2 2.81-3.9 5.77-5.81 8.67-14.7 22.34-22.44 47-24.6 73.54-.1 1.2-.75 2.35-1.4 4.29-6.47-10.58-12.15-20.3-18.31-29.7-2.1-3.2-4.24-7.43-9.89-6.33a10.75 10.75 0 0 0 -.54 3.3c1.84 11.91 5.65 23.11 12.6 33 4.66 6.66 9.68 13.08 14.3 19.77 2.91 4.25 5.38 8.77 8.05 13.15zm1369.8-745a19.29 19.29 0 0 0 .62-4.08c-1-17.12 1-34.14 3.94-50.83s8.44-33.06 12.81-49.56c1.56-5.87 3.27-11.7 4.63-17.61 1-4.48-1.41-6.94-5.4-8.77-4.17-1.91-6.49.63-8.12 3.23-4.62 7.38-10.31 14.6-12.74 22.74-4.91 16.47-6.33 33.76-7.43 50.91a134.81 134.81 0 0 0 1.4 29c1.38 9.12 4.03 17.37 10.29 24.97zm-1428.9.4c3.9-5.33 7.06-10.23 8-16 1.54-9.77 2.75-19.62 3.52-29.48.29-3.67-1.62-7.47-1.53-11.19.32-12.38-1.75-24.45-3.49-36.64-1.92-13.46-8.39-24.57-15.74-35.39-2.76-4-5.36-4.11-10.79-1.43-2.92 1.45-4.26 4.79-3.09 8.72 2.8 9.42 5.78 18.79 8.66 28.19 6.59 21.49 11.37 43.28 11.95 65.89.19 8.83 1.56 17.59 2.51 27.34zm418.81-515.97c9.68 3.36 17.63 4.14 25.77 1.27 1.6-.57 3.54-.08 5.3-.22a79 79 0 0 0 32.12-9.63c13.74-7.48 27.6-14.88 43.49-17.26 3.64-.55 7.69-1.9 10.44-6.6-10.73-1.34-20.53 4-30.76.35l3.4-18.1-1.62-1c-2.06 1.91-4.46 3.56-6.12 5.77-5.74 7.68-11.7 15-19.21 21.19-7.09 5.9-14.37 10.37-23.24 13.15-7.75 2.42-14.1 1.14-21.06-2.71 2.88-4.88 5.88-9.18 8.06-13.86 2-4.29 6.55-8.34 3.08-14.53a26.94 26.94 0 0 0 -3.22 2.41c-4.45 4.69-7.71 10.62-14.41 13-1.3.46-2.09 2.65-2.9 4.16a128.28 128.28 0 0 0 -5.94 11.69c-1.41 3.37-2.09 7.01-3.18 10.92zm474.24-32.87c1.76 6.52 6.51 6.48 9.69 6.92 14.48 2 27.3 8.27 39.73 15.17 8.49 4.71 16.94 8.83 26.61 10.1 5.21.69 10.62.64 15.59 2.12 8.48 2.53 16.33.64 24.3-1.38.08-1.24.45-2.26.14-3-2.87-7-5.78-13.92-8.9-20.78-.51-1.13-2.12-1.72-3.16-2.63q-6.29-5.47-12.53-11l-5.3-4.66c-1.65 12.62 8.91 18.88 11.56 28.83-7.14 3.42-14 4.87-21.88 2a73.84 73.84 0 0 1 -34.65-25.62c-3.78-5-8.08-9.58-13.28-15.7-.41 3.71-1 5.43-.69 7a59.55 59.55 0 0 0 2.68 10.93c1.09 2.85-.33 4.64-2.27 4.52-5.77-.35-11.49-1.55-17.24-2.25-3.16-.3-6.34-.33-10.42-.57zm-274 1734.8v-76.2c0-5 .25-10.08-.13-15.08-.15-2-1.68-3.88-2.58-5.81-2.25 2.47-6.11-1.68-8.26 2.28-4.85 8.93-13.07 14.55-22 20.44 1.85 3.28 3.47 6.17 5.26 9.33l13.41-7.09v72.13zm463.3-144-16.33-8.4c5.44-10.64 7.6-11.72 17.91-9.41a40 40 0 0 0 4.18 1.15c8.26.92 16.57 1.91 24.14-3.48-4.81-1-9.63-.93-14.41-1.35-3.12-.28-6.52-.68-9.2-2.13-5-2.72-5.68-8.28-1.68-12.28 9.12-9.14 18.79-17.5 31.51-21.45 2.19-.68 4-2.45 6.79-4.18-7.76-2.4-13.46.59-19 2.82-11.36 4.54-22.08 9.92-30 20.17-4.67 6.09-11 11.1-17.11 15.83-4.55 3.5-10.11 5.67-15.1 8.63-5.35 3.18-10.56 6.59-16.78 10.49 2.51 1.48 3.75 2.85 4.76 2.69 3.69-.58 7.3-1.65 11-2.56 7.9-2 15.27 1 22.84 2.3 4.68.87 9.05 4.5 16.49 1.2zm-736-.73c.1.54.19 1.09.29 1.63 1.58.27 3.24 1 4.72.72 5.7-1 11.5-1.87 17-3.69a31.17 31.17 0 0 1 20.08-.36c3.33 1 7.51 2.76 12.44-.77-7-4.48-12.88-9.46-19.67-12.37-11.75-5-20.63-13.36-28.89-22.5-7.51-8.3-15.92-15.14-26.35-19.25-6.82-2.68-13.51-6.46-23.42-4.1 5.14 2.58 8.54 4.73 12.24 6 10.81 3.85 18.7 11.73 26.64 19.33 4.73 4.53 2.61 11.39-3.78 13.57-2.95 1-6.34.74-9.53 1.06-3.87.38-8-.87-11.79 1.9 3.34 1.75 6.81 3.39 10.24 3.3a149.24 149.24 0 0 0 20.87-2.12c5.85-1 8.37-.46 11.58 4.21 1.07 1.54 2.09 3.11 3.43 5.11-2.91 1.86-5.23 3.61-7.78 4.91s-5.56 2.35-8.33 3.46zm905.85-471.51a57.87 57.87 0 0 0 -.75 6c-.08 6.8 0 13.6 0 20.4 0 14.22-.14 14.44 11.94 22 6.63 4.15 13.78 7.45 22 7 6.68-.4 8.14-2.39 6.1-9-2.18-7.08-6.44-13-11.34-18.27-8.85-9.41-18.25-18.37-27.96-28.09zm187.5-541.95a55.16 55.16 0 0 0 30.73-8.28 22.81 22.81 0 0 1 3.07-1.67c9.18-3.8 14.45-11.26 17.48-20.12.94-2.75-.15-7.09-1.91-9.59-1.6-2.28-4.85-2.81-8.63-1.47-5.93 2.1-10.81 5.41-15.66 9.11-9.19 7-16.1 17.1-28.19 20.31-3 .79-7.32 1.74-6.91 6.65.24 2.94 3.49 4.59 9.26 4.92a4.85 4.85 0 0 1 .75.18zm-1439.89-5.54c-3.35-2.53-6-5.7-9.38-6.88-9.44-3.31-16.74-9.38-23.32-16.45-5.8-6.24-13.18-9.28-20.87-12.22-4.1-1.57-5.82.63-7.72 3.07a8.75 8.75 0 0 0 -.84 10c3.1 5.52 6.4 10.7 11.9 14.7 11.21 8.16 23.41 12.95 37.13 12.76 3.96-.09 9.44 1.48 13.1-4.98zm561.39 358.88c-9.53-.09-10.17 1.21-8.27 8.38 3.51 13.26 13.23 21.39 23.53 28.94a50.55 50.55 0 0 0 13 6.59c6 2.09 9.11-.87 8.13-7.16a18.56 18.56 0 0 0 -2.1-5.65 69.67 69.67 0 0 0 -22-24.48c-4.57-3.13-8.99-6.38-12.31-6.62zm817.37-129.14c-16.9 16-26 65.87-15.21 79.14a26.59 26.59 0 0 0 2-4.84c1.16-5.68 1.71-11.51 3.21-17.09 3.17-11.72 7-23.26 10.17-35 1.86-6.79 1.33-13.71-.19-22.21zm-63.87 448.21c-4.57 9.62-4 12.21.66 20.23 4.78 8.18 12.63 12.84 19.52 18.57 4.5 3.74 9.9 6.4 14.89 9.55l1.44-1.25c-.49-1.79-.57-3.85-1.54-5.33-8.09-12.33-13.69-26.23-24.27-37-3.16-3.26-5.79-5.35-10.72-4.77zm-1264.52-447c-.61 12.48-2.14 24.34 3.42 36.43 5.37 11.67 9.13 24.43 9.83 37.67.07 1.24 1.36 2.41 3 5.19 3.85-16.37 4.16-31.45-.08-45.78-3.46-11.79-5.54-24.82-16.19-33.56zm26.9 493.69 2 1.43c13.31-7.38 25-16.75 34.17-29.08a27.28 27.28 0 0 0 2.71-3.44c2.41-4.71.54-13.1-3.25-15.13-3.06-1.65-8.51.77-11.72 5.63-6.7 10.13-13.34 20.3-19.73 30.63-1.87 2.98-2.82 6.57-4.2 9.91zm562.07-371c-2.48-4.66-4.63-9.69-7.65-14.15-6.19-9.13-14.42-15.86-25.18-19-4.68-1.38-7 0-6.7 4.8a21.78 21.78 0 0 0 2.84 8.9c4.77 8.65 12.61 14.44 20.26 20.21 5.33 3.97 10.8 3.49 16.41-.8zm-599.38-14.86c-18-18.95-55.64-22.81-69.63-6.58 4 0 7.17-.16 10.3 0a33.62 33.62 0 0 1 8.58 1.24 116.14 116.14 0 0 0 50.73 5.3zm-250.79-141.47c-3.68-9.33-11-13-18.18-16.47-3.18-1.54-7.3-1.53-11-1.52s-7.47 1-11.22 1.38c-4.78.53-8.31-.75-8-7.3-4 7.34-4 7.85-2.27 17.73 16.5 2.34 32.5 10.24 50.67 6.18zm1598.9 143c13.47-1.07 25.08-.91 36.19-3.18 10.25-2.1 20.15-5.73 30.83-5.31.35 0 .72-.73 1.08-1.12-11.88-14.89-50.74-10.33-68.1 9.57zm-478.79-423.25c5.83-7.25 11.27-14.11 16.82-20.87 5.71-7 11.53-13.82 17.65-21.13l-10.18-7.51-34.49 41.66zm-110.42 166.6c-13 13.92-24.06 28.2-35 42.25l9.82 7.84c2.72-3.23 5.23-6.12 7.65-9.09 7.7-9.46 15.29-19 23.12-28.37 2.39-2.85 2.49-5.1-.18-7.57-1.54-1.35-3.02-2.8-5.41-5.06zm-768.53-99.68c11.4.93 23.36-4.82 27.82-13.87 3.61-7.33 5.9-14.93 1.14-22.87-14.29 6.44-29.6 26.21-28.96 36.74zm1653.67 197.62c-6.69-.94-12.73-2-18.82-2.54a15.74 15.74 0 0 0 -7.67 1.14 43.92 43.92 0 0 0 -18.06 15.4c5.53 4.88 11.66 3.19 17.14 2.5 8.32-1 16.49-3.24 24.73-4.89 4.16-.84 5.68-2.65 4.83-6.74a22.29 22.29 0 0 0 -2.15-4.87zm-284.55-199.31c-2.84-10.1-9.23-17-15.2-24.1-3.91-4.63-7.76-10.27-15.81-9.71-1.28 6-2 11.77.5 17.85 4.77 11.68 14.67 15.85 25.77 18.24 1.41.3 3.29-1.54 4.74-2.28zm-448.06 540.47c10.21-.89 19.9-7.4 24.86-19.38a6.51 6.51 0 0 0 -7-8.87c-9.41 1-21.91 12-24 20.94-.99 4.62 1.24 7.3 6.14 7.31zm-76.23-1102.95c-9.38-13.77-19.5-13.95-35.91-17.34-3-.62-7.14-1.73-9.44 2.87 13.43 10.03 27.91 16.22 45.35 14.47zm-277-17.32c-10.48-.22-20.16 1.06-29.16 4.88-5.83 2.45-12.23 5.35-15.15 12.16 17.72 1.84 37.15-5.31 44.3-17.04zm388.83 495c-7.1 0-11.69 4.11-11.48 10.23a11.27 11.27 0 0 0 11.93 11.18c5-.22 10.88-6.66 10.71-11.84-.15-5.84-4.58-9.59-11.15-9.57zm-36.49 60.59c7.53 0 10.7-3.08 10.78-10.52.06-6.7-4.15-10.93-10.85-10.88-6.1 0-10.43 4.26-10.55 10.29-.15 6.65 4.12 11.1 10.61 11.11zm-88.41 599.5c10.23 1.33 20.1-4.44 23.63-13.65 1.54-4-1.65-8.68-6-7.92a23.59 23.59 0 0 0 -14.56 8.85c-3.01 3.81-4.72 7.86-3.08 12.72zm-192.79-243.72c-.9-11-7.1-17.43-15.34-22.25-3.37-2-7.31-4.49-10.91 0 4.18 13.76 13.82 22.28 26.25 22.25zm725.26 398.91c-11.61 7.22-13.24 19.48-18.8 30.87 2.74-.43 4.71-.18 5.9-1a81.89 81.89 0 0 0 10.15-8.33c7.07-6.94 7.64-11.26 2.75-21.54zm-1359.32.34c-4.14 4.25-4.92 6.55-4.06 10.42 2.17 9.74 9.46 15 17.31 19.73 1 .58 2.68-.07 5.19-.22-6.82-10.28-8.6-22.47-18.44-29.93zm956.09 319.64c9.51-3.41 17.76-6.05 23.82-13.52-2.85-1.16-4.92-2.43-7.14-2.78-1.88-.3-4.57-.22-5.78.9-4.23 3.9-9.23 7.36-10.9 15.4zm-576.86-13.68c4.43 6.64 11.62 10.53 24.23 12.62-4.32-5.36-7.64-9.91-11.48-14-1.14-1.19-3.82-1.57-5.64-1.3-2.43.38-4.71 1.73-7.11 2.68zm788.13-97.28c4.55 0 7.78.44 10.84-.1a124 124 0 0 0 15.77-3.92c1.13-.35 2.44-2.7 2.27-3.93-.23-1.64-1.69-2.52-4-1.47-1.73.79-4 .55-6.06.45-7.18-.37-12.71 2.87-18.82 8.97zm-977-.42c-8.27-8.85-17.7-9.88-28.49-7.75.34 1.5.34 3.74 1 3.94 8.7 2.81 17.46 5.98 27.47 3.81zm223 112.46c5.52 1 10.94 5.64 17 1-5.54-3.91-11.25-2.7-17-1zm514.82 1c6.09 4.28 11.53.27 17.11-.81-5.76-2.51-11.4-2.8-17.11.81z"/><path d="m1143.53 1940c-1 4.25-1.48 7.69-2.51 11-1.86 5.94-5.69 8.73-11.45 8.79-6.66.07-10.65-2.66-13.18-8-3.29-6.9-2.36-13.77-.1-20.41 2-5.91 8-7.64 13.26-8.77 4.67-1 8.15 2.55 10.16 6.52 1.77 3.51 2.68 7.47 3.82 10.87z"/><path d="m1117.36 1896.46c.6-3.15.89-5.77 1.61-8.25 1.57-5.41 5.31-8.26 10.34-8.18 4.27.07 8.6 3.67 9.74 8.54a34.32 34.32 0 0 1 .11 12.62c-.86 6.1-3 8.35-8.55 9.29-4.51.77-8.69-1.38-10.94-6.17-1.2-2.55-1.67-5.46-2.31-7.85z"/><path d="m997.58 1941.34c-.15 7.91-2 14.28-9.79 17.51-7.62 3.15-16.68-1.68-17.7-9.7-.64-5-2.07-9.89-.29-15.26a16.78 16.78 0 0 1 12.8-11.43c4.31-.83 9.22 2 11.54 7.36 1.58 3.65 2.32 7.67 3.44 11.52z"/><path d="m971.79 1894.52c.24-.91 1.1-3.67 1.7-6.48.77-3.6 1.86-6.65 6.29-7 4-.34 7.91-.35 11.08 2.61 2.24 2.09 4.46 11.3 3.59 14.75-.21.83-.94 1.53-1.16 2.36-1.92 7.39-5.16 10.61-10.41 10.22-6-.45-10.66-5.7-11.09-12.64-.03-.62 0-1.22 0-3.82z"/><path d="m1067.93 1903c0 3 .23 6 0 8.89-.54 5.89-5.93 11.71-11 12.19-4.71.44-10.8-3.65-12.93-8.75-3.77-9.09-3-18.23.36-27.15 2.36-6.33 6.81-9.15 11.82-8.49 5.46.71 10.9 6.78 11.7 13.53a86.19 86.19 0 0 1 .06 9.78z"/></g></svg>