<?xml version="1.0" encoding="UTF-8" standalone="no"?>
<!DOCTYPE svg PUBLIC "-//W3C//DTD SVG 1.1//EN" "http://www.w3.org/Graphics/SVG/1.1/DTD/svg11.dtd">
<svg width="100%" height="100%" viewBox="0 0 1015 787" version="1.1" xmlns="http://www.w3.org/2000/svg" xmlns:xlink="http://www.w3.org/1999/xlink" xml:space="preserve" xmlns:serif="http://www.serif.com/" style="fill-rule:evenodd;clip-rule:evenodd;stroke-linejoin:round;stroke-miterlimit:2;">
    <g transform="matrix(1,0,0,1,-5393,-231.466)">
        <g transform="matrix(1.18242,0,0,0.907442,-984.254,10.5846)">
            <g transform="matrix(5.99777,0,0,18.0412,-6163.1,-26909.6)">
                <g transform="matrix(1.49906,0,0,0.649372,-403.513,-614.568)">
                    <g transform="matrix(0.937755,0,0,0.952885,100.507,124.762)">
                        <path d="M1553.18,3340.73L1557.17,3340.73L1557.17,3354.94L1569.12,3340.84L1573.71,3340.67L1562.57,3353.59L1574.73,3370.98L1570.58,3371.05L1560.11,3356.12L1557.24,3358.6L1557.27,3371.11L1553.18,3371.11L1553.18,3340.73Z" style="fill-rule:nonzero;"/>
                    </g>
                    <g transform="matrix(0.726883,0,0,0.726883,342.589,926.556)">
                        <path d="M1729.72,3278L1729.71,3282.54C1729.71,3282.69 1729.63,3282.84 1729.49,3282.91C1729.35,3282.98 1729.19,3282.97 1729.06,3282.88C1725.51,3280.46 1720.2,3280.35 1717.76,3280.35C1714.04,3280.35 1710.84,3281.93 1708.17,3285.08L1708.17,3285.09C1706.83,3286.65 1705.83,3288.37 1705.17,3290.22C1704.51,3292.09 1704.18,3294.08 1704.18,3296.19C1704.18,3300.52 1705.53,3304.24 1708.22,3307.35L1708.22,3307.35C1710.86,3310.44 1714.07,3311.99 1717.86,3311.99C1719.66,3311.99 1724.94,3311.93 1728.58,3309.84C1728.71,3309.76 1728.87,3309.76 1729,3309.84C1729.12,3309.91 1729.2,3310.05 1729.2,3310.2L1729.2,3314.98C1729.2,3315.18 1729.06,3315.35 1728.87,3315.39C1721.71,3316.78 1721.02,3316.61 1717.41,3316.61C1712.67,3316.61 1708.51,3314.78 1704.95,3311.12C1701.13,3307.2 1699.21,3302.29 1699.21,3296.39C1699.21,3290.66 1700.99,3285.83 1704.54,3281.88L1704.54,3281.87C1708.17,3277.88 1712.73,3275.58 1718.07,3275.58C1720.14,3275.58 1724.33,3275.42 1729.47,3277.62C1729.62,3277.68 1729.73,3277.84 1729.72,3278ZM1748.4,3275.57L1752.26,3275.57C1752.44,3275.57 1752.6,3275.68 1752.65,3275.85L1767.3,3316.05C1767.35,3316.18 1767.33,3316.32 1767.25,3316.43C1767.17,3316.55 1767.05,3316.61 1766.91,3316.61L1762.3,3316.61C1762.12,3316.61 1761.96,3316.5 1761.9,3316.33C1761.9,3316.33 1757.28,3302.87 1757.28,3302.87L1742.92,3302.87L1738.11,3316.34C1738.05,3316.5 1737.89,3316.61 1737.72,3316.61L1733.35,3316.61C1733.22,3316.61 1733.09,3316.55 1733.01,3316.43C1732.93,3316.32 1732.91,3316.18 1732.96,3316.05L1748.01,3275.85C1748.07,3275.68 1748.23,3275.57 1748.4,3275.57ZM1755.9,3298.5L1750.39,3282.08C1750.39,3282.08 1744.43,3298.5 1744.43,3298.5L1755.9,3298.5ZM1792.95,3279.06L1790.65,3282.26C1790.52,3282.45 1790.26,3282.49 1790.07,3282.36C1790.07,3282.36 1788.56,3281.32 1787.82,3280.95C1787.82,3280.94 1787.81,3280.94 1787.81,3280.94C1786.12,3280.01 1784.4,3279.54 1782.65,3279.54C1780.48,3279.54 1778.69,3280.17 1777.27,3281.45C1775.85,3282.74 1775.13,3284.28 1775.13,3286.06C1775.13,3288.66 1776.79,3290.58 1780.04,3291.87L1780.05,3291.88C1781.65,3292.53 1783.25,3293.16 1784.84,3293.76C1786.43,3294.36 1787.7,3295.09 1789.34,3295.71C1789.36,3295.71 1789.38,3295.72 1789.39,3295.73C1793.02,3297.78 1795.18,3300.72 1795.18,3304.78C1795.18,3308.7 1793.89,3311.85 1791.32,3314.24L1791.32,3314.24C1788.87,3316.48 1785.84,3317.6 1782.21,3317.6C1779.81,3317.6 1777.11,3317.21 1774.89,3316.12C1773.61,3315.52 1772.17,3315.2 1770.41,3313.83C1770.24,3313.69 1770.2,3313.44 1770.33,3313.26L1772.57,3310.07C1772.69,3309.9 1772.92,3309.85 1773.11,3309.95C1773.11,3309.95 1776.24,3311.64 1777.59,3312.2C1777.59,3312.2 1777.6,3312.21 1777.6,3312.21C1778.33,3312.54 1780.51,3313.03 1782.24,3312.95C1784.48,3312.84 1786.37,3312.3 1787.91,3310.98L1787.91,3310.97C1789.6,3309.54 1790.44,3307.66 1790.44,3305.35C1790.44,3302.53 1787.96,3300.6 1784.75,3299.12C1783.09,3298.53 1777.63,3295.93 1776.06,3295.34C1776.04,3295.33 1776.02,3295.33 1776,3295.32C1772.43,3293.38 1770.65,3290.39 1770.65,3286.37C1770.65,3283 1771.78,3280.26 1774.03,3278.15C1776.33,3275.97 1779.2,3274.88 1782.65,3274.88C1784.75,3274.88 1786.86,3275.34 1788.95,3276.26C1790.02,3276.68 1791.33,3277.42 1792.85,3278.47C1792.94,3278.54 1793.01,3278.64 1793.02,3278.74C1793.04,3278.86 1793.02,3278.97 1792.95,3279.06Z"/>
                    </g>
                </g>
                <g>
                    <g transform="matrix(0.107092,-0.00185097,0.00568358,0.0482646,1713.61,1320.01)">
                        <path d="M1945.98,4185.07C2243.78,3973.88 2944.81,4255.59 3116.94,3953.59C2821.01,4080.64 2227.95,3834.15 1945.98,4185.07Z"/>
                    </g>
                    <g transform="matrix(0.107196,4.93856e-05,0.00125249,0.0483161,1722.25,1322.31)">
                        <path d="M1951.36,4172.95C2304.39,3978.06 2862.61,4252.17 3126.5,3917.18C2806.49,4091.28 2241.49,3853.74 1951.36,4172.95Z"/>
                    </g>
                    <g transform="matrix(0.107191,0.000470998,0.000239743,0.048319,1716.63,1328.28)">
                        <path d="M1951.36,4172.95C2304.39,3978.06 2862.61,4252.17 3126.5,3917.18C2806.49,4091.28 2241.49,3853.74 1951.36,4172.95Z"/>
                    </g>
                </g>
            </g>
        </g>
    </g>
</svg>
