<svg clip-rule="evenodd" fill-rule="evenodd" stroke-linejoin="round" stroke-miterlimit="2" viewBox="0 0 2018 2018" xmlns="http://www.w3.org/2000/svg"><path d="m2502.34 793.926c103.71 0 187.91 84.197 187.91 187.905 0 103.709-84.2 187.909-187.91 187.909s-187.9-84.2-187.9-187.909c0-103.708 84.19-187.905 187.9-187.905zm3.03 120.016h-10.53c-24.13-14.556-61.13-10.223-64.47-48.389 0-6.924-6.39-8.286-7.22.744-1.2 13.027-.31 26.564 1.5 40.324-12.41-3.398-22.69-9.712-28.66-21.875-3.29-6.692-7.27-5.853-6.56.881.95 9.03 1.43 13.595 2.52 23.975-17.15 2.845-30.17 9.42-40.8 18.989l1.18 7.356-5.46 6.196h-4.06l22.1 155.257 114.04-5.94c1.83 8.34 8.89 12.34 20.87 12.26h.28c12.15.14 19.31-3.85 21.16-12.26l114.04 5.94 5.33-37.47.28.6 25.3-27.28-20.24-10.8 11.42-80.307h-4.05l-5.46-6.196 1.18-7.356c-10.63-9.569-22.9-16.144-40.05-18.989.75-10.132 1.12-15.145 1.77-23.975.49-6.752-4.67-6.764-6.56-.881-4.14 12.906-16.25 18.477-28.67 21.875 1.81-13.76 2.71-27.297 1.5-40.324-.83-9.03-7.22-7.668-7.22-.744-3.34 38.166-40.33 33.833-64.46 48.389zm124.37 135.778h4.65l-5.61 38.6c-22.81-3.32-59.52-18.82-73.64-18.82-20.44 0-29.04 6.19-35.8 15.83-5.06.62-9.84-1.3-14.36-5.63 32.36-35.9 90.51 2.97 120.18 1.65zm-132.77 29.98c-4.52 4.33-9.3 6.25-14.36 5.63-6.75-9.64-15.36-15.83-35.79-15.83-14.13 0-50.83 15.5-73.64 18.82l-20.85-143.335 4.08-4.45 20.38 140.815c29.68 1.32 87.82-37.55 120.18-1.65zm82.35-29.98h45.97l-4.32 27.06c-24.37 1.14-53.98-17.41-83.78-15.06-13.64 1.07-24.68 5.77-32.81 14.53v-3.89c5.56-14.09 42.34-14.76 62.57-18.17 4.1-.7 8.38-2.21 12.37-4.47zm-81.75 22.64v3.89c-8.13-8.76-19.16-13.46-32.81-14.53-29.8-2.35-59.4 16.2-83.77 15.06l-23.34-145.956c11.12-9.426 24.39-14.514 36.94-15.954l11.37 111.32c1.6 15.61 16.24 25.83 29.04 28 20.23 3.41 57.01 4.08 62.57 18.17zm.27-22.64-.19 21.13c-5.64-31.43-55.88-28.96-60.38-54.03l-8.79-138.223c5.28 24.534 32.89 26.335 54.19 35.345h-51.53l15.63 32.95h51.96l-.16 18.533h-43.07l15.62 32.95h27.16l-.16 18.395h-18.26l15.62 32.95zm6.28 0h15.35c-7.51 5.03-13.44 11.48-15.17 21.13zm21.44 0h44.06c-22.42 7.72-53.61 5.08-59.68 14.16 3.3-6.66 8.12-10.3 15.62-14.16zm-129.57-154.049 12.96 128.329c4.04 39.88 73.66 25.81 83.06 39.88-5.56-11.23-15.46-13.89-35.2-23.44-22.41-10.83-22.41-14.25-24.53-47.194l-5.2-80.365c-11.24-2.588-22.32-7.946-31.09-17.21zm128.29 153.039h-2.18c-.25-.02-.29-.08-.31-.31v-7c.02-.25.08-.29.31-.31h.73c1.39-2.28 1.49-5.27 1.59-8.17.11-3.83.18-7.67.27-11.5.03-.25.09-.28.32-.3 2.48 0 4.98-.22 7.46 0 .23.06.24.1.26.31v19.66s1.1.01 1.1.01c.23.06.24.1.26.3v7c-.02.26-.08.29-.31.31h-2.18c-.25-.02-.29-.08-.31-.31v-3.55h-6.7v3.55c-.02.26-.08.29-.31.31zm107.66-28.02c2.98.07 4.6 3.71 4.86 6.32.33 3.3.09 6.79.09 10.2-.02 3.19-.69 6.82-3.63 7.84-1.52.53-3.34.09-4.45-1.1-1.6-1.72-1.92-4.24-1.96-6.51-.02-4.36-.68-8.94.56-12.87.62-1.97 2.18-3.9 4.53-3.88zm-59.83 13.86c0 2.99-.31 7.03 2.01 6.9 1.35-.07 1.9-1.86 2-3.6 0 0 .04-.27.32-.29h2.24c.02.01.04.01.05.01.31.13.23.14.2.74-.15 2.44-.74 5.07-2.66 6.3-1.61 1.04-3.93.76-5.23-.64-1.49-1.6-1.78-3.94-1.82-6.01-.02-4.7-.92-9.67.63-13.97.66-1.82 2.3-3.33 4.19-3.3 1.79.02 3.35 1.37 4.03 3.03.56 1.38.74 2.89.79 4.37 0 0-.02.3-.31.32h-2.2c-.48-.04-.32-.45-.35-.78-.14-1.63-1.05-3.79-2.64-3.02-1.06.51-1.24 2.13-1.25 3.62v2.82s3.68.01 3.68.01c.22.06.24.1.26.31v2.87c-.03.25-.08.29-.32.31zm32.87-6.14h-2.2c-.48-.04-.32-.45-.35-.78-.15-1.64-1.05-3.79-2.65-3.02-1.04.5-1.22 2.06-1.24 3.49-.02 3.26-.02 6.51 0 9.76.02 1.63.53 3.63 1.95 3.59 1.37-.03 1.95-1.79 2.06-3.6 0 0 .04-.27.32-.29h2.25c.01.01.03.01.04.01.31.13.23.14.2.74-.15 2.44-.74 5.07-2.66 6.3-2.01 1.29-4.93.39-6.08-1.87-.74-1.46-.94-3.14-.97-4.78-.02-4.26-.58-8.62.28-12.73.49-2.33 2.25-4.57 4.54-4.54 3.04.04 4.7 3.74 4.82 7.4 0 0-.03.3-.31.32zm15.74-7.29c3.58.08 5.25 5.46 3.9 9.66-.26.8-.96 1.83-.96 1.83.05.04.1.08.14.12 2.19 1.98 2.18 5.76 1.42 8.37-.56 1.88-2.07 3.67-4.21 3.75-1.51.03-3.02 0-4.53 0-.25-.02-.3-.08-.32-.31v-23.11c.02-.25.08-.3.32-.31 1.41 0 2.82-.01 4.24 0zm-100.18 23.73h-2.22c-.25-.02-.29-.08-.31-.31v-23.11c.02-.25.08-.3.31-.31.76 0 1.52-.06 2.27 0 .22.05.25.1.27.31v23.11c-.02.25-.09.29-.32.31zm90.95 0h-2.27c-.25-.02-.29-.08-.31-.31v-19.63h-2.93c-.22-.06-.24-.1-.26-.31v-3.17c.02-.25.08-.3.31-.31 2.91 0 5.82-.23 8.71 0 .23.05.25.1.27.31v3.17c-.02.25-.08.29-.31.31h-2.9l-.01 19.68c-.05.22-.09.25-.3.26zm-73.53 0h-2.22c-.25-.02-.3-.08-.32-.31v-23.11c.02-.25.09-.3.32-.31 2.94 0 5.9-.23 8.84 0 .22.05.25.1.26.31v23.11c-.01.25-.08.29-.31.31h-2.22c-.25-.02-.29-.08-.31-.31v-19.63h-3.73v19.63c-.02.25-.08.29-.31.31zm45.49 0h-2.18c-.24-.02-.29-.08-.31-.31v-23.11c.02-.25.08-.3.31-.31.78 0 1.55-.06 2.32 0 .11.03.19.05.25.23l2.59 9.37c.31 1.16.59 2.33.87 3.49.08-.36.17-.72.26-1.09.19-.8.39-1.6.6-2.4l2.6-9.37c.07-.21.11-.22.3-.23h2.26c.25.02.3.08.32.31v23.11c-.02.25-.09.29-.32.31h-2.17c-.25-.02-.3-.08-.32-.31v-9.02c.03-1.58.06-3.16.1-4.74v-.21c-.16.67-.33 1.33-.49 2l-.4 1.58s-1.36 5.3-1.36 5.3c-.05.1-.09.17-.28.19h-2.2c-.22-.02-.24-.05-.3-.24l-1.35-5.25c-.38-1.56-.9-3.63-.9-3.63.03 1.02.05 2.04.08 3.06l.01.96.02.98v9.02c-.02.25-.08.29-.31.31zm-74.76 0h-2.22c-.25-.02-.29-.08-.31-.31v-23.11c.02-.25.08-.3.31-.31 2.95 0 5.91-.23 8.85 0 .22.05.24.1.26.31v23.11c-.02.25-.08.29-.31.31h-2.22c-.25-.02-.3-.08-.32-.31v-19.63h-3.73v19.63c-.02.25-.08.29-.31.31zm51.83 0h-2.25c-.24-.02-.29-.08-.31-.31v-23.11c.02-.25.08-.3.31-.31.75 0 1.49-.06 2.23 0 .22.05.25.1.26.31 0 4.6.09 9.23-.08 13.77l-.01.28c.24-.87.41-1.4.41-1.4l3.73-12.74c.08-.2.11-.21.3-.22h2.27c.24.02.29.08.31.31v23.11c-.02.25-.08.29-.31.31h-2.18c-.25-.02-.29-.08-.31-.31 0-4.63-.07-9.27.07-13.87l.01-.29c-.07.28-.15.55-.22.83-1.23 4.49-2.62 8.95-3.93 13.42 0 0-.11.21-.3.22zm-10.71 0h-2.22c-.25-.02-.3-.08-.31-.31v-23.11c.02-.25.08-.3.31-.31 1.38 0 2.76-.01 4.14 0 .91.02 1.82.29 2.55.84 2.92 2.21 2.84 7.26 2.03 10.49-.53 2.12-2.16 4.23-4.58 4.28h-1.61v7.81c-.02.25-.08.29-.31.31zm81.99-20.27c-1.58.08-1.93 2.19-2.01 3.29-.21 3.14-.04 6.31-.03 9.47.03 2.03.79 4.81 2.79 3.91 1.17-.53 1.4-2.31 1.42-3.91.02-3.66.67-7.49-.25-10.92-.24-.89-.7-1.86-1.92-1.84zm-12.79 10.07v6.44c1.03 0 2.15.24 2.91-.44 1.09-.97.93-2.75.72-3.87-.18-1.02-.89-2.09-2.07-2.13-.52-.01-1.04 0-1.56 0zm-89.1-9.77h-2.51l-.21 8.64c-.08 2.53-.28 5.1-1.06 7.51 0 0 3.78.06 3.78.06zm20.21.03v8.03c.86 0 1.77.16 2.45-.23 1.35-.76 1.24-2.6 1.24-3.82 0-1.76-.28-3.9-2.11-3.98-.52-.01-1.05 0-1.58 0zm68.89-.03v6.01c.77 0 1.6.15 2.17-.18 1.3-.73 1.13-3.01.87-4.27-.16-.74-.67-1.51-1.54-1.56-.5-.02-1 0-1.5 0zm20.71-44.118 5.82-40.227 4.08 4.45-10.72 73.695-4.34-2.31 4.57-31.531 2.72-2.939zm-75.03 36.008h-60.86l-.16-18.395h62.19zm29.04 0h-26.2c.84-4.7 1.3-10.61 1.81-18.395h26.25zm26.43 0h-23.21l1.88-18.395h12.6l5.13 10.815v-.01zm14.79-27.42-4.02 25.09-12.87-6.87zm-82.73-.241c-.26-.95-.39-1.941-.41-2.87-.02-4.285-.65-8.78.52-12.631.58-1.906 2.06-3.772 4.24-3.889.09-.003.19-.005.29-.004.67.016 1.27.217 1.8.548 1.09.566 1.91 1.659 2.41 3.187.32.81.52 1.647.6 2.393.34 3.305.08 6.767.08 10.171-.02 3.585-1.32 7.969-5.11 7.852-.76-.023-1.43-.278-2.01-.699-1.17-.737-2-2.133-2.41-4.058zm-24.28.043c-.26-.963-.4-1.97-.41-2.913-.02-4.285-.66-8.779.52-12.631.6-1.983 2.15-3.91 4.52-3.893.67.016 1.28.217 1.81.549 1.08.565 1.9 1.652 2.4 3.171.33.814.52 1.657.6 2.409.36 3.522.21 7.246.07 10.838-.12 3.354-1.49 7.296-5.1 7.184-.76-.023-1.43-.28-2.01-.705-1.16-.733-1.99-2.112-2.4-4.009zm-13.34 4.288h-8.02c-.06-.007-.1-.025-.11-.104v-23.088c.01-.079.05-.098.11-.105 2.6 0 5.23-.337 7.82.004.04.018.07.05.08.101v3.133c-.01.079-.05.097-.11.104h-5.4v6.487h4.97c.08.011.1.051.11.104v3.068c-.01.079-.06.097-.11.104h-4.97v6.85h5.63c.08.011.1.051.11.104v3.134c-.01.078-.05.097-.11.104zm27.79 0h-2.3c-.05-.007-.09-.025-.1-.104v-23.088c.01-.079.05-.098.1-.105h2.3c.08.011.1.051.1.105v9.724h4.3v-9.724c0-.054.02-.094.1-.105h2.3c.02.004.02.004.05.014.03.026.05.049.05.091v23.088c-.01.053-.02.093-.1.104h-2.3c-.08-.01-.1-.051-.1-.104v-10.022h-4.3v10.022c-.01.078-.05.097-.1.104zm-23.06 0h-2.27c-.06-.007-.1-.025-.11-.104v-23.088c.01-.079.05-.098.11-.105.76 0 1.54-.096 2.3.004.04.018.07.05.07.101v9.468l.85-2.186 3.19-7.324c.02-.035.05-.056.09-.063h2.68c.08.011.13.041.1.147l-4.53 10.02s5.2 13.015 5.2 13.015c-.01.057-.02.103-.11.115h-2.64c-.04-.006-.07-.025-.09-.067l-3.8-9.862-.94 2.031v7.794c0 .078-.05.097-.1.104zm62.99 0h-2.3c-.08-.01-.1-.051-.1-.104v-23.088c.03-.244 1.44-.23 2.42-.101.05.018.07.05.08.101v23.088c-.01.053-.02.093-.1.104zm5.43 0h-2.27c-.05-.007-.1-.025-.11-.104v-23.088c.01-.079.06-.098.11-.105.76 0 1.54-.096 2.3.004.04.018.07.05.08.101v9.468l.84-2.186 3.19-7.324c.02-.036.05-.057.09-.063h2.68c.08.011.13.041.1.147l-4.53 10.02 5.16 12.93 3.99-23.01c.02-.047.05-.079.11-.087.83 0 1.67-.112 2.5.004.04.017.06.045.08.083l4 23.088c0 .07-.03.111-.1.122h-2.39c-.05-.007-.09-.034-.11-.088l-.73-4.563h-4.03l-.71 4.563c-.02.048-.05.08-.11.088h-2.41c-.03-.005-.06-.017-.07-.038-.02.019-.04.032-.09.038h-2.63c-.05-.006-.08-.025-.1-.067l-3.8-9.862-.93 2.031v7.794c-.01.053-.03.093-.11.104zm-21.12 0h-2.25c-.08-.01-.1-.051-.11-.104v-23.088c.01-.079.05-.098.11-.105.79 0 1.58-.098 2.36.004.04.016.06.034.08.072l2.68 9.368c.48 1.757 1.06 4.142 1.06 4.142l.05.213c.32-1.37.67-2.736 1.03-4.097l.07-.258s2.7-9.393 2.7-9.393c.02-.032.04-.045.08-.051h2.35c.08.011.09.051.1.105v23.088c-.01.053-.02.093-.1.104h-2.25c-.08-.01-.1-.051-.11-.104v-9.006c.04-2.184.08-4.369.15-6.553l.02-.407c-.2.802-.41 1.602-.61 2.402-.13.519-.27 1.037-.4 1.555l-.41 1.579-1.39 5.245c-.01.043-.05.071-.1.078h-2.27c-.05-.007-.08-.035-.1-.078l-1.39-5.245c-.46-1.787-.92-3.574-1.37-5.365l-.05-.189c.03 1.054.06 2.109.09 3.163.03 1.273.06 2.544.08 3.815v9.006c-.01.078-.05.097-.1.104zm-7.37-16.563c-.08-.608-.21-1.206-.38-1.792-.29-.974-.88-1.916-2.17-1.896-1.61.073-2.18 2.124-2.29 3.363-.26 3.165-.05 6.395-.03 9.596.02 1.879.46 4.308 2.47 4.246 1.62-.05 2.29-2.273 2.32-4.246 0-.924.05-1.859.1-2.797v-5.781c0-.24 0-.471-.02-.693zm-24.28.02c-.09-.615-.21-1.22-.38-1.812-.29-.959-1.01-1.914-2.18-1.896-1.59.073-2.18 2.108-2.28 3.363-.26 3.166-.05 6.395-.04 9.596.02 1.44.16 3.045 1.2 3.857.79.619 2.03.476 2.68-.282.78-.918.9-2.297.91-3.575.01-.928.06-1.866.11-2.807v-5.771c0-.233-.01-.458-.02-.673zm-4.53 12.081c.16.383.35.696.59.936-.23-.257-.43-.575-.59-.936zm70.24-13.457c-.14 1.297-.28 2.592-.49 3.879l-.96 6.08h2.99l-.98-6.08c-.21-1.387-.37-2.779-.52-4.173 0 0-.03.173-.04.294zm5.69-51.032.98-9.619c12.55 1.44 25.82 6.528 36.94 15.954l-7.71 48.268-33.94-18.097 1.67-16.365 13.18-14.213zm-38.43 40.936h-64.57l-.16-18.533h65.91zm27.86 0h-24.33l1.19-18.533h14.4l3.68 7.76-.07-.039zm4.8-16.797-1.08 10.706-5.91-3.156zm-63.5-18.527 2.61-11.21h2.73l-4.39 18.18c-.92 3.814-2.19 5.162-4.92 5.162h-.65v-2.992h.72c1.4 0 1.99-.92 2.53-3.222l.21-.855-4.54-16.273h2.76zm-27.63-1.413h5.11v-9.797h2.6v23.013h-2.6v-10.093h-5.11v10.093h-2.61v-23.013h2.61zm37.38-9.797v9.994l1.19-2.696 3.61-7.298h3.04l-5.15 10.027 5.9 12.986h-2.99l-4.41-10.06-1.19 2.268v7.792h-2.58v-23.013zm-20.33 0 4.54 23.013h-2.71l-.85-4.635h-4.77l-.83 4.635h-2.73l4.54-23.013zm36.46 0 4.54 23.013h-2.71l-.85-4.635h-4.78l-.82 4.635h-2.74l4.55-23.013zm.44 15.287-1.14-6.181c-.26-1.512-.54-3.715-.67-4.931h-.08c-.13 1.216-.38 3.419-.67 4.931l-1.11 6.181zm-36.46 0-1.13-6.181c-.26-1.512-.55-3.715-.68-4.931h-.07c-.13 1.216-.39 3.419-.67 4.931l-1.11 6.181zm76.25-11.371-21.96-11.713c8.98-2.982 17.6-7.922 24.71-15.423zm-31.99-8.865h-51.95c21.31-9.01 48.91-10.811 54.19-35.345l-1.74 27.416-5.41-2.883 4.93 10.396zm-99.63-98.326c8.22-7.1 18.83-11.567 30.12-11.671.2-.001.4-.001.6 0 13.23.122 26.14 6.258 34.92 15.988.27.316.4.452.65.74 3.18 3.678 5.78 7.842 7.59 12.37 4.85 12.079 4.14 26.246-1.87 37.775-1.19 2.279-2.58 4.434-4.15 6.449-.09.168-.21.316-.34.441-4.81 6.022-11.19 10.771-18.34 13.869-.75.326-1.18.507-2.28.92-9.26 3.485-19.61 4.254-29.43 1.54-.74-.204-.75-.204-1.64-.487-1.02-.327-2.04-.694-3.06-1.1-7.41-2.981-13.9-8.026-18.85-14.291-.27-.152-.49-.452-.65-.851-.85-1.123-1.65-2.282-2.4-3.474-.33-.684-.53-.885-.95-1.575-4.3-7.469-6.61-16.067-6.16-24.728.57-10.918 5.52-21.163 13.12-28.974.4-.372.58-.621 1.7-1.665.21-.196.42-.391.64-.584.18-.239.45-.47.78-.692zm46.68 69.13c-4.16.961-8.45 1.505-12.67 1.692-5.98.264-12-.189-17.85-1.393.41 1.754.88 3.496 1.42 5.223 9.2 2.884 19.37 2.922 28.74-.717l.09-.034c.11-1.583.2-3.174.27-4.771zm-47.9-5.883c4.32 4.399 9.61 7.872 15.4 10.193-.43-1.564-.82-3.142-1.15-4.732-4.94-1.26-9.74-3.073-14.25-5.461zm63.38-.266c-3.83 2.361-8.09 4.134-12.54 5.397-.06 1.402-.13 2.804-.21 4.204 4.81-2.352 9.13-5.651 12.75-9.601zm-15.23-3.269c-10.7 2.369-22.33 2.05-32.38.016.23 2.218.54 4.428.96 6.622 10.3 2.384 21.2 2.313 31.3-.287.07-2.112.12-4.231.12-6.351zm-51.14-7.349c-.11 1.88-.16 3.765-.14 5.646 5.15 3.346 10.84 5.868 16.78 7.551-.35-2.147-.62-4.311-.81-6.484-.68-.165-1.35-.339-2.01-.52-4.84-1.325-9.62-3.343-13.82-6.193zm69.54-.491c-4.61 3.285-9.94 5.619-15.59 7.15.02 2.073.01 4.146-.03 6.219.64-.201 1.29-.413 1.92-.635 5-1.742 9.81-4.252 13.78-7.66.05-1.69.02-3.384-.08-5.074zm-50.96-5.89c-.26 3.556-.28 7.129-.06 10.691.07.016.15.032.23.047 10.02 1.994 20.5 2.083 30.28.28.7-.129 1.4-.271 2.09-.427-.05-3.47-.21-6.933-.5-10.363-8.06 1.668-16.58 1.564-24.58.806-2.47-.233-4.98-.566-7.46-1.034zm-16.71-6.33c-.72 3.003-1.24 6.071-1.57 9.165 4.5 3.376 9.92 5.752 15.33 7.182-.16-3.525-.09-7.068.19-10.598-5.06-1.181-9.91-2.992-13.95-5.749zm65.5-.558c-.32.24-.65.473-.99.7-4.06 2.74-8.52 4.602-13.18 5.813.2 1.948.36 3.883.47 5.795.09 1.493.16 2.986.21 4.48 5.52-1.539 10.84-3.979 15.34-7.5-.37-3.136-.99-6.246-1.85-9.288zm-74.44 6.865c.73 2.577 1.71 5.083 2.94 7.472.34.669.7 1.327 1.09 1.972.03-1.709.12-3.422.26-5.132-1.56-1.296-3-2.73-4.29-4.312zm83.3-.171c-.21.251-.43.499-.65.74-1.03 1.131-2.12 2.188-3.27 3.174.13 1.457.22 2.919.25 4.383.16-.181.32-.363.48-.548 1.31-2.478 2.38-5.075 3.19-7.749zm-84.17-19.626c-.76 3.916-.96 7.941-.6 11.918l.01.01c1.43 3.246 3.56 6.069 6.15 8.483.39-2.993.96-5.964 1.7-8.878-3.09-2.687-5.52-6.095-6.93-10.413-.12-.371-.23-.744-.33-1.12zm85.15.151c-1.61 4.081-4.15 7.778-7.4 10.771.91 2.949 1.6 5.962 2.06 9.01 2.27-2.179 4.27-4.695 5.88-7.577.23-2.037.31-4.095.21-6.158-.09-2.043-.34-4.063-.75-6.046zm-28.91 4.733c-2.64.576-5.28.936-7.8 1.146-6.39.532-13.27.468-19.56-.748-1.02 4.013-1.75 8.106-2.16 12.233 10.74 2.3 22.65 1.408 31.53-.563-.45-4.097-1.1-8.135-2.01-12.068zm-41.3-5.425c-1.78 3.458-3.21 7.128-4.31 10.928 3.83 3.04 8.42 5.122 13.35 6.464.44-4.101 1.18-8.175 2.19-12.176-4.23-1.085-8.09-2.761-11.23-5.216zm54.71-.18c-3.27 2.355-7.1 3.955-11.03 5.024.95 3.994 1.66 8.034 2.17 12.037.5-.133 1-.269 1.48-.408 4.36-1.263 8.53-3.359 12.04-6.234-1.23-3.619-2.79-7.117-4.66-10.419zm-61.58-9.699c-2.07 1.924-4.03 3.981-5.87 6.134.36 3.981 1.88 7.82 4.54 10.933.47.548.95 1.074 1.46 1.579 1.16-3.75 2.65-7.381 4.47-10.814-1.82-1.903-3.28-4.17-4.27-6.856-.12-.322-.23-.648-.33-.976zm69.12.313c-.52 1.301-1.14 2.53-1.84 3.577-1.03 1.526-2.22 2.876-3.54 4.071 1.65 2.746 3.07 5.613 4.24 8.556.2.497.39.996.58 1.498 3.08-3.113 5.45-6.938 6.73-11.426-1.91-2.222-3.97-4.323-6.17-6.276zm-26.39-.847c-5.24 1.287-10.88 1.397-16.01.182-2.14 4.355-3.89 8.91-5.24 13.588 8.62 1.87 18.36 1.127 26-.734-1.21-4.527-2.76-8.896-4.75-13.036zm-24.98-3.803c-.72.633-1.42 1.294-2.1 1.984-2.82 2.859-5.24 6.06-7.28 9.511 2.93 2.506 6.51 4.253 10.42 5.394 1.34-4.711 3.07-9.305 5.18-13.703-2.24-.776-4.35-1.834-6.22-3.186zm33.04.387c-1.42.985-3.01 1.804-4.67 2.396-.32.114-.64.225-.97.33 1.93 4.206 3.47 8.611 4.68 13.099 2.01-.585 3.83-1.246 5.38-1.95 1.69-.764 3.3-1.734 4.77-2.884-2.59-4.068-5.67-7.783-9.19-10.991zm4.74-4.94c-.7 1.213-1.65 2.356-2.77 3.385 3.47 3.194 6.59 6.827 9.25 10.756 2-1.995 3.6-4.376 4.59-7.058-3.44-2.755-7.16-5.149-11.07-7.083zm-42.02-.615c-3.95 1.972-7.63 4.459-11.03 7.312.37 1.872 1.11 3.672 2.2 5.263.47.687.98 1.337 1.52 1.952 2.54-4.173 5.64-7.998 9.33-11.321-.85-.955-1.54-2.046-2.02-3.206zm-14.1 3.129c-1.68 2.218-3.14 4.599-4.33 7.115 1.38-1.425 2.82-2.793 4.31-4.093-.07-1.001-.07-2.012.02-3.022zm71.12 1.76c-.11.606-.25 1.227-.41 1.851 1.15.994 2.27 2.028 3.35 3.097-.87-1.709-1.85-3.362-2.94-4.948zm-35.95-8.557c-2.49 3.299-4.71 6.802-6.65 10.462 4.41.962 9.26.846 13.6-.185-1.94-3.64-4.24-7.083-6.95-10.277zm-4.45 1.248c-3.63 1.485-7.06 3.401-10.18 5.786 1.53 1.121 3.29 1.999 5.18 2.649 1.5-2.915 3.17-5.735 5-8.435zm8.93.051c1.86 2.621 3.5 5.391 4.95 8.269 1.7-.574 3.28-1.3 4.67-2.167-2.94-2.406-6.16-4.466-9.62-6.102zm17.29-4.003c.04.109.08.218.11.328.4 1.262.43 2.531.18 3.766 3.8 1.88 7.43 4.181 10.81 6.819.18-1.084.27-2.205.25-3.359-2.3-2.698-4.92-5.138-7.8-7.248-1.18-.131-2.36-.234-3.55-.306zm-43.43.594c-2.31.439-4.59 1.064-6.82 1.861-.97.822-1.91 1.684-2.81 2.584-.38 1.488-.92 3.243-1.04 4.891 0 .086-.01.173-.01.259 3.29-2.549 6.82-4.772 10.53-6.574-.12-1.008-.08-2.027.15-3.021zm28.53 1.713c3.27 1.749 6.39 3.872 9.29 6.295.66-.579 1.26-1.202 1.77-1.867.21-.286.4-.585.56-.893-3.74-1.627-7.64-2.833-11.62-3.535zm-14.82-.178c-3.55.558-7.1 1.568-10.62 3.084.19.525.48 1.037.85 1.522.26.349.54.683.84 1.004 1.5-1.2 3.1-2.322 4.79-3.356 1.34-.824 2.73-1.575 4.14-2.254zm26.14-2.254c-2.21-.02-4.42.067-6.61.268 2.54.667 5.04 1.529 7.47 2.565-.08-.956-.38-1.92-.86-2.833zm-29.72.009c-2.24-.117-4.49-.047-6.72.198-.34.709-.57 1.463-.66 2.229 2.39-.992 4.86-1.809 7.38-2.427zm16.3-7.139c-1.64-.217-3.29-.309-4.93-.304-1.92.021-3.85.161-5.75.478 1.35 1.105 2.81 2.41 4.16 3.735.53.523 1.04 1.055 1.55 1.597 1.57-1.919 3.22-3.758 4.97-5.506zm3.5.672c-1.62 1.533-3.17 3.141-4.64 4.814 3.96-.845 8.03-1.275 12.11-1.339-.29-.243-.61-.472-.94-.684-1.99-1.291-4.22-2.194-6.53-2.791zm-17.88.385c-2.18.698-4.23 1.71-6.04 3.138.74-.034 1.45-.05 2.12-.048 3.05.027 6.06.402 9 1.086-1.39-1.287-2.87-2.522-4.43-3.698-.21-.153-.43-.315-.65-.478zm-9.88 2.719c-.61.31-1.22.633-1.83.971.4-.058.8-.112 1.19-.162.21-.278.42-.548.64-.809z" transform="matrix(5.36911 0 0 5.36911 -12426.5 -4262.6824)"/></svg>