<svg fill="none" height="1" viewBox="0 0 1 1" width="1" xmlns="http://www.w3.org/2000/svg" xmlns:xlink="http://www.w3.org/1999/xlink"><clipPath id="a"><path d="m0 0h1v1h-1z"/></clipPath><g clip-path="url(#a)"><path clip-rule="evenodd" d="m.499929-.00000286c.275932 0 .499955.22401486.499955.49994186 0 .275929-.224023.499952-.499955.499952s-.499929-.224023-.499929-.499952c0-.275927.223997-.49994186.499929-.49994186zm.008062.31931586h-.028017c-.0642-.038728-.162643-.0272-.171529-.128744 0-.018423-.017002-.022046-.01921.001979-.003193.03466-.000825.070676.003991.107286-.033018-.00904-.060369-.025839-.076253-.0582-.008754-.017805-.019343-.015573-.017454.002344.002528.024025.003805.036171.006705.063788-.04563.007569-.080271.025063-.1085531.050522l.0031401.019572-.014527.016485h-.0108022l.0587992.413078.303416-.015804c.004869.022189.023653.032832.055527.032619h.000745c.032327.000372.051376-.010243.056298-.032619l.303416.015804.014181-.099693.000745.001596.067314-.072581-.053851-.028735.030384-.213665h-.010775l-.014527-.016485.00314-.019572c-.028283-.025459-.060929-.042953-.106558-.050522.001995-.026958.00298-.040295.004709-.063788.001304-.017965-.012425-.017997-.017453-.002344-.011015.034337-.043235.04916-.07628.0582.004816-.03661.00721-.072626.003991-.107286-.002208-.024025-.01921-.020402-.01921-.001979-.008886.101544-.107302.090016-.171502.128744zm.330899.361252h.012372l-.014926.102699c-.060688-.008833-.15836-.050072-.195927-.050072-.054383 0-.077264.016469-.09525.042117-.013462.00165-.02618-.003459-.038206-.014979.086097-.095516.240811.007902.319752.00439zm-.353249.079765c-.012026.01152-.024743.016629-.038206.014979-.017959-.025648-.040867-.042117-.095223-.042117-.037595 0-.135239.041239-.195928.050072l-.055473-.381358.010855-.01184.054223.374654c.078967.003512.233655-.099906.319752-.00439zm.219102-.079765h.122308l-.011494.071996c-.064839.003033-.14362-.046321-.222906-.040069-.036291.002847-.065664.015352-.087295.038659v-.01035c.014793-.037488.11265-.03927.166475-.048343.010908-.001863.022296-.00588.032912-.011893zm-.217505.060236v.01035c-.021631-.023307-.050978-.035812-.087295-.038659-.079286-.006252-.15804.043102-.222879.040069l-.062099-.388332c.029586-.025079.064893-.038616.098283-.042447l.030251.296179c.004257.041532.043208.068723.077264.074497.053824.009073.151682.010855.166475.048343zm.000718-.060236-.000506.056219c-.015006-.083623-.148674-.077052-.160647-.143753l-.023387-.367757c.014048.065275.087507.070067.144178.094039h-.137101l.041586.087667h.138245l-.000426.049309h-.114592l.041559.087667h.072262l-.000426.048942h-.048583l.041559.087667zm.016709 0h.04084c-.019981.013383-.035759.030544-.040361.056219zm.057043 0h.117227c-.059651.02054-.142636.013516-.158786.037674.00878-.017719.021605-.027404.041559-.037674zm-.344735-.409864.034481.341433c.010749.106105.195981.068671.220991.106105-.014793-.029878-.041133-.036956-.093654-.062365-.059624-.028814-.059624-.037913-.065265-.125564l-.013835-.21382c-.029905-.006886-.059385-.021141-.082718-.045789zm.34133.407177h-.0058c-.000666-.000053-.000772-.000213-.000825-.000825v-.018624c.000053-.000665.000213-.000772.000825-.000825h.001942c.003698-.006066.003964-.014021.00423-.021737.000292-.01019.000479-.020407.000718-.030597.00008-.000665.00024-.000745.000852-.000798.006598 0 .013249-.000586.019848 0 .000612.000159.000638.000266.000692.000824v.052308l.002927.000027c.000611.000159.000638.000266.000691.000798v.018624c-.000053.000692-.000213.000772-.000825.000825h-.0058c-.000665-.000053-.000771-.000213-.000825-.000825v-.009445h-.017825v.009445c-.000054.000692-.000213.000772-.000825.000825zm.286441-.07455c.007928.000186.012239.00987.01293.016815.000878.00878.000239.018065.000239.027138-.000053.008487-.001835.018145-.009657.020859-.004044.00141-.008887.000239-.01184-.002927-.004257-.004576-.005108-.011281-.005215-.01732-.000053-.011601-.001809-.023786.00149-.034242.001649-.005242.0058-.010377.012053-.010323zm-.159184.036876c0 .007955-.000825.018704.005348.018358.003591-.000187.005055-.004949.005321-.009578 0 0 .000106-.000719.000851-.000772h.005959c.000054.000027.000107.000027.000134.000027.000824.000345.000611.000372.000532.001969-.000399.006492-.001969.013489-.007077.016761-.004284.002767-.010457.002022-.013915-.001703-.003965-.004257-.004736-.010482-.004843-.01599-.000053-.012505-.002447-.025728.001677-.037168.001756-.004843.006119-.00886.011148-.00878.004762.000053.008913.003645.010722.008061.00149.003672.001969.007689.002102.011627 0 0-.000054.000798-.000825.000852h-.005853c-.001277-.000107-.000852-.001198-.000932-.002076-.000372-.004337-.002793-.010084-.007024-.008035-.00282.001357-.003299.005667-.003325.009632v.007503l.009791.000026c.000585.00016.000638.000266.000691.000825v.007636c-.000079.000665-.000213.000772-.000851.000825zm.087454-.016336h-.005854c-.001277-.000107-.000851-.001198-.000931-.002076-.000399-.004363-.002793-.010084-.00705-.008035-.002767.00133-.003246.005481-.0033.009286-.000053.008673-.000053.01732 0 .025967.000054.004337.00141.009658.005189.009552.003645-.00008.005188-.004763.005481-.009578 0 0 .000106-.000719.000851-.000772h.005986c.000027.000027.00008.000027.000106.000027.000825.000345.000613.000372.000533.001969-.000399.006492-.001969.013489-.007078.016761-.005347.003432-.013116.001038-.016176-.004975-.001969-.003885-.002501-.008354-.002581-.012718-.000053-.011334-.001543-.022934.000745-.033869.001304-.0062.005986-.012159.012079-.012079.008089.000106.012505.00995.012825.019688 0 0-.00008.000798-.000825.000852zm.041878-.019396c.009525.000212.013968.014527.010376.025701-.000691.002129-.002554.004869-.002554.004869.000133.000106.000266.000213.000372.000319.005827.005268.0058.015325.003778.02227-.00149.005001-.005507.009764-.011201.009977-.004017.00008-.008035 0-.012052 0-.000666-.000053-.000799-.000213-.000852-.000825v-.061487c.000053-.000665.000213-.000798.000852-.000824.003751 0 .007503-.000027.011281 0zm-.26654.063136h-.005907c-.000665-.000053-.000771-.000213-.000825-.000825v-.061487c.000054-.000665.000213-.000798.000825-.000824.002022 0 .004045-.00016.00604 0 .000585.000133.000665.000266.000718.000824v.061487c-.000053.000665-.000239.000772-.000851.000825zm.241982 0h-.006039c-.000666-.000053-.000772-.000213-.000825-.000825v-.052228h-.007796c-.000585-.000159-.000638-.000266-.000692-.000825v-.008434c.000054-.000665.000213-.000798.000825-.000824.007743 0 .015485-.000612.023174 0 .000612.000133.000665.000266.000719.000824v.008434c-.000054.000666-.000213.000772-.000825.000825h-.007716l-.000026.052361c-.000133.000585-.00024.000665-.000799.000692zm-.195634 0h-.005907c-.000665-.000053-.000798-.000213-.000852-.000825v-.061487c.000054-.000665.00024-.000798.000852-.000824.007822 0 .015698-.000612.02352 0 .000585.000133.000665.000266.000692.000824v.061487c-.000027.000665-.000213.000772-.000825.000825h-.005907c-.000665-.000053-.000771-.000213-.000825-.000825v-.052228h-.009924v.052228c-.000053.000665-.000213.000772-.000824.000825zm.121031 0h-.0058c-.000639-.000053-.000772-.000213-.000825-.000825v-.061487c.000053-.000665.000213-.000798.000825-.000824.002075 0 .004124-.00016.006172 0 .000293.000079.000506.000133.000666.000611l.00689.02493c.000825.003087.00157.0062.002315.009286.000213-.000958.000453-.001916.000692-.0029.000506-.002129.001037-.004257.001596-.006386l.006918-.02493c.000186-.000558.000293-.000585.000798-.000611h.006013c.000665.000053.000798.000212.000851.000824v.061487c-.000053.000665-.000239.000772-.000851.000825h-.005774c-.000665-.000053-.000798-.000213-.000851-.000825v-.023999c.00008-.004203.00016-.008407.000266-.012611v-.000559c-.000426.001783-.000878.003539-.001304.005321l-.001064.004204-.003618.014101c-.000133.000267-.00024.000453-.000745.000506h-.005854c-.000585-.000053-.000638-.000133-.000798-.000638l-.003591-.013969c-.001011-.00415-.002395-.009658-.002395-.009658.000079.002714.000133.005428.000213.008142l.000026.002554.000054.002607v.023999c-.000054.000665-.000213.000772-.000825.000825zm-.198908 0h-.005906c-.000665-.000053-.000772-.000213-.000825-.000825v-.061487c.000053-.000665.000213-.000798.000825-.000824.007849 0 .015724-.000612.023547 0 .000585.000133.000638.000266.000691.000824v.061487c-.000053.000665-.000213.000772-.000825.000825h-.005906c-.000665-.000053-.000798-.000213-.000852-.000825v-.052228h-.009924v.052228c-.000053.000665-.000213.000772-.000825.000825zm.1379 0h-.005986c-.000639-.000053-.000772-.000213-.000825-.000825v-.061487c.000053-.000665.000213-.000798.000825-.000824.001995 0 .003964-.00016.005933 0 .000585.000133.000665.000266.000692.000824 0 .012239.000239.024558-.000214.036637l-.000026.000745c.000638-.002315.001091-.003725.001091-.003725l.009924-.033896c.000213-.000532.000293-.000559.000798-.000585h.006039c.000639.000053.000772.000212.000825.000824v.061487c-.000053.000665-.000213.000772-.000825.000825h-.005799c-.000666-.000053-.000772-.000213-.000825-.000825 0-.012318-.000187-.024664.000186-.036902l.000027-.000772c-.000187.000745-.000399.001463-.000586.002208-.003272.011946-.00697.023813-.010456.035706 0 0-.000292.000558-.000798.000585zm-.028495 0h-.005906c-.000666-.000053-.000799-.000213-.000825-.000825v-.061487c.000053-.000665.000213-.000798.000825-.000824.003671 0 .007343-.000027.011014 0 .002421.000053.004843.000771.006785.002235.007769.00588.007556.019315.005401.027909-.00141.005641-.005747.011255-.012186.011388h-.004283v.020779c-.000053.000665-.000213.000772-.000825.000825zm.218143-.053931c-.004203.000213-.005135.005827-.005347.008754-.000559.008354-.000107.016788-.00008.025196.000079.005401.002102.012797.007423.010403.003113-.00141.003724-.006146.003778-.010403.000053-.009738.001782-.019928-.000665-.029054-.000639-.002368-.001863-.004949-.005109-.004896zm-.034029.026793v.017134c.00274 0 .00572.000639.007742-.001171.0029-.00258.002474-.007316.001916-.010296-.000479-.002714-.002368-.005561-.005507-.005667-.001384-.000027-.002767 0-.004151 0zm-.237061-.025994h-.006678l-.000558.022987c-.000213.006732-.000745.013569-.002821.019981l.010057.00016zm.053772.000079v.021365c.002288 0 .004709.000426.006518-.000612.003592-.002022.003299-.006917.003299-.010163 0-.004683-.000745-.010377-.005614-.01059-.001383-.000026-.002793 0-.004203 0zm.183289-.000079v.01599c.002049 0 .004257.000399.005773-.000479.003459-.001942.003007-.008009.002315-.011361-.000425-.001969-.001782-.004017-.004097-.00415-.00133-.000054-.002661 0-.003991 0zm.055101-.117381.015485-.107029.010856.01184-.028523.196074-.011546-.006146.012158-.083892.007238-.007819zm-.199625.095803h-.161925l-.000426-.048942h.165464zm.077264 0h-.069708c.002235-.012505.003459-.028229.004816-.048942h.069841zm.07032 0h-.061753l.005002-.048942h.033523l.01365.028775v-.000027zm.03935-.072954-.010696.066755-.034241-.018279zm-.220112-.000641c-.000692-.002528-.001038-.005164-.001091-.007636-.000053-.011401-.001729-.02336.001384-.033606.001543-.005071.005481-.010036.011281-.010347.000239-.000008.000505-.000014.000771-.000011.001783.000043.003379.000577.004789.001458.0029.001506.005082.004414.006412.008479.000852.002155.001384.004382.001596.006367.000905.008794.000214.018004.000214.027061-.000054.009538-.003513.021203-.013596.020891-.002023-.000061-.003805-.000739-.005348-.001859-.003113-.001961-.005321-.005675-.006412-.010797zm-.0646.000114c-.000692-.002562-.001064-.005241-.00109-.00775-.000054-.011401-.001756-.023358.001383-.033606.001596-.005276.00572-.010403.012026-.010358.001783.000043.003405.000577.004815.001461.002874.001503.005056.004395.006386.008436.000878.002166.001383.004409.001596.00641.000958.009371.000559.019279.000187.028836-.00032.008923-.003964.019411-.013569.019113-.002022-.000061-.003805-.000745-.005348-.001875-.003086-.001951-.005295-.00562-.006386-.010667zm-.035492.011409h-.021338c-.00016-.000019-.000266-.000067-.000293-.000277v-.061428c.000027-.00021.000133-.000261.000293-.000279.006917 0 .013914-.000897.020805.00001.000107.000048.000187.000133.000213.000269v.008336c-.000026.00021-.000132.000258-.000292.000276h-.014368v.01726h.013224c.000212.000029.000266.000136.000293.000277v.008162c-.000027.00021-.00016.000258-.000293.000277h-.013224v.018225h.01498c.000213.00003.000266.000136.000292.000277v.008338c-.000026.000208-.000132.000258-.000292.000277zm.073938 0h-.006119c-.000133-.000019-.00024-.000067-.000266-.000277v-.061428c.000026-.00021.000133-.000261.000266-.000279h.006119c.000213.000029.000266.000135.000266.000279v.025872h.011441v-.025872c0-.000144.000053-.00025.000266-.000279h.006119c.000053.00001.000053.00001.000133.000037.00008.000069.000133.00013.000133.000242v.061428c-.000026.000141-.000053.000248-.000266.000277h-.006119c-.000213-.000027-.000266-.000136-.000266-.000277v-.026664h-.011441v.026664c-.000026.000208-.000133.000258-.000266.000277zm-.061353 0h-.00604c-.00016-.000019-.000266-.000067-.000293-.000277v-.061428c.000027-.00021.000133-.000261.000293-.000279.002022 0 .004098-.000256.00612.00001.000106.000048.000185.000133.000185.000269v.025191l.002262-.005816.008487-.019487c.000054-.000093.000134-.000149.00024-.000167h.00713c.000213.000029.000346.000109.000267.000391l-.012053.026659.013835.034628c-.000027.000152-.000054.000274-.000293.000306h-.007024c-.000106-.000016-.000186-.000067-.000239-.000178l-.01011-.026239-.002502.005403v.020737c0 .000208-.000132.000258-.000265.000277zm.167591 0h-.006119c-.000213-.000027-.000266-.000136-.000266-.000277v-.061428c.000079-.000649.003831-.000612.006439-.000269.000133.000048.000186.000133.000212.000269v.061428c-.000026.000141-.000053.000248-.000266.000277zm.014447 0h-.006039c-.000133-.000019-.000266-.000067-.000293-.000277v-.061428c.000027-.00021.00016-.000261.000293-.000279.002022 0 .004097-.000256.006119.00001.000107.000048.000187.000133.000213.000269v.025191l.002235-.005816.008487-.019487c.000053-.000095.000133-.000151.00024-.000167h.00713c.000213.000029.000346.000109.000266.000391l-.012052.026659.013728.034402.010616-.061221c.000053-.000125.000133-.00021.000293-.000231.002208 0 .004443-.000298.006651.00001.000107.000046.00016.00012.000213.000221l.010643.061428c0 .000187-.00008.000296-.000266.000325h-.006359c-.000133-.000019-.00024-.000091-.000293-.000234l-.001942-.012141h-.010722l-.001889.012141c-.000054.000127-.000134.000213-.000293.000234h-.006412c-.00008-.000013-.00016-.000045-.000187-.000101-.000053.00005-.000106.000085-.000239.000101h-.006997c-.000133-.000016-.000213-.000067-.000266-.000178l-.01011-.026239-.002475.005403v.020737c-.000026.000141-.00008.000248-.000293.000277zm-.056192 0h-.005986c-.000213-.000027-.000266-.000136-.000293-.000277v-.061428c.000027-.00021.000133-.000261.000293-.000279.002101 0 .004204-.000261.006279.00001.000106.000043.00016.000091.000213.000192l.00713.024924c.001277.004675.002821.011021.002821.011021l.000133.000567c.000851-.003646.001782-.00728.00274-.010901l.000186-.000687.007184-.024991c.000053-.000085.000106-.000119.000213-.000135h.006252c.000213.000029.000239.000135.000266.000279v.061428c-.000027.000141-.000053.000248-.000266.000277h-.005986c-.000213-.000027-.000266-.000136-.000293-.000277v-.023961c.000106-.005811.000213-.011624.000399-.017435l.000053-.001083c-.000532.002134-.00109.004262-.001622.006391-.000346.001381-.000719.002759-.001065.004137l-.001091.004201-.003698.013955c-.000026.000114-.000133.000189-.000266.000208h-.00604c-.000133-.000019-.000212-.000094-.000265-.000208l-.003699-.013955c-.001224-.004754-.002447-.009509-.003645-.014274l-.000133-.000503c.00008.002804.000159.005611.000239.008416.00008.003387.00016.006768.000213.01015v.023961c-.000026.000208-.000133.000258-.000266.000277zm-.019608-.044068c-.000213-.001617-.000559-.003208-.001012-.004767-.000771-.002592-.002341-.005098-.005773-.005045-.004284.000194-.0058.005651-.006093.008948-.000692.00842-.000133.017014-.00008.025531.000053.004999.001225.011462.006572.011297.004311-.000133.006093-.006048.006173-.011297 0-.002459.000133-.004946.000266-.007442v-.015381c0-.000638 0-.001253-.000053-.001844zm-.0646.000053c-.00024-.001636-.000558-.003245-.001011-.00482-.000771-.002552-.002687-.005093-.0058-.005045-.004231.000194-.005801.005609-.006067.008948-.000691.008423-.000132.017014-.000106.025531.000054.003831.000426.008101.003193.010262.002102.001647.005401.001266.00713-.00075.002076-.002443.002395-.006112.002421-.009512.000027-.002469.00016-.004965.000293-.007469v-.015354c0-.00062-.000026-.001219-.000053-.001791zm-.012053.032143c.000426.001019.000932.001852.00157.002491-.000612-.000684-.001144-.00153-.00157-.002491zm.186882-.035804c-.000373.003451-.000745.006897-.001304.010321l-.002554.016176h.007955l-.002607-.016176c-.000559-.00369-.000985-.007394-.001384-.011103 0 0-.00008.000461-.000106.000782zm.015138-.135776.002608-.025592c.033391.003831.068697.017368.098283.042447l-.020513.128422-.090302-.048149.004444-.04354.035067-.037816zm-.102247.108915h-.171796l-.000425-.049309h.175361zm.074125 0h-.064733l.003166-.049309h.038313l.009791.020646-.000186-.000104zm.012771-.04469-.002874.028484-.015724-.008397zm-.168949-.049293.006944-.029826h.007264l-.01168.04837c-.002448.010148-.005827.013734-.013091.013734h-.001729v-.00796h.001916c.003724 0 .005294-.002448.006731-.008573l.000559-.002275-.01208-.043296h.007344zm-.073513-.00376h.013596v-.026066h.006918v.061229h-.006918v-.026854h-.013596v.026854h-.006943v-.061229h.006943zm.099454-.026066v.02659l.003166-.007173.009605-.019417h.008088l-.013702.026678.015698.034551h-.007956l-.011733-.026766-.003166.006034v.020732h-.006864v-.061229zm-.05409 0 .012079.061229h-.00721l-.002262-.012332h-.012691l-.002208.012332h-.007264l.012079-.061229zm.097006 0 .012079.061229h-.00721l-.002262-.012332h-.012718l-.002181.012332h-.007291l.012106-.061229zm.00117.040673-.003033-.016445c-.000691-.004023-.001436-.009885-.001782-.01312h-.000213c-.000346.003235-.001011.009097-.001782.01312l-.002954.016445zm-.097006 0-.003006-.016445c-.000691-.004023-.001464-.009885-.001809-.01312h-.000186c-.000346.003235-.001038.009097-.001783.01312l-.002953.016445zm.202872-.030254-.058427-.031164c.023892-.007934.046827-.021077.065744-.041034zm-.085113-.023586h-.138218c.056697-.023972.13013-.028764.144178-.094039l-.00463.072943-.014393-.007671.013116.02766zm-.265076-.2616072c.02187-.0188904.050099-.0307754.080137-.0310521.000532-.0000026.001065-.0000026.001597 0 .0352.0003246.069548.0166501.092908.0425378.000718.0008408.001064.0012026.001729.0019688.008461.0097857.015379.0208647.020194.0329117.012904.032138.011016.06983-.004975.100505-.003166.006063-.006864.011797-.011042.017158-.000239.000447-.000558.000841-.000904.001173-.012797.016022-.029772.028658-.048796.0369-.001995.000868-.003139.001349-.006066.002448-.024637.009272-.052174.011318-.078301.004097-.001969-.000542-.001996-.000542-.004364-.001295-.002714-.00087-.005427-.001847-.008141-.002927-.019715-.007931-.036983-.021354-.050153-.038023-.000718-.000404-.001303-.001202-.001729-.002264-.002262-.002988-.00439-.006072-.006386-.009243-.000878-.00182-.00141-.002355-.002527-.00419-.011441-.019873-.017587-.042748-.016389-.065792.001516-.029048.014686-.0563064.034906-.0770884.001065-.0009898.001543-.0016522.004523-.0044299.000559-.0005215.001118-.0010404.001703-.0015539.000479-.0006359.001198-.0012504.002076-.001841zm.124197.1839282c-.011068.002556-.022482.004004-.03371.004501-.01591.000703-.031927-.000503-.047492-.003706.001091.004667.002341.009302.003778.013897.024478.007673.051536.007774.076466-.001908l.000239-.000091c.000293-.004211.000533-.008444.000719-.012693zm-.127444-.015653c.011494.011704.025569.020945.040974.02712-.001144-.004161-.002182-.00836-.00306-.01259-.013143-.003353-.025914-.008176-.037914-.01453zm.16863-.000707c-.01019.006281-.021524.010999-.033364.014359-.00016.00373-.000346.00746-.000559.011185.012798-.006258.024292-.015035.033923-.025544zm-.040521-.008698c-.028468.006303-.059412.005454-.086151.000043.000612.005901.001437.011781.002555.017618.027404.006343.056404.006154.083276-.000763.000187-.00562.00032-.011257.00032-.016898zm-.136064-.019553c-.000293.005002-.000425.010017-.000372.015022.013702.008902.028841.015613.044645.02009-.000931-.005712-.00165-.01147-.002155-.017251-.001809-.000439-.003592-.000902-.005348-.001384-.012877-.003525-.025595-.008894-.03677-.016477zm.185019-.001306c-.012265.00874-.026446.01495-.041478.019023.000053.005516.000026.011031-.00008.016547.001702-.000535.003432-.001099.005108-.00169.013303-.004635.0261-.011313.036663-.02038.000133-.004497.000053-.009004-.000213-.0135zm-.135585-.015671c-.000691.009461-.000745.018967-.000159.028444.000186.000043.000399.000086.000612.000125.026659.005306.054542.005543.080563.000746.001862-.000344.003725-.000722.005561-.001137-.000133-.009232-.000559-.018446-.001331-.027572-.021444.004438-.044113.004162-.065398.002145-.006571-.00062-.013249-.001506-.019848-.002751zm-.044458-.016842c-.001916.00799-.0033.016153-.004178.024385.011973.008982.026394.015303.040788.019108-.000426-.009379-.00024-.018805.000505-.028197-.013463-.003142-.026366-.00796-.037115-.015296zm.17427-.001484c-.000852.000638-.00173.001258-.002634.001862-.010802.00729-.022668.012244-.035067.015466.000532.005183.000958.010331.00125.015418.00024.003973.000426.007945.000559.01192.014687-.004095.028841-.010587.040814-.019955-.000984-.008343-.002634-.016618-.004922-.024711zm-.198056.018265c.001942.006856.00455.013524.007822.01988.000905.00178.001863.00353.0029.005246.00008-.004547.00032-.009104.000692-.013654-.00415-.003448-.007982-.007263-.011414-.011472zm.221629-.000455c-.000559.000667-.001144.001327-.00173.001968-.00274.00301-.00564.005822-.0087.008445.000346.003877.000585.007767.000665.011662.000426-.000482.000851-.000966.001277-.001458.003486-.006593.006333-.013503.008488-.020617zm-.223944-.052217c-.002022.010419-.002554.021127-.001596.031709l.000027.000026c.003804.008637.009471.016148.016362.02257.001038-.007963.002554-.015868.004523-.023621-.008221-.007149-.014686-.016216-.018438-.027705-.000319-.000987-.000612-.001979-.000878-.002979zm.226551.000401c-.004283.010858-.011042.020695-.019689.028658.002422.007846.004258.015862.005481.023972.00604-.005798.011361-.012492.015645-.02016.000611-.005419.000825-.010895.000559-.016384-.00024-.005435-.000905-.01081-.001996-.016086zm-.076918.012593c-.007024.001532-.014048.00249-.020753.003049-.017001.001415-.035306.001245-.052041-.00199-.002714.010677-.004657.021567-.005748.032547.028575.00612.060263.003746.08389-.001498-.001198-.0109-.002927-.021644-.005348-.032108zm-.109884-.014434c-.004736.009201-.00854.018965-.011466.029075.01019.008089.022402.013628.035518.017199.001171-.010912.00314-.021751.005828-.032396-.011255-.002887-.021525-.007346-.02988-.013878zm.145563-.000479c-.0087.006266-.018891.010523-.029347.013367.002528.010627.004417.021375.005774.032026.00133-.000354.00266-.000716.003937-.001086.011601-.00336.022695-.008937.032034-.016586-.003272-.009629-.007423-.018935-.012398-.027721zm-.163841-.0258051c-.005507.0051191-.010722.0105921-.015618.0163201.000958.010592.005002.020806.01208.029089.00125.001458.002527.002857.003884.004201.003086-.009977.007051-.019638.011893-.028772-.004842-.005063-.008726-.011095-.01136-.018241-.00032-.000857-.000613-.001724-.000879-.0025971zm.183901.0008331c-.001383.003461-.003032.006731-.004895.009517-.00274.00406-.005906.007652-.009418.010831.00439.007306.008168.014934.011281.022764.000532.001323.001037.00265.001543.003986.008195-.008283.0145-.018459.017906-.0304-.005082-.005912-.010563-.011502-.016417-.016698zm-.070213-.0022538c-.013941.0034238-.028947.0037168-.042596.0004842-.005694.0115866-.01035.0237056-.013942.0361526.022935.004975.048849.002998.069176-.001953-.003219-.012045-.007343-.023669-.012638-.0346838zm-.066462-.0101183c-.001915.0016842-.003778.0034429-.005587.0052787-.007503.0076064-.013942.0161234-.01937.0253054.007796.006667.017321.011315.027724.014351.003566-.012534.008168-.024757.013782-.0364584-.00596-.0020647-.011574-.0048795-.016549-.0084767zm.087907.0010298c-.003778.0026207-.008009.0047997-.012426.0063748-.000851.0003033-.001702.0005985-.00258.0008779.005135.0111906.009232.0229106.012452.0348516.005348-.001557.01019-.003315.014313-.005188.004497-.002033.008781-.004614.012692-.007674-.006891-.010823-.015086-.0207071-.024451-.0292423zm.012611-.0131435c-.001862.0032274-.00439.0062685-.00737.0090062.009232.008498.017534.0181636.024611.0286176.005321-.005308.009578-.011643.012212-.0187786-.009152-.00733-.01905-.0136995-.029453-.0188452zm-.111799-.0016362c-.010509.0052467-.0203.0118635-.029346.0194542.000984.0049807.002953.0097698.005853.0140028.00125.001828.002607.003557.004044.005194.006758-.011103.015006-.0212799.024824-.0301211-.002262-.0025409-.004098-.0054436-.005375-.0085299zm-.037515.008325c-.004469.0059012-.008354.0122361-.01152.01893.003672-.0037912.007503-.0074308.011467-.0108896-.000186-.0026633-.000186-.0053532.000053-.0080404zm.189223.0046826c-.000292.0016124-.000665.0032647-.001091.0049249.00306.0026446.00604.0053956.008913.0082395-.002314-.0045466-.004922-.0089446-.007822-.0131644zm-.095649-.0227668c-.006624.0087773-.012531.0180974-.017693.0278352.011733.0025595.024637.0022509.036185-.0004922-.005162-.0096846-.011281-.018845-.018492-.027343zm-.01184.0033204c-.009658.003951-.018784.0090488-.027085.0153943.004071.0029826.008754.0053185.013782.0070479.003991-.0077556.008434-.0152586.013303-.0224422zm.02376.0001358c.004949.0069734.009312.0143433.01317.0220005.004523-.0015272.008726-.0034588.012425-.0057655-.007823-.0064015-.016389-.0118823-.025595-.016235zm.046002-.0106504c.000106.00029.000212.00058.000292.0008726.001064.0033577.001144.006734.000479.0100199.01011.0050019.019768.0111239.028761.0181426.000479-.0028841.000719-.0058667.000665-.008937-.006119-.0071783-.01309-.0136702-.020752-.0192841-.00314-.0003485-.006279-.0006225-.009445-.000814zm-.115551.0015803c-.006146.0011681-.012212.0028308-.018145.0049513-.00258.0021871-.005082.0044806-.007476.0068752-.001011.003959-.002448.0086283-.002767.013013 0 .0002288-.000027.0004602-.000027.000689.008753-.0067819.018146-.0126963.028016-.0174908-.000319-.0026819-.000213-.005393.000399-.0080377zm.075907.0045577c.008701.0046534.017002.0103018.024718.0167485.001756-.0015405.003352-.0031981.004709-.0049674.000559-.0007609.001064-.0015564.00149-.0023759-.009951-.0043288-.020327-.0075374-.030917-.0094052zm-.03943-.0004737c-.009445.0014846-.01889.0041718-.028255.0082053.000505.0013968.001276.0027591.002261.0040495.000692.0009286.001437.0018171.002235.0026712.003991-.0031927.008248-.0061778.012744-.0089289.003566-.0021923.007264-.0041905.011015-.0059971zm.069549-.0059969c-.00588-.0000532-.01176.0001783-.017587.000713.006758.0017747.013409.0040681.019875.0068245-.000213-.0025435-.001011-.0051084-.002288-.0075375zm-.079073.0000239c-.00596-.0003113-.011947-.0001251-.01788.0005268-.000904.0018863-.001517.0038924-.001756.0059305.006359-.0026394.012931-.0048131.019636-.0064573zm.043368-.0189941c-.004364-.0005773-.008754-.0008221-.013118-.0008088-.005108.0000558-.010243.0004284-.015298.0012718.003592.00294.007477.006412.011068.0099373.00141.0013915.002767.0028069.004124.004249.004177-.0051057.008568-.0099985.013224-.0146493zm.009312.0017879c-.00431.0040788-.008435.0083569-.012346.0128081.010536-.0022482.021365-.0033922.03222-.0035625-.000771-.0006465-.001623-.0012557-.002501-.0018198-.005295-.0034348-.011227-.0058374-.017373-.0074258zm-.047572.0010244c-.0058.0018571-.011255.0045497-.016071.008349.001969-.0000905.003859-.0001331.005641-.0001278.008115.0000718.016124.0010696.023946.0028894-.003698-.0034242-.007637-.00671-.011787-.0098389-.000559-.0004071-.001144-.000838-.001729-.0012717zm-.026287.0072342c-.001623.0008248-.003246.0016842-.004869.0025835.001064-.0001544.002128-.0002982.003166-.0004312.000559-.0007396.001118-.0014579.001703-.0021523z" fill="#fff" fill-rule="evenodd"/></g></svg>