<svg clip-rule="evenodd" fill-rule="evenodd" stroke-linejoin="round" stroke-miterlimit="2" viewBox="0 0 791 791" xmlns="http://www.w3.org/2000/svg"><path d="m3250.32 9.545c218.14 0 395.23 177.096 395.23 395.228s-177.09 395.227-395.23 395.227c-218.13 0-395.22-177.095-395.22-395.227s177.09-395.228 395.22-395.228zm-.07 13.102c-210.9 0-382.12 171.225-382.12 382.126 0 210.9 171.22 382.125 382.12 382.125s382.13-171.225 382.13-382.125c0-210.901-171.23-382.126-382.13-382.126zm0 8c206.49 0 374.13 167.64 374.13 374.126 0 206.485-167.64 374.125-374.13 374.125-206.48 0-374.12-167.64-374.12-374.125 0-206.486 167.64-374.126 374.12-374.126zm6.18 693.588-1.83.161-.58.546-.03 12.468.58.549 1.82.171v1.229l-7.47-.02v-1.229l1.63-.162.58-.546.01-5.329-2.24-.006c-.73-.002-1.27.199-1.63.602s-.67.858-.93 1.367l-1.95 4.195v1.095l-4.75-.013v-1.228l1.69-.228.59-.413 1.93-3.731c.19-.32.46-.707.81-1.159.35-.453.89-.8 1.62-1.042v-.066c-1.29-.07-2.32-.469-3.09-1.196s-1.15-1.671-1.15-2.833c.01-.974.21-1.754.62-2.34.42-.585.93-1.037 1.54-1.357.61-.319 1.25-.522 1.95-.609.69-.086 1.32-.129 1.88-.127l8.4.022zm-19.95-1.36-.07 1.227-1.83.065-.61.515-.69 12.448.55.58 1.82.266-.07 1.227-7.46-.413.07-1.226 1.63-.076.61-.515.71-12.83-3.73-.206c-.06.628-.13 1.27-.21 1.925-.09.655-.2 1.333-.32 2.036s-.25 1.369-.39 1.998c-.14.63-.29 1.229-.44 1.797-.48 1.669-.96 2.928-1.45 3.777-.47.827-.9 1.446-1.3 1.857-.18.178-.37.351-.58.516-.21.166-.44.311-.69.436s-.53.223-.82.296c-.3.072-.62.099-.95.08-.37-.02-.68-.104-.91-.25-.24-.146-.42-.317-.55-.512-.13-.196-.21-.394-.26-.596-.04-.202-.06-.37-.05-.502.02-.387.14-.749.36-1.086.23-.336.55-.598.97-.786l2.06 1.544c.21-.21.43-.467.64-.771.22-.304.43-.68.65-1.128s.44-.973.66-1.576c.23-.603.45-1.303.67-2.1.13-.525.25-1.061.36-1.609.12-.548.22-1.125.31-1.729.1-.605.18-1.176.26-1.715.07-.539.13-1.057.18-1.553l-.54-.645-2.1-.282.07-1.227zm57.05 13.317c-1.08.484-2.19.88-3.33 1.186s-2.27.509-3.4.609c-1.11.098-2.16.075-3.15-.071s-1.91-.404-2.74-.775c-1.91-.875-3.47-2.196-4.67-3.961-1.21-1.766-1.91-3.751-2.1-5.956-.32-3.528.51-6.465 2.47-8.811 1.97-2.346 4.72-3.675 8.24-3.987 1.02-.089 2.09-.087 3.23.007s2.33.28 3.57.559l.46 5.209-1.88.166-.79-3.03-.5-.573c-.67-.24-1.33-.404-1.96-.493s-1.26-.105-1.9-.048c-2.56.226-4.51 1.277-5.86 3.151-1.34 1.875-1.88 4.311-1.62 7.31.29 3.186 1.29 5.617 3.02 7.292 1.72 1.675 3.97 2.39 6.74 2.145.48-.043.97-.122 1.45-.237s.97-.271 1.45-.47l.48-.576.5-3.843 1.81-.161zm-97.06-1.475 1.85.037.64-.481 1.37-12.392-.52-.608-1.81-.368.13-1.221 7.45.823-.14 1.221-1.63-.014-.64.481-1.02 9.224 8.77-7.549.09-.809-.52-.608-1.6-.344.13-1.221 7.43.821-.13 1.221-1.84-.036-.64.481-1.37 12.392.52.608 1.8.366-.14 1.221-7.42-.821.13-1.221 1.64.014.64-.481 1.04-9.488-8.76 7.549-.12 1.073.52.608 1.59.344-.13 1.221-7.44-.822zm105.36-.084 2.32-.507.5-.626-1.86-12.715-3.4.496-.41.614.03 2.881-1.71.249-.71-4.911 14.8-2.161.71 4.911-1.72.252-.77-2.773-.59-.467-3.4.496 1.85 12.715.66.458 2.39-.181.17 1.216-8.69 1.269zm41.55-32.624 2.25 8.368.25-.065c1.13-.305 2.24-.448 3.34-.429s2.11.258 3.03.715 1.74 1.142 2.46 2.056c.71.913 1.26 2.091 1.65 3.534.27 1.004.38 2.006.33 3.006s-.27 1.912-.65 2.738c-.3.653-.66 1.207-1.1 1.663s-.9.843-1.38 1.161c-.47.317-.96.571-1.45.761s-.93.337-1.32.44c-.18.049-.34.094-.49.134-.15.041-.29.066-.41.076l1.42 5.29.7.362 2.15-.389.31 1.17-8.08 2.176-.31-1.17 2.05-.742.42-.664-1.42-5.29c-.1.05-.23.096-.39.138-.15.041-.31.085-.48.131-.4.107-.86.201-1.37.283-.52.081-1.06.105-1.63.069-.58-.035-1.17-.139-1.78-.312s-1.21-.467-1.8-.884c-.74-.52-1.39-1.201-1.93-2.041-.54-.839-.95-1.762-1.22-2.766-.39-1.443-.5-2.739-.34-3.888.16-1.15.52-2.153 1.09-3.01s1.31-1.568 2.24-2.133c.92-.564 1.97-1.003 3.13-1.317l.23-.06-1.66-6.172-2.52.678-.28-1.026 3.71-2.254zm-151.86 31.752c-1.03.39-2.02.645-2.97.767s-1.87.11-2.75-.038c-2.27-.378-3.97-1.444-5.1-3.197s-1.48-3.879-1.07-6.379c.42-2.479 1.49-4.373 3.21-5.684 1.73-1.311 3.77-1.771 6.13-1.378 1.56.26 2.74.763 3.54 1.507.79.744 1.11 1.618.94 2.622-.09.535-.33.938-.72 1.21-.4.271-.88.359-1.44.264-.26-.041-.5-.127-.73-.256-.24-.129-.47-.297-.7-.502l.46-2.751c-.23-.197-.48-.359-.74-.486s-.53-.214-.8-.259c-1.48-.248-2.78.173-3.89 1.262-1.1 1.089-1.83 2.665-2.17 4.729-.34 2.041-.1 3.734.72 5.078.83 1.343 2.12 2.161 3.88 2.454.73.122 1.46.124 2.2.006.74-.119 1.5-.359 2.29-.721zm140.39-6.804.37 1.839c-.86.849-1.78 1.548-2.78 2.097-.99.549-2.03.931-3.11 1.146-2.2.441-4.14.042-5.81-1.198-1.68-1.239-2.76-3.074-3.25-5.505-.5-2.496-.18-4.678.94-6.544 1.12-1.867 2.81-3.026 5.07-3.478 1.84-.369 3.42-.073 4.74.889 1.31.961 2.17 2.457 2.58 4.486.05.271.09.478.12.62.02.143.03.281.04.415l-10.8 2.16.08.374c.42 2.095 1.25 3.651 2.51 4.67 1.25 1.019 2.73 1.357 4.45 1.014.79-.158 1.58-.48 2.37-.965s1.62-1.159 2.48-2.02zm-163.52 2.001c-1.23.497-2.33.822-3.3.975s-1.84.143-2.62-.029c-1.29-.286-2.23-.904-2.83-1.853-.6-.95-.76-2.062-.47-3.337.31-1.415 1.14-2.399 2.48-2.951 1.34-.553 4.19-.866 8.55-.94l.24-1.053c.31-1.394.29-2.412-.04-3.053s-1.06-1.086-2.19-1.336c-.42-.093-.84-.143-1.27-.147-.43-.005-.89.03-1.37.104l-.62 2.787-2.28-.508c-.4-.088-.66-.222-.77-.4-.12-.178-.13-.462-.04-.851.24-1.08 1.06-1.838 2.47-2.274 1.4-.436 3.09-.434 5.07.005 1.74.387 2.92 1.046 3.54 1.978.62.931.75 2.234.37 3.909l-2.14 9.626.45.661 1.72.551-.27 1.2-4.67-1.038zm82.77-4.306c-.4-.067-.78-.113-1.12-.136-.35-.023-.68-.035-1.02-.036-.38-.001-.82.02-1.29.063-.48.043-.93.167-1.36.37-.44.204-.8.521-1.09.952-.3.431-.45 1.033-.45 1.808 0 .587.1 1.077.31 1.47.2.394.49.704.86.932s.81.39 1.33.485c.52.096 1.11.144 1.78.146.45.001.83-.009 1.13-.03.31-.021.61-.054.91-.097zm-82.52 3.188 1.3-5.85c-2.95.15-4.92.447-5.93.891-1.02.444-1.64 1.185-1.87 2.222-.18.832-.09 1.547.28 2.145.37.599.96.988 1.77 1.168.52.116 1.15.124 1.88.026.73-.099 1.59-.299 2.57-.602zm174.72-15.44c-.87.233-1.64.558-2.32.976-.67.417-1.18 1.009-1.51 1.775-.23.485-.35 1.017-.38 1.598-.03.58-.01 1.135.04 1.664.06.529.13 1.002.22 1.42.09.417.16.727.22.93.36 1.336.76 2.313 1.21 2.932s.8 1.032 1.05 1.24c.52.455 1.14.772 1.85.953.71.18 1.58.134 2.6-.14l.56-.187zm-202.02-12.138 8.32 2.444c2.51.74 4.26 1.727 5.23 2.959.98 1.233 1.21 2.742.68 4.525-.36 1.232-1.06 2.148-2.1 2.749-1.03.601-2.4.883-4.09.846 1.9.583 3.25 1.491 4.05 2.723s.96 2.661.48 4.285c-.61 2.071-1.8 3.438-3.59 4.103-1.78.664-4.05.591-6.81-.221l-8.6-2.529.39-1.338 1.9.384.69-.298 5.28-17.966-.42-.626-1.79-.734zm208.06 24.625.61-.127c1-.271 1.77-.664 2.3-1.18.53-.515.91-1.102 1.13-1.758.11-.303.2-.834.27-1.594.08-.759-.06-1.807-.42-3.143-.06-.203-.15-.507-.28-.913-.14-.406-.31-.852-.52-1.34-.21-.487-.48-.975-.8-1.461-.32-.487-.7-.884-1.13-1.19-.67-.474-1.38-.733-2.13-.777s-1.54.046-2.38.27l-.19.052zm-208.66-2.792c.38.147.75.282 1.11.404.35.122.7.233 1.04.333 2.23.656 3.96.764 5.19.324s2.09-1.467 2.56-3.081c.44-1.476.31-2.705-.36-3.688s-1.92-1.741-3.73-2.275c-.43-.125-.91-.247-1.46-.368-.55-.12-1.15-.242-1.81-.366zm186.87-1.184-.11-.521c-.27-1.346-.77-2.318-1.5-2.916-.74-.598-1.67-.784-2.8-.558-1.11.221-1.98.855-2.61 1.902-.63 1.046-.86 2.257-.68 3.633zm45.37-4.065c-.79 1.071-1.55 1.927-2.3 2.567-.74.641-1.49 1.092-2.24 1.354-1.25.434-2.37.405-3.38-.087s-1.73-1.354-2.16-2.587c-.48-1.369-.29-2.642.56-3.817.85-1.176 3.11-2.942 6.77-5.3l-.35-1.019c-.47-1.348-1.02-2.206-1.64-2.576-.62-.369-1.48-.364-2.56.015-.41.142-.8.324-1.17.546-.36.222-.73.491-1.1.808l.94 2.696-2.21.771c-.39.135-.68.156-.87.065-.19-.092-.35-.326-.48-.703-.36-1.045-.06-2.122.9-3.233.97-1.111 2.41-2 4.32-2.667 1.68-.586 3.03-.647 4.05-.182 1.02.466 1.81 1.508 2.38 3.128l3.24 9.312.73.325 1.75-.433.41 1.16-4.52 1.574zm-.38-1.082-1.97-5.659c-2.43 1.679-3.96 2.973-4.58 3.883-.63.91-.77 1.867-.42 2.87.28.804.74 1.363 1.37 1.677.63.313 1.34.333 2.12.06.5-.175 1.04-.497 1.61-.965s1.19-1.09 1.87-1.866zm-250.49-13.827 1.09.432-4.74 11.956.3.639 1.44.73-.4 1.007-6.26-2.483.4-1.007 1.52.446.66-.26 4-10.091-1.95-.772.34-.871zm260.7 12.153 1.62-.883.32-.733-4.94-11.448-.75-.273-1.76.578-.48-1.128 6.87-2.966.49 1.128-1.43.797-.32.733 2.02 4.68 7-3.019-2.02-4.679-.75-.273-1.56.492-.49-1.128 6.86-2.96.49 1.128-1.63.883-.3.726 4.94 11.448.73.28 1.76-.578.49 1.128-6.86 2.96-.49-1.128 1.43-.797.32-.734-2.3-5.335-7 3.019 2.3 5.335.75.273 1.56-.492.49 1.128-6.88 2.966zm-239.03-2.348c.14.051.29.105.46.162.18.057.43.134.76.231 2.06.605 3.68.686 4.85.241 1.18-.445 1.99-1.448 2.45-3.009.39-1.327.24-2.454-.46-3.379-.7-.926-1.94-1.652-3.72-2.176-.16-.047-.45-.117-.86-.211-.42-.093-.76-.174-1.03-.241zm-48.93-7.099 1.54.553.66-.222 4.64-9.974-.26-.655-1.41-.818.46-.983 5.99 2.787-.46.982-1.36-.472-.67.222-1.9 4.077 6.1 2.836 1.9-4.077-.27-.655-1.24-.738.46-.983 5.98 2.781-.46.982-1.54-.553-.65.229-4.64 9.974.25.648 1.41.819-.46.983-5.97-2.781.45-.982 1.37.472.66-.222 2.17-4.648-6.1-2.836-2.16 4.648.26.655 1.24.738-.46.983-5.99-2.787zm309.44-.047 1.55-1.02.25-.758-5.91-10.977-.78-.207-1.7.728-.58-1.082 6.59-3.55.59 1.082-1.36.917-.25.758 4.4 8.171 2.93-11.194-.39-.716-.77-.207-1.51.625-.58-1.081 6.58-3.543.58 1.082-1.53 1.012-.25.758 5.91 10.977.77.207 1.69-.72.58 1.082-6.58 3.542-.58-1.081 1.35-.918.25-.758-4.52-8.405-2.93 11.194.51.95.77.207 1.51-.625.59 1.081-6.6 3.551zm-312.93-4.153-.81 1.444c-1.06.077-2.08.014-3.06-.19-.99-.203-1.9-.541-2.75-1.013-1.72-.969-2.79-2.349-3.21-4.141-.41-1.793-.08-3.643.99-5.552 1.09-1.959 2.56-3.243 4.38-3.851 1.82-.607 3.62-.415 5.39.578 1.45.811 2.34 1.916 2.67 3.315s.05 2.896-.84 4.489c-.12.213-.22.374-.28.482-.07.108-.14.209-.21.302l-8.48-4.745-.16.294c-.92 1.644-1.25 3.168-1 4.57.26 1.402 1.06 2.48 2.4 3.234.63.348 1.34.586 2.15.714.81.127 1.75.151 2.82.07zm33.31-4.659c.46.18.78.491.96.933.19.442.2.885.02 1.33s-.48.76-.92.944c-.43.185-.88.187-1.33.007-.45-.176-.76-.481-.95-.914-.2-.432-.2-.871-.03-1.316.18-.454.49-.776.93-.965s.88-.195 1.32-.019zm-52.76-20.474-.4.593-2.74 10.6 8.88-6.4.41-.593 4.8 3.283-.62.895-1.41-.789-.69.11-6.21 9.081.15.688 1.25 1.031-.62.894-5.44-3.72.61-.895 1.27.689.7-.109 6.48-9.48-11.46 8.149-.9-.612 3.39-13.672-6.48 9.48.15.688 1.1.931-.61.895-4.66-3.183.61-.895 1.43.797.69-.11 6.21-9.081-.15-.688-1.26-1.039.62-.895zm353.17 17.794 1.44-1.162.18-.778-6.93-10.365-.79-.132-1.62.886-.69-1.021 6.23-4.162.68 1.021-1.26 1.043-.18.778 2.91 4.347 1.35-.904c.55-.369.97-.836 1.24-1.399.28-.564.34-1.248.19-2.052l-.53-2.845c-.17-.831-.18-1.613-.03-2.346.15-.732.57-1.326 1.25-1.781.58-.387 1.12-.526 1.64-.417.51.11.9.372 1.18.786.42.626.46 1.261.14 1.906l-2.74.211c-.04.264-.04.488 0 .67.04.183.07.372.09.569l.5 2.564c.17.92.15 1.634-.07 2.141s-.41.855-.58 1.046l.04.055c.49-.197.94-.292 1.34-.285.39.007.76.06 1.1.16.34.099.65.229.94.39s.58.322.87.484l3.66 2.09.7.032 2.06-1.099.68 1.021-4.69 3.138-.61-.911-3.86-2.467c-.82-.521-1.52-.8-2.1-.836s-1.13.116-1.63.454l-1.3.867 3.15 4.72.83.188 1.44-.767.69 1.022-6.23 4.161zm-333.14.814.23-.409c.59-1.056.81-1.996.66-2.818-.15-.823-.66-1.482-1.55-1.978-.87-.487-1.81-.561-2.84-.222-1.02.339-1.87 1.02-2.54 2.042zm-29.91-26.347.9.739-8.11 9.976.09.698 1.16 1.131-.69.841-5.22-4.254.68-.841 1.32.885.7-.051 6.85-8.419-1.62-1.322.59-.727zm388.33 6.275c-.37 1.276-.8 2.343-1.28 3.199-.47.857-1.02 1.537-1.64 2.042-1.02.834-2.09 1.193-3.2 1.078-1.12-.116-2.09-.679-2.92-1.69-.92-1.122-1.18-2.381-.78-3.777.39-1.396 1.91-3.83 4.54-7.302l-.68-.835c-.91-1.105-1.71-1.725-2.42-1.859s-1.51.164-2.4.893c-.34.273-.64.577-.91.912s-.52.715-.76 1.139l1.81 2.21-1.82 1.482c-.31.26-.58.379-.79.358s-.44-.186-.69-.494c-.7-.857-.79-1.972-.26-3.347.52-1.375 1.57-2.704 3.14-3.987 1.38-1.128 2.63-1.648 3.74-1.56 1.12.088 2.22.795 3.31 2.123l6.24 7.632.8.056 1.49-1.007.78.951-3.7 3.028zm-.73-.887-3.79-4.638c-1.7 2.409-2.69 4.149-2.97 5.218-.28 1.07-.08 2.016.6 2.838.53.66 1.15 1.028 1.85 1.106s1.38-.146 2.02-.671c.41-.337.8-.823 1.18-1.458.37-.635.74-1.433 1.11-2.395zm-199.31-530.435c144.74 0 262.25 117.509 262.25 262.249 0 144.739-117.51 262.249-262.25 262.249-144.73 0-262.24-117.51-262.24-262.249 0-144.74 117.51-262.249 262.24-262.249zm-184 519.951c.38.308.59.701.64 1.179s-.08.902-.38 1.274c-.31.371-.69.579-1.16.624-.47.044-.9-.087-1.28-.395-.37-.303-.58-.689-.63-1.159-.06-.47.07-.891.37-1.262.31-.379.7-.592 1.18-.641.47-.049.89.078 1.26.38zm-86.67-76.377c-4.61-4.992-3.49-14.983-5.81-20.037-8.19-17.884-24.41-14.142-31.06-22.89-4.09-5.391-3.24-13.1-9.75-20.375 4.54 8.774-.28 18.235 4.42 24.427 12.34 16.239 25.34 9.777 33.1 19.989 3.61 4.757-3.34 16.543 1.09 24.966l.05.077.06.061c6.93 6.53 20.14 2.99 23.76 7.747 7.76 10.212-1.95 21.002 10.39 37.241 4.7 6.192 15.11 4.084 22.35 10.803-5.27-8.218-12.92-9.465-17.02-14.855-6.64-8.749 1.3-23.367-13.73-36.053-4.25-3.586-14.17-5.19-17.75-10.963zm537.47 0c4.6-4.992 3.49-14.983 5.81-20.037 8.19-17.884 24.4-14.142 31.05-22.89 4.1-5.391 3.25-13.1 9.75-20.375-4.53 8.774.29 18.235-4.42 24.427-12.34 16.239-25.33 9.777-33.09 19.989-3.61 4.757 3.34 16.543-1.1 24.966l-.04.077-.06.061c-6.93 6.53-20.15 2.99-23.76 7.747-7.76 10.212 1.95 21.002-10.39 37.241-4.71 6.192-15.11 4.084-22.35 10.803 5.26-8.218 12.92-9.465 17.01-14.855 6.65-8.749-1.3-23.367 13.74-36.053 4.24-3.586 14.17-5.19 17.74-10.963zm-266.64.375c50.38-1.048 115.62-10.803 126.58-33.181l8.13 37.756c-7.09 26.268-75.27 35.203-134.71 37.302v.005h-.14v-.005c-59.44-2.099-127.62-11.034-134.72-37.302l8.14-37.756c10.83 22.316 78.94 32.133 126.72 33.181zm-5.36 31.882-.29-21.473 9.12-.123c2.3-.031 3.97.139 5.01.511 1.05.372 1.89 1.046 2.53 2.024s.96 2.102.98 3.371c.02 1.611-.43 2.948-1.37 4.011-.93 1.062-2.34 1.743-4.22 2.042.95.534 1.73 1.124 2.35 1.77s1.46 1.797 2.51 3.453l2.68 4.153-5.18.07-3.2-4.63c-1.14-1.655-1.91-2.696-2.33-3.125-.41-.429-.85-.721-1.31-.876s-1.19-.226-2.19-.212l-.88.011.12 8.964zm-23.63-.944 1.01-21.451 15.91.754-.17 3.629-11.58-.549-.23 4.756 10.77.51-.17 3.614-10.77-.51-.27 5.838 11.98.568-.17 3.614zm47.29-6.516 4.18-.706c.35 1.394.94 2.396 1.76 3.003.82.608 1.89.865 3.2.772 1.4-.098 2.42-.467 3.09-1.106.66-.639.97-1.353.91-2.142-.03-.507-.21-.928-.53-1.262-.33-.335-.87-.607-1.63-.818-.52-.14-1.69-.37-3.53-.691-2.35-.411-4.03-1.002-5.03-1.774-1.39-1.085-2.15-2.476-2.27-4.171-.08-1.091.16-2.133.71-3.127.55-.993 1.39-1.779 2.52-2.358s2.52-.927 4.16-1.043c2.69-.19 4.76.256 6.2 1.339s2.26 2.605 2.47 4.568l-4.31.496c-.26-1.088-.71-1.851-1.36-2.291-.64-.439-1.57-.615-2.79-.529-1.26.088-2.22.416-2.9.983-.43.363-.63.823-.59 1.378.04.506.28.925.74 1.255.57.419 1.93.803 4.07 1.151s3.73.752 4.78 1.212 1.88 1.13 2.52 2.01c.63.88 1 1.997 1.1 3.351.08 1.228-.18 2.401-.78 3.521-.61 1.12-1.52 1.984-2.73 2.594-1.21.609-2.74.979-4.6 1.111-2.71.191-4.84-.288-6.38-1.437-1.54-1.15-2.53-2.912-2.98-5.289zm-65.35 4.842-5.4-22.157 4.67.489 3.75 16.373 6.89-15.259 4.57.478-9.88 20.558zm90.35.091-2.47-21.332 4.31-.498 2.47 21.332zm-107.72-2.365 3.12-21.248 4.29.629-3.12 21.248zm124.45.168-2.79-17.623-6.29.995-.57-3.588 16.86-2.666.56 3.589-6.28.993 2.79 17.622zm-149.16-4.562 4.01-21.096 4.15.789 5.95 15.732 2.68-14.087 3.96.753-4.02 21.096-4.27-.814-5.89-15.376-2.62 13.756zm182.78-1.897-4.62.981-2.84-4.382-8.4 1.785-.72 5.14-4.5.957 3.72-22.745 4.48-.953zm-202.2-24.839 4.21 1.048-2.81 11.286c-.45 1.791-.69 2.965-.72 3.522-.03.897.23 1.689.78 2.374s1.41 1.174 2.58 1.467c1.2.298 2.16.278 2.89-.059s1.24-.845 1.54-1.525.66-1.845 1.07-3.494l2.87-11.527 4.21 1.048-2.73 10.945c-.62 2.502-1.18 4.241-1.66 5.217-.49.976-1.12 1.743-1.91 2.302-.79.558-1.75.921-2.88 1.087-1.13.167-2.51.045-4.16-.366-1.99-.496-3.45-1.102-4.36-1.817-.91-.716-1.58-1.516-1.99-2.399s-.62-1.751-.6-2.603c.02-1.263.32-3.06.9-5.391zm107.36 23.572 3.2-.043c2.08-.028 3.38-.134 3.9-.317.51-.182.91-.491 1.2-.924.29-.434.43-.973.42-1.617-.01-.723-.21-1.304-.6-1.743-.4-.439-.94-.712-1.65-.82-.35-.044-1.41-.054-3.16-.03l-3.39.045zm97.62-6.666 3.96-1.516c.62 1.297 1.39 2.163 2.32 2.597s2.02.475 3.29.125c1.35-.371 2.29-.936 2.81-1.694.53-.757.68-1.518.47-2.28-.13-.49-.39-.867-.77-1.131-.38-.265-.97-.425-1.75-.482-.54-.035-1.74-.028-3.6.019-2.39.062-4.15-.187-5.28-.747-1.58-.789-2.6-2.002-3.05-3.64-.3-1.055-.27-2.123.08-3.206.34-1.083 1.01-2.019 2-2.81 1-.79 2.29-1.405 3.88-1.843 2.6-.717 4.71-.686 6.34.091 1.62.777 2.73 2.107 3.32 3.99l-4.13 1.337c-.47-1.015-1.06-1.674-1.78-1.978s-1.66-.293-2.84.031c-1.21.335-2.1.847-2.65 1.535-.35.442-.45.932-.31 1.468.14.49.46.852.97 1.086.65.297 2.06.405 4.22.325 2.17-.081 3.81.001 4.93.245 1.11.245 2.07.736 2.86 1.474.8.737 1.38 1.761 1.74 3.069.33 1.186.3 2.388-.07 3.605-.37 1.218-1.09 2.244-2.16 3.08s-2.5 1.502-4.3 1.998c-2.61.721-4.79.671-6.53-.152-1.73-.823-3.06-2.355-3.97-4.596zm-12.36 1.282-4.55-7.179-1.18 8.398zm156.16-10.318c.48 3.534 3.01 4.377 6.43 3.597 3.41-.779 7.72-3.179 11.77-6.129v-.005-.003c-4.67-1.738-9.46-2.872-12.95-2.689-3.5.183-5.72 1.685-5.25 5.221zm-484.66 0c-.47 3.534-3 4.377-6.42 3.597-3.42-.779-7.73-3.179-11.77-6.129l-.01-.005.01-.003c4.67-1.738 9.45-2.872 12.95-2.689s5.71 1.685 5.24 5.221zm-6.41-19.195c-2.94-3.866-6.45-3.221-9.91-.081-3.45 3.138-6.85 8.769-9.56 14.878l-.01.01.01-.002c6.62-.979 12.95-2.742 16.9-5.228 3.95-2.488 5.51-5.698 2.58-9.569zm497.49 0c2.94-3.866 6.45-3.221 9.9-.081 3.46 3.138 6.85 8.769 9.57 14.878v.01l-.01-.002c-6.61-.979-12.95-2.742-16.89-5.228-3.95-2.488-5.52-5.698-2.58-9.569zm17.48-12.255c3.53-.488 5.02 1.721 5.19 5.224.16 3.501-.99 8.296-2.75 12.983l-.01.008v-.007c-2.93-4.035-5.3-8.338-6.06-11.757-.76-3.42.09-5.955 3.62-6.45zm-532.45 0c-3.54-.488-5.03 1.721-5.19 5.224-.17 3.501.99 8.296 2.75 12.983v.008l.01-.007c2.92-4.035 5.3-8.338 6.06-11.757.76-3.42-.09-5.955-3.63-6.45zm95.46-337.17v2c0 82.657-13.47 125.489-13.47 184.901 0 34.659 3.29 59.74 16.9 78.34 9.13 12.482 22.91 22.098 43.56 29.663l.18.057c107.25 27.915 107.27 43.71 123.77 58.013l1.52 1.319 1.31-1.531c23.12-27.04 67.91-44.568 122.82-57.792 40.43-9.734 63.97-48.62 60.74-108.178-3.52-64.85-12.5-98.733-12.5-184.792v-2zm272.35 327.286c.8-8.084 43.18-9.741 62.27-24.713l5.27 28.71c-6.46 12.64-23.73 16.383-33.74 18.762l-4.77-18.336c-1.01-3.118-2.28-3.122-5.69-3.333-9.25.215-23.34 2.069-23.34-1.09zm-199.29 0c-.8-8.084-43.19-9.741-62.27-24.713l-5.27 28.71c6.46 12.64 23.73 16.383 33.74 18.762l4.76-18.336c1.02-3.118 2.29-3.122 5.69-3.333 9.26.215 23.35 2.069 23.35-1.09zm267.77-323.286h-336.84c-.21 81.352-13.46 123.971-13.46 182.901 0 33.59 2.94 57.952 16.13 75.978 8.72 11.916 21.92 21.009 41.62 28.237 105.28 27.411 108.47 43.358 123.79 57.508 23.91-26.669 68.73-44.333 123.59-57.543 38.77-9.336 60.78-46.95 57.68-104.072-3.5-64.419-12.37-98.318-12.51-183.009zm-68.48 327.313 2.91 15.52c8.4-3.577 16.17-7.681 20.82-13.261 1-1.621.26-2.461-2.14-2.259-8.26.357-16.76.798-21.59 0zm-199.29 0-2.92 15.52c-8.4-3.577-16.16-7.681-20.81-13.261-1-1.621-.26-2.461 2.14-2.259 8.25.357 16.76.798 21.59 0zm255.27-37.065c8.92-11.3 29.58-20.294 45.58-31.743-.2 8.183-2.63 16.029-5.43 23.82l16.37 10.843c-14.65 5.066-29.38 10.476-44.96 20.018l-2.76-18.191c-.92-4.747-3.36-5.792-8.8-4.747zm-311.25 0c-8.92-11.3-29.58-20.294-45.58-31.743.2 8.183 2.63 16.029 5.43 23.82l-16.38 10.843c14.66 5.066 29.39 10.476 44.97 20.018l2.76-18.191c.91-4.747 3.36-5.792 8.8-4.747zm10.7-266.304h289.16c0 71.078 7.62 99.063 10.61 152.624 2.68 48.156-16.64 79.729-50.23 87.6-47.01 11.014-85.3 25.714-105.1 48.236-14.09-11.884-14.09-25.041-105.68-48.236-42.84-15.267-50.18-40.653-50.18-87.6 0-49.04 11.42-84.396 11.42-152.624zm286.79 272.036c9.74-3.192 18.31-3.75 19.13-1.245s-6.62 6.57-16.16 10.322c-6.58 2.591-17.8 5.542-17.8 5.542s-.63-2.164-1.33-4.297c-.82-2.505 6.42-7.13 16.16-10.322zm-283.73 0c-9.74-3.192-18.32-3.75-19.14-1.245s6.63 6.57 16.16 10.322c6.59 2.591 17.81 5.542 17.81 5.542s.63-2.164 1.33-4.297c.82-2.505-6.42-7.13-16.16-10.322zm80.42-6.648c-3.16-1.53-7.93.529-10.77.143-10.06-1.366-10.62-9.971-15.93-11.948-3.28-1.219-6.96.366-11.53-1.763 5.01.925 8.97-2.893 12.74-1.494 9.86 3.67 8.6 11.091 14.8 13.398 2.89 1.075 7.68-4.151 12.51-3.222l.04.009.04.022c4.26 2.451 4.47 9.54 7.36 10.615 6.2 2.308 10.1-4.135 19.96-.465 3.76 1.399 4.26 6.879 8.66 9.455-4.85-1.372-6.6-4.98-9.87-6.199-5.32-1.977-11.36 4.171-19.87-1.371-2.4-1.566-4.67-6.246-8.06-7.148zm122.86 0c3.15-1.53 7.92.529 10.77.143 10.06-1.366 10.62-9.971 15.93-11.948 3.28-1.219 6.96.366 11.53-1.763-5.02.925-8.98-2.893-12.74-1.494-9.86 3.67-8.6 11.091-14.8 13.398-2.89 1.075-7.69-4.151-12.51-3.222l-.04.009-.04.022c-4.26 2.451-4.47 9.54-7.36 10.615-6.21 2.308-10.1-4.135-19.96-.465-3.76 1.399-4.27 6.879-8.66 9.455 4.84-1.372 6.59-4.98 9.87-6.199 5.31-1.977 11.36 4.171 19.87-1.371 2.4-1.566 4.67-6.246 8.05-7.148zm-5.96 12.477c-1.67-.769-1.71-2.15-.82-3.728.89-1.577 2.72-3.353 4.78-4.913v-.003.004c.17 2.579.02 5.122-.59 6.829-.61 1.708-1.68 2.579-3.36 1.813zm-110.95 0c1.68-.769 1.72-2.15.83-3.728-.9-1.577-2.73-3.353-4.78-4.913l-.01-.003v.004c-.16 2.579-.01 5.122.6 6.829.61 1.708 1.68 2.579 3.36 1.813zm121.4-.284c2.35-.876 2.55-2.715 1.51-4.902-1.04-2.186-3.32-4.72-5.93-6.989l-.01-.003v.005c-.5 3.428-.57 6.836.08 9.169.64 2.335 1.99 3.594 4.34 2.722zm-131.84 0c-2.35-.876-2.55-2.715-1.52-4.902 1.04-2.186 3.32-4.72 5.94-6.989l.01-.003v.005c.49 3.428.56 6.836-.08 9.169-.64 2.335-2 3.594-4.35 2.722zm-8.66-6.823c-.77-1.679.1-2.75 1.81-3.36 1.71-.611 4.25-.76 6.83-.595v.004c-1.56 2.06-3.33 3.886-4.91 4.779-1.58.894-2.96.853-3.73-.824zm149.16 0c.76-1.679-.11-2.75-1.82-3.36-1.7-.611-4.25-.76-6.83-.595v.004c1.56 2.06 3.34 3.886 4.92 4.779 1.58.894 2.96.853 3.73-.824zm250.11-18.182-20.39-6.046c-.23-.069-.44-.111-.64-.126-.19-.015-.37.036-.55.153-.17.116-.35.303-.52.561-.18.257-.38.632-.61 1.126-.19.364-.47.493-.83.386-.08-.023-.19-.064-.34-.123-.16-.059-.28-.117-.38-.173.3-.811.61-1.683.93-2.614s.58-1.758.8-2.481c.22-.749.45-1.588.68-2.516.24-.928.45-1.813.64-2.655.12-.021.26-.015.42.018s.28.061.35.084c.18.054.32.13.42.229s.13.298.1.598c-.16.994-.16 1.646-.01 1.956.14.311.47.543.99.696l20.39 6.046 1.01-3.409c.21-.724.32-1.358.33-1.904.01-.545-.08-1.05-.27-1.512-.18-.463-.47-.914-.86-1.352-.39-.439-.88-.913-1.46-1.422-.19-.198-.25-.426-.17-.685.04-.155.13-.326.25-.513.13-.188.23-.325.32-.413.56.364 1.07.682 1.51.953s.88.514 1.32.729c.56.28 1.07.515 1.52.704.45.19.77.354.95.493.2.172.26.413.16.723-.08.284-.29.834-.61 1.651-.33.816-.67 1.818-1.02 3.006l-3.54 11.932c-.35 1.162-.61 2.174-.78 3.036-.17.863-.3 1.449-.39 1.759-.09.284-.27.456-.54.516-.23.016-.58-.025-1.06-.124-.47-.1-1.03-.173-1.66-.22-.49-.06-.99-.103-1.5-.129-.51-.025-1.11-.027-1.79-.004-.01-.144-.02-.323-.03-.536s.01-.397.06-.552c.09-.31.27-.482.53-.516.76-.111 1.43-.244 1.99-.399.57-.155 1.06-.376 1.47-.662.41-.287.76-.661 1.05-1.122.29-.462.54-1.041.74-1.738zm-626-7.933c.26-.072.47-.152.62-.238.16-.086.28-.232.36-.437.09-.205.13-.482.13-.832s-.04-.808-.12-1.374c-.04-.267.14-.458.56-.575.07-.022.19-.048.35-.079s.3-.047.41-.051c.18.845.38 1.752.62 2.723.23.971.44 1.819.65 2.545.2.726.45 1.551.75 2.474.31.922.6 1.792.88 2.607-.09.081-.21.143-.36.187-.16.044-.28.076-.36.098-.41.117-.67.049-.77-.203-.23-.523-.43-.934-.61-1.232-.19-.299-.36-.508-.54-.627-.17-.12-.35-.181-.53-.186-.19-.005-.41.03-.67.102l-19.49 5.472c-.26.073-.47.159-.63.258-.15.099-.27.245-.36.437-.08.192-.13.462-.12.812 0 .35.03.808.11 1.374-.01.282-.19.473-.55.575-.08.022-.2.055-.35.098-.16.044-.31.058-.45.043-.18-.845-.39-1.739-.61-2.684s-.44-1.78-.64-2.506l-4.21-14.978c-.2-.727-.45-1.551-.75-2.474-.31-.923-.6-1.792-.88-2.607.12-.063.26-.122.41-.179.15-.056.26-.096.34-.117.36-.102.62-.035.77.203.23.523.44.934.62 1.232.18.299.36.514.54.647.18.132.36.194.54.185.18-.008.39-.049.65-.122l19.5-5.471c.26-.073.47-.152.63-.239.16-.086.28-.231.36-.436s.12-.483.12-.832c0-.35-.04-.808-.11-1.375-.05-.266.14-.458.55-.574.08-.022.2-.048.36-.079s.29-.048.4-.051c.18.845.39 1.739.61 2.684.22.944.44 1.78.64 2.506.21.752.47 1.596.77 2.532.31.936.6 1.811.89 2.627-.09.081-.21.143-.37.187-.15.043-.27.076-.35.098-.41.116-.67.049-.77-.204-.23-.522-.44-.933-.62-1.232s-.36-.508-.53-.627-.35-.181-.54-.185c-.18-.005-.4.029-.66.102l-20.47 5.744 2.81 9.999zm447.7-19.285c2.1-2.808 7.28-3.175 9.63-4.825 8.31-5.84 4.85-13.738 8.65-17.937 2.35-2.588 6.35-2.876 9.43-6.865-4.03 3.126-9.3 1.558-12 4.53-7.07 7.794-2.53 13.802-6.98 18.704-2.07 2.283-8.73-.153-12.59 2.891l-.04.028-.02.038c-2.66 4.133.42 10.527-1.66 12.81-4.44 4.902-10.86.971-17.93 8.765-2.7 2.972-.63 8.069-3.35 12.379 3.67-3.447 3.57-7.457 5.92-10.044 3.81-4.2 12.01-1.521 17.01-10.354 1.42-2.496 1.28-7.695 3.87-10.053zm-292.79 0c-2.09-2.808-7.28-3.175-9.63-4.825-8.3-5.84-4.84-13.738-8.65-17.937-2.35-2.588-6.35-2.876-9.42-6.865 4.02 3.126 9.3 1.558 11.99 4.53 7.08 7.794 2.54 13.802 6.99 18.704 2.07 2.283 8.73-.153 12.59 2.891l.03.028.03.038c2.65 4.133-.42 10.527 1.65 12.81 4.45 4.902 10.87.971 17.94 8.765 2.69 2.972.62 8.069 3.34 12.379-3.67-3.447-3.57-7.457-5.91-10.044-3.81-4.2-12.01-1.521-17.02-10.354-1.41-2.496-1.27-7.695-3.87-10.053zm120.19 19.008c1.42-.131 2.81-.491 4.17-1.079 1.36-.589 2.62-1.334 3.79-2.235s2.21-1.933 3.12-3.095c.91-1.163 1.63-2.377 2.15-3.641-.66.276-1.38.494-2.17.654s-1.67.24-2.63.24c-1.42 0-2.7-.258-3.82-.774-1.13-.516-2.09-1.199-2.89-2.049-.8-.851-1.41-1.828-1.83-2.933-.42-1.104-.64-2.245-.64-3.422 0-1.425.29-2.762.88-4.012.58-1.249 1.37-2.339 2.38-3.27 1.01-.93 2.2-1.664 3.56-2.201 1.36-.538 2.8-.807 4.35-.807 1.54 0 2.98.305 4.32.916 1.35.61 2.52 1.442 3.52 2.496 1.01 1.053 1.8 2.285 2.37 3.695s.86 2.921.86 4.534c0 1.715-.26 3.369-.77 4.96-.52 1.591-1.24 3.081-2.17 4.469s-2.05 2.649-3.36 3.782c-1.31 1.134-2.76 2.108-4.35 2.922s-3.3 1.442-5.13 1.885c-1.83.444-3.74.665-5.71.665zm69.74 1.7c-1.72 0-3.29-.378-4.7-1.133-1.42-.756-2.63-1.813-3.64-3.172s-1.8-2.98-2.36-4.862-.84-3.949-.84-6.202c0-2.049.28-3.979.84-5.788s1.35-3.394 2.36-4.752c1.01-1.359 2.22-2.435 3.64-3.227 1.41-.792 2.98-1.188 4.7-1.188s3.3.396 4.72 1.188c1.41.792 2.62 1.868 3.62 3.227 1.01 1.358 1.79 2.943 2.34 4.752s.83 3.739.83 5.788c0 2.253-.28 4.32-.83 6.202s-1.33 3.503-2.34 4.862c-1 1.359-2.21 2.416-3.62 3.172-1.42.755-3 1.133-4.72 1.133zm-28.26-7.891h-13.3v-3.118l15.09-19.315h4.62v18.29h3.97v4.143h-3.97v7.237h-6.41zm-63.09 7.237v-22.302h-7.02v-1.438c1.46-.117 2.68-.324 3.69-.622 1-.298 1.84-.686 2.52-1.166.69-.48 1.25-1.057 1.68-1.733.44-.676.83-1.443 1.18-2.3h4.36v29.561zm91.35-1.809c.75 0 1.4-.353 1.96-1.057.55-.705 1.01-1.65 1.37-2.835.36-1.184.63-2.557.81-4.12.17-1.562.26-3.194.26-4.894 0-1.686-.09-3.285-.26-4.796-.18-1.512-.45-2.834-.81-3.968-.36-1.133-.82-2.034-1.37-2.703-.56-.669-1.21-1.003-1.96-1.003-.76 0-1.41.334-1.97 1.003-.55.669-1.01 1.57-1.37 2.703-.36 1.134-.63 2.456-.81 3.968-.17 1.511-.26 3.11-.26 4.796 0 1.7.09 3.332.26 4.894.18 1.563.45 2.936.81 4.12.36 1.185.82 2.13 1.37 2.835.56.704 1.21 1.057 1.97 1.057zm103.31-4.428c-1.84.088-2.51-1.119-2.44-2.931.06-1.812.87-4.228 1.98-6.561v-.004.004c1.34 2.214 2.37 4.541 2.62 6.337.24 1.797-.31 3.063-2.15 3.155zm-293.69 0c1.85.088 2.52-1.119 2.45-2.931s-.87-4.228-1.98-6.561l-.01-.004v.004c-1.33 2.214-2.37 4.541-2.61 6.337-.24 1.797.31 3.063 2.15 3.155zm302.84-5.055c1.68-1.858 1.01-3.584-.91-5.048-1.93-1.464-5.12-2.666-8.49-3.477l-.01-.001.01.005c1.13 3.273 2.64 6.331 4.28 8.108s3.43 2.272 5.11.417zm-311.98 0c-1.68-1.858-1.02-3.584.91-5.048s5.12-2.666 8.49-3.477v-.001.005c-1.13 3.273-2.64 6.331-4.28 8.108-1.65 1.777-3.43 2.272-5.12.417zm163.63-.088h7.63v-9.962zm-23.24-1.744c.26 0 .54-.036.84-.109.3-.072.6-.17.91-.294.3-.123.6-.265.89-.425s.56-.334.81-.523c.1-.582.18-1.232.25-1.951.06-.72.1-1.428.1-2.126 0-1.177-.12-2.289-.36-3.335-.24-1.047-.58-1.962-1.01-2.747s-.92-1.406-1.49-1.864-1.18-.687-1.83-.687c-.64 0-1.19.175-1.66.523-.46.349-.84.807-1.14 1.374s-.52 1.213-.66 1.94-.2 1.461-.2 2.202c0 1.163.08 2.234.26 3.215.17.981.44 1.828.82 2.54.37.712.84 1.268 1.41 1.668.58.4 1.26.599 2.06.599zm349.24-16.357-9.56-1.849-1.08 5.594c-.1.502.04.886.41 1.15.38.264 1.02.552 1.92.864.2.067.33.173.37.318s.04.324 0 .535c-.02.08-.05.204-.1.373-.04.17-.09.291-.13.366-.6-.171-1.3-.354-2.1-.55s-1.47-.347-2.03-.455c-.47-.092-1.04-.187-1.69-.286-.66-.099-1.4-.188-2.24-.267-.03-.09-.04-.222-.02-.396.02-.175.04-.302.05-.381.09-.45.32-.665.7-.646 1.04.035 1.75-.011 2.15-.141.39-.129.64-.419.72-.868l1.09-5.594-8.9-1.719c-.55-.108-.99.158-1.3.797-.32.638-.64 1.791-.96 3.457l-.32 1.666c-.15.767-.17 1.449-.07 2.045.11.597.31 1.143.61 1.641.3.497.68.954 1.14 1.372.45.417.96.845 1.54 1.286.17.115.22.318.17.609-.03.132-.1.283-.21.453-.12.17-.23.339-.35.509l-1.08-.579c-.27-.189-.56-.356-.89-.502s-.59-.279-.79-.399c-.25-.104-.54-.221-.86-.351-.31-.13-.62-.258-.91-.383s-.55-.243-.78-.356c-.22-.112-.37-.189-.45-.231-.18-.173-.25-.405-.19-.696.04-.211.11-.513.22-.905.1-.391.2-.817.3-1.277.11-.461.22-.926.34-1.397.11-.471.21-.879.27-1.222l1.75-9.006c.15-.767.3-1.65.45-2.65.15-.999.28-1.901.38-2.705.11-.032.26-.032.43.002.17.033.3.057.38.072.39.077.58.25.56.52-.01 1.041.04 1.8.17 2.277.13.478.46.767.99.87l19.88 3.845c.53.102.93-.019 1.2-.365.28-.345.63-1.052 1.05-2.122.13-.249.4-.335.79-.259.14.026.26.05.38.073s.24.074.36.152c-.3 1.122-.55 2.117-.74 2.985-.2.868-.35 1.619-.48 2.254l-1.57 8.132c-.23 1.191-.39 2.223-.48 3.098-.08.875-.16 1.471-.22 1.789-.06.291-.22.479-.48.565-.23.039-.63.029-1.21-.028s-1.18-.078-1.82-.064c-.47-.007-.92.001-1.36.025-.45.024-.99.083-1.64.177-.03-.143-.05-.299-.08-.467-.02-.169-.01-.333.02-.492.06-.317.22-.506.48-.566.75-.184 1.39-.381 1.94-.59.55-.21 1.01-.477 1.39-.802.38-.324.69-.732.92-1.222s.42-1.092.55-1.806zm-494.18 8.149c.09-1.843 1.36-2.394 3.15-2.15 1.8.243 4.13 1.279 6.34 2.612v.002.002c-2.33 1.111-4.75 1.917-6.56 1.985s-3.02-.604-2.93-2.447zm321.08 0c-.09-1.843-1.36-2.394-3.16-2.15-1.8.243-4.12 1.279-6.34 2.612v.002.002c2.34 1.111 4.75 1.917 6.56 1.985 1.82.068 3.02-.604 2.94-2.447zm-477.89-12.184 7.65-1.329c.61-.107 1-.434 1.16-.982s.22-1.473.15-2.775c-.01-.38.23-.612.7-.695.11-.019.22-.032.35-.039.12-.008.25-.01.38-.006.08.778.21 1.749.37 2.91s.36 2.419.59 3.772c.17.956.35 1.875.54 2.757.2.882.39 1.703.58 2.464-.1.071-.22.119-.35.142s-.24.041-.32.055c-.45.079-.73-.024-.83-.306-.41-1.078-.74-1.759-.99-2.043-.26-.283-.65-.379-1.18-.287l-19.95 3.47c-.53.092-.89.345-1.06.758s-.23 1.189-.17 2.326c-.03.142-.09.262-.18.36-.1.099-.28.171-.54.217-.11.018-.23.039-.36.062s-.24.015-.33-.024c-.08-.752-.18-1.616-.31-2.592s-.26-1.848-.39-2.618l-1.05-6.011c-.5-2.867-.25-5.199.73-6.997.99-1.799 2.64-2.899 4.95-3.301 1.03-.18 2.06-.153 3.07.081 1.01.235 1.94.682 2.78 1.343.83.66 1.56 1.511 2.18 2.552s1.06 2.278 1.3 3.711zm-2.2-.848c-.28-1.619-.92-2.854-1.91-3.706-1-.852-2.48-1.108-4.45-.766-1.78.309-3.09.941-3.93 1.895-.85.953-1.09 2.452-.74 4.496l.21 1.194 11.03-1.918zm454.3-193.313h-269.45v188.352h269.45zm-265.45 4v180.352h261.45v-180.352zm468.32 166.333-21.18-1.958c-.24-.022-.45-.022-.65.001-.19.023-.36.108-.51.257-.15.148-.28.366-.4.652-.12.287-.25.694-.38 1.223-.12.395-.36.575-.74.541-.08-.008-.2-.026-.36-.054s-.29-.061-.4-.098c.14-.853.27-1.767.4-2.743.13-.975.23-1.838.3-2.589.07-.778.13-1.645.18-2.601s.08-1.866.11-2.729c.11-.044.25-.065.41-.063.16.001.28.005.37.013.18.017.33.065.45.143.11.079.18.268.21.568.04 1.005.17 1.645.37 1.921.21.276.58.439 1.11.488l21.17 1.958.33-3.541c.07-.751.06-1.395-.04-1.931-.1-.537-.29-1.014-.56-1.432-.27-.417-.64-.803-1.11-1.157-.47-.355-1.04-.725-1.7-1.112-.23-.156-.34-.368-.31-.637.01-.161.07-.345.15-.554.09-.208.17-.363.23-.466.63.248 1.18.461 1.67.641.48.18.96.333 1.43.458.61.164 1.15.296 1.63.394s.82.198 1.03.298c.23.13.33.355.3.677-.03.295-.12.875-.28 1.74-.16.864-.3 1.913-.41 3.147l-1.15 12.393c-.11 1.207-.17 2.25-.17 3.129s-.01 1.48-.04 1.802c-.03.295-.17.498-.42.61-.23.061-.58.089-1.07.084-.49-.004-1.04.032-1.67.109-.49.036-.99.091-1.5.166s-1.09.19-1.76.345c-.04-.139-.08-.312-.13-.52-.05-.207-.07-.391-.05-.552.03-.322.17-.526.42-.611.73-.257 1.35-.517 1.88-.779.52-.263.96-.574 1.3-.935.35-.36.62-.795.81-1.305.2-.509.33-1.126.4-1.85zm-341.35-161.267h-122.2v170.22h122.2zm128.43 0h-122.7v170.22h122.7zm-454.05 146.211 14.45 9.333 1.65-.118c.54-.039.92-.174 1.15-.407.22-.232.37-.796.44-1.693.01-.27.23-.421.66-.452.08-.006.2-.008.36-.006.17.002.3.012.41.032.01.863.03 1.747.05 2.65s.06 1.73.12 2.483c.05.752.13 1.57.23 2.454.11.884.22 1.754.33 2.61-.1.061-.23.098-.39.109-.16.012-.29.02-.37.026-.43.031-.66-.087-.71-.354-.12-.558-.24-1.002-.36-1.331s-.25-.569-.4-.721c-.14-.152-.3-.248-.48-.289s-.41-.052-.67-.033l-20.21 1.45c-.26.019-.48.062-.65.128-.18.067-.32.185-.45.356-.12.171-.21.428-.28.77-.07.343-.13.799-.17 1.369-.06.275-.28.426-.66.453-.08.005-.2.014-.36.026-.16.011-.31-.005-.45-.049-.01-.864-.02-1.781-.05-2.751s-.07-1.831-.13-2.584c-.05-.752-.14-1.624-.25-2.615s-.22-1.915-.34-2.771c.13-.036.28-.067.44-.092s.28-.041.36-.046c.38-.027.62.09.72.353.12.559.24 1.003.36 1.332.11.329.25.576.39.741.15.165.31.261.49.289s.4.032.67.013l14.88-1.068-14.45-9.334-1.17.084c-.51.037-.87.183-1.06.441-.2.257-.38.81-.53 1.658-.06.275-.28.425-.66.452-.08.006-.2.015-.36.027-.16.011-.31-.005-.45-.049-.01-.864-.03-1.741-.05-2.63-.02-.89-.06-1.724-.12-2.503-.05-.753-.13-1.571-.23-2.455-.11-.883-.22-1.753-.33-2.609.13-.037.27-.068.43-.093.17-.025.29-.04.37-.046.37-.027.61.091.71.354.12.559.24 1.002.36 1.332.12.329.25.576.4.741.14.165.31.261.48.289.18.028.41.032.67.013l20.2-1.451c.27-.019.49-.055.67-.108.17-.053.31-.171.44-.356.12-.184.21-.447.28-.79s.13-.799.17-1.369c.01-.271.23-.421.65-.452.09-.006.21-.008.37-.006s.3.012.41.031c.01.864.02 1.781.05 2.751s.07 1.832.13 2.584c.05.779.14 1.658.25 2.636.11.977.22 1.894.34 2.75-.11.062-.24.098-.4.11-.16.011-.28.02-.36.026-.43.031-.67-.087-.72-.354-.12-.558-.24-1.002-.36-1.331-.11-.329-.25-.57-.39-.721-.15-.152-.31-.248-.49-.289-.18-.042-.4-.053-.67-.033zm165.03-35.563c.57-3.457-2.76-7.449-3.2-10.284-1.56-10.034 6.54-13.018 6.92-18.674.23-3.486-2.33-6.568-1.59-11.55.54 5.068 5.33 7.781 5.06 11.784-.72 10.5-8.19 11.399-8.64 18.002-.21 3.076 6.17 6.186 6.65 11.075l.01.045-.02.044c-1.13 4.779-7.87 7.001-8.08 10.077-.44 6.602 6.84 8.501 6.13 19.001-.27 4.004-5.38 6.046-6.6 10.994-.06-5.035 2.9-7.743 3.13-11.229.39-5.656-7.23-9.704-4.34-19.437.82-2.75 4.66-6.256 4.56-9.759zm328.64 0c-.57-3.457 2.76-7.449 3.2-10.284 1.55-10.034-6.54-13.018-6.92-18.674-.24-3.486 2.33-6.568 1.59-11.55-.54 5.068-5.33 7.781-5.06 11.784.71 10.5 8.19 11.399 8.63 18.002.21 3.076-6.16 6.186-6.64 11.075l-.01.045.01.044c1.14 4.779 7.87 7.001 8.08 10.077.45 6.602-6.83 8.501-6.12 19.001.27 4.004 5.38 6.046 6.6 10.994.06-5.035-2.9-7.743-3.14-11.229-.38-5.656 7.23-9.704 4.34-19.437-.81-2.75-4.66-6.256-4.56-9.759zm169.15 17.722-13.87-10.175-1.65.02c-.54.007-.93.12-1.17.338-.24.219-.42.773-.55 1.664-.02.269-.25.407-.68.412-.08.001-.2-.004-.36-.016-.17-.011-.3-.03-.41-.055.04-.863.08-1.746.11-2.648.03-.903.04-1.732.03-2.486s-.04-1.576-.09-2.464c-.05-.889-.11-1.763-.17-2.625.1-.055.24-.083.4-.085s.28-.004.36-.005c.43-.005.66.127.69.396.09.564.19 1.014.28 1.35.1.336.22.583.36.743.13.16.29.266.47.318.17.052.39.076.66.072l20.25-.248c.27-.004.49-.033.67-.089.17-.056.33-.166.46-.329.13-.164.25-.414.34-.752.08-.338.17-.79.24-1.357.08-.27.31-.408.68-.412.08-.001.21-.003.37-.005s.31.023.44.076c-.04.862-.08 1.779-.11 2.749-.02.97-.03 1.832-.02 2.587.01.754.04 1.629.09 2.625s.11 1.925.18 2.786c-.14.029-.29.051-.45.066-.16.016-.28.024-.36.025-.38.005-.61-.127-.69-.396-.09-.564-.18-1.014-.28-1.35-.1-.335-.22-.59-.36-.763-.13-.174-.29-.28-.47-.318-.17-.038-.39-.056-.66-.052l-14.92.183 13.87 10.175 1.17-.015c.52-.006.88-.132 1.09-.377s.42-.786.63-1.624c.08-.27.3-.408.68-.412.08-.001.2-.003.36-.005.17-.002.31.023.45.076-.04.862-.08 1.738-.11 2.628-.03.889-.04 1.724-.03 2.506.01.754.04 1.575.09 2.463.05.889.11 1.764.18 2.625-.14.029-.29.051-.45.066-.16.016-.28.024-.36.025-.38.004-.61-.127-.69-.396-.09-.564-.19-1.015-.28-1.35-.1-.336-.22-.59-.36-.764-.13-.173-.29-.279-.47-.317-.17-.038-.39-.056-.66-.053l-20.25.249c-.27.004-.5.026-.67.069-.18.043-.33.152-.46.329s-.25.434-.34.772-.17.79-.24 1.357c-.03.269-.25.407-.68.412-.09.001-.21-.004-.37-.016-.16-.011-.3-.03-.4-.055.04-.863.08-1.779.1-2.75.03-.97.04-1.832.03-2.586-.01-.781-.04-1.663-.09-2.646s-.11-1.905-.17-2.766c.1-.055.24-.084.4-.086s.28-.003.36-.004c.43-.006.66.126.69.395.09.565.19 1.015.28 1.351.1.335.22.583.36.743.13.16.29.266.47.318.17.051.39.075.66.072zm-647.87-7.63c.27.009.49-.003.67-.038.17-.034.33-.136.47-.307.14-.17.27-.422.37-.755.11-.334.21-.782.31-1.344.04-.269.27-.395.7-.381.08.003.2.014.36.033s.3.044.41.074c-.09.86-.17 1.787-.24 2.782s-.12 1.869-.15 2.623-.04 1.616-.03 2.586c.01.971.02 1.888.05 2.751-.11.051-.25.073-.41.067l-.36-.012c-.43-.015-.66-.157-.67-.427-.07-.568-.14-1.022-.22-1.362s-.19-.593-.32-.759-.28-.279-.45-.339c-.18-.06-.4-.094-.67-.103l-20.24-.69c-.27-.009-.49.01-.67.058-.17.048-.33.15-.47.307s-.26.402-.37.736c-.11.333-.21.781-.31 1.344-.09.266-.32.393-.7.38l-.36-.012c-.16-.006-.31-.038-.45-.096.09-.86.17-1.774.24-2.742s.12-1.828.15-2.582c.02-.754.03-1.63.03-2.627-.01-.998-.02-1.928-.05-2.792.14-.022.29-.037.45-.045s.28-.011.36-.008c.38.013.6.155.67.427.07.568.14 1.022.22 1.362s.19.6.32.779c.13.18.28.293.45.339.18.046.4.074.67.083l9.29.317.04-1.211c.05-1.535-.22-2.73-.83-3.587-.6-.856-1.37-1.549-2.29-2.079-.93-.53-1.95-.963-3.05-1.297-1.11-.334-2.13-.733-3.06-1.196-.92-.463-1.69-1.075-2.3-1.837s-.89-1.816-.84-3.162c.01-.35.07-.692.17-1.025.11-.333.21-.566.29-.698.17-.237.51-.346 1.02-.329.41.014.86.09 1.37.229.51.138.99.31 1.44.514s.83.432 1.13.685.45.5.44.743c-.01.215-.04.416-.1.603-.06.186-.1.441-.11.764-.02.647.15 1.171.53 1.575s.86.764 1.44 1.08c.58.317 1.23.642 1.95.976.72.335 1.39.762 2.02 1.282s1.19 1.193 1.67 2.018c.12-.508.28-.974.45-1.4.36-1.012.86-1.83 1.5-2.455.42-.417.86-.78 1.33-1.087.47-.308 1.01-.592 1.63-.854.61-.262 1.33-.521 2.15-.776s1.77-.54 2.86-.853c.49-.145.89-.3 1.19-.465s.54-.345.7-.542c.17-.196.29-.408.37-.634.08-.227.16-.487.25-.78s.32-.434.7-.421c.08.003.2.014.34.032.15.019.29.057.42.115-.03.296-.07.678-.12 1.149-.04.47-.07.954-.11 1.451-.03.498-.06.976-.08 1.433-.03.457-.05.82-.06 1.089-.02.593-.09 1.069-.21 1.429-.12.359-.29.65-.52.872-.22.221-.5.38-.82.477-.33.096-.71.191-1.14.284-.98.21-1.85.416-2.61.619-.77.203-1.44.402-2.03.598-.58.196-1.12.413-1.6.653s-.92.501-1.34.783c-.8.539-1.35 1.174-1.64 1.905-.3.731-.46 1.582-.49 2.551l-.03.848zm139.81-.835c1.22 1.389 2.55 1.036 3.81-.27 1.26-1.305 2.44-3.561 3.35-5.98v-.004.001c-2.52.575-4.92 1.442-6.38 2.513s-1.99 2.346-.78 3.737zm349.17 0c-1.21 1.389-2.55 1.036-3.81-.27-1.25-1.305-2.44-3.561-3.35-5.98v-.004l.01.001c2.52.575 4.91 1.442 6.37 2.513 1.47 1.071 2 2.346.78 3.737zm-225.08-30.678h-29.05l-1.98 4.851c-2.93 7.032-4.4 11.619-4.4 13.762 0 2.294.78 4.033 2.34 5.218 1.56 1.184 3.57 1.776 6.01 1.776v2.595h-22.73v-2.595c3.39-.526 5.91-1.72 7.56-3.581 1.65-1.862 3.65-5.782 5.98-11.76.19-.564 1.09-2.745 2.7-6.543l22.23-53.075h2.2l25.55 60.746 3.5 8.009c.79 1.805 1.85 3.224 3.18 4.258 1.34 1.034 3.34 1.683 6.01 1.946v2.595h-30.06v-2.595c3.68 0 6.17-.272 7.47-.818 1.3-.545 1.94-1.626 1.94-3.243 0-.827-.86-3.29-2.59-7.389zm101.26 21.073c-8.35-2.882-14.6-7.408-18.73-13.579-4.14-6.171-6.21-13.284-6.21-21.339 0-3.991.74-7.982 2.22-11.973 1.47-3.99 3.69-7.593 6.65-10.808 2.95-3.214 6.67-5.838 11.14-7.87 4.47-2.033 9.66-3.049 15.57-3.049s11.03 1.016 15.36 3.049c4.32 2.032 7.9 4.656 10.75 7.87 2.84 3.215 4.95 6.818 6.32 10.808 1.36 3.991 2.05 7.982 2.05 11.973 0 4.36-.57 8.461-1.72 12.304s-2.79 7.298-4.93 10.365c-2.15 3.067-4.75 5.672-7.82 7.815s-6.56 3.621-10.47 4.434h8.86c2.44 0 4.49-.24 6.16-.72 1.66-.481 3.05-1.22 4.15-2.217 1.11-.998 2.05-2.254 2.83-3.769s1.53-3.27 2.27-5.266c.22-.591.67-.887 1.33-.887.37 0 .71.056 1 .167.3.11.78.351 1.44.72-.52 2.143-1.01 4.564-1.49 7.261s-.91 5.413-1.28 8.148c-.15.813-.35 1.33-.61 1.552-.26.221-.68.332-1.27.332-1.04 0-2.85-.092-5.44-.277-2.58-.185-5.28-.277-8.09-.277h-15.52v-5.099c3.33-1.035 6.19-2.716 8.59-5.044 2.41-2.328 4.42-5.007 6.04-8.037 1.63-3.03 2.83-6.263 3.61-9.7.77-3.436 1.16-6.78 1.16-10.032 0-4.582-.57-8.739-1.72-12.471-1.14-3.732-2.77-6.91-4.87-9.533-2.11-2.624-4.64-4.637-7.6-6.042-2.95-1.404-6.21-2.106-9.75-2.106-3.55 0-6.77.61-9.65 1.829-2.88 1.22-5.34 2.975-7.37 5.266s-3.62 5.117-4.77 8.48c-1.14 3.363-1.71 7.187-1.71 11.473 0 3.991.38 7.926 1.16 11.806s1.94 7.427 3.49 10.642 3.53 6.005 5.93 8.37c2.4 2.364 5.27 4.064 8.59 5.099v5.099h-15.52c-2.8 0-5.5.092-8.09.277-2.58.185-4.39.277-5.43.277-.59 0-1.02-.111-1.27-.332-.26-.222-.47-.739-.61-1.552-.37-2.735-.8-5.451-1.28-8.148s-.98-5.118-1.49-7.261c.66-.369 1.14-.61 1.44-.72.29-.111.62-.167.99-.167.67 0 1.11.296 1.33.887.74 1.996 1.5 3.751 2.28 5.266.77 1.515 1.71 2.771 2.82 3.769 1.11.997 2.5 1.736 4.16 2.217 1.66.48 3.71.72 6.15.72zm126.52-.488c-.17-2.501-1.87-3.219-4.27-2.845-2.39.374-5.47 1.839-8.39 3.702v.004.002c3.15 1.453 6.4 2.489 8.82 2.537s4.01-.893 3.84-3.394zm-354.57 0c.17-2.501 1.88-3.219 4.27-2.845s5.47 1.839 8.39 3.702l.01.004-.01.002c-3.14 1.453-6.39 2.489-8.81 2.537s-4.01-.893-3.85-3.394zm350.49-10.241c-1.39-1.212-2.66-.682-3.73.781s-1.94 3.858-2.52 6.378v.004l.01-.002c2.42-.91 4.67-2.092 5.98-3.35 1.3-1.259 1.66-2.593.27-3.808zm-346.41 0c1.39-1.212 2.67-.682 3.74.781s1.94 3.858 2.51 6.378v.004-.002c-2.42-.91-4.68-2.092-5.98-3.35-1.31-1.259-1.66-2.593-.27-3.808zm485.82-7.317c-.26-2.247-.14-4.255.35-6.022.5-1.766 1.3-3.269 2.39-4.508 1.09-1.24 2.42-2.229 4.01-2.97 1.58-.74 3.32-1.221 5.22-1.443 1.58-.184 3.2-.102 4.87.245 1.67.348 3.22 1.022 4.65 2.021 1.44.999 2.67 2.347 3.69 4.045 1.03 1.697 1.68 3.79 1.98 6.279.15 1.365.21 2.653.16 3.866-.05 1.212-.18 2.536-.39 3.971-.72.138-1.63.353-2.73.644-1.11.292-2.18.647-3.22 1.067-.04-.131-.09-.301-.16-.511-.06-.209-.1-.367-.11-.474-.03-.214-.02-.399.03-.554s.18-.271.39-.35c.85-.397 1.55-.818 2.11-1.263s.99-.949 1.29-1.513.49-1.203.57-1.918c.08-.714.06-1.54-.05-2.476-.16-1.445-.56-2.694-1.19-3.746-.62-1.053-1.44-1.9-2.45-2.542-1.01-.641-2.19-1.08-3.53-1.317-1.34-.236-2.83-.26-4.46-.069-1.74.203-3.34.626-4.78 1.269-1.45.643-2.67 1.436-3.67 2.381-1 .944-1.75 2.014-2.23 3.209-.49 1.196-.65 2.449-.5 3.76.13 1.07.33 1.975.62 2.714.29.74.68 1.359 1.16 1.859.47.5 1.06.907 1.75 1.22.68.313 1.47.58 2.37.802.22.055.39.164.51.327.11.163.18.338.2.525.04.348.01.691-.09 1.027-.97-.212-2.11-.431-3.41-.659s-2.53-.384-3.67-.467c-.4-1.283-.73-2.6-1-3.952-.26-1.352-.49-2.845-.68-4.477zm-629.51-12.168-1.17 8.405 5.28 2.851c.12.099.26.172.42.221s.28.079.36.09c.29.041.55-.066.77-.321.23-.254.47-.799.72-1.634.1-.367.38-.518.84-.456.11.015.21.037.32.065.1.028.22.065.35.11-.16.713-.31 1.467-.46 2.262s-.28 1.579-.39 2.353c-.07.534-.13 1.096-.19 1.687-.05.591-.09 1.252-.11 1.983-.11.039-.24.049-.37.03-.13-.018-.24-.033-.32-.044-.51-.07-.75-.28-.73-.631-.05-.849-.14-1.467-.27-1.853-.14-.386-.42-.717-.85-.993l-21.73-12.836c-.42-.276-.6-.627-.54-1.054.02-.134.04-.266.07-.398s.07-.276.12-.432l25.12-6.358c.43-.105.77-.37 1.03-.796s.47-.9.63-1.423c.13-.389.43-.553.88-.49.11.015.22.037.34.067s.24.068.37.113c-.17.846-.33 1.681-.49 2.502-.15.822-.28 1.593-.38 2.313-.05.374-.11.829-.17 1.364-.06.536-.12 1.085-.18 1.647-.07.562-.13 1.119-.17 1.669-.05.551-.09 1.015-.12 1.392-.11.039-.23.049-.37.031-.13-.019-.24-.034-.32-.045-.24-.033-.41-.105-.52-.215s-.17-.22-.18-.33c-.03-.713-.12-1.247-.24-1.605-.13-.358-.37-.56-.72-.608-.16-.022-.36-.01-.61.037zm-2.11.483-9.48 2.157 8.53 4.728zm267.55 6.12-13.54-32.601-13.48 32.601zm369.82-29.921-7.59 1.638c-.6.131-.98.474-1.12 1.028-.14.555-.15 1.481-.04 2.779.03.38-.2.621-.67.723-.1.023-.22.041-.34.053-.12.013-.25.02-.39.022-.11-.775-.27-1.739-.48-2.893s-.45-2.403-.75-3.745c-.2-.948-.42-1.859-.65-2.733-.23-.873-.45-1.686-.67-2.438.09-.076.21-.128.34-.156.13-.029.24-.051.31-.068.45-.097.73-.006.85.272.45 1.06.81 1.727 1.07 2 .27.274.66.353 1.19.24l19.8-4.276c.52-.114.87-.381 1.02-.801.16-.42.19-1.197.08-2.331.02-.143.08-.266.17-.367.09-.102.26-.181.53-.238.1-.023.22-.049.35-.077.13-.029.24-.025.33.011.11.748.25 1.607.42 2.577.16.97.33 1.836.5 2.6l1.29 5.964c.61 2.843.46 5.184-.45 7.021s-2.52 3.003-4.81 3.498c-1.03.222-2.05.236-3.07.043s-1.96-.602-2.83-1.228c-.86-.626-1.63-1.447-2.29-2.461-.66-1.015-1.14-2.234-1.45-3.656zm-632.34-3.454 7.55 1.813c.6.145 1.09-.002 1.45-.44.37-.437.79-1.266 1.25-2.486.14-.354.44-.474.91-.361.11.025.22.059.33.1.12.042.24.091.36.149-.23.747-.51 1.685-.82 2.815s-.63 2.363-.95 3.699c-.23.943-.43 1.858-.6 2.745s-.32 1.716-.45 2.488c-.12.027-.24.025-.37-.006-.13-.032-.24-.057-.32-.076-.44-.107-.66-.311-.64-.611.05-1.151.02-1.907-.1-2.268-.12-.362-.44-.606-.97-.731l-19.69-4.732c-.52-.126-.95-.033-1.27.277-.33.31-.68.999-1.08 2.068-.08.118-.19.204-.31.257-.13.054-.32.049-.58-.014-.11-.025-.22-.054-.35-.085-.14-.032-.23-.083-.3-.154.23-.721.48-1.555.75-2.501.27-.947.49-1.8.67-2.56l1.43-5.932c.68-2.829 1.83-4.873 3.45-6.133 1.62-1.259 3.57-1.615 5.85-1.067 1.02.245 1.95.676 2.79 1.293.83.616 1.5 1.394 2.01 2.333.51.94.84 2.01 1 3.211.15 1.201.06 2.508-.28 3.923zm634.57 4.212c.35 1.606 1.04 2.815 2.07 3.626s2.52 1.006 4.47.585c1.76-.382 3.05-1.066 3.85-2.053.81-.987.99-2.495.56-4.522l-.26-1.185-10.94 2.364zm-164.98-40.394c-.68-3.439 2.54-7.529 2.89-10.376 1.25-10.075-6.92-12.817-7.47-18.459-.34-3.477 2.13-6.635 1.24-11.592-.39 5.082-5.09 7.936-4.7 11.93 1.02 10.474 8.52 11.15 9.16 17.736.3 3.068-5.98 6.367-6.31 11.268l-.01.045.02.044c1.28 4.743 8.08 6.763 8.38 9.831.64 6.587-6.59 8.702-5.56 19.176.39 3.993 5.56 5.882 6.92 10.793-.08-5.036-3.12-7.654-3.46-11.131-.55-5.643 6.94-9.916 3.75-19.558-.89-2.725-4.84-6.114-4.84-9.618zm-311.22 0c.67-3.439-2.54-7.529-2.89-10.376-1.26-10.075 6.92-12.817 7.47-18.459.34-3.477-2.14-6.635-1.25-11.592.39 5.082 5.1 7.936 4.71 11.93-1.03 10.474-8.52 11.15-9.17 17.736-.3 3.068 5.98 6.367 6.32 11.268v.045l-.01.044c-1.28 4.743-8.08 6.763-8.38 9.831-.64 6.587 6.58 8.702 5.56 19.176-.39 3.993-5.56 5.882-6.93 10.793.09-5.036 3.13-7.654 3.47-11.131.55-5.643-6.94-9.916-3.76-19.558.9-2.725 4.84-6.114 4.85-9.618zm-160.05 34.531c.38-1.598.29-2.985-.29-4.163-.58-1.177-1.83-1.999-3.77-2.465-1.76-.421-3.21-.362-4.37.177-1.15.54-1.97 1.818-2.46 3.835l-.28 1.179 10.89 2.616zm638.64-28.177-9.29 2.927 1.71 5.434c.16.488.46.759.92.813.45.055 1.15.005 2.09-.15.21-.039.37-.005.48.103.1.109.19.265.25.471.02.077.06.201.1.372s.06.299.05.385c-.6.134-1.3.306-2.1.514-.8.209-1.47.398-2.01.568-.46.146-1 .331-1.62.555s-1.32.5-2.09.828c-.08-.061-.15-.173-.21-.336-.07-.163-.11-.283-.14-.36-.14-.437-.03-.737.31-.902.93-.462 1.54-.844 1.82-1.146.29-.302.36-.671.22-1.108l-1.71-5.434-8.64 2.72c-.54.17-.79.611-.77 1.323.03.712.3 1.877.81 3.496l.51 1.619c.24.745.54 1.355.92 1.83.37.474.81.859 1.31 1.152.51.294 1.06.516 1.66.666.59.151 1.25.283 1.96.397.21.02.35.172.44.455.04.128.05.294.03.498-.02.205-.04.409-.06.613l-1.23.005c-.32-.039-.66-.045-1.02-.017-.36.029-.65.037-.88.024-.27.03-.58.063-.92.1s-.67.07-.99.099c-.31.029-.6.048-.85.056-.25.009-.42.012-.5.011-.25-.064-.42-.237-.51-.519-.06-.206-.14-.505-.24-.899-.09-.393-.21-.817-.34-1.271-.12-.453-.25-.916-.37-1.386-.12-.471-.23-.873-.34-1.207l-2.75-8.748c-.24-.746-.53-1.594-.87-2.545-.34-.952-.66-1.804-.96-2.559.09-.084.22-.152.39-.205.16-.052.28-.091.36-.115.39-.122.63-.058.74.191.49.92.9 1.559 1.24 1.918s.77.458 1.28.296l19.32-6.085c.51-.162.81-.459.88-.893.08-.433.05-1.221-.09-2.365 0-.282.19-.483.57-.604.13-.041.25-.079.37-.116.12-.036.25-.049.39-.038.27 1.129.53 2.122.77 2.978s.46 1.592.65 2.208l2.5 7.901c.36 1.156.71 2.14 1.05 2.95.34.811.56 1.371.66 1.679.09.283.04.525-.15.726-.19.142-.54.325-1.08.551-.54.225-1.08.496-1.63.81-.41.215-.81.438-1.19.671-.38.232-.83.544-1.36.936-.09-.112-.19-.237-.28-.375-.1-.138-.18-.284-.23-.439-.1-.308-.04-.55.15-.726.58-.518 1.05-1 1.44-1.446.38-.445.66-.9.84-1.366.17-.466.25-.969.22-1.511-.03-.541-.15-1.159-.37-1.853zm-621.43 4.267c.26.089.48.143.65.163.18.02.36-.03.55-.151.18-.121.38-.324.58-.611s.43-.683.69-1.191c.12-.245.38-.296.79-.154.07.027.18.074.33.14s.27.13.36.191c-.33.795-.68 1.657-1.05 2.584s-.68 1.747-.93 2.459c-.25.711-.51 1.532-.8 2.46-.28.929-.54 1.809-.77 2.64-.12.015-.26-.004-.41-.057-.15-.054-.27-.094-.34-.121-.41-.142-.58-.345-.52-.608.11-.561.18-1.016.2-1.365s0-.622-.08-.819c-.07-.197-.18-.35-.33-.459-.15-.108-.35-.207-.6-.296l-19.11-6.698c-.26-.089-.48-.137-.66-.144s-.36.043-.54.151c-.19.108-.38.305-.58.592s-.43.683-.69 1.191c-.17.227-.43.278-.78.154-.08-.027-.2-.067-.35-.121-.15-.053-.28-.128-.39-.223.33-.796.68-1.644 1.04-2.546s.66-1.709.91-2.421l5.15-14.681c.25-.712.52-1.532.8-2.46.28-.929.54-1.809.78-2.64.13.019.28.049.44.09.16.04.27.074.35.101.35.125.53.328.51.608-.11.561-.17 1.016-.2 1.365-.02.349 0 .628.07.838s.18.363.33.459c.16.096.36.188.61.278l19.12 6.697c.25.089.47.144.65.163.17.02.36-.03.54-.151.19-.121.38-.324.58-.611.2-.286.43-.683.69-1.19.12-.246.38-.297.79-.155.07.027.19.074.33.14.15.066.27.13.37.191-.34.795-.69 1.644-1.05 2.546s-.66 1.709-.91 2.42c-.26.738-.53 1.577-.82 2.518s-.55 1.828-.78 2.659c-.12.015-.26-.004-.41-.057-.15-.054-.27-.094-.34-.121-.41-.142-.58-.345-.52-.608.11-.561.18-1.016.2-1.365.03-.349 0-.622-.07-.819-.08-.197-.19-.35-.34-.458-.14-.109-.35-.208-.6-.297l-20.06-7.032-3.44 9.8zm464.59-1.675c-1.17 1.425-2.51 1.111-3.81-.156s-2.54-3.487-3.53-5.878v-.004l.01.001c2.53.5 4.95 1.295 6.45 2.322 1.49 1.027 2.06 2.285.89 3.712zm-332.29 0c1.17 1.425 2.52 1.111 3.81-.156 1.3-1.267 2.55-3.487 3.53-5.878v-.004.001c-2.54.5-4.96 1.295-6.45 2.322s-2.06 2.285-.89 3.712zm334.69-10.169c-.24-2.495-1.97-3.161-4.35-2.716s-5.41 2.001-8.27 3.951l-.01.003.01.002c3.18 1.359 6.46 2.297 8.88 2.273s3.99-1.012 3.74-3.508zm-337.09 0c.25-2.495 1.98-3.161 4.36-2.716 2.37.445 5.41 2.001 8.27 3.951v.003.002c-3.19 1.359-6.46 2.297-8.88 2.273-2.43-.024-3.99-1.012-3.75-3.508zm332.71-10.115c-1.42-1.17-2.68-.602-3.71.892-1.03 1.495-1.82 3.915-2.32 6.45v.004-.001c2.39-.982 4.61-2.231 5.88-3.527 1.27-1.298 1.58-2.642.15-3.815zm-328.33 0c1.43-1.17 2.69-.602 3.72.892 1.02 1.495 1.82 3.915 2.32 6.45v.004-.001c-2.4-.982-4.62-2.231-5.88-3.527-1.27-1.298-1.58-2.642-.16-3.815zm468.64-3.06c.34 1.083.55 2.131.61 3.143s-.02 1.948-.26 2.808c-.23.861-.62 1.618-1.16 2.273-.54.654-1.24 1.16-2.08 1.518-1.14.484-2.24.693-3.29.627-1.05-.065-2.04-.365-2.95-.899-.92-.534-1.76-1.295-2.53-2.285s-1.45-2.166-2.03-3.53l-2.73-6.435c-.19-.447-.41-.946-.66-1.499s-.5-1.066-.76-1.541c-.15-.287-.3-.577-.44-.869-.13-.293-.26-.575-.38-.848l.25-.148c.08-.067.2-.132.35-.195.27-.115.47-.148.6-.098.12.05.22.131.3.245.49.815.93 1.355 1.3 1.62.38.265.81.292 1.31.082l18.64-7.909c.5-.211.78-.522.86-.934.07-.412-.02-1.12-.27-2.126-.03-.219.01-.383.12-.49.12-.108.28-.203.47-.288.15-.063.27-.098.36-.105.12-.052.21-.077.27-.073.27.765.58 1.621.94 2.566.35.946.66 1.716.91 2.312l2.18 5.133c.68 1.587 1.08 2.967 1.21 4.14s.06 2.185-.22 3.037c-.29.851-.73 1.557-1.32 2.117-.6.561-1.28 1.004-2.05 1.33-1.44.611-2.79.626-4.04.047-1.26-.579-2.39-1.504-3.4-2.774zm-12.19-1.502c-.57.242-.82.663-.76 1.265.07.601.25 1.249.54 1.944.73 1.711 1.64 2.833 2.73 3.365 1.09.533 2.45.452 4.09-.243.89-.378 1.61-.865 2.15-1.459.53-.594.91-1.244 1.12-1.949.22-.705.29-1.452.22-2.241-.08-.789-.28-1.568-.6-2.336l-.86-2.009zm-580.18-14.811-3.66 7.659 4.17 4.314c.08.131.19.244.33.338.13.093.24.158.31.193.27.127.55.104.84-.07s.68-.621 1.18-1.341c.21-.318.52-.378.93-.181.1.047.19.099.29.158.09.058.19.129.3.211-.36.633-.74 1.306-1.12 2.018-.39.712-.75 1.421-1.08 2.126-.24.486-.47 1.003-.7 1.549-.23.547-.46 1.165-.7 1.857-.12.002-.25-.026-.37-.084s-.22-.104-.29-.139c-.46-.22-.63-.494-.5-.822.21-.823.31-1.44.3-1.849-.02-.41-.18-.81-.5-1.202l-16.82-18.81c-.33-.392-.39-.782-.21-1.171.06-.122.12-.24.19-.356s.16-.241.25-.375l25.87 1.544c.43.028.84-.121 1.22-.448.38-.326.72-.715 1.03-1.166.24-.33.57-.397.99-.2.09.047.19.102.3.167.1.064.21.137.32.22-.42.754-.83 1.5-1.23 2.236-.39.737-.75 1.433-1.06 2.09-.16.34-.35.756-.57 1.248s-.45.997-.68 1.513-.46 1.03-.67 1.54-.39.941-.53 1.293c-.12.002-.24-.026-.36-.084s-.22-.104-.29-.139c-.22-.104-.36-.225-.43-.363-.07-.137-.09-.26-.07-.369.18-.69.26-1.225.25-1.604-.02-.379-.18-.644-.5-.795-.14-.07-.34-.12-.59-.152zm590.93 10.954c.41.967.88 1.72 1.4 2.26.52.539 1.08.909 1.68 1.109.59.201 1.2.266 1.81.195.62-.07 1.22-.232 1.82-.484.57-.242 1.07-.564 1.5-.966s.74-.88.95-1.434c.2-.555.27-1.199.21-1.934-.06-.734-.28-1.547-.66-2.44l-.26-.595-8.7 3.694zm-593.09-11.131-9.69-.814 6.7 7.087zm573.69-2.366c-.24.125-.43.245-.56.362-.14.117-.23.284-.27.501-.04.218-.02.498.05.84.08.342.21.783.4 1.322.07.264-.07.489-.43.675-.07.038-.18.088-.33.151-.15.062-.28.107-.39.132-.35-.789-.73-1.629-1.15-2.52-.42-.89-.8-1.67-1.15-2.339-.36-.693-.78-1.46-1.27-2.302-.48-.841-.95-1.632-1.39-2.371.07-.098.17-.184.32-.259.14-.074.25-.13.32-.168.38-.199.65-.185.8.041.33.465.62.824.85 1.08.24.255.46.423.65.504.2.081.39.105.57.072s.39-.112.63-.236l17.96-9.353c.24-.125.42-.251.55-.38.13-.128.22-.296.27-.501.04-.206.03-.48-.05-.822-.07-.342-.2-.783-.39-1.322-.05-.276.09-.501.42-.675.08-.038.18-.094.33-.169.14-.074.28-.119.43-.133.35.789.73 1.623 1.14 2.502s.8 1.665 1.16 2.358c.35.668.77 1.43 1.26 2.283s.96 1.65 1.41 2.39c-.11.086-.23.172-.37.259-.14.086-.24.148-.31.186-.34.174-.6.16-.8-.041-.33-.465-.62-.825-.86-1.08s-.46-.429-.66-.522-.39-.117-.56-.072-.38.13-.62.254zm-571.23-30.143 18.3 10.821c.21.123.41.216.59.277s.38.056.57-.014c.2-.071.42-.209.65-.416.23-.208.52-.522.86-.945.28-.307.58-.364.9-.172.07.041.18.109.31.203s.23.179.31.258c-.48.714-.99 1.484-1.53 2.31-.53.826-.99 1.563-1.38 2.212-.4.673-.82 1.431-1.27 2.274-.45.844-.88 1.651-1.27 2.42-.12-.008-.25-.048-.4-.119-.15-.07-.25-.126-.32-.167-.16-.096-.28-.204-.35-.324s-.05-.321.05-.603c.39-.927.55-1.558.49-1.895-.07-.337-.33-.643-.8-.917l-18.3-10.82-1.81 3.06c-.38.649-.65 1.238-.79 1.765-.14.528-.17 1.039-.11 1.533.07.493.24 1.001.51 1.521.28.52.63 1.098 1.07 1.733.14.239.14.475 0 .707-.08.139-.2.284-.37.435s-.3.26-.41.325c-.46-.492-.87-.922-1.23-1.292-.36-.369-.73-.713-1.1-1.029-.48-.408-.92-.759-1.31-1.052s-.65-.53-.8-.709c-.15-.216-.15-.463.02-.741.15-.255.48-.739 1-1.452.51-.712 1.09-1.602 1.72-2.668l6.34-10.712c.61-1.044 1.11-1.963 1.49-2.757.37-.795.64-1.332.81-1.61.15-.255.36-.379.64-.371.23.04.56.166 1 .378s.96.418 1.56.618c.46.177.93.34 1.42.49.49.149 1.07.296 1.74.439-.02.144-.06.319-.1.527-.05.209-.11.382-.19.521-.17.279-.38.402-.64.372-.77-.079-1.45-.111-2.04-.098-.58.013-1.11.108-1.58.287-.46.178-.89.456-1.29.833-.39.376-.78.878-1.14 1.504zm562.09 13.177c-.23.145-.41.281-.53.409-.13.128-.2.302-.22.522s.02.498.12.832c.1.335.27.763.5 1.283.13.242.01.479-.36.71-.07.043-.17.103-.32.178-.14.076-.27.131-.37.166-.42-.756-.87-1.554-1.36-2.394-.48-.84-.93-1.579-1.33-2.215-.42-.659-.91-1.393-1.48-2.201-.56-.808-1.09-1.561-1.6-2.259.06-.104.16-.199.3-.285.13-.087.24-.152.3-.196.37-.231.63-.24.8-.027.37.434.69.767.95 1.001.26.233.49.382.69.446s.39.072.57.024c.17-.049.38-.145.6-.29l8.02-5.096-5.86-9.206-8.02 5.096c-.22.145-.4.281-.53.409-.12.128-.2.302-.22.522-.01.22.03.498.13.833.1.334.27.762.5 1.283.12.241 0 .478-.36.709-.07.044-.17.103-.32.178-.14.076-.27.131-.37.166-.42-.756-.88-1.566-1.38-2.428-.5-.863-.95-1.613-1.36-2.249-.4-.636-.88-1.353-1.44-2.15-.55-.796-1.08-1.544-1.59-2.242.06-.103.16-.198.3-.285.13-.087.23-.152.3-.195.37-.232.63-.241.8-.028.37.434.69.768.95 1.001.26.234.49.382.69.447.2.064.39.071.57.023.17-.049.37-.145.6-.29l17.09-10.865c.23-.145.4-.287.52-.426s.19-.313.22-.522c.02-.209-.01-.481-.11-.815-.1-.335-.27-.763-.51-1.283-.08-.271.04-.508.36-.71.07-.043.17-.108.31-.195s.28-.144.42-.171c.42.757.87 1.555 1.35 2.395.49.84.94 1.578 1.34 2.214.41.637.9 1.365 1.46 2.184.57.819 1.11 1.578 1.62 2.277-.1.095-.21.191-.34.289-.13.099-.23.169-.3.213-.32.202-.58.211-.79.027-.38-.434-.69-.767-.95-1.001-.26-.233-.5-.388-.71-.463-.2-.076-.39-.084-.56-.024s-.37.162-.6.307l-7.26 4.619 5.86 9.206 7.26-4.619c.23-.145.4-.287.52-.426.12-.14.19-.314.22-.522.03-.209-.01-.481-.11-.816-.1-.334-.27-.762-.51-1.283-.07-.27.05-.507.37-.709.06-.044.17-.109.3-.196.14-.086.28-.143.42-.17.42.756.87 1.56 1.37 2.412.49.851.95 1.606 1.37 2.265.4.637.88 1.353 1.44 2.15.55.796 1.08 1.544 1.59 2.242-.1.095-.21.192-.34.29s-.23.169-.3.212c-.31.203-.58.212-.79.028-.38-.434-.69-.768-.95-1.001-.26-.234-.5-.388-.7-.464-.21-.075-.4-.083-.57-.023s-.37.162-.6.307zm-275.85-1.825c3.49.336 7.24-3.26 10.04-3.889 9.91-2.228 13.43 5.643 19.1 5.643 3.5 0 6.4-2.771 11.42-2.367-5.02.881-7.4 5.841-11.42 5.841-10.52 0-11.92-7.396-18.54-7.396-3.08 0-5.76 6.57-10.6 7.382l-.05.007-.04-.007c-4.85-.812-7.52-7.382-10.6-7.382-6.62 0-8.02 7.396-18.54 7.396-4.02 0-6.4-4.96-11.42-5.841 5.02-.404 7.92 2.367 11.42 2.367 5.67 0 9.19-7.871 19.09-5.643 2.8.629 6.56 4.225 10.05 3.889zm100.39 0c3.48.336 7.24-3.26 10.04-3.889 9.91-2.228 13.43 5.643 19.1 5.643 3.49 0 6.4-2.771 11.41-2.367-5.01.881-7.4 5.841-11.41 5.841-10.52 0-11.93-7.396-18.54-7.396-3.09 0-5.76 6.57-10.6 7.382l-.05.007-.04-.007c-4.85-.812-7.52-7.382-10.6-7.382-6.62 0-8.02 7.396-18.55 7.396-4.01 0-6.39-4.96-11.41-5.841 5.02-.404 7.92 2.367 11.41 2.367 5.67 0 9.2-7.871 19.1-5.643 2.8.629 6.56 4.225 10.05 3.889zm-200.78 0c3.48.336 7.24-3.26 10.04-3.889 9.91-2.228 13.43 5.643 19.1 5.643 3.49 0 6.4-2.771 11.42-2.367-5.02.881-7.41 5.841-11.42 5.841-10.52 0-11.93-7.396-18.54-7.396-3.09 0-5.76 6.57-10.6 7.382l-.05.007-.04-.007c-4.85-.812-7.52-7.382-10.6-7.382-6.62 0-8.02 7.396-18.55 7.396-4.01 0-6.39-4.96-11.41-5.841 5.02-.404 7.92 2.367 11.41 2.367 5.67 0 9.2-7.871 19.1-5.643 2.8.629 6.56 4.225 10.05 3.889zm100.35-12.993c2.5.002 3.33 1.655 3.12 4.067-.21 2.411-1.46 5.581-3.12 8.62l-.01.005v-.005c-1.66-3.039-2.91-6.209-3.13-8.62-.21-2.412.62-4.065 3.13-4.067zm-100.4 0c2.51.002 3.34 1.655 3.13 4.067-.21 2.411-1.46 5.581-3.13 8.62v.005-.005c-1.66-3.039-2.92-6.209-3.13-8.62-.21-2.412.62-4.065 3.13-4.067zm200.78 0c2.51.002 3.34 1.655 3.13 4.067-.21 2.411-1.46 5.581-3.13 8.62v.005-.005c-1.66-3.039-2.92-6.209-3.13-8.62-.21-2.412.62-4.065 3.13-4.067zm-89.89 3.376c1.3 1.306.86 2.614-.53 3.781-1.38 1.167-3.71 2.194-6.19 2.939v.001-.004c.74-2.475 1.77-4.806 2.94-6.193 1.16-1.388 2.47-1.831 3.78-.527zm-20.38 0c-1.3 1.306-.86 2.614.53 3.781 1.38 1.167 3.71 2.194 6.19 2.939v.001-.004c-.74-2.475-1.77-4.806-2.94-6.193-1.16-1.388-2.47-1.831-3.78-.527zm-80.01 0c1.3 1.306.86 2.614-.53 3.781s-3.72 2.194-6.19 2.939l-.01.001v-.004c.75-2.475 1.78-4.806 2.94-6.193 1.17-1.388 2.48-1.831 3.79-.527zm-20.38 0c-1.31 1.306-.86 2.614.52 3.781 1.39 1.167 3.72 2.194 6.2 2.939v.001-.004c-.74-2.475-1.77-4.806-2.94-6.193-1.17-1.388-2.47-1.831-3.78-.527zm200.78 0c-1.31 1.306-.86 2.614.52 3.781 1.39 1.167 3.72 2.194 6.2 2.939v.001-.004c-.74-2.475-1.77-4.806-2.94-6.193-1.17-1.388-2.47-1.831-3.78-.527zm20.38 0c1.3 1.306.86 2.614-.53 3.781s-3.72 2.194-6.19 2.939l-.01.001.01-.004c.74-2.475 1.77-4.806 2.93-6.193 1.17-1.388 2.48-1.831 3.78-.527zm-359.29-13.774c-1.34 1.826-2.79 3.216-4.36 4.172-1.57.955-3.17 1.516-4.82 1.683-1.64.166-3.29-.017-4.96-.55-1.66-.534-3.26-1.365-4.81-2.496-1.28-.939-2.41-2.103-3.4-3.493s-1.66-2.938-2.03-4.644c-.37-1.707-.36-3.531.05-5.472.4-1.942 1.34-3.923 2.82-5.945.82-1.108 1.65-2.09 2.51-2.946.87-.855 1.86-1.737 2.99-2.644.62.386 1.44.848 2.44 1.387 1.01.538 2.04 1.006 3.09 1.403-.06.125-.14.286-.23.484-.1.197-.18.34-.24.427-.13.174-.26.3-.41.38-.14.08-.31.078-.52-.006-.89-.286-1.69-.456-2.4-.51-.72-.054-1.37.023-1.98.232-.6.209-1.18.548-1.72 1.018-.55.469-1.1 1.085-1.65 1.845-.86 1.174-1.42 2.359-1.68 3.555-.26 1.197-.24 2.374.07 3.531.3 1.158.86 2.28 1.69 3.368.82 1.087 1.9 2.116 3.22 3.087 1.42 1.034 2.87 1.807 4.37 2.318 1.49.511 2.93.762 4.31.752 1.37-.011 2.65-.289 3.82-.836 1.17-.546 2.14-1.352 2.92-2.417.64-.87 1.1-1.674 1.39-2.412.29-.739.43-1.455.42-2.147s-.16-1.387-.45-2.084-.69-1.431-1.19-2.201c-.13-.192-.18-.387-.15-.584s.09-.372.21-.524c.2-.282.46-.514.76-.695.57.817 1.25 1.753 2.05 2.805s1.59 2 2.38 2.842c-.59 1.208-1.24 2.398-1.97 3.571-.72 1.172-1.57 2.42-2.54 3.746zm518.67-17.878c.32-.079.57-.15.76-.215s.35-.155.5-.273c.26-.201.35-.463.28-.788-.07-.324-.28-.813-.62-1.466-.2-.291-.11-.587.27-.889.09-.067.3-.186.65-.357.31.476.7 1.049 1.18 1.717s.92 1.256 1.32 1.762c.39.485.8.978 1.23 1.478s.9.999 1.4 1.497c-.12.159-.23.281-.33.365l-.19.151c-.38.301-.68.334-.91.098-.7-.676-1.26-1.109-1.67-1.3-.41-.19-.88-.219-1.39-.086l-18.6 5.175c-1.41.395-2.66.545-3.75.448-1.09-.096-2.05-.325-2.87-.688-.82-.362-1.53-.802-2.11-1.319-.58-.518-1.06-1.008-1.43-1.472-.27-.338-.35-.64-.25-.907s.28-.509.56-.727c.16-.134.44-.309.82-.524s.78-.39 1.21-.523.84-.205 1.25-.217c.4-.011.7.11.9.363.24.295.43.643.57 1.043.15.4.37.78.65 1.138.59.739 1.23 1.195 1.92 1.37.48.132 1.07.142 1.78.031l7.61-17.764c.26-.584.32-1.133.19-1.647s-.37-1.078-.72-1.694c-.19-.269-.07-.564.33-.882.12-.1.24-.174.34-.22l.24-.144c.33.498.74 1.091 1.24 1.781.5.689 1.09 1.477 1.8 2.363.23.295.52.654.85 1.075l1.07 1.272c.37.427.72.821 1.04 1.184s.59.652.79.867c-.15.193-.27.323-.36.39l-.16.126c-.38.302-.68.334-.9.098-.5-.498-.89-.807-1.17-.925-.29-.119-.52-.103-.71.048-.17.134-.33.384-.49.749l-5.02 11.62zm-523.3-14.598c-.4-.359-.78-.484-1.15-.377-.36.107-1 .511-1.92 1.212-.24.186-.52.126-.87-.178-.06-.054-.14-.126-.24-.216-.1-.089-.17-.19-.22-.302.56-.547 1.16-1.145 1.79-1.792.63-.646 1.27-1.332 1.91-2.056.92-1.026 1.75-1.99 2.5-2.892s1.36-1.662 1.84-2.282c.12.07.23.14.33.211.1.07.19.141.27.213.36.322.44.642.23.96-.74 1.073-1.19 1.886-1.34 2.438-.15.553.01 1.035.47 1.447l5.74 5.107 2.37-2.656c1.93-2.172 3.87-3.467 5.81-3.884 1.94-.418 3.82.18 5.63 1.792.81.717 1.44 1.553 1.91 2.509.46.956.71 1.981.75 3.076.03 1.095-.16 2.213-.58 3.354-.42 1.14-1.12 2.254-2.09 3.34l-4.22 4.737c-.64.724-1.25 1.437-1.82 2.137-.57.701-1.09 1.361-1.58 1.98-.11-.031-.22-.092-.32-.181-.1-.09-.18-.161-.24-.215-.34-.305-.44-.586-.28-.843.59-.988.92-1.67.98-2.046.07-.376-.1-.743-.5-1.101zm20.4 9.068c1.09-1.227 1.64-2.518 1.64-3.872-.01-1.355-.77-2.713-2.3-4.075-1.35-1.201-2.64-1.813-3.86-1.838s-2.52.737-3.9 2.286l-1.13 1.267 8.42 7.499zm466.12-29.468-16.94 2.962-1.14 1.21c-.36.393-.55.752-.56 1.077-.01.324.26.839.82 1.545.18.203.12.463-.17.777-.06.059-.14.143-.27.252-.12.109-.22.193-.32.254-.59-.629-1.2-1.266-1.83-1.912s-1.22-1.227-1.78-1.742c-.55-.516-1.16-1.063-1.84-1.64-.68-.578-1.35-1.142-2.01-1.692.03-.115.1-.232.21-.35s.2-.207.25-.266c.3-.314.55-.39.77-.225.47.327.85.572 1.16.733.32.161.58.248.79.26s.39-.027.55-.118.33-.235.52-.432l13.83-14.781c.19-.197.32-.378.4-.542.08-.165.11-.352.08-.56-.02-.209-.13-.463-.31-.762s-.45-.671-.81-1.117c-.14-.243-.08-.502.18-.777.05-.059.13-.148.24-.266s.24-.208.37-.269c.59.628 1.23 1.288 1.91 1.981.68.692 1.29 1.295 1.85 1.811.55.515 1.2 1.099 1.96 1.75.75.652 1.46 1.253 2.13 1.802-.07.117-.16.239-.26.366s-.18.22-.24.279c-.25.276-.51.351-.76.226-.47-.328-.86-.572-1.17-.733s-.57-.253-.79-.274-.41.018-.56.118c-.15.101-.31.249-.5.446l-10.19 10.887 16.95-2.963.8-.856c.35-.374.51-.722.48-1.045s-.28-.849-.74-1.576c-.14-.244-.08-.503.17-.778.06-.059.14-.148.25-.266s.23-.207.37-.269c.59.628 1.2 1.261 1.82 1.898s1.22 1.222 1.79 1.756c.55.515 1.16 1.062 1.84 1.64s1.35 1.142 2.01 1.692c-.07.116-.16.238-.26.365-.1.128-.18.221-.23.28-.26.275-.51.35-.76.225-.47-.327-.86-.572-1.17-.733s-.58-.252-.8-.274c-.22-.021-.4.018-.55.119-.15.1-.32.248-.5.445l-13.84 14.781c-.19.197-.32.373-.41.529-.09.155-.12.342-.08.56.03.218.14.476.32.775s.45.671.81 1.117c.18.204.12.463-.17.778-.06.059-.15.142-.27.251s-.22.194-.32.254c-.59-.628-1.23-1.289-1.91-1.981s-1.3-1.296-1.84-1.811c-.58-.534-1.23-1.122-1.98-1.765-.75-.642-1.45-1.238-2.12-1.788.04-.115.11-.232.22-.35s.19-.206.25-.265c.29-.315.55-.39.76-.226.47.328.86.572 1.17.733.31.162.57.248.78.26s.4-.027.56-.118c.15-.091.32-.235.51-.432zm-447.94 9.241c.18.198.35.348.5.449.14.101.33.142.55.122s.49-.11.8-.269.7-.401 1.17-.725c.21-.163.47-.087.76.23.06.059.14.153.23.281.1.128.18.24.23.338-.67.545-1.38 1.141-2.14 1.788-.76.646-1.42 1.226-1.97 1.737-.56.512-1.18 1.112-1.86 1.8-.69.687-1.33 1.343-1.92 1.968-.12-.043-.23-.123-.34-.242l-.24-.267c-.3-.317-.35-.576-.17-.779.36-.443.63-.814.81-1.111.19-.298.29-.551.32-.76s0-.395-.08-.561c-.08-.165-.21-.346-.39-.544l-13.74-14.871c-.19-.198-.36-.343-.52-.435-.15-.092-.34-.133-.55-.122-.21.01-.47.095-.78.255-.31.159-.71.401-1.17.725-.26.124-.51.047-.77-.23l-.25-.267c-.1-.119-.19-.246-.24-.382.67-.545 1.38-1.132 2.12-1.76.74-.629 1.39-1.199 1.94-1.71.55-.512 1.18-1.121 1.89-1.827.7-.706 1.35-1.371 1.95-1.996.11.081.23.176.35.285.12.11.2.195.26.254.25.277.31.537.17.779-.36.443-.63.813-.82 1.111-.18.298-.29.556-.33.773-.04.218-.01.405.08.561s.22.333.41.531l6.3 6.827.9-.823c1.12-1.041 1.78-2.078 1.97-3.11.18-1.032.13-2.063-.14-3.093-.27-1.031-.68-2.058-1.22-3.08s-.97-2.026-1.3-3.011c-.32-.985-.43-1.961-.31-2.929.11-.968.67-1.909 1.66-2.823.25-.237.54-.436.85-.595s.54-.255.7-.287c.28-.046.6.12.95.496.27.296.54.674.8 1.132s.47.92.64 1.384c.18.464.28.893.31 1.285s-.04.67-.22.835c-.16.146-.32.263-.5.351-.17.089-.38.243-.62.462-.47.439-.72.934-.74 1.486s.06 1.146.24 1.783c.18.636.41 1.326.68 2.071.26.744.43 1.523.5 2.336.08.813-.01 1.682-.26 2.606.45-.268.89-.489 1.32-.662.97-.457 1.9-.678 2.8-.661.59.004 1.16.065 1.71.182s1.13.302 1.75.555c.62.254 1.31.581 2.06.983.76.402 1.63.879 2.62 1.433.45.247.84.42 1.17.518.33.099.62.14.88.121.26-.018.49-.08.71-.186.21-.106.46-.23.73-.372.27-.141.53-.074.79.203.05.06.13.149.22.267.09.117.16.244.21.38-.23.181-.53.422-.9.722-.36.3-.73.614-1.11.942-.37.329-.74.643-1.08.944-.35.301-.62.543-.82.725-.43.403-.82.687-1.16.855s-.67.25-.98.247c-.32-.003-.62-.087-.92-.251s-.64-.368-1.01-.612c-.83-.548-1.59-1.021-2.27-1.42-.68-.398-1.3-.737-1.85-1.017-.55-.279-1.08-.505-1.59-.677-.51-.173-1.01-.307-1.5-.403-.95-.19-1.78-.133-2.51.172s-1.45.786-2.16 1.444l-.62.576zm420.38-33.072-16.52 4.793-.99 1.325c-.33.432-.47.809-.45 1.132.03.323.36.805.99 1.446.2.183.17.447-.09.792-.05.065-.13.158-.23.279-.11.121-.21.217-.29.287-.66-.56-1.34-1.126-2.04-1.7-.7-.573-1.35-1.086-1.95-1.539-.6-.452-1.27-.928-2.01-1.429s-1.47-.988-2.19-1.462c.02-.118.08-.242.18-.371.1-.13.17-.227.22-.292.26-.344.5-.447.73-.307.51.275.92.475 1.24.601.33.127.6.185.81.174s.39-.07.54-.178.3-.27.46-.485l12.15-16.202c.16-.216.27-.41.33-.582s.07-.361.02-.566c-.05-.204-.18-.446-.39-.723-.22-.277-.52-.618-.93-1.022-.17-.226-.14-.49.09-.792.05-.064.12-.161.22-.291.1-.129.2-.232.33-.307.66.56 1.36 1.147 2.11 1.761.76.613 1.43 1.147 2.04 1.599.6.452 1.32.961 2.14 1.526s1.59 1.085 2.31 1.559c-.05.124-.13.254-.21.392-.09.137-.16.238-.21.303-.22.302-.47.404-.73.307-.5-.274-.92-.475-1.24-.601-.33-.126-.6-.188-.82-.185-.22.002-.4.062-.54.178-.14.115-.29.281-.45.497l-8.94 11.933 16.52-4.793.7-.938c.31-.409.43-.773.37-1.091-.07-.318-.37-.813-.91-1.486-.17-.227-.14-.491.09-.792.05-.065.12-.162.22-.291.09-.13.2-.232.33-.308.66.56 1.33 1.123 2.02 1.688.68.566 1.34 1.083 1.97 1.551.6.452 1.27.929 2.01 1.429.73.501 1.46.988 2.18 1.462-.06.124-.13.255-.21.392-.09.138-.16.239-.21.303-.22.302-.47.405-.73.308-.5-.275-.92-.475-1.24-.602-.33-.126-.6-.188-.82-.185-.23.003-.4.062-.54.178s-.29.282-.45.497l-12.14 16.202c-.17.215-.28.405-.36.57-.07.164-.08.353-.02.565.06.213.2.458.41.736.22.277.53.618.93 1.022.2.183.17.447-.09.792-.05.064-.13.157-.23.279-.11.121-.21.216-.29.287-.66-.56-1.37-1.147-2.12-1.761s-1.43-1.147-2.03-1.599c-.63-.469-1.35-.982-2.16-1.539s-1.58-1.072-2.3-1.546c.02-.119.08-.243.18-.372s.17-.226.22-.291c.25-.345.5-.448.73-.308.5.275.92.475 1.24.602.33.126.6.184.81.173s.39-.07.54-.178c.14-.108.3-.269.46-.485zm-396.36-6.786-.09 17.197.99 1.329c.32.432.64.681.96.747.31.066.87-.113 1.66-.536.23-.139.48-.036.74.31.05.065.11.166.2.304.08.137.15.258.19.36-.72.472-1.46.961-2.21 1.467-.75.507-1.42.985-2.03 1.436-.6.45-1.25.957-1.94 1.52-.69.564-1.36 1.124-2.02 1.682-.11-.054-.21-.146-.31-.275-.1-.13-.17-.227-.22-.292-.25-.346-.28-.61-.08-.792.4-.403.71-.743.93-1.02.21-.276.34-.517.39-.721.05-.205.05-.394-.02-.566-.06-.173-.17-.367-.33-.583l-12.1-16.238c-.16-.216-.31-.378-.46-.487-.15-.108-.33-.168-.54-.179-.21-.012-.47.045-.8.171-.33.125-.74.324-1.24.597-.27.096-.51-.007-.74-.309-.05-.065-.12-.162-.22-.292-.09-.13-.16-.265-.2-.405.73-.471 1.49-.981 2.29-1.527.81-.547 1.51-1.046 2.12-1.496.6-.451 1.29-.99 2.07-1.617.77-.628 1.49-1.221 2.15-1.779.1.092.21.199.31.32.11.122.19.215.24.28.22.303.25.567.08.792-.4.403-.71.743-.93 1.019-.21.277-.35.522-.41.734-.06.213-.05.402.02.566.07.165.19.355.35.571l8.91 11.96.09-17.198-.7-.94c-.31-.41-.62-.629-.94-.657-.33-.029-.89.12-1.69.446-.26.096-.51-.007-.73-.309-.05-.065-.12-.162-.22-.292-.09-.13-.16-.265-.2-.405.72-.472 1.46-.957 2.19-1.455.74-.499 1.42-.981 2.05-1.448.61-.45 1.25-.957 1.94-1.52.69-.564 1.37-1.124 2.02-1.682.11.092.21.198.32.32s.18.215.23.28c.23.302.26.566.09.792-.41.403-.72.742-.93 1.019s-.35.521-.41.734-.06.401.02.566c.07.164.18.355.35.571l12.09 16.238c.16.216.31.382.45.498.14.117.31.177.54.18.22.003.49-.058.82-.183.32-.126.74-.325 1.24-.598.23-.139.48-.036.73.31.05.065.12.166.21.304.08.137.15.257.19.36-.73.472-1.49.981-2.29 1.527-.8.547-1.51 1.046-2.11 1.496-.63.467-1.33 1.01-2.09 1.63-.76.619-1.48 1.208-2.14 1.766-.1-.054-.21-.146-.3-.276-.1-.129-.17-.227-.22-.292-.26-.345-.29-.609-.09-.792.41-.402.72-.742.93-1.019.22-.277.35-.517.4-.722.05-.204.04-.393-.02-.566-.06-.172-.17-.367-.33-.583zm427.34 19.697c-.53-.497-1-1.034-1.4-1.612-.4-.577-.7-1.163-.9-1.757-.2-.593-.27-1.168-.19-1.723s.33-1.059.75-1.512c.48-.511 1.06-.778 1.75-.801.68-.023 1.21.141 1.59.491.14.129.26.315.36.559.1.245.16.505.18.781.02.275.01.538-.04.787-.05.25-.16.463-.32.64-.12.118-.25.194-.41.228s-.33.054-.5.059c-.17.006-.33.021-.48.045-.16.024-.29.095-.4.213-.27.295-.28.691 0 1.187.27.496.61.937 1.03 1.323.41.387.87.7 1.39.941.51.24.91.213 1.18-.082.11-.119.18-.254.19-.407s.02-.315.01-.486c0-.172.01-.339.03-.502.02-.162.09-.303.2-.421.16-.177.37-.298.62-.363.24-.066.5-.098.78-.098.28.001.53.04.78.118.24.077.44.19.59.337.38.35.58.867.6 1.553.02.685-.21 1.284-.69 1.795-.42.452-.91.735-1.46.849-.54.113-1.12.09-1.73-.071-.6-.161-1.21-.423-1.81-.784s-1.17-.79-1.7-1.287zm-64.42-17.757c-.13.232-.23.434-.28.605-.06.172-.04.36.04.565s.24.433.49.685c.24.253.58.557 1.03.914.22.16.22.426 0 .797-.04.07-.11.171-.2.303-.1.132-.18.238-.26.317-.72-.484-1.48-.989-2.3-1.516-.81-.527-1.54-.982-2.19-1.365-.68-.397-1.45-.827-2.32-1.292-.87-.464-1.68-.892-2.45-1.283 0-.12.05-.25.13-.389s.14-.244.19-.313c.22-.372.45-.501.69-.387.53.217.97.371 1.3.461.34.089.61.117.82.083s.38-.112.52-.236c.13-.124.27-.301.41-.533l4.82-8.182-9.41-5.538-4.82 8.181c-.14.232-.23.434-.28.605-.06.172-.04.36.04.565s.24.433.49.686c.24.252.58.556 1.03.913.22.16.22.426 0 .797-.04.07-.11.171-.2.303-.1.132-.18.238-.26.317-.72-.484-1.49-.996-2.33-1.537s-1.59-1.002-2.24-1.385-1.4-.803-2.26-1.261c-.85-.457-1.67-.882-2.44-1.273.01-.12.06-.25.14-.389s.14-.244.18-.313c.22-.372.46-.501.7-.387.53.217.96.371 1.3.461.34.089.61.117.82.083s.38-.112.51-.236c.14-.123.28-.301.41-.533l10.28-17.442c.14-.233.23-.438.27-.616.05-.178.03-.366-.04-.564s-.23-.424-.47-.676-.59-.556-1.03-.913c-.19-.207-.19-.472 0-.797.04-.07.1-.174.18-.314.08-.139.18-.253.3-.342.71.485 1.48.99 2.29 1.517.82.527 1.55.982 2.2 1.365s1.42.81 2.3 1.281 1.7.903 2.47 1.294c-.04.13-.1.267-.17.414-.07.146-.13.254-.17.323-.19.325-.42.454-.7.387-.53-.218-.96-.371-1.3-.461s-.61-.121-.83-.094-.39.106-.52.236c-.12.131-.25.312-.39.544l-4.37 7.416 9.4 5.538 4.37-7.416c.14-.232.23-.437.27-.615.05-.178.03-.366-.04-.564-.07-.199-.23-.424-.47-.676s-.59-.557-1.03-.913c-.19-.207-.19-.472 0-.797.04-.07.1-.174.18-.314.09-.139.18-.253.3-.342.71.484 1.49.993 2.31 1.527.83.534 1.58 1 2.25 1.396.65.383 1.41.803 2.26 1.261.86.457 1.67.882 2.44 1.273-.04.13-.1.267-.17.414-.07.146-.13.253-.17.323-.19.325-.42.454-.69.387-.53-.218-.97-.371-1.31-.461-.33-.09-.61-.121-.83-.094s-.39.106-.51.236c-.13.131-.26.312-.4.544zm-332.19-21.614-1.98 17.084.84 1.429c.28.465.57.748.87.848.31.1.89-.017 1.72-.35.25-.113.48.017.7.388.04.07.09.178.16.324.07.147.12.273.16.38-.78.389-1.56.795-2.36 1.216-.8.422-1.53.823-2.18 1.204-.65.382-1.35.815-2.09 1.299-.75.485-1.48.968-2.2 1.45-.1-.065-.19-.168-.27-.307-.08-.14-.14-.244-.19-.314-.21-.372-.21-.638.01-.797.44-.356.79-.66 1.03-.911.24-.252.4-.477.47-.675s.09-.386.05-.564c-.05-.178-.13-.384-.27-.616l-10.24-17.465c-.14-.233-.27-.411-.41-.535-.13-.123-.31-.203-.51-.237-.21-.035-.48-.007-.82.082s-.78.241-1.3.458c-.28.066-.51-.063-.7-.389-.04-.069-.1-.174-.18-.314-.09-.139-.14-.28-.16-.424.77-.389 1.59-.812 2.44-1.267.86-.456 1.62-.874 2.27-1.256.65-.381 1.39-.841 2.23-1.38s1.62-1.05 2.34-1.532c.09.102.18.22.28.353.09.132.16.233.2.303.19.326.19.591 0 .797-.45.356-.8.66-1.04.911-.24.252-.41.48-.49.685s-.1.393-.04.564c.05.172.14.374.28.606l7.55 12.864 1.97-17.084-.59-1.011c-.26-.442-.55-.694-.87-.757-.31-.064-.89.023-1.72.259-.27.067-.5-.063-.69-.388-.04-.07-.11-.174-.19-.314-.08-.139-.13-.281-.15-.424.77-.39 1.55-.792 2.34-1.206.78-.415 1.51-.82 2.19-1.215.65-.381 1.35-.814 2.09-1.299.75-.484 1.48-.967 2.2-1.45.09.103.18.22.28.353.09.133.16.234.2.303.19.326.19.592 0 .797-.45.356-.79.66-1.04.912-.24.251-.4.479-.49.684-.08.205-.09.393-.04.565.05.171.15.373.28.605l10.25 17.466c.13.232.26.414.39.544.12.131.29.21.51.238.22.027.5-.003.83-.092.34-.089.78-.242 1.31-.458.24-.113.48.016.69.388.04.07.1.178.17.324s.12.273.15.379c-.77.39-1.58.812-2.44 1.268-.86.455-1.61.874-2.26 1.255-.68.395-1.43.859-2.26 1.391s-1.6 1.039-2.32 1.522c-.1-.066-.19-.169-.27-.308s-.14-.244-.18-.314c-.22-.372-.22-.637 0-.797.45-.356.79-.659 1.03-.911.25-.252.4-.476.48-.674.07-.198.08-.386.04-.565-.04-.178-.13-.383-.27-.616zm296.43-20.111c.22-.489.23-.893.02-1.212-.21-.318-.78-.812-1.72-1.48-.25-.173-.28-.467-.09-.883.04-.073.08-.171.14-.294.05-.122.13-.221.22-.297.69.375 1.44.77 2.24 1.183.8.414 1.65.823 2.53 1.227 1.25.574 2.41 1.087 3.5 1.539 1.08.453 1.98.817 2.72 1.095-.03.133-.07.258-.11.374s-.08.222-.12.32c-.21.441-.49.607-.85.499-1.25-.393-2.16-.58-2.73-.561s-.99.31-1.24.873l-3.21 6.976 3.23 1.485c2.65 1.214 4.45 2.688 5.42 4.422s.95 3.702-.07 5.906c-.44.979-1.06 1.831-1.84 2.556s-1.68 1.264-2.72 1.618c-1.04.353-2.16.496-3.38.428-1.21-.069-2.48-.407-3.8-1.014l-5.77-2.648c-.88-.405-1.74-.777-2.58-1.117-.83-.34-1.62-.648-2.35-.926-.01-.12.02-.241.07-.364.06-.122.11-.22.14-.294.19-.416.43-.586.73-.512 1.11.277 1.86.391 2.24.342s.68-.318.91-.807zm-2.71 22.148c1.49.686 2.89.83 4.19.432 1.29-.399 2.36-1.528 3.22-3.389.75-1.64.96-3.048.63-4.224-.34-1.176-1.45-2.198-3.33-3.063l-1.54-.709-4.71 10.245zm-237.02-11.224c.1.251.2.45.3.598s.26.252.47.313.49.074.84.038.8-.121 1.36-.253c.26-.074.47.089.62.49.04.075.07.19.12.346.05.155.08.288.09.398-.82.266-1.69.559-2.61.878-.91.318-1.72.616-2.43.894-.72.287-1.54.63-2.44 1.028-.89.399-1.74.782-2.52 1.149-.09-.08-.16-.196-.22-.346s-.11-.263-.14-.338c-.15-.401-.11-.664.13-.788.49-.283.88-.53 1.16-.741.28-.212.47-.41.57-.594.1-.185.14-.369.13-.551-.01-.183-.07-.4-.17-.65l-3.49-8.832-10.15 4.009 3.49 8.832c.1.25.2.449.3.597s.26.253.47.314.5.073.84.037c.35-.036.8-.12 1.36-.253.26-.074.47.09.63.49.03.076.07.191.11.346.05.155.08.288.09.398-.82.267-1.7.564-2.64.893s-1.77.632-2.47.909-1.5.612-2.38 1.006c-.89.394-1.72.775-2.51 1.142-.09-.081-.16-.196-.22-.347-.06-.15-.1-.263-.13-.338-.16-.401-.12-.663.12-.787.5-.283.88-.53 1.16-.742.28-.211.47-.409.57-.594s.15-.368.13-.551c-.01-.183-.07-.399-.17-.65l-7.44-18.828c-.1-.251-.21-.447-.32-.59-.11-.144-.27-.248-.47-.314s-.47-.081-.82-.045-.8.121-1.36.253c-.28.024-.49-.139-.63-.49-.03-.075-.07-.188-.13-.338-.06-.151-.09-.298-.09-.443.82-.267 1.69-.56 2.61-.878.92-.319 1.73-.617 2.43-.894s1.51-.618 2.42-1.022c.91-.403 1.76-.789 2.54-1.156.08.116.15.246.22.391.07.146.12.256.15.331.14.351.1.613-.12.788-.5.283-.88.53-1.16.741-.28.212-.48.412-.59.602-.12.189-.16.373-.13.551.03.177.09.392.19.642l3.16 8.005 10.15-4.009-3.16-8.005c-.1-.25-.21-.447-.32-.59-.12-.143-.27-.248-.47-.313-.2-.066-.48-.081-.82-.045-.35.036-.8.12-1.36.253-.28.024-.49-.14-.63-.49-.03-.076-.07-.188-.13-.339-.06-.15-.09-.298-.09-.443.82-.266 1.7-.562 2.63-.885.93-.324 1.75-.629 2.48-.916.7-.278 1.5-.613 2.38-1.007.89-.394 1.73-.774 2.51-1.141.07.115.15.246.22.391s.12.256.15.331c.14.351.1.613-.12.787-.5.283-.89.53-1.16.742-.28.211-.48.412-.59.601-.12.19-.16.374-.13.551.02.178.09.392.19.643zm217.94 2.087c-.18.509-.14.912.09 1.209.24.296.86.732 1.86 1.306.26.148.32.438.17.871-.03.076-.06.178-.1.305-.05.127-.12.233-.2.317-.72-.306-1.5-.627-2.34-.96-.84-.334-1.72-.659-2.64-.977-1.29-.45-2.5-.847-3.63-1.193-1.12-.345-2.06-.62-2.81-.825.02-.136.04-.264.07-.383.02-.119.06-.229.09-.331.16-.458.43-.651.8-.578 1.27.27 2.2.369 2.76.294.57-.074.96-.404 1.16-.989l6.87-19.816-6.11-2.117c-.6 1.731-1.25 3.495-1.95 5.293-.69 1.798-1.42 3.525-2.2 5.182-.77 1.656-1.59 3.184-2.44 4.584-.86 1.4-1.75 2.58-2.68 3.541-1.11 1.128-2.13 1.879-3.07 2.251s-1.73.448-2.37.228c-.33-.115-.58-.329-.74-.642-.16-.312-.27-.676-.31-1.089-.04-.414-.03-.846.02-1.297.06-.451.16-.88.3-1.287.19-.56.42-.924.68-1.091.26-.168.66-.257 1.2-.267 1.01-.023 1.94-.235 2.79-.639.85-.403 1.7-1.157 2.54-2.264.84-1.106 1.71-2.644 2.6-4.614.9-1.97 1.9-4.546 3-7.728.18-.509.15-.918-.08-1.228-.24-.309-.73-.694-1.49-1.155-.24-.113-.29-.374-.15-.781.02-.076.07-.189.13-.337.07-.148.14-.282.21-.4.79.333 1.61.664 2.43.993.83.329 1.6.617 2.31.864l8.48 2.937c.72.247 1.54.51 2.47.789.93.28 1.81.535 2.64.766-.02.136-.05.283-.09.44s-.07.274-.1.35c-.12.357-.32.529-.6.517-.56-.109-1.02-.174-1.37-.195s-.63.003-.84.073-.36.181-.46.334c-.09.152-.18.355-.27.61zm-284.14.724c-.63.368-1.27.662-1.94.881-.67.22-1.32.341-1.94.365-.63.024-1.2-.08-1.71-.312s-.92-.615-1.24-1.149c-.35-.605-.44-1.238-.27-1.902.18-.664.48-1.125.92-1.384.17-.095.38-.157.64-.187.27-.03.54-.014.8.046.27.061.52.15.75.268.22.118.4.281.52.49.08.14.12.291.1.455-.01.164-.04.329-.08.495-.05.166-.08.325-.1.477s.01.298.09.438c.21.348.59.462 1.14.34.55-.121 1.08-.325 1.56-.611.49-.286.93-.641 1.3-1.064.38-.424.46-.81.26-1.158-.08-.14-.19-.238-.34-.295-.14-.057-.29-.107-.46-.15s-.32-.099-.47-.168c-.15-.068-.27-.172-.35-.312-.12-.209-.18-.441-.17-.695 0-.254.05-.513.13-.778.07-.265.19-.502.33-.71.14-.209.31-.368.49-.477.44-.259 1-.302 1.66-.128.66.173 1.17.561 1.53 1.166.31.534.44 1.081.4 1.639-.05.559-.24 1.106-.56 1.64-.33.535-.75 1.04-1.27 1.516-.52.475-1.09.896-1.72 1.264zm90-16.183-8.19 2.241-.54 5.972c-.04.151-.06.308-.04.471s.04.284.06.362c.08.286.28.482.6.589s.92.112 1.79.014c.37-.047.62.15.74.592.03.103.05.209.07.317.01.107.03.229.04.366-.72.141-1.47.298-2.26.472-.79.175-1.56.365-2.32.571-.52.143-1.06.305-1.63.488-.56.182-1.18.408-1.86.678-.08-.089-.14-.199-.18-.329-.03-.13-.06-.234-.08-.312-.14-.494-.04-.8.29-.918.76-.376 1.3-.704 1.6-.982.3-.277.49-.666.58-1.164l3.25-25.021c.08-.499.33-.805.75-.919.13-.035.26-.064.39-.087.14-.022.29-.042.45-.059l15.74 20.579c.26.347.64.557 1.14.631.49.074 1.01.079 1.55.015.41-.029.68.178.8.619.03.104.05.216.07.337.02.12.03.249.04.386-.84.176-1.67.354-2.49.536s-1.58.368-2.28.56c-.36.1-.8.227-1.32.383-.52.155-1.05.314-1.59.476-.54.163-1.07.33-1.6.501-.53.172-.97.321-1.32.447-.08-.09-.14-.2-.18-.33-.03-.13-.06-.234-.08-.312-.07-.233-.07-.421-.01-.563s.14-.24.23-.294c.64-.315 1.1-.602 1.38-.86.28-.257.37-.555.28-.893-.04-.156-.13-.34-.28-.552zm159.23-1.422-8.27-1.946-3.33 4.986c-.11.112-.2.244-.26.395s-.1.266-.12.345c-.07.288.01.557.24.805.24.249.76.537 1.57.866.35.139.48.431.37.877-.02.105-.06.208-.09.31-.04.102-.09.215-.15.34-.69-.219-1.43-.441-2.21-.666-.77-.224-1.54-.426-2.3-.606-.53-.123-1.08-.24-1.67-.349-.58-.11-1.24-.209-1.96-.297-.03-.117-.03-.242 0-.373s.06-.236.08-.314c.12-.499.35-.721.69-.666.86.034 1.48.001 1.88-.099.39-.101.75-.349 1.06-.745l14.83-20.422c.31-.396.68-.545 1.1-.446.13.031.26.069.39.113s.27.097.42.16l3.97 25.597c.07.43.3.796.7 1.098.4.301.85.553 1.36.755.37.172.51.48.4.926-.02.105-.06.215-.1.33s-.09.235-.14.36c-.83-.251-1.65-.491-2.45-.722s-1.56-.43-2.27-.596c-.37-.087-.81-.185-1.34-.296-.53-.11-1.07-.224-1.62-.34-.56-.117-1.11-.226-1.65-.326s-1-.181-1.38-.241c-.02-.117-.02-.241.01-.373.03-.131.05-.236.07-.314.06-.236.15-.402.27-.499.11-.096.23-.145.34-.147.72.03 1.25-.002 1.62-.095s.6-.31.68-.651c.03-.158.04-.363.02-.618zm-134.49 4.88c-.74.12-1.59.276-2.55.47-.95.194-1.84.386-2.69.576-.07-.124-.12-.266-.15-.426-.02-.159-.04-.279-.05-.359-.06-.372.03-.62.29-.742.54-.17.97-.328 1.29-.474.32-.147.55-.3.68-.458.14-.159.23-.329.25-.51.03-.182.02-.406-.03-.671l-3.2-19.948c-.05-.266-.11-.481-.19-.646-.08-.164-.21-.3-.39-.407-.19-.107-.45-.181-.8-.22-.34-.04-.8-.055-1.38-.045-.28-.037-.44-.242-.5-.614-.02-.08-.04-.199-.06-.359-.03-.16-.03-.31.01-.452.86-.083 1.77-.182 2.73-.296.97-.114 1.82-.231 2.57-.351.74-.12 1.6-.279 2.58-.477s1.89-.392 2.73-.582c.05.128.1.271.13.429.04.157.07.276.08.356.06.372-.03.619-.29.742-.54.17-.98.328-1.29.474-.32.147-.56.3-.71.461s-.23.331-.24.51c-.02.18 0 .402.04.668l3.37 20.945 9.98-1.604-3.37-20.945c-.04-.266-.1-.481-.18-.645-.09-.165-.22-.3-.4-.408-.18-.107-.44-.181-.79-.22-.35-.04-.81-.055-1.38-.045-.28-.037-.45-.241-.51-.614-.01-.079-.03-.199-.05-.359-.03-.159-.03-.31 0-.451.86-.084 1.78-.184 2.76-.3s1.85-.237 2.62-.361c.75-.119 1.6-.276 2.55-.47s1.85-.386 2.69-.576c.05.129.09.272.13.429s.07.276.08.356c.06.372-.04.62-.29.742-.55.17-.98.328-1.3.475-.31.146-.55.3-.7.461-.15.16-.23.33-.25.51-.01.179.01.402.05.668l3.17 19.708c.09.532.33.895.73 1.09s1.13.289 2.19.282c.27-.016.44.175.51.574.01.106.02.214.03.322 0 .109 0 .232-.01.369 0 .492.03 1.046.09 1.665.06.618.13 1.267.23 1.947.1.681.21 1.358.35 2.032.13.674.28 1.299.42 1.876.1.257-.03.482-.38.675-.32.189-.74.323-1.25.405-.89-2.694-1.9-4.639-3.02-5.837s-2.51-1.664-4.16-1.399zm107.21-4.511c-.03.267-.04.49-.02.669s.11.346.27.501c.15.155.39.3.72.435.32.135.76.277 1.31.427.26.059.37.303.31.731 0 .08-.03.2-.06.358-.03.159-.07.29-.11.394-.85-.159-1.75-.318-2.71-.477s-1.81-.285-2.56-.377c-.78-.096-1.66-.184-2.64-.264-.98-.081-1.9-.147-2.76-.199-.04-.114-.05-.251-.03-.411.02-.161.03-.281.04-.361.06-.428.22-.639.49-.632.57-.011 1.03-.043 1.37-.095.35-.052.61-.136.79-.249.18-.114.3-.255.38-.422.07-.167.13-.384.16-.652l1.16-9.424-10.83-1.337-1.16 9.424c-.04.268-.04.491-.03.669.02.179.11.346.27.501s.4.3.72.435.76.277 1.31.427c.27.059.37.303.32.731-.01.08-.03.2-.07.358-.03.159-.07.29-.11.394-.85-.159-1.76-.32-2.75-.482-.98-.162-1.85-.29-2.6-.382s-1.61-.178-2.57-.257c-.97-.078-1.89-.144-2.75-.196-.04-.114-.05-.251-.03-.411s.03-.281.05-.361c.05-.428.21-.638.48-.632.57-.011 1.03-.043 1.38-.095.34-.052.6-.135.78-.249s.3-.255.38-.422c.07-.167.13-.384.16-.652l2.48-20.092c.04-.267.04-.491 0-.671-.03-.181-.12-.347-.26-.501-.14-.153-.38-.298-.7-.432-.32-.135-.76-.277-1.31-.427-.26-.113-.36-.357-.32-.731.01-.08.03-.201.05-.361.02-.161.06-.304.13-.431.85.159 1.75.318 2.71.477s1.81.284 2.56.377c.75.092 1.62.179 2.62.261.99.082 1.92.15 2.78.202.01.137.02.286.01.448s-.02.283-.03.364c-.04.374-.2.585-.48.632-.57.011-1.03.042-1.38.095-.34.052-.61.134-.8.247-.19.112-.32.252-.38.421s-.11.387-.14.654l-1.06 8.542 10.84 1.337 1.05-8.542c.03-.267.03-.491 0-.671-.03-.181-.12-.348-.26-.501-.15-.154-.38-.298-.7-.433-.32-.134-.76-.277-1.31-.426-.26-.113-.37-.357-.32-.731.01-.081.02-.201.04-.361.02-.161.07-.305.14-.432.85.16 1.76.319 2.73.48s1.84.289 2.62.384c.75.093 1.61.178 2.57.257.97.079 1.89.144 2.75.197.01.136.01.286.01.448-.01.162-.02.283-.03.363-.04.375-.21.586-.48.633-.58.011-1.03.042-1.38.095-.35.052-.61.134-.8.246-.19.113-.32.253-.38.422s-.11.387-.14.654zm-133.22-.693-5.72-7.862-.99 9.697zm62.78-2.323c.02.268.06.489.11.66.05.172.17.319.36.44.18.122.44.217.79.286.34.07.8.124 1.37.163.27.034.42.253.45.656.01.08.01.202.01.364s-.02.298-.03.407c-.87.01-1.79.03-2.78.062-.98.032-1.85.075-2.6.13-.78.057-1.65.142-2.62.253-.96.111-1.87.225-2.73.342-.06-.103-.1-.236-.11-.397s-.02-.282-.02-.363c-.04-.429.08-.668.35-.714.56-.122 1-.243 1.33-.361.33-.119.57-.251.72-.398.15-.146.25-.308.29-.487.04-.178.05-.402.03-.671l-1.48-20.19c-.02-.268-.06-.488-.13-.659-.07-.17-.19-.317-.36-.439-.17-.123-.43-.219-.77-.288-.34-.07-.8-.124-1.37-.163-.27-.061-.42-.28-.45-.656-.01-.08-.02-.201-.03-.362-.01-.162.01-.311.05-.45.86-.009 1.78-.029 2.75-.06.97-.03 1.85-.074 2.63-.132.75-.055 1.61-.138 2.59-.251.98-.112 1.9-.227 2.75-.343.04.132.07.278.1.438.02.161.04.281.04.362.03.376-.09.614-.35.714-.56.122-1 .243-1.33.361-.33.119-.58.252-.74.399-.17.147-.26.31-.29.487-.03.178-.03.401-.01.67zm11.03-10.948c.02-1.886.4-3.646 1.13-5.281.74-1.635 1.73-3.065 2.98-4.29 1.26-1.225 2.72-2.185 4.38-2.879 1.67-.695 3.45-1.032 5.33-1.01 1.94.022 3.74.38 5.41 1.072 1.66.693 3.1 1.652 4.31 2.879 1.21 1.226 2.16 2.678 2.84 4.356s1.01 3.501.99 5.467c-.02 1.886-.4 3.653-1.14 5.301-.73 1.649-1.72 3.078-2.98 4.29-1.25 1.211-2.71 2.164-4.39 2.859-1.68.694-3.47 1.031-5.35 1.009-1.94-.022-3.74-.379-5.41-1.072-1.66-.693-3.09-1.652-4.29-2.878s-2.14-2.672-2.82-4.336c-.68-1.665-1.01-3.494-.99-5.487zm14.14 11.679c1.13.013 2.16-.224 3.08-.712s1.72-1.159 2.39-2.013c.67-.855 1.19-1.859 1.57-3.013s.57-2.391.59-3.711c.02-1.913-.14-3.693-.49-5.34-.34-1.647-.88-3.075-1.61-4.282-.72-1.207-1.64-2.16-2.75-2.86s-2.41-1.058-3.89-1.075c-.94-.011-1.86.187-2.76.594-.89.408-1.68 1.005-2.36 1.792-.69.787-1.24 1.743-1.65 2.87-.42 1.127-.64 2.404-.65 3.832-.03 1.993.15 3.84.52 5.542.37 1.701.92 3.169 1.65 4.403.72 1.235 1.62 2.201 2.69 2.901 1.07.699 2.29 1.056 3.67 1.072zm72.26-.226-1.25-9.637-5.51 8.043z" transform="translate(-2855.1 -9.545)"/></svg>