<svg clip-rule="evenodd" fill-rule="evenodd" stroke-linejoin="round" stroke-miterlimit="2" viewBox="0 0 933 721" xmlns="http://www.w3.org/2000/svg"><path d="m2594.15 1305.6c472.75 0 856.56-295.3 856.56-659.037 0-363.735-383.81-659.041-856.56-659.041s-856.56 295.306-856.56 659.041c0 363.737 383.81 659.037 856.56 659.037zm0-19.64c-460.7 0-836.91-284.93-836.91-639.397 0-354.464 376.21-639.394 836.91-639.394s836.91 284.93 836.91 639.394c0 354.467-376.21 639.397-836.91 639.397zm-31.85-44.79-.21-72.26 14.45-.04.16 52.88 32.6-52.98 13.34-.04.21 72.26-14.45.05-.16-52.93-32.61 53.02zm-86.4-5.74 5.68-72.04 14.41 1.14-4.16 52.71 36.82-50.14 13.29 1.05-5.68 72.04-14.41-1.13 4.16-52.77-36.83 50.19zm279.85-28.3-34.1-46.62 15.93-2.7 23.22 31.77.09-.02 11.5-37.65 13.29-2.25-17.13 56.14c-2.78 9.15-5.81 15.61-9.1 19.37-2.76 3.18-9.17 5.61-19.21 7.32l-2.07.35-1.72-10.11 1.78-.3c5.36-.91 9.06-2.16 11.08-3.74 2.03-1.58 3.89-4.68 5.58-9.29zm-364.89 15.49 11.67-71.31 14.84 2.43-4.73 28.96 29.49 4.82 4.74-28.96 14.84 2.43-11.67 71.32-14.84-2.43 5.32-32.53-29.49-4.82-5.33 32.52zm424.28-5.46-17.69-70.06 14.58-3.68 7.19 28.45 28.97-7.32-7.18-28.45 14.58-3.68 17.69 70.07-14.58 3.68-8.07-31.96-28.98 7.32 8.07 31.95zm-494.11-10.88 17.11-70.21 14.61 3.56-7.14 29.32 4.69 1.14c6.58 1.61 11.2 2.97 13.86 4.08 2.66 1.12 4.99 2.73 6.99 4.82 4.59 4.67 6.01 10.6 4.27 17.78-1.92 7.87-6.43 12.97-13.53 15.3-4.85 1.6-12.65 1.09-23.4-1.53zm16.82-5.5 4.32 1.05c5.19 1.27 9.32 1.23 12.42-.11 3.09-1.34 5.11-3.99 6.07-7.94.89-3.64.24-6.69-1.94-9.15s-5.9-4.32-11.15-5.6l-4.17-1.02zm-101.82-21.77 3.42-10.08c4.8 1.25 8.62.73 11.46-1.55 2.83-2.29 5.7-7.15 8.6-14.59l4.67-11.93c.94-2.39 2.43-6.58 4.46-12.56l4.42-13.04 45.92 15.57-23.2 68.44-14.29-4.85 20.02-59.05-18.22-6.18-1.84 5.41c-7.02 20.72-12.51 33.53-16.48 38.45-3.43 4.23-7.28 6.78-11.54 7.66-4.27.87-10.07.31-17.4-1.7zm662.02 15.6-22.26-68.75 14.31-4.64 22.25 68.76zm39.09-12.93-26.57-67.2 22.84-9.03c6.75-2.67 12.39-3.43 16.92-2.28s7.76 4.16 9.69 9.03c3.19 8.08.08 15.93-9.34 23.54 13.78-1.91 22.49 1.77 26.16 11.03 2.11 5.36 1.9 10.19-.65 14.51-2.54 4.31-7.25 7.83-14.12 10.55zm-775.92-34.82 54.82-54.85 13.77 6.05-3.33 77.47-14.12-6.2.87-20.69-27.35-12.02-14.65 14.64zm785.31 20.08 3-1.18c5.87-2.33 9.67-4.56 11.4-6.69 1.73-2.14 1.94-4.87.62-8.2-1.35-3.42-3.97-5.68-7.85-6.77s-8.09-.74-12.63 1.06l-2.72 1.07zm-371.32-19.8 10.25-.03.01 1.17c0 2.74.5 4.78 1.5 6.13 1 1.34 2.51 2.01 4.52 2.01 2.02-.01 3.54-.69 4.54-2.06s1.5-3.44 1.5-6.21l-.06-1.07 10.26-.03c.01 5.24-1.34 9.16-4.05 11.77-2.71 2.62-6.76 3.93-12.17 3.95-5.43.01-9.5-1.28-12.21-3.87-2.71-2.6-4.08-6.52-4.09-11.76zm427.67 7.61-31.88-64.85 40.53-19.93 4.37 8.9-27.03 13.29 8.89 18.1 22.18-10.91 4.26 8.68-22.17 10.9 9.83 19.98 29.09-14.3 4.52 9.2zm-909.93-45.77 35.62-62.88 13.08 7.41-14.46 25.53 26 14.73 14.46-25.53 13.09 7.41-35.61 62.88-13.09-7.41 16.24-28.68-26-14.73-16.24 28.68zm100.19 20.33 20.56 9.04 1.31-30.9zm741.65 7.93 3.32-1.31c3.93-1.55 6.67-3.76 8.23-6.61 1.55-2.85 1.66-5.94.34-9.27-1.22-3.09-2.98-4.82-5.27-5.19-2.3-.37-6.04.47-11.22 2.52l-2.81 1.11zm128.83-13.24-37.31-61.89 21.58-13.01c7.52-4.54 13.66-6.51 18.4-5.93s8.89 3.83 12.45 9.73c4.04 6.7 5.02 13.2 2.96 19.52s-6.97 11.81-14.72 16.48l-5.35 3.23 14.62 24.25zm-536.15-16.14c-13.01-.92-25.91-2.12-38.69-3.59v-21.52l-28.1-3.17v21.06c-55.54-8.1-108.52-21.22-157.94-38.69l-6.38-29.22-28.43-10.91 5.53 29.14c-88.26-35.18-163.86-84.491-220.66-143.588 44.74 19.983 89.74 37.758 134.59 53.504l-24.56-39.473c-54.41-19.194-105.91-41.698-152.2-64.433-28.49-39.555-49.2-82.404-60.68-127.517 90.91 27.65 180.66 44.65 269.64 54.726l.08.756c.31 2.704.62 5.407.94 8.109 0 0 .28 2.318.28 2.318 9.02 1.596 18.12 2.844 27.25 3.685.4.037-.09-.791-.14-1.187-.09-.791-.18-1.582-.28-2.373-.32-2.767-.63-5.536-.94-8.305l-.02-.135c41.73 4.088 83.28 6.732 124.71 8.315l-26.25-28.115c-34.53-1.371-68.5-4.131-101.24-7.807-7.07-77.581-7.62-154.474-1.24-230.619 45.41-5.663 92.58-9.991 139.08-11.837-6.01-8.77-9.05-18.563-10.35-28.961-41.73 1.595-83.58 4.265-125.59 8.402 6.35-57.667 16.72-114.9 31.28-171.683 37.3-9.96 76.44-18.08 116.27-22.982 3.94-11.229 10.87-21.428 19.38-31.085-44.44 5.627-86.75 13.907-127.66 24.483 6.14-21.7 12.9-43.33 20.32-64.882 48.63-16.968 100.67-29.764 155.21-37.73v46.157l28.1-19.14v-30.643c33.9-3.891 68.7-5.898 104.15-5.898 36.2 0 71.73 2.094 106.35 6.157v28.384l28.1 19.14v-43.816c54.95 8.164 107.37 21.234 156.27 38.539 7.01 20.509 13.42 41.089 19.26 61.732-40.91-10.576-83.23-18.856-127.66-24.483 8.51 9.657 15.44 19.856 19.38 31.085 39.83 4.902 78.97 13.022 116.26 22.982 14.57 56.783 24.94 114.016 31.29 171.683-42.01-4.137-83.86-6.807-125.59-8.402-1.3 10.398-4.34 20.191-10.35 28.961 46.5 1.846 93.67 6.174 139.07 11.837 6.39 76.145 5.84 153.038-1.23 230.619-32.74 3.676-66.71 6.436-101.24 7.807l-26.25 28.115c41.43-1.583 82.98-4.227 124.7-8.315l-.01.135c-.31 2.769-.62 5.538-.95 8.305-.09.791-.18 1.582-.28 2.373-.04.396-.53 1.224-.14 1.187 9.13-.841 18.23-2.089 27.26-3.685 0 0 .28-2.318.28-2.318.32-2.702.63-5.405.94-8.109l.08-.756c88.38-10.008 177.51-26.847 267.8-54.165-11.29 45.113-31.79 87.98-60.06 127.558-45.97 22.524-97.05 44.804-150.98 63.831l-24.56 39.473c44.7-15.694 89.55-33.404 134.14-53.299-56.61 59.466-132.14 109.133-220.44 144.603l5.76-30.36-28.43 10.91-6.67 30.55c-49.31 17.55-102.18 30.8-157.65 39.02v-22.72l-28.1 3.17v23.26c-13.19 1.55-26.52 2.81-39.96 3.78v-44.5c279.86-23.16 324.11-135.227 442.35-267.632-246.06 30.979-417.22 55.166-470.82 267.632v46.11c-8.91.36-17.86.6-26.86.7v-223.071c166.29-71.197 293.11-171.412 307.59-354.189-161.28 48.429-265.33 152.797-320.56 304.909-55.23-152.112-159.28-256.48-320.56-304.909 14.49 182.777 141.3 282.992 307.59 354.189v223.021c-7.4-.12-14.77-.32-22.11-.62v-46.14c-53.6-212.466-224.77-236.653-470.82-267.632 118.24 132.405 162.49 244.472 442.35 267.632zm-484.06-30.72c-8.86-6.47-13.91-14.43-15.15-23.88s1.53-18.82 8.3-28.1c6.86-9.38 14.97-14.89 24.34-16.51 9.36-1.62 18.58.88 27.65 7.5 9.02 6.59 14.19 14.59 15.5 24.02 1.32 9.43-1.42 18.79-8.21 28.1-6.95 9.52-15.11 15.07-24.47 16.66-9.36 1.58-18.69-1.01-27.96-7.79zm1013.1 6.5 2.51-1.51c4.4-2.66 7.26-5.78 8.58-9.36 1.31-3.59.91-7.14-1.2-10.65-3.72-6.16-9.49-6.88-17.33-2.16l-5.01 3.02zm111.01-33c-3.76 6.68-9.54 12.91-17.34 18.68-9.52 7.05-18.92 9.86-28.2 8.44-9.28-1.43-17.48-6.94-24.59-16.55-7.25-9.78-10.15-19.29-8.71-28.52 1.45-9.23 7.13-17.52 17.04-24.86 6.33-4.69 13.17-8.608 20.53-11.749l7 9.459c-8.93 2.76-15.78 5.92-20.57 9.47-6.12 4.53-9.4 9.97-9.85 16.32-.44 6.34 1.98 13.08 7.27 20.22 5.19 7.01 11.03 11.16 17.51 12.44 6.47 1.27 12.89-.44 19.25-5.15 5.7-4.22 10.38-9.93 14.06-17.1zm-1118.08 18.57c5.2 3.8 10.82 4.77 16.84 2.9s11.58-6.3 16.69-13.29c4.95-6.79 7.4-13.34 7.35-19.67-.06-6.33-2.59-11.33-7.61-14.99-5.08-3.71-10.63-4.62-16.66-2.74-6.03 1.89-11.55 6.26-16.56 13.12-4.98 6.81-7.46 13.39-7.46 19.74 0 6.34 2.47 11.32 7.41 14.93zm-61.44-39.32 47.78-54.212 11.28 9.944-47.78 54.218zm1197.55 9.4-49.68-52.486 10.5-9.936 36.35 38.402-12.56-60.925 9.68-9.164 49.68 52.481-10.49 9.938-36.39-38.441 12.59 60.961zm-1260.27-72.545 52.47-49.688 10.34 10.92-45.03 42.638 20.55 21.698 45.02-42.638 10.35 10.92-45.03 42.635 6.61 6.99-17.94 16.98-9.94-10.49 10.5-9.94zm1333.12-2.236-48.33-39.398-16.35 20.059-7.69-6.263 42.24-51.812 7.68 6.263-16.35 20.059 48.33 39.397zm-1386.51-69.693 75.09-19.378 8.78 12.207-42.23 65.037-9.01-12.524 11.26-17.369-17.45-24.256-20.05 5.161zm1422.5 22.827-61.31-38.264 23.92-38.315 8.41 5.248-15.96 25.557 17.11 10.678 13.08-20.959 8.21 5.119-13.09 20.959 18.89 11.79 17.17-27.504 8.7 5.429zm-1386.09-21.716 13.12 18.232 16.83-25.942zm-74.27-69.616 63.61-34.294 7.14 13.238-25.83 13.926 14.18 26.303 25.83-13.926 7.14 13.238-63.61 34.294-7.14-13.238 29.01-15.641-14.18-26.303-29.01 15.641zm1503.03 16.781-56.47-26.431-10.97 23.439-8.98-4.202 28.33-60.543 8.98 4.202-10.97 23.439 56.48 26.43zm-1391.82-257.883c36.58-9.345 144.43-35.428 269.96-52.766-5.84 73.843-5.34 148.402 1.54 223.698-131.59-17.08-238.73-47.392-273.15-57.822-2.71-16.998-4.08-34.249-4.08-51.723 0-20.801 1.94-41.284 5.73-61.387zm1297.25 111.704c-36.4 10.949-142.01 40.462-271.17 57.228 6.88-75.296 7.38-149.855 1.54-223.698 122.53 16.924 228.23 42.182 267.22 52.069 4.14 20.936 6.26 42.336 6.26 64.084 0 17.014-1.29 33.815-3.85 50.317zm-1415.22-.402-32.06 2.712 30.08 11.74 2.42 32.096 12.29-30.041 32.02-2.416-30.23-12.373-2.7-31.982zm1522.53-16.159 32.06 2.712-30.08 11.74-2.42 32.096-12.29-30.041-32.02-2.415 30.23-12.374 2.7-31.982zm-755.65-471.687c117.41 0 212.74 95.326 212.74 212.74s-95.33 212.739-212.74 212.739-212.74-95.325-212.74-212.739 95.33-212.74 212.74-212.74zm-766.88 377.859-32.06 2.712 30.08 11.741 2.42 32.095 12.29-30.041 32.02-2.415-30.23-12.373-2.7-31.982zm1522.53-16.159 32.06 2.713-30.08 11.74-2.42 32.095-12.29-30.04-32.02-2.416 30.23-12.373 2.7-31.982zm-944.08-121.564 18.43-11.692 39.63 35.14h29.38v28.98l6.28 12.179-6.28 11.71h-11.47l-7.69 46.343c-29.47-32.839-57.05-67.954-68.28-122.66zm191.16-73.765-18.2-7.912-4.27-16.002h-38.86l-36.11 43.971v33.398l26.14 20.415h9.97l15.35-11.431 23.51 6.884-7.73 25.066 20.19 15.311-12.46 22.197 22.47 58.931h16.2l45.85-67.859v-16.786l5.22-21.788 25.33-28.475-30.55-2.465-19.93-53.455-25.92-13.729zm-582.1 55.572c41.95-22.866 128.14-66.052 231.9-97.214-13.1 54.911-22.58 110.228-28.44 165.966-87.6 9.989-175.93 26.702-265.39 53.688 12.53-43.331 33.6-84.466 61.93-122.44zm1217.32 119.491c-88.41-26.426-175.7-42.866-262.28-52.739-5.86-55.738-15.34-111.055-28.44-165.966 98.87 29.696 181.8 70.312 225.7 93.864 29.67 38.627 51.82 80.569 65.02 124.841zm-526.24-77.85-22.18 28.98h-10.82l4.45 36.644h12.17l11.45-24.267zm-840.18 7.735-32.06 2.712 30.07 11.74 2.42 32.096 12.3-30.041 32.02-2.415-30.23-12.373-2.71-31.983zm1445.71-16.159 32.07 2.713-30.08 11.74-2.42 32.095-12.3-30.041-32.02-2.415 30.23-12.373 2.71-31.982zm-1386.95-83.044-32.06 2.712 30.08 11.74 2.42 32.096 12.29-30.041 32.02-2.415-30.23-12.374-2.7-31.982zm1328.19-16.159 32.06 2.712-30.08 11.74-2.42 32.096-12.29-30.041-32.02-2.415 30.23-12.373 2.7-31.983zm-787.08-81.519c-37.33 34.976-55.28 74.993-59.83 118.497l11.96 7.621h23.61l-17.14-22.109 21.77-15.417 19.63-46.898 16.14-8.287v-19.51zm65.76 54.708-17.7-18.264 17.7-36.444 48.64-24.567 19.55-27.115c94.45 9.69 153.4 62.503 181 153.383l-20.18 16.796-13.92-34.476-32.12-5.817v17.515l-34.3 22.778-18.66-40.293v-17.855l-35.03-16.521-63.67-7.384zm-259.63-94.874c-6.37 20.182-12.21 40.432-17.55 60.747-67.12 19.547-130.92 45.239-194.82 75.466 55.64-55.757 128.2-102.427 212.37-136.213zm645.71 1.276c79.84 32.497 149.1 76.604 203.19 129.098-61.17-28.564-122.39-52.912-186.65-71.627-5.06-19.218-10.55-38.378-16.54-57.471zm-917.63 51.562-32.07 2.712 30.08 11.74 2.42 32.096 12.3-30.041 32.01-2.415-30.23-12.373-2.7-31.983zm1177.56-16.159 32.06 2.713-30.08 11.74-2.42 32.095-12.29-30.041-32.02-2.415 30.23-12.373 2.7-31.982zm-1086.64-77.476 32.49 58.264-23.17 12.924-42.85-76.835 81.16-45.267 42.85 76.835-23.12 12.894-32.49-58.264zm1016.85-13.739-43.5 76.469-22.79-12.964 24.89-43.752-64.56 21.183-20.58-11.709 43.51-76.468 23.06 13.121-24.74 43.475 64.3-20.969zm-134.88-70.275-28.95 83.078-24.75-8.627 16.56-47.533-59.66 32.514-22.36-7.791 28.95-83.079 25.06 8.732-16.46 47.233 59.44-32.256zm-682.41 18.565c2.15 5.659 3.22 11.408 3.21 17.248 0 5.839-1.22 11.436-3.65 16.791s-6.13 10.275-11.11 14.762c-4.97 4.486-11.36 8.206-19.16 11.159-5.34 2.023-10.41 3.313-15.23 3.869-4.81.556-9.31.52-13.51-.108-4.2-.627-8.07-1.797-11.61-3.509-3.55-1.712-6.75-3.812-9.62-6.302-2.87-2.489-5.36-5.311-7.48-8.467-2.13-3.155-3.86-6.514-5.21-10.075-2.02-5.343-3.07-10.886-3.14-16.628-.07-5.743 1.05-11.316 3.37-16.72s5.97-10.416 10.93-15.036c4.98-4.62 11.48-8.452 19.51-11.495 7.84-2.968 15.12-4.403 21.85-4.307 6.74.097 12.78 1.35 18.13 3.759 5.34 2.409 9.94 5.793 13.78 10.151 3.85 4.359 6.83 9.328 8.94 14.908zm-68.08 25.789c1.17 3.087 2.73 5.743 4.68 7.968s4.19 3.932 6.72 5.122c2.54 1.191 5.32 1.798 8.36 1.823 3.05.024 6.25-.601 9.61-1.875 3.44-1.304 6.3-2.986 8.58-5.047 2.27-2.06 3.95-4.371 5.04-6.933s1.62-5.309 1.6-8.241c-.03-2.932-.63-5.941-1.79-9.028-1.16-3.047-2.7-5.677-4.62-7.89-1.93-2.212-4.14-3.917-6.66-5.115-2.51-1.198-5.3-1.815-8.37-1.852s-6.32.597-9.77 1.901c-3.36 1.274-6.17 2.927-8.43 4.961-2.27 2.033-3.95 4.324-5.07 6.874-1.12 2.549-1.67 5.304-1.66 8.263.02 2.959.61 5.982 1.78 9.069zm174.23-7.18-31.18-44.948-8.57 54.196-27.02 6.286 18.43-95.855 17.13-3.984 58.04 78.063zm704.35-2.97c-2.34 3.002-5.27 5.427-8.78 7.276s-7.29 2.826-11.34 2.931c-4.05.104-7.94-.9-11.65-3.014-3.42-1.946-6.21-4.649-8.35-8.109-2.15-3.46-3.36-7.207-3.65-11.24-.28-4.034.4-7.892 2.06-11.574l9.82 5.587c-.12 1.244-.13 2.618-.01 4.122s.67 3.206 1.66 5.107c.99 1.9 2.66 3.521 5.01 4.86 3.46 1.967 6.35 2.615 8.68 1.944s4.57-1.83 6.73-3.477zm-270.15-57.281c-1.74-.353-3.23-.559-4.47-.616-1.24-.058-2.41.105-3.5.488-1.1.383-2.23 1.05-3.39 2.001s-2.55 2.279-4.14 3.984c-1.71 1.813-3.25 3.325-4.62 4.537-1.36 1.212-2.72 2.19-4.06 2.933-1.33.743-2.72 1.273-4.14 1.588-1.42.316-3.03.487-4.8.516 1.71.519 3.31 1.264 4.79 2.235 1.49.971 2.91 2.318 4.27 4.039 1.35 1.722 2.69 3.905 4.01 6.547 1.32 2.643 2.65 5.892 3.98 9.747l9.98 29.357-29.18-5.921-8.71-26.963c-.63-1.986-1.21-3.657-1.73-5.016-.53-1.358-1.15-2.499-1.87-3.422-.72-.924-1.62-1.656-2.69-2.199-1.08-.542-2.47-.986-4.17-1.331l-6.83 33.655-26-5.277 17.49-86.221 26.01 5.277-6.43 31.664c1.29.261 2.44.312 3.47.153 1.02-.159 2.12-.627 3.29-1.404 1.18-.777 2.53-1.916 4.07-3.418 1.53-1.502 3.45-3.466 5.76-5.891 2.35-2.458 4.46-4.535 6.31-6.231 1.86-1.697 3.64-3.084 5.35-4.162s3.4-1.858 5.07-2.339c1.68-.48 3.52-.732 5.53-.756 2.02-.023 4.27.153 6.76.53 2.49.376 5.4.901 8.72 1.574zm-350.76 46.745-26.3 3.48-11.54-87.218 26.3-3.481zm162.18-94.116 26.45 2.147-2.62 32.204 15.44 1.253c5.86.476 10.78 1.628 14.75 3.458 3.97 1.829 7.15 4.115 9.54 6.856 2.38 2.741 4.03 5.826 4.94 9.254.92 3.428 1.22 6.998.92 10.71-.31 3.796-1.3 7.325-2.96 10.586-1.67 3.261-3.96 6.047-6.89 8.357s-6.43 4.042-10.52 5.196c-4.08 1.155-8.72 1.521-13.91 1.1l-42.26-3.431zm-43.62 80.025c-5.64 3.18-11.32 5.429-17.05 6.749s-11.52 2.091-17.35 2.314c-7.74.295-14.73-.529-20.96-2.471-6.24-1.943-11.58-4.82-16.02-8.632-4.45-3.811-7.91-8.443-10.38-13.896s-3.84-11.542-4.1-18.266c-.19-5.159.25-9.887 1.34-14.184 1.08-4.298 2.68-8.159 4.8-11.586 2.11-3.426 4.67-6.425 7.69-8.996 3.01-2.571 6.35-4.742 10.01-6.512s7.56-3.126 11.72-4.068 8.44-1.497 12.83-1.665c3.72-.142 7.26-.044 10.62.293 3.36.338 6.49.78 9.39 1.325 2.9.546 5.54 1.165 7.92 1.858 2.37.693 4.46 1.322 6.26 1.889l.89 23.342c-1.25-.714-2.82-1.575-4.7-2.583s-4.01-1.965-6.4-2.869c-2.38-.904-5.02-1.65-7.9-2.239s-5.97-.82-9.27-.695c-3.76.144-7.37.854-10.84 2.129-3.47 1.276-6.5 3.044-9.11 5.303-2.6 2.259-4.65 4.952-6.16 8.08-1.52 3.128-2.2 6.637-2.05 10.528.13 3.34.92 6.465 2.39 9.373 1.47 2.909 3.47 5.416 6.01 7.521 2.53 2.105 5.52 3.728 8.95 4.867 3.43 1.14 7.17 1.632 11.23 1.477 3.56-.135 6.84-.6 9.86-1.392 3.02-.793 5.77-1.724 8.25-2.793 2.48-1.068 4.66-2.189 6.54-3.362s3.46-2.207 4.74-3.103zm66.09-28.908-1.79 22.017 6.2.503c2.79.226 5.16.143 7.12-.249 1.97-.393 3.58-1.026 4.84-1.901 1.26-.874 2.21-1.975 2.85-3.303s1.02-2.814 1.16-4.459c.15-1.856.05-3.477-.28-4.863-.33-1.385-1.02-2.577-2.07-3.575-1.04-.997-2.51-1.796-4.42-2.397-1.9-.6-4.37-1.023-7.41-1.27z" fill="#fff" transform="matrix(.544104 0 0 .546248 -945.43 6.816)"/></svg>