<svg clip-rule="evenodd" fill-rule="evenodd" stroke-linejoin="round" stroke-miterlimit="2" viewBox="0 0 777 788" xmlns="http://www.w3.org/2000/svg"><path d="m1377.6 63.692v-47.309h149.7v47.309c21.3 3.692 29.77 6.686 50.06 14.139l25.17-20.812 2.92 1.241c28.86 12.287 56.12 28.028 81.19 46.877l2.54 1.905-5.44 32.206c16.6 13.847 31.92 29.164 45.76 45.764l32.21-5.438 1.9 2.534c18.85 25.07 34.59 52.334 46.88 81.193l1.24 2.917-20.81 25.172c7.45 20.292 13.06 41.216 16.75 62.515l30.61 11.394.38 3.146c3.79 31.137 3.79 62.618 0 93.754l-.38 3.147-30.61 11.393c-3.69 21.3-9.3 42.224-16.75 62.515l20.81 25.172-1.24 2.917c-12.29 28.859-28.03 56.123-46.88 81.193l-1.9 2.534-32.21-5.438c-13.84 16.6-29.16 31.918-45.76 45.764l5.44 32.206-2.54 1.905c-25.07 18.849-52.33 34.59-81.19 46.877l-2.92 1.242-25.17-20.813c-20.29 7.453-41.22 13.06-62.51 16.751l-11.4 30.61-3.14.383c-31.14 3.789-62.62 3.789-93.76 0l-3.15-.383-11.39-30.61c-21.3-3.691-42.22-9.298-62.51-16.751l-25.17 20.813-2.92-1.242c-28.86-12.287-56.12-28.028-81.2-46.877l-2.53-1.905 5.44-32.206c-16.6-13.847-31.92-29.164-45.76-45.764l-32.21 5.438-1.91-2.534c-18.85-25.07-34.59-52.334-46.87-81.193l-1.24-2.917 20.81-25.172c-7.45-20.291-13.06-41.215-16.75-62.515l-30.61-11.393-.39-3.147c-3.79-31.136-3.79-62.617 0-93.754l.39-3.146 30.61-11.394c3.69-21.3 9.3-42.224 16.75-62.515l-20.81-25.172 1.24-2.917c12.28-28.859 28.02-56.123 46.87-81.193l1.91-2.534 32.21 5.438c13.84-16.6 29.16-31.917 45.76-45.764l-5.44-32.206 2.53-1.905c25.08-18.849 52.34-34.59 81.2-46.877l2.92-1.241 25.17 20.812c20.29-7.453 27.52-8.735 48.1-14.139zm139.9 9.263v-45.662h-130.39v45.768c.02-.964-35.92 6.868-56.78 15.573l-2.83 1.065-24.91-20.603c-26.05 11.345-50.73 25.594-73.58 42.478l5.38 31.881-2.33 1.916c-17.75 14.557-34.02 30.829-48.58 48.58l-1.92 2.336-31.88-5.383c-16.88 22.846-31.13 47.527-42.48 73.574l20.61 24.918-1.07 2.827c-8.09 21.482-14.05 43.71-17.78 66.362l-.49 2.98-30.3 11.279c-3.2 28.226-3.2 56.725 0 84.956l30.3 11.279.49 2.981c3.73 22.651 9.69 44.879 17.78 66.361l1.07 2.827-20.61 24.918c11.35 26.042 25.6 50.724 42.48 73.574l31.88-5.383 1.92 2.336c14.56 17.751 30.83 34.023 48.58 48.58l2.33 1.916-5.38 31.881c22.85 16.881 47.53 31.13 73.58 42.478l24.91-20.603 2.83 1.066c21.48 8.094 43.71 14.05 66.36 17.781l2.98.491 11.28 30.301c28.23 3.197 56.73 3.197 84.96 0l11.28-30.301 2.98-.491c22.65-3.731 44.88-9.687 66.36-17.781l2.83-1.066 24.91 20.603c26.05-11.345 50.73-25.594 73.58-42.478l-5.39-31.881 2.34-1.916c17.75-14.557 34.02-30.829 48.58-48.58l1.92-2.336 31.88 5.383c16.88-22.846 31.13-47.527 42.47-73.574l-20.6-24.918 1.07-2.827c8.09-21.482 14.05-43.71 17.78-66.361l.49-2.981 30.3-11.279c3.2-28.225 3.2-56.725 0-84.956l-30.3-11.279-.49-2.98c-3.73-22.652-9.69-44.88-17.78-66.362l-1.07-2.827 20.6-24.918c-11.34-26.042-25.59-50.723-42.47-73.574l-31.88 5.383-1.92-2.336c-14.56-17.751-30.83-34.023-48.58-48.58l-2.34-1.916 5.39-31.881c-22.85-16.88-47.53-31.13-73.58-42.478l-24.91 20.603s-.08.187-2.83-1.065c-28.95-13.192-58.05-16.568-59.03-15.679v.106c-.03-.04-.03-.076 0-.106zm.08 10.042c20.93 4.286 44.72 11.574 64.49 19.763l23.47-21.183c20.74 9.51 40.54 20.944 59.15 34.151l-6.62 30.91c23.31 17.884 44.17 38.746 62.06 62.053l30.91-6.613c13.2 18.606 24.64 38.409 34.15 59.15l-21.19 23.462c11.25 27.142 18.88 55.64 22.72 84.767l30.07 9.727c2.14 22.717 2.14 45.584 0 68.301l-30.07 9.728c-3.84 29.126-11.47 57.624-22.72 84.766l21.19 23.462c-9.51 20.741-20.95 40.545-34.15 59.151l-30.91-6.614c-17.89 23.307-38.75 44.169-62.06 62.053l6.62 30.91c-18.61 13.208-38.41 24.641-59.15 34.151l-23.47-21.183c-27.14 11.243-55.64 18.879-84.76 22.713l-9.73 30.076c-22.72 2.135-45.58 2.135-68.3 0l-9.73-30.076c-29.13-3.834-57.62-11.47-84.76-22.713l-23.47 21.183c-20.74-9.51-40.54-20.943-59.15-34.151l6.62-30.91c-23.31-17.884-44.17-38.746-62.06-62.053l-30.91 6.614c-13.2-18.606-24.64-38.41-34.15-59.151l21.18-23.462c-11.24-27.142-18.87-55.64-22.71-84.766l-30.07-9.728c-2.14-22.717-2.14-45.584 0-68.301l30.07-9.727c3.84-29.127 11.47-57.625 22.71-84.767l-21.18-23.462c9.51-20.741 20.95-40.544 34.15-59.15l30.91 6.613c17.89-23.307 38.75-44.169 62.06-62.053l-6.62-30.91c18.61-13.207 38.41-24.641 59.15-34.151l23.47 21.183c19.8-8.202 41.63-14.885 62.59-19.172v87.316c-105.97 29.475-185.13 127.133-185.13 242.431 0 138.629 112.55 251.178 251.18 251.178s251.18-112.549 251.18-251.178c0-115.27-81.12-213.521-187.03-243.014zm-57.48 604.846.36 32.212 11.5-.13.08 6.559-30.81.347-.08-6.558 11.48-.13-.36-32.212zm-24.43-.1-4.6 38.499-28.55-3.415.78-6.513 20.77 2.485 1.02-8.535-19.33-2.312.78-6.487 19.33 2.312 1.25-10.478-21.51-2.573.78-6.486zm77.26 33.512-7.25 1.051-3.7-25.547-11.85 27.799-7.72 1.118-5.56-38.373 7.26-1.05 3.62 25.05 11.9-27.298 7.75-1.123zm-121.47-40.454-7.8 31.254 11.16 2.788-1.59 6.364-29.89-7.467 1.59-6.364 11.13 2.782 7.81-31.254zm133.97 12.235-7.96-.16c-.08-4.388.89-7.95 2.9-10.686 2.02-2.736 5.02-4.693 9.01-5.871 4.94-1.457 9.5-.968 13.67 1.468 4.18 2.435 7.13 6.579 8.85 12.43 1.83 6.189 1.65 11.468-.54 15.836-2.18 4.368-5.88 7.32-11.09 8.857-4.55 1.343-8.64 1.089-12.27-.762-2.16-1.09-4.11-2.999-5.83-5.726l6.91-3.969c1.01 1.798 2.37 3.049 4.1 3.754 1.72.704 3.58.762 5.58.173 2.76-.813 4.7-2.463 5.83-4.948 1.14-2.485 1.05-5.943-.26-10.374-1.39-4.701-3.22-7.8-5.5-9.297-2.28-1.496-4.77-1.845-7.48-1.047-1.99.589-3.52 1.73-4.59 3.423-1.06 1.692-1.5 3.992-1.33 6.899zm-168.11-22.057-20.43 12.936 3.25 21.848-8.33-3.787-1.92-14.559-12.09 8.189-8.26-3.755 18.77-12.152-3.81-23.638 8.6 3.907 2.28 15.765 13.39-8.639zm219.8-12.434 15.67 35.464-11.49 5.079c-4.35 1.924-7.27 3.001-8.75 3.231-2.27.366-4.48-.039-6.64-1.216-2.16-1.176-3.86-3.175-5.11-5.997-.96-2.178-1.37-4.183-1.24-6.016.14-1.833.62-3.442 1.47-4.827.84-1.384 1.83-2.492 2.97-3.322 1.56-1.094 3.96-2.358 7.2-3.79l4.67-2.064-5.91-13.378zm5.86 32.629-4.45-10.063-3.92 1.732c-2.82 1.247-4.62 2.267-5.41 3.058-.79.792-1.28 1.702-1.47 2.731s-.05 2.068.41 3.116c.57 1.29 1.42 2.187 2.55 2.691 1.13.503 2.32.603 3.57.3.93-.217 2.68-.895 5.26-2.036zm25.26-51.145 20.23 33.078-24.53 15-3.42-5.596 17.85-10.915-4.49-7.333-16.6 10.156-3.41-5.573 16.6-10.157-5.5-9.002-18.48 11.302-3.41-5.573zm-316.86-4.756 7.2 4.55-1.84 9.254 13.1 8.279 7.41-5.735 7.02 4.436-33.48 24.71-7-4.423zm3.99 20.668-3.17 15.017 12.12-9.365zm-7.15-23.395-25.14 29.518-9.56-8.146c-3.63-3.087-5.86-5.247-6.71-6.48-1.32-1.884-1.91-4.053-1.79-6.508s1.18-4.857 3.18-7.206c1.55-1.812 3.18-3.056 4.88-3.73 1.71-.675 3.37-.933 4.99-.775 1.61.159 3.04.57 4.28 1.233 1.67.93 3.84 2.544 6.54 4.842l3.89 3.31 9.48-11.134zm375.14 13.139-11.98 9.829c-2.37 1.946-4.22 3.298-5.55 4.057-1.33.758-2.71 1.201-4.14 1.329-1.44.127-2.89-.079-4.36-.618-1.47-.54-2.73-1.457-3.8-2.753-1.15-1.404-1.83-3.002-2.03-4.795-.21-1.793.1-3.514.91-5.163-2.26.967-4.41 1.212-6.44.736-2.03-.477-3.76-1.58-5.18-3.312-1.12-1.363-1.89-2.949-2.31-4.757-.42-1.809-.4-3.548.06-5.218.47-1.671 1.43-3.254 2.9-4.751.92-.937 3.29-3.001 7.13-6.193l10.2-8.37zm-10.14-.025-5.69-6.932-3.97 3.254c-2.36 1.935-3.79 3.171-4.31 3.709-.93.972-1.45 1.998-1.56 3.078-.11 1.079.23 2.103 1.03 3.071.76.927 1.63 1.47 2.62 1.63.99.161 2.03-.112 3.14-.817.66-.424 2.41-1.804 5.26-4.141zm-391.84 6.334 7.13-8.376-3.26-2.778c-2.35-2.001-4.05-3.184-5.11-3.55-1.05-.366-2.09-.412-3.1-.137s-1.88.848-2.63 1.721c-.91 1.074-1.35 2.228-1.31 3.464.03 1.235.46 2.352 1.28 3.349.6.741 1.97 2.025 4.12 3.855zm382.06-18.256-6.58-8.016-5.6 4.596c-2.18 1.789-3.51 2.986-4 3.589-.77.902-1.17 1.902-1.22 3-.04 1.098.37 2.178 1.24 3.242.74.9 1.59 1.484 2.54 1.753.95.27 1.95.209 3.01-.181s2.97-1.715 5.72-3.974zm6-29.127 27.52 27.309-5.51 5.558-27.53-27.309zm-416.88 30.534-5.23-5.823 6.88-6.187c2.23-2.004 3.64-3.414 4.22-4.232.58-.819.77-1.876.58-3.172s-1-2.731-2.41-4.305c-1.12-1.246-2.25-2.234-3.39-2.963-1.14-.728-2.29-1.211-3.45-1.448l-12.44 11.172-5.23-5.823 28.84-25.916 5.23 5.823-11.6 10.43c1.58.709 3.02 1.514 4.32 2.413 1.29.899 2.43 1.9 3.42 3.002 2.58 2.872 4.06 5.885 4.45 9.039.37 3.155-1.11 6.234-4.45 9.24zm442.05-60.065 30.13 24.397-4.92 6.085-11.87-9.603-9.65 11.923 11.86 9.603-4.92 6.084-30.14-24.397 4.93-6.085 13.17 10.668 9.66-11.923-13.18-10.668zm-89.1-19.697c-25.4 23.168-52.71 37.458-81.25 45.962l-2.89.861 1.72 5.779 2.89-.861c29.37-8.749 57.46-23.45 83.59-47.286l2.23-2.031-4.06-4.455zm-231.85 41.821h8.52l27.01-256.241c1.83-16.854 5.73-25.3 15.26-30.125v-9.577h-94.85v9.577c10.43 4.439 12.72 10.094 15.65 30.125zm-132.92-5.241c-3.3 2.173-6.39 3.503-9.28 3.99-2.13.35-4.28.32-6.42-.091-2.15-.41-4.04-1.166-5.68-2.265-2.18-1.455-4.14-3.501-5.87-6.137-3.15-4.771-4.18-9.563-3.11-14.376 1.08-4.814 4.25-8.957 9.52-12.429 5.23-3.443 10.25-4.715 15.08-3.818 4.82.898 8.8 3.725 11.93 8.481 3.18 4.816 4.23 9.612 3.16 14.388-1.06 4.777-4.18 8.863-9.33 12.257zm506.88-28.735-4.55 7.479-21.9-2.735 13.18 17.06-4.25 6.982-18.36-26.499c-1.99-2.879-3.31-5.385-3.96-7.516-.65-2.132-.37-4.199.85-6.202 1.2-1.974 2.27-3.44 3.2-4.399l4.97 3.025c-.64.912-1.19 1.753-1.66 2.521-.94 1.551-1.33 2.834-1.18 3.848.16 1.014.99 2.398 2.48 4.152zm-511.54 22.144c3.67-2.415 5.89-5.092 6.67-8.032s.31-5.713-1.41-8.319c-1.72-2.607-4.06-4.127-7.04-4.562s-6.35.584-10.1 3.057c-3.71 2.444-5.95 5.081-6.7 7.911s-.24 5.592 1.53 8.287c1.78 2.694 4.13 4.258 7.06 4.69 2.94.432 6.27-.579 9.99-3.032zm203.11-14.499v-221.585c13.17-17.015 31.02-21.62 63.85-21.62h96.17l-18.42 217.908h-77.75c-33.29 0-48.87 0-63.85 25.297zm-44.69-25.297 21.9-208.487c5.2 3.089 9.94 7.49 14.58 12.199v221.585c-8.88-13.577-20.35-23.086-36.48-25.297zm-196.48 15.208-6.49-14.076c-1.28-2.787-2.12-4.918-2.52-6.394s-.48-2.925-.24-4.345.8-2.773 1.7-4.058c.89-1.285 2.1-2.279 3.62-2.98 1.65-.76 3.37-1.013 5.15-.759 1.79.255 3.38.984 4.77 2.188-.37-2.434-.06-4.574.91-6.421.98-1.846 2.48-3.238 4.51-4.176 1.61-.738 3.33-1.083 5.19-1.036 1.86.048 3.53.507 5.03 1.38 1.5.872 2.79 2.205 3.87 3.998.67 1.126 2.07 3.948 4.19 8.465l5.53 11.987zm440.6-31.827c-6.62 9.144-12.51 17.861-21.03 25.406 24.31 4.557 46.82-1.872 57.42-32.139-11.04 3.533-26.62 8.732-36.39 6.733zm-438.01 22.016 8.14-3.752-2.15-4.661c-1.28-2.77-2.11-4.473-2.5-5.109-.7-1.15-1.56-1.913-2.58-2.289s-2.1-.301-3.23.222c-1.09.502-1.84 1.21-2.24 2.124-.41.915-.41 1.997-.01 3.249.25.741 1.14 2.785 2.68 6.132zm419.22-58.988c-15.38 14.412-14.39 31.135-7.51 57.591 11.72-11.728 21.04-25.182 21.04-25.182s-9.1-14.709-13.53-32.409zm-282.98-164.317h-68.16l18.84 217.908h72.02zm-122.24 216.852 9.42-4.339-3.04-6.582c-1.18-2.562-2-4.155-2.46-4.777-.68-.968-1.54-1.613-2.6-1.934-1.05-.322-2.2-.195-3.45.381-1.05.487-1.83 1.156-2.33 2.008s-.7 1.84-.59 2.964.91 3.303 2.4 6.538zm555.31-33.968-2.58 6.857-24.16-9.087 18.63 23.792-2.75 7.303-36.29-13.65 2.58-6.857 23.69 8.91-18.17-23.59 2.76-7.328zm1.96 22.212-1.28 3.392c-2.17-1.042-3.63-2.493-4.4-4.352-.76-1.859-.72-3.886.1-6.081.83-2.195 2.14-3.741 3.94-4.638 1.79-.897 3.85-1.023 6.17-.377l-1.27 3.392c-1.22-.325-2.26-.246-3.13.237s-1.56 1.401-2.07 2.754c-.51 1.354-.59 2.499-.26 3.435.34.936 1.07 1.682 2.2 2.238zm-113.39-39.788c-4.6 10.303-8.59 20.041-15.38 29.168 24.73-.51 45.44-11.405 49.63-43.2-10.08 5.716-24.27 13.99-34.25 14.032zm-478.32 26.898-2.11-7.016 24.73-7.426-29.25-7.621-2.24-7.472 37.13-11.154 2.11 7.016-24.24 7.282 28.75 7.739 2.26 7.498zm452.37-59.248c-12.1 17.251-7.72 33.42 4.43 57.91 9.08-13.878 15.44-28.952 15.44-28.952s-11.91-12.538-19.87-28.958zm-96.71-58.546c21.03 7.541 36.15 27.211 36.15 48.184 0 33.209-23.72 60.977-60.37 60.977-30.46 0-60.94-26.724-60.94-60.942 0-54.686 42.82-83.123 114.08-80.364l4.46.173v23.584l-4.42.208c-9.63.453-19.77 2.976-28.96 8.18zm244.6 65.208-1.57 7.156-25.21-5.538 21.84 20.882-1.67 7.621-37.88-8.318 1.58-7.156 24.72 5.43-21.36-20.749 1.68-7.646zm-110.46-12.06c-2.44 10.589-4.39 20.53-9.12 30.414 23.27-5.076 40.82-19.216 38.87-50.032-8.46 7.273-20.33 17.725-29.75 19.618zm-30.52-25.741c-8.23 18.545-1.09 33.006 14.93 53.886 6-14.797 9.22-30.22 9.22-30.22s-13.58-9.632-24.15-23.666zm-432.1 45.738-22.03-9.975-16.47 14.722-1.41-9.042 11.11-9.603-13.48-5.606-1.4-8.964 20.46 9.015 17.66-16.166 1.46 9.329-11.92 10.56 14.57 6.453zm538.61-55.331 38.67 2.762-.56 7.809-15.22-1.087-1.09 15.301 15.22 1.087-.56 7.809-38.67-2.762.56-7.809 16.91 1.208 1.09-15.302-16.91-1.207zm-186.04-42.164c-61.33-1.221-99.28 23.763-99.95 71.282-.01.427-.01 1.287-.01 1.287l102.73-.035s0-.485 0-.726c-.41-19.741-17.26-37.665-38.65-40.907-3.97-.76-7.3-1.033-10.18-.973 2.23-2.522 4.99-4.898 7.95-7.219 11.59-9.086 25.01-12.907 38.11-14.278zm115.42 39.061c-.48 10.667-.62 20.622-3.45 31.012 21.6-9.014 36.07-25.781 28.75-55.227-6.9 8.525-16.52 20.722-25.3 24.215zm-34.05-19.498c-4.68 19.38 4.78 32.1 23.95 49.458 3.19-15.364 3.58-30.841 3.58-30.841s-14.83-6.914-27.53-18.617zm-439.97 14.429-32.2-.915-.33 11.501-6.56-.186.88-30.8 6.55.186-.32 11.474 32.2.914zm581.11-33.361.55 7.809-15.46 1.079.73 10.448c.34 4.926-.56 8.572-2.71 10.94-2.15 2.369-4.84 3.665-8.06 3.89-2.63.184-4.92-.328-6.86-1.536-1.95-1.208-3.3-2.647-4.08-4.315-.78-1.669-1.29-4.122-1.51-7.359l-1.27-18.258zm-147.16-13.304c-.65 19.927 11.2 30.457 33.5 43.554 0-15.693-2.77-30.924-2.77-30.924s-15.93-3.754-30.73-12.63zm38.01 11.606c1.69 10.543 2.04 21.202 1.39 31.948 19.32-13.218 27.76-33.322 19.32-57.073-5.03 9.75-12.84 19.921-20.71 25.125zm77.51 11.753.53 7.599c.17 2.463.41 4.16.71 5.094.31.933.91 1.744 1.8 2.433.9.688 1.96.99 3.2.904 1.77-.124 3.03-.853 3.77-2.186s1-3.538.78-6.616l-.55-7.942zm-548.41-1.017-38.29-6.122 4.54-28.389 6.48 1.036-3.31 20.658 8.49 1.357 3.08-19.222 6.45 1.032-3.08 19.222 10.42 1.666 3.42-21.389 6.46 1.031zm572.14-49.436 5.92 26.512-37.85 8.441-1.7-7.641 31.44-7.013-2.54-11.385-16.16 3.605c-4.63 1.033-7.89 1.598-9.8 1.697-1.9.1-3.49-.335-4.79-1.302-1.29-.968-2.22-2.725-2.78-5.272-.2-.895-.48-2.541-.83-4.937l5.91-1.318.35 1.709c.36 1.6.81 2.628 1.37 3.083.55.455 1.67.494 3.36.118l6.5-1.477zm-150.91-4.64 32.53 10.162 8.67 26.267c-24.64-4.144-40.18-14.964-41.2-36.429zm39.66 7.094 13.69-30.508c13.83 20.683 11.93 40.007-5.7 57.972zm-455.83 15.11-15.6-18.482-21.2 6.206 2.62-8.769 14.16-3.89-9.76-10.86 2.59-8.694 14.6 16.941 22.9-6.997-2.7 9.049-15.31 4.403 10.39 12.096zm527.66-16.586-2.98-7.979 7.07-6.25-5.42-14.522-9.37.079-2.9-7.781 41.61.602 2.89 7.757zm-97.6-8.91 1.46-28.77 25.85 16.673-8.14 19.155zm-68.01-56.792c21.11 15.193 39.12 34.51 53.53 54.203l.78 1.052 9.28 2.469-5.19-7.083c-14.78-20.181-33.25-39.965-54.88-55.535l-3.52-2.534-3.53 4.894zm7.52-10.641c19.42 12.683 37.18 33.069 51.25 51.382l4.78 6.222.04-9.85-.04-.046c-14.46-18.823-32.77-39.72-52.73-52.757l-3.3-2.153-3.3 5.049zm167.42 57.477 11.62-10.033-15.31.121zm-525.06-2.892-35.29-16.074 3.25-7.124 13.89 6.326 6.36-13.96-13.89-6.326 3.24-7.125 35.29 16.074-3.25 7.124-15.42-7.028-6.36 13.96 15.42 7.028zm371.75-76.678c24.94 17.953 47.66 41.234 62.37 64.672l.88 1.402 9.49 3.773-5.26-8.38c-15.09-24.043-38.37-47.945-63.96-66.361l-2.45-1.761-3.52 4.894zm7.79-9.652c27.94 20.101 53.08 46.878 67.3 73.076l3.48 6.423 3.25-6.649-1.43-2.65c-14.61-26.907-40.39-54.449-69.07-75.094l-2.45-1.761-3.52 4.894zm-15.64 20.548c17.8 12.806 34.46 28.325 47.89 44.678l3.14 3.827 1.52-3.827h3.14l-3.14-3.827c-13.76-16.743-30.81-32.634-49.03-45.745l-2.44-1.761-3.53 4.894zm121.37 20.165 34.03-18.582 3.75 6.871-13.39 7.314 7.35 13.463 13.4-7.313 3.75 6.871-34.03 18.582-3.75-6.871 14.87-8.125-7.35-13.464-14.88 8.125zm-354.83 23.826c4.24-25.721 21.94-40.48 57.74-40.501-14.78 16.491-18.19 30.682 0 40.501 4.54-11.698 21.73-15.939 60.74-20.454 26.68-3.087 47.74-28.806 59.42-49.915-23.78 5.43-47.68 8.609-72.19 0 11.28-2.01 20.83-5.566 27.09-12.057-36.38 5.376-68.24-9.42-105.59-3.259-52.36 8.635-69.63 58.522-27.21 85.685zm-3.46-7.734c-21.72-27.398-19.2-53.32 15.8-65.942 37.46-13.506 85.87 30.068 137.85 20.751-12.33 13.593-30.9 24.626-51.98 25.106-26.79.611-38.44 8.347-41.58 20.085-10.21-11.958-.32-23.916 15.76-35.874-46.04-10.66-78.02-6-75.85 35.874zm-127.24-15.018c-3.32-2.152-5.77-4.453-7.38-6.904-1.17-1.815-2-3.79-2.49-5.924-.48-2.134-.55-4.169-.19-6.105.45-2.582 1.54-5.197 3.26-7.844 3.11-4.79 7.09-7.658 11.93-8.603 4.84-.944 9.91.303 15.2 3.742 5.25 3.411 8.43 7.506 9.54 12.285 1.11 4.78.12 9.558-2.99 14.334-3.14 4.835-7.11 7.72-11.92 8.657-4.8.937-9.79-.275-14.96-3.638zm4.17-6.908c3.68 2.392 7.02 3.355 10.03 2.889 3-.465 5.36-2.007 7.06-4.624s2.15-5.377 1.36-8.28c-.8-2.903-3.08-5.579-6.85-8.029-3.73-2.421-7.04-3.41-9.93-2.968-2.9.443-5.22 2.017-6.98 4.723-1.76 2.705-2.25 5.489-1.47 8.351.78 2.861 3.04 5.507 6.78 7.938zm470.71-41.104c3.15-2.386 6.14-3.918 9-4.595 2.1-.49 4.24-.602 6.41-.334 2.17.267 4.11.896 5.81 1.885 2.28 1.308 4.37 3.219 6.27 5.735 3.45 4.552 4.8 9.266 4.05 14.14s-3.65 9.217-8.68 13.03c-4.98 3.781-9.92 5.383-14.79 4.807-4.87-.577-9.03-3.135-12.47-7.674-3.48-4.595-4.85-9.311-4.1-14.148.75-4.836 3.58-9.119 8.5-12.846zm5.08 6.269c-3.5 2.652-5.54 5.47-6.12 8.455-.58 2.984.07 5.72 1.96 8.207 1.88 2.488 4.33 3.85 7.33 4.087s6.29-1.003 9.87-3.719c3.54-2.684 5.6-5.462 6.16-8.336.57-2.873-.12-5.596-2.07-8.167-1.95-2.572-4.4-3.976-7.36-4.213-2.96-.238-6.21.991-9.77 3.686zm-467.76-10.435 17.77-20.547 29.33 25.359-5.12 5.922-24.37-21.069-7.63 8.823 12.53 10.829c3.58 3.102 5.98 5.387 7.2 6.855 1.21 1.469 1.81 3.009 1.8 4.622 0 1.614-.86 3.407-2.57 5.381-.6.694-1.75 1.897-3.47 3.609l-4.58-3.961 1.16-1.304c1.07-1.24 1.63-2.218 1.67-2.933.03-.715-.61-1.638-1.91-2.768l-5.06-4.339zm437.71 6.081 28.26-26.54 5.36 5.707-28.27 26.54zm-3.29-55.641 5.89 5.164-21.29 24.252 11.41 10.014 21.29-24.253 5.88 5.164-21.28 24.253 2.42 2.128-9.87 11.252-4.89-4.292 5.58-6.361-20.72-18.178zm-395.23 35.084c-2.55-3.012-4.24-5.922-5.08-8.73-.6-2.077-.83-4.207-.68-6.39s.67-4.151 1.56-5.904c1.18-2.343 2.98-4.535 5.38-6.576 4.36-3.695 8.99-5.3 13.9-4.815s9.4 3.134 13.49 7.948c4.05 4.774 5.92 9.61 5.61 14.507-.31 4.898-2.64 9.188-6.98 12.872-4.4 3.729-9.03 5.353-13.9 4.871-4.88-.482-9.31-3.076-13.3-7.783zm5.98-5.419c2.84 3.348 5.77 5.231 8.78 5.647 3.01.417 5.71-.384 8.09-2.403 2.38-2.018 3.61-4.532 3.68-7.541s-1.35-6.228-4.25-9.657c-2.88-3.389-5.77-5.287-8.67-5.694-2.9-.408-5.58.432-8.04 2.519s-3.73 4.613-3.8 7.578c-.08 2.965 1.33 6.149 4.21 9.551zm360.29-3.291-7.17-4.593 1.9-9.242-13.06-8.358-7.44 5.692-6.99-4.478 33.62-24.511 6.97 4.464zm-219.48-159.614h111.22v123.773c0 9.891-.97 13.318-10.06 17.115l-45.55 18.638-45.55-18.638c-9.1-3.797-10.06-7.224-10.06-17.115zm-120.82 122.218 22.23-13.988 3.47 5.507-15.61 9.818 17.19 27.31-6.63 4.17zm133.58-100.625c1.93 1.261 3.77 2.324 5.46 3.578 11.57 8.598 16.83 20.215 17.96 33.997.65 7.973 1.92 15.899 2.91 23.847.02.134 0 .272 0 .234-1.59.336-3.21.438-4.62 1.019-2.95 1.219-4.38 4.134-3.88 7.36.45 2.935 2.91 5.158 6.34 5.716 3.87.63 3.92.654 6.41-4.366 5.11-10.301 8.8-21.033 8.67-32.555-.1-9.146-.97-18.283-1.43-27.427-.26-5.243-1.11-10.569 1.17-15.61.96-2.119 2.32-4.069 3.86-6.738 1.55 2.729 2.92 4.749 3.89 6.927 2.2 4.882 1.38 10.044 1.13 15.118-.39 7.612-.87 15.22-1.39 22.825-.71 10.601 1.46 20.725 5.49 30.513 1.69 4.097 3.73 8.058 5.53 11.925 6.38.488 10.76-3.317 10.36-8.66-.21-2.749-3.14-5.502-6.11-5.696-.8-.053-1.61-.008-2.48-.008.31-2.513.6-4.879.91-7.243 1.08-8.439 1.93-16.912 3.32-25.304 1.24-7.48 4.61-14.24 10.08-19.702 3.48-3.478 7.71-6.268 11.6-9.362.15-.117.35-.178.62-.314v99.77h-23.5c-1.41 3.588-2.47 6.994-4.04 10.164-2.86 5.759-7.28 10.331-12.62 14.11-.57.408-1.01 1.005-1.47 1.545-.46.537-.87 1.114-1.27 1.622-.97-1.07-1.87-2.182-2.9-3.172-2.97-2.861-6.24-5.47-8.93-8.551-3.77-4.311-5.9-9.48-7.13-14.984-.06-.255-.51-.613-.77-.616-7.51-.087-15.01-.134-22.52-.19-.21-.002-.41-.024-.65-.038zm-87.19 117.839-18.09-34.298 6.93-3.651 18.08 34.298zm290.04-.51 3.26-14.998-12.17 9.294zm-60.96-14.89 16.06-35.292 7.12 3.243-6.32 13.89 13.97 6.354 6.32-13.89 7.12 3.242-16.06 35.292-7.12-3.243 7.02-15.431-13.96-6.354-7.03 15.431zm-95.41-2.53v14.477c4.05-4.228 6.75-8.97 8.11-14.477zm-15.32 0c.02 3.094 5.94 13.633 8.04 14.311v-14.311zm-119.47-25.32 6.78-2.765 9.74 23.904 4.81-29.835 7.22-2.945 14.64 35.904-6.79 2.766-9.55-23.439-4.97 29.36-7.25 2.955zm143.92 18.348c-.43-2.869-.84-5.64-1.26-8.478-2.83.317-4.91 1.463-6.23 3.467-.96 1.444-1.4 3.195-2.16 5.011zm-25.54-.003h9.8c-1.02-2.071-1.57-4.13-2.87-5.564-1.3-1.437-3.35-2.251-5.56-3.65-.54 3.599-.95 6.371-1.37 9.214zm-5.73-10.12-1.46 10.109h-15.88v-20.662c1.28 0 2.52-.009 3.77.013.13.003.32.166.37.292 2.01 6.069 6.57 9.136 12.88 10.162.11.017.21.049.31.082zm54.33-10.447c-.69-.03-1.43-.207-2.08-.054-.81.189-2.01.474-2.24 1.027-1.54 3.694-4.07 6.46-7.85 8.039-1.66.694-3.49 1.031-5.15 1.504.48 3.333.96 6.672 1.44 10.039h15.88zm-43.2 5.556c2.41 1.574 4.99 3.253 7.36 4.792 2.4-1.555 4.99-3.234 7.4-4.79-2.47-5.362-5.06-10.975-7.4-16.043-2.33 5.08-4.91 10.698-7.36 16.041zm-108.82-19.861 3.36-1.368c.71 2.3.64 4.361-.21 6.182-.85 1.822-2.35 3.175-4.53 4.06-2.17.885-4.19.973-6.07.264-1.88-.71-3.37-2.135-4.47-4.276l3.35-1.368c.59 1.113 1.36 1.824 2.3 2.134.95.31 2.09.192 3.43-.354 1.33-.546 2.23-1.26 2.69-2.142s.51-1.926.15-3.132zm80.36-44.256v51.56c.86 0 1.67-.065 2.47.015 1.16.117 1.52-.439 2.1-1.361 1.39-2.186 3.12-4.186 4.82-6.174.77-.894 2.5-.903 2.03-2.856-.57-2.338-.59-4.793-.97-7.18-1.38-8.726-.97-17.811-5.36-25.941-1.39-2.58-3.13-4.987-5.09-8.063zm71.68.63c-.21.168-.28.206-.33.261-3.75 4.354-6.55 9.244-7.58 14.795-1.18 6.385-1.84 12.86-2.7 19.299-.35 2.58-.64 5.167-.96 7.745 3.86 1.928 6.27 4.873 7.53 8.786h4.04z" fill="#fff" transform="translate(-1065.353 -16.383)"/></svg>