<svg clip-rule="evenodd" fill-rule="evenodd" stroke-linejoin="round" stroke-miterlimit="2" viewBox="0 0 771 783" xmlns="http://www.w3.org/2000/svg"><g transform="translate(-1937.23 -17.018)"><path d="m2606.44 592.442 28.37 19.961 7.13-10.133 5.78 4.064-19.09 27.14-5.78-4.064 7.11-10.111-28.37-19.961zm-584.91-5.292-2.33-8.254c4.5-1.458 8.47-1.577 11.92-.358s6.41 3.701 8.87 7.444c3.05 4.632 3.97 9.481 2.77 14.545-1.2 5.065-4.55 9.402-10.04 13.014-5.8 3.819-11.3 5.287-16.48 4.402-5.19-.884-9.39-3.77-12.6-8.655-2.81-4.268-3.83-8.564-3.06-12.888.45-2.567 1.8-5.166 4.07-7.796l6.26 5.876c-1.54 1.602-2.4 3.402-2.59 5.4-.18 1.997.34 3.932 1.57 5.804 1.7 2.585 4.01 4.073 6.93 4.462 2.91.389 6.45-.784 10.6-3.518 4.41-2.902 7.03-5.762 7.86-8.58.83-2.817.41-5.495-1.26-8.033-1.23-1.872-2.89-3.091-4.96-3.657-2.08-.565-4.59-.301-7.53.792zm608.05-33.073 36.32 20.603-15.28 26.93-6.14-3.485 11.12-19.597-8.05-4.567-10.35 18.234-6.12-3.472 10.35-18.234-9.89-5.607-11.51 20.29-6.12-3.471zm-636.11 38.182-4.35-8.366 14.74-18.639-23.06 2.616-4.06-7.81 34.65-2.121c3.76-.221 6.8-.037 9.13.551s4.08 2.002 5.24 4.243c1.15 2.207 1.9 4.009 2.27 5.405l-5.57 2.889c-.48-1.096-.94-2.074-1.39-2.933-.9-1.736-1.87-2.814-2.89-3.236-1.02-.421-2.75-.434-5.2-.039zm645.41-58.961 31.75 13.98 4.99-11.34 6.47 2.846-13.37 30.37-6.47-2.847 4.99-11.313-31.76-13.98zm-625.5 6.888-39.01 14.879-4.5-11.79 23.91-17.228-29.28 3.15-4.51-11.817 39.02-14.878 2.79 7.318-30.71 11.713 33.66-3.968 2.9 7.585-27.77 19.43 30.71-11.712zm681.17-39.145-2.41 7.513-26.47-8.489 21.31 24.599-2.57 8.002-39.76-12.751 2.41-7.513 25.96 8.324-20.8-24.408 2.57-8.028zm-718.07-25.5.57-8.557c4.72.129 8.51 1.344 11.35 3.646s4.8 5.629 5.87 9.981c1.33 5.384.57 10.262-2.25 14.633-2.83 4.372-7.43 7.342-13.81 8.911-6.75 1.66-12.42 1.206-17.01-1.361-4.59-2.566-7.59-6.689-8.98-12.369-1.22-4.96-.75-9.349 1.42-13.168 1.28-2.27 3.43-4.266 6.45-5.986l3.93 7.628c-1.98.997-3.4 2.405-4.24 4.226-.84 1.82-1 3.818-.46 5.994.74 3.006 2.42 5.179 5.03 6.52 2.62 1.341 6.34 1.418 11.18.229 5.12-1.26 8.55-3.08 10.27-5.459s2.22-5.044 1.49-7.994c-.53-2.176-1.68-3.878-3.45-5.105s-4.22-1.817-7.36-1.769zm696.02 4.006-4.14 7.512c-4.22-2.117-7.14-4.821-8.74-8.111s-1.96-7.133-1.09-11.528c1.08-5.439 3.83-9.539 8.24-12.302s9.84-3.505 16.28-2.224c6.82 1.355 11.76 4.167 14.83 8.437 3.08 4.269 4.04 9.272 2.9 15.008-.99 5.01-3.28 8.786-6.87 11.326-2.12 1.514-4.91 2.412-8.37 2.691l-.33-8.574c2.22-.062 4.1-.739 5.63-2.031 1.54-1.293 2.52-3.038 2.96-5.235.6-3.036 0-5.716-1.8-8.039-1.81-2.324-5.15-3.97-10.03-4.94-5.17-1.029-9.05-.831-11.61.595-2.57 1.426-4.15 3.629-4.74 6.608-.44 2.198-.12 4.227.96 6.088s3.06 3.434 5.92 4.719zm-725.17-14.336-1.05-8.365 16.56-2.075-1.4-11.192c-.66-5.275.1-9.25 2.27-11.924s4.98-4.226 8.43-4.658c2.82-.354 5.32.061 7.47 1.245 2.16 1.184 3.71 2.65 4.64 4.399.94 1.748 1.63 4.356 2.06 7.823l2.45 19.557zm33.43-12.684-1.02-8.14c-.33-2.638-.69-4.449-1.07-5.435s-1.07-1.822-2.08-2.51c-1-.687-2.16-.948-3.48-.783-1.91.238-3.22 1.096-3.93 2.573s-.86 3.864-.45 7.161l1.07 8.507zm685.15-36.024 41.57 3.928-1.27 13.47c-.48 5.104-1.01 8.412-1.57 9.922-.85 2.323-2.39 4.19-4.63 5.599-2.24 1.41-5.02 1.958-8.33 1.645-2.55-.241-4.65-.907-6.3-1.997-1.65-1.091-2.91-2.397-3.76-3.918-.86-1.521-1.38-3.034-1.57-4.539-.2-2.042-.13-4.962.23-8.762l.52-5.473-15.68-1.482zm33.75 11.657-11.8-1.114-.43 4.593c-.32 3.309-.31 5.541.02 6.697.33 1.157.93 2.096 1.79 2.816.87.721 1.92 1.14 3.15 1.256 1.51.143 2.8-.184 3.87-.979 1.06-.796 1.79-1.863 2.16-3.2.28-.985.57-2.989.85-6.014zm-757.12-5.568-.16-8.43 17.77-.331c-.23-1.876-.73-3.139-1.53-3.789-.79-.65-2.97-1.634-6.54-2.954-4.56-1.663-7.4-3.367-8.53-5.112-1.14-1.726-1.74-4.535-1.81-8.427-.01-.19-.02-.598-.05-1.224l6.23-.116v1.196c.03 1.728.27 2.987.71 3.776.44.79 1.1 1.423 1.99 1.9.88.478 2.69 1.175 5.42 2.093 1.45.486 2.67 1.018 3.65 1.598s1.91 1.622 2.79 3.125c.5-1.89 1.54-3.462 3.13-4.716 1.59-1.255 3.85-2.641 6.76-4.157l11.34-5.909.19 9.91-10.7 5.185c-.15.079-.44.246-.88.5-.15.098-.8.462-1.94 1.091-2.03 1.12-3.3 2.032-3.8 2.734-.5.703-.74 1.766-.74 3.19l18.29-.34.15 8.429zm723.24-41.5 41.75-.364.27 30.96-7.06.061-.2-22.529-9.25.081.18 20.962-7.04.062-.18-20.963-11.36.099.2 23.327-7.03.061zm-723.72 5.464.61-7.866 27.71 2.156-26.4-19.024.65-8.377 41.63 3.238-.61 7.866-27.17-2.113 25.86 18.953-.65 8.406zm761-48.708 1.93 16.578c.39 3.282.54 5.745.45 7.389-.08 1.645-.49 3.154-1.2 4.529-.72 1.374-1.75 2.57-3.1 3.587-1.34 1.018-2.91 1.631-4.7 1.84-1.94.227-3.79-.088-5.53-.945-1.75-.857-3.13-2.134-4.15-3.831-.44 2.613-1.46 4.702-3.08 6.268-1.61 1.565-3.62 2.487-6.01 2.767-1.89.221-3.78-.004-5.66-.672-1.88-.669-3.45-1.7-4.69-3.094s-2.12-3.189-2.62-5.386c-.32-1.378-.81-4.733-1.47-10.067l-1.65-14.116zm-22.42 11.108-11.09 1.296.9 7.751c.36 3.018.67 4.923.93 5.714.37 1.218 1.04 2.167 2.01 2.848.97.68 2.19.934 3.66.762 1.25-.146 2.27-.571 3.06-1.276.8-.705 1.33-1.651 1.59-2.838.27-1.187.18-3.686-.27-7.496zm16.49-1.928-9.59 1.121.64 5.488c.39 3.263.67 5.285.86 6.066.33 1.414.96 2.483 1.88 3.208.91.724 2.04 1.008 3.38.852 1.28-.15 2.28-.626 3-1.427s1.08-1.909 1.09-3.324c0-.841-.23-3.232-.69-7.174zm-751.17-3.472 1.5-7.747 27.29 5.263-24.09-21.876 1.59-8.251 41 7.906-1.49 7.748-26.77-5.162 23.57 21.746-1.6 8.279zm712.8-13.515 40.98-8.027 1.62 8.274-40.98 8.027zm-718.91-9.709.74-3.832c2.49.713 4.31 1.987 5.46 3.822 1.14 1.836 1.48 3.994 1 6.473-.48 2.48-1.59 4.359-3.34 5.637-1.74 1.279-3.9 1.785-6.48 1.52l.74-3.832c1.34.125 2.44-.148 3.27-.818.84-.671 1.4-1.771 1.7-3.299.29-1.529.18-2.76-.35-3.693s-1.44-1.593-2.74-1.978zm709.32-27.448 40.25-11.136 2.25 8.125-15.84 4.384 4.4 15.921 15.84-4.383 2.25 8.126-40.24 11.136-2.25-8.125 17.6-4.87-4.41-15.922-17.6 4.87zm-684.9-21.82 10.6-26.835 32.32 12.768 1.35-3.418 15 5.924-2.58 6.517-8.48-3.349-9.65 24.451 8.47 3.349-2.57 6.516-15-5.923 1.3-3.285c-2.68-2.919-6.12-5.501-10.31-7.747-4.18-2.246-9.63-4.695-16.34-7.346zm9.47-4.896c11.8 4.661 19.98 9.127 24.54 13.399l5.83-14.756-25.81-10.193zm700.82-23.089 3.46 8.772-16.6 17.005 23.21-.202 3.23 8.189-34.69-1.494c-3.76-.172-6.77-.671-9.02-1.498-2.26-.827-3.85-2.415-4.77-4.765-.91-2.314-1.48-4.184-1.69-5.61l5.83-2.296c.37 1.141.73 2.162 1.08 3.063.72 1.82 1.56 2.993 2.54 3.518.97.525 2.69.719 5.17.581zm-658.36 11.183-36.87-19.606 14.54-27.336 6.24 3.317-10.58 19.892 8.17 4.346 9.84-18.509 6.22 3.304-9.85 18.508 10.04 5.337 10.95-20.597 6.21 3.304zm625.53-69.657 4.16 6.706-23.63 14.645 32.54-.264 4.43 7.142-35.49 21.998-4.16-6.706 23.17-14.361-32.07.004-4.44-7.166zm-608.74 38.486-34.64-23.329 7.56-11.221c2.87-4.252 4.91-6.908 6.13-7.966 1.85-1.634 4.1-2.534 6.74-2.7 2.64-.167 5.34.678 8.1 2.535 2.13 1.432 3.65 3.022 4.58 4.77.93 1.747 1.41 3.494 1.43 5.24.03 1.746-.24 3.324-.8 4.732-.79 1.893-2.25 4.421-4.39 7.587l-3.07 4.559 13.07 8.8zm-24.07-26.375 9.83 6.62 2.58-3.827c1.85-2.756 2.92-4.721 3.18-5.894s.19-2.283-.23-3.331c-.42-1.047-1.14-1.916-2.16-2.605-1.26-.849-2.55-1.179-3.87-.991-1.31.189-2.46.781-3.42 1.777-.72.729-1.93 2.353-3.63 4.873zm606.62-46.267 4.88 6.199-21.84 17.196 32.31-3.902 5.2 6.602-32.81 25.829-4.88-6.199 21.41-16.861-31.86 3.589-5.22-6.624zm46.43 47.078 2.06 3.317c-2.32 1.167-4.52 1.464-6.6.892-2.09-.573-3.8-1.932-5.13-4.079-1.33-2.146-1.79-4.281-1.37-6.404s1.66-3.962 3.73-5.516l2.06 3.317c-1.08.823-1.69 1.764-1.85 2.824-.16 1.059.17 2.25.99 3.573.82 1.324 1.74 2.15 2.76 2.479s2.14.195 3.35-.403zm-581.37-40.353-14.66-38.946 6.64-5.954 40.33 19.908-6.82 6.126-9.05-4.623-12.42 11.148 3.77 9.361-6.66 5.973-.05-.128-4.65 5.383-11.44-3.259c-.16-.056-.48-.126-.99-.21-.31-.071-1.03-.24-2.16-.508-2.2-.497-3.73-.668-4.6-.51-.86.158-1.62.618-2.28 1.38l13.84 11.947-5.37 6.232-13.85-11.948c-.63.733-.98 1.539-1.03 2.419-.06.879.34 2.378 1.2 4.496.48 1.19.74 1.884.8 2.082.1.315.22.63.35.943l4.9 10.849-6.48 7.503-4.95-11.794c-1.22-2.912-2.06-5.382-2.5-7.409s-.25-3.946.59-5.758c-1.64.592-3.02.801-4.14.627-1.11-.174-2.4-.537-3.85-1.09-2.64-1.018-4.45-1.636-5.44-1.852-.99-.217-1.92-.162-2.78.163-.85.326-1.88 1.179-3.07 2.559-.15.172-.38.451-.69.838l-4.72-4.076c.43-.462.7-.765.82-.909 2.67-3.09 5.02-4.899 7.06-5.425 2.03-.5 5.22.033 9.57 1.599 3.37 1.206 5.64 1.84 6.8 1.903s2.25-.401 3.25-1.39l-13.46-11.613 5.38-6.231 13.46 11.612c.83-1.138 1.13-2.284.9-3.438-.24-1.154-1.19-3.299-2.88-6.433-2.2-4.106-3.18-7.211-2.94-9.315.23-2.078 1.67-4.64 4.3-7.688.12-.143.38-.459.78-.945l4.72 4.075-.82.909c-1.12 1.294-1.78 2.382-1.97 3.265-.2.883-.13 1.796.21 2.741.34.944 1.22 2.67 2.64 5.178.76 1.331 1.31 2.539 1.65 3.624.34 1.086.34 2.483-.01 4.191 1.65-1.063 3.48-1.534 5.49-1.413 2.02.121 4.62.59 7.8 1.406zm475.12-8.669 29.7-29.35 5.93 5.997-11.69 11.552 11.61 11.751 11.69-11.552 5.92 5.997-29.7 29.35-5.92-5.997 12.98-12.833-11.61-11.751-12.99 12.833zm-165.42 21.382v-34.681h3.87v3.258c.92-1.275 1.95-2.231 3.09-2.868 1.15-.638 2.55-.956 4.18-.956 2.14 0 4.03.551 5.67 1.652 1.64 1.102 2.87 2.656 3.71 4.663.83 2.007 1.25 4.206 1.25 6.598 0 2.566-.46 4.876-1.38 6.93-.93 2.053-2.26 3.627-4.02 4.721-1.75 1.094-3.6 1.641-5.53 1.641-1.42 0-2.69-.299-3.82-.897-1.12-.598-2.05-1.354-2.77-2.267v12.206zm-133.05-21.743 4.58 1.157c-.96 3.761-2.69 6.63-5.19 8.605-2.49 1.975-5.54 2.963-9.14 2.963-3.73 0-6.77-.76-9.1-2.279-2.34-1.518-4.12-3.718-5.34-6.598s-1.83-5.973-1.83-9.278c0-3.604.69-6.748 2.07-9.432 1.37-2.683 3.33-4.721 5.88-6.114 2.54-1.393 5.33-2.09 8.39-2.09 3.46 0 6.37.882 8.73 2.644 2.36 1.763 4.01 4.242 4.94 7.437l-4.51 1.062c-.8-2.518-1.97-4.351-3.5-5.5-1.52-1.149-3.44-1.724-5.76-1.724-2.66 0-4.88.638-6.67 1.913-1.78 1.274-3.04 2.986-3.76 5.134-.73 2.149-1.09 4.364-1.09 6.646 0 2.943.43 5.513 1.29 7.708.86 2.196 2.19 3.837 4 4.923s3.77 1.629 5.88 1.629c2.56 0 4.74-.74 6.52-2.22 1.77-1.479 2.98-3.675 3.61-6.586zm240.5 9.042c-1.57 1.338-3.09 2.282-4.54 2.833-1.46.551-3.02.826-4.69.826-2.75 0-4.87-.673-6.35-2.019-1.48-1.345-2.22-3.065-2.22-5.158 0-1.228.28-2.349.84-3.364s1.29-1.83 2.2-2.444c.9-.613 1.92-1.078 3.05-1.393.84-.22 2.1-.432 3.78-.637 3.43-.409 5.96-.897 7.58-1.464.01-.582.02-.952.02-1.109 0-1.732-.4-2.951-1.2-3.66-1.09-.96-2.7-1.44-4.84-1.44-2 0-3.47.351-4.43 1.051-.95.7-1.65 1.94-2.11 3.718l-4.16-.566c.38-1.779 1-3.215 1.87-4.309.86-1.094 2.12-1.936 3.75-2.526 1.64-.59 3.54-.885 5.69-.885 2.14 0 3.88.251 5.22.755s2.32 1.137 2.95 1.901c.63.763 1.07 1.727 1.32 2.892.14.724.22 2.03.22 3.919v5.666c0 3.95.09 6.449.27 7.495.18 1.047.54 2.05 1.07 3.01h-4.44c-.44-.881-.72-1.912-.85-3.092zm-115.08 0c-1.57 1.338-3.09 2.282-4.54 2.833-1.46.551-3.02.826-4.69.826-2.75 0-4.87-.673-6.35-2.019-1.48-1.345-2.22-3.065-2.22-5.158 0-1.228.28-2.349.84-3.364s1.29-1.83 2.2-2.444c.9-.613 1.92-1.078 3.05-1.393.84-.22 2.09-.432 3.78-.637 3.43-.409 5.96-.897 7.58-1.464.01-.582.02-.952.02-1.109 0-1.732-.4-2.951-1.2-3.66-1.09-.96-2.7-1.44-4.84-1.44-2 0-3.48.351-4.43 1.051s-1.66 1.94-2.11 3.718l-4.16-.566c.38-1.779 1-3.215 1.87-4.309.86-1.094 2.12-1.936 3.75-2.526 1.64-.59 3.54-.885 5.69-.885 2.14 0 3.88.251 5.22.755s2.32 1.137 2.95 1.901c.63.763 1.07 1.727 1.32 2.892.14.724.21 2.03.21 3.919v5.666c0 3.95.09 6.449.28 7.495.18 1.047.54 2.05 1.07 3.01h-4.44c-.44-.881-.72-1.912-.85-3.092zm-43.3 0c-1.58 1.338-3.09 2.282-4.55 2.833-1.45.551-3.01.826-4.68.826-2.76 0-4.87-.673-6.35-2.019-1.48-1.345-2.22-3.065-2.22-5.158 0-1.228.28-2.349.84-3.364.55-1.015 1.29-1.83 2.19-2.444.91-.613 1.93-1.078 3.06-1.393.83-.22 2.09-.432 3.78-.637 3.43-.409 5.95-.897 7.57-1.464.02-.582.03-.952.03-1.109 0-1.732-.4-2.951-1.21-3.66-1.08-.96-2.7-1.44-4.84-1.44-2 0-3.47.351-4.42 1.051s-1.66 1.94-2.12 3.718l-4.15-.566c.38-1.779 1-3.215 1.86-4.309.87-1.094 2.12-1.936 3.76-2.526 1.63-.59 3.53-.885 5.69-.885 2.14 0 3.88.251 5.22.755 1.33.504 2.32 1.137 2.95 1.901.63.763 1.07 1.727 1.32 2.892.14.724.21 2.03.21 3.919v5.666c0 3.95.09 6.449.27 7.495.18 1.047.54 2.05 1.08 3.01h-4.44c-.44-.881-.73-1.912-.85-3.092zm92.08-4.982 4.39.543c-.69 2.566-1.97 4.557-3.85 5.973-1.87 1.417-4.26 2.125-7.17 2.125-3.67 0-6.58-1.129-8.72-3.388-2.15-2.258-3.23-5.426-3.23-9.502 0-4.218 1.09-7.492 3.26-9.821 2.17-2.33 4.99-3.494 8.45-3.494 3.35 0 6.09 1.141 8.22 3.423 2.12 2.282 3.19 5.493 3.19 9.632 0 .252-.01.63-.03 1.133h-18.7c.16 2.755.94 4.864 2.34 6.327 1.4 1.464 3.15 2.196 5.24 2.196 1.56 0 2.89-.409 3.99-1.228 1.1-.818 1.98-2.124 2.62-3.919zm-280.07-16.998h6.61l6.58 20.067 7.32-20.067h6.12v25.072h-4.25v-20.185l-7.42 20.185h-3.8l-7.01-21.153v21.153h-4.15zm134.11 25.072v-34.61h6.9l8.19 24.506c.75 2.282 1.3 3.99 1.65 5.123.39-1.259 1.01-3.108 1.84-5.548l8.29-24.081h6.16v34.61h-4.42v-28.967l-10.05 28.967h-4.13l-10.01-29.463v29.463zm-20.26 0v-4.839h4.84v4.839zm-121.79 0v-25.072h4.25v25.072zm318.61-25.072h4.25v10.837c1.36 0 2.31-.26 2.85-.78.54-.519 1.34-2.03 2.4-4.532.83-1.983 1.51-3.29 2.03-3.919.52-.63 1.11-1.055 1.79-1.275.68-.221 1.76-.331 3.26-.331h.85v3.518l-1.18-.024c-1.12 0-1.84.166-2.15.496-.33.346-.83 1.377-1.51 3.093-.65 1.637-1.24 2.77-1.77 3.399-.54.63-1.36 1.204-2.48 1.724 1.82.488 3.62 2.188 5.38 5.099l4.65 7.767h-4.67l-4.53-7.767c-.93-1.558-1.74-2.585-2.44-3.081-.69-.495-1.52-.743-2.48-.743v11.591h-4.25zm-239.37 25.072v-4.839h4.84v4.839zm-39.88 0v-4.839h4.84v4.839zm164.17-25.072h4.25v10.837c1.36 0 2.3-.26 2.85-.78.54-.519 1.34-2.03 2.39-4.532.84-1.983 1.51-3.29 2.03-3.919.52-.63 1.12-1.055 1.8-1.275.68-.221 1.76-.331 3.26-.331h.85v3.518l-1.18-.024c-1.12 0-1.84.166-2.15.496-.33.346-.84 1.377-1.51 3.093-.65 1.637-1.24 2.77-1.77 3.399-.54.63-1.37 1.204-2.48 1.724 1.82.488 3.62 2.188 5.38 5.099l4.65 7.767h-4.67l-4.54-7.767c-.93-1.558-1.74-2.585-2.43-3.081-.69-.495-1.52-.743-2.48-.743v11.591h-4.25zm91.33 0h4.25v10.435h11.78v-10.435h4.25v25.072h-4.25v-11.119h-11.78v11.119h-4.25zm-249.43 25.072 13.29-34.61h4.94l14.16 34.61h-5.22l-4.03-10.482h-14.48l-3.79 10.482zm308.53-12.583c-1.54.63-3.86 1.165-6.94 1.606-1.75.251-2.98.535-3.71.849-.72.315-1.28.776-1.67 1.381-.4.606-.59 1.279-.59 2.019 0 1.133.42 2.078 1.28 2.833s2.12 1.133 3.77 1.133c1.64 0 3.09-.358 4.37-1.074 1.27-.716 2.21-1.696 2.81-2.939.45-.96.68-2.377.68-4.25zm-115.08 0c-1.54.63-3.86 1.165-6.94 1.606-1.75.251-2.99.535-3.71.849-.72.315-1.28.776-1.68 1.381-.39.606-.59 1.279-.59 2.019 0 1.133.43 2.078 1.29 2.833s2.11 1.133 3.77 1.133c1.63 0 3.09-.358 4.36-1.074 1.28-.716 2.21-1.696 2.81-2.939.46-.96.69-2.377.69-4.25zm-43.31 0c-1.54.63-3.85 1.165-6.94 1.606-1.74.251-2.98.535-3.7.849-.73.315-1.29.776-1.68 1.381-.39.606-.59 1.279-.59 2.019 0 1.133.43 2.078 1.29 2.833.85.755 2.11 1.133 3.76 1.133 1.64 0 3.09-.358 4.37-1.074s2.21-1.696 2.81-2.939c.46-.96.68-2.377.68-4.25zm55.14.189c0 3.226.65 5.611 1.96 7.153 1.3 1.543 2.89 2.314 4.74 2.314 1.89 0 3.51-.799 4.85-2.396 1.35-1.598 2.02-4.073 2.02-7.425 0-3.195-.65-5.587-1.97-7.177-1.31-1.59-2.88-2.385-4.71-2.385-1.81 0-3.41.846-4.8 2.538s-2.09 4.152-2.09 7.378zm-195.29-1.818h11.73l-3.61-9.585c-1.1-2.912-1.92-5.304-2.46-7.177-.44 2.219-1.06 4.423-1.86 6.611zm218.64-.732h14c-.19-2.109-.72-3.69-1.61-4.745-1.35-1.637-3.1-2.455-5.26-2.455-1.95 0-3.59.653-4.92 1.959-1.33 1.307-2.07 3.054-2.21 5.241zm134.93-53.533 6.56 5.298-6.27 7.755c-2.03 2.511-3.28 4.25-3.76 5.219s-.5 2.126-.08 3.472c.43 1.345 1.53 2.734 3.3 4.166 1.41 1.134 2.77 1.991 4.11 2.571 1.34.581 2.65.898 3.92.951l11.32-14.001 6.55 5.298-26.24 32.479-6.56-5.299 10.56-13.071c-1.8-.483-3.47-1.093-5-1.828-1.53-.736-2.91-1.604-4.16-2.607-3.23-2.614-5.32-5.565-6.26-8.854-.95-3.289.1-6.816 3.15-10.583zm-462.11 38.455-14.63-7.689 6.16 15.299zm-.62-32.637 13.62-9.649c2.7-1.91 4.79-3.222 6.27-3.936 1.49-.714 3-1.085 4.55-1.114 1.56-.028 3.1.303 4.64.995 1.53.691 2.82 1.773 3.87 3.245 1.13 1.595 1.73 3.364 1.82 5.306.08 1.942-.37 3.767-1.37 5.476 2.5-.867 4.83-.967 6.97-.301 2.15.666 3.92 1.983 5.32 3.951 1.09 1.549 1.8 3.311 2.12 5.286.31 1.974.16 3.841-.47 5.6s-1.78 3.387-3.47 4.884c-1.06.936-3.77 2.973-8.13 6.111l-11.6 8.217zm53.74 32.936v-4.887h4.25v4.887zm372.44-13.077 23.85-34.278 6.92 4.815-23.85 34.277zm-405.68-5.513 6.46 9.111 6.36-4.512c2.48-1.757 4.01-2.941 4.57-3.552.89-.911 1.41-1.954 1.54-3.13s-.23-2.368-1.09-3.577c-.72-1.022-1.58-1.714-2.59-2.076-1-.361-2.08-.373-3.25-.034s-3.31 1.617-6.44 3.835zm35.39-2.459-20.22-36.535 7.38-4.083 7.95 14.38 14.46-7.998-7.96-14.38 7.38-4.082 20.22 36.535-7.38 4.082-8.84-15.975-14.46 7.999 8.84 15.975zm367.73-43.001 24.08 14.838-3.68 5.965-16.9-10.414-18.23 29.584-7.18-4.423zm-412.72 31.911 5.58 7.879 4.51-3.195c2.68-1.899 4.32-3.118 4.92-3.657 1.07-.973 1.71-2.036 1.91-3.188.2-1.151-.1-2.277-.88-3.377-.74-1.053-1.64-1.704-2.69-1.951-1.04-.246-2.19-.033-3.44.64-.73.405-2.72 1.755-5.96 4.05zm360.03-34.282c1.82-3.847 3.92-6.804 6.3-8.871 1.77-1.518 3.75-2.691 5.96-3.519 2.21-.827 4.37-1.193 6.49-1.096 2.82.114 5.77.896 8.84 2.346 5.56 2.626 9.2 6.453 10.91 11.48 1.71 5.028 1.12 10.616-1.78 16.764-2.88 6.096-6.79 10.084-11.73 11.963-4.93 1.88-10.18 1.511-15.72-1.107-5.62-2.65-9.28-6.469-10.97-11.459-1.7-4.99-1.13-10.49 1.7-16.501zm-297.04-11.663 7.3-3.014 10.62 25.691 5.01-32.155 7.77-3.21 15.95 38.59-7.29 3.014-10.42-25.191-5.19 31.643-7.79 3.221zm305.02 15.113c-2.02 4.276-2.56 7.983-1.62 11.122.93 3.138 2.92 5.425 5.96 6.859s6.05 1.517 9.03.247 5.51-4.095 7.57-8.474c2.04-4.327 2.62-8.003 1.73-11.028-.9-3.025-2.92-5.279-6.06-6.762s-6.18-1.6-9.12-.353c-2.94 1.248-5.44 4.044-7.49 8.389zm-27.9-32.754 26.62 9.547-2.36 6.596-18.69-6.701-11.73 32.71-7.94-2.846zm-236.89 1.634 7.58-2.166 7.63 26.731 8.64-31.376 8.08-2.307 11.47 40.151-7.59 2.167-7.49-26.211-8.75 30.848-8.11 2.315zm142.75 22.882-31.05-.578.78-41.749 30.96.577-.14 7.062-22.52-.42-.17 9.256 20.96.39-.13 7.034-20.96-.39-.22 11.363 23.33.434-.01.209.05-.402 3.51.428c2.15-3.334 3.78-7.31 4.9-11.927s2.11-10.507 2.99-17.67l.53-4.382 28.64 3.496-4.21 34.493 3.65.446-.37 3.002 23.13-33.24 8.67 2.089 6.47 44.511-8.92-2.149-1.32-10.075-16.23-3.91-5.57 8.414-6.72-1.619-1.09 8.979-6.96-.849 1.1-9.047-26.09-3.186-1.11 9.048-6.95-.849zm-73.02-39.032 33.08-2.994 3.76 41.586-8.39.76-3.13-34.607-16.29 1.474 3.14 34.607-8.4.761zm92.96 6.195c-1.54 12.591-3.8 21.632-6.79 27.121l15.75 1.922 3.36-27.538zm47.63 27.172-1.97-16.411-9.11 13.742zm-192.36-33.157 3.75-1.071c.49 2.545.17 4.744-.95 6.594s-2.89 3.122-5.32 3.816c-2.43.693-4.61.55-6.54-.43-1.92-.979-3.35-2.68-4.28-5.1l3.75-1.072c.5 1.26 1.24 2.111 2.21 2.553.98.443 2.21.45 3.71.023 1.5-.428 2.54-1.087 3.14-1.978.59-.89.77-2.002.53-3.335z" fill-rule="nonzero"/><path d="m-944.489 427.54v-208.514l-17.856-6.693.28 205.995c-5.267 3.756-7.197 10.142-9.307 14.407-6.33-9.377-14.488-18.716-22.778-25.132v-174.14c8.747.078 16.261 4.093 23.471 9.083v-42.236l26.19 9.61v-32.937l3.823-.317c86.66-7.169 153.495 17.642 205.777 65.88 61.042-56.001 131.658-72.2 207.694-65.88l3.821.318v32.925l26.158-9.599v42.236c7.21-4.99 14.725-9.005 23.471-9.083v170.889c-9.478 7.601-19.588 17.624-25.734 27.544-1.172-4.356-2.852-8.772-6.07-10.622v-208.941l-17.825 6.681v204.748c2.129-3.137 4.658-5.892 7.784-8.072 7.768 6.505 12.75 17.239 14.939 27.464 14.238-23.366 29.024-34.928 43.967-43.154 1.747 33.094.344 65.98-19.319 97.665 8.889-3.721 17.784-6.571 26.704-5.702-1.861 44.202-17.156 73.967-43.948 91.376 8.221 3.186 13.87 9.471 14.935 16.014 5.575 34.249-45.601 23.289-25.492 0-6.093-5.113-14.041-3.253-19.57 1.638v13.083l-4.106.06c-3.315.048-6.629.139-9.939.274l-10.298 14.133c18.619-5.184 36.699-5.475 54.142 0-6.606 15.126-16.903 28.738-30.934 40.818l30.934 6.082c-27.195 35.056-60.506 50.565-99.687 47.314l23.368 16.347c-47.392 33.822-82.845 28.182-115.342 12.769-11.596 4.404-23.58 3.946-36.067-2.81 10.047 13.465 24.19 23.73 40.376 32.401l-25.171 18.538c-18.276-16.931-26.689-37.204-25.003-60.898l-2.846 2.075-2.847-2.075c1.686 23.694-6.727 43.967-25.003 60.898l-25.17-18.538c16.185-8.671 30.329-18.936 40.376-32.401-12.487 6.756-24.472 7.214-36.068 2.81-32.496 15.413-67.95 21.053-115.342-12.769l23.368-16.347c-39.181 3.251-72.492-12.258-99.687-47.314l30.935-6.082c-14.031-12.08-24.328-25.692-30.935-40.818 17.443-5.475 35.523-5.184 54.142 0l-10.196-13.993c-3.32-.178-6.68-.317-10.07-.415l-4.045-.118v-10.657c-5.417-6.552-14.862-9.878-21.86-4.005 20.109 23.289-31.067 34.249-25.492 0 1.065-6.543 6.714-12.828 14.935-16.014-26.794-17.409-42.084-47.174-43.944-91.376 8.92-.869 17.81 1.981 26.7 5.702-19.66-31.685-21.07-64.571-19.32-97.665 14.944 8.226 29.731 19.788 43.968 43.154 2.189-10.225 7.171-20.959 14.939-27.464 4.329 3.019 7.51 7.138 10.074 11.85zm204.218 318.002c1.374 24.476-11.512 35.788-21.526 49.752l-18.248-12.932c13.129-8.926 26.264-18.017 39.774-36.82zm12.647 0c-1.374 24.476 11.513 35.788 21.526 49.752l18.248-12.932c-13.129-8.926-26.264-18.017-39.774-36.82zm76.883-14.529c2.153-1.99 4.352-4.14 6.612-6.472l-19.083-7.957 2.235-1.754c10.683-.434 21.326-1.62 31.873-4.607 8.582 4.631 17.943 8.934 29.831 12.174l21.011 16.45c-2.36 1.571-4.731 3.089-7.115 4.543-27.928 17.035-57.632 25.283-92.786 6.555 8.05-3.856 15.708-8.703 23.92-15.8 14.237.68 26.981 2.88 38.372 6.461l1.933-3.372c-10.897-2.961-22.95-5.173-36.803-6.221zm-166.413 0c-2.152-1.99-4.351-4.14-6.612-6.472l19.084-7.957-2.236-1.754c-10.682-.434-21.325-1.62-31.873-4.607-8.582 4.631-17.943 8.934-29.831 12.174l-21.011 16.45c2.36 1.571 4.731 3.089 7.115 4.543 27.928 17.035 57.632 25.283 92.786 6.555-8.05-3.856-15.707-8.703-23.92-15.8-14.236.68-26.98 2.88-38.372 6.461l-1.932-3.372c10.896-2.961 22.95-5.173 36.802-6.221zm76.414 1.342c-16.776-16.179-33.199-30.073-77.138-6.739 11.778 13.081 28.55 22.168 43.987 24.625 14.938 2.377 28.624-1.456 35.322-13.887-13.16-4.622-26.277-6.207-39.331-3.318v-2.951c11.915-2.956 24.35-1.819 37.16 2.27zm13.586 0c16.776-16.179 33.198-30.073 77.138-6.739-11.778 13.081-28.551 22.168-43.988 24.625-14.938 2.377-28.624-1.456-35.322-13.887 13.161-4.622 26.277-6.207 39.331-3.318v-2.951c-11.914-2.956-24.349-1.819-37.159 2.27zm41.918-73.557c-33.16 13.462-48.53 32.313-47.829 56.032 3.63-9.727 8.813-18.937 19.299-26.384l1.361 1.271c-11.292 9.296-17.137 19.847-18.741 31.374l11.832-6.261c5.547-14.948 16.243-26.547 28.778-36.95zm-97.423 0c33.16 13.462 48.531 32.313 47.829 56.032-3.63-9.727-8.813-18.937-19.298-26.384l-1.361 1.271c11.292 9.296 17.137 19.847 18.741 31.374l-11.833-6.261c-5.546-14.948-16.243-26.547-28.777-36.95zm32.335 56.282c-21.269-40.48-54.196-51.936-88.467-47.498 10.795 19.857 22.832 33.827 38.07 47.248 25.824-9.415 39.068-2.853 50.866 5.545-14.039-12.913-30.715-24.149-54.827-30.652l1.672-2.284c24.48 5.626 39.918 15.941 52.686 27.641zm32.753 0c21.27-40.48 54.196-51.936 88.467-47.498-10.795 19.857-22.831 33.827-38.069 47.248-25.824-9.415-39.069-2.853-50.867 5.545 14.039-12.913 30.716-24.149 54.828-30.652l-1.673-2.284c-24.48 5.626-39.917 15.941-52.686 27.641zm-130.749-9.619c-19.006-11.406-39.675-21.417-59.556-27.159-21.642-6.25-42.35-7.443-58.956.131 26.141 35.668 83.232 49.348 120.185 31.79-20.724-5.204-41.194-10.268-60.379-9.097v-2.61c20.555-3.44 39.717 1.249 58.706 6.945zm228.746 0c19.005-11.406 39.675-21.417 59.555-27.159 21.643-6.25 42.35-7.443 58.956.131-26.141 35.668-83.232 49.348-120.185 31.79 20.724-5.204 41.194-10.268 60.38-9.097v-2.61c-20.556-3.44-39.718 1.249-58.706 6.945zm-205.05-11.425c-8.387-9.057-14.91-19.243-20.678-29.886h5.78l-16.764-23.073c-15.401-4.719-29.363-6.958-41.715-6.425 14.23 63.105 64.315 75.571 86.561 75.571l-9.006-10.148c-18.754-9.013-36.56-18.85-48.444-33.846l2.473-2.079c11.329 12.754 26.105 21.809 41.793 29.886zm181.353 0c8.387-9.057 14.911-19.243 20.679-29.886h-5.78l16.763-23.073c15.401-4.719 29.363-6.958 41.715-6.425-14.23 63.105-64.314 75.571-86.56 75.571l9.005-10.148c18.755-9.013 36.56-18.85 48.444-33.846l-2.473-2.079c-11.329 12.754-26.105 21.809-41.793 29.886zm-239.247-15.603c-8.818-11.191-14.932-23.278-19.217-35.973-19.437-11.075-40.507-18.053-66.68-12.217 5.727 13.243 16.371 26.374 31.131 39.412 18.218 2.41 36.167 4.041 57.609 15.811-16.78-13.144-34.245-25.218-52.893-35.46l2.147-2.045c16.307 8.872 32.232 19.195 47.903 30.472zm297.141 0c8.819-11.191 14.933-23.278 19.217-35.973 19.438-11.075 40.507-18.053 66.681-12.217-5.728 13.243-16.372 26.374-31.132 39.412-18.218 2.41-36.167 4.041-57.609 15.811 16.78-13.144 34.246-25.218 52.893-35.46l-2.147-2.045c-16.306 8.872-32.232 19.195-47.903 30.472zm-201.201-34.332c18.384 9.61 35.583 20.846 51.741 33.515 17.305-12.97 34.627-23.894 51.957-32.993v-30.65l12.596-5.815c16.474-7.817 19.672-19.734 19.428-34.305v-163.593h-32.024v-195.464c-16.999 9.587-33.414 21.639-49.159 36.479l-2.867 2.702-2.859-2.711c-14.973-14.205-31.2-26.388-48.813-36.334v195.328h-32.023v163.593c-.245 14.571 2.954 26.488 19.427 34.305l12.596 5.815zm176.889-19.072c-13.132 3.441-26.256 7.767-39.374 13.082l-6.227 26.039h12.023l11.174-23.827h2.119l-10.998 23.827h9.623c8.899-11.933 17.455-26.226 21.66-39.121zm-248.357.485c4.26 12.768 12.713 26.852 21.5 38.636h9.623l-10.998-23.827h2.119l11.175 23.827h12.022l-6.147-25.707c-12.561-5.053-25.646-9.381-39.294-12.929zm198.894-206.758h-151.489v150.309c0 10.24.624 16.49 4.014 21.489 2.327 3.431 5.977 6.37 11.957 9.408l.246.115 59.527 25.5 59.652-25.554.121-.061c5.98-3.038 9.63-5.977 11.957-9.408 3.391-4.999 4.015-11.249 4.015-21.489zm135.778 177.882c7.441-5.262 16.091-4.281 25.858 2.456-10.213 7.161-7.128 18.431 4.09 18.431 8.568 0 13.723-7.287 12.21-16.388-2.419-14.55-20.507-21.32-42.158-12.658zm-421.115-7.19c-22.651-10.096-41.944-3.372-44.448 11.689-1.513 9.101 3.642 16.388 12.21 16.388 11.218 0 14.303-11.27 4.09-18.431 10.786-7.441 20.211-7.86 28.148-.603zm277.003-162.359h-134.822v141.976c0 7.967-.06 12.922 2.578 16.812 1.677 2.473 4.439 4.413 8.724 6.598l56.109 24.037 56.11-24.037c4.284-2.185 7.046-4.125 8.723-6.598 2.638-3.89 2.578-8.845 2.578-16.812zm-120.467 19.171c2.418 1.637 4.713 3.018 6.817 4.645 14.441 11.167 21.018 26.252 22.419 44.15.811 10.354 2.403 20.647 3.64 30.968.021.174.003.353.003.305-1.996.435-4.018.568-5.773 1.322-3.688 1.583-5.463 5.369-4.849 9.558.559 3.811 3.639 6.698 7.918 7.423 4.829.818 4.895.849 8.005-5.67 6.381-13.377 10.989-27.314 10.824-42.277-.131-11.877-1.214-23.741-1.785-35.616-.328-6.809-1.391-13.726 1.455-20.272 1.196-2.751 2.892-5.285 4.826-8.75 1.934 3.544 3.633 6.167 4.855 8.996 2.736 6.34 1.721 13.043 1.4 19.632-.481 9.885-1.084 19.765-1.725 29.641-.894 13.766 1.819 26.914 6.848 39.625 2.105 5.32 4.653 10.464 6.908 15.486 7.963.634 13.423-4.307 12.927-11.246-.256-3.571-3.917-7.145-7.625-7.398-1.001-.068-2.01-.01-3.097-.01.392-3.263.754-6.335 1.132-9.406 1.35-10.958 2.413-21.962 4.146-32.859 1.545-9.715 5.759-18.493 12.584-25.586 4.346-4.517 9.621-8.14 14.485-12.157.185-.153.431-.232.767-.408v129.563h-29.334c-1.754 4.659-3.077 9.083-5.043 13.199-3.572 7.479-9.09 13.416-15.745 18.324-.719.53-1.268 1.304-1.846 2.006-.575.697-1.087 1.446-1.578 2.106-1.212-1.389-2.336-2.834-3.619-4.119-3.709-3.715-7.794-7.103-11.153-11.105-4.699-5.597-7.366-12.311-8.904-19.458-.071-.332-.626-.796-.96-.8-9.368-.113-18.736-.175-28.105-.247-.259-.002-.519-.03-.818-.049zm-119.296-262.437c-9.367-.141-19.002.139-28.907.853v421.264c9.872.381 19.501 1.097 28.907 2.135zm345.041 424.063c10.164-1.096 20.331-1.749 30.501-2.003v-421.21c-10.276-.751-20.448-1.072-30.501-.917zm-167.722-31.883v18.8c5.062-5.49 8.425-11.649 10.132-18.8zm-19.127 0c.034 4.018 7.425 17.704 10.042 18.584v-18.584zm-195.432-67.813c-6.935-10.911-15.179-21.502-29.431-23.841-6.255 56.39 6.542 86.033 29.431 101.406v-48.13l-17.576-23.937.807-3.127 16.769 20.144zm421.115 75.954c21.445-15.801 33.184-45.315 27.141-99.795-12.718 2.087-20.652 10.747-27.141 20.34v23.266l14.48-17.394.806 3.127-15.286 20.818zm32.846-70.456c7.58-8.951 19.365-15.091 36.412-17.717-.895 34.379-13.471 63.679-43.553 85.37-7.214-.577-14.187.288-20.925 2.563 5.64-4.714 10.562-9.736 14.65-16.01.135-.207.402-.626.402-.626 9.234-6.101 20.016-19.557 20.541-35.359-3.948 15.802-18.079 30.732-16.585 28.097 5.93-10.455 8.203-25.33 9.058-46.318zm-489.097 0c-7.579-8.951-19.365-15.091-36.415-17.717.9 34.379 13.47 63.679 43.556 85.37 7.214-.577 14.187.288 20.925 2.563-5.64-4.714-10.562-9.736-14.65-16.01-.135-.207-.402-.626-.402-.626-9.234-6.101-20.016-19.557-20.541-35.359 3.948 15.802 18.079 30.732 16.585 28.097-5.93-10.455-8.203-25.33-9.058-46.318zm261.095 53.261c-.534-3.726-1.049-7.324-1.577-11.01-3.53.412-6.124 1.9-7.776 4.503-1.19 1.875-1.751 4.148-2.699 6.507zm-31.886-.003h12.234c-1.272-2.691-1.96-5.365-3.58-7.226-1.625-1.867-4.181-2.923-6.947-4.741-.667 4.675-1.18 8.274-1.707 11.967zm-7.151-13.143-.011-.005c-.125-.043-.252-.084-.383-.106-7.878-1.333-13.576-5.316-16.087-13.197-.052-.164-.3-.376-.46-.379-1.552-.028-3.104-.017-4.7-.017v26.832h19.819zm67.827-13.566c-.865-.04-1.785-.27-2.6-.071-1.008.246-2.506.616-2.795 1.334-1.929 4.797-5.078 8.389-9.799 10.439-2.076.902-4.354 1.339-6.426 1.954.596 4.328 1.193 8.664 1.795 13.036h19.825zm-67.827 13.566.003.001-.003-.002zm13.89-6.351c3.018 2.044 6.237 4.224 9.187 6.222 2.998-2.019 6.237-4.199 9.239-6.22-3.084-6.962-6.313-14.253-9.227-20.833-2.913 6.596-6.134 13.892-9.199 20.831zm-35.52-83.264v66.957c1.069 0 2.087-.085 3.084.02 1.444.151 1.889-.571 2.621-1.768 1.737-2.839 3.895-5.436 6.018-8.018.955-1.161 3.122-1.172 2.53-3.708-.71-3.036-.738-6.224-1.21-9.324-1.723-11.332-1.208-23.13-6.69-33.688-1.739-3.351-3.911-6.476-6.353-10.471zm89.482.818c-.27.218-.357.268-.417.34-4.682 5.653-8.179 12.003-9.463 19.212-1.477 8.291-2.293 16.701-3.372 25.062-.432 3.351-.798 6.711-1.193 10.058 4.813 2.503 7.829 6.328 9.399 11.409h5.046zm-289.91 43.602c-21.505-25.057-33.985-64.951-28.245-98.717 26.507 16.292 45.805 45.91 53.775 78.357-5.767-4.57-12.213-8.218-20.864-8.875l-12.685-33.483-1.902 4.485 11.409 31.106c-1.827 9.466-1.827 18.48-1.488 27.127zm489.097 0c21.501-25.057 33.986-64.951 28.241-98.717-26.503 16.292-45.801 45.91-53.771 78.357 5.767-4.57 12.213-8.218 20.864-8.875l12.685-33.483 1.902 4.485-11.409 31.106c1.827 9.466 1.827 18.48 1.488 27.127zm-233.192-218.461c3.897-8.034 10.14-12.051 18.73-12.051 4.003 0 7.72 1.099 11.151 3.296s5.147 5.598 5.147 10.203c0 5.237-2.694 10.625-8.081 16.163l-16.253 16.839h12.867c4.725 0 7.524-2.859 8.397-8.578h4.154l-2.303 18.736h-34.763v-2.031c11.407-14.026 18.345-23.537 20.813-28.533s3.702-9.315 3.702-12.957c0-2.739-.64-4.846-1.919-6.321-1.279-1.474-2.957-2.212-5.034-2.212-2.498 0-4.492 1.024-5.982 3.07-.279.383-.531.79-.758 1.219 2.657 1.216 4.504 3.898 4.504 7.008 0 4.251-3.451 7.703-7.702 7.703s-7.702-3.452-7.702-7.703c0-1.402.375-2.717 1.032-3.851zm85.593 30.457.011.02c-2.903.17-5.671-.069-8.359-.554v3.895c0 1.746.579 3.273 1.738 4.583 1.159 1.309 2.791 1.964 4.898 1.964v4.243h-24.65v-4.243c5.297 0 7.946-2.589 7.946-7.766v-3.999c-6.538-2.628-13.183 1.877-20.361 1.877v-4.334l26.095-38.103h4.334v38.284c.903.812 2.167 1.203 3.58 1.422-.436-.772-.685-1.663-.685-2.611 0-2.939 2.386-5.324 5.324-5.324s5.324 2.385 5.324 5.324c0 2.895-2.316 5.253-5.195 5.322zm-131.771 7.167c1.326 1.694 3.002 2.54 5.028 2.54 2.252 0 4.103-1.584 5.555-4.754s2.178-6.977 2.178-11.421v-3.466c-3.437 2.548-7.229 3.821-11.377 3.821-4.503 0-8.087-1.585-10.754-4.754-2.666-3.17-3.999-7.229-3.999-12.177 0-5.065 1.681-9.576 5.044-13.531 3.362-3.955 7.532-5.932 12.509-5.932 5.155-.03 9.739 2.429 13.754 7.376 4.014 4.948 6.021 11.525 6.021 19.731 0 8.502-2.133 15.553-6.399 21.152-4.266 5.6-9.54 8.399-15.82 8.399-6.222 0-11.08-2.385-14.576-7.154l.126-.085c-.725-1.162-1.143-2.534-1.143-4.003 0-4.185 3.397-7.582 7.581-7.582s7.581 3.397 7.581 7.582c0 1.578-.483 3.044-1.309 4.258zm-59.057-40.476v-2.646c6.458-.326 16.655-3.412 21.958-6.552h7.882v2.392h-5.882v41.824c0 1.925.444 3.606 1.333 5.043.888 1.437 3.051 2.156 6.488 2.156v4.266h-26.219v-4.178c5.185 0 7.777-2.518 7.777-7.554v-29.018c0-3.822-2.163-5.733-6.488-5.733zm172.412 27.987v-21.023l-15.53 22.212c5.972-1.52 11.107-2.628 15.53-1.189zm-100.417-9.145c-.148-9.539-.963-15.901-2.444-19.086s-3.673-4.777-6.577-4.777c-2.103 0-3.821.992-5.155 2.977-1.333 1.985-2.014 4.607-2.044 7.866 0 3.555.867 7.169 2.6 10.843 1.733 3.673 4.081 5.51 7.043 5.51 2.133 0 4.326-1.111 6.577-3.333z" transform="translate(3058.02)"/></g></svg>