<svg clip-rule="evenodd" fill-rule="evenodd" stroke-linejoin="round" stroke-miterlimit="2" viewBox="0 0 973 706" xmlns="http://www.w3.org/2000/svg"><g fill="#fff" transform="matrix(3.09344 0 0 3.09344 1068.13 -263.04)"><path d="m-215.933 239.066h14.455v4.32l-12.952 5.541h12.9l.052 28.408c-4.964 0-9.267-.277-14.455-1.054zm55.563 0h-14.456v4.32l12.934 5.541h-12.934v28.408c4.964 0 9.267-.277 14.456-1.054zm-60.614 36.56v-9.71h-5.57v9.046l-1.863-.222v-8.824h-5.569v8.16l-2.002-.238v-18.887h17.006v20.913zm65.664 0v-9.71h5.57v9.046l1.863-.222v-8.824h5.57v8.16l2.001-.238v-18.887h-17.006v20.913zm-98.407-36.115h14.456v33.725c-4.966-.712-9.824-1.638-14.456-3.01zm131.15 0h-14.456v33.725c4.966-.712 9.824-1.638 14.456-3.01zm-137.101 28.172v-13.01h-14.316v7.974c-1.71-.748-3.418-1.565-5.123-2.471v-10.593h24.229v19.475c-1.597-.453-3.194-.906-4.79-1.375zm144.592 0v-13.01h14.317v7.974c1.709-.748 3.417-1.565 5.123-2.471v-10.593h-24.23v19.475c1.597-.453 3.195-.906 4.79-1.375zm-34.664-11.004h-5.57v7.795h5.57zm7.433 0h-5.57v7.795h5.57zm-91.669 0h5.569v7.795h-5.569zm7.432 0h5.57v7.795h-5.57zm-9.434-13.945h17.006v8.926h-17.006zm95.672 0h-17.006v8.926h17.006zm-68.467 4.987 20.631-7.573 20.631 7.573zm-78.022-19.768v-21.091h11.113v21.091h20.804v2.028h-20.804v11.489h20.804v2.029h-39.677l-1.777-2.029h9.537v-11.489h-16.64l-1.414-2.028zm198.846 0v-21.091h-11.112v21.091h-20.805v2.028h20.805v11.489h-20.805v2.029h39.677l1.777-2.029h-9.537v-11.489h16.641l1.413-2.028zm-69.363 4.87h-20.147v5.078h20.147zm37.591 0h-20.148v5.078h20.148zm-136.842 0h20.148v5.078h-20.148zm37.591 0h20.147v5.078h-20.147zm78.254 1.836h-15.866v1.519h15.866zm-56.68 1.519v-1.519h18.512v1.519zm-38.167-1.519h15.865v1.519h-15.865zm112.998-4.795h-14.456v1.689h14.456zm-37.741 0h-14.455v1.689h14.455zm-55.668 0h14.456v1.689h-14.456zm-37.741 0h14.456v1.689h-14.456zm80.51-65.674h11.343l1.556 64.033h-14.455zm-67.61 0h-11.343l-1.557 64.033h14.456zm37.74 0h-11.343l-1.556 64.033h14.456zm67.611 0h11.343l1.556 64.033h-14.456zm-4.84 57.836h-17.006v6.197h17.006zm-95.672 0h17.006v6.197h-17.006zm56.846-.395h-18.02v6.566h18.02zm61.125 3.504h15.297v-20.944s0-7.277-7.648-7.277c-7.649 0-7.649 7.277-7.649 7.277zm-138.73 0h-15.297v-20.944s0-7.277 7.649-7.277c7.648 0 7.648 7.277 7.648 7.277zm-33.283 0h-15.297v-20.944s0-7.277 7.649-7.277c7.648 0 7.648 7.277 7.648 7.277zm205.296 0h15.297v-20.944s0-7.277-7.648-7.277c-7.649 0-7.649 7.277-7.649 7.277zm6.781-8.461h-5.01v6.746h5.01zm-225.603 0h5.01v6.746h-5.01zm6.746 0h5.009v6.746h-5.009zm225.602 0h-5.01v6.746h5.01zm-199.065 0h5.01v6.746h-5.01zm6.745 0h5.01v6.746h-5.01zm152.292 0h-5.01v6.746h5.01zm6.746 0h-5.01v6.746h5.01zm42.382-9.812h-4.557l-.09 16.032c2.156-4.728 3.675-10.353 4.647-16.032zm-250.547 0h4.556l.091 16.032c-2.157-4.728-3.676-10.353-4.647-16.032zm172.339-21.09s0-8.408-8.503-8.408-8.503 8.408-8.503 8.408v34.193h17.006zm-95.672 0s0-8.408 8.503-8.408 8.503 8.408 8.503 8.408v34.193h-17.006zm56.846-2.557s0-8.909-9.01-8.909-9.01 8.909-9.01 8.909v36.232h18.02zm-54.877 26.784h5.569v7.795h-5.569zm91.735 0h-5.57v7.795h5.57zm-7.499 0h-5.57v7.795h5.57zm-76.737 0h5.569v7.795h-5.569zm45.292-1.112h-5.902v8.26h5.902zm-7.946 0h-5.902v8.26h5.902zm117.966-.699h-5.01v6.747h5.01zm-40.028 0h-5.01v6.747h5.01zm6.746 0h-5.01v6.747h5.01zm26.537 0h-5.01v6.747h5.01zm-185.575 0h5.01v6.747h-5.01zm-6.745 0h5.01v6.747h-5.01zm-26.537 0h5.009v6.747h-5.009zm-6.746 0h5.01v6.747h-5.01zm69.537-7.993h5.569v7.795h-5.569zm91.735 0h-5.57v7.795h5.57zm-7.499 0h-5.57v7.795h5.57zm-76.737 0h5.569v7.795h-5.569zm45.292-1.697h-5.902v8.26h5.902zm-7.946 0h-5.902v8.26h5.902zm-107.636.295c3.649.726 5.114 3.58 5.009 7.641h-5.009zm33.282 0c3.65.726 5.114 3.58 5.01 7.641h-5.01zm152.292 0c-3.649.726-5.114 3.58-5.01 7.641h5.01zm1.73 0c3.65.726 5.115 3.58 5.01 7.641h-5.01zm31.553 0c-3.65.726-5.114 3.58-5.01 7.641h5.01zm1.73 0c3.65.726 5.114 3.58 5.01 7.641h-5.01zm-189.035 0c-3.65.726-5.114 3.58-5.01 7.641h5.01zm-33.283 0c-3.649.726-5.114 3.58-5.01 7.641h5.01zm210.582 1.944h-11.112v4.327h11.112zm-198.846 0h11.113v4.327h-11.113zm-26.664 0h5.461v4.327h-4.895c-.213-1.422-.4-2.866-.566-4.327zm252.174 0h-5.46v4.327h4.894c.213-1.422.4-2.866.566-4.327zm-252.174-3.54h7.662v2.029h-7.662zm24.432 0h15.576v2.029h-15.576zm227.742 0h-7.662v2.029h7.662zm-24.432 0h-15.576v2.029h15.576zm-56.557-6.807h-5.57v7.795h5.57zm-7.499 0h-5.57v7.795h5.57zm-84.236 0h5.569v7.795h-5.569zm7.499 0h5.569v7.795h-5.569zm37.346-2.281h-5.902v8.26h5.902zm7.946 0h-5.902v8.26h5.902zm-132.222 7.965h5.109c1.639-4.136 5.677-7.065 10.393-7.065 4.717 0 8.755 2.929 10.393 7.065h11.637c1.638-4.136 5.676-7.065 10.393-7.065 4.716 0 8.754 2.929 10.393 7.065h.396l.188-9.979c-3.03-2.365-6.84-3.774-10.977-3.774-7.179 0-13.374 4.244-16.211 10.357-2.838-6.113-9.033-10.357-16.212-10.357-6.029 0-11.365 2.994-14.6 7.575-.513 1.979-.824 4.034-.902 6.178zm252.136 0h-5.109c-1.638-4.136-5.676-7.065-10.393-7.065s-8.755 2.929-10.393 7.065h-11.636c-1.639-4.136-5.677-7.065-10.393-7.065-4.717 0-8.755 2.929-10.394 7.065h-.396l-.188-9.979c3.03-2.365 6.84-3.774 10.978-3.774 7.178 0 13.374 4.244 16.211 10.357 2.837-6.113 9.032-10.357 16.211-10.357 6.03 0 11.365 2.994 14.6 7.575.513 1.979.825 4.034.902 6.178zm-86.546-16.539c4.057.838 5.686 4.136 5.57 8.829h-5.57zm-1.923 0c-4.058.838-5.686 4.136-5.57 8.829h5.57zm-78.661 0c-4.057.838-5.686 4.136-5.57 8.829h5.57zm1.924 0c4.057.838 5.685 4.136 5.569 8.829h-5.569zm37.346-2.929c-4.299.888-6.025 4.383-5.902 9.355h5.902zm2.038 0c4.299.888 6.025 4.383 5.902 9.355h-5.902zm28.705-7.195c2.819-1.605 6.078-2.522 9.55-2.522 3.523 0 6.827.944 9.674 2.593v11.295c-1.906-3.373-5.526-5.652-9.674-5.652-4.059 0-7.613 2.183-9.55 5.438zm-59.442 0c-2.818-1.605-6.078-2.522-9.55-2.522-3.523 0-6.827.944-9.674 2.593v11.295c1.907-3.373 5.526-5.652 9.674-5.652 4.059 0 7.613 2.183 9.55 5.438zm19.536-3.533c2.986-1.7 6.44-2.671 10.119-2.671 3.733 0 7.235 1 10.251 2.747v11.969c-2.02-3.575-5.856-5.989-10.251-5.989-4.301 0-8.067 2.312-10.119 5.761zm126.628 1.011h-49.384l.642 8.731h52.978c-1.097-3.428-2.107-6.215-4.236-8.731zm-231.345 0h49.383l-.641 8.731h-52.979c1.097-3.428 2.107-6.215 4.237-8.731zm178.921-5.931h-11.343v1.689h11.343zm-128.037 0h11.343v1.689h-11.343zm37.74 0h11.343v1.689h-11.343zm52.556 0h-11.343v1.689h11.343zm-94.699-1.425v-5.078h136.842v5.078zm-37.464-4.951h35.978v1.97h-37.98zm213.31 0h-35.977v1.97h37.979zm-168.531-2.399v-9.941h122.213v9.941zm165.017-2.094h-40.115v1.97h42.117zm-206.281 0h40.114v1.97h-42.116zm65.919-5.759h1.946v5.765h-1.946zm-3.942 0h1.946v5.765h-1.946zm-3.942 0h1.946v5.765h-1.946zm-3.942 0h1.946v5.765h-1.946zm-3.942 0h1.946v5.765h-1.946zm68.96 0h-1.946v5.765h1.946zm-15.768 5.765v-5.765h-1.946v5.765zm35.478-5.765h-1.946v5.765h1.946zm-3.942 0h-1.946v5.765h1.946zm-3.942 0h-1.946v5.765h1.946zm-3.942 0h-1.946v5.765h1.946zm-3.942 0h-1.946v5.765h1.946zm-53.192 0h1.946v5.765h-1.946zm45.308 0h-1.946v5.765h1.946zm-3.942 0h-1.946v5.765h1.946zm-3.942 0h-1.946v5.765h1.946zm35.478 0h-1.946v5.765h1.946zm7.884 0h-1.946v5.765h1.946zm-104.438 0h1.946v5.765h-1.946zm112.322 0h-1.946v5.765h1.946zm-11.826 0h-1.946v5.765h1.946zm7.884 0h-1.946v5.765h1.946zm-57.134 0h1.946v5.765h-1.946zm-3.942 0h1.946v5.765h-1.946zm-3.942 0h1.946v5.765h-1.946zm-3.942 0h1.946v5.765h-1.946zm-3.942 0h1.946v5.765h-1.946zm-3.942 0h1.946v5.765h-1.946zm-3.942 0h1.946v5.765h-1.946zm-39.854-4.424v-5.078h136.842v5.078zm69.543-25.888 22.791 7.379v12.122h-48.59v-12.122zm-44.829 11.312h-10.518v8.189h10.518zm100.264 0h-10.518v8.189h10.518zm-43.162-1.123c-9.226-4.78-18.412-4.983-27.554 0v5.217h27.554zm-55.705-2.81h-13.311v2.81h13.311zm100.263 0h-13.311v2.81h13.311z"/><path d="m-189.041 281.696.889.028c32.296-.983 64.214-4.575 89.888-15.753 3.779-2.454 7.921-3.254 9.02-.388 3.383 8.821 13.616 19.717 13.517 19.804-21.587 18.909-69.135 26.725-111.427 27.595l-.998.019c-1.246-.023-2.498-.051-3.754-.086l-.05-.001c-41.572-1.152-87.51-9.036-108.621-27.527-.099-.087 10.134-10.983 13.517-19.804 1.1-2.866 5.241-2.066 9.02.388 25.438 11.075 57.005 14.703 88.999 15.725zm-88.161 12.596c30.001 9.224 60.174 13.81 90.53 13.517 30.356-.292 60.894-5.463 91.622-15.751-61.597 23.503-122.259 22.814-182.152 2.234zm95.365.005 2.047-.051.03 1.218c.255-.423.606-.771 1.052-1.042.447-.272.946-.415 1.498-.428.963-.025 1.79.332 2.481 1.071.69.738 1.052 1.781 1.086 3.13.035 1.385-.277 2.47-.934 3.255-.658.785-1.469 1.189-2.432 1.213-.458.012-.875-.069-1.252-.242s-.777-.476-1.199-.908l.104 4.178-2.194.055zm-2.868 8.309-6.281-.036-.012 2.187-1.782-.01.023-3.984.899.005c.377-.415.691-1.064.94-1.948.25-.884.405-2.399.464-4.544l6.695.038-.037 6.5.891.005-.023 3.984-1.789-.01zm25.523-12.59 7.874-.797.96 9.482 1.003-.101.445 4.399-1.912.194-.252-2.487-7.174.726.252 2.487-1.912.194-.446-4.4.964-.097c.373-1.022.569-2.185.589-3.487.02-1.303-.07-2.939-.269-4.908zm-41.677 3.967 2.194.073-.101 3.038 3.139.104.101-3.037 2.202.074-.277 8.292-2.202-.074.117-3.482-3.139-.105-.117 3.483-2.194-.074zm30.25 2.49-2.009-.254c.181-.812.535-1.426 1.06-1.84.526-.414 1.327-.649 2.404-.706.977-.052 1.712.025 2.202.231.491.206.844.482 1.058.827.214.346.346.995.396 1.947l.113 2.56c.039.728.103 1.263.191 1.605.089.343.24.706.453 1.091l-2.169.116c-.065-.143-.146-.355-.245-.637-.043-.128-.074-.212-.091-.253-.355.384-.741.678-1.158.883s-.867.32-1.351.346c-.853.045-1.537-.151-2.054-.587-.516-.437-.793-1.009-.83-1.717-.025-.468.065-.891.269-1.27.204-.378.502-.676.895-.892.393-.217.965-.418 1.716-.604 1.015-.247 1.715-.464 2.102-.651l-.012-.219c-.022-.421-.142-.716-.36-.884-.218-.169-.615-.237-1.192-.207-.39.021-.691.114-.901.279s-.373.443-.487.836zm-37.198-.351-1.967-.477c.271-.788.691-1.357 1.26-1.71.569-.352 1.391-.496 2.468-.432.977.059 1.698.218 2.163.478.464.26.783.574.957.941.174.368.232 1.028.175 1.979l-.176 2.557c-.043.728-.04 1.266.009 1.616.05.35.159.729.328 1.135l-2.168-.129c-.049-.149-.106-.369-.172-.66-.029-.132-.049-.22-.063-.262-.396.342-.812.591-1.249.747-.438.157-.898.221-1.381.192-.853-.051-1.511-.323-1.975-.815s-.674-1.091-.632-1.798c.028-.468.164-.879.41-1.232.245-.353.575-.615.99-.786.414-.171 1.005-.307 1.773-.407 1.036-.131 1.756-.268 2.161-.411l.013-.218c.025-.422-.061-.728-.258-.92s-.584-.305-1.161-.339c-.39-.023-.699.035-.927.175-.227.141-.42.399-.578.776zm-3.171-.281-2.189.206c-.036-.437-.173-.776-.412-1.016-.238-.239-.562-.377-.972-.412-.545-.046-.996.105-1.352.453-.356.349-.572.964-.648 1.846-.083.981.022 1.688.317 2.121s.721.673 1.276.72c.415.036.765-.053 1.05-.267.285-.213.506-.603.664-1.17l2.117.549c-.307.967-.799 1.675-1.475 2.124-.676.45-1.546.629-2.609.538-1.21-.103-2.141-.566-2.795-1.391-.653-.824-.923-1.911-.807-3.26.116-1.365.567-2.396 1.353-3.095.787-.699 1.795-.996 3.025-.891 1.006.086 1.788.371 2.346.855.557.484.927 1.181 1.111 2.09zm-14.491-3.862 2.175.235-.365 3.371c.367-.002.635-.086.805-.251s.394-.541.672-1.129c.368-.783.73-1.27 1.086-1.462s.803-.259 1.342-.201c.165.018.451.062.858.133l-.149 1.445c-.575-.062-.948-.048-1.121.044-.173.096-.383.417-.63.961-.336.734-.752 1.163-1.248 1.287.668.266 1.186.927 1.554 1.984.02.054.043.112.067.172l.973 2.408-2.345-.254-.829-2.502c-.171-.506-.33-.836-.479-.991-.148-.155-.382-.25-.703-.285l-.381 3.519-2.175-.236zm45.904 6.27c.023.932.225 1.616.606 2.052s.837.647 1.368.634c.51-.013.929-.228 1.257-.645.329-.417.481-1.092.458-2.024-.022-.869-.212-1.511-.572-1.924-.359-.413-.797-.613-1.312-.6-.536.014-.976.232-1.32.655-.344.422-.506 1.04-.485 1.852zm11.984-.154c-.276.109-.715.244-1.317.407-.601.162-.992.311-1.173.445-.275.219-.405.484-.388.796.016.306.145.566.386.777.24.212.538.308.891.289.395-.021.766-.171 1.111-.45.254-.212.416-.463.484-.753.047-.191.057-.549.029-1.074zm-18.387 2.707.035-4.696-2.656-.015c-.102 2.291-.476 3.854-1.121 4.689zm-19.013-2.727c-.286.077-.737.162-1.353.256s-1.022.197-1.216.311c-.298.185-.457.434-.475.746-.019.307.08.579.295.816.216.237.5.367.854.388.395.023.78-.084 1.154-.323.277-.182.465-.413.566-.694.068-.184.118-.538.149-1.063zm56.282-1.937c-.104-.721-.026-1.446.233-2.172s.689-1.314 1.29-1.764c.601-.449 1.304-.731 2.108-.847 1.242-.178 2.318.08 3.228.772.91.693 1.453 1.656 1.63 2.888.178 1.243-.075 2.33-.759 3.262-.685.932-1.635 1.486-2.852 1.66-.753.108-1.495.041-2.227-.201s-1.323-.667-1.773-1.273-.743-1.381-.878-2.325zm-81.112.983 2.118.658c-.387.757-.909 1.303-1.567 1.636-.658.334-1.438.439-2.341.316-1.43-.194-2.424-.805-2.983-1.833-.44-.822-.583-1.803-.428-2.944.186-1.362.687-2.381 1.504-3.055.817-.675 1.771-.938 2.859-.79 1.224.166 2.134.702 2.731 1.606.597.903.766 2.187.509 3.849l-5.45-.741c-.072.647.035 1.173.321 1.577.287.404.681.641 1.181.709.341.046.64-.008.897-.162.258-.154.474-.43.649-.826zm73.015-5.415c.35 3.461.292 6.017-.174 7.666l4.329-.439-.766-7.57zm17.223-.977 4.722-.885c.968-.182 1.725-.141 2.273.122.547.263.887.751 1.021 1.462.085.456.028.877-.173 1.265-.2.387-.489.674-.868.862.589.032 1.058.212 1.405.539s.563.716.648 1.167c.119.634-.018 1.194-.409 1.678-.392.484-1.043.811-1.954.982l-5.137.963zm-103.059-1.299 7.249 1.22-1.377 8.182-2.157-.363 1.081-6.426-2.95-.496-.619 3.675c-.157.934-.375 1.572-.655 1.914-.279.341-.56.548-.841.623-.282.074-.713.062-1.294-.036-.344-.058-.791-.181-1.34-.368l.268-1.595.88.188c.293.049.489-.017.588-.198.099-.182.223-.712.37-1.59zm96.177 6.505c.117.814.399 1.41.848 1.788s.957.526 1.524.444c.567-.081 1.012-.366 1.334-.854s.423-1.145.305-1.97c-.115-.804-.396-1.395-.842-1.773-.447-.378-.953-.526-1.52-.445-.567.082-1.013.367-1.338.855-.324.489-.428 1.14-.311 1.955zm21.036.394-.822-3.442c-.274.086-.453.195-.537.325s-.202.483-.353 1.06l-.461 2.576-2.295.549.608-2.499c.311-1.253.759-2.034 1.343-2.345-.508-.066-.975-.439-1.4-1.12-.319-.507-.569-.797-.75-.869-.18-.072-.554-.04-1.122.096l-.337-1.414c.414-.125.705-.208.872-.248.471-.113.899-.105 1.283.023.384.127.821.569 1.312 1.324.382.589.661.952.839 1.089.177.137.404.178.68.123l-.788-3.298 2.12-.507.788 3.298c.273-.065.459-.203.555-.414.097-.21.181-.661.251-1.353.094-.885.279-1.472.555-1.763s.67-.497 1.181-.62c.147-.035.434-.09.86-.165l.338 1.413c-.562.135-.909.275-1.04.421-.131.147-.224.519-.28 1.115-.071.799-.319 1.343-.742 1.632.662.013 1.414.508 2.258 1.484l1.672 1.954-2.295.549-1.568-2.092c-.281-.371-.518-.615-.708-.73-.191-.115-.431-.149-.719-.101l.822 3.442zm-10.712.765 1.704-.319c.615-.115 1.049-.273 1.303-.475.253-.201.344-.493.272-.877-.075-.4-.287-.645-.638-.735-.351-.091-.992-.049-1.924.126l-1.106.207zm-119.602-7.603c.238-1.143.608-2.066 1.111-2.77.374-.518.829-.958 1.364-1.32.536-.362 1.089-.598 1.66-.708.76-.15 1.596-.13 2.509.06 1.652.343 2.867 1.131 3.646 2.362.778 1.232.978 2.76.598 4.585-.377 1.811-1.164 3.125-2.361 3.942-1.197.818-2.619 1.055-4.266.712-1.667-.347-2.887-1.131-3.659-2.353-.773-1.222-.973-2.726-.602-4.51zm26.345 5.448c.07-.632-.027-1.132-.292-1.502s-.62-.585-1.063-.646c-.475-.064-.891.055-1.248.359-.356.303-.573.752-.648 1.347zm154.432-8.572c.719 2.001-1.345 3.132-3.888 4.114s-5.565 1.813-6.764 3.213c6.689 2.777 14.598-2.177 10.652-7.327zm-226.392 0c-.718 2.001 1.345 3.132 3.888 4.114s5.565 1.813 6.764 3.213c-6.689 2.777-14.598-2.177-10.652-7.327zm47.964 3.533c-.264 1.269-.171 2.293.279 3.07s1.126 1.26 2.029 1.448c.902.187 1.71.017 2.424-.513s1.207-1.445 1.477-2.745c.268-1.285.186-2.302-.246-3.052-.432-.749-1.115-1.221-2.048-1.415-.933-.195-1.752-.031-2.456.49s-1.191 1.427-1.459 2.717zm139.116.69 2.201-.275c-.04.849-.29 1.561-.751 2.137-.461.575-1.128.994-2.001 1.255-1.382.414-2.54.269-3.474-.436-.741-.566-1.276-1.401-1.606-2.504-.395-1.317-.359-2.451.106-3.404.465-.952 1.224-1.585 2.277-1.9 1.183-.355 2.233-.243 3.15.333s1.602 1.674 2.055 3.295l-5.269 1.577c.202.62.516 1.054.945 1.304.428.249.884.302 1.368.157.329-.099.579-.271.75-.518s.254-.587.249-1.021zm-22.498 3.118 1.39-.261c.671-.125 1.14-.301 1.408-.526s.367-.519.299-.882c-.064-.343-.249-.562-.556-.655-.306-.094-.815-.074-1.526.059l-1.39.261zm-127.003-.454 1.577-6.019 1.593.417-1.577 6.02zm-5.394-7.999 1.581.461-.638 2.188 2.261.66.638-2.189 1.586.463-1.741 5.974-1.587-.463.732-2.508-2.261-.66-.732 2.509-1.581-.461zm156.437-1.059 2.059-.762 1.055 2.85 2.946-1.09-1.056-2.85 2.067-.765 2.88 7.78-2.066.765-1.21-3.267-2.945 1.09 1.21 3.268-2.059.762zm-160.534 4.185 1.466.786c-.392.502-.854.83-1.386.982s-1.121.119-1.769-.1c-1.025-.346-1.671-.938-1.936-1.774-.208-.668-.173-1.41.103-2.228.33-.977.844-1.656 1.542-2.037.697-.381 1.437-.439 2.218-.175.877.296 1.471.82 1.782 1.57.311.751.254 1.72-.172 2.908l-3.908-1.321c-.145.466-.141.869.013 1.207.153.339.41.569.769.69.244.082.472.085.683.008.212-.077.41-.249.595-.516zm158.475.048c-.197-.604-.493-1.02-.887-1.247-.394-.228-.806-.277-1.235-.148-.459.137-.788.418-.987.842-.2.424-.211.922-.034 1.494zm10.359-7.36 1.986-.916 1.421 3.078c.313-.19.501-.4.561-.629.061-.229.06-.667-.004-1.314-.087-.861-.028-1.465.179-1.813.206-.347.556-.635 1.047-.862.152-.07.42-.179.804-.328l.616 1.316c-.525.243-.837.447-.938.614-.099.172-.114.555-.047 1.149.09.802-.046 1.384-.407 1.745.71-.115 1.494.186 2.352.902.046.037.095.074.147.113l2.073 1.565-2.142.988-1.998-1.719c-.407-.346-.713-.547-.92-.604-.207-.056-.457-.017-.75.119l1.483 3.213-1.986.917zm-178.89-.993 1.892.762-.185 4.6 3.065-3.44 1.886.759-2.324 5.772-1.299-.523 1.53-3.799-2.938 3.232-1.304-.525.187-4.34-1.53 3.8-1.304-.526zm-.821-12.376c32.157 12.281 64.967 17.887 96.755 17.763 31.789-.125 62.555-5.981 93.981-18.32-33.291 14.005-63.577 20.364-93.981 20.543-32.099.188-64.243-6.551-96.755-19.986zm22.159 18.719.386-1.474 1.593.417-.386 1.474zm-10.66.415c.141-.455.141-.837-.002-1.147s-.373-.519-.691-.627c-.341-.115-.664-.086-.97.087s-.529.473-.669.9zm-16.166-2.503 2.66-5.625 1.489.704-2.661 5.625zm193.642-4.913-1.912.663c-.199-.808-.154-1.515.134-2.119.287-.604.901-1.17 1.841-1.699.853-.48 1.545-.737 2.077-.77.531-.033.969.058 1.314.274.345.215.752.738 1.219 1.568l1.236 2.245c.358.636.652 1.087.883 1.354.231.268.528.527.89.777l-1.893 1.065c-.121-.099-.289-.253-.502-.461-.095-.096-.16-.158-.194-.187-.148.502-.364.937-.647 1.305-.282.368-.635.671-1.057.909-.744.419-1.445.547-2.101.384s-1.158-.553-1.505-1.17c-.23-.408-.338-.828-.323-1.257.016-.43.151-.829.407-1.197.256-.369.68-.803 1.271-1.303.8-.671 1.331-1.176 1.594-1.515l-.107-.191c-.207-.368-.445-.579-.715-.633-.269-.055-.656.06-1.16.343-.34.192-.568.408-.683.65-.116.241-.138.562-.067.965zm3.434.112c-.2.219-.533.535-1 .948-.467.412-.752.718-.854.919-.15.318-.149.613.005.885.15.268.381.443.69.526.31.083.619.037.927-.136.345-.194.611-.493.796-.896.135-.303.168-.599.1-.89-.042-.192-.192-.516-.45-.975zm-240.071-23.053c10.997-3.708 43.097-3.87 40.719 3.981-2.062-3.117-9.888-4.916-18.749-5.344-7.598-.367-15.957.274-22.098 1.956-1.213 5.501-3.095 10.862-5.542 16.103 11.657-4.453 41.191-7.18 39.641.563-2.354-2.904-10.316-3.94-19.178-3.512-7.189.348-14.97 1.659-20.827 3.719-.878 1.837-1.826 3.658-2.838 5.467 19.11-2.23 47.449-7.675 41.826 1.887 4.253-6.579 9.065-12.778 11.602-20.29 1.425-4.217-3.21-7.766-7.313-8.628-11.898-2.499-27.294-1.732-36.755 1.557-.147.851-.309 1.698-.488 2.541zm292.032 17.396c.975 2.086 2.04 4.153 3.187 6.203-19.11-2.23-46.502-8.341-40.879 1.221-4.253-6.579-9.065-12.778-11.602-20.29-1.425-4.217 3.21-7.766 7.313-8.628 11.898-2.499 27.587-2.849 35.808 2.224.108.628.225 1.254.351 1.878-10.986-3.712-43.109-3.877-40.73 3.977 2.062-3.117 9.888-4.916 18.749-5.344 7.6-.367 15.961.274 22.102 1.957 1.151 5.475 2.966 10.81 5.345 16.029-11.787-4.409-40.989-7.065-39.448.636 2.354-2.904 10.316-3.94 19.178-3.512 7.107.344 14.793 1.629 20.626 3.649zm-246.016 4.07.651-1.377 1.489.704-.652 1.377zm-43.249-28.413c-10.405-15.224-16.258-32.377-16.258-50.514 0-62.91 70.411-113.985 157.138-113.985s157.138 51.075 157.138 113.985c0 18.458-6.061 35.897-16.82 51.329-10.15-3.252-23.621-3.825-34.686.302 15.049-14.58 23.9-32.399 23.9-51.631 0-49.249-58.041-89.233-129.532-89.233-71.49 0-129.532 39.984-129.532 89.233 0 18.257 7.976 35.24 21.659 49.388-11.794-1.425-23.56-1.387-33.007 1.126zm17.224-9.118-.659-.803-.379-.077-7.59 5.175-.046.367.552.958-.695.474-4.873-7.146 2.704-1.843.678.994-1.483 1.408-.095.34 1.825 2.676 7.743-5.28.057-.395-.606-1.053.695-.474 2.868 4.205zm252.989-8.033-.459.884.077.337 5.351 3.374.763-1.21-.096-.368-1.351-1.091.624-.989 2.505 1.579-4.402 6.982-2.505-1.58.628-.996 1.567.749.374-.073.763-1.209-5.352-3.375-.346.091-.591.78-.655-.412 2.45-3.886zm-268.154-2.184.676-.378.521.76.332.094 5.398-3.017.094-.332-.374-.842.675-.377 2.188 3.914-.676.378-.545-.804-.328-.086-5.523 3.086.837 1.498c.374-.182.804-.386 1.293-.611.488-.224.999-.433 1.534-.626s1.075-.355 1.621-.487c.547-.132 1.063-.197 1.549-.196.486.002.925.089 1.317.262s.702.462.929.869c.205.367.261.683.168.947-.094.264-.287.478-.581.642-.093.052-.199.099-.317.139-.119.041-.244.058-.377.051-.132-.006-.268-.049-.408-.128-.141-.079-.277-.213-.409-.403l.289-1.328c-.39-.032-.83-.002-1.318.091-.487.093-.993.226-1.516.4-.523.173-1.05.374-1.58.603-.531.229-1.034.464-1.51.704l-.09.34.464 1.003-.676.378zm270.927.187-1.154-.552c-.05-.676-.021-1.321.086-1.935.107-.615.29-1.192.549-1.734.554-1.158 1.356-1.918 2.404-2.277 1.049-.36 2.16-.259 3.334.302 1.179.564 1.971 1.382 2.375 2.455.403 1.073.336 2.174-.204 3.302-.489 1.022-1.176 1.67-2.062 1.942-.885.273-1.885.143-2.998-.389l-.296-.141 2.431-5.086-.045-.022c-.886-.423-1.688-.533-2.407-.33-.719.204-1.264.695-1.637 1.474-.196.41-.325.861-.386 1.354-.062.493-.059 1.039.01 1.637zm3.837-.674.167.08c.633.303 1.173.418 1.621.346s.776-.325.984-.76c.227-.476.221-.948-.018-1.417s-.684-.874-1.334-1.216zm-275.408-.9-1.617-4.065.688-.274.417.776.292.074 3.839-3.528-5.204.051-.186.237.242.881-.688.274-1.222-3.072.688-.274.486.812 8.74.1c1.069.015 1.971.185 2.706.508s1.211.756 1.426 1.298c.15.375.159.746.03 1.111s-.353.611-.671.738c-.229.091-.47.104-.722.038-.253-.066-.5-.204-.741-.416l.4-1.771c-.259-.151-.596-.266-1.01-.345-.415-.08-.893-.123-1.434-.132l-6.013 5.688.242 1.017zm276.187-13.228-.232.968.155.309 6.005 1.991.45-1.357-.182-.335-1.573-.735.368-1.11 2.811.932-2.598 7.834-2.811-.932.371-1.118 1.7.351.346-.16.45-1.357-6.005-1.992-.313.171-.388.9-.734-.244 1.446-4.36zm-280.049 3.296-1.004-4.024.702-.176.257.613.2.036 1.657-1.835-2.452-.932.065.886-.735.183-.768-3.077.767-.192.345.894 3.309 1.446 2.97-3.386-.065-.92.735-.184.976 3.91-.653.163-.294-.551-.188-.022-1.869 2.027 2.695 1.001-.043-.9.735-.183.809 3.24-.735.184-.432-.933-3.573-1.597-2.749 3.158.106.979zm282.643-15.722-.076.917.198.283 6.09 1.074.282-.198.242-.888.763.134-.764 4.333-.763-.134.071-.885-.198-.282-4.192-.74 3.175 4.131.406.072.281-.19.237-.855.762.134-.763 4.325-.762-.134.075-.91-.198-.282-6.09-1.074-.282.198-.241.88-.762-.134.762-4.325.763.134-.071.885.2.274 4.324.763-3.167-4.13-.547-.096-.282.198-.237.855-.762-.134.764-4.334zm-285.443 3.244-.113-.825 7.378-1.008.224-.285-.064-.968.766-.105.612 4.476-.767.105-.193-.916-.292-.207-5.893.805.154 1.126-.684.093zm-3.868.715c-.051-.372.026-.694.229-.965.204-.272.486-.432.847-.481.378-.052.704.024.978.227s.436.488.486.855c.049.356-.03.669-.236.941-.206.271-.49.432-.851.481-.367.05-.689-.026-.966-.229s-.439-.479-.487-.829zm3.381-9.286c-.019-.701.026-1.227.134-1.577.052-.181.1-.331.144-.45.045-.119.086-.21.123-.273.178-.296.391-.504.64-.623.25-.119.528-.182.837-.191.516-.013.946.146 1.292.479.34.339.567.759.681 1.261l.043-.001c.015-.27.055-.54.121-.811s.173-.515.321-.732c.149-.218.346-.395.592-.534.246-.138.557-.212.932-.222.27-.008.512.02.726.081.215.062.407.146.575.254.169.108.315.239.44.392.125.154.231.317.32.488.178.338.297.708.358 1.11.061.397.096.744.104 1.041l.132 4.962-.774.021-.108-.915-.251-.237-6.181.165-.238.25-.057.986-.774.021zm285.919 4.511c-.29-.576-.501-1.132-.633-1.669-.132-.538-.19-1.075-.173-1.614.039-1.233.46-2.217 1.263-2.952.803-.736 1.835-1.083 3.096-1.044 1.307.041 2.364.491 3.173 1.35.81.858 1.194 1.935 1.153 3.23-.026.847-.223 1.526-.59 2.04-.366.513-.824.761-1.374.744-.342-.011-.62-.136-.834-.376-.214-.239-.316-.539-.304-.897.006-.197.038-.377.097-.54.058-.164.146-.32.262-.468l1.825.058c.026-.095.044-.177.054-.247.011-.07.017-.133.019-.189.02-.639-.265-1.184-.854-1.634-.589-.451-1.349-.691-2.279-.72-1.021-.032-1.833.181-2.436.639-.604.458-.918 1.097-.944 1.915-.012.37.042.759.161 1.167.119.407.301.823.546 1.246zm-282.352-2.999c.014-.096.022-.226.023-.392.001-.165-.001-.329-.005-.492-.004-.151-.023-.326-.056-.524-.033-.199-.1-.385-.2-.559s-.241-.32-.424-.439-.426-.174-.728-.166c-.46.013-.784.181-.972.506-.187.319-.276.692-.264 1.118.004.157.014.322.03.496.016.173.037.347.064.52zm3.826-.102c.059-.327.083-.667.074-1.02-.006-.241-.035-.479-.086-.713-.052-.235-.172-.447-.362-.639-.093-.098-.192-.174-.297-.227-.105-.054-.207-.093-.306-.119-.099-.025-.195-.041-.287-.047-.093-.005-.173-.008-.24-.006-.185.005-.366.038-.541.099s-.332.159-.472.294c-.139.136-.249.317-.33.544-.081.226-.117.508-.108.844.003.118.009.233.018.345.008.112.017.217.025.315s.017.182.028.251c.01.07.018.122.025.155zm273.18-14.39.794-.092.191.918.286.204 9.619-1.115-.135-1.162.686-.079 1.09 2.389.089.769-1.028.119c.436.497.765.953.988 1.368.223.414.358.819.404 1.215.108.93-.183 1.746-.873 2.447-.689.701-1.619 1.119-2.789 1.255-1.371.159-2.512-.124-3.423-.848-.911-.725-1.447-1.781-1.608-3.168-.027-.234-.047-.467-.06-.7-.012-.233-.018-.468-.018-.705l-2.733.308-.213.287.056 1.069-.794.092zm-272.12.517c.243.597.407 1.169.495 1.716.087.546.1 1.087.039 1.622-.14 1.226-.64 2.172-1.501 2.839-.861.666-1.918.928-3.172.785-1.298-.148-2.316-.684-3.051-1.606-.736-.922-1.031-2.027-.884-3.314.096-.842.348-1.503.756-1.984.408-.482.885-.691 1.431-.629.34.039.606.187.8.443s.27.563.23.919c-.023.196-.07.372-.141.531-.072.158-.172.306-.301.444l-1.814-.207c-.033.092-.057.172-.074.241-.016.069-.027.131-.034.187-.072.635.166 1.201.717 1.699.55.497 1.287.799 2.212.904 1.014.116 1.841-.029 2.48-.436.64-.407 1.006-1.017 1.098-1.831.042-.368.021-.76-.064-1.176s-.233-.845-.442-1.287zm277.277 2.18c-.018.188-.026.374-.025.557.002.184.013.367.035.551.089.769.458 1.346 1.106 1.731.649.385 1.478.519 2.486.402.897-.104 1.575-.384 2.033-.841s.646-1.039.564-1.747c-.021-.183-.071-.382-.15-.596-.078-.214-.189-.454-.333-.72zm-277.158-2.984.138-.911-.178-.295-6.003-1.482-.296.178-.301.87-.752-.186 1.083-4.386.752.186-.158.992.178.295 2.222.549c.034-.234.069-.445.104-.633s.08-.396.137-.625c.059-.239.131-.491.217-.756s.191-.523.317-.775.274-.488.443-.706.369-.397.6-.536.494-.232.788-.278c.295-.046.627-.023.997.069.343.085.63.203.861.355.231.153.417.33.558.532.141.203.244.423.309.662.065.238.103.484.112.738.01.254-.004.509-.042.765-.037.257-.085.505-.144.745l-1.19 4.819zm277.587-1.632-1.237.326c-.476-.483-.871-.994-1.187-1.531s-.551-1.096-.704-1.676c-.328-1.242-.209-2.339.357-3.292s1.479-1.596 2.737-1.928c1.263-.334 2.396-.223 3.399.333 1.002.556 1.663 1.439 1.983 2.648.289 1.095.184 2.034-.314 2.815-.498.782-1.344 1.33-2.537 1.645l-.317.084-1.44-5.45-.049.013c-.949.25-1.631.686-2.048 1.306-.416.621-.514 1.349-.293 2.184.116.439.31.866.582 1.282.272.415.628.829 1.068 1.241zm-277.055-1.608c.151-.332.264-.648.338-.948.043-.151.071-.323.084-.516s-.015-.384-.084-.571c-.07-.188-.197-.362-.382-.524-.186-.161-.456-.285-.81-.373-.174-.043-.357-.061-.55-.053-.192.007-.377.053-.553.136-.177.084-.338.214-.483.392s-.254.414-.326.708c-.057.229-.094.433-.113.614-.018.18-.028.319-.029.417zm279.543-1.39.179-.048c.678-.179 1.164-.441 1.459-.785.295-.345.381-.751.257-1.217-.134-.51-.444-.866-.93-1.068-.486-.203-1.087-.223-1.805-.063zm-277.776-4.463.265-.882-.136-.318-5.737-2.308-.317.136-.42.819-.718-.289 1.642-4.082.718.289-.252.851.136.317 2.247.905.362-.898c.102-.255.109-.485.019-.691-.09-.205-.228-.399-.414-.583l-.924-.971c-.184-.188-.345-.377-.484-.566s-.245-.378-.32-.569c-.075-.19-.114-.381-.118-.573-.005-.192.033-.387.112-.585.04-.099.101-.215.182-.349s.185-.25.313-.35.283-.166.465-.198c.182-.033.398.001.648.102.245.098.443.26.594.484.159.221.193.497.102.83l-1.077.736c.04.083.088.154.146.213.058.06.12.127.186.202l.894.913c.113.124.221.272.325.443.103.172.152.392.146.662l.031.013c.212-.362.494-.618.844-.767.182-.078.356-.141.52-.19.165-.048.327-.083.486-.104l2.229-.219.295-.171.458-.822.718.289-1.234 3.067-.515-.207-2.739-.023c-.221-.004-.444.057-.668.185-.224.127-.389.324-.495.589l-.189.469 2.591 1.042.318-.135.408-.788.718.289-1.643 4.082zm277.201-7.309c.269.647.416 1.154.441 1.52.017.187.026.345.027.472s-.004.226-.017.298c-.059.341-.183.611-.373.811-.19.201-.428.36-.713.479-.476.198-.936.203-1.378.016-.439-.194-.802-.505-1.089-.932l-.038.016c.082.257.141.524.177.801s.024.543-.037.799c-.06.256-.181.493-.36.71-.18.218-.444.398-.791.543-.248.103-.484.164-.707.184-.222.02-.432.009-.627-.031-.196-.04-.38-.109-.552-.208-.171-.099-.329-.212-.474-.341-.286-.251-.53-.553-.732-.907-.199-.348-.356-.66-.47-.934l-1.905-4.584.715-.297.429.814.319.132 5.711-2.373.131-.319-.3-.941.715-.297zm-7.406 1.337c.062.326.161.653.297.979.092.223.205.434.336.634.132.201.321.356.568.466.121.059.241.094.358.106s.227.012.328.001c.101-.012.197-.032.285-.06.089-.027.164-.054.226-.08.171-.071.328-.166.469-.286.142-.119.254-.267.335-.444.082-.177.119-.385.114-.626-.006-.24-.074-.516-.203-.827-.045-.108-.092-.214-.14-.315s-.094-.196-.137-.285c-.042-.088-.081-.163-.116-.225-.034-.061-.061-.107-.079-.136zm3.535-1.469c.021.095.06.219.119.374.058.155.118.308.181.458.058.14.138.296.24.47.103.173.232.322.387.449.156.127.341.212.554.258.213.045.459.009.739-.107.425-.177.666-.45.725-.821.061-.365.009-.745-.154-1.138-.06-.145-.129-.296-.206-.452s-.16-.311-.247-.462zm-269.639-1.67.38-.839-.092-.333-5.375-3.056-.333.091-.526.756-.673-.383 2.175-3.825.672.383-.363.809.091.333 3.701 2.104-1.604-4.957-.358-.204-.329.084-.51.726-.673-.382 2.171-3.818.673.383-.376.831.092.333 5.375 3.056.333-.091.522-.749.673.383-2.171 3.818-.673-.383.364-.809-.096-.326-3.818-2.17 1.597 4.953.483.274.333-.091.509-.727.673.383-2.174 3.825zm270.075-5.934.391.735-6.571 3.5-.112.345.395.886-.683.364-2.123-3.988.683-.364.498.793.345.093 5.25-2.796-.534-1.003.609-.324zm-13.936-7.675.58.715.339.067 5.136-3.444.067-.338-.441-.809.643-.431 2.45 3.655-.643.431-.562-.687-.338-.067-2.013 1.35 1.827 2.725 2.013-1.349.067-.339-.422-.78.643-.431 2.45 3.655-.643.431-.581-.715-.338-.067-5.137 3.443-.066.339.44.808-.643.431-2.45-3.655.643-.431.562.687.339.067 2.32-1.555-1.827-2.726-2.32 1.556-.067.338.422.781-.643.431-2.45-3.655zm17.317 5.665c.176.332.216.66.119.985s-.306.573-.628.744c-.337.179-.669.221-.996.126-.328-.096-.578-.307-.752-.634-.169-.317-.204-.639-.104-.965.099-.326.31-.575.632-.746.327-.174.655-.214.985-.12.33.095.578.298.744.61zm-267.873-1.703.487-.782-.047-.342-4.928-3.735-.342.047-.621.68-.617-.467 2.658-3.507.617.468-.467.754.047.342 3.393 2.572-.94-5.125-.328-.249-.337.04-.601.653-.617-.467 2.653-3.5.617.467-.482.775.047.342 4.928 3.735.342-.047.616-.673.617.467-2.653 3.5-.617-.467.467-.755-.052-.335-3.5-2.653.933 5.12.443.335.341-.047.601-.653.617.468-2.658 3.506zm250.245-16.115 2.816 3.348-.567.477-.64-.605-.301.022-2.531 4.558 4.923-1.688.102-.284-.508-.76.567-.477 2.128 2.531-.567.476-.717-.617-8.326 2.66c-1.019.322-1.929.446-2.728.371-.8-.075-1.387-.336-1.763-.782-.26-.309-.386-.658-.378-1.045.007-.388.142-.691.404-.912.189-.159.413-.247.673-.264.261-.017.539.037.834.162l.179 1.806c.293.062.649.064 1.068.009s.886-.164 1.401-.327l3.914-7.293-.55-.889zm-255.904 7.118c.291-.132.507-.269.65-.411.142-.142.266-.282.371-.42.119-.157.225-.33.319-.519s.162-.419.205-.689l-.972-.737c-.042-.158-.048-.312-.019-.462.03-.151.107-.308.232-.474.183-.241.392-.391.626-.449s.472.004.714.187c.429.325.611.818.546 1.48-.066.654-.398 1.374-.994 2.161-.6.791-1.205 1.307-1.817 1.547-.611.24-1.134.196-1.567-.133-.242-.183-.366-.395-.373-.636s.081-.482.264-.724c.125-.165.256-.282.393-.351.136-.069.286-.105.45-.107zm19.443-7.1.639-.663.025-.344-4.044-4.678-.344-.025-.749.536-.506-.586 3.329-2.877.506.585-.613.642-.025.344 1.584 1.833 2.482-2.146-1.584-1.833-.344-.025-.724.514-.506-.585 3.329-2.878.506.586-.639.663-.025.344 4.044 4.678.344.025.749-.536.506.586-3.328 2.877-.507-.585.614-.642.025-.344-1.827-2.113-2.482 2.146 1.827 2.113.344.025.723-.514.506.585-3.329 2.878zm215.203-8.863.767.511.343-.037 3.884-4.811-.037-.343-.661-.642.487-.602 3.423 2.764-.486.602-.74-.49-.343.037-2.674 3.313 5.151-.783.259-.321-.03-.338-.634-.62.486-.603 3.417 2.759-.486.602-.76-.505-.343.037-3.884 4.811.037.343.654.637-.486.602-3.418-2.759.487-.602.74.489.336-.041 2.759-3.418-5.146.777-.349.432.037.343.634.62-.486.602-3.424-2.763zm-202.657-1.535c-.24.664-.5 1.209-.782 1.633-.281.425-.599.765-.954 1.021-.537.387-1.098.535-1.684.442-.585-.092-1.07-.405-1.454-.937-.473-.655-.587-1.34-.343-2.056s1.133-1.942 2.667-3.679l-.3-.416c-.365-.505-.737-.796-1.119-.874-.381-.077-.801.05-1.26.381-.1.073-.2.155-.299.247-.1.093-.203.199-.311.318l.946 1.309-1.289.931c-.223.161-.415.237-.577.229-.161-.008-.306-.1-.434-.278-.315-.436-.296-1.028.058-1.774.353-.746.957-1.428 1.812-2.045.96-.693 1.768-.996 2.425-.91s1.316.586 1.976 1.5l2.609 3.615.327.065.793-.468.443.614-2.489 1.797zm193.462-4.662.809.44.339-.067 3.438-5.139-.067-.339-.715-.579.43-.644 3.657 2.447-.43.643-.781-.421-.339.067-2.367 3.538 5.061-1.24.229-.342-.06-.334-.687-.561.43-.644 3.65 2.443-.43.643-.802-.435-.339.067-3.438 5.139.067.339.708.575-.43.643-3.65-2.442.43-.643.781.421.332-.072 2.442-3.65-5.057 1.233-.308.462.067.338.687.561-.43.643-3.657-2.446zm-193.875 4.089-1.645-2.279c-.771.868-1.238 1.544-1.4 2.028-.163.484-.095.933.204 1.347.233.323.511.511.834.565.322.054.643-.034.961-.263.178-.128.353-.309.528-.542.174-.233.346-.518.518-.856zm212.236-3.273c.123.294.253.515.391.662.137.146.273.274.409.384.152.123.322.235.508.334.186.1.414.176.682.227l.767-.95c.159-.036.314-.038.463-.004s.304.116.466.246c.235.191.379.404.43.64.051.235-.019.471-.209.707-.338.419-.837.586-1.496.5-.651-.086-1.361-.439-2.129-1.059-.773-.623-1.27-1.244-1.491-1.863-.222-.618-.162-1.139.18-1.563.19-.235.406-.353.647-.353.242 0 .48.096.716.286.161.13.274.265.339.403.065.139.096.29.093.454zm-208.451 1.683.738-.551.08-.336-3.234-5.27-.335-.081-.826.408-.405-.66 3.672-2.252.405.659-.631.486-.08.335 3.304 5.386 2.589-1.589-3.304-5.385-.336-.081-.718.342-.405-.659 3.672-2.253.405.66-.738.551-.073.331 3.216 5.242.26.038.897-.55 1.821 2.969-1.025.629-1.465-1.727-.367-.101-6.712 4.119zm180.626-7.819.842.374.332-.094 3.015-5.399-.094-.332-.759-.521.377-.675 3.842 2.145-.378.676-.812-.357-.332.094-1.182 2.115 2.865 1.6 1.181-2.115-.094-.332-.73-.504.378-.676 3.841 2.145-.377.676-.842-.374-.332.095-3.015 5.398.094.332.759.521-.377.675-3.842-2.145.378-.676.812.357.332-.094 1.362-2.438-2.865-1.6-1.362 2.438.094.332.731.505-.378.675-3.841-2.145zm-173.023-5.666.734-.394 3.525 6.558.346.11.884-.399.367.682-3.979 2.139-.367-.681.791-.502.091-.345-2.816-5.239-1.001.538-.327-.608zm170.513-3.943-.329.701-.721-.245-.324.118-.699 1.493c-.107.229-.164.425-.17.59-.005.164.008.304.041.418.039.13.12.268.243.416.123.147.314.281.573.403.243.114.514.203.812.268s.581.108.85.129l1.131-2.416-.118-.324-.65-.397.328-.701 3.871 1.812-.328.701-.866-.313-.317.121-2.621 5.601.109.321.795.464-.328.702-4.305-2.016.328-.701 1.156.448.324-.117 1.095-2.339c-.158-.019-.33-.045-.515-.079-.186-.034-.384-.076-.597-.126-.416-.102-.797-.234-1.143-.396-.284-.133-.607-.336-.968-.611-.338-.269-.59-.57-.757-.902-.175-.367-.233-.701-.173-1.001.056-.29.139-.554.251-.793l.727-1.554-.109-.321-.658-.401.328-.701zm-163.557.38c1.196-.567 2.318-.656 3.365-.268s1.862 1.198 2.446 2.43c.553 1.165.63 2.277.231 3.335-.398 1.058-1.206 1.875-2.422 2.452-1.171.555-2.285.644-3.342.267s-1.863-1.151-2.418-2.322c-.57-1.201-.659-2.339-.269-3.415s1.193-1.902 2.409-2.479zm.332.858c-.567.269-.882.75-.944 1.444s.138 1.53.602 2.508c.471.993.996 1.691 1.575 2.093.578.402 1.149.47 1.711.203.588-.278.914-.762.979-1.451.065-.688-.139-1.529-.61-2.523-.468-.988-.994-1.682-1.578-2.082s-1.162-.464-1.735-.192zm7.899 3.923.821-.416.137-.317-2.279-5.748-.316-.137-.884.259-.285-.719 4.09-1.622.285.72-.79.404-.137.316.893 2.253 3.051-1.21-.893-2.252-.317-.137-.852.248-.286-.72 4.091-1.622.285.72-.822.416-.136.317 2.279 5.748.316.137.884-.26.285.72-4.09 1.621-.286-.719.791-.404.137-.317-1.03-2.596-3.05 1.209 1.029 2.597.317.137.852-.248.286.72-4.091 1.621zm149.018-8.098.77.317-2.837 6.884.134.338.869.43-.295.716-4.177-1.721.295-.716.889.294.325-.149 2.266-5.499-1.05-.433.263-.638zm-166.228 3.507c.331-.178.659-.219.984-.123s.574.304.747.625c.181.336.224.668.129.996-.094.328-.304.579-.63.755-.317.169-.638.205-.965.107-.326-.098-.576-.308-.748-.629-.176-.326-.217-.654-.124-.984.093-.331.295-.579.607-.747zm153.611-.002.89.236.313-.145 2.125-5.807-.145-.313-.896-.418.266-.727 6.732 2.464-1.018 2.781-1.098-.402.375-1.735-.122-.304-2.062-.755-2.174 5.941.161.319 1.124.501-.266.727-4.471-1.636zm-121.221-1.241c-.431.56-.845.999-1.242 1.318-.397.318-.804.546-1.22.682-.629.205-1.208.175-1.738-.092-.53-.266-.896-.711-1.1-1.335-.251-.768-.151-1.455.299-2.063.451-.607 1.671-1.505 3.661-2.692l-.16-.488c-.193-.592-.459-.983-.799-1.173-.339-.19-.778-.197-1.317-.021-.117.039-.237.087-.36.145-.122.057-.253.127-.392.207l.502 1.536-1.512.494c-.261.085-.467.1-.618.043-.152-.057-.261-.189-.329-.397-.168-.512.031-1.07.595-1.673s1.347-1.069 2.349-1.396c1.125-.368 1.987-.411 2.587-.129s1.075.959 1.425 2.031l1.385 4.238.292.161.898-.204.235.719-2.919.954zm118.431-7.856c1.265.39 2.152 1.081 2.662 2.075.509.993.563 2.141.162 3.444-.38 1.232-1.074 2.104-2.082 2.615-1.009.511-2.156.568-3.443.172-1.238-.381-2.119-1.068-2.644-2.06-.525-.993-.596-2.108-.215-3.346.392-1.27 1.094-2.17 2.109-2.7 1.014-.53 2.164-.596 3.451-.2zm-118.65 7.184-.873-2.671c-.999.592-1.649 1.094-1.951 1.505-.302.412-.374.86-.216 1.345.124.379.331.643.622.793s.623.164.996.042c.208-.068.431-.187.668-.356.236-.168.488-.388.754-.658zm10.798-10.05.202.747-.863.321-.172.299 1.613 5.969.299.172.907-.158.202.747-4.329 1.17-.201-.747.912-.334.163-.297-1.65-6.107-1.657.447c.087.407.18.874.279 1.402s.177 1.075.234 1.641c.057.565.083 1.129.078 1.691s-.068 1.079-.187 1.55c-.12.471-.311.875-.574 1.214-.263.338-.619.568-1.069.689-.406.11-.726.087-.959-.067-.234-.155-.394-.395-.482-.72-.028-.103-.047-.217-.058-.342-.01-.125.004-.25.042-.377.039-.127.113-.248.224-.365.11-.117.274-.217.49-.298l1.218.603c.126-.371.203-.805.232-1.3.029-.496.023-1.019-.018-1.568-.041-.55-.108-1.11-.201-1.68-.094-.571-.199-1.116-.316-1.636l-.307-.17-1.086.206-.202-.747zm107.517 3.723c-.6-.185-1.157-.043-1.672.426-.514.47-.931 1.222-1.25 2.256-.323 1.051-.408 1.92-.253 2.607.155.688.53 1.123 1.125 1.307.622.191 1.189.055 1.702-.409s.931-1.222 1.255-2.272c.322-1.045.403-1.913.242-2.602-.16-.689-.543-1.127-1.149-1.313zm-14.163 3.29.91.144.296-.177 1.52-5.994-.176-.296-.933-.324.19-.75 6.948 1.762-.728 2.871-1.134-.288.196-1.764-.152-.29-2.128-.54-1.556 6.132.193.301 1.17.384-.19.75-4.616-1.171zm-9.054-9.63-.117.765-.919-.054-.27.205-.924 6.081.175.196 1.039.158-.523 3.444-1.189-.181-.005-2.264-.216-.314-5.515-.838-.299.235-.678 2.161-1.189-.181.523-3.443.849.129c.335-.375.663-.802.986-1.28.322-.479.626-.979.912-1.5.287-.521.547-1.048.781-1.583.235-.534.432-1.045.591-1.531l-.205-.278-1.094-.251.117-.766zm-81.312 9.744.88-.273.187-.29-1.289-6.047-.29-.188-.914.109-.162-.757 4.419-.942.161.757-.961.291-.188.289.477 2.238c.226-.071.431-.132.615-.182.184-.051.392-.101.622-.15.241-.052.5-.097.775-.136.276-.038.555-.056.836-.053.282.003.558.033.828.09s.519.159.745.306c.226.146.424.342.594.587s.294.554.374.927c.074.345.093.655.056.93-.036.274-.114.519-.234.734-.121.215-.274.404-.46.567s-.391.304-.615.423c-.224.12-.46.219-.707.297-.247.079-.491.144-.733.195l-4.854 1.035zm86.523-1.151c-.651.272-1.229.448-1.732.528s-.969.076-1.397-.013c-.649-.133-1.137-.447-1.464-.941-.328-.494-.426-1.062-.294-1.705.163-.791.59-1.339 1.283-1.643.692-.304 2.197-.478 4.514-.523l.103-.503c.126-.609.088-1.081-.112-1.414-.201-.334-.579-.557-1.134-.671-.12-.025-.248-.043-.384-.054-.135-.01-.283-.015-.443-.014l-.326 1.583-1.557-.321c-.27-.055-.456-.145-.559-.269-.103-.125-.133-.294-.089-.508.109-.528.557-.913 1.346-1.158.789-.244 1.7-.26 2.733-.047 1.159.238 1.929.628 2.31 1.171.381.542.458 1.365.231 2.469l-.899 4.368.173.284.882.268-.153.741-3.008-.618zm35.074-1.221c.347.143.587.371.719.683s.129.637-.01.974c-.145.353-.375.596-.688.731s-.641.132-.983-.009c-.332-.137-.564-.363-.695-.678s-.127-.641.012-.978c.141-.342.369-.582.683-.719.314-.138.635-.139.962-.004zm-118.45 1.435c.365-.009.698-.046 1-.11.155-.028.322-.078.501-.15.18-.073.339-.181.477-.326.139-.144.24-.335.304-.572s.058-.534-.018-.891c-.037-.175-.101-.348-.192-.518s-.212-.316-.365-.438c-.152-.123-.34-.21-.563-.263-.224-.053-.483-.047-.78.016-.23.049-.43.104-.601.167-.17.062-.299.114-.388.155zm5.949-.994.892-.227.203-.279-.968-6.107-.28-.203-.918.061-.122-.765 4.346-.689.121.765-.859.221-.203.279.38 2.393 3.24-.514-.379-2.393-.279-.202-.886.055-.121-.765 4.346-.689.121.765-.893.226-.202.28.968 6.107.279.203.919-.061.121.765-4.345.689-.122-.765.86-.221.202-.279-.437-2.759-3.241.514.438 2.759.279.202.886-.055.121.765-4.346.689zm77.57.087.566-2.752c-1.161.019-1.974.132-2.441.34-.466.207-.751.561-.854 1.061-.08.39-.031.722.148.997.178.274.459.451.844.53.214.044.466.051.755.022.29-.029.617-.095.982-.198zm-66.86-1.758.904-.177.218-.268-.627-6.151-.267-.218-.921.009-.079-.77 4.378-.446.078.77-.87.173-.218.268.431 4.235 3.109-4.182-.042-.41-.259-.219-.887.006-.079-.77 4.37-.445.078.77-.895.176-.218.267.626 6.152.268.218.912-.008.079.77-4.369.445-.079-.77.871-.174.209-.266-.445-4.369-3.11 4.173.057.552.267.218.887-.005.079.77-4.377.446zm57.155.702.971-6.388-1.431-.217c-.157.475-.348.984-.572 1.526-.224.541-.474 1.082-.749 1.622s-.569 1.061-.884 1.563c-.315.503-.641.949-.978 1.341zm-6.259-2.101-.133 1.272c-.621.273-1.238.462-1.853.567-.614.105-1.22.126-1.817.064-1.277-.134-2.261-.635-2.951-1.502-.69-.868-.967-1.949-.832-3.243.136-1.3.642-2.32 1.518-3.06.875-.74 1.935-1.045 3.179-.914 1.127.118 1.967.548 2.521 1.292.554.743.766 1.728.638 2.955l-.035.327-5.606-.588-.005.05c-.102.977.063 1.769.495 2.379.433.609 1.078.959 1.937 1.049.452.047.921.017 1.406-.09s.997-.293 1.538-.558zm-18.763-.109.92-.034.257-.23.341-6.174-.23-.257-.911-.135.042-.773 9.669.534-.043.773-.911.034-.258.23-.34 6.174.23.257.903.134-.043.773-4.351-.24.042-.773.853-.037.249-.231.348-6.317-3.133-.173-.348 6.318.23.257.835.13-.043.773-4.351-.24zm-21.122.414.912-.126.232-.256-.289-6.176-.255-.233-.92-.041-.036-.773 4.395-.206.037.773-.879.126-.232.255.199 4.252 3.333-4.005-.019-.411-.247-.233-.886-.043-.037-.773 4.387-.205.037.773-.904.127-.233.255.289 6.177.255.232.912.041.036.774-4.387.205-.036-.773.879-.126.223-.254-.205-4.387-3.333 3.996.026.555.255.232.886.043.036.773-4.395.206zm37.965-3.695.019-.184c.074-.698.001-1.245-.217-1.643-.217-.398-.566-.622-1.046-.672-.524-.055-.967.109-1.329.491-.361.382-.594.937-.698 1.665zm-34.681-6.413c.287.138.53.216.731.235.2.019.387.024.56.016.197-.009.397-.038.603-.087.205-.049.425-.144.66-.284l-.057-1.218c.095-.134.21-.238.344-.311.134-.074.305-.116.512-.125.302-.014.551.05.746.192.195.143.299.365.313.668.025.538-.237.994-.786 1.367-.545.368-1.31.575-2.296.621-.992.047-1.776-.088-2.352-.403-.576-.316-.877-.745-.902-1.289-.015-.302.069-.534.249-.694.181-.16.423-.247.725-.261.207-.01.381.016.522.077.14.06.264.153.371.277z"/></g></svg>