<svg width="56" height="56" viewBox="0 0 56 56" fill="none" xmlns="http://www.w3.org/2000/svg">
<path fill-rule="evenodd" clip-rule="evenodd" d="M25.9997 31.9998L50.9999 19.4999V20.3988L25.9997 32.8987L1 20.3988L1.02376 19.5351L25.9997 31.9998Z" fill="url(#paint0_linear)"/>
<path fill-rule="evenodd" clip-rule="evenodd" d="M9.27055 26.2564V35.6876L25.9998 44.052L42.7287 35.6876V24.5344L25.9998 32.8988V34.6208L9.27055 26.2564Z" fill="url(#paint1_linear)"/>
<path fill-rule="evenodd" clip-rule="evenodd" d="M25.9999 32.8982V44.0515L42.729 35.6864V24.5337L25.9999 32.8982Z" fill="url(#paint2_linear)"/>
<path fill-rule="evenodd" clip-rule="evenodd" d="M25.9999 34.6201L37.1526 38.4746L42.729 35.6864V24.5337L25.9999 32.8982V34.6201Z" fill="url(#paint3_linear)"/>
<path fill-rule="evenodd" clip-rule="evenodd" d="M1.00048 19.5003L26.0002 31.9998L51.0001 19.5003L26.0002 7L1.00048 19.5003Z" fill="url(#paint4_linear)"/>
<path fill-rule="evenodd" clip-rule="evenodd" d="M1 20.3988V19.4999L25.9997 31.9998V32.8987L1 20.3988Z" fill="url(#paint5_linear)"/>
<path fill-rule="evenodd" clip-rule="evenodd" d="M1 19.4999C9.40414 23.611 17.7592 27.7607 25.9997 31.9998C17.6404 27.9132 9.40414 23.9117 1 19.4999Z" fill="#94F4FF"/>
<path fill-rule="evenodd" clip-rule="evenodd" d="M26.0789 31.9603C34.3104 27.7699 42.5995 23.6201 50.9999 19.4999C42.789 23.759 34.4635 27.891 26.0789 31.9603Z" fill="#EF4FC9"/>
<path d="M38.5 13.0588L53.6554 48.2647H23.3446L38.5 13.0588Z" fill="#3B9356"/>
<path d="M38.6074 5.47059L49.207 30.0883H28.0079L38.6074 5.47059Z" fill="#34A45A"/>
<mask id="mask0" mask-type="alpha" maskUnits="userSpaceOnUse" x="28" y="5" width="22" height="26">
<path d="M38.6074 5.47059L49.207 30.0883H28.0079L38.6074 5.47059Z" fill="#3B9356"/>
</mask>
<g mask="url(#mask0)">
<path d="M41.9527 14.3012L31.5822 14.3012L31.5822 16.7474L41.9527 14.3012Z" fill="#3F6D48"/>
</g>
<mask id="mask1" mask-type="alpha" maskUnits="userSpaceOnUse" x="23" y="13" width="31" height="36">
<path d="M38.5 13.0588L53.6554 48.2647H23.3446L38.5 13.0588Z" fill="#3B9356"/>
</mask>
<g mask="url(#mask1)">
<path d="M31.4763 30.1078L50.2026 30.1078L50.2026 34.0588L31.4763 30.1078Z" fill="#3F6D48"/>
</g>
<path d="M38.6075 0L44.7441 14.4265H32.4709L38.6075 0Z" fill="#37B957"/>
<ellipse cx="41.8468" cy="24.1803" rx="2.01061" ry="1.78765" fill="#FF5656"/>
<ellipse cx="41.8468" cy="24.1803" rx="2.01061" ry="1.78765" fill="url(#paint6_linear)"/>
<ellipse cx="37.4023" cy="40.3632" rx="2.01061" ry="1.78765" fill="#DD56FF"/>
<ellipse cx="37.4023" cy="40.3632" rx="2.01061" ry="1.78765" fill="url(#paint7_linear)"/>
<ellipse cx="33.3246" cy="20.7932" rx="1.79896" ry="1.59948" fill="#8FFF68"/>
<ellipse cx="33.3246" cy="20.7932" rx="1.79896" ry="1.59948" fill="url(#paint8_linear)"/>
<mask id="mask2" mask-type="alpha" maskUnits="userSpaceOnUse" x="31" y="19" width="5" height="4">
<path d="M35.1236 20.7932C35.1236 21.6765 34.3182 22.3927 33.3246 22.3927C32.3311 22.3927 31.5256 21.6765 31.5256 20.7932C31.5256 19.9098 32.3311 19.1937 33.3246 19.1937C34.3182 19.1937 35.1236 19.9098 35.1236 20.7932Z" fill="#8FFF68"/>
<path d="M35.1236 20.7932C35.1236 21.6765 34.3182 22.3927 33.3246 22.3927C32.3311 22.3927 31.5256 21.6765 31.5256 20.7932C31.5256 19.9098 32.3311 19.1937 33.3246 19.1937C34.3182 19.1937 35.1236 19.9098 35.1236 20.7932Z" fill="url(#paint9_linear)"/>
</mask>
<g mask="url(#mask2)">
<path d="M34.7002 20.2287C34.7002 21.216 33.8001 22.0163 32.6896 22.0163C31.5792 22.0163 30.679 21.216 30.679 20.2287C30.679 19.2414 31.5792 18.441 32.6896 18.441C33.8001 18.441 34.7002 19.2414 34.7002 20.2287Z" fill="#8FFF68"/>
<path d="M34.7002 20.2287C34.7002 21.216 33.8001 22.0163 32.6896 22.0163C31.5792 22.0163 30.679 21.216 30.679 20.2287C30.679 19.2414 31.5792 18.441 32.6896 18.441C33.8001 18.441 34.7002 19.2414 34.7002 20.2287Z" fill="url(#paint10_linear)"/>
</g>
<ellipse cx="47.5612" cy="36.7879" rx="1.79896" ry="1.59948" fill="#FFDE68"/>
<ellipse cx="47.5612" cy="36.7879" rx="1.79896" ry="1.59948" fill="url(#paint11_linear)"/>
<mask id="mask3" mask-type="alpha" maskUnits="userSpaceOnUse" x="45" y="35" width="5" height="4">
<path d="M49.3601 36.7879C49.3601 37.6713 48.5547 38.3874 47.5612 38.3874C46.5676 38.3874 45.7622 37.6713 45.7622 36.7879C45.7622 35.9046 46.5676 35.1885 47.5612 35.1885C48.5547 35.1885 49.3601 35.9046 49.3601 36.7879Z" fill="#FFDE68"/>
<path d="M49.3601 36.7879C49.3601 37.6713 48.5547 38.3874 47.5612 38.3874C46.5676 38.3874 45.7622 37.6713 45.7622 36.7879C45.7622 35.9046 46.5676 35.1885 47.5612 35.1885C48.5547 35.1885 49.3601 35.9046 49.3601 36.7879Z" fill="url(#paint12_linear)"/>
</mask>
<g mask="url(#mask3)">
<path d="M48.9368 36.2234C48.9368 37.2107 48.0366 38.0111 46.9262 38.0111C45.8158 38.0111 44.9156 37.2107 44.9156 36.2234C44.9156 35.2361 45.8158 34.4358 46.9262 34.4358C48.0366 34.4358 48.9368 35.2361 48.9368 36.2234Z" fill="#FFDE68"/>
<path d="M48.9368 36.2234C48.9368 37.2107 48.0366 38.0111 46.9262 38.0111C45.8158 38.0111 44.9156 37.2107 44.9156 36.2234C44.9156 35.2361 45.8158 34.4358 46.9262 34.4358C48.0366 34.4358 48.9368 35.2361 48.9368 36.2234Z" fill="url(#paint13_linear)"/>
</g>
<ellipse cx="41.2053" cy="8.17967" rx="1.58071" ry="1.40542" fill="#68B6FF"/>
<ellipse cx="41.2053" cy="8.17967" rx="1.58071" ry="1.40542" fill="url(#paint14_linear)"/>
<defs>
<linearGradient id="paint0_linear" x1="52.6606" y1="18.6694" x2="16.6421" y2="36.6786" gradientUnits="userSpaceOnUse">
<stop stop-color="#6D0060"/>
<stop offset="1" stop-color="#1E3ED2"/>
</linearGradient>
<linearGradient id="paint1_linear" x1="1.55151" y1="27.857" x2="37.5188" y2="44.9196" gradientUnits="userSpaceOnUse">
<stop stop-color="#00E1FF"/>
<stop offset="1" stop-color="#F150FF"/>
</linearGradient>
<linearGradient id="paint2_linear" x1="45.2464" y1="25.7921" x2="14.783" y2="46.9013" gradientUnits="userSpaceOnUse">
<stop stop-color="#8A0066"/>
<stop offset="1" stop-color="#0067B9"/>
</linearGradient>
<linearGradient id="paint3_linear" x1="37.3463" y1="15.1529" x2="34.3648" y2="39.8689" gradientUnits="userSpaceOnUse">
<stop stop-color="#003546"/>
<stop offset="0.43" stop-color="#003546" stop-opacity="0.690196"/>
<stop offset="1" stop-color="#003546" stop-opacity="0"/>
</linearGradient>
<linearGradient id="paint4_linear" x1="-2.54465" y1="15.9323" x2="69.3306" y2="19.8762" gradientUnits="userSpaceOnUse">
<stop stop-color="#00C2FD"/>
<stop offset="1" stop-color="#FF00D4"/>
</linearGradient>
<linearGradient id="paint5_linear" x1="2.73721" y1="21.2672" x2="48.4206" y2="41.3207" gradientUnits="userSpaceOnUse">
<stop stop-color="#00E1FF"/>
<stop offset="1" stop-color="#DA00E7"/>
</linearGradient>
<linearGradient id="paint6_linear" x1="38.7536" y1="19.7799" x2="43.0185" y2="27.9201" gradientUnits="userSpaceOnUse">
<stop stop-color="white"/>
<stop offset="1" stop-color="white" stop-opacity="0"/>
</linearGradient>
<linearGradient id="paint7_linear" x1="34.3091" y1="35.9629" x2="38.574" y2="44.103" gradientUnits="userSpaceOnUse">
<stop stop-color="white"/>
<stop offset="1" stop-color="white" stop-opacity="0"/>
</linearGradient>
<linearGradient id="paint8_linear" x1="30.7876" y1="17.4302" x2="34.449" y2="23.651" gradientUnits="userSpaceOnUse">
<stop stop-color="white"/>
<stop offset="1" stop-color="white" stop-opacity="0"/>
</linearGradient>
<linearGradient id="paint9_linear" x1="30.7876" y1="17.4302" x2="34.449" y2="23.651" gradientUnits="userSpaceOnUse">
<stop stop-color="white"/>
<stop offset="1" stop-color="white" stop-opacity="0"/>
</linearGradient>
<linearGradient id="paint10_linear" x1="29.8542" y1="16.47" x2="33.9463" y2="23.4227" gradientUnits="userSpaceOnUse">
<stop stop-color="white"/>
<stop offset="1" stop-color="white" stop-opacity="0"/>
</linearGradient>
<linearGradient id="paint11_linear" x1="45.0242" y1="33.4249" x2="48.6855" y2="39.6457" gradientUnits="userSpaceOnUse">
<stop stop-color="white"/>
<stop offset="1" stop-color="white" stop-opacity="0"/>
</linearGradient>
<linearGradient id="paint12_linear" x1="45.0242" y1="33.4249" x2="48.6855" y2="39.6457" gradientUnits="userSpaceOnUse">
<stop stop-color="white"/>
<stop offset="1" stop-color="white" stop-opacity="0"/>
</linearGradient>
<linearGradient id="paint13_linear" x1="44.0907" y1="32.4648" x2="48.1828" y2="39.4174" gradientUnits="userSpaceOnUse">
<stop stop-color="white"/>
<stop offset="1" stop-color="white" stop-opacity="0"/>
</linearGradient>
<linearGradient id="paint14_linear" x1="38.9761" y1="5.22469" x2="42.1932" y2="10.6907" gradientUnits="userSpaceOnUse">
<stop stop-color="white"/>
<stop offset="1" stop-color="white" stop-opacity="0"/>
</linearGradient>
</defs>
</svg>
